<?xml version="1.0" encoding="UTF-8" standalone="no"?>
<svg
   xmlns:dc="http://purl.org/dc/elements/1.1/"
   xmlns:cc="http://creativecommons.org/ns#"
   xmlns:rdf="http://www.w3.org/1999/02/22-rdf-syntax-ns#"
   xmlns:svg="http://www.w3.org/2000/svg"
   xmlns="http://www.w3.org/2000/svg"
   xmlns:sodipodi="http://sodipodi.sourceforge.net/DTD/sodipodi-0.dtd"
   xmlns:inkscape="http://www.inkscape.org/namespaces/inkscape"
   width="6"
   height="5"
   viewBox="0 0 1.5874999 1.3229168"
   version="1.1"
   id="svg1634"
   inkscape:version="1.0.2-2 (e86c870879, 2021-01-15)"
   sodipodi:docname="Boulder1.svg">
  <defs
     id="defs1628" />
  <sodipodi:namedview
     id="base"
     pagecolor="#ffffff"
     bordercolor="#666666"
     borderopacity="1.0"
     inkscape:pageopacity="0.0"
     inkscape:pageshadow="2"
     inkscape:zoom="14.619433"
     inkscape:cx="3"
     inkscape:cy="2.5"
     inkscape:document-units="mm"
     inkscape:current-layer="g2261"
     inkscape:document-rotation="0"
     showgrid="false"
     units="px"
     inkscape:window-width="1920"
     inkscape:window-height="1017"
     inkscape:window-x="-8"
     inkscape:window-y="-8"
     inkscape:window-maximized="1" />
  <metadata
     id="metadata1631">
    <rdf:RDF>
      <cc:Work
         rdf:about="">
        <dc:format>image/svg+xml</dc:format>
        <dc:type
           rdf:resource="http://purl.org/dc/dcmitype/StillImage" />
        <dc:title></dc:title>
      </cc:Work>
    </rdf:RDF>
  </metadata>
  <g
     inkscape:label="Layer 1"
     inkscape:groupmode="layer"
     id="layer1">
    <g
       id="g2261"
       transform="matrix(0.21731043,0,0,0.18710199,0.33484295,0.53370488)">
      <path
         style="fill:#d7b55b;stroke-width:0.264583"
         d="M 2.5437476,4.0922182 C 2.4398865,3.9883568 2.3549089,3.6850983 2.3549089,3.4183099 c 0,-0.4154204 -0.2235729,-0.4850693 -1.55707017,-0.4850693 -1.38780896,0 -1.60642984,-0.075333 -2.01113993,-0.692998 -0.6344799,-0.9683387 -0.3619906,-1.98671114 0.94695307,-3.5390408 0.99202441,-1.1764822 1.22058312,-1.3094764 2.53200433,-1.4733277 1.2872405,-0.16083 1.513469,-0.1129261 2.1134553,0.4475245 C 5.8628244,-0.93865664 6.1482839,0.53991035 5.2661861,2.270094 4.9756181,2.8400265 4.7672587,3.4902795 4.8031653,3.7151004 4.8513631,4.016877 4.5889346,4.1444369 3.8005184,4.2024613 3.2131558,4.2456889 2.647609,4.1960796 2.5437476,4.0922182 Z"
         id="path2277" />
      <path
         style="fill:#c0964f;stroke-width:0.264583"
         d="M 2.5437476,4.0922182 C 2.4398865,3.9883568 2.3549089,3.6850983 2.3549089,3.4183099 c 0,-0.4154204 -0.2235729,-0.4850693 -1.55707017,-0.4850693 -1.38780896,0 -1.60642984,-0.075333 -2.01113993,-0.692998 -0.6344799,-0.9683387 -0.3619906,-1.98671114 0.94695307,-3.5390408 0.99202441,-1.1764822 1.22058312,-1.3094764 2.53200433,-1.4733277 1.2872405,-0.16083 1.513469,-0.1129261 2.1134553,0.4475245 C 5.8628244,-0.93865664 6.1482839,0.53991035 5.2661861,2.270094 4.9756181,2.8400265 4.7672587,3.4902795 4.8031653,3.7151004 4.8513631,4.016877 4.5889346,4.1444369 3.8005184,4.2024613 3.2131558,4.2456889 2.647609,4.1960796 2.5437476,4.0922182 Z M 4.0747005,2.9332406 C 3.9847636,2.7877197 3.7693777,2.6704805 3.5960648,2.6727088 c -0.1893401,0.00243 -0.1567061,0.1064226 0.081761,0.2605318 0.5082971,0.3284868 0.5998911,0.3284868 0.3968747,0 z m 1.2994973,-3.505729 C 4.5446753,-2.0400502 3.8749599,-2.6230091 3.0185172,-2.6230091 c -0.4933291,0 -0.9705464,0.1190625 -1.0604833,0.2645833 -0.095402,0.154364 0.1736413,0.2645833 0.6458434,0.2645833 0.5247561,0 0.8093649,0.1328062 0.8093649,0.3776715 0,0.2077193 0.3137127,0.624438 0.6971397,0.92604165 0.7734379,0.60838632 1.5613776,0.74407682 1.2638159,0.21764095 z"
         id="path2275" />
      <path
         style="fill:#b78c4e;stroke-width:0.264583"
         d="M 2.5437476,4.0922182 C 2.4398865,3.9883568 2.3549089,3.6850983 2.3549089,3.4183099 c 0,-0.4154204 -0.2235729,-0.4850693 -1.55707017,-0.4850693 -1.38780896,0 -1.60642984,-0.075333 -2.01113993,-0.692998 -0.6344799,-0.9683387 -0.3619906,-1.98671114 0.94695307,-3.5390408 0.99202441,-1.1764822 1.22058312,-1.3094764 2.53200433,-1.4733277 1.2872405,-0.16083 1.513469,-0.1129261 2.1134553,0.4475245 C 5.8628244,-0.93865664 6.1482839,0.53991035 5.2661861,2.270094 4.9756181,2.8400265 4.7672587,3.4902795 4.8031653,3.7151004 4.8513631,4.016877 4.5889346,4.1444369 3.8005184,4.2024613 3.2131558,4.2456889 2.647609,4.1960796 2.5437476,4.0922182 Z M 4.0747005,2.9332406 C 3.9847636,2.7877197 3.7693777,2.6704805 3.5960648,2.6727088 c -0.1893401,0.00243 -0.1567061,0.1064226 0.081761,0.2605318 0.5082971,0.3284868 0.5998911,0.3284868 0.3968747,0 z M 4.8058077,-1.4042841 C 4.0637118,-2.4501558 3.983682,-2.4893485 2.6622381,-2.454051 c -1.3752846,0.036736 -2.28943747,0.4649378 -1.99828858,0.9360265 0.0854136,0.1382021 -0.0540737,0.4826288 -0.30997166,0.76539296 -0.6149455,0.67950711 -0.32607751,0.91386972 0.73963544,0.60007681 0.5604176,-0.16501188 0.8516399,-0.41069522 0.8280796,-0.69859097 -0.028655,-0.3501441 0.1112483,-0.4087155 0.6614583,-0.276924 0.3837897,0.091929 0.9107968,0.3884874 1.171127,0.65901856 0.2603301,0.27053141 0.7068145,0.4918752 0.9921874,0.4918752 0.304037,0 0.5337778,0.19170385 0.5548913,0.46302081 0.021553,0.27695894 0.084111,0.20850991 0.1556792,-0.17033742 0.078591,-0.41602234 -0.144877,-1.00616617 -0.6512284,-1.71979155 z"
         id="path2273" />
      <path
         style="fill:#976b47;stroke-width:0.264583"
         d="M 2.5437476,4.0922182 C 2.4398865,3.9883568 2.3549089,3.6850983 2.3549089,3.4183099 c 0,-0.4154204 -0.2235729,-0.4850693 -1.55707017,-0.4850693 -1.38780896,0 -1.60642984,-0.075333 -2.01113993,-0.692998 -0.6344799,-0.9683387 -0.3619906,-1.98671114 0.94695307,-3.5390408 0.99202441,-1.1764822 1.22058312,-1.3094764 2.53200433,-1.4733277 1.2872405,-0.16083 1.513469,-0.1129261 2.1134553,0.4475245 C 5.8628244,-0.93865664 6.1482839,0.53991035 5.2661861,2.270094 4.9756181,2.8400265 4.7672587,3.4902795 4.8031653,3.7151004 4.8513631,4.016877 4.5889346,4.1444369 3.8005184,4.2024613 3.2131558,4.2456889 2.647609,4.1960796 2.5437476,4.0922182 Z M 4.0747005,2.9332406 C 3.9847636,2.7877197 3.7693777,2.6704805 3.5960648,2.6727088 c -0.1893401,0.00243 -0.1567061,0.1064226 0.081761,0.2605318 0.5082971,0.3284868 0.5998911,0.3284868 0.3968747,0 z M 4.8058077,-1.4042841 C 4.0637118,-2.4501558 3.983682,-2.4893485 2.6622381,-2.454051 1.2869535,-2.4173153 0.37280063,-1.9891132 0.66394952,-1.5180245 0.7493631,-1.3798224 0.60987583,-1.0353957 0.35397786,-0.75263154 0.09807988,-0.46986738 -0.04115981,-0.16838369 0.04455629,-0.08266769 0.31196708,0.18474323 1.8541096,-0.27240435 2.0042191,-0.66358338 2.1686782,-1.0921572 3.4132422,-1.1750458 3.4132422,-0.757425 c 0,0.15294609 0.4167187,0.45220014 0.9260416,0.665009 0.5093229,0.2128086 0.9422558,0.5341551 0.9620731,0.71410324 0.019817,0.17994814 0.089873,0.0421672 0.1556792,-0.30617979 0.078591,-0.41602234 -0.144877,-1.00616617 -0.6512284,-1.71979155 z"
         id="path2271" />
      <path
         style="fill:#865d3f;stroke-width:0.264583"
         d="M 2.5437476,4.0922182 C 2.4398865,3.9883568 2.3549089,3.6850983 2.3549089,3.4183099 c 0,-0.4154204 -0.2235729,-0.4850693 -1.55707017,-0.4850693 -1.38780896,0 -1.60642984,-0.075333 -2.01113993,-0.692998 -0.6344799,-0.9683387 -0.3619906,-1.98671114 0.94695307,-3.5390408 0.99202441,-1.1764822 1.22058312,-1.3094764 2.53200433,-1.4733277 1.2872405,-0.16083 1.513469,-0.1129261 2.1134553,0.4475245 C 5.8628244,-0.93865664 6.1482839,0.53991035 5.2661861,2.270094 4.9756181,2.8400265 4.7672587,3.4902795 4.8031653,3.7151004 4.8513631,4.016877 4.5889346,4.1444369 3.8005184,4.2024613 3.2131558,4.2456889 2.647609,4.1960796 2.5437476,4.0922182 Z M 4.4794616,3.4771429 C 4.3280385,3.1942057 4.0905676,2.8925159 3.9517486,2.8067211 3.6670977,2.6307972 2.6194922,3.2087139 2.6194922,3.5416668 c 0,0.1191043 0.1080667,0.1497648 0.2401483,0.068134 0.1320813,-0.081631 0.5190344,-0.036673 0.8598958,0.099906 C 4.649481,4.0823243 4.7816909,4.0418635 4.4794616,3.4771429 Z M 0.9658465,1.4192247 c 0.8480102,-0.090057 1.3890624,-0.2750653 1.3890624,-0.47497812 0,-1.00033052 2.2064696,-1.08919189 2.4653358,-0.0992867 0.2171758,0.83048172 0.709664,0.56291102 0.709664,-0.38556325 0,-0.57121395 -0.2914943,-1.2887401 -0.8198659,-2.01813583 C 3.8929143,-2.6867524 3.8857261,-2.690004 2.5570897,-2.5326467 1.1158258,-2.3619503 0.57141283,-1.993608 -0.594242,-0.40049919 -1.4656136,0.7904107 -1.6359568,2.0444573 -0.88623674,1.7491313 -0.63157529,1.6488163 0.20186216,1.5003584 0.9658465,1.4192247 Z"
         id="path2269" />
      <path
         style="fill:#7e4b32;stroke-width:0.264583"
         d="M 2.5437476,4.0922182 C 2.4398865,3.9883568 2.3549089,3.6850983 2.3549089,3.4183099 c 0,-0.4154204 -0.2235729,-0.4850693 -1.55707017,-0.4850693 -1.38780896,0 -1.60642984,-0.075333 -2.01113993,-0.692998 -0.6344799,-0.9683387 -0.3619906,-1.98671114 0.94695307,-3.5390408 0.99202441,-1.1764822 1.22058312,-1.3094764 2.53200433,-1.4733277 1.2872405,-0.16083 1.513469,-0.1129261 2.1134553,0.4475245 C 5.8628244,-0.93865664 6.1482839,0.53991035 5.2661861,2.270094 4.9756181,2.8400265 4.7672587,3.4902795 4.8031653,3.7151004 4.8513631,4.016877 4.5889346,4.1444369 3.8005184,4.2024613 3.2131558,4.2456889 2.647609,4.1960796 2.5437476,4.0922182 Z M 4.4794616,3.4771429 C 4.3280385,3.1942057 4.088185,2.8910435 3.946454,2.803449 3.6241312,2.6042426 2.6194922,3.1220078 2.6194922,3.4873312 c 0,0.148989 0.1080667,0.2041004 0.2401483,0.1224693 0.1320813,-0.081631 0.5190344,-0.036673 0.8598958,0.099906 0.9299447,0.3726178 1.0621546,0.332157 0.7599253,-0.2325636 z M 0.9658465,1.4192247 c 0.8480102,-0.090057 1.3890624,-0.2750653 1.3890624,-0.47497812 0,-1.00033052 2.2064696,-1.08919189 2.4653358,-0.0992867 0.2171758,0.83048172 0.709664,0.56291102 0.709664,-0.38556325 0,-0.57121395 -0.2914943,-1.2887401 -0.8198659,-2.01813583 C 3.8929143,-2.6867524 3.8857261,-2.690004 2.5570897,-2.5326467 1.1158258,-2.3619503 0.57141283,-1.993608 -0.594242,-0.40049919 -1.4656136,0.7904107 -1.6359568,2.0444573 -0.88623674,1.7491313 -0.63157529,1.6488163 0.20186216,1.5003584 0.9658465,1.4192247 Z"
         id="path2267" />
      <path
         style="fill:#49312b;stroke-width:0.264583"
         d="M 2.5437476,4.0922182 C 2.4398865,3.9883568 2.3549089,3.6850983 2.3549089,3.4183099 c 0,-0.4154204 -0.2235729,-0.4850693 -1.55707017,-0.4850693 -1.38780896,0 -1.60642984,-0.075333 -2.01113993,-0.692998 -0.6344799,-0.9683387 -0.3619906,-1.98671114 0.94695307,-3.5390408 0.99202441,-1.1764822 1.22058312,-1.3094764 2.53200433,-1.4733277 1.2872405,-0.16083 1.513469,-0.1129261 2.1134553,0.4475245 C 5.8628244,-0.93865664 6.1482839,0.53991035 5.2661861,2.270094 4.9756181,2.8400265 4.7672587,3.4902795 4.8031653,3.7151004 4.8513631,4.016877 4.5889346,4.1444369 3.8005184,4.2024613 3.2131558,4.2456889 2.647609,4.1960796 2.5437476,4.0922182 Z M 4.4794616,3.4771429 C 4.3280385,3.1942057 4.088185,2.8910435 3.946454,2.803449 3.6241312,2.6042426 2.6194922,3.1220078 2.6194922,3.4873312 c 0,0.148989 0.1080667,0.2041004 0.2401483,0.1224693 0.1320813,-0.081631 0.5190344,-0.036673 0.8598958,0.099906 0.9299447,0.3726178 1.0621546,0.332157 0.7599253,-0.2325636 z M 3.2877038,1.85363 C 3.4704549,1.2778322 3.6393913,1.2436308 4.5641325,1.5952168 5.0708432,1.7878681 5.2555652,1.7528058 5.3751069,1.4412857 5.7175494,0.54889428 5.4885673,-0.4840173 4.7100428,-1.5587392 3.8929143,-2.6867524 3.8857261,-2.690004 2.5570897,-2.5326467 1.1158258,-2.3619503 0.57141283,-1.993608 -0.594242,-0.40049919 -1.4296725,0.74128975 -1.5416847,1.487738 -0.97226698,2.1186571 -0.68037689,2.4420737 -0.1752055,2.5166311 1.2656146,2.4489425 2.824026,2.3757296 3.1527078,2.2789641 3.2877038,1.85363 Z"
         id="path2265" />
      <path
         style="fill:#73442e;stroke-width:0.264583;fill-opacity:1"
         d="M 2.5437476,4.0922182 C 2.4398865,3.9883568 2.3549089,3.6850983 2.3549089,3.4183099 c 0,-0.4154204 -0.2235729,-0.4850693 -1.55707017,-0.4850693 -1.38780896,0 -1.60642984,-0.075333 -2.01113993,-0.692998 -0.6344799,-0.9683387 -0.3619906,-1.98671114 0.94695307,-3.5390408 0.99202441,-1.1764822 1.22058312,-1.3094764 2.53200433,-1.4733277 1.2872405,-0.16083 1.513469,-0.1129261 2.1134553,0.4475245 C 5.8628244,-0.93865664 6.1482839,0.53991035 5.2661861,2.270094 4.9756181,2.8400265 4.7672587,3.4902795 4.8031653,3.7151004 4.8513631,4.016877 4.5889346,4.1444369 3.8005184,4.2024613 3.2131558,4.2456889 2.647609,4.1960796 2.5437476,4.0922182 Z M 4.4794616,3.4771429 C 4.3280385,3.1942057 4.088185,2.8910435 3.946454,2.803449 3.6241312,2.6042426 2.6194922,3.1220078 2.6194922,3.4873312 c 0,0.148989 0.1080667,0.2041004 0.2401483,0.1224693 0.1320813,-0.081631 0.5190344,-0.036673 0.8598958,0.099906 0.9299447,0.3726178 1.0621546,0.332157 0.7599253,-0.2325636 z M 3.1527104,2.183925 C 3.166482,1.5831542 3.6212949,1.3664668 4.3998403,1.5897505 5.0453575,1.7748826 5.260355,1.7403238 5.3785009,1.4324409 5.7175319,0.54893979 5.4859461,-0.48763574 4.7103114,-1.5583685 L 3.890714,-2.6897898 2.4402386,-2.5193149 C 1.2517319,-2.3796293 0.86216529,-2.1989019 0.28327374,-1.5186575 -1.3926877,0.45073281 -1.6928349,1.3202623 -0.97226698,2.1186571 -0.6800064,2.442484 -0.17454486,2.5166192 1.2766911,2.4485083 2.3062735,2.4001867 3.1504821,2.2811242 3.1527104,2.183925 Z"
         id="path2263" />
    </g>
  </g>
</svg>
