<?xml version="1.0" encoding="UTF-8" standalone="no"?>
<svg
   xmlns:dc="http://purl.org/dc/elements/1.1/"
   xmlns:cc="http://creativecommons.org/ns#"
   xmlns:rdf="http://www.w3.org/1999/02/22-rdf-syntax-ns#"
   xmlns:svg="http://www.w3.org/2000/svg"
   xmlns="http://www.w3.org/2000/svg"
   xmlns:sodipodi="http://sodipodi.sourceforge.net/DTD/sodipodi-0.dtd"
   xmlns:inkscape="http://www.inkscape.org/namespaces/inkscape"
   width="180"
   height="100"
   viewBox="0 0 47.624997 26.458336"
   version="1.1"
   id="svg1634"
   inkscape:version="1.0.2-2 (e86c870879, 2021-01-15)"
   sodipodi:docname="Boulder1.svg">
  <defs
     id="defs1628" />
  <sodipodi:namedview
     id="base"
     pagecolor="#ffffff"
     bordercolor="#666666"
     borderopacity="1.0"
     inkscape:pageopacity="0.0"
     inkscape:pageshadow="2"
     inkscape:zoom="1.8274291"
     inkscape:cx="3"
     inkscape:cy="2.5"
     inkscape:document-units="mm"
     inkscape:current-layer="g2261"
     inkscape:document-rotation="0"
     showgrid="false"
     units="px"
     inkscape:window-width="1920"
     inkscape:window-height="1017"
     inkscape:window-x="-8"
     inkscape:window-y="-8"
     inkscape:window-maximized="1" />
  <metadata
     id="metadata1631">
    <rdf:RDF>
      <cc:Work
         rdf:about="">
        <dc:format>image/svg+xml</dc:format>
        <dc:type
           rdf:resource="http://purl.org/dc/dcmitype/StillImage" />
        <dc:title></dc:title>
      </cc:Work>
    </rdf:RDF>
  </metadata>
  <g
     inkscape:label="Layer 1"
     inkscape:groupmode="layer"
     id="layer1">
    <g
       id="g2261"
       transform="matrix(0.21731043,0,0,0.18710199,0.33484295,0.53370488)">
      <path
         style="fill:#d7b55b;stroke-width:2.64583"
         d="m 39.305132,66.59451 c -1.038611,-1.038614 -1.888387,-4.071199 -1.888387,-6.739082 0,-4.154204 -2.235729,-4.850693 -15.570702,-4.850693 -13.8780901,0 -16.0642989,-0.75333 -20.1113999,-6.92998 C -4.6101561,38.391368 -1.885263,28.207644 11.204174,12.684348 21.124418,0.91952583 23.410005,-0.41041614 36.524218,-2.0489291 c 12.872405,-1.6083 15.13469,-1.129261 21.134553,4.4752449 14.83713,13.8594472 17.691725,28.6451172 8.870746,45.9469532 -2.90568,5.699325 -4.989274,12.201855 -4.630208,14.450063 0.481978,3.017766 -2.142307,4.293365 -10.026469,4.873609 -5.873626,0.432276 -11.529094,-0.06382 -12.567708,-1.102431 z"
         id="path2277" />
      <path
         style="fill:#c0964f;stroke-width:2.64583"
         d="m 39.305132,66.59451 c -1.038611,-1.038614 -1.888387,-4.071199 -1.888387,-6.739082 0,-4.154204 -2.235729,-4.850693 -15.570702,-4.850693 -13.8780901,0 -16.0642989,-0.75333 -20.1113999,-6.92998 C -4.6101561,38.391368 -1.885263,28.207644 11.204174,12.684348 21.124418,0.91952583 23.410005,-0.41041614 36.524218,-2.0489291 c 12.872405,-1.6083 15.13469,-1.129261 21.134553,4.4752449 14.83713,13.8594472 17.691725,28.6451172 8.870746,45.9469532 -2.90568,5.699325 -4.989274,12.201855 -4.630208,14.450063 0.481978,3.017766 -2.142307,4.293365 -10.026469,4.873609 -5.873626,0.432276 -11.529094,-0.06382 -12.567708,-1.102431 z M 54.614661,55.004735 c -0.899369,-1.455209 -3.053228,-2.627601 -4.786357,-2.605318 -1.893401,0.0243 -1.567061,1.064226 0.81761,2.605318 5.082971,3.284868 5.998911,3.284868 3.968747,0 z M 67.609634,19.947445 C 59.314409,5.2718277 52.617255,-0.55776114 44.052828,-0.55776114 c -4.933291,0 -9.705464,1.19062497 -10.604833,2.64583294 -0.95402,1.54364 1.736413,2.6458329 6.458434,2.6458329 5.247561,0 8.093649,1.328062 8.093649,3.776715 0,2.0771933 3.137127,6.2443803 6.971397,9.2604163 7.734379,6.083863 15.613777,7.440768 12.638159,2.176409 z"
         id="path2275" />
      <path
         style="fill:#b78c4e;stroke-width:2.64583"
         d="m 39.305132,66.59451 c -1.038611,-1.038614 -1.888387,-4.071199 -1.888387,-6.739082 0,-4.154204 -2.235729,-4.850693 -15.570702,-4.850693 -13.8780901,0 -16.0642989,-0.75333 -20.1113999,-6.92998 C -4.6101561,38.391368 -1.885263,28.207644 11.204174,12.684348 21.124418,0.91952583 23.410005,-0.41041614 36.524218,-2.0489291 c 12.872405,-1.6083 15.13469,-1.129261 21.134553,4.4752449 14.83713,13.8594472 17.691725,28.6451172 8.870746,45.9469532 -2.90568,5.699325 -4.989274,12.201855 -4.630208,14.450063 0.481978,3.017766 -2.142307,4.293365 -10.026469,4.873609 -5.873626,0.432276 -11.529094,-0.06382 -12.567708,-1.102431 z M 54.614661,55.004735 c -0.899369,-1.455209 -3.053228,-2.627601 -4.786357,-2.605318 -1.893401,0.0243 -1.567061,1.064226 0.81761,2.605318 5.082971,3.284868 5.998911,3.284868 3.968747,0 z M 61.925733,11.629489 C 54.504774,1.1707718 53.704476,0.77884483 40.490037,1.1318198 26.737191,1.4991798 17.595662,5.7811977 20.507151,10.492085 c 0.854136,1.382021 -0.540737,4.826288 -3.099717,7.653929 -6.149455,6.795071 -3.260775,9.138697 7.396355,6.000768 5.604176,-1.650119 8.516399,-4.106952 8.280796,-6.98591 -0.28655,-3.50144 1.112483,-4.087154 6.614583,-2.769239 3.837897,0.91929 9.107968,3.884873 11.71127,6.590185 2.603301,2.705314 7.068145,4.918752 9.921874,4.918752 3.04037,0 5.337778,1.917038 5.548913,4.630208 0.21553,2.769589 0.84111,2.085099 1.556792,-1.703374 0.785911,-4.160224 -1.44877,-10.061662 -6.512284,-17.197915 z"
         id="path2273" />
      <path
         style="fill:#976b47;stroke-width:2.64583"
         d="m 39.305132,66.59451 c -1.038611,-1.038614 -1.888387,-4.071199 -1.888387,-6.739082 0,-4.154204 -2.235729,-4.850693 -15.570702,-4.850693 -13.8780901,0 -16.0642989,-0.75333 -20.1113999,-6.92998 C -4.6101561,38.391368 -1.885263,28.207644 11.204174,12.684348 21.124418,0.91952583 23.410005,-0.41041614 36.524218,-2.0489291 c 12.872405,-1.6083 15.13469,-1.129261 21.134553,4.4752449 14.83713,13.8594472 17.691725,28.6451172 8.870746,45.9469532 -2.90568,5.699325 -4.989274,12.201855 -4.630208,14.450063 0.481978,3.017766 -2.142307,4.293365 -10.026469,4.873609 -5.873626,0.432276 -11.529094,-0.06382 -12.567708,-1.102431 z M 54.614661,55.004735 c -0.899369,-1.455209 -3.053228,-2.627601 -4.786357,-2.605318 -1.893401,0.0243 -1.567061,1.064226 0.81761,2.605318 5.082971,3.284868 5.998911,3.284868 3.968747,0 z M 61.925733,11.629489 C 54.504774,1.1707718 53.704476,0.77884483 40.490037,1.1318198 26.737191,1.4991798 17.595662,5.7811977 20.507151,10.492085 c 0.854135,1.382021 -0.540737,4.826288 -3.099717,7.653929 -2.55898,2.827642 -3.951377,5.842478 -3.094216,6.699638 2.674108,2.67411 18.095534,-1.897366 19.596629,-5.809156 1.644591,-4.285738 14.090231,-5.114624 14.090231,-0.938416 0,1.529461 4.167187,4.522001 9.260416,6.650089 5.093229,2.128086 9.422558,5.341551 9.620731,7.141033 0.19817,1.799481 0.89873,0.421672 1.556792,-3.061798 0.785911,-4.160223 -1.44877,-10.061662 -6.512284,-17.197915 z"
         id="path2271" />
      <path
         style="fill:#865d3f;stroke-width:2.64583"
         d="m 39.305132,66.59451 c -1.038611,-1.038614 -1.888387,-4.071199 -1.888387,-6.739082 0,-4.154204 -2.235729,-4.850693 -15.570702,-4.850693 -13.8780901,0 -16.0642989,-0.75333 -20.1113999,-6.92998 C -4.6101561,38.391368 -1.885263,28.207644 11.204174,12.684348 21.124418,0.91952583 23.410005,-0.41041614 36.524218,-2.0489291 c 12.872405,-1.6083 15.13469,-1.129261 21.134553,4.4752449 14.83713,13.8594472 17.691725,28.6451172 8.870746,45.9469532 -2.90568,5.699325 -4.989274,12.201855 -4.630208,14.450063 0.481978,3.017766 -2.142307,4.293365 -10.026469,4.873609 -5.873626,0.432276 -11.529094,-0.06382 -12.567708,-1.102431 z m 19.35714,-6.150752 c -1.514231,-2.829372 -3.88894,-5.84627 -5.27713,-6.704218 -2.846509,-1.759239 -13.322564,4.019928 -13.322564,7.349456 0,1.191043 1.080667,1.497648 2.401483,0.68134 1.320813,-0.81631 5.190344,-0.36673 8.598958,0.99906 9.299447,3.726175 10.621546,3.321567 7.599253,-2.325638 z M 23.526121,39.864576 c 8.480102,-0.90057 13.890624,-2.750653 13.890624,-4.749781 0,-10.003305 22.064696,-10.891919 24.653358,-0.992867 2.171758,8.304817 7.096641,5.62911 7.096641,-3.855633 0,-5.712139 -2.914944,-12.8874 -8.19866,-20.181357 C 52.796799,-1.1951941 52.724917,-1.2277101 39.438553,0.34586284 25.025914,2.0528268 19.581784,5.7362497 7.9252352,21.667337 -0.78848098,33.576436 -2.491913,46.116902 5.0052877,43.163642 7.5519023,42.160492 15.886277,40.675913 23.526121,39.864576 Z"
         id="path2269" />
      <path
         style="fill:#7e4b32;stroke-width:2.64583"
         d="m 39.305132,66.59451 c -1.038611,-1.038614 -1.888387,-4.071199 -1.888387,-6.739082 0,-4.154204 -2.235729,-4.850693 -15.570702,-4.850693 -13.8780901,0 -16.0642989,-0.75333 -20.1113999,-6.92998 C -4.6101561,38.391368 -1.885263,28.207644 11.204174,12.684348 21.124418,0.91952583 23.410005,-0.41041614 36.524218,-2.0489291 c 12.872405,-1.6083 15.13469,-1.129261 21.134553,4.4752449 14.83713,13.8594472 17.691725,28.6451172 8.870746,45.9469532 -2.90568,5.699325 -4.989274,12.201855 -4.630208,14.450063 0.481978,3.017766 -2.142307,4.293365 -10.026469,4.873609 -5.873626,0.432276 -11.529094,-0.06382 -12.567708,-1.102431 z m 19.35714,-6.150752 c -1.514231,-2.829372 -3.912766,-5.860994 -5.330076,-6.736939 -3.223228,-1.992064 -13.269618,3.185588 -13.269618,6.838822 0,1.489889 1.080667,2.041003 2.401483,1.224692 1.320813,-0.81631 5.190344,-0.36673 8.598958,0.99906 9.299447,3.726178 10.621546,3.32157 7.599253,-2.325635 z M 23.526121,39.864576 c 8.480102,-0.90057 13.890624,-2.750653 13.890624,-4.749781 0,-10.003305 22.064696,-10.891919 24.653358,-0.992867 2.171758,8.304817 7.096641,5.62911 7.096641,-3.855633 0,-5.712139 -2.914944,-12.8874 -8.19866,-20.181357 C 52.796799,-1.1951941 52.724917,-1.2277101 39.438553,0.34586284 25.025914,2.0528268 19.581784,5.7362497 7.9252352,21.667337 -0.78848098,33.576436 -2.491913,46.116902 5.0052877,43.163642 7.5519023,42.160492 15.886277,40.675913 23.526121,39.864576 Z"
         id="path2267" />
      <path
         style="fill:#49312b;stroke-width:2.64583"
         d="m 39.305132,66.59451 c -1.038611,-1.038614 -1.888387,-4.071199 -1.888387,-6.739082 0,-4.154204 -2.235729,-4.850693 -15.570702,-4.850693 -13.8780901,0 -16.0642989,-0.75333 -20.1113999,-6.92998 C -4.6101561,38.391368 -1.885263,28.207644 11.204174,12.684348 21.124418,0.91952583 23.410005,-0.41041614 36.524218,-2.0489291 c 12.872405,-1.6083 15.13469,-1.129261 21.134553,4.4752449 14.83713,13.8594472 17.691725,28.6451172 8.870746,45.9469532 -2.90568,5.699325 -4.989274,12.201855 -4.630208,14.450063 0.481978,3.017766 -2.142307,4.293365 -10.026469,4.873609 -5.873626,0.432276 -11.529094,-0.06382 -12.567708,-1.102431 z m 19.35714,-6.150752 c -1.514231,-2.829372 -3.912766,-5.860994 -5.330076,-6.736939 -3.223228,-1.992064 -13.269618,3.185588 -13.269618,6.838822 0,1.489889 1.080667,2.041003 2.401483,1.224692 1.320813,-0.81631 5.190344,-0.36673 8.598958,0.99906 9.299447,3.726178 10.621546,3.32157 7.599253,-2.325635 z M 46.744694,44.208629 c 1.827511,-5.757978 3.516875,-6.099992 12.764287,-2.584132 5.067107,1.926513 6.914327,1.57589 8.109744,-1.539311 C 71.043151,31.161272 68.75333,20.832156 60.968084,10.084938 52.796799,-1.1951941 52.724917,-1.2277101 39.438553,0.34586284 25.025914,2.0528268 19.581784,5.7362497 7.9252352,21.667337 -0.42906998,33.085227 -1.549192,40.549709 4.1449853,46.8589 7.0638863,50.093066 12.1156,50.83864 26.523802,50.161754 42.107916,49.429625 45.394734,48.46197 46.744694,44.208629 Z"
         id="path2265" />
      <path
         style="fill:#73442e;fill-opacity:1;stroke-width:2.64583"
         d="m 39.305132,66.59451 c -1.038611,-1.038614 -1.888387,-4.071199 -1.888387,-6.739082 0,-4.154204 -2.235729,-4.850693 -15.570702,-4.850693 -13.8780901,0 -16.0642989,-0.75333 -20.1113999,-6.92998 C -4.6101561,38.391368 -1.885263,28.207644 11.204174,12.684348 21.124418,0.91952583 23.410005,-0.41041614 36.524218,-2.0489291 c 12.872405,-1.6083 15.13469,-1.129261 21.134553,4.4752449 14.83713,13.8594472 17.691725,28.6451172 8.870746,45.9469532 -2.90568,5.699325 -4.989274,12.201855 -4.630208,14.450063 0.481978,3.017766 -2.142307,4.293365 -10.026469,4.873609 -5.873626,0.432276 -11.529094,-0.06382 -12.567708,-1.102431 z m 19.35714,-6.150752 c -1.514231,-2.829372 -3.912766,-5.860994 -5.330076,-6.736939 -3.223228,-1.992064 -13.269618,3.185588 -13.269618,6.838822 0,1.489889 1.080667,2.041003 2.401483,1.224692 1.320813,-0.81631 5.190344,-0.36673 8.598958,0.99906 9.299447,3.726178 10.621546,3.32157 7.599253,-2.325635 z M 45.39476,47.511579 c 0.137716,-6.007708 4.685845,-8.174582 12.471299,-5.941745 6.455172,1.851321 8.605147,1.505733 9.786606,-1.573096 3.390311,-8.835011 1.074453,-19.200766 -6.681895,-29.908093 L 52.774796,-1.2255681 38.270042,0.47918084 C 26.384975,1.8760368 22.489308,3.6833108 16.700393,10.485755 -0.05922197,30.179657 -3.060694,38.874952 4.1449853,46.8589 c 2.9226059,3.238269 7.9772217,3.979621 22.4895817,3.298512 10.295824,-0.483216 18.73791,-1.673841 18.760193,-2.645833 z"
         id="path2263" />
      <g
         id="g2293"
         transform="matrix(1.9609005,0,0,2.0131282,0.51858646,114.2755)">
        <path
           style="fill:#d5b25a;stroke-width:1.31215"
           d="M 5.0082378,6.5681125 C 4.1884245,3.0320015 2.8698688,0.81116256 1.3087,0.33699353 -1.8887632,-0.63416267 -1.8250102,-5.4986985 1.4348003,-9.2848204 3.4463295,-11.62112 5.0575002,-12.113211 9.0444025,-11.608983 c 4.0007015,0.505973 6.4107115,-0.237542 11.5311345,-3.557484 l 6.473356,-4.197146 3.078234,3.339555 c 4.146492,4.498502 6.781931,10.6840499 5.910607,13.8725861 -0.392886,1.43773285 -2.342172,5.2240344 -4.331747,8.4140031 L 28.088575,12.062474 H 17.185315 6.2820527 Z M 8.6232679,-18.385335 c 0,-4.291386 2.7480571,-5.83767 6.6783411,-3.757787 4.497572,2.380088 2.768672,7.337451 -2.558966,7.337451 -3.5959288,0 -4.1193751,-0.454866 -4.1193751,-3.579664 z"
           id="path2311" />
        <path
           style="fill:#c0964f;stroke-width:1.31215"
           d="M 5.0082378,6.5681125 C 4.1884245,3.0320015 2.8698688,0.81116256 1.3087,0.33699353 -1.8887632,-0.63416267 -1.8250102,-5.4986985 1.4348003,-9.2848204 3.4463295,-11.62112 5.0575002,-12.113211 9.0444025,-11.608983 c 4.0007015,0.505973 6.4107115,-0.237542 11.5311345,-3.557484 l 6.473356,-4.197146 3.078234,3.339555 c 4.146492,4.498502 6.781931,10.6840499 5.910607,13.8725861 -0.392886,1.43773285 -2.342172,5.2240344 -4.331747,8.4140031 L 28.088575,12.062474 H 17.185315 6.2820527 Z M 10.145188,-10.08576 c -0.837056,-0.392292 -2.2067843,-0.392292 -3.0438406,0 -0.8370562,0.3922935 -0.152192,0.713259 1.5219205,0.713259 1.6741121,0 2.3589771,-0.3209655 1.5219201,-0.713259 z m 17.958661,-5.578262 c 0,-0.305669 -0.821837,-0.555762 -1.826304,-0.555762 -1.004468,0 -1.826305,0.616379 -1.826305,1.369731 0,0.753352 0.821837,1.003445 1.826305,0.555762 1.004467,-0.447683 1.826304,-1.064062 1.826304,-1.369731 z M 8.6232679,-18.385335 c 0,-4.291386 2.7480571,-5.83767 6.6783411,-3.757787 4.497572,2.380088 2.768672,7.337451 -2.558966,7.337451 -3.5959288,0 -4.1193751,-0.454866 -4.1193751,-3.579664 z m 7.3052181,-2.076788 c -2.384389,-1.789698 -3.996176,-1.789698 -3.043841,0 0.413864,0.777762 1.678953,1.404369 2.811312,1.392459 1.774285,-0.01866 1.806422,-0.211111 0.232529,-1.392459 z"
           id="path2309" />
        <path
           style="fill:#b58d4e;stroke-width:1.31215"
           d="M 5.0082378,6.5681125 C 4.1884245,3.0320015 2.8698688,0.81116256 1.3087,0.33699353 -1.8887632,-0.63416267 -1.8250102,-5.4986985 1.4348003,-9.2848204 3.4463295,-11.62112 5.0575002,-12.113211 9.0444025,-11.608983 c 4.0007015,0.505973 6.4107115,-0.237542 11.5311345,-3.557484 l 6.473356,-4.197146 3.078234,3.339555 c 4.146492,4.498502 6.781931,10.6840499 5.910607,13.8725861 -0.392886,1.43773285 -2.342172,5.2240344 -4.331747,8.4140031 L 28.088575,12.062474 H 17.185315 6.2820527 Z M 28.142061,-9.4056323 c 3.318367,-2.8494837 3.445115,-3.2734287 1.662607,-5.5610857 -2.198103,-2.82103 -3.651326,-2.4123 -11.441109,3.217897 -5.922195,4.280365 -5.827267,5.3924673 0.153667,1.8002499 3.505805,-2.1056259 3.717387,-2.0711779 4.342917,0.7070565 0.81406,3.6155672 0.88277,3.6134319 5.281918,-0.1641177 z M 11.385897,-10.076789 c -0.824312,-0.387358 -2.4679861,-0.410937 -3.6526094,-0.0524 -1.1846233,0.3585396 -0.5101865,0.6754692 1.4987484,0.7042874 2.008935,0.02882 2.978172,-0.264531 2.153861,-0.6518894 z m -2.7626291,-8.308546 c 0,-4.291386 2.7480571,-5.83767 6.6783411,-3.757787 4.497572,2.380088 2.768672,7.337451 -2.558966,7.337451 -3.5959288,0 -4.1193751,-0.454866 -4.1193751,-3.579664 z m 7.3052181,-2.076788 c -2.384389,-1.789698 -3.996176,-1.789698 -3.043841,0 0.413864,0.777762 1.678953,1.404369 2.811312,1.392459 1.774285,-0.01866 1.806422,-0.211111 0.232529,-1.392459 z"
           id="path2307" />
        <path
           style="fill:#966a46;stroke-width:1.31215"
           d="M 5.0082378,6.5681125 C 4.1884245,3.0320015 2.8698688,0.81116256 1.3087,0.33699353 -1.8887632,-0.63416267 -1.8250102,-5.4986985 1.4348003,-9.2848204 3.4463295,-11.62112 5.0575002,-12.113211 9.0444025,-11.608983 c 4.0007015,0.505973 6.4107115,-0.237542 11.5311345,-3.557484 l 6.473356,-4.197146 3.078234,3.339555 c 4.146492,4.498502 6.781931,10.6840499 5.910607,13.8725861 -0.392886,1.43773285 -2.342172,5.2240344 -4.331747,8.4140031 L 28.088575,12.062474 H 17.185315 6.2820527 Z M 28.507751,-9.5395262 c 3.43852,-3.1959108 3.441177,-3.2113868 0.993283,-5.7843718 -2.39089,-2.51307 -2.628647,-2.45888 -9.180023,2.092335 -7.120806,4.9467962 -8.495926,7.302369 -1.977393,3.3872644 3.713444,-2.2303384 3.883754,-2.2076084 4.516525,0.602784 0.828095,3.6779084 1.402478,3.6475997 5.647608,-0.2980116 z M 11.385897,-10.076789 c -0.824312,-0.387358 -2.4679861,-0.410937 -3.6526094,-0.0524 -1.1846233,0.3585396 -0.5101865,0.6754692 1.4987484,0.7042874 2.008935,0.02882 2.978172,-0.264531 2.153861,-0.6518894 z m -2.7626291,-8.308546 c 0,-4.291386 2.7480571,-5.83767 6.6783411,-3.757787 4.497572,2.380088 2.768672,7.337451 -2.558966,7.337451 -3.5959288,0 -4.1193751,-0.454866 -4.1193751,-3.579664 z m 7.3052181,-2.076788 c -2.384389,-1.789698 -3.996176,-1.789698 -3.043841,0 0.413864,0.777762 1.678953,1.404369 2.811312,1.392459 1.774285,-0.01866 1.806422,-0.211111 0.232529,-1.392459 z"
           id="path2305" />
        <path
           style="fill:#855b3e;stroke-width:1.31215"
           d="M 5.0082378,6.5681125 C 4.1884245,3.0320015 2.8698688,0.81116256 1.3087,0.33699353 -1.8887632,-0.63416267 -1.8250102,-5.4986985 1.4348003,-9.2848204 3.4463295,-11.62112 5.0575002,-12.113211 9.0444025,-11.608983 c 4.0007015,0.505973 6.4107115,-0.237542 11.5311345,-3.557484 l 6.473356,-4.197146 3.078234,3.339555 c 4.146492,4.498502 6.781931,10.6840499 5.910607,13.8725861 -0.392886,1.43773285 -2.342172,5.2240344 -4.331747,8.4140031 L 28.088575,12.062474 H 17.185315 6.2820527 Z M 21.393617,-0.73380249 C 27.09318,-5.4384686 31.756458,-10.112474 31.756458,-11.12048 c 0,-1.008006 -1.073806,-2.961418 -2.386236,-4.340916 -2.307825,-2.425759 -2.737909,-2.257793 -13.088515,5.111597 C 5.0640923,-2.3631194 3.0043104,1.0919559 6.8191366,5.5227026 c 1.0879358,1.2635891 2.4806192,2.297433 3.0948519,2.297433 0.6142325,0 5.7800655,-3.849272 11.4796285,-8.55393809 z M 9.8080514,-7.6052742 12.819139,-9.8562762 9.4249716,-10.312552 c -3.485592,-0.468568 -9.32445816,2.9536841 -9.32445816,5.4652124 0,1.8236131 5.77283016,0.1835391 9.70753796,-2.7579346 z M 8.6232679,-18.385335 c 0,-4.291386 2.7480571,-5.83767 6.6783411,-3.757787 4.497572,2.380088 2.768672,7.337451 -2.558966,7.337451 -3.5959288,0 -4.1193751,-0.454866 -4.1193751,-3.579664 z m 7.8598111,-0.560864 c 0.854318,-1.605497 -3.697966,-3.462489 -5.433704,-2.216545 -0.68656,0.492825 -0.933074,1.488427 -0.547808,2.212447 0.905895,1.702423 5.076277,1.705281 5.981512,0.0041 z"
           id="path2303" />
        <path
           style="fill:#7e4b32;stroke-width:1.31215"
           d="M 5.0082378,6.5681125 C 4.1884245,3.0320015 2.8698688,0.81116256 1.3087,0.33699353 -1.8887632,-0.63416267 -1.8250102,-5.4986985 1.4348003,-9.2848204 3.4463295,-11.62112 5.0575002,-12.113211 9.0444025,-11.608983 c 4.0007015,0.505973 6.4107115,-0.237542 11.5311345,-3.557484 l 6.473356,-4.197146 3.078234,3.339555 c 4.146492,4.498502 6.781931,10.6840499 5.910607,13.8725861 -0.392886,1.43773285 -2.342172,5.2240344 -4.331747,8.4140031 L 28.088575,12.062474 H 17.185315 6.2820527 Z M 21.522286,-0.76087144 C 27.151081,-5.4804239 31.756458,-10.154429 31.756458,-11.147548 c 0,-0.993119 -1.07001,-2.930359 -2.377798,-4.304979 -2.297304,-2.4147 -2.767752,-2.222922 -13.896964,5.66508 C 4.4388039,-1.9606246 4.0116916,-1.4728801 5.1515336,2.0091736 6.3215642,5.5834501 8.238557,7.7559009 10.260075,7.7984813 10.825497,7.8103598 15.893491,3.9586824 21.522286,-0.76087144 Z M 9.8408042,-7.5498113 12.884645,-9.8562762 9.4577244,-10.312552 c -3.5133617,-0.467787 -9.35721096,2.9453974 -9.35721096,5.4652124 0,1.8628039 5.86183186,0.2364227 9.74029076,-2.7024717 z M 8.6232679,-18.385335 c 0,-4.291386 2.7480571,-5.83767 6.6783411,-3.757787 4.497572,2.380088 2.768672,7.337451 -2.558966,7.337451 -3.5959288,0 -4.1193751,-0.454866 -4.1193751,-3.579664 z m 7.7215931,0.116773 c 0.770841,-2.333104 -3.237822,-4.371211 -5.46007,-2.77604 -0.9870733,0.708539 -0.736758,1.5884 0.83058,2.919503 2.859104,2.428169 3.789366,2.399341 4.62949,-0.143463 z"
           id="path2301" />
        <path
           style="fill:#51362f;stroke-width:1.31215"
           d="M 5.0082378,6.5681125 C 4.1884245,3.0320015 2.8698688,0.81116256 1.3087,0.33699353 -1.8887632,-0.63416267 -1.8250102,-5.4986985 1.4348003,-9.2848204 3.4463295,-11.62112 5.0575002,-12.113211 9.0444025,-11.608983 c 4.0007015,0.505973 6.4107115,-0.237542 11.5311345,-3.557484 l 6.473356,-4.197146 3.078234,3.339555 c 4.146492,4.498502 6.781931,10.6840499 5.910607,13.8725861 -0.392886,1.43773285 -2.342172,5.2240344 -4.331747,8.4140031 L 28.088575,12.062474 H 17.185315 6.2820527 Z M 17.621692,6.4061768 c 4.770961,-4.1933116 6.829548,-4.3813264 6.829548,-0.6237539 0,3.416955 2.265564,2.2779803 4.225646,-2.1243738 1.370465,-3.07807138 1.484487,-4.42668967 0.437786,-5.1780305 -0.951859,-0.6832612 -0.352312,-2.0004056 1.830897,-4.0223014 l 3.246218,-3.0063589 -3.45235,-4.8030303 -3.45235,-4.80303 -11.640011,8.2500406 -11.640012,8.2500395 1.1977965,4.3838505 C 5.8636484,5.1403463 6.6111532,7.9085176 6.8659821,8.8807203 7.6592283,11.907051 12.676326,10.752777 17.621692,6.4061768 Z M 12.275877,-9.9564618 c 0,-0.3337792 -1.582977,-0.6068712 -3.5177256,-0.6068712 -4.4984029,0 -9.3341105,4.3975041 -8.294812,7.5431503 0.6661466,2.0162281 1.5067862,1.7488179 6.2907165,-2.0010957 3.0370016,-2.3805714 5.5218211,-4.6014047 5.5218211,-4.9351834 z M 8.6232679,-18.385335 c 0,-4.291386 2.7480571,-5.83767 6.6783411,-3.757787 4.497572,2.380088 2.768672,7.337451 -2.558966,7.337451 -3.5959288,0 -4.1193751,-0.454866 -4.1193751,-3.579664 z m 7.7215931,0.116773 c 0.770841,-2.333104 -3.237822,-4.371211 -5.46007,-2.77604 -0.9870733,0.708539 -0.736758,1.5884 0.83058,2.919503 2.859104,2.428169 3.789366,2.399341 4.62949,-0.143463 z"
           id="path2299" />
        <path
           style="fill:#3d2827;stroke-width:1.31215"
           d="M 5.0082378,6.5681125 C 4.1884245,3.0320015 2.8698688,0.81116256 1.3087,0.33699353 -1.8887632,-0.63416267 -1.8250102,-5.4986985 1.4348003,-9.2848204 3.4463295,-11.62112 5.0575002,-12.113211 9.0444025,-11.608983 c 4.0007015,0.505973 6.4107115,-0.237542 11.5311345,-3.557484 l 6.473356,-4.197146 3.078234,3.339555 c 4.146492,4.498502 6.781931,10.6840499 5.910607,13.8725861 -0.392886,1.43773285 -2.342172,5.2240344 -4.331747,8.4140031 L 28.088575,12.062474 H 17.185315 6.2820527 Z M 17.923445,6.2712506 c 5.31813,-4.2497276 5.496956,-4.2908811 6.144671,-1.4141129 0.881533,3.9152474 2.100982,3.7379049 4.58593,-0.6669226 1.521597,-2.6971885 1.703627,-4.11156304 0.708411,-5.5043356 -1.023199,-1.431935 -0.603835,-2.4967323 1.776486,-4.5106286 l 3.115867,-2.6362119 -3.483862,-4.846871 -3.483861,-4.84687 -11.640011,8.2500406 -11.640012,8.2500395 1.1977965,4.3838505 C 5.8636484,5.1403463 6.6111532,7.9085176 6.8659821,8.8807203 7.6593692,11.907587 12.215679,10.832336 17.923445,6.2712506 Z M 7.0403099,-5.2604091 12.884645,-9.8562762 8.8137635,-10.309266 c -4.574309,-0.509009 -8.71325006,2.8330522 -8.71325006,7.0356686 0,3.41449023 0.11200823,3.38242239 6.93979646,-1.9868117 z m 1.582958,-13.1249259 c 0,-4.291386 2.7480571,-5.83767 6.6783411,-3.757787 4.497572,2.380088 2.768672,7.337451 -2.558966,7.337451 -3.5959288,0 -4.1193751,-0.454866 -4.1193751,-3.579664 z m 7.7215931,0.116773 c 0.770841,-2.333104 -3.237822,-4.371211 -5.46007,-2.77604 -0.9870733,0.708539 -0.736758,1.5884 0.83058,2.919503 2.859104,2.428169 3.789366,2.399341 4.62949,-0.143463 z"
           id="path2297" />
        <path
           style="fill:#73442e;fill-opacity:1;stroke-width:1.31215"
           d="M 5.0082378,6.5681125 C 4.1884245,3.0320015 2.8698688,0.81116256 1.3087,0.33699353 -1.8887632,-0.63416267 -1.8250102,-5.4986985 1.4348003,-9.2848204 3.4463295,-11.62112 5.0575002,-12.113211 9.0444025,-11.608983 c 4.0007015,0.505973 6.4107115,-0.237542 11.5311345,-3.557484 l 6.473356,-4.197146 3.078234,3.339555 c 4.146492,4.498502 6.781931,10.6840499 5.910607,13.8725861 -0.392886,1.43773285 -2.342172,5.2240344 -4.331747,8.4140031 L 28.088575,12.062474 H 17.185315 6.2820527 Z M 17.923445,6.2712506 c 5.31813,-4.2497276 5.496956,-4.2908811 6.144671,-1.4141129 0.881533,3.9152474 2.100982,3.7379049 4.58593,-0.6669226 1.521597,-2.6971885 1.703627,-4.11156304 0.708411,-5.5043356 -1.02469,-1.4340194 -0.576569,-2.5198008 1.907288,-4.6212942 l 3.246666,-2.7468762 -3.633347,-4.7229631 -3.633347,-4.722962 -11.621326,8.2367963 -11.621327,8.2367978 1.1977965,4.3838505 C 5.8636484,5.1403463 6.6111532,7.9085176 6.8659821,8.8807203 7.6593692,11.907587 12.215679,10.832336 17.923445,6.2712506 Z M 7.0403099,-5.2604091 12.884645,-9.8562762 8.8137635,-10.309266 c -4.574309,-0.509009 -8.71325006,2.8330522 -8.71325006,7.0356686 0,3.41449023 0.11200823,3.38242239 6.93979646,-1.9868117 z m 1.582958,-13.1249259 c 0,-4.291386 2.7480571,-5.83767 6.6783411,-3.757787 4.497572,2.380088 2.768672,7.337451 -2.558966,7.337451 -3.5959288,0 -4.1193751,-0.454866 -4.1193751,-3.579664 z m 7.7215931,0.116773 c 0.770841,-2.333104 -3.237822,-4.371211 -5.46007,-2.77604 -0.9870733,0.708539 -0.736758,1.5884 0.83058,2.919503 2.859104,2.428169 3.789366,2.399341 4.62949,-0.143463 z"
           id="path2295" />
      </g>
    </g>
  </g>
</svg>
