<?xml version="1.0" encoding="UTF-8" standalone="no"?>
<svg
   xmlns:dc="http://purl.org/dc/elements/1.1/"
   xmlns:cc="http://creativecommons.org/ns#"
   xmlns:rdf="http://www.w3.org/1999/02/22-rdf-syntax-ns#"
   xmlns:svg="http://www.w3.org/2000/svg"
   xmlns="http://www.w3.org/2000/svg"
   xmlns:sodipodi="http://sodipodi.sourceforge.net/DTD/sodipodi-0.dtd"
   xmlns:inkscape="http://www.inkscape.org/namespaces/inkscape"
   width="60"
   height="50"
   viewBox="0 0 15.874999 13.229168"
   version="1.1"
   id="svg1634"
   inkscape:version="1.0.2-2 (e86c870879, 2021-01-15)"
   sodipodi:docname="Boulder2.svg">
  <defs
     id="defs1628" />
  <sodipodi:namedview
     id="base"
     pagecolor="#ffffff"
     bordercolor="#666666"
     borderopacity="1.0"
     inkscape:pageopacity="0.0"
     inkscape:pageshadow="2"
     inkscape:zoom="5.16875"
     inkscape:cx="12.359129"
     inkscape:cy="2.5"
     inkscape:document-units="mm"
     inkscape:current-layer="g2261"
     inkscape:document-rotation="0"
     showgrid="false"
     units="px"
     inkscape:window-width="1920"
     inkscape:window-height="1017"
     inkscape:window-x="-8"
     inkscape:window-y="-8"
     inkscape:window-maximized="1" />
  <metadata
     id="metadata1631">
    <rdf:RDF>
      <cc:Work
         rdf:about="">
        <dc:format>image/svg+xml</dc:format>
        <dc:type
           rdf:resource="http://purl.org/dc/dcmitype/StillImage" />
        <dc:title></dc:title>
      </cc:Work>
    </rdf:RDF>
  </metadata>
  <g
     inkscape:label="Layer 1"
     inkscape:groupmode="layer"
     id="layer1">
    <g
       id="g2261"
       transform="matrix(0.21731043,0,0,0.18710199,2.9710783,0.39293503)">
      <g
         id="g2293"
         transform="matrix(1.9609005,0,0,2.0131282,-11.612609,44.322226)">
        <path
           style="fill:#d5b25a;stroke-width:1.31215"
           d="M 5.0082378,6.5681125 C 4.1884245,3.0320015 2.8698688,0.81116256 1.3087,0.33699353 -1.8887632,-0.63416267 -1.8250102,-5.4986985 1.4348003,-9.2848204 3.4463295,-11.62112 5.0575002,-12.113211 9.0444025,-11.608983 c 4.0007015,0.505973 6.4107115,-0.237542 11.5311345,-3.557484 l 6.473356,-4.197146 3.078234,3.339555 c 4.146492,4.498502 6.781931,10.6840499 5.910607,13.8725861 -0.392886,1.43773285 -2.342172,5.2240344 -4.331747,8.4140031 L 28.088575,12.062474 H 17.185315 6.2820527 Z M 8.6232679,-18.385335 c 0,-4.291386 2.7480571,-5.83767 6.6783411,-3.757787 4.497572,2.380088 2.768672,7.337451 -2.558966,7.337451 -3.5959288,0 -4.1193751,-0.454866 -4.1193751,-3.579664 z"
           id="path2311" />
        <path
           style="fill:#c0964f;stroke-width:1.31215"
           d="M 5.0082378,6.5681125 C 4.1884245,3.0320015 2.8698688,0.81116256 1.3087,0.33699353 -1.8887632,-0.63416267 -1.8250102,-5.4986985 1.4348003,-9.2848204 3.4463295,-11.62112 5.0575002,-12.113211 9.0444025,-11.608983 c 4.0007015,0.505973 6.4107115,-0.237542 11.5311345,-3.557484 l 6.473356,-4.197146 3.078234,3.339555 c 4.146492,4.498502 6.781931,10.6840499 5.910607,13.8725861 -0.392886,1.43773285 -2.342172,5.2240344 -4.331747,8.4140031 L 28.088575,12.062474 H 17.185315 6.2820527 Z M 10.145188,-10.08576 c -0.837056,-0.392292 -2.2067843,-0.392292 -3.0438406,0 -0.8370562,0.3922935 -0.152192,0.713259 1.5219205,0.713259 1.6741121,0 2.3589771,-0.3209655 1.5219201,-0.713259 z m 17.958661,-5.578262 c 0,-0.305669 -0.821837,-0.555762 -1.826304,-0.555762 -1.004468,0 -1.826305,0.616379 -1.826305,1.369731 0,0.753352 0.821837,1.003445 1.826305,0.555762 1.004467,-0.447683 1.826304,-1.064062 1.826304,-1.369731 z M 8.6232679,-18.385335 c 0,-4.291386 2.7480571,-5.83767 6.6783411,-3.757787 4.497572,2.380088 2.768672,7.337451 -2.558966,7.337451 -3.5959288,0 -4.1193751,-0.454866 -4.1193751,-3.579664 z m 7.3052181,-2.076788 c -2.384389,-1.789698 -3.996176,-1.789698 -3.043841,0 0.413864,0.777762 1.678953,1.404369 2.811312,1.392459 1.774285,-0.01866 1.806422,-0.211111 0.232529,-1.392459 z"
           id="path2309" />
        <path
           style="fill:#b58d4e;stroke-width:1.31215"
           d="M 5.0082378,6.5681125 C 4.1884245,3.0320015 2.8698688,0.81116256 1.3087,0.33699353 -1.8887632,-0.63416267 -1.8250102,-5.4986985 1.4348003,-9.2848204 3.4463295,-11.62112 5.0575002,-12.113211 9.0444025,-11.608983 c 4.0007015,0.505973 6.4107115,-0.237542 11.5311345,-3.557484 l 6.473356,-4.197146 3.078234,3.339555 c 4.146492,4.498502 6.781931,10.6840499 5.910607,13.8725861 -0.392886,1.43773285 -2.342172,5.2240344 -4.331747,8.4140031 L 28.088575,12.062474 H 17.185315 6.2820527 Z M 28.142061,-9.4056323 c 3.318367,-2.8494837 3.445115,-3.2734287 1.662607,-5.5610857 -2.198103,-2.82103 -3.651326,-2.4123 -11.441109,3.217897 -5.922195,4.280365 -5.827267,5.3924673 0.153667,1.8002499 3.505805,-2.1056259 3.717387,-2.0711779 4.342917,0.7070565 0.81406,3.6155672 0.88277,3.6134319 5.281918,-0.1641177 z M 11.385897,-10.076789 c -0.824312,-0.387358 -2.4679861,-0.410937 -3.6526094,-0.0524 -1.1846233,0.3585396 -0.5101865,0.6754692 1.4987484,0.7042874 2.008935,0.02882 2.978172,-0.264531 2.153861,-0.6518894 z m -2.7626291,-8.308546 c 0,-4.291386 2.7480571,-5.83767 6.6783411,-3.757787 4.497572,2.380088 2.768672,7.337451 -2.558966,7.337451 -3.5959288,0 -4.1193751,-0.454866 -4.1193751,-3.579664 z m 7.3052181,-2.076788 c -2.384389,-1.789698 -3.996176,-1.789698 -3.043841,0 0.413864,0.777762 1.678953,1.404369 2.811312,1.392459 1.774285,-0.01866 1.806422,-0.211111 0.232529,-1.392459 z"
           id="path2307" />
        <path
           style="fill:#966a46;stroke-width:1.31215"
           d="M 5.0082378,6.5681125 C 4.1884245,3.0320015 2.8698688,0.81116256 1.3087,0.33699353 -1.8887632,-0.63416267 -1.8250102,-5.4986985 1.4348003,-9.2848204 3.4463295,-11.62112 5.0575002,-12.113211 9.0444025,-11.608983 c 4.0007015,0.505973 6.4107115,-0.237542 11.5311345,-3.557484 l 6.473356,-4.197146 3.078234,3.339555 c 4.146492,4.498502 6.781931,10.6840499 5.910607,13.8725861 -0.392886,1.43773285 -2.342172,5.2240344 -4.331747,8.4140031 L 28.088575,12.062474 H 17.185315 6.2820527 Z M 28.507751,-9.5395262 c 3.43852,-3.1959108 3.441177,-3.2113868 0.993283,-5.7843718 -2.39089,-2.51307 -2.628647,-2.45888 -9.180023,2.092335 -7.120806,4.9467962 -8.495926,7.302369 -1.977393,3.3872644 3.713444,-2.2303384 3.883754,-2.2076084 4.516525,0.602784 0.828095,3.6779084 1.402478,3.6475997 5.647608,-0.2980116 z M 11.385897,-10.076789 c -0.824312,-0.387358 -2.4679861,-0.410937 -3.6526094,-0.0524 -1.1846233,0.3585396 -0.5101865,0.6754692 1.4987484,0.7042874 2.008935,0.02882 2.978172,-0.264531 2.153861,-0.6518894 z m -2.7626291,-8.308546 c 0,-4.291386 2.7480571,-5.83767 6.6783411,-3.757787 4.497572,2.380088 2.768672,7.337451 -2.558966,7.337451 -3.5959288,0 -4.1193751,-0.454866 -4.1193751,-3.579664 z m 7.3052181,-2.076788 c -2.384389,-1.789698 -3.996176,-1.789698 -3.043841,0 0.413864,0.777762 1.678953,1.404369 2.811312,1.392459 1.774285,-0.01866 1.806422,-0.211111 0.232529,-1.392459 z"
           id="path2305" />
        <path
           style="fill:#855b3e;stroke-width:1.31215"
           d="M 5.0082378,6.5681125 C 4.1884245,3.0320015 2.8698688,0.81116256 1.3087,0.33699353 -1.8887632,-0.63416267 -1.8250102,-5.4986985 1.4348003,-9.2848204 3.4463295,-11.62112 5.0575002,-12.113211 9.0444025,-11.608983 c 4.0007015,0.505973 6.4107115,-0.237542 11.5311345,-3.557484 l 6.473356,-4.197146 3.078234,3.339555 c 4.146492,4.498502 6.781931,10.6840499 5.910607,13.8725861 -0.392886,1.43773285 -2.342172,5.2240344 -4.331747,8.4140031 L 28.088575,12.062474 H 17.185315 6.2820527 Z M 21.393617,-0.73380249 C 27.09318,-5.4384686 31.756458,-10.112474 31.756458,-11.12048 c 0,-1.008006 -1.073806,-2.961418 -2.386236,-4.340916 -2.307825,-2.425759 -2.737909,-2.257793 -13.088515,5.111597 C 5.0640923,-2.3631194 3.0043104,1.0919559 6.8191366,5.5227026 c 1.0879358,1.2635891 2.4806192,2.297433 3.0948519,2.297433 0.6142325,0 5.7800655,-3.849272 11.4796285,-8.55393809 z M 9.8080514,-7.6052742 12.819139,-9.8562762 9.4249716,-10.312552 c -3.485592,-0.468568 -9.32445816,2.9536841 -9.32445816,5.4652124 0,1.8236131 5.77283016,0.1835391 9.70753796,-2.7579346 z M 8.6232679,-18.385335 c 0,-4.291386 2.7480571,-5.83767 6.6783411,-3.757787 4.497572,2.380088 2.768672,7.337451 -2.558966,7.337451 -3.5959288,0 -4.1193751,-0.454866 -4.1193751,-3.579664 z m 7.8598111,-0.560864 c 0.854318,-1.605497 -3.697966,-3.462489 -5.433704,-2.216545 -0.68656,0.492825 -0.933074,1.488427 -0.547808,2.212447 0.905895,1.702423 5.076277,1.705281 5.981512,0.0041 z"
           id="path2303" />
        <path
           style="fill:#7e4b32;stroke-width:1.31215"
           d="M 5.0082378,6.5681125 C 4.1884245,3.0320015 2.8698688,0.81116256 1.3087,0.33699353 -1.8887632,-0.63416267 -1.8250102,-5.4986985 1.4348003,-9.2848204 3.4463295,-11.62112 5.0575002,-12.113211 9.0444025,-11.608983 c 4.0007015,0.505973 6.4107115,-0.237542 11.5311345,-3.557484 l 6.473356,-4.197146 3.078234,3.339555 c 4.146492,4.498502 6.781931,10.6840499 5.910607,13.8725861 -0.392886,1.43773285 -2.342172,5.2240344 -4.331747,8.4140031 L 28.088575,12.062474 H 17.185315 6.2820527 Z M 21.522286,-0.76087144 C 27.151081,-5.4804239 31.756458,-10.154429 31.756458,-11.147548 c 0,-0.993119 -1.07001,-2.930359 -2.377798,-4.304979 -2.297304,-2.4147 -2.767752,-2.222922 -13.896964,5.66508 C 4.4388039,-1.9606246 4.0116916,-1.4728801 5.1515336,2.0091736 6.3215642,5.5834501 8.238557,7.7559009 10.260075,7.7984813 10.825497,7.8103598 15.893491,3.9586824 21.522286,-0.76087144 Z M 9.8408042,-7.5498113 12.884645,-9.8562762 9.4577244,-10.312552 c -3.5133617,-0.467787 -9.35721096,2.9453974 -9.35721096,5.4652124 0,1.8628039 5.86183186,0.2364227 9.74029076,-2.7024717 z M 8.6232679,-18.385335 c 0,-4.291386 2.7480571,-5.83767 6.6783411,-3.757787 4.497572,2.380088 2.768672,7.337451 -2.558966,7.337451 -3.5959288,0 -4.1193751,-0.454866 -4.1193751,-3.579664 z m 7.7215931,0.116773 c 0.770841,-2.333104 -3.237822,-4.371211 -5.46007,-2.77604 -0.9870733,0.708539 -0.736758,1.5884 0.83058,2.919503 2.859104,2.428169 3.789366,2.399341 4.62949,-0.143463 z"
           id="path2301" />
        <path
           style="fill:#51362f;stroke-width:1.31215"
           d="M 5.0082378,6.5681125 C 4.1884245,3.0320015 2.8698688,0.81116256 1.3087,0.33699353 -1.8887632,-0.63416267 -1.8250102,-5.4986985 1.4348003,-9.2848204 3.4463295,-11.62112 5.0575002,-12.113211 9.0444025,-11.608983 c 4.0007015,0.505973 6.4107115,-0.237542 11.5311345,-3.557484 l 6.473356,-4.197146 3.078234,3.339555 c 4.146492,4.498502 6.781931,10.6840499 5.910607,13.8725861 -0.392886,1.43773285 -2.342172,5.2240344 -4.331747,8.4140031 L 28.088575,12.062474 H 17.185315 6.2820527 Z M 17.621692,6.4061768 c 4.770961,-4.1933116 6.829548,-4.3813264 6.829548,-0.6237539 0,3.416955 2.265564,2.2779803 4.225646,-2.1243738 1.370465,-3.07807138 1.484487,-4.42668967 0.437786,-5.1780305 -0.951859,-0.6832612 -0.352312,-2.0004056 1.830897,-4.0223014 l 3.246218,-3.0063589 -3.45235,-4.8030303 -3.45235,-4.80303 -11.640011,8.2500406 -11.640012,8.2500395 1.1977965,4.3838505 C 5.8636484,5.1403463 6.6111532,7.9085176 6.8659821,8.8807203 7.6592283,11.907051 12.676326,10.752777 17.621692,6.4061768 Z M 12.275877,-9.9564618 c 0,-0.3337792 -1.582977,-0.6068712 -3.5177256,-0.6068712 -4.4984029,0 -9.3341105,4.3975041 -8.294812,7.5431503 0.6661466,2.0162281 1.5067862,1.7488179 6.2907165,-2.0010957 3.0370016,-2.3805714 5.5218211,-4.6014047 5.5218211,-4.9351834 z M 8.6232679,-18.385335 c 0,-4.291386 2.7480571,-5.83767 6.6783411,-3.757787 4.497572,2.380088 2.768672,7.337451 -2.558966,7.337451 -3.5959288,0 -4.1193751,-0.454866 -4.1193751,-3.579664 z m 7.7215931,0.116773 c 0.770841,-2.333104 -3.237822,-4.371211 -5.46007,-2.77604 -0.9870733,0.708539 -0.736758,1.5884 0.83058,2.919503 2.859104,2.428169 3.789366,2.399341 4.62949,-0.143463 z"
           id="path2299" />
        <path
           style="fill:#3d2827;stroke-width:1.31215"
           d="M 5.0082378,6.5681125 C 4.1884245,3.0320015 2.8698688,0.81116256 1.3087,0.33699353 -1.8887632,-0.63416267 -1.8250102,-5.4986985 1.4348003,-9.2848204 3.4463295,-11.62112 5.0575002,-12.113211 9.0444025,-11.608983 c 4.0007015,0.505973 6.4107115,-0.237542 11.5311345,-3.557484 l 6.473356,-4.197146 3.078234,3.339555 c 4.146492,4.498502 6.781931,10.6840499 5.910607,13.8725861 -0.392886,1.43773285 -2.342172,5.2240344 -4.331747,8.4140031 L 28.088575,12.062474 H 17.185315 6.2820527 Z M 17.923445,6.2712506 c 5.31813,-4.2497276 5.496956,-4.2908811 6.144671,-1.4141129 0.881533,3.9152474 2.100982,3.7379049 4.58593,-0.6669226 1.521597,-2.6971885 1.703627,-4.11156304 0.708411,-5.5043356 -1.023199,-1.431935 -0.603835,-2.4967323 1.776486,-4.5106286 l 3.115867,-2.6362119 -3.483862,-4.846871 -3.483861,-4.84687 -11.640011,8.2500406 -11.640012,8.2500395 1.1977965,4.3838505 C 5.8636484,5.1403463 6.6111532,7.9085176 6.8659821,8.8807203 7.6593692,11.907587 12.215679,10.832336 17.923445,6.2712506 Z M 7.0403099,-5.2604091 12.884645,-9.8562762 8.8137635,-10.309266 c -4.574309,-0.509009 -8.71325006,2.8330522 -8.71325006,7.0356686 0,3.41449023 0.11200823,3.38242239 6.93979646,-1.9868117 z m 1.582958,-13.1249259 c 0,-4.291386 2.7480571,-5.83767 6.6783411,-3.757787 4.497572,2.380088 2.768672,7.337451 -2.558966,7.337451 -3.5959288,0 -4.1193751,-0.454866 -4.1193751,-3.579664 z m 7.7215931,0.116773 c 0.770841,-2.333104 -3.237822,-4.371211 -5.46007,-2.77604 -0.9870733,0.708539 -0.736758,1.5884 0.83058,2.919503 2.859104,2.428169 3.789366,2.399341 4.62949,-0.143463 z"
           id="path2297" />
        <path
           style="fill:#73442e;fill-opacity:1;stroke-width:1.31215"
           d="M 5.0082378,6.5681125 C 4.1884245,3.0320015 2.8698688,0.81116256 1.3087,0.33699353 -1.8887632,-0.63416267 -1.8250102,-5.4986985 1.4348003,-9.2848204 3.4463295,-11.62112 5.0575002,-12.113211 9.0444025,-11.608983 c 4.0007015,0.505973 6.4107115,-0.237542 11.5311345,-3.557484 l 6.473356,-4.197146 3.078234,3.339555 c 4.146492,4.498502 6.781931,10.6840499 5.910607,13.8725861 -0.392886,1.43773285 -2.342172,5.2240344 -4.331747,8.4140031 L 28.088575,12.062474 H 17.185315 6.2820527 Z M 17.923445,6.2712506 c 5.31813,-4.2497276 5.496956,-4.2908811 6.144671,-1.4141129 0.881533,3.9152474 2.100982,3.7379049 4.58593,-0.6669226 1.521597,-2.6971885 1.703627,-4.11156304 0.708411,-5.5043356 -1.02469,-1.4340194 -0.576569,-2.5198008 1.907288,-4.6212942 l 3.246666,-2.7468762 -3.633347,-4.7229631 -3.633347,-4.722962 -11.621326,8.2367963 -11.621327,8.2367978 1.1977965,4.3838505 C 5.8636484,5.1403463 6.6111532,7.9085176 6.8659821,8.8807203 7.6593692,11.907587 12.215679,10.832336 17.923445,6.2712506 Z M 7.0403099,-5.2604091 12.884645,-9.8562762 8.8137635,-10.309266 c -4.574309,-0.509009 -8.71325006,2.8330522 -8.71325006,7.0356686 0,3.41449023 0.11200823,3.38242239 6.93979646,-1.9868117 z m 1.582958,-13.1249259 c 0,-4.291386 2.7480571,-5.83767 6.6783411,-3.757787 4.497572,2.380088 2.768672,7.337451 -2.558966,7.337451 -3.5959288,0 -4.1193751,-0.454866 -4.1193751,-3.579664 z m 7.7215931,0.116773 c 0.770841,-2.333104 -3.237822,-4.371211 -5.46007,-2.77604 -0.9870733,0.708539 -0.736758,1.5884 0.83058,2.919503 2.859104,2.428169 3.789366,2.399341 4.62949,-0.143463 z"
           id="path2295" />
      </g>
    </g>
  </g>
</svg>
