<?xml version="1.0" encoding="UTF-8" standalone="no"?>
<svg
   xmlns:dc="http://purl.org/dc/elements/1.1/"
   xmlns:cc="http://creativecommons.org/ns#"
   xmlns:rdf="http://www.w3.org/1999/02/22-rdf-syntax-ns#"
   xmlns:svg="http://www.w3.org/2000/svg"
   xmlns="http://www.w3.org/2000/svg"
   xmlns:sodipodi="http://sodipodi.sourceforge.net/DTD/sodipodi-0.dtd"
   xmlns:inkscape="http://www.inkscape.org/namespaces/inkscape"
   width="60"
   height="50"
   viewBox="0 0 15.874999 13.229168"
   version="1.1"
   id="svg1634"
   inkscape:version="1.0.2-2 (e86c870879, 2021-01-15)"
   sodipodi:docname="bush1.svg">
  <defs
     id="defs1628" />
  <sodipodi:namedview
     id="base"
     pagecolor="#ffffff"
     bordercolor="#666666"
     borderopacity="1.0"
     inkscape:pageopacity="0.0"
     inkscape:pageshadow="2"
     inkscape:zoom="58.477731"
     inkscape:cx="3"
     inkscape:cy="2.5"
     inkscape:document-units="mm"
     inkscape:current-layer="layer1"
     inkscape:document-rotation="0"
     showgrid="false"
     units="px"
     inkscape:window-width="1920"
     inkscape:window-height="1017"
     inkscape:window-x="-8"
     inkscape:window-y="-8"
     inkscape:window-maximized="1" />
  <metadata
     id="metadata1631">
    <rdf:RDF>
      <cc:Work
         rdf:about="">
        <dc:format>image/svg+xml</dc:format>
        <dc:type
           rdf:resource="http://purl.org/dc/dcmitype/StillImage" />
        <dc:title></dc:title>
      </cc:Work>
    </rdf:RDF>
  </metadata>
  <g
     inkscape:label="Layer 1"
     inkscape:groupmode="layer"
     id="layer1">
    <g
       id="g2235"
       transform="matrix(5.1290443,0,0,5.0087923,-0.18190146,-1.3282778)">
      <path
         style="fill:#80a000;stroke-width:0.0330729"
         d="m 1.4440003,2.8418418 c -0.029864,-0.042637 -0.056292,-0.055209 -0.069871,-0.033238 -0.012012,0.019435 -0.069376,0.032931 -0.1274765,0.029991 -0.0581,-0.00294 -0.1316822,0.00617 -0.1635149,0.02024 -0.041725,0.018445 -0.057878,0.010753 -0.057878,-0.027562 0,-0.050276 -0.0417693,-0.069729 -0.11575519,-0.053909 -0.0181901,0.00389 -0.0832743,0.013462 -0.14463157,0.021273 -0.0973513,0.012393 -0.10941827,0.00602 -0.0947519,-0.050068 0.0147739,-0.056496 0.003465,-0.062104 -0.093498,-0.046369 -0.0966119,0.015678 -0.11285068,0.00776 -0.13081314,-0.063812 -0.0165186,-0.065815 -0.0365285,-0.078649 -0.10285641,-0.06597 -0.0627668,0.011999 -0.0865823,-4.497e-4 -0.10015478,-0.052351 -0.0108019,-0.041307 -0.03604,-0.061096 -0.0641572,-0.050307 -0.0283219,0.010868 -0.0463505,-0.00365 -0.0463505,-0.037313 0,-0.030305 -0.0148828,-0.045902 -0.03307292,-0.034659 -0.03695912,0.022842 -0.0459145,-0.058816 -0.01035057,-0.09438 0.04157844,-0.041578 0.0330347,-0.1536665 -0.011713,-0.1536665 -0.06252976,0 -0.05469749,-0.042279 0.02335193,-0.1260554 0.0370888,-0.03981 0.0537074,-0.072382 0.0369303,-0.072382 -0.069152,0 -0.06796227,-0.1481088 0.001786,-0.2223526 0.0484824,-0.051607 0.0564411,-0.075304 0.0252916,-0.075304 -0.0335931,0 -0.0357716,-0.00968 -0.00835,-0.037103 0.0204067,-0.020407 0.0297478,-0.05627 0.0207581,-0.079697 -0.00899,-0.023427 0.005014,-0.084865 0.0311196,-0.1365298 0.0261055,-0.051665 0.0416858,-0.1099566 0.0346228,-0.1295377 -0.007063,-0.019581 0.0231828,-0.074473 0.0672127,-0.1219822 0.0440299,-0.047509 0.071771,-0.094664 0.0616468,-0.1047878 -0.0101242,-0.010124 0.0238401,-0.0547099 0.0754761,-0.0990794 0.0731544,-0.0628597 0.0856228,-0.0906255 0.0564701,-0.12575239 -0.029099,-0.0350622 -0.0190725,-0.0588542 0.0451169,-0.10705839 0.0453918,-0.0340878 0.0752334,-0.0809935 0.0663148,-0.10423502 -0.008919,-0.0232415 0.0127906,-0.0514634 0.0482425,-0.0627155 0.035452,-0.011252 0.0644582,-0.0352736 0.0644582,-0.0533814 0,-0.0181077 0.0334863,-0.0282669 0.0744141,-0.022576 0.0440265,0.006122 0.071312,-0.005712 0.0668176,-0.0289785 -0.004178,-0.0216291 0.0218669,-0.048677 0.0578776,-0.0601063 0.0360107,-0.0114294 0.065474,-0.0309398 0.065474,-0.0433566 0,-0.0124168 0.0483689,-0.022078 0.10748695,-0.0214694 0.059118,6.086e-4 0.1181949,-0.0142742 0.1312825,-0.0330729 0.016016,-0.0230054 0.04575,-0.0205725 0.09095,0.007442 0.036935,0.0228918 0.067155,0.0303332 0.067155,0.0165365 0,-0.0137967 0.096381,-0.0268067 0.2141806,-0.0289111 0.1177992,-0.002104 0.2078465,0.006422 0.2001051,0.0189483 -0.00774,0.012526 0.033543,0.0242867 0.091744,0.026135 0.2755813,0.008752 0.3207934,0.0149019 0.3207934,0.0436372 0,0.0169735 0.026186,0.0308609 0.05819,0.0308609 0.054556,0 0.1271833,0.0791917 0.1331328,0.14516656 0.00146,0.0161763 0.047817,0.0512852 0.1030178,0.0780198 0.055201,0.0267347 0.1090567,0.0759921 0.1196793,0.10946087 0.011471,0.0361406 0.038772,0.0533854 0.06723,0.0424652 0.045675,-0.0175272 0.050195,-0.006126 0.061081,0.15405424 0.00185,0.0272852 0.016024,0.0692031 0.031488,0.0931508 0.015464,0.023948 0.019416,0.052242 0.00878,0.062876 -0.010634,0.010634 0.00648,0.038936 0.038029,0.062894 0.041361,0.031407 0.044701,0.043853 0.011973,0.044611 -0.034206,7.927e-4 -0.036314,0.011988 -0.00856,0.045436 0.02026,0.024411 0.027043,0.054177 0.015074,0.066146 -0.011969,0.011969 0.00304,0.021762 0.03336,0.021762 0.030317,0 0.05626,0.018603 0.057652,0.041341 0.0064,0.1045822 0.030113,0.1679496 0.085919,0.2296153 0.033208,0.036694 0.056658,0.072596 0.05211,0.079781 -0.00455,0.00719 -0.00633,0.016785 -0.00397,0.021332 0.00237,0.00455 0.00821,0.052917 0.012993,0.1074869 0.00478,0.05457 0.01129,0.099219 0.014467,0.099219 0.00318,0 0.011728,0.045091 0.019004,0.1002032 0.00968,0.073288 -0.00425,0.1111186 -0.051841,0.1408402 -0.051766,0.032328 -0.065174,0.032127 -0.065576,-9.846e-4 -3.486e-4,-0.028655 -0.010063,-0.026511 -0.031181,0.00688 -0.017561,0.027765 -0.01834,0.063363 -0.00182,0.083265 0.017399,0.020965 0.00381,0.067354 -0.034229,0.1168644 -0.034695,0.045155 -0.063413,0.069115 -0.063817,0.053245 -4.045e-4,-0.01587 -0.022175,-0.011061 -0.048379,0.010686 -0.026204,0.021747 -0.039494,0.060777 -0.029535,0.086732 0.00996,0.025955 0.0021,0.047191 -0.017464,0.047191 -0.019565,0 -0.027007,0.022324 -0.016536,0.049609 0.01047,0.027285 0.00256,0.049609 -0.017574,0.049609 -0.020136,0 -0.036611,0.022324 -0.036611,0.049609 0,0.027285 -0.026789,0.049609 -0.059531,0.049609 -0.032742,0 -0.077391,0.017859 -0.099219,0.039687 -0.030868,0.030868 -0.039687,0.030868 -0.039687,0 0,-0.021828 -0.022324,-0.039687 -0.049609,-0.039687 -0.027285,0 -0.049609,0.016705 -0.049609,0.037122 0,0.025648 -0.015334,0.024397 -0.049609,-0.00405 -0.036343,-0.030162 -0.061317,-0.031456 -0.093391,-0.00484 -0.03181,0.0264 -0.053722,0.026395 -0.080134,-1.69e-5 -0.026421,-0.026421 -0.061895,-0.01846 -0.129851,0.029144 -0.051424,0.036023 -0.1121022,0.058937 -0.1348398,0.05092 -0.022738,-0.00802 -0.041341,-1.842e-4 -0.041341,0.017407 0,0.048261 -0.2009336,0.022568 -0.2356041,-0.030126 C 1.624456,2.8024798 1.61176,2.8045088 1.574951,2.8525358 1.518176,2.9266138 1.502475,2.9253318 1.4439941,2.8418388 Z"
         id="path2245" />
      <path
         style="fill:#387d00;stroke-width:0.0330729"
         d="m 1.4440003,2.8418418 c -0.029864,-0.042637 -0.056292,-0.055209 -0.069871,-0.033238 -0.012012,0.019435 -0.069376,0.032931 -0.1274765,0.029991 -0.0581,-0.00294 -0.1316822,0.00617 -0.1635149,0.02024 -0.041725,0.018445 -0.057878,0.010753 -0.057878,-0.027562 0,-0.050276 -0.0417693,-0.069729 -0.11575519,-0.053909 -0.0181901,0.00389 -0.0832743,0.013462 -0.14463157,0.021273 -0.0973513,0.012393 -0.10941827,0.00602 -0.0947519,-0.050068 0.0147739,-0.056496 0.003465,-0.062104 -0.093498,-0.046369 -0.0966119,0.015678 -0.11285068,0.00776 -0.13081314,-0.063812 -0.0165186,-0.065815 -0.0365285,-0.078649 -0.10285641,-0.06597 -0.0627668,0.011999 -0.0865823,-4.497e-4 -0.10015478,-0.052351 -0.0108019,-0.041307 -0.03604,-0.061096 -0.0641572,-0.050307 -0.0283219,0.010868 -0.0463505,-0.00365 -0.0463505,-0.037313 0,-0.030305 -0.0148828,-0.045902 -0.03307292,-0.034659 -0.03695912,0.022842 -0.0459145,-0.058816 -0.01035057,-0.09438 0.04157844,-0.041578 0.0330347,-0.1536665 -0.011713,-0.1536665 -0.06252976,0 -0.05469749,-0.042279 0.02335193,-0.1260554 0.0370888,-0.03981 0.0537074,-0.072382 0.0369303,-0.072382 -0.069152,0 -0.06796227,-0.1481088 0.001786,-0.2223526 0.0484824,-0.051607 0.0564411,-0.075304 0.0252916,-0.075304 -0.0335931,0 -0.0357716,-0.00968 -0.00835,-0.037103 0.0204067,-0.020407 0.0297478,-0.05627 0.0207581,-0.079697 -0.00899,-0.023427 0.005014,-0.084865 0.0311196,-0.1365298 0.0261055,-0.051665 0.0416858,-0.1099566 0.0346228,-0.1295377 -0.007063,-0.019581 0.0231828,-0.074473 0.0672127,-0.1219822 0.0440299,-0.047509 0.071771,-0.094664 0.0616468,-0.1047878 -0.0101242,-0.010124 0.0238401,-0.0547099 0.0754761,-0.0990794 0.0731544,-0.0628597 0.0856228,-0.0906255 0.0564701,-0.12575239 -0.029099,-0.0350622 -0.0190725,-0.0588542 0.0451169,-0.10705839 0.0453918,-0.0340878 0.0752334,-0.0809935 0.0663148,-0.10423502 -0.008919,-0.0232415 0.0127906,-0.0514634 0.0482425,-0.0627155 0.035452,-0.011252 0.0644582,-0.0352736 0.0644582,-0.0533814 0,-0.0181077 0.0334863,-0.0282669 0.0744141,-0.022576 0.0440265,0.006122 0.071312,-0.005712 0.0668176,-0.0289785 -0.004178,-0.0216291 0.0218669,-0.048677 0.0578776,-0.0601063 0.0360107,-0.0114294 0.065474,-0.0309398 0.065474,-0.0433566 0,-0.0124168 0.0483689,-0.022078 0.10748695,-0.0214694 0.059118,6.086e-4 0.1181949,-0.0142742 0.1312825,-0.0330729 0.016016,-0.0230054 0.04575,-0.0205725 0.09095,0.007442 0.036935,0.0228918 0.067155,0.0303332 0.067155,0.0165365 0,-0.0137967 0.096381,-0.0268067 0.2141806,-0.0289111 0.1177992,-0.002104 0.2078465,0.006422 0.2001051,0.0189483 -0.00774,0.012526 0.033543,0.0242867 0.091744,0.026135 0.2755813,0.008752 0.3207934,0.0149019 0.3207934,0.0436372 0,0.0169735 0.026186,0.0308609 0.05819,0.0308609 0.054556,0 0.1271833,0.0791917 0.1331328,0.14516656 0.00146,0.0161763 0.047817,0.0512852 0.1030178,0.0780198 0.055201,0.0267347 0.1090567,0.0759921 0.1196793,0.10946087 0.011471,0.0361406 0.038772,0.0533854 0.06723,0.0424652 0.045675,-0.0175272 0.050195,-0.006126 0.061081,0.15405424 0.00185,0.0272852 0.016024,0.0692031 0.031488,0.0931508 0.015464,0.023948 0.019416,0.052242 0.00878,0.062876 -0.010634,0.010634 0.00648,0.038936 0.038029,0.062894 0.041361,0.031407 0.044701,0.043853 0.011973,0.044611 -0.034206,7.927e-4 -0.036314,0.011988 -0.00856,0.045436 0.02026,0.024411 0.027043,0.054177 0.015074,0.066146 -0.011969,0.011969 0.00304,0.021762 0.03336,0.021762 0.030317,0 0.05626,0.018603 0.057652,0.041341 0.0064,0.1045822 0.030113,0.1679496 0.085919,0.2296153 0.033208,0.036694 0.056658,0.072596 0.05211,0.079781 -0.00455,0.00719 -0.00633,0.016785 -0.00397,0.021332 0.00237,0.00455 0.00821,0.052917 0.012993,0.1074869 0.00478,0.05457 0.01129,0.099219 0.014467,0.099219 0.00318,0 0.011728,0.045091 0.019004,0.1002032 0.00968,0.073288 -0.00425,0.1111186 -0.051841,0.1408402 -0.051766,0.032328 -0.065174,0.032127 -0.065576,-9.846e-4 -3.486e-4,-0.028655 -0.010063,-0.026511 -0.031181,0.00688 -0.017561,0.027765 -0.01834,0.063363 -0.00182,0.083265 0.017399,0.020965 0.00381,0.067354 -0.034229,0.1168644 -0.034695,0.045155 -0.063413,0.069115 -0.063817,0.053245 -4.045e-4,-0.01587 -0.022175,-0.011061 -0.048379,0.010686 -0.026204,0.021747 -0.039494,0.060777 -0.029535,0.086732 0.00996,0.025955 0.0021,0.047191 -0.017464,0.047191 -0.019565,0 -0.027007,0.022324 -0.016536,0.049609 0.01047,0.027285 0.00256,0.049609 -0.017574,0.049609 -0.020136,0 -0.036611,0.022324 -0.036611,0.049609 0,0.027285 -0.026789,0.049609 -0.059531,0.049609 -0.032742,0 -0.077391,0.017859 -0.099219,0.039687 -0.030868,0.030868 -0.039687,0.030868 -0.039687,0 0,-0.021828 -0.022324,-0.039687 -0.049609,-0.039687 -0.027285,0 -0.049609,0.016705 -0.049609,0.037122 0,0.025648 -0.015334,0.024397 -0.049609,-0.00405 -0.036343,-0.030162 -0.061317,-0.031456 -0.093391,-0.00484 -0.03181,0.0264 -0.053722,0.026395 -0.080134,-1.69e-5 -0.026421,-0.026421 -0.061895,-0.01846 -0.129851,0.029144 -0.051424,0.036023 -0.1121022,0.058937 -0.1348398,0.05092 -0.022738,-0.00802 -0.041341,-1.842e-4 -0.041341,0.017407 0,0.048261 -0.2009336,0.022568 -0.2356041,-0.030126 C 1.624456,2.8024798 1.61176,2.8045088 1.574951,2.8525358 1.518176,2.9266138 1.502475,2.9253318 1.4439941,2.8418388 Z M 1.6065168,2.1246592 c -0.033593,-0.033593 -0.094417,0.049495 -0.067782,0.092592 0.018235,0.029505 0.033234,0.025212 0.056374,-0.016135 0.01734,-0.030985 0.022474,-0.065391 0.011409,-0.076456 z M 1.4583099,2.0734661 c -0.043191,-0.043191 -0.049199,0.00468 -0.012347,0.098373 0.022982,0.058432 0.024266,0.058403 0.036175,-8.079e-4 0.00679,-0.033765 -0.00393,-0.077669 -0.023828,-0.097565 z m -0.069247,0.02276 c 0,-0.027285 -0.014883,-0.040411 -0.033073,-0.029169 -0.01819,0.011242 -0.033073,0.042764 -0.033073,0.07005 0,0.027285 0.014883,0.040411 0.033073,0.029169 0.01819,-0.011242 0.033073,-0.042764 0.033073,-0.070049 z M 1.2898438,2.07969 c 0,-0.01819 -0.014883,-0.023875 -0.033073,-0.012633 -0.01819,0.011242 -0.033073,0.035323 -0.033073,0.053513 0,0.01819 0.014883,0.023875 0.033073,0.012633 0.01819,-0.011242 0.033073,-0.035323 0.033073,-0.053513 z M 2.0073423,2.102886 C 2.0007723,2.08318 1.9745193,2.067057 1.9489993,2.067057 c -0.02552,0 -0.051406,-0.025993 -0.057524,-0.057762 -0.00843,-0.043778 0.00347,-0.052287 0.049156,-0.035149 0.053176,0.019948 0.054895,0.015993 0.014585,-0.033556 C 1.9123023,1.887841 1.9068303,1.887967 1.8653173,1.94267 1.8295053,1.989857 1.8207143,1.991496 1.8190103,1.9513 1.8172803,1.910506 1.8092503,1.91177 1.7738123,1.95842 1.7410103,2.0016 1.7215153,2.005944 1.6921823,1.97661 1.6628483,1.947277 1.6536453,1.951967 1.6536453,1.996249 c 0,0.031997 -0.013486,0.049841 -0.029968,0.039655 -0.048286,-0.029843 -0.00234,-0.1483778 0.049763,-0.1283837 0.028322,0.010868 0.04635,-0.00365 0.04635,-0.037313 0,-0.030305 -0.014883,-0.045902 -0.033073,-0.03466 -0.01819,0.011242 -0.033073,0.00439 -0.033073,-0.015231 0,-0.019999 -0.036327,-0.029084 -0.082682,-0.020679 -0.094083,0.017061 -0.1127786,-0.046768 -0.033073,-0.1129183 0.039999,-0.033196 0.049614,-0.032379 0.049633,0.00422 1.29e-5,0.024965 0.036123,0.047469 0.080244,0.050008 0.060305,0.00347 0.075956,-0.00884 0.063044,-0.049609 -0.00973,-0.030724 0.012508,-0.018391 0.051313,0.028455 0.037669,0.045475 0.06882,0.069214 0.069225,0.052752 4.045e-4,-0.016462 0.027988,-0.00527 0.061297,0.024877 0.033309,0.030144 0.070516,0.044853 0.082682,0.032687 0.032729,-0.032729 0.026859,-0.084075 -0.0072,-0.063022 -0.016129,0.00997 -0.049615,-0.00689 -0.074414,-0.03747 -0.029586,-0.03648 -0.03111,-0.0472 -0.00443,-0.031179 0.022362,0.013428 0.070952,0.0082 0.1079777,-0.011614 C 2.070453,1.658357 2.088676,1.661467 2.104092,1.701641 2.114823,1.729606 2.139456,1.742689 2.158831,1.730715 2.180784,1.717148 2.186254,1.729285 2.173346,1.762919 2.161954,1.792606 2.166866,1.825691 2.184262,1.836442 2.201658,1.847193 2.215891,1.825813 2.215891,1.78893 2.215891,1.742909 2.231455,1.727843 2.2655,1.740907 2.292785,1.751377 2.315109,1.743467 2.315109,1.723333 2.315109,1.703197 2.298366,1.690442 2.277902,1.69499 2.257438,1.69954 2.233874,1.684655 2.225537,1.661917 2.20518,1.606398 2.27762,1.610056 2.393304,1.670387 2.5118699,1.732223 2.5136546,1.732097 2.5130405,1.661917 2.512646,1.616831 2.5062505,1.613956 2.4841015,1.648912 c -0.020671,0.032624 -0.034852,0.034485 -0.05195,0.00682 -0.012935,-0.020929 -0.00553,-0.059725 0.016452,-0.086213 0.025739,-0.031014 0.027448,-0.048161 0.0048,-0.048161 -0.019344,0 -0.044369,0.014883 -0.055611,0.033073 C 2.3650175,1.607461 2.3151545,1.592593 2.3146035,1.529626 2.314203,1.483851 2.3080635,1.481279 2.2852285,1.517327 2.2693505,1.542395 2.2398125,1.552679 2.2195895,1.54018 2.1967465,1.526062 2.1824205,1.54638 2.1817675,1.59382 2.1808064,1.663587 2.1769875,1.665284 2.1376215,1.613459 2.1086765,1.575357 2.0835875,1.567673 2.0612045,1.590056 2.0388215,1.612439 2.0137755,1.606383 1.9849165,1.571612 c -0.035969,-0.04334 -0.034895,-0.048672 0.0066,-0.03275 0.03342,0.012824 0.063178,-0.013857 0.091373,-0.081925 0.022997,-0.055519 0.064153,-0.1009433 0.091459,-0.1009433 0.04073,0 0.042133,0.00905 0.00781,0.050409 -0.02301,0.027725 -0.030236,0.061211 -0.016058,0.074414 0.014177,0.013203 0.032452,0.00531 0.040611,-0.017542 0.00816,-0.022851 0.030603,-0.031801 0.049877,-0.019889 0.022789,0.014085 0.029017,-0.00987 0.017809,-0.068497 -0.015933,-0.083348 -0.010677,-0.088537 0.069619,-0.068721 0.070006,0.017276 0.078834,0.013282 0.045512,-0.020594 -0.065147,-0.066229 -0.049185,-0.087871 0.058557,-0.079395 0.1141237,0.00898 0.1748418,0.049459 0.079247,0.052835 -0.056233,0.00199 -0.054952,0.00631 0.011341,0.038268 0.1017578,0.04906 0.127384,0.011806 0.061278,-0.089084 -0.040162,-0.061295 -0.043576,-0.083911 -0.012748,-0.08445 0.023157,-4.044e-4 0.00591,-0.028557 -0.038331,-0.062561 -0.07514,-0.057756 -0.076229,-0.0628134 -0.016536,-0.0768286 0.061361,-0.0144069 0.061468,-0.016054 0.00268,-0.0414767 C 2.4968655,0.9263822 2.4646125,0.9312742 2.4494145,0.955865 2.4316615,0.9845905 2.4123285,0.9797193 2.3783385,0.9379556 2.3370815,0.8872638 2.3382595,0.8830651 2.3884665,0.9018727 2.4667655,0.9312037 2.4954595,0.8718784 2.4232945,0.8298655 2.3849625,0.8075497 2.3802075,0.7954181 2.4095335,0.7947599 2.4770255,0.7932449 2.3104325,0.62964945 2.2406975,0.628961 2.2083065,0.62864122 2.1828195,0.6034235 2.1828195,0.5716932 c 0,-0.0526242 -0.00391,-0.0527878 -0.05442,-0.002277 -0.050511,0.0505111 -0.058746,0.0492385 -0.1146549,-0.0177176 -0.057,-0.0682635 -0.060294,-0.0686898 -0.061335,-0.007939 -0.00109,0.0635498 -0.00159,0.0635498 -0.049658,0 -0.047915,-0.063349 -0.048585,-0.0633232 -0.050615,0.001947 L 1.8500766,0.6118524 1.8131316,0.5457066 C 1.7597836,0.4501926 1.7590256,0.4498159 1.7070033,0.4929903 c -0.034322,0.028485 -0.053737,0.0292419 -0.07012,0.002734 -0.015115,-0.024457 -0.037761,-0.0167356 -0.068038,0.0231987 -0.042403,0.0559262 -0.045623,0.0544273 -0.049045,-0.0228256 -0.00201,-0.0454753 -0.0112,-0.0639861 -0.020413,-0.0411351 -0.00921,0.022851 -0.031956,0.0321493 -0.050542,0.020663 -0.02181,-0.0134794 -0.02498,0.006877 -0.00894,0.0574122 0.022181,0.0698851 0.019008,0.073448 -0.02953,0.033165 -0.029909,-0.0248223 -0.05438,-0.033561 -0.05438,-0.0194194 0,0.0141416 -0.027874,4.8612e-4 -0.061943,-0.0303455 -0.058493,-0.0529351 -0.062894,-0.0524185 -0.079028,0.009275 -0.010027,0.0383447 0.0019,0.0726164 0.02887,0.0829664 0.025275,0.009699 0.045955,0.0338627 0.045955,0.0536972 0,0.0198345 -0.014883,0.0268647 -0.033073,0.0156226 -0.01819,-0.0112421 -0.033073,0.005952 -0.033073,0.0382081 0,0.0558612 -0.00275,0.0558971 -0.057878,7.5572e-4 -0.035824,-0.0358335 -0.045276,-0.0668881 -0.024805,-0.081501 0.068639,-0.0489973 0.049239,-0.12279417 -0.033545,-0.12759694 -0.083229,-0.004829 -0.10975407,0.0334524 -0.049138,0.0709154 0.057974,0.0358299 0.037806,0.0886178 -0.021234,0.0555775 -0.029869,-0.0167154 -0.0823053,-0.0230699 -0.11652565,-0.0141211 -0.0592639,0.0154979 -0.0594335,0.0184081 -0.003571,0.0612776 0.0552356,0.0423883 0.0544515,0.0461904 -0.0134774,0.0653459 -0.049924,0.0140782 -0.0658337,0.0371515 -0.0516854,0.0749576 0.0179555,0.0479793 0.0134866,0.0489596 -0.0367631,0.008065 -0.0423679,-0.0344805 -0.0668514,-0.036906 -0.0944049,-0.009352 -0.0275535,0.0275535 -0.0226493,0.0427859 0.0189102,0.0587337 0.0522429,0.0200475 0.0520542,0.0248691 -0.002738,0.06993 -0.0561382,0.046168 -0.0561477,0.0475459 -2.0836e-4,0.0299058 0.0469108,-0.0147925 0.0527673,-0.007062 0.0292738,0.0386412 -0.016153,0.031423 -0.021958,0.077959 -0.0128999,0.1034116 0.0123647,0.034745 0.0305897,0.027558 0.0731279,-0.028836 0.0486503,-0.064497 0.0595681,-0.067532 0.0772425,-0.021474 0.0113226,0.029502 0.00617,0.05364 -0.0114496,0.05364 -0.0176192,0 -0.0618006,0.029766 -0.0981808,0.066146 -0.0654428,0.065443 -0.0654538,0.066146 -0.001038,0.066146 0.0442859,0 0.0590197,0.015866 0.0460709,0.049609 -0.0105601,0.027519 -9.3134e-4,0.049609 0.0216241,0.049609 0.0319388,0 0.0318291,0.010642 -5.113e-4,0.049609 -0.0288185,0.034724 -0.0300336,0.05085 -0.00405,0.053743 0.0204174,0.00227 0.0544858,0.00599 0.0757076,0.00827 0.0212218,0.00227 0.0449413,0.023203 0.05271,0.046509 0.007769,0.023306 -0.004014,0.038189 -0.0261827,0.033073 -0.0221692,-0.00512 -0.0478194,0.011373 -0.0570006,0.036643 -0.0102236,0.028139 -0.002213,0.036995 0.0206706,0.022853 0.0215415,-0.013313 0.0373638,-0.0017 0.0373638,0.027431 0,0.034109 0.0188032,0.043666 0.0578776,0.029417 0.05027,-0.018332 0.049184,-0.011196 -0.00827,0.054299 -0.05485,0.062529 -0.067972,0.06631 -0.0768391,0.022145 -0.0127247,-0.06338 -0.0442895,-0.067732 -0.0984474,-0.013574 -0.030868,0.030868 -0.0396875,0.027193 -0.0396875,-0.016536 0,-0.030923 -0.0223242,-0.056224 -0.0496094,-0.056224 -0.0272852,0 -0.0603994,-0.00112 -0.0735872,-0.00248 -0.0131878,-0.00136 -0.0298315,0.01508 -0.0369859,0.036544 -0.008672,0.026017 0.0102737,0.031635 0.0568427,0.016854 0.0545396,-0.01731 0.065496,-0.010822 0.0499839,0.029602 -0.0129491,0.033745 -0.00136,0.051772 0.033281,0.051772 0.0292313,0 0.0531478,0.022324 0.0531478,0.049609 0,0.027285 0.013147,0.049609 0.0292156,0.049609 0.0160685,0 0.0370155,0.029827 0.0465488,0.066282 0.011563,0.044217 0.034867,0.059554 0.0700032,0.046071 0.0289685,-0.011116 0.05267,-0.035094 0.05267,-0.053284 0,-0.01819 -0.021093,-0.024979 -0.0468723,-0.015086 -0.0259522,0.00996 -0.0564273,-0.00691 -0.0682806,-0.037803 -0.0117746,-0.030684 -0.0241684,-0.061997 -0.0275418,-0.069585 -0.003373,-0.00759 0.0273529,-0.016262 0.0682806,-0.019278 0.0465245,-0.00343 0.0744141,0.013105 0.0744141,0.044112 0,0.027277 0.00979,0.039802 0.021762,0.027833 0.011969,-0.011969 0.040409,-0.00629 0.063201,0.01263 0.028734,0.023848 0.048064,0.023674 0.063045,-5.665e-4 0.011883,-0.019227 -0.00705,-0.045995 -0.042083,-0.059484 -0.047835,-0.01842 -0.057175,-0.04099 -0.037522,-0.090671 0.014391,-0.03638 0.027212,-0.046664 0.02849,-0.022853 0.00128,0.023811 0.017207,0.034095 0.035397,0.022853 0.01819,-0.011242 0.033073,-0.00286 0.033073,0.018634 0,0.029797 0.011335,0.029667 0.047742,-5.483e-4 0.039379,-0.032681 0.047044,-0.026148 0.043758,0.037292 -0.00219,0.042303 -0.01858,0.096148 -0.036419,0.119657 -0.021659,0.028543 -0.019716,0.055462 0.00585,0.081029 0.023695,0.023695 0.038286,0.025262 0.038286,0.00411 0,-0.018796 0.022324,-0.034175 0.049609,-0.034175 0.027285,0 0.049837,0.016123 0.050116,0.035829 5.811e-4,0.041121 0.064364,-0.04871 0.065133,-0.091733 2.778e-4,-0.015589 -0.021341,-0.019959 -0.048044,-0.00971 -0.057047,0.021891 -0.097512,-0.028661 -0.065023,-0.08123 0.01577,-0.025517 0.031234,-0.023012 0.051055,0.00827 0.023666,0.037351 0.028517,0.037083 0.028939,-0.0016 4.025e-4,-0.036933 0.012932,-0.035222 0.061068,0.00834 0.033309,0.030144 0.072553,0.043613 0.08721,0.029931 0.014657,-0.013682 0.01965,-0.00255 0.011096,0.024733 -0.00855,0.027285 -0.032915,0.05147 -0.054137,0.053744 -0.073067,0.00783 -0.074047,0.012595 -0.015069,0.073253 0.074106,0.076217 0.1749212,0.1144591 0.1749212,0.066353 0,-0.023803 0.016885,-0.022071 0.049609,0.00509 0.034276,0.028446 0.049609,0.029698 0.049609,0.00405 0,-0.020417 0.016475,-0.037122 0.036611,-0.037122 0.020136,0 0.028997,0.019844 0.01969,0.044097 -0.011731,0.03057 0.01283,0.044097 0.080063,0.044097 0.054931,0 0.091806,-0.015536 0.085041,-0.035829 z M 1.2898438,1.6410131 c 0,-0.027285 0.014883,-0.058807 0.033073,-0.07005 0.01819,-0.011242 0.033073,0.00188 0.033073,0.029169 0,0.027285 -0.014883,0.058807 -0.033073,0.07005 -0.01819,0.011242 -0.033073,-0.00188 -0.033073,-0.029169 z m 0.099219,0.00436 c 0,-0.025769 0.022738,-0.046853 0.050528,-0.046853 0.057174,0 0.04871,0.060627 -0.011254,0.080615 -0.021601,0.0072 -0.039274,-0.00799 -0.039274,-0.033762 z m -0.2756076,-0.01378 c -0.012127,-0.012127 -0.022049,-0.037428 -0.022049,-0.056224 0,-0.020724 0.015404,-0.018771 0.039136,0.00496 0.021525,0.021525 0.031447,0.046826 0.022049,0.056224 -0.0094,0.0094 -0.027009,0.00717 -0.039136,-0.00496 z m 0.668264,-0.066826 c -0.039571,-0.048647 -0.038244,-0.053126 0.01035,-0.034931 0.030657,0.011479 0.062969,0.0031 0.071803,-0.018612 0.00883,-0.021716 0.017237,-0.006 0.018673,0.034931 0.0031,0.088336 -0.037948,0.095913 -0.1008263,0.018613 z M 1.5699371,1.5527662 c -0.030376,-0.04915 -0.00622,-0.06655 0.046856,-0.033748 0.028434,0.017573 0.031817,0.034617 0.0096,0.048351 -0.018875,0.011666 -0.044279,0.00509 -0.056452,-0.014603 z M 1.2083876,1.5233381 c -0.010935,-0.017692 -0.039808,-0.024521 -0.064163,-0.015175 -0.051543,0.019779 -0.098328,-0.074437 -0.051374,-0.1034567 0.017396,-0.010751 0.031628,-0.00583 0.031628,0.010929 0,0.016762 0.037207,0.026392 0.082682,0.021401 0.051924,-0.0057 0.082682,0.00757 0.082682,0.035669 0,0.057762 -0.055665,0.092363 -0.081456,0.050633 z M 1.9513021,1.4221354 c -0.036048,-0.023296 -0.037775,-0.032199 -0.00632,-0.032566 0.023811,-2.778e-4 0.032902,-0.01732 0.020201,-0.03787 -0.014015,-0.022677 -0.00503,-0.03135 0.022853,-0.022064 0.049749,0.016566 0.084806,0.1258984 0.040102,0.125067 -0.014976,-2.786e-4 -0.049554,-0.014934 -0.076839,-0.032567 z M 0.98022747,1.372526 c 0.0104703,-0.027285 0.024886,-0.049609 0.0320349,-0.049609 0.00715,0 0.012998,0.022324 0.012998,0.049609 0,0.027285 -0.014416,0.049609 -0.0320349,0.049609 -0.0176192,0 -0.0234683,-0.022324 -0.012998,-0.049609 z M 0.89296875,1.2081994 c 0,-0.029504 0.0194005,-0.041127 0.0494194,-0.029607 0.0271807,0.01043 0.0411852,0.032287 0.0311211,0.048571 -0.02886,0.046696 -0.0805405,0.034528 -0.0805405,-0.018964 z M 2.4354358,1.1410156 c -0.01047,-0.027285 -0.00462,-0.049609 0.012998,-0.049609 0.017619,0 0.032035,0.022324 0.032035,0.049609 0,0.027285 -0.00585,0.049609 -0.012998,0.049609 -0.00715,0 -0.021565,-0.022324 -0.032035,-0.049609 z M 2.3013276,1.0701361 c -0.011469,-0.029889 -0.014052,-0.061145 -0.00574,-0.069458 0.026284,-0.0262842 0.085661,0.026495 0.085661,0.076143 0,0.064873 -0.054203,0.060339 -0.079922,-0.00669 z M 0.84335938,0.95911457 c 0.0112421,-0.0181901 0.0427644,-0.0330729 0.0700496,-0.0330729 0.0272852,0 0.0404113,0.0148828 0.0291692,0.0330729 -0.0112421,0.0181901 -0.0427644,0.0330729 -0.0700496,0.0330729 -0.0272851,0 -0.0404113,-0.0148828 -0.0291692,-0.0330729 z M 0.94257813,0.8268229 C 0.95382023,0.8086328 0.98534253,0.79375 1.0126277,0.79375 c 0.027285,0 0.040411,0.0148828 0.029169,0.0330729 -0.011242,0.0181901 -0.0427644,0.0330729 -0.0700496,0.0330729 -0.0272851,0 -0.0404113,-0.0148828 -0.029169,-0.0330729 z M 2.272388,0.8345819 C 2.232006,0.8256279 2.219273,0.802107 2.232406,0.7607283 2.248084,0.7113311 2.237556,0.703009 2.175903,0.7160843 2.107781,0.7305327 2.106177,0.728307 2.160017,0.6940393 2.234161,0.6468488 2.3283558,0.6784413 2.3038575,0.7422828 2.2938975,0.7682394 2.3035149,0.795842 2.3252305,0.803622 2.3839035,0.8246424 2.3409795,0.8497913 2.272388,0.8345819 Z M 1.9567973,0.66555443 c -0.035518,-0.022515 -0.033907,-0.0318808 0.00827,-0.048065 0.033141,-0.0127173 0.052382,-0.002259 0.052382,0.0284704 0,0.056214 -0.00191,0.0568307 -0.060652,0.0195946 z M 1.7363281,0.59531249 c 0.011242,-0.0181901 0.027003,-0.0330729 0.035025,-0.0330729 0.00802,0 0.014585,0.0148828 0.014585,0.0330729 0,0.0181901 -0.015761,0.0330729 -0.035025,0.0330729 -0.019264,0 -0.025827,-0.0148828 -0.014585,-0.0330729 z M 1.1609096,2.0548211 c 0.022979,0.036274 0.028803,0.034474 0.029209,-0.00903 2.778e-4,-0.029886 -0.02073,-0.062488 -0.046685,-0.072448 -0.058794,-0.022561 -0.1323085,0.060623 -0.099907,0.1130492 0.016864,0.027286 0.033545,0.021643 0.056321,-0.019056 0.026353,-0.047089 0.037689,-0.049413 0.061063,-0.012515 z m 0.9519206,-0.179885 c -0.003,-0.056568 -0.00717,-0.059678 -0.019039,-0.01418 -0.00836,0.032055 -0.028959,0.049781 -0.045773,0.039389 -0.034412,-0.021268 -0.042081,0.028621 -0.00942,0.061281 0.036859,0.036859 0.078212,-0.011323 0.074233,-0.086491 z m 0.1361281,0.060868 c 0,-0.029504 -0.0194,-0.041127 -0.049419,-0.029607 -0.027181,0.01043 -0.041185,0.032287 -0.031121,0.048571 0.02886,0.046696 0.08054,0.034528 0.08054,-0.018964 z M 0.79375,1.5854022 c 0,0.021491 0.0148828,0.029876 0.0330729,0.018634 0.0181901,-0.011242 0.0330729,-0.042764 0.0330729,-0.07005 0,-0.027285 -0.0148828,-0.040411 -0.0330729,-0.029169 -0.0181901,0.011242 -0.0330729,-0.00974 -0.0330729,-0.04662 0,-0.050081 -0.014654,-0.061568 -0.0578776,-0.045369 -0.0468986,0.017576 -0.0506646,0.012674 -0.0198532,-0.025843 0.0289324,-0.036168 0.027798,-0.056943 -0.004744,-0.086886 -0.0513991,-0.047294 -0.0854581,-0.02236 -0.060017,0.043939 0.0106709,0.027808 0.001093,0.043713 -0.0229493,0.038108 -0.0226954,-0.00529 -0.0482408,0.00945 -0.0567674,0.032754 -0.008527,0.023306 0.004496,0.038189 0.0289388,0.033073 0.0287435,-0.00602 0.0415386,0.017662 0.036223,0.067034 -0.004741,0.044037 0.005754,0.0677 0.0248047,0.055926 0.0181629,-0.011225 0.0330234,-0.00283 0.0330234,0.018665 0,0.029118 0.0126405,0.028584 0.0496094,-0.0021 0.0369687,-0.03068 0.0496092,-0.031214 0.0496092,-0.0021 z M 2.5135183,1.415819 c 1.28e-5,-0.030759 -0.014689,-0.065018 -0.032671,-0.076132 -0.019238,-0.01189 -0.02398,0.0025 -0.011522,0.034969 0.017651,0.045999 0.010477,0.049451 -0.043139,0.020756 -0.052398,-0.028043 -0.065148,-0.023304 -0.068831,0.025582 -0.0033,0.043836 0.017121,0.058754 0.075809,0.055376 0.051553,-0.00297 0.080337,-0.024658 0.080352,-0.06055 z M 0.66145833,1.1536483 c 0,-0.01819 -0.0148828,-0.023875 -0.0330729,-0.012633 -0.0181901,0.011242 -0.0330729,0.035323 -0.0330729,0.053513 0,0.01819 0.0148828,0.023875 0.0330729,0.012633 0.0181901,-0.011242 0.0330729,-0.035323 0.0330729,-0.053513 z m -0.007579,-0.15525964 c 0.0198422,-0.0595267 -0.048518,-0.0470183 -0.0715871,0.0130988 -0.0123602,0.03221 -0.004969,0.04733 0.0191992,0.039274 0.0216131,-0.0072 0.0451877,-0.030772 0.0523879,-0.0523728 z M 0.82682292,0.72760415 c 0.0427529,-0.0276291 0.04188,-0.03213 -0.006316,-0.0325665 -0.0307592,-2.7854e-4 -0.0651238,0.0143764 -0.0763659,0.0325665 -0.025869,0.041857 0.0179132,0.041857 0.0826819,0 z M 0.81028646,0.6283854 c 0.0112421,-0.0181901 0.005557,-0.0330729 -0.0126327,-0.0330729 -0.0181901,0 -0.042271,0.0148828 -0.0535131,0.0330729 -0.0112421,0.0181901 -0.005557,0.0330729 0.0126327,0.0330729 0.0181901,0 0.042271,-0.0148828 0.0535131,-0.0330729 z M 1.3408131,0.43214828 c -0.01199,-0.0194003 -0.037627,-0.0352733 -0.056971,-0.0352733 -0.02193,0 -0.019422,0.0189766 0.00666,0.0504086 0.045361,0.0546565 0.085901,0.0424593 0.050306,-0.0151353 z m 0.5622395,-0.004401 c 0.035595,-0.0575946 -0.00495,-0.0697918 -0.050306,-0.0151353 -0.026086,0.031432 -0.028595,0.0504086 -0.00666,0.0504086 0.019344,0 0.044981,-0.015873 0.056971,-0.0352733 z"
         id="path2243" />
      <path
         style="fill:#0f5a2c;stroke-width:0.0330729"
         d="m 1.4440003,2.8418418 c -0.029864,-0.042637 -0.056292,-0.055209 -0.069871,-0.033238 -0.012012,0.019435 -0.069376,0.032931 -0.1274765,0.029991 -0.0581,-0.00294 -0.1316822,0.00617 -0.1635149,0.02024 -0.041725,0.018445 -0.057878,0.010753 -0.057878,-0.027562 0,-0.050276 -0.0417693,-0.069729 -0.11575519,-0.053909 -0.0181901,0.00389 -0.0832743,0.013462 -0.14463157,0.021273 -0.0973513,0.012393 -0.10941827,0.00602 -0.0947519,-0.050068 0.0147739,-0.056496 0.003465,-0.062104 -0.093498,-0.046369 -0.0966119,0.015678 -0.11285068,0.00776 -0.13081314,-0.063812 -0.0165186,-0.065815 -0.0365285,-0.078649 -0.10285641,-0.06597 -0.0627668,0.011999 -0.0865823,-4.497e-4 -0.10015478,-0.052351 -0.0108019,-0.041307 -0.03604,-0.061096 -0.0641572,-0.050307 -0.0283219,0.010868 -0.0463505,-0.00365 -0.0463505,-0.037313 0,-0.030305 -0.0148828,-0.045902 -0.03307292,-0.034659 -0.03695912,0.022842 -0.0459145,-0.058816 -0.01035057,-0.09438 0.04157844,-0.041578 0.0330347,-0.1536665 -0.011713,-0.1536665 -0.06252976,0 -0.05469749,-0.042279 0.02335193,-0.1260554 0.0370888,-0.03981 0.0537074,-0.072382 0.0369303,-0.072382 -0.069152,0 -0.06796227,-0.1481088 0.001786,-0.2223526 0.0484824,-0.051607 0.0564411,-0.075304 0.0252916,-0.075304 -0.0335931,0 -0.0357716,-0.00968 -0.00835,-0.037103 0.0204067,-0.020407 0.0297478,-0.05627 0.0207581,-0.079697 -0.00899,-0.023427 0.005014,-0.084865 0.0311196,-0.1365298 0.0261055,-0.051665 0.0416858,-0.1099566 0.0346228,-0.1295377 -0.007063,-0.019581 0.0231828,-0.074473 0.0672127,-0.1219822 0.0440299,-0.047509 0.071771,-0.094664 0.0616468,-0.1047878 -0.0101242,-0.010124 0.0238401,-0.0547099 0.0754761,-0.0990794 0.0731544,-0.0628597 0.0856228,-0.0906255 0.0564701,-0.12575239 -0.029099,-0.0350622 -0.0190725,-0.0588542 0.0451169,-0.10705839 0.0453918,-0.0340878 0.0752334,-0.0809935 0.0663148,-0.10423502 -0.008919,-0.0232415 0.0127906,-0.0514634 0.0482425,-0.0627155 0.035452,-0.011252 0.0644582,-0.0352736 0.0644582,-0.0533814 0,-0.0181077 0.0334863,-0.0282669 0.0744141,-0.022576 0.0440265,0.006122 0.071312,-0.005712 0.0668176,-0.0289785 -0.004178,-0.0216291 0.0218669,-0.048677 0.0578776,-0.0601063 0.0360107,-0.0114294 0.0655079,-0.0309398 0.0655494,-0.0433566 4.299e-5,-0.0124168 0.0416333,-0.0240061 0.0924266,-0.0257539 0.076775,-0.002642 0.09335,0.0113031 0.098277,0.0826823 0.00539,0.0781169 0.00195,0.0806406 -0.038195,0.0279827 -0.056686,-0.0743617 -0.090162,-0.0743617 -0.063996,0 0.016625,0.0472467 0.012182,0.0502841 -0.024189,0.0165365 -0.024505,-0.0227376 -0.0657228,-0.0413411 -0.0915973,-0.0413411 -0.0380674,0 -0.0391879,0.009466 -0.005872,0.0496094 0.0328476,0.0395789 0.0328476,0.0496094 0,0.0496094 -0.0328476,0 -0.0328476,0.0100305 0,0.0496094 0.0334853,0.0403473 0.0319101,0.0496094 -0.008437,0.0496094 -0.0272852,0 -0.0681368,-0.0223242 -0.0907815,-0.0496094 C 0.80903235,0.4844188 0.7475658,0.4803714 0.77037465,0.53981 c 0.009226,0.0240431 -0.012637,0.0620827 -0.048585,0.0845326 -0.049594,0.030972 -0.0565613,0.0514195 -0.028884,0.0847685 0.0284416,0.03427 0.0162471,0.0492665 -0.0553636,0.0680851 -0.0832782,0.0218847 -0.0856733,0.0264081 -0.0256935,0.0485242 0.063778,0.0235167 0.0634649,0.0252421 -0.008748,0.0482009 -0.0411919,0.0130961 -0.066994,0.0365941 -0.0573381,0.0522177 0.009656,0.0156236 0.002188,0.0379047 -0.0165957,0.0495135 -0.0187835,0.0116089 -0.0255894,0.0349615 -0.0151241,0.0518947 0.0104653,0.016933 0.001444,0.030788 -0.0200466,0.030788 -0.0299292,0 -0.0298682,0.011093 2.6128e-4,0.047396 0.0308828,0.037212 0.0273823,0.065639 -0.0162906,0.1322917 -0.0319698,0.048791 -0.0403849,0.084896 -0.0197876,0.084896 0.0198391,0 0.0264105,0.024569 0.0147198,0.055035 -0.0156851,0.040875 -0.009036,0.048136 0.0258427,0.028221 0.036907,-0.021073 0.0385655,-0.017733 0.007746,0.015599 -0.0553173,0.059829 -0.15134669,-0.037274 -0.11986226,-0.1212026 0.0198616,-0.052945 0.0158438,-0.054813 -0.0328038,-0.015246 -0.0304906,0.024799 -0.0472816,0.058285 -0.0373133,0.074414 0.009968,0.016129 -0.008799,0.0305 -0.0417053,0.031937 -0.0329062,0.00144 -0.042062,0.00984 -0.0203463,0.018673 0.0217158,0.00883 0.0300914,0.041146 0.0186124,0.071803 -0.0175837,0.046962 -0.0127424,0.04914 0.0307389,0.013829 0.0702043,-0.057012 0.1756532,-0.017749 0.12293395,0.045774 -0.0298564,0.035975 -0.0256393,0.045747 0.0197419,0.045747 0.0475466,0 0.0504585,0.00874 0.0165364,0.049609 -0.0340359,0.041011 -0.0307252,0.049609 0.0191014,0.049609 0.0485244,0 0.0521032,0.00806 0.0183596,0.041341 -0.0335944,0.033135 -0.0513437,0.028565 -0.0894208,-0.023027 -0.0368671,-0.049952 -0.0563676,-0.055508 -0.0870704,-0.024805 -0.0296599,0.02966 -0.0298887,0.039564 -9.1407e-4,0.039564 0.0219651,0 0.0298156,0.023021 0.0181857,0.053328 -0.0172716,0.045009 -0.003566,0.049617 0.0878579,0.029536 0.0836184,-0.018366 0.10236954,-0.014161 0.0822221,0.018439 -0.0185552,0.030023 -0.0101912,0.036125 0.0289353,0.021111 0.0302692,-0.011615 0.0550348,-0.00582 0.0550348,0.012868 0,0.018693 0.0171823,0.023367 0.0381829,0.010388 0.0237003,-0.014648 0.0292037,-0.00907 0.0145096,0.014706 -0.0131408,0.021262 -0.057602,0.029789 -0.0999322,0.019165 -0.0765214,-0.019206 -0.081015,-0.00613 -0.0561999,0.1635065 0.002321,0.01587 0.0265451,0.010327 0.0538302,-0.012318 0.039995,-0.033193 0.0497075,-0.032375 0.0501158,0.00422 4.0382e-4,0.036182 0.006753,0.035514 0.0312938,-0.00329 0.0260488,-0.04119 0.0344249,-0.039203 0.054422,0.012908 0.0218408,0.056916 0.0266992,0.0574 0.0640136,0.00637 0.0365073,-0.049927 0.0423171,-0.050171 0.0605932,-0.00254 0.0111179,0.028973 0.0352022,0.043415 0.0535208,0.032093 0.0183186,-0.011321 0.0333065,-0.00622 0.0333065,0.011344 0,0.017561 0.0297656,0.024145 0.0661458,0.014631 0.0482094,-0.012607 0.0668538,-5.573e-4 0.0687568,0.044437 0.00149,0.035197 0.00981,0.043875 0.019361,0.020188 0.00921,-0.022851 0.030362,-0.033135 0.046998,-0.022853 0.044467,0.027482 0.036877,0.1154014 -0.00913,0.1057412 -0.021657,-0.00455 -0.045595,0.021497 -0.053196,0.057878 -0.0076,0.03638 -0.00241,0.055113 0.011529,0.041628 0.013942,-0.013485 0.045321,-0.00794 0.069733,0.012318 0.033299,0.027636 0.044384,0.025985 0.044384,-0.00661 0,-0.026889 0.017245,-0.019859 0.045256,0.018447 0.043825,0.059935 0.046439,0.059681 0.082682,-0.00804 0.047539,-0.088827 0.047134,-0.1093918 -0.00195,-0.099085 -0.021657,0.00455 -0.044782,-0.021497 -0.051387,-0.057878 -0.00987,-0.054368 -0.0059,-0.057313 0.022334,-0.016536 0.030528,0.044097 0.034517,0.044097 0.035903,0 0.00119,-0.037936 0.012984,-0.034504 0.050116,0.01459 0.048067,0.06355 0.048568,0.06355 0.049563,0 9.267e-4,-0.059145 0.00364,-0.059677 0.034471,-0.00676 0.023049,0.039562 0.021783,0.079268 -0.00407,0.1275741 -0.027145,0.050721 -0.027532,0.080138 -0.0014,0.1062716 0.026134,0.026134 0.036137,0.020033 0.036137,-0.022039 0,-0.031997 0.013854,-0.049613 0.030788,-0.039148 0.016933,0.010465 0.041529,0.00165 0.054658,-0.019595 0.016838,-0.027245 0.036729,-0.021037 0.067521,0.021074 0.0387,0.052926 0.04594,0.053731 0.063835,0.0071 0.011101,-0.028929 0.041276,-0.044504 0.067056,-0.034611 0.052993,0.020335 0.064658,-0.04034 0.013799,-0.071773 -0.047719,-0.029492 -0.040775,-0.090985 0.00827,-0.073218 0.022738,0.00824 0.065252,-0.00578 0.094477,-0.031151 0.045814,-0.039772 0.059486,-0.038324 0.099219,0.010508 0.0406,0.049897 0.039197,0.054055 -0.011794,0.034945 -0.069365,-0.025996 -0.076445,0.018871 -0.011485,0.072783 0.03564,0.029578 0.049703,0.028601 0.060673,-0.00422 0.00785,-0.023497 0.02212,-0.00179 0.031703,0.048229 0.018755,0.097902 -0.028813,0.121234 -0.1011414,0.049609 -0.03344,-0.033115 -0.048449,-0.02946 -0.07543,0.01837 -0.026614,0.047181 -0.043534,0.051536 -0.080623,0.020755 -0.049152,-0.040792 -0.063425,-0.00586 -0.021629,0.052932 0.028022,0.039417 0.090333,0.043101 0.125986,0.00745 0.013485,-0.013485 0.044491,-0.00794 0.068902,0.012318 0.024411,0.020259 0.044384,0.025265 0.044384,0.011124 0,-0.014142 0.031744,0.00264 0.070541,0.037292 0.070059,0.062573 0.070376,0.062472 0.046344,-0.014676 -0.021187,-0.068017 -0.015564,-0.074939 0.045214,-0.055649 0.051807,0.016443 0.069411,0.00786 0.069411,-0.033857 0,-0.045928 0.00884,-0.048551 0.049609,-0.014716 0.031283,0.025963 0.049609,0.02818 0.049609,0.006 0,-0.019344 -0.015126,-0.044519 -0.033612,-0.055944 -0.018487,-0.011426 -0.025155,-0.034458 -0.014819,-0.051182 0.010337,-0.016725 -0.0043,-0.021546 -0.032533,-0.010713 -0.02823,0.010833 -0.051327,0.035467 -0.051327,0.054743 0,0.073947 -0.04969,-0.018749 -0.05116,-0.095438 -0.00108,-0.056333 0.012592,-0.075472 0.045023,-0.063026 0.032414,0.012438 0.040277,0.00146 0.025863,-0.036098 -0.015975,-0.041629 -0.00547,-0.049986 0.045927,-0.036544 0.043474,0.011369 0.066637,0.00126 0.066637,-0.029087 0,-0.047736 0.039716,-0.061918 0.074891,-0.026743 0.03344,0.03344 -0.012906,0.1125218 -0.065943,0.1125218 -0.041483,0 -0.042801,0.00882 -0.00765,0.051175 0.029841,0.035956 0.049352,0.040043 0.065607,0.013741 0.014516,-0.023488 0.029852,-0.011749 0.041164,0.031507 0.00992,0.037918 0.035183,0.068942 0.05615,0.068942 0.020967,0 0.02861,-0.01539 0.016984,-0.0342 -0.013269,-0.02147 0.010625,-0.02844 0.064194,-0.018727 0.046932,0.00851 0.085331,0.00455 0.085331,-0.00879 0,-0.045959 -0.074286,-0.098444 -0.1164399,-0.082267 -0.023229,0.00891 -0.052059,3.108e-4 -0.064068,-0.019121 -0.021334,-0.034519 0.020945,-0.049075 0.1083048,-0.037289 0.033877,0.00457 0.035455,-0.00925 0.0071,-0.062227 -0.044605,-0.083345 -0.091288,-0.087783 -0.1075564,-0.010226 -0.010304,0.049124 -0.018673,0.04602 -0.055334,-0.020528 -0.023757,-0.043123 -0.027855,-0.068925 -0.00911,-0.057338 0.018748,0.011587 0.043034,0.00659 0.053968,-0.011101 0.010934,-0.017692 0.044312,-0.022793 0.074173,-0.011334 0.04138,0.015879 0.049055,0.00719 0.032271,-0.036553 -0.017386,-0.045307 -0.00649,-0.055218 0.051774,-0.047083 0.040587,0.00567 0.074186,-0.00458 0.074664,-0.022769 4.776e-4,-0.01819 0.011398,-0.049601 0.024268,-0.069801 0.024898,-0.039081 4.273e-4,-0.079027 -0.048412,-0.079027 -0.016232,0 -0.021357,0.013196 -0.011388,0.029325 0.00997,0.016129 -0.00467,0.04824 -0.032523,0.071359 -0.038362,0.031838 -0.059933,0.032747 -0.088933,0.00375 -0.028999,-0.028999 -0.028377,-0.038286 0.00257,-0.038286 0.030448,0 0.031937,-0.016656 0.00585,-0.065402 -0.029755,-0.055597 -0.026211,-0.062194 0.023641,-0.044001 0.051899,0.018939 0.051037,0.012504 -0.0075,-0.055962 -0.058301,-0.068186 -0.059215,-0.074833 -0.00771,-0.056042 0.066751,0.024355 0.2687027,-0.084632 0.2308352,-0.1245744 -0.013577,-0.014321 0.012404,-0.014601 0.057737,-6.228e-4 0.070492,0.021737 0.076518,0.018301 0.041628,-0.023739 -0.022437,-0.027035 -0.031002,-0.058947 -0.019033,-0.070916 0.011969,-0.011969 -0.00552,-0.021762 -0.038872,-0.021762 -0.033349,0 -0.051421,0.00921 -0.04016,0.020474 0.029701,0.029701 -0.069251,0.1196426 -0.1063818,0.096695 -0.017212,-0.010637 -0.045032,0.00521 -0.061823,0.035211 -0.024278,0.043383 -0.03605,0.045618 -0.057498,0.010916 -0.016081,-0.026019 -0.011169,-0.048903 0.012166,-0.056681 0.021524,-0.00717 0.029273,-0.029001 0.01722,-0.048503 -0.014163,-0.022916 0.00359,-0.028788 0.050189,-0.016602 0.044604,0.011664 0.070309,0.00419 0.067399,-0.019595 -0.012514,-0.1022739 0.00475,-0.1250754 0.077287,-0.1020543 0.065919,0.020922 0.069142,0.017496 0.029023,-0.030844 C 2.7903325,1.215114 2.7830075,1.190415 2.7988775,1.190137 2.8324165,1.1895483 2.7402285,1.12576 2.7047465,1.125004 c -0.013072,-2.778e-4 -0.014006,0.025538 -0.00208,0.057371 0.019296,0.051488 0.015284,0.052662 -0.036349,0.01063 -0.05461,-0.044456 -0.053511,-0.049761 0.018612,-0.089779 0.070769,-0.039267 0.071576,-0.042659 0.010506,-0.044209 -0.048636,-0.00123 -0.054555,-0.00903 -0.022361,-0.029439 0.035622,-0.022585 0.034252,-0.0372932 -0.00735,-0.0788914 -0.044726,-0.0447259 -0.045078,-0.056155 -0.00281,-0.0912357 0.026578,-0.0220576 0.040167,-0.0533012 0.030199,-0.0694302 -0.00997,-0.016129 -0.00236,-0.0293255 0.016901,-0.0293255 0.032164,0 0.038408,0.0214244 0.04819,0.16536458 0.00185,0.0272852 0.016024,0.0692031 0.031488,0.0931508 0.015464,0.023948 0.019416,0.052242 0.00878,0.062876 -0.010634,0.010634 0.00648,0.038936 0.038029,0.062894 0.041361,0.031407 0.044701,0.043853 0.011973,0.044611 -0.034206,7.927e-4 -0.036314,0.011988 -0.00856,0.045436 0.02026,0.024411 0.027043,0.054177 0.015074,0.066146 -0.011969,0.011969 0.00304,0.021762 0.03336,0.021762 0.030317,0 0.05626,0.018603 0.057652,0.041341 0.0064,0.1045822 0.030113,0.1679496 0.085919,0.2296153 0.033208,0.036694 0.056658,0.072596 0.05211,0.079781 -0.00455,0.00719 -0.00633,0.016785 -0.00397,0.021332 0.00237,0.00455 0.00821,0.052917 0.012993,0.1074869 0.00478,0.05457 0.01129,0.099219 0.014467,0.099219 0.00318,0 0.011728,0.045091 0.019004,0.1002032 0.00968,0.073288 -0.00425,0.1111186 -0.051841,0.1408402 -0.051766,0.032328 -0.065174,0.032127 -0.065576,-9.846e-4 -3.486e-4,-0.028655 -0.010063,-0.026511 -0.031181,0.00688 -0.017561,0.027765 -0.01834,0.063363 -0.00182,0.083265 0.017399,0.020965 0.00381,0.067354 -0.034229,0.1168644 -0.034695,0.045155 -0.063413,0.069115 -0.063817,0.053245 -4.045e-4,-0.01587 -0.022175,-0.011061 -0.048379,0.010686 -0.026204,0.021747 -0.039494,0.060777 -0.029535,0.086732 0.00996,0.025955 0.0021,0.047191 -0.017464,0.047191 -0.019565,0 -0.027007,0.022324 -0.016536,0.049609 0.01047,0.027285 0.00256,0.049609 -0.017574,0.049609 -0.020136,0 -0.036611,0.022324 -0.036611,0.049609 0,0.027285 -0.026789,0.049609 -0.059531,0.049609 -0.032742,0 -0.077391,0.017859 -0.099219,0.039687 -0.030868,0.030868 -0.039687,0.030868 -0.039687,0 0,-0.021828 -0.022324,-0.039687 -0.049609,-0.039687 -0.027285,0 -0.049609,0.016705 -0.049609,0.037122 0,0.025648 -0.015334,0.024397 -0.049609,-0.00405 -0.036343,-0.030162 -0.061317,-0.031456 -0.093391,-0.00484 -0.03181,0.0264 -0.053722,0.026395 -0.080134,-1.69e-5 -0.026421,-0.026421 -0.061895,-0.01846 -0.129851,0.029144 -0.051424,0.036023 -0.1121022,0.058937 -0.1348398,0.05092 -0.022738,-0.00802 -0.041341,-1.842e-4 -0.041341,0.017407 0,0.048261 -0.2009336,0.022568 -0.2356041,-0.030126 -0.02509,-0.038133 -0.037786,-0.036104 -0.074595,0.011923 -0.056775,0.074078 -0.072476,0.072796 -0.1309569,-0.010697 z m 0.2247696,-0.259869 c 0.010465,-0.016933 0.0039,-0.040136 -0.014585,-0.051561 -0.018487,-0.011425 -0.033612,0.00243 -0.033612,0.030788 0,0.058093 0.019846,0.066647 0.048197,0.020773 z M 1.5544271,2.5096379 c 0,-0.01819 -0.014883,-0.023875 -0.033073,-0.012633 -0.01819,0.011242 -0.033073,0.035323 -0.033073,0.053513 0,0.01819 0.014883,0.023875 0.033073,0.012633 0.01819,-0.011242 0.033073,-0.035323 0.033073,-0.053513 z M 0.92604167,2.476565 c 0,-0.01819 -0.0148828,-0.023875 -0.0330729,-0.012633 -0.0181901,0.011242 -0.0330729,0.035323 -0.0330729,0.053513 0,0.01819 0.0148828,0.023875 0.0330729,0.012633 0.0181901,-0.011242 0.0330729,-0.035323 0.0330729,-0.053513 z M 2.4553307,2.468835 c 0.02084,0.01288 0.025713,0.00625 0.01187,-0.016153 C 2.4542817,2.431779 2.4148817,2.399247 2.3796447,2.380389 2.3200217,2.34848 2.3183417,2.352169 2.3554317,2.433572 c 0.02192,0.048109 0.045409,0.070807 0.052198,0.05044 0.00679,-0.020367 0.028255,-0.027197 0.047702,-0.015178 z M 0.82682292,2.4289075 c 0,-0.028359 -0.0151256,-0.042213 -0.0336124,-0.030788 -0.0184868,0.011425 -0.0250499,0.034628 -0.0145846,0.051561 0.0283514,0.045874 0.048197,0.03732 0.048197,-0.020773 z M 0.9921875,2.3746354 c 0,-0.053427 -0.00978,-0.06298 -0.0368058,-0.035955 -0.0202432,0.020243 -0.0268062,0.052985 -0.0145846,0.07276 0.0342104,0.055353 0.0513904,0.043049 0.0513904,-0.036805 z M 0.76067708,2.2784928 c 0,-0.077752 -0.0120721,-0.098125 -0.0496094,-0.08372 -0.0272852,0.01047 -0.0498373,9.006e-4 -0.0501158,-0.021266 -8.3509e-4,-0.066457 -0.0645682,0.051788 -0.0651329,0.1208428 -4.1772e-4,0.051091 0.008106,0.054779 0.0487116,0.02108 0.0398594,-0.03308 0.0531096,-0.030706 0.0696843,0.012487 0.031016,0.080826 0.0464623,0.064396 0.0464622,-0.049424 z m 0.16485814,-0.00668 c 2.7854e-4,-0.014716 -0.0143764,-0.017558 -0.0325665,-0.00632 -0.0181901,0.011242 -0.0335255,-0.00648 -0.0340786,-0.039389 -9.6805e-4,-0.057586 -0.002306,-0.057594 -0.0356854,-2.216e-4 -0.0438566,0.075383 0.0287515,0.187876 0.0746064,0.1155891 0.0149697,-0.023599 0.0274455,-0.054947 0.0277241,-0.069663 z M 0.56223958,2.1631605 c 0,-0.039602 -0.0133339,-0.041685 -0.070614,-0.01103 -0.0545948,0.029218 -0.0605801,0.043993 -0.0263837,0.065127 0.0548394,0.033893 0.0969977,0.01038 0.0969977,-0.054098 z M 2.7113159,2.099331 C 2.6883069,2.071606 2.6626699,2.055733 2.6543449,2.064058 c -0.022936,0.022936 0.023665,0.085682 0.063636,0.085682 0.02193,0 0.019421,-0.018977 -0.00666,-0.050409 z M 0.396875,2.0111534 c 0,-0.043471 -0.0751675,-0.01625 -0.091647,0.033189 -0.008056,0.024168 0.007064,0.031559 0.0392741,0.019199 0.0288051,-0.011053 0.0523729,-0.034628 0.0523729,-0.052388 z m 2.4023629,0.022831 c -0.01047,-0.027285 -0.00374,-0.049609 0.01495,-0.049609 0.018693,0 0.024977,-0.014578 0.013965,-0.032396 -0.012657,-0.020479 -0.043171,-0.017939 -0.082953,0.00691 -0.046673,0.029148 -0.053775,0.050333 -0.02749,0.082005 0.048659,0.05863 0.1048498,0.053871 0.081528,-0.00691 z M 0.41341146,1.8851562 c 0.0112421,-0.01819 0.005557,-0.033073 -0.0126327,-0.033073 -0.0181901,0 -0.042271,0.014883 -0.0535131,0.033073 -0.0112421,0.01819 -0.005557,0.033073 0.0126327,0.033073 0.0181901,0 0.042271,-0.014883 0.0535131,-0.033073 z M 2.8608073,1.8520833 c -0.011242,-0.01819 -0.035323,-0.033073 -0.053513,-0.033073 -0.01819,0 -0.023875,0.014883 -0.012633,0.033073 0.011242,0.01819 0.035323,0.033073 0.053513,0.033073 0.01819,0 0.023875,-0.014883 0.012633,-0.033073 z m 0.1023821,-0.086365 c -0.015191,-0.039587 -0.00639,-0.047898 0.034212,-0.032316 0.043239,0.016592 0.046833,0.011542 0.017199,-0.024165 -0.020605,-0.024828 -0.026885,-0.055721 -0.013954,-0.068651 0.01293,-0.01293 -0.00208,-0.013689 -0.03336,-0.00169 -0.040829,0.015668 -0.057606,0.0045 -0.059481,-0.039593 -0.00144,-0.033779 -0.00984,-0.043649 -0.018673,-0.021933 -0.00883,0.021716 -0.037594,0.031221 -0.06391,0.021122 -0.034948,-0.013411 -0.04174,-0.00245 -0.025195,0.040673 0.018268,0.047606 0.010338,0.054708 -0.040966,0.03669 -0.051812,-0.018196 -0.049169,-0.010088 0.01424,0.04369 0.042822,0.036318 0.090163,0.058429 0.1052017,0.049135 0.015038,-0.00929 0.036691,-0.00177 0.048116,0.016714 0.032878,0.053197 0.059117,0.039077 0.03657,-0.019679 z M 0.31419271,1.5875 c 0.0112421,-0.01819 0.005557,-0.033073 -0.0126327,-0.033073 -0.0181901,0 -0.042271,0.014883 -0.0535131,0.033073 -0.0112421,0.01819 -0.005557,0.033073 0.0126327,0.033073 0.0181901,0 0.042271,-0.014883 0.0535131,-0.033073 z M 0.47955729,1.1575521 c 0.0112421,-0.01819 0.005557,-0.033073 -0.0126327,-0.033073 -0.0181901,0 -0.042271,0.014883 -0.0535131,0.033073 -0.0112421,0.01819 -0.005557,0.033073 0.0126327,0.033073 0.0181901,0 0.042271,-0.014883 0.0535131,-0.033073 z M 1.6205729,2.2530079 c 0,-0.015963 0.024761,-0.049449 0.055024,-0.074414 0.049894,-0.041159 0.051327,-0.038453 0.015373,0.029023 -0.041007,0.076959 -0.070397,0.095909 -0.070397,0.045391 z M 2.1056424,2.0615451 c -0.012127,-0.012127 -0.022049,-0.037428 -0.022049,-0.056224 0,-0.020724 0.015404,-0.018771 0.039136,0.00496 0.021525,0.021525 0.031447,0.046826 0.022049,0.056224 -0.0094,0.0094 -0.02701,0.00717 -0.039136,-0.00496 z M 2.3244058,1.9430338 C 2.306877,1.9202962 2.3014621,1.8667854 2.3123726,1.8241209 l 0.019837,-0.077572 0.065861,0.074912 c 0.059848,0.068072 0.06038,0.072909 0.00582,0.052975 -0.048616,-0.017762 -0.056058,-0.00939 -0.039112,0.044001 0.023795,0.074971 0.00656,0.085473 -0.040374,0.024597 z M 0.72760417,1.9027307 c 0,-0.029504 0.0194005,-0.041127 0.0494194,-0.029607 0.0271807,0.01043 0.0411852,0.032287 0.031121,0.048571 -0.0288599,0.046696 -0.0805405,0.034528 -0.0805404,-0.018964 z M 2.4143229,1.7509127 c 0,-0.019264 0.014883,-0.025827 0.033073,-0.014585 0.01819,0.011242 0.033073,0.027003 0.033073,0.035025 0,0.00802 -0.014883,0.014585 -0.033073,0.014585 -0.01819,0 -0.033073,-0.015761 -0.033073,-0.035025 z M 0.52916667,1.5583308 c 0,-0.01819 0.0148828,-0.042271 0.0330729,-0.053513 0.0181901,-0.011242 0.0330729,-0.00556 0.0330729,0.012633 0,0.01819 -0.0148828,0.042271 -0.0330729,0.053513 -0.0181901,0.011242 -0.0330729,0.00556 -0.0330729,-0.012633 z M 2.5923335,0.80849885 c 0.01574,-0.0410183 0.00487,-0.047342 -0.05093,-0.0296314 -0.056359,0.0178877 -0.066727,0.0115342 -0.050439,-0.0309103 0.013839,-0.0360645 0.00203,-0.0541813 -0.036338,-0.0557505 -0.047416,-0.001939 -0.045873,-0.007037 0.00931,-0.0307484 0.059241,-0.0254568 0.056934,-0.0286665 -0.0221,-0.0307484 -0.048535,-0.001278 -0.1144195,-0.0123684 -0.14641,-0.0246443 -0.053932,-0.0206958 -0.053528,-0.0240403 0.00556,-0.045967 0.057122,-0.0211961 0.054013,-0.0274772 -0.029998,-0.0605991 -0.051549,-0.0203236 -0.1089543,-0.0275403 -0.1275667,-0.0160372 -0.021547,0.0133168 -0.025413,-0.005639 -0.010642,-0.0521791 0.023119,-0.0728415 0.02288,-0.0728846 -0.069279,-0.0124996 -0.090119,0.059048 -0.091867,0.0590002 -0.068508,-0.001872 0.021295,-0.0554943 0.017658,-0.0573299 -0.032588,-0.0164468 -0.049802,0.0405213 -0.053967,0.0391046 -0.034868,-0.0118585 0.014131,-0.0377066 0.00572,-0.0578776 -0.024125,-0.0578776 -0.025198,0 -0.051562,0.0172404 -0.058586,0.038312 -0.00702,0.0210716 -0.047469,0.0436073 -0.089878,0.0500794 -0.066094,0.0100867 -0.071076,0.0045 -0.034882,-0.0391112 0.053307,-0.0642315 0.01734,-0.1050698 -0.046139,-0.0523871 -0.032352,0.0268495 -0.054288,0.0283501 -0.068897,0.004713 -0.043123,-0.0697748 -0.085661,-0.0340229 -0.047277,0.0397352 0.037946,0.0729176 0.036972,0.0728016 -0.048446,-0.005765 -0.077288,-0.0710887 -0.087171,-0.0733198 -0.087171,-0.0196788 0,0.0565169 -0.00398,0.0568964 -0.060482,0.005765 -0.075483,-0.0683111 -0.1273198,-0.0720113 -0.07181,-0.005126 0.043433,0.0523342 0.01078,0.0659616 -0.056132,0.0234254 -0.025825,-0.0164175 -0.029052,-0.04212 -0.00928,-0.0739076 0.025007,-0.0401985 0.042083,-0.041445 0.097473,-0.007115 0.036935,0.0228918 0.067155,0.0303332 0.067155,0.0165365 0,-0.0137967 0.096381,-0.0268067 0.2141805,-0.0289111 0.1177993,-0.002104 0.2078466,0.006422 0.2001051,0.0189483 -0.00774,0.012526 0.033543,0.0242867 0.091744,0.026135 0.2755812,0.008752 0.3207933,0.0149019 0.3207933,0.0436372 0,0.0169735 0.026186,0.0308609 0.05819,0.0308609 0.053127,0 0.1149211,0.0653668 0.1406931,0.14882812 0.00562,0.0181901 0.050484,0.0525771 0.099705,0.0764156 0.1156698,0.0560206 0.1827944,0.1905811 0.1091646,0.21883552 -0.036807,0.0141242 -0.045658,0.004948 -0.031305,-0.0324553 z"
         id="path2241" />
      <path
         style="fill:#002f22;stroke-width:0.0330729"
         d="m 1.4440003,2.8418418 c -0.029864,-0.042637 -0.056292,-0.055209 -0.069871,-0.033238 -0.012012,0.019435 -0.069376,0.032931 -0.1274765,0.029991 -0.0581,-0.00294 -0.1316822,0.00617 -0.1635149,0.02024 -0.041725,0.018445 -0.057878,0.010753 -0.057878,-0.027562 0,-0.050276 -0.0417693,-0.069729 -0.11575519,-0.053909 -0.16353476,0.034966 -0.24804688,0.030363 -0.24804688,-0.013508 0,-0.026385 0.0148828,-0.05717 0.0330729,-0.068412 0.0583486,-0.036061 0.0353812,-0.117023 -0.0413412,-0.1457302 -0.077439,-0.028975 -0.12255801,0.00499 -0.12351699,0.092979 -3.9654e-4,0.03639 0.0129515,0.034288 0.0615531,-0.0097 0.0527745,-0.04776 0.0648325,-0.048937 0.080594,-0.00786 0.0195801,0.051025 -0.0401166,0.086847 -0.1447283,0.086847 -0.0383307,0 -0.0704067,-0.030264 -0.0823002,-0.077652 -0.0154857,-0.0617 -0.0364061,-0.074418 -0.10183747,-0.06191 -0.0627668,0.011999 -0.0865823,-4.497e-4 -0.10015478,-0.052351 -0.0108019,-0.041307 -0.03604,-0.061096 -0.0641572,-0.050307 -0.0283219,0.010868 -0.0463505,-0.00365 -0.0463505,-0.037313 0,-0.030305 -0.0148828,-0.045902 -0.03307292,-0.034659 -0.03695912,0.022842 -0.0459145,-0.058816 -0.01035057,-0.09438 0.04157844,-0.041578 0.0330347,-0.1536665 -0.011713,-0.1536665 -0.06252976,0 -0.05469749,-0.042279 0.02335193,-0.1260554 0.0370888,-0.03981 0.0537074,-0.072382 0.0369303,-0.072382 -0.069152,0 -0.06796227,-0.1481088 0.001786,-0.2223526 0.0484824,-0.051607 0.0564411,-0.075304 0.0252916,-0.075304 -0.0335931,0 -0.0357716,-0.00968 -0.00835,-0.037103 0.0204067,-0.020407 0.0297478,-0.05627 0.0207581,-0.079697 -0.00899,-0.023427 0.005014,-0.084865 0.0311196,-0.1365298 0.0261055,-0.051665 0.0416858,-0.1099566 0.0346228,-0.1295377 -0.007063,-0.019581 0.0231828,-0.074473 0.0672127,-0.1219822 0.0440299,-0.047509 0.071771,-0.094664 0.0616468,-0.1047878 -0.0101242,-0.010124 0.0238401,-0.0547099 0.0754761,-0.0990794 0.0731544,-0.0628597 0.0856228,-0.0906255 0.0564701,-0.12575239 -0.029099,-0.0350622 -0.0190725,-0.0588542 0.0451169,-0.10705839 0.0453918,-0.0340878 0.0752334,-0.0809935 0.0663148,-0.10423502 -0.008919,-0.0232415 0.0127906,-0.0514634 0.0482425,-0.0627155 0.035452,-0.011252 0.0644582,-0.0352736 0.0644582,-0.0533814 0,-0.0181077 0.0334863,-0.0282669 0.0744141,-0.022576 0.0440265,0.006122 0.071312,-0.005712 0.0668176,-0.0289785 -0.004178,-0.0216291 0.0218669,-0.048677 0.0578776,-0.0601063 0.0360107,-0.0114294 0.065474,-0.0309398 0.065474,-0.0433566 0,-0.0124168 0.0483691,-0.022078 0.10748697,-0.0214694 0.059118,6.086e-4 0.1181949,-0.0142742 0.1312825,-0.0330729 0.016016,-0.0230054 0.04575,-0.0205725 0.09095,0.007442 0.036935,0.0228918 0.067155,0.0303332 0.067155,0.0165365 0,-0.0137967 0.096381,-0.0268067 0.2141805,-0.0289111 0.1177993,-0.002104 0.2078466,0.006422 0.2001051,0.0189483 -0.00774,0.012526 0.033543,0.0242867 0.091744,0.026135 0.2755812,0.008752 0.3207933,0.0149019 0.3207933,0.0436372 0,0.0169735 0.026186,0.0308609 0.05819,0.0308609 0.054556,0 0.1271833,0.0791917 0.1331328,0.14516656 0.00146,0.0161763 0.047817,0.0512852 0.1030178,0.0780198 0.055201,0.0267347 0.1090568,0.0759921 0.1196793,0.10946087 0.011471,0.0361406 0.038772,0.0533854 0.06723,0.0424652 0.045675,-0.0175272 0.050195,-0.006126 0.061081,0.15405424 0.00185,0.0272852 0.016024,0.0692031 0.031488,0.0931508 0.015464,0.023948 0.019416,0.052242 0.00878,0.062876 -0.010634,0.010634 0.00648,0.038936 0.038029,0.062894 0.041361,0.031407 0.044701,0.043853 0.011973,0.044611 -0.034206,7.927e-4 -0.036314,0.011988 -0.00856,0.045436 0.02026,0.024411 0.027043,0.054177 0.015074,0.066146 -0.011969,0.011969 0.00304,0.021762 0.03336,0.021762 0.030317,0 0.05626,0.018603 0.057652,0.041341 0.0064,0.1045822 0.030113,0.1679496 0.085919,0.2296153 0.033208,0.036694 0.056658,0.072596 0.05211,0.079781 -0.00455,0.00719 -0.00633,0.016785 -0.00397,0.021332 0.00237,0.00455 0.00821,0.052917 0.012993,0.1074869 0.00478,0.05457 0.01129,0.099219 0.014467,0.099219 0.00318,0 0.011728,0.045091 0.019004,0.1002032 0.00968,0.073288 -0.00425,0.1111186 -0.051841,0.1408402 -0.051766,0.032328 -0.065174,0.032127 -0.065576,-9.846e-4 -3.486e-4,-0.028655 -0.010063,-0.026511 -0.031181,0.00688 -0.017561,0.027765 -0.01834,0.063363 -0.00182,0.083265 0.017399,0.020965 0.00381,0.067354 -0.034229,0.1168644 -0.034695,0.045155 -0.063413,0.069115 -0.063817,0.053245 -4.045e-4,-0.01587 -0.022175,-0.011061 -0.048379,0.010686 -0.026204,0.021747 -0.039494,0.060777 -0.029535,0.086732 0.00996,0.025955 0.0021,0.047191 -0.017464,0.047191 -0.019565,0 -0.027007,0.022324 -0.016536,0.049609 0.01047,0.027285 0.00256,0.049609 -0.017574,0.049609 -0.020136,0 -0.036611,0.022324 -0.036611,0.049609 0,0.027285 -0.026789,0.049609 -0.059531,0.049609 -0.032742,0 -0.077391,0.017859 -0.099219,0.039687 -0.030868,0.030868 -0.039687,0.030868 -0.039687,0 0,-0.021828 -0.022324,-0.039687 -0.049609,-0.039687 -0.027285,0 -0.049609,0.016705 -0.049609,0.037122 0,0.025648 -0.015334,0.024397 -0.049609,-0.00405 -0.036343,-0.030162 -0.061317,-0.031456 -0.093391,-0.00484 -0.03181,0.0264 -0.053722,0.026395 -0.080134,-1.69e-5 -0.026421,-0.026421 -0.061895,-0.01846 -0.129851,0.029144 -0.051424,0.036023 -0.1121022,0.058937 -0.1348398,0.05092 -0.022738,-0.00802 -0.041341,-1.842e-4 -0.041341,0.017407 0,0.048261 -0.2009336,0.022568 -0.2356041,-0.030126 -0.02509,-0.038133 -0.037786,-0.036104 -0.074595,0.011923 -0.056775,0.074078 -0.072476,0.072796 -0.1309569,-0.010697 z m 0.050344,-0.03781 c -0.023732,-0.023732 -0.039136,-0.025685 -0.039136,-0.00496 0,0.044145 0.039112,0.083257 0.061185,0.061185 0.0094,-0.0094 -5.235e-4,-0.034699 -0.022049,-0.056224 z m 0.3577387,0.02175 c 0,-0.028359 -0.015126,-0.042213 -0.033612,-0.030788 -0.018487,0.011426 -0.02505,0.034628 -0.014585,0.051561 0.028351,0.045874 0.048197,0.03732 0.048197,-0.020773 z M 1.7467304,2.6070507 c -0.028088,-0.018599 -0.011286,-0.023458 0.047475,-0.013729 0.050023,0.00828 0.090951,0.00435 0.090951,-0.00874 0,-0.013088 0.028673,-0.023796 0.063718,-0.023796 0.035045,0 0.05772,0.0097 0.050389,0.021566 -0.00733,0.011861 0.016086,0.048186 0.052038,0.080721 0.044218,0.040017 0.065366,0.045487 0.065366,0.016907 0,-0.032219 0.01086,-0.033235 0.045747,-0.00428 0.058352,0.048428 0.090922,-0.022039 0.062011,-0.1341645 -0.01788,-0.069345 -0.014119,-0.072773 0.035335,-0.032213 0.044716,0.036674 0.055345,0.037048 0.055345,0.00195 0,-0.026452 0.018992,-0.018334 0.048558,0.020755 0.034143,0.045142 0.04887,0.050291 0.049609,0.017346 5.784e-4,-0.025769 0.011006,-0.036899 0.023173,-0.024732 0.012166,0.012166 0.049373,-0.00254 0.082682,-0.032687 0.033309,-0.030144 0.062422,-0.045059 0.064696,-0.033145 0.00227,0.011914 0.00599,0.039026 0.00827,0.060247 0.00227,0.021222 0.024299,0.045307 0.048946,0.053522 0.033372,0.011124 0.038656,-0.00506 0.020696,-0.06339 -0.013263,-0.04308 -0.01324,-0.06806 5.3e-5,-0.05551 0.013293,0.012549 0.042863,0.00535 0.065712,-0.01599 0.04167,-0.038925 0.00941,-0.141941 -0.06039,-0.1928615 -0.015585,-0.011369 -0.011864,-0.030851 0.00827,-0.043293 0.020132,-0.012442 0.037077,-0.00314 0.037656,0.020671 7.032e-4,0.028942 0.015491,0.024277 0.044611,-0.014071 0.023958,-0.03155 0.05325,-0.047673 0.065094,-0.035829 0.011845,0.011844 0.021535,-0.00509 0.021535,-0.037636 0,-0.048847 0.00866,-0.051987 0.049609,-0.017999 0.057087,0.047378 0.068101,-0.00135 0.012804,-0.05665 -0.039527,-0.039527 -0.013619,-0.108715 0.040709,-0.108715 0.01819,0 0.024917,0.013197 0.014949,0.029326 -0.00997,0.016129 0.00271,0.046617 0.028177,0.067752 0.067415,0.055949 0.089018,-0.00537 0.037127,-0.1053936 -0.039104,-0.075374 -0.037965,-0.08886 0.00903,-0.1068948 0.046517,-0.01785 0.047206,-0.024799 0.0051,-0.051426 -0.041663,-0.026348 -0.04181,-0.03086 -0.00102,-0.031294 0.034175,-3.631e-4 0.029496,-0.014247 -0.016536,-0.049064 -0.046171,-0.034922 -0.050838,-0.048853 -0.016621,-0.049609 0.033194,-7.339e-4 0.025018,-0.022069 -0.027047,-0.070575 -0.041043,-0.038238 -0.066641,-0.090328 -0.056884,-0.1157552 0.00976,-0.025427 8.445e-4,-0.046232 -0.019806,-0.046232 -0.020651,0 -0.027158,-0.010389 -0.014461,-0.023086 0.012697,-0.012697 -0.010867,-0.041936 -0.052365,-0.064974 -0.041498,-0.023038 -0.055026,-0.042415 -0.030061,-0.04306 0.036589,-9.447e-4 0.037407,-0.010791 0.00422,-0.050781 -0.022645,-0.027285 -0.030086,-0.049609 -0.016536,-0.049609 0.01355,0 0.00806,-0.019973 -0.0122,-0.044384 -0.02026,-0.024411 -0.027043,-0.054177 -0.015074,-0.066146 0.011969,-0.011969 -0.00676,-0.02199 -0.041628,-0.022268 -0.03504,-2.811e-4 -0.048598,-0.011373 -0.030317,-0.024805 0.041352,-0.03038 0.052236,-0.14005346 0.0139,-0.14005346 -0.015598,0 -0.018857,-0.0247657 -0.00724,-0.0550348 0.014263,-0.0371699 0.00848,-0.0472212 -0.017828,-0.0309643 -0.042385,0.0261956 -0.147458,-0.0585415 -0.1140348,-0.0919647 0.011261,-0.0112606 -0.00521,-0.0204737 -0.0366,-0.0204737 -0.03139,0 -0.048921,-0.0131908 -0.038957,-0.0293129 0.00996,-0.0161221 -0.012979,-0.0374446 -0.050985,-0.0473833 -0.040792,-0.0106673 -0.0596,-0.0334437 -0.04591,-0.0555955 0.013691,-0.0221518 -0.00512,-0.0449282 -0.04591,-0.0555955 -0.038006,-0.009939 -0.059386,-0.0337904 -0.047512,-0.0530037 0.013377,-0.0216446 9.875e-4,-0.0270273 -0.03257,-0.01415 -0.032879,0.0126167 -0.066242,-8.0547e-4 -0.084907,-0.0341585 -0.025892,-0.0462655 -0.039086,-0.0480205 -0.083557,-0.0111132 -0.038315,0.0317988 -0.05281,0.0330276 -0.05281,0.004477 0,-0.0250735 -0.025502,-0.0312571 -0.070288,-0.0170428 -0.050465,0.0160168 -0.063289,0.0109842 -0.045472,-0.0178443 0.018444,-0.029843 -0.00172,-0.034324 -0.078541,-0.0174519 -0.057153,0.012553 -0.1033563,0.009136 -0.1033563,-0.007643 0,-0.0408067 -0.3079513,-0.0332587 -0.3376202,0.008275 -0.014958,0.0209402 -0.038273,0.0179512 -0.064492,-0.008268 -0.051801,-0.0518008 -0.1057706,-0.0538236 -0.074225,-0.002782 0.016211,0.0262296 0.00121,0.0324109 -0.047658,0.0196327 -0.039225,-0.0102575 -0.071317,-0.006554 -0.071317,0.00823 0,0.0147842 -0.032093,0.0184879 -0.071317,0.00823 -0.045693,-0.011949 -0.063501,-0.006003 -0.049564,0.0165484 0.01394,0.0225548 -0.00388,0.0284948 -0.0496093,0.0165365 -0.0452977,-0.0118456 -0.0635036,-0.005945 -0.0498449,0.0161553 0.019627,0.0317571 -0.0447174,0.0774065 -0.12693005,0.0900512 -0.0729911,0.0112264 -0.14746479,0.0594381 -0.13156225,0.085169 0.009287,0.0150272 0.001518,0.0368203 -0.0172659,0.0484291 -0.0187835,0.0116089 -0.0255894,0.0349615 -0.0151241,0.0518947 0.0104653,0.0169332 -0.005053,0.0307876 -0.0344853,0.0307876 -0.0294322,0 -0.044315,0.0148828 -0.0330729,0.0330729 0.0112421,0.0181901 9.5845e-4,0.0333008 -0.0228528,0.0335794 -0.0347166,4.0614e-4 -0.0349485,0.005802 -0.00117,0.0272396 0.0321196,0.0203847 0.0259521,0.0413675 -0.0259711,0.0883573 C 0.4913339,0.94374944 0.4679,0.99026494 0.4767101,1.0132239 c 0.0104593,0.027257 -0.002497,0.034639 -0.037332,0.021271 -0.0356818,-0.013692 -0.0453829,-0.00758 -0.0292924,0.018454 0.0136572,0.022098 0.001787,0.047473 -0.0274575,0.058695 -0.0283336,0.010873 -0.0438467,0.032177 -0.0344736,0.047343 0.009373,0.015166 -0.001875,0.039651 -0.0249947,0.054412 -0.0502024,0.03205 -0.055229,0.1163639 -0.008964,0.1503544 0.0185283,0.013613 0.006762,0.024521 -0.0267565,0.024805 -0.0329062,2.786e-4 -0.0506314,0.015389 -0.0393893,0.033579 0.0112421,0.01819 0.004679,0.033073 -0.0145846,0.033073 -0.0192636,0 -0.0350248,0.015761 -0.0350248,0.035025 0,0.019264 0.0163676,0.024909 0.0363725,0.012545 0.0264481,-0.016346 0.0264481,-0.00394 0,0.045483 -0.0489319,0.09143 -0.0462112,0.1050279 0.0215051,0.1074806 0.0432733,0.00157 0.0385644,0.00984 -0.0186612,0.032793 -0.0420964,0.016883 -0.0672629,0.045705 -0.0559257,0.064049 0.0113372,0.018344 -0.00631,0.034528 -0.0392164,0.035964 -0.0350616,0.00153 -0.04263001,0.00955 -0.0182823,0.019361 0.022851,0.00921 0.0322171,0.031847 0.0208136,0.050298 -0.0114035,0.018451 0.012624,0.015695 0.0533944,-0.00612 0.049066,-0.026259 0.066528,-0.027375 0.0516487,-0.0033 -0.0123637,0.020005 -0.004124,0.036372 0.0183104,0.036372 0.0225016,0 0.005964,0.037071 -0.0368861,0.082682 -0.0683851,0.072793 -0.0705682,0.082682 -0.0182519,0.082682 0.0515565,0 0.0534145,0.00728 0.0140333,0.054988 -0.0369993,0.044822 -0.0373742,0.057685 -0.002028,0.069576 0.0333732,0.011227 0.0302875,0.029036 -0.0133941,0.077304 -0.0410913,0.045405 -0.0446922,0.062716 -0.0130461,0.062716 0.024041,0 0.0344978,0.00921 0.0232373,0.020474 -0.0256257,0.025626 0.0578223,0.1118179 0.10825767,0.1118179 0.0205629,0 0.026884,0.018604 0.0140469,0.041341 -0.0186254,0.03299 -0.0143799,0.033027 0.0210167,1.819e-4 0.0367616,-0.034111 0.0319292,-0.052737 -0.028221,-0.1087754 -0.0399179,-0.037189 -0.072578,-0.0844 -0.072578,-0.1049128 0,-0.020513 0.009793,-0.027504 0.0217617,-0.015535 0.0119689,0.011969 0.0438813,0.0034 0.0709164,-0.019033 0.0419108,-0.034783 0.0454926,-0.029256 0.0243045,0.037502 -0.0171015,0.053882 -0.0134327,0.07124 0.0117658,0.055666 0.02104,-0.013003 0.0366161,2.518e-4 0.0366161,0.03116 0,0.038739 0.0185079,0.047916 0.0661458,0.032796 0.047638,-0.01512 0.0661458,-0.00594 0.0661458,0.032796 0,0.029585 0.0148828,0.044592 0.0330729,0.03335 0.0181901,-0.011242 0.0330729,-0.00286 0.0330729,0.018634 0,0.029951 0.0109333,0.030001 0.046828,2.117e-4 0.0374137,-0.031051 0.0511904,-0.025119 0.0685269,0.029504 0.0119344,0.037602 0.0355103,0.059832 0.0523907,0.049399 0.0168805,-0.010434 0.0306918,0.00511 0.0306918,0.034543 0,0.029432 -0.0148828,0.044315 -0.0330729,0.033073 -0.0181901,-0.011242 -0.0330729,-0.013338 -0.0330729,-0.00466 0,0.00868 -0.009698,0.041056 -0.0215513,0.071945 -0.0179265,0.046716 -0.0109731,0.050501 0.0413411,0.022503 0.0345908,-0.018512 0.0752948,-0.033886 0.0904532,-0.034164 0.0448323,-8.22e-4 0.0699027,-0.03909 0.0256089,-0.03909 -0.0222953,0 -0.0308922,-0.015605 -0.0191042,-0.034679 0.0146516,-0.023707 0.0361971,-0.022426 0.0680977,0.00405 0.0372681,0.03093 0.046665,0.026591 0.046665,-0.021545 0,-0.048219 0.008268,-0.052005 0.0413411,-0.018933 0.022738,0.022738 0.043202,0.05548 0.045475,0.07276 0.00227,0.017281 0.00717,0.057464 0.010879,0.089297 0.00446,0.038254 0.012557,0.043393 0.023887,0.015156 0.013163,-0.032806 0.027909,-0.033785 0.063535,-0.00422 0.036976,0.030687 0.046607,0.025933 0.047445,-0.023424 0.00101,-0.059529 0.00293,-0.059441 0.049609,0.00227 0.044221,0.058465 0.064737,0.047664 0.051122,-0.026915 -0.0029,-0.015874 0.018908,-0.019585 0.048456,-0.00825 0.034561,0.013262 0.048775,0.00586 0.039846,-0.020747 -0.00763,-0.02275 -0.034922,-0.043368 -0.060641,-0.045817 -0.025719,-0.00245 -0.065366,-0.00617 -0.088103,-0.00827 -0.022738,-0.0021 -0.040166,-0.02986 -0.03873,-0.061693 0.00166,-0.036807 0.00885,-0.042324 0.019753,-0.015156 0.013163,0.032806 0.02791,0.033785 0.063535,0.00422 0.03553,-0.029488 0.046393,-0.028982 0.046393,0.00216 0,0.02241 0.02209,0.032184 0.049213,0.021776 0.027067,-0.010387 0.047629,-0.00826 0.045693,0.00473 -0.00951,0.063779 0.00892,0.077499 0.053923,0.040151 0.057087,-0.047378 0.068101,0.00135 0.012804,0.056649 -0.020243,0.020243 -0.026656,0.053228 -0.014251,0.0733 0.030088,0.048684 0.091353,0.00872 0.063281,-0.041284 -0.015805,-0.02815 -0.00981,-0.027834 0.021461,0.00113 0.034348,0.031817 0.052367,0.028371 0.086482,-0.016536 0.040166,-0.052873 0.043165,-0.052928 0.044146,-8.01e-4 5.785e-4,0.030759 -0.014074,0.065274 -0.03256,0.076699 -0.018487,0.011426 -0.02308,0.037815 -0.010208,0.058644 0.014233,0.023029 0.041202,-0.00575 0.068819,-0.073429 0.037414,-0.091691 0.037755,-0.11637 0.00194,-0.1400861 z m -0.6057148,0.00571 c 0.011242,-0.01819 0.027003,-0.033073 0.035025,-0.033073 0.00802,0 0.014585,0.014883 0.014585,0.033073 0,0.01819 -0.015761,0.033073 -0.035025,0.033073 -0.019264,0 -0.025827,-0.014883 -0.014585,-0.033073 z m 1.008724,-0.035025 c 0,-0.019264 0.014883,-0.025827 0.033073,-0.014585 0.01819,0.011242 0.033073,0.027003 0.033073,0.035025 0,0.00802 -0.014883,0.014585 -0.033073,0.014585 -0.01819,0 -0.033073,-0.015761 -0.033073,-0.035025 z M 1.080382,2.5245659 C 1.068255,2.5124389 1.058333,2.4871389 1.058333,2.4683419 c 0,-0.020724 0.015404,-0.018771 0.039136,0.00496 0.021525,0.021525 0.031447,0.046826 0.022049,0.056224 -0.0094,0.0094 -0.027009,0.00717 -0.039136,-0.00496 z M 2.6127604,2.3851537 c 0,-0.01819 0.014883,-0.042271 0.033073,-0.053513 0.01819,-0.011242 0.033073,-0.00556 0.033073,0.012633 0,0.01819 -0.014883,0.042271 -0.033073,0.053513 -0.01819,0.011242 -0.033073,0.00556 -0.033073,-0.012633 z M 0.46563184,2.2902995 c 0.001575,-0.034917 0.009256,-0.041395 0.0193612,-0.01633 0.009213,0.022851 0.0326614,0.031713 0.0521084,0.019695 0.0208988,-0.012916 0.0257078,-0.00624 0.0117598,0.01633 -0.0356659,0.057709 -0.0861821,0.045755 -0.0832294,-0.019695 z M 0.31419271,2.1497396 c 0.0112421,-0.01819 0.035323,-0.033073 0.0535131,-0.033073 0.0181901,0 0.0238748,0.014883 0.0126327,0.033073 -0.0112421,0.01819 -0.035323,0.033073 -0.0535131,0.033073 -0.0181901,0 -0.0238748,-0.014883 -0.0126327,-0.033073 z M 2.8302096,1.9222342 c -0.010247,-0.016581 0.00361,-0.038681 0.030788,-0.049111 0.027181,-0.01043 0.049419,-0.00543 0.049419,0.011119 0,0.044832 -0.058774,0.072672 -0.080207,0.037992 z M 1.984375,2.7334463 c 0,-0.063024 -0.016712,-0.077119 -0.088227,-0.074414 -0.048525,0.00184 -0.095594,0.025662 -0.1045971,0.052947 -0.013165,0.039897 -0.00696,0.041845 0.031712,0.00995 0.038568,-0.031812 0.056049,-0.026903 0.088341,0.024805 0.053054,0.084952 0.072771,0.081352 0.072771,-0.013287 z m 0.4954304,-0.071876 c -0.023009,-0.027725 -0.048646,-0.043598 -0.056971,-0.035273 -0.022936,0.022936 0.023665,0.085682 0.063635,0.085682 0.02193,0 0.019421,-0.018977 -0.00666,-0.050409 z m -0.125565,-0.055976 c -0.023732,-0.023732 -0.039136,-0.025685 -0.039136,-0.00496 0,0.044145 0.039112,0.083257 0.061185,0.061185 0.0094,-0.0094 -5.236e-4,-0.034699 -0.022049,-0.056224 z m 0.2223402,-0.013114 c -0.048382,-0.058296 -0.071865,-0.041203 -0.043815,0.031893 0.011429,0.029784 0.034826,0.045472 0.051994,0.034862 0.01861,-0.011502 0.015308,-0.038456 -0.00818,-0.066755 z M 2.8111979,2.2966158 c 0,-0.028359 -0.015126,-0.042213 -0.033612,-0.030788 -0.018487,0.011426 -0.02505,0.034628 -0.014585,0.051561 0.028351,0.045874 0.048197,0.03732 0.048197,-0.020773 z m 0.1157552,-0.047658 c -0.011242,-0.01819 -0.035323,-0.033073 -0.053513,-0.033073 -0.01819,0 -0.023875,0.014883 -0.012633,0.033073 0.011242,0.01819 0.035323,0.033073 0.053513,0.033073 0.01819,0 0.023875,-0.014883 0.012633,-0.033073 z"
         id="path2239" />
      <path
         style="fill:#0f171f;stroke-width:0.0330729"
         d="m 1.4440003,2.8418418 c -0.029864,-0.042637 -0.056292,-0.055209 -0.069871,-0.033238 -0.012012,0.019435 -0.069376,0.032931 -0.1274765,0.029991 -0.0581,-0.00294 -0.1316822,0.00617 -0.1635149,0.02024 -0.041725,0.018445 -0.057878,0.010753 -0.057878,-0.027562 0,-0.050276 -0.0417693,-0.069729 -0.11575519,-0.053909 -0.0181901,0.00389 -0.0832743,0.013462 -0.14463157,0.021273 -0.0973513,0.012393 -0.10941827,0.00602 -0.0947519,-0.050068 0.0147739,-0.056496 0.003465,-0.062104 -0.093498,-0.046369 -0.0966119,0.015678 -0.11285068,0.00776 -0.13081314,-0.063812 -0.0165186,-0.065815 -0.0365285,-0.078649 -0.10285641,-0.06597 -0.0627668,0.011999 -0.0865823,-4.497e-4 -0.10015478,-0.052351 -0.0108019,-0.041307 -0.03604,-0.061096 -0.0641572,-0.050307 -0.0283219,0.010868 -0.0463505,-0.00365 -0.0463505,-0.037313 0,-0.030305 -0.0148828,-0.045902 -0.03307292,-0.034659 -0.0181901,0.011242 -0.03307292,-0.00188 -0.03307292,-0.029169 0,-0.027285 0.01423282,-0.058406 0.0316285,-0.069157 0.01739567,-0.010751 0.02318001,-0.041564 0.0128541,-0.068473 -0.013451,-0.035053 -0.003259,-0.042971 0.0359452,-0.027927 0.0482954,0.018533 0.0490241,0.027313 0.006207,0.074789 -0.0379168,0.042042 -0.0400346,0.065261 -0.009696,0.1063035 0.0213492,0.028882 0.0574202,0.046245 0.0801578,0.038585 0.0227376,-0.00766 0.0413411,0.010104 0.0413411,0.039476 0,0.070547 0.078244,0.097953 0.15791908,0.055312 0.057006,-0.030509 0.0622041,-0.024563 0.0483751,0.055331 -0.0151586,0.087576 -0.0142982,0.088081 0.0397586,0.023367 0.054112,-0.06478 0.0544889,-0.064574 0.0182595,0.01001 -0.0360237,0.07416 -0.0334227,0.075745 0.0992665,0.060501 0.11602022,-0.013329 0.13036884,-0.00856 0.0966014,0.032131 -0.0218119,0.026282 -0.032226,0.055217 -0.0231423,0.064301 0.0270484,0.027048 0.12516062,-0.022117 0.12570824,-0.062994 2.8112e-4,-0.021039 0.0140529,-0.016386 0.0310538,0.010492 0.0260959,0.041257 0.0406881,0.039117 0.10013559,-0.014682 0.0684925,-0.061985 0.0692079,-0.061964 0.0454362,0.00131 -0.0217094,0.05779 -0.0182983,0.059526 0.033729,0.017175 0.053087,-0.043214 0.056021,-0.039703 0.035418,0.042385 -0.022069,0.087928 -0.020797,0.088768 0.072334,0.04779 0.052139,-0.022942 0.1073639,-0.056898 0.1227224,-0.075458 0.016393,-0.019811 0.020236,-0.00985 0.00931,0.024132 -0.020114,0.062529 0.058989,0.08317 0.095061,0.024805 0.033824,-0.054729 0.073708,-0.037543 0.09594,0.041341 l 0.020972,0.074414 0.063186,-0.075137 0.063186,-0.075137 0.050837,0.07258 c 0.045331,0.06472 0.053177,0.066484 0.072439,0.016287 0.020143,-0.052492 0.024616,-0.05232 0.066248,0.00256 0.042784,0.056395 0.04469,0.056387 0.045698,-1.918e-4 8.681e-4,-0.048728 0.012606,-0.052857 0.067198,-0.023641 0.053288,0.028519 0.066146,0.025152 0.066146,-0.017325 0,-0.028999 0.015535,-0.043124 0.034522,-0.031389 0.018987,0.011735 0.056194,0.00335 0.082682,-0.018634 0.037713,-0.031299 0.058922,-0.031038 0.09777,0.0012 0.040704,0.033781 0.049609,0.031331 0.049609,-0.013651 0,-0.044574 0.012365,-0.048205 0.066146,-0.019422 0.038344,0.020521 0.066146,0.022312 0.066146,0.00426 0,-0.017127 0.033486,-0.022511 0.074414,-0.011965 0.060302,0.015539 0.068142,0.00995 0.041341,-0.02946 -0.01819,-0.026749 -0.00703,-0.02024 0.024805,0.014465 0.031833,0.034705 0.057878,0.047036 0.057878,0.027401 0,-0.01979 0.024666,-0.026234 0.055351,-0.014459 0.041818,0.016047 0.050195,0.0078 0.034263,-0.033714 -0.011598,-0.030225 -0.010461,-0.053371 0.00253,-0.051435 0.065423,0.00975 0.076992,-0.00965 0.035932,-0.060271 -0.025858,-0.031878 -0.028584,-0.045878 -0.00633,-0.032533 0.021481,0.012884 0.048404,0.0083 0.05983,-0.010188 0.011426,-0.018487 0.00129,-0.03384 -0.022519,-0.034119 -0.032692,-3.823e-4 -0.031666,-0.00786 0.00419,-0.030552 0.041262,-0.026109 0.041262,-0.037708 0,-0.088525 -0.041518,-0.051133 -0.041324,-0.054762 0.00155,-0.028891 0.078771,0.047537 0.1710181,0.044031 0.1519062,-0.00577 -0.00986,-0.025689 0.00552,-0.04419 0.03674,-0.04419 0.047493,0 0.046781,-0.00764 -0.00616,-0.066146 -0.033947,-0.037511 -0.043325,-0.066146 -0.021662,-0.066146 0.021009,0 0.038199,-0.023203 0.038199,-0.051561 0,-0.028359 0.014923,-0.042338 0.033162,-0.031066 0.022159,0.013695 0.022129,0.041111 -8.94e-5,0.082627 -0.021933,0.040981 -0.022088,0.069031 -4.571e-4,0.0824 0.020148,0.012452 0.012077,0.051887 -0.020927,0.102258 -0.029547,0.045094 -0.061498,0.074213 -0.071003,0.064708 -0.031784,-0.031784 -0.1023609,0.052494 -0.084009,0.1003178 0.00996,0.025955 0.0021,0.047191 -0.017464,0.047191 -0.019565,0 -0.027007,0.022324 -0.016536,0.049609 0.01047,0.027285 0.00256,0.049609 -0.017574,0.049609 -0.020136,0 -0.036611,0.022324 -0.036611,0.049609 0,0.027285 -0.026789,0.049609 -0.059531,0.049609 -0.032742,0 -0.077391,0.017859 -0.099219,0.039687 -0.030868,0.030868 -0.039687,0.030868 -0.039687,0 0,-0.021828 -0.022324,-0.039687 -0.049609,-0.039687 -0.027285,0 -0.049609,0.016705 -0.049609,0.037122 0,0.025648 -0.015334,0.024397 -0.049609,-0.00405 -0.036343,-0.030162 -0.061317,-0.031456 -0.093391,-0.00484 -0.03181,0.0264 -0.053722,0.026395 -0.080134,-1.69e-5 -0.026421,-0.026421 -0.061895,-0.01846 -0.129851,0.029144 -0.051424,0.036023 -0.1121022,0.058937 -0.1348398,0.05092 -0.022738,-0.00802 -0.041341,-1.842e-4 -0.041341,0.017407 0,0.048261 -0.2009336,0.022568 -0.2356041,-0.030126 C 1.624489,2.8024774 1.611793,2.8045064 1.574984,2.8525334 1.518209,2.9266114 1.502508,2.9253294 1.4440271,2.8418364 Z M 0.09095052,2.1580323 C 0.01591361,2.140993 0.0179551,2.1122934 0.10050711,2.0236842 c 0.0370888,-0.03981 0.0519716,-0.072382 0.0330729,-0.072382 -0.0188987,0 -0.0331863,-0.026045 -0.0317503,-0.057878 0.001575,-0.034917 0.009256,-0.041395 0.0193612,-0.01633 0.009213,0.022851 0.0326614,0.031713 0.0521084,0.019695 0.0208988,-0.012916 0.0257079,-0.00624 0.0117598,0.01633 -0.0131929,0.021346 -0.004509,0.038626 0.0196946,0.039189 0.0263952,6.132e-4 0.0204312,0.014315 -0.0152802,0.035106 -0.0322153,0.018755 -0.0485193,0.050367 -0.0362311,0.07025 0.0128866,0.020851 0.00715,0.026761 -0.0135556,0.013964 -0.0197437,-0.012202 -0.0445882,-0.00812 -0.05520993,0.00906 -0.01062173,0.017186 0.01439481,0.036051 0.05559232,0.041921 0.0411975,0.00587 0.0600218,0.019199 0.0418317,0.029619 -0.0181901,0.01042 -0.0591178,0.013031 -0.09095052,0.0058 z M 3.0213768,2.133773 c 0.011732,-0.030574 0.021332,-0.062692 0.021332,-0.071373 0,-0.00868 0.014883,-0.00659 0.033073,0.00466 0.046308,0.02862 0.041378,-0.028075 -0.00661,-0.076068 -0.030868,-0.030868 -0.029968,-0.039688 0.00405,-0.039688 0.036245,0 0.036235,-0.00991 -5.96e-5,-0.057878 -0.036781,-0.048608 -0.036589,-0.051475 0.0012,-0.017905 0.076918,0.068337 0.074408,0.2209672 -0.00444,0.2702111 -0.061599,0.038469 -0.067341,0.037054 -0.048534,-0.011958 z"
         id="path2237" />
    </g>
  </g>
</svg>
