<?xml version="1.0" encoding="UTF-8" standalone="no"?>
<svg
   xmlns:dc="http://purl.org/dc/elements/1.1/"
   xmlns:cc="http://creativecommons.org/ns#"
   xmlns:rdf="http://www.w3.org/1999/02/22-rdf-syntax-ns#"
   xmlns:svg="http://www.w3.org/2000/svg"
   xmlns="http://www.w3.org/2000/svg"
   xmlns:sodipodi="http://sodipodi.sourceforge.net/DTD/sodipodi-0.dtd"
   xmlns:inkscape="http://www.inkscape.org/namespaces/inkscape"
   width="100"
   height="80"
   viewBox="0 0 26.458333 21.166667"
   version="1.1"
   id="svg8545"
   inkscape:version="1.0.2-2 (e86c870879, 2021-01-15)"
   sodipodi:docname="Castle_3.svg">
  <defs
     id="defs8539" />
  <sodipodi:namedview
     id="base"
     pagecolor="#ffffff"
     bordercolor="#666666"
     borderopacity="1.0"
     inkscape:pageopacity="0.0"
     inkscape:pageshadow="2"
     inkscape:zoom="7.3097164"
     inkscape:cx="34.651864"
     inkscape:cy="61.533259"
     inkscape:document-units="mm"
     inkscape:current-layer="layer1"
     inkscape:document-rotation="0"
     showgrid="true"
     units="px"
     inkscape:snap-grids="true"
     inkscape:snap-to-guides="false"
     inkscape:window-width="1920"
     inkscape:window-height="1017"
     inkscape:window-x="-8"
     inkscape:window-y="-8"
     inkscape:window-maximized="1">
    <inkscape:grid
       type="xygrid"
       id="grid9108"
       empspacing="10"
       spacingx="0.13229167"
       spacingy="0.13229167" />
  </sodipodi:namedview>
  <metadata
     id="metadata8542">
    <rdf:RDF>
      <cc:Work
         rdf:about="">
        <dc:format>image/svg+xml</dc:format>
        <dc:type
           rdf:resource="http://purl.org/dc/dcmitype/StillImage" />
        <dc:title></dc:title>
      </cc:Work>
    </rdf:RDF>
  </metadata>
  <g
     inkscape:label="Layer 1"
     inkscape:groupmode="layer"
     id="layer1">
    <path
       style="fill:#6a6a6a;fill-opacity:1;stroke:none;stroke-width:0.181148px;stroke-linecap:butt;stroke-linejoin:miter;stroke-opacity:1"
       d="M 13.229167,0 19.84375,3.9687497 16.536458,5.953125 9.921875,1.984375 Z"
       id="path9110"
       sodipodi:nodetypes="ccccc" />
    <path
       style="fill:#838376;fill-opacity:1;stroke:none;stroke-width:0.181148px;stroke-linecap:butt;stroke-linejoin:miter;stroke-opacity:1"
       d="M 9.921875,1.9843752 16.536458,5.953125 13.229167,7.9374997 6.6145836,3.96875 Z"
       id="path9110-8"
       sodipodi:nodetypes="ccccc" />
    <path
       style="fill:#726c62;fill-opacity:1;stroke:none;stroke-width:0.181148px;stroke-linecap:butt;stroke-linejoin:miter;stroke-opacity:1"
       d="M 0,7.9374997 6.6145831,3.9687497 9.921875,5.953125 3.3072919,9.9218745 Z"
       id="path9110-4"
       sodipodi:nodetypes="ccccc" />
    <path
       style="fill:#78786c;fill-opacity:1;stroke:none;stroke-width:0.181148px;stroke-linecap:butt;stroke-linejoin:miter;stroke-opacity:1"
       d="M 3.3072919,9.9218745 9.921875,5.953125 13.229167,7.9374997 6.6145833,11.90625 Z"
       id="path9110-8-5"
       sodipodi:nodetypes="ccccc" />
    <path
       style="fill:#717171;fill-opacity:1;stroke:none;stroke-width:0.181148px;stroke-linecap:butt;stroke-linejoin:miter;stroke-opacity:1"
       d="M 13.229168,15.875 6.6145841,11.90625 9.9218758,9.921875 16.536459,13.890625 Z"
       id="path9110-3"
       sodipodi:nodetypes="ccccc" />
    <path
       style="fill:#838376;fill-opacity:1;stroke:none;stroke-width:0.181148px;stroke-linecap:butt;stroke-linejoin:miter;stroke-opacity:1"
       d="M 16.536459,13.890625 9.9218758,9.921875 13.229168,7.9375003 19.843751,11.90625 Z"
       id="path9110-8-1"
       sodipodi:nodetypes="ccccc" />
    <path
       style="fill:#5a5a5a;fill-opacity:1;stroke:none;stroke-width:0.181148px;stroke-linecap:butt;stroke-linejoin:miter;stroke-opacity:1"
       d="M 26.458333,7.9375003 19.843751,11.90625 16.536458,9.921875 23.151042,5.9531255 Z"
       id="path9110-4-1"
       sodipodi:nodetypes="ccccc" />
    <path
       style="fill:#898570;fill-opacity:1;stroke:none;stroke-width:0.181148px;stroke-linecap:butt;stroke-linejoin:miter;stroke-opacity:1"
       d="M 23.151042,5.9531255 16.536458,9.921875 13.229168,7.9375003 19.843751,3.9687505 Z"
       id="path9110-8-5-0"
       sodipodi:nodetypes="ccccc" />
    <path
       style="fill:#4f3f26;fill-opacity:1;stroke:none;stroke-width:0.181148;stroke-linecap:butt;stroke-linejoin:miter;stroke-miterlimit:4;stroke-dasharray:none;stroke-opacity:1"
       d="m 9.921875,1.984375 1.516164,0.7600759 0.717428,0.4912326 4.380991,2.519004 0.562731,-0.1795809 1.199952,-0.6898034 0.833314,-0.5950442 0.711295,-0.3215093 -0.467132,0.4795145 -0.846694,0.3638401 -1.828101,1.2402394 -1.691637,0.9381991 -1.45029,0.9469575 0.217721,0.3235856 1.566456,0.7490902 1.060213,0.7547933 L 21.099612,7.1121603 22.77039,6.0609321 23.151042,5.9531255 22.895097,6.1930738 20.839537,7.3400277 16.536458,9.921875 19.843751,11.90625 19.450357,11.85441 19.18668,11.609417 16.151466,9.7928639 15.378923,9.4257688 14.661477,8.8736469 13.737295,8.4103059 13.229182,8.1359259 12.817123,8.1981532 9.921875,9.9218724 12.898437,7.9374976 12.696025,7.6813481 9.0799068,5.5033296 8.2954365,5.1772164 6.6145833,3.9687497 7.9738133,4.6115809 8.4516002,4.997124 13.237165,7.8014494 14.015598,7.3439872 16.536458,5.953125 15.248735,5.257274 13.155845,3.8833772 11.715617,3.0867837 11.319146,2.8929745 Z"
       id="path9188"
       sodipodi:nodetypes="ccccccccccccccccccccccccccccccccccccccccccccccc" />
    <path
       style="fill:#4f3f26;fill-opacity:1;stroke:none;stroke-width:0.181148px;stroke-linecap:butt;stroke-linejoin:miter;stroke-opacity:1"
       d="M 3.3072914,5.953125 6.4562254,7.8340768 9.921875,5.953125 6.5976164,7.9357273 9.921875,9.921875 16.536458,13.890625 9.9218758,10.120312 9.6612133,10.150318 9.1630593,10.414621 7.5491451,11.515602 6.6145828,11.906248 9.3224683,10.238234 9.591145,9.9218729 6.5806468,8.1291493 6.1647059,8.147149 3.307289,9.9218721 6.2838515,7.9374974 Z"
       id="path9190"
       sodipodi:nodetypes="cccccccccccccccccc" />
  </g>
</svg>
