<?xml version="1.0" encoding="UTF-8" standalone="no"?>
<svg
   xmlns:dc="http://purl.org/dc/elements/1.1/"
   xmlns:cc="http://creativecommons.org/ns#"
   xmlns:rdf="http://www.w3.org/1999/02/22-rdf-syntax-ns#"
   xmlns:svg="http://www.w3.org/2000/svg"
   xmlns="http://www.w3.org/2000/svg"
   xmlns:sodipodi="http://sodipodi.sourceforge.net/DTD/sodipodi-0.dtd"
   xmlns:inkscape="http://www.inkscape.org/namespaces/inkscape"
   width="100"
   height="80"
   viewBox="0 0 26.458333 21.166667"
   version="1.1"
   id="svg8545"
   inkscape:version="1.0.2-2 (e86c870879, 2021-01-15)"
   sodipodi:docname="Castle_5_Side.svg">
  <defs
     id="defs8539" />
  <sodipodi:namedview
     id="base"
     pagecolor="#ffffff"
     bordercolor="#666666"
     borderopacity="1.0"
     inkscape:pageopacity="0.0"
     inkscape:pageshadow="2"
     inkscape:zoom="5.6568543"
     inkscape:cx="31.499954"
     inkscape:cy="50.227657"
     inkscape:document-units="mm"
     inkscape:current-layer="layer1"
     inkscape:document-rotation="0"
     showgrid="true"
     units="px"
     inkscape:snap-grids="true"
     inkscape:snap-to-guides="false"
     inkscape:window-width="1920"
     inkscape:window-height="1017"
     inkscape:window-x="-8"
     inkscape:window-y="-8"
     inkscape:window-maximized="1">
    <inkscape:grid
       type="xygrid"
       id="grid9108"
       empspacing="10"
       spacingx="0.13229167"
       spacingy="0.13229167" />
  </sodipodi:namedview>
  <metadata
     id="metadata8542">
    <rdf:RDF>
      <cc:Work
         rdf:about="">
        <dc:format>image/svg+xml</dc:format>
        <dc:type
           rdf:resource="http://purl.org/dc/dcmitype/StillImage" />
        <dc:title></dc:title>
      </cc:Work>
    </rdf:RDF>
  </metadata>
  <g
     inkscape:label="Layer 1"
     inkscape:groupmode="layer"
     id="layer1">
    <path
       style="fill:#686759;fill-opacity:1;stroke:none;stroke-width:0.264583px;stroke-linecap:butt;stroke-linejoin:miter;stroke-opacity:1"
       d="m 23.151042,9.9218752 3.307292,-1.984375 v 5.2916668 l -3.307292,1.984375 z"
       id="path4506" />
    <path
       style="fill:#6c6c68;fill-opacity:1;stroke:none;stroke-width:0.264583px;stroke-linecap:butt;stroke-linejoin:miter;stroke-opacity:1"
       d="M 19.84375,11.90625 23.151042,9.9218752 V 15.213542 L 19.84375,17.197917 Z"
       id="path4506-3" />
    <path
       style="fill:#78695a;fill-opacity:1;stroke:none;stroke-width:0.264583px;stroke-linecap:butt;stroke-linejoin:miter;stroke-opacity:1"
       d="m 13.229167,15.875 6.614583,-3.96875 v 5.291667 l -6.614583,3.96875 z"
       id="path4506-4"
       sodipodi:nodetypes="ccccc" />
    <path
       style="fill:#574e49;fill-opacity:1;stroke:none;stroke-width:0.264583px;stroke-linecap:butt;stroke-linejoin:miter;stroke-opacity:1"
       d="m 0,7.9375 6.6145833,3.96875 v 5.291667 L 0,13.229167 Z"
       id="path4506-9"
       sodipodi:nodetypes="ccccc" />
    <path
       style="fill:#6d6d62;fill-opacity:1;stroke:none;stroke-width:0.264583px;stroke-linecap:butt;stroke-linejoin:miter;stroke-opacity:1"
       d="m 6.6145837,11.906251 3.3072915,1.984374 v 5.291667 L 6.6145837,17.197917 Z"
       id="path4506-9-9"
       sodipodi:nodetypes="ccccc" />
    <path
       style="fill:#6d6052;fill-opacity:1;stroke:none;stroke-width:0.264583px;stroke-linecap:butt;stroke-linejoin:miter;stroke-opacity:1"
       d="M 9.921876,13.890624 13.229167,15.875 v 5.291666 L 9.921876,19.182291 Z"
       id="path4506-9-9-6"
       sodipodi:nodetypes="ccccc" />
    <path
       style="fill:#4f3f26;fill-opacity:1;stroke:none;stroke-width:0.264583px;stroke-linecap:butt;stroke-linejoin:miter;stroke-opacity:1"
       d="M 6.6145831,17.197917 6.4822912,16.933333 6.6145831,16.404167 6.4822912,13.096875 6.6145831,11.90625 v 1.190625 l 0.1322922,3.307292 -0.1322922,0.529166 z"
       id="path4608"
       sodipodi:nodetypes="ccccccccc" />
    <path
       style="fill:#4f3f26;fill-opacity:1;stroke:none;stroke-width:0.264583px;stroke-linecap:butt;stroke-linejoin:miter;stroke-opacity:1"
       d="m 9.9218753,13.890625 0.1322907,0.264584 -0.1322907,0.529166 0.1322907,3.307292 10e-7,1.058333 3.175,2.116667 L 9.9218753,19.182292 7.9375003,17.991667 9.9218753,19.05 v -1.058333 -1.455208 l -0.132292,-1.852084 0.132292,-0.529166 z"
       id="path4608-8"
       sodipodi:nodetypes="cccccccccccccc" />
    <path
       style="fill:#4f3f26;fill-opacity:1;stroke:none;stroke-width:0.264583px;stroke-linecap:butt;stroke-linejoin:miter;stroke-opacity:1"
       d="m 19.843749,17.197917 -3.307291,1.984375 3.175,-2.116667 0.132291,-0.661458 -0.132291,-3.307292 0.132291,-1.190625 v 1.190625 l 0.132292,3.307292 -0.132292,0.529166 0.264584,10e-7 2.910418,-1.719792 0.132291,-5.2916666 v 1.4552086 l 0.132292,0.132291 -0.132292,0.396875 v 3.175 l 2.910417,-1.5875 z"
       id="path4608-3"
       sodipodi:nodetypes="cccccccccccccccccc" />
    <path
       style="fill:#4f3f26;fill-opacity:1;stroke:none;stroke-width:0.264583px;stroke-linecap:butt;stroke-linejoin:miter;stroke-opacity:1"
       d="m 0.74787241,13.674459 0.29528199,0.01773 0.3921258,0.37915 2.9303449,1.539078 0.9649662,0.709874 L 4.2994796,15.724979 1.3691343,14.185902 0.97700901,13.806751 Z"
       id="path4608-8-0" />
  </g>
</svg>
