<?xml version="1.0" encoding="UTF-8" standalone="no"?>
<svg
   xmlns:dc="http://purl.org/dc/elements/1.1/"
   xmlns:cc="http://creativecommons.org/ns#"
   xmlns:rdf="http://www.w3.org/1999/02/22-rdf-syntax-ns#"
   xmlns:svg="http://www.w3.org/2000/svg"
   xmlns="http://www.w3.org/2000/svg"
   xmlns:sodipodi="http://sodipodi.sourceforge.net/DTD/sodipodi-0.dtd"
   xmlns:inkscape="http://www.inkscape.org/namespaces/inkscape"
   width="100"
   height="80"
   viewBox="0 0 26.458333 21.166667"
   version="1.1"
   id="svg8545"
   inkscape:version="1.0.2-2 (e86c870879, 2021-01-15)"
   sodipodi:docname="Castle_4_Side.svg">
  <defs
     id="defs8539" />
  <sodipodi:namedview
     id="base"
     pagecolor="#ffffff"
     bordercolor="#666666"
     borderopacity="1.0"
     inkscape:pageopacity="0.0"
     inkscape:pageshadow="2"
     inkscape:zoom="8"
     inkscape:cx="74.437815"
     inkscape:cy="45.945889"
     inkscape:document-units="mm"
     inkscape:current-layer="layer1"
     inkscape:document-rotation="0"
     showgrid="true"
     units="px"
     inkscape:snap-grids="true"
     inkscape:snap-to-guides="false"
     inkscape:window-width="1920"
     inkscape:window-height="1017"
     inkscape:window-x="-8"
     inkscape:window-y="-8"
     inkscape:window-maximized="1">
    <inkscape:grid
       type="xygrid"
       id="grid9108"
       empspacing="10"
       spacingx="0.13229167"
       spacingy="0.13229167" />
  </sodipodi:namedview>
  <metadata
     id="metadata8542">
    <rdf:RDF>
      <cc:Work
         rdf:about="">
        <dc:format>image/svg+xml</dc:format>
        <dc:type
           rdf:resource="http://purl.org/dc/dcmitype/StillImage" />
        <dc:title></dc:title>
      </cc:Work>
    </rdf:RDF>
  </metadata>
  <g
     inkscape:label="Layer 1"
     inkscape:groupmode="layer"
     id="layer1">
    <path
       style="fill:#666666;fill-opacity:1;stroke:none;stroke-width:0.264583px;stroke-linecap:butt;stroke-linejoin:miter;stroke-opacity:1"
       d="m 13.229167,15.875 3.307292,-1.984375 v 5.291667 l -3.307292,1.984375 z"
       id="path4506" />
    <path
       style="fill:#76766a;fill-opacity:1;stroke:none;stroke-width:0.264583px;stroke-linecap:butt;stroke-linejoin:miter;stroke-opacity:1"
       d="M 16.536458,13.890625 19.84375,11.90625 v 5.291667 l -3.307292,1.984375 z"
       id="path4506-3" />
    <path
       style="fill:#686759;fill-opacity:1;stroke:none;stroke-width:0.264583px;stroke-linecap:butt;stroke-linejoin:miter;stroke-opacity:1"
       d="m 19.843751,11.90625 6.614583,-3.9687495 v 5.2916665 l -6.614583,3.96875 z"
       id="path4506-4"
       sodipodi:nodetypes="ccccc" />
    <path
       style="fill:#5f5f5f;fill-opacity:1;stroke:none;stroke-width:0.264583px;stroke-linecap:butt;stroke-linejoin:miter;stroke-opacity:1"
       d="M 6.6145842,11.90625 13.229167,15.875 v 5.291667 l -6.6145828,-3.96875 z"
       id="path4506-9"
       sodipodi:nodetypes="ccccc" />
    <path
       style="fill:#6d6d62;fill-opacity:1;stroke:none;stroke-width:0.264583px;stroke-linecap:butt;stroke-linejoin:miter;stroke-opacity:1"
       d="m 3.3072922,9.9218757 3.307292,1.9843743 v 5.291667 l -3.307292,-1.984375 z"
       id="path4506-9-9"
       sodipodi:nodetypes="ccccc" />
    <path
       style="fill:#574e49;fill-opacity:1;stroke:none;stroke-width:0.264583px;stroke-linecap:butt;stroke-linejoin:miter;stroke-opacity:1"
       d="M 5e-7,7.9375001 3.3072922,9.9218757 V 15.213542 L 5e-7,13.229167 Z"
       id="path4506-9-9-6"
       sodipodi:nodetypes="ccccc" />
    <path
       style="fill:#4f3f26;fill-opacity:1;stroke:none;stroke-width:0.264583px;stroke-linecap:butt;stroke-linejoin:miter;stroke-opacity:1"
       d="M 3.3072915,15.213542 3.1749995,14.948958 3.3072915,14.419792 3.1749995,11.1125 3.3072915,9.9218753 V 11.1125 l 0.132292,3.307292 -0.132292,0.529166 z"
       id="path4608" />
    <path
       style="fill:#4f3f26;fill-opacity:1;stroke:none;stroke-width:0.264583px;stroke-linecap:butt;stroke-linejoin:miter;stroke-opacity:1"
       d="m 6.6145835,11.90625 0.132291,0.264584 -0.132291,0.529166 0.132291,3.307292 1e-6,1.058333 5.1593735,3.307292 -5.2916655,-3.175 -1.984375,-1.190625 1.984375,1.058333 V 16.007292 14.552084 L 6.4822915,12.7 6.6145835,12.170834 Z"
       id="path4608-8"
       sodipodi:nodetypes="cccccccccccccc" />
    <path
       style="fill:#4f3f26;fill-opacity:1;stroke:none;stroke-width:0.264583px;stroke-linecap:butt;stroke-linejoin:miter;stroke-opacity:1"
       d="m 19.843749,17.197917 -3.307291,1.984375 3.175,-2.116667 0.132291,-0.661458 -0.132291,-3.307292 0.132291,-1.190625 v 1.190625 l 0.132292,3.307292 -0.132292,0.529166 0.264584,10e-7 2.910418,-1.719792 0.132291,-5.2916668 0,1.4552088 0.132292,0.132291 -0.132292,0.396875 v 3.175 l 2.910417,-1.5875 z"
       id="path4608-3"
       sodipodi:nodetypes="cccccccccccccccccc" />
    <path
       style="fill:#4f3f26;fill-opacity:1;stroke:none;stroke-width:0.264583px;stroke-linecap:butt;stroke-linejoin:miter;stroke-opacity:1"
       d="m 16.536458,13.890625 0.132291,0.264584 -0.132291,0.529166 0.132291,3.307292 -0.132291,1.190625 v -1.190625 l -0.132292,-3.307292 0.132292,-0.529166 z"
       id="path4608-8-0" />
  </g>
</svg>
