<?xml version="1.0" encoding="UTF-8" standalone="no"?>
<svg
   xmlns:dc="http://purl.org/dc/elements/1.1/"
   xmlns:cc="http://creativecommons.org/ns#"
   xmlns:rdf="http://www.w3.org/1999/02/22-rdf-syntax-ns#"
   xmlns:svg="http://www.w3.org/2000/svg"
   xmlns="http://www.w3.org/2000/svg"
   xmlns:sodipodi="http://sodipodi.sourceforge.net/DTD/sodipodi-0.dtd"
   xmlns:inkscape="http://www.inkscape.org/namespaces/inkscape"
   width="100"
   height="80"
   viewBox="0 0 26.458333 21.166667"
   version="1.1"
   id="svg8545"
   inkscape:version="1.0.2-2 (e86c870879, 2021-01-15)"
   sodipodi:docname="Castle_5.svg">
  <defs
     id="defs8539" />
  <sodipodi:namedview
     id="base"
     pagecolor="#ffffff"
     bordercolor="#666666"
     borderopacity="1.0"
     inkscape:pageopacity="0.0"
     inkscape:pageshadow="2"
     inkscape:zoom="5.6568543"
     inkscape:cx="31.499954"
     inkscape:cy="50.227657"
     inkscape:document-units="mm"
     inkscape:current-layer="layer1"
     inkscape:document-rotation="0"
     showgrid="true"
     units="px"
     inkscape:snap-grids="true"
     inkscape:snap-to-guides="false"
     inkscape:window-width="1920"
     inkscape:window-height="1017"
     inkscape:window-x="-8"
     inkscape:window-y="-8"
     inkscape:window-maximized="1">
    <inkscape:grid
       type="xygrid"
       id="grid9108"
       empspacing="10"
       spacingx="0.13229167"
       spacingy="0.13229167" />
  </sodipodi:namedview>
  <metadata
     id="metadata8542">
    <rdf:RDF>
      <cc:Work
         rdf:about="">
        <dc:format>image/svg+xml</dc:format>
        <dc:type
           rdf:resource="http://purl.org/dc/dcmitype/StillImage" />
        <dc:title></dc:title>
      </cc:Work>
    </rdf:RDF>
  </metadata>
  <g
     inkscape:label="Layer 1"
     inkscape:groupmode="layer"
     id="layer1">
    <path
       style="fill:#6a6a6a;fill-opacity:1;stroke:none;stroke-width:0.181148px;stroke-linecap:butt;stroke-linejoin:miter;stroke-opacity:1"
       d="M 13.229166,2.77217e-8 6.6145831,3.968751 9.921875,5.9531253 16.536459,1.984377 Z"
       id="path9110"
       sodipodi:nodetypes="ccccc" />
    <path
       style="fill:#838376;fill-opacity:1;stroke:none;stroke-width:0.181148px;stroke-linecap:butt;stroke-linejoin:miter;stroke-opacity:1"
       d="M 16.536459,1.984377 9.921875,5.9531253 13.229167,7.9375007 19.84375,3.968751 Z"
       id="path9110-8"
       sodipodi:nodetypes="ccccc" />
    <path
       style="fill:#727162;fill-opacity:1;stroke:none;stroke-width:0.181148px;stroke-linecap:butt;stroke-linejoin:miter;stroke-opacity:1"
       d="M 26.458334,7.9375004 19.84375,3.968751 16.536459,5.9531255 23.151042,9.9218757 Z"
       id="path9110-4"
       sodipodi:nodetypes="ccccc" />
    <path
       style="fill:#747470;fill-opacity:1;stroke:none;stroke-width:0.181148px;stroke-linecap:butt;stroke-linejoin:miter;stroke-opacity:1"
       d="M 23.151042,9.9218757 16.536459,5.9531255 13.229167,7.9375007 19.84375,11.906251 Z"
       id="path9110-8-5"
       sodipodi:nodetypes="ccccc" />
    <path
       style="fill:#817161;fill-opacity:1;stroke:none;stroke-width:0.181148px;stroke-linecap:butt;stroke-linejoin:miter;stroke-opacity:1"
       d="M 13.229166,15.875001 19.843749,11.906251 16.536458,9.9218756 9.9218749,13.890626 Z"
       id="path9110-3"
       sodipodi:nodetypes="ccccc" />
    <path
       style="fill:#838376;fill-opacity:1;stroke:none;stroke-width:0.181148px;stroke-linecap:butt;stroke-linejoin:miter;stroke-opacity:1"
       d="M 9.9218749,13.890626 16.536458,9.9218756 13.229166,7.9375014 6.6145818,11.906251 Z"
       id="path9110-8-1"
       sodipodi:nodetypes="ccccc" />
    <path
       style="fill:#625752;fill-opacity:1;stroke:none;stroke-width:0.181148px;stroke-linecap:butt;stroke-linejoin:miter;stroke-opacity:1"
       d="M -8.6149254e-8,7.9375019 6.6145818,11.906251 9.9218758,9.9218758 3.307291,5.953127 Z"
       id="path9110-4-1"
       sodipodi:nodetypes="ccccc" />
    <path
       style="fill:#898070;fill-opacity:1;stroke:none;stroke-width:0.181148px;stroke-linecap:butt;stroke-linejoin:miter;stroke-opacity:1"
       d="M 3.307291,5.953127 9.9218758,9.9218758 13.229166,7.9375014 6.6145824,3.968752 Z"
       id="path9110-8-5-0"
       sodipodi:nodetypes="ccccc" />
    <path
       style="fill:#4f3f26;fill-opacity:1;stroke:none;stroke-width:0.181148;stroke-linecap:butt;stroke-linejoin:miter;stroke-miterlimit:4;stroke-dasharray:none;stroke-opacity:1"
       d="M 16.536459,1.984377 15.020294,2.744451 14.302866,3.235685 9.9218757,5.754689 9.3591446,5.575108 8.1591928,4.885304 7.3258774,4.29026 6.6145831,3.968751 7.0816844,4.448297 7.9283776,4.812136 9.7564799,6.0523762 11.448116,6.9905749 12.898406,7.9375333 12.680687,8.2611202 11.114232,9.0102102 10.054018,9.7650041 5.3586928,7.1121953 3.6879147,6.0609672 3.307262,5.9531605 l 0.2559451,0.2399489 2.0555587,1.1469548 4.303107,2.5818176 -3.3072929,1.9843762 0.3933959,-0.05185 0.263678,-0.244993 3.0352142,-1.8165535 0.772543,-0.3670949 0.717445,-0.5521221 0.924183,-0.463341 0.508112,-0.2743799 0.41206,0.062229 2.895248,1.7237191 -2.976562,-1.984375 0.202411,-0.2561488 3.616119,-2.1780194 0.78447,-0.326113 1.680853,-1.208467 -1.35923,0.642831 -0.477787,0.385544 -4.785565,2.8043242 -0.778432,-0.4574611 -2.5208617,-1.3908627 1.2877237,-0.6958504 2.09289,-1.373896 1.440228,-0.796594 0.396471,-0.193809 z"
       id="path9188"
       sodipodi:nodetypes="ccccccccccccccccccccccccccccccccccccccccccccccc" />
    <path
       style="fill:#4f3f26;fill-opacity:1;stroke:none;stroke-width:0.181148px;stroke-linecap:butt;stroke-linejoin:miter;stroke-opacity:1"
       d="m 23.151042,5.953126 -3.148934,1.8809516 -3.465649,-1.8809521 3.324258,1.9826034 -3.324259,1.9861472 -6.6145822,3.9687499 6.6145822,-3.770313 0.260662,0.03001 0.498154,0.264303 1.613915,1.100981 0.934561,0.390646 -2.707885,-1.668014 -0.268675,-0.3163625 3.010498,-1.7927235 0.415941,0.018 2.857417,1.7747232 -2.976563,-1.9843742 z"
       id="path9190"
       sodipodi:nodetypes="cccccccccccccccccc" />
  </g>
</svg>
