<?xml version="1.0" encoding="UTF-8" standalone="no"?>
<svg
   xmlns:dc="http://purl.org/dc/elements/1.1/"
   xmlns:cc="http://creativecommons.org/ns#"
   xmlns:rdf="http://www.w3.org/1999/02/22-rdf-syntax-ns#"
   xmlns:svg="http://www.w3.org/2000/svg"
   xmlns="http://www.w3.org/2000/svg"
   xmlns:sodipodi="http://sodipodi.sourceforge.net/DTD/sodipodi-0.dtd"
   xmlns:inkscape="http://www.inkscape.org/namespaces/inkscape"
   width="100"
   height="80"
   viewBox="0 0 26.458333 21.166666"
   version="1.1"
   id="svg8"
   sodipodi:docname="Cliffside_1_Stone.svg"
   inkscape:version="1.0.2-2 (e86c870879, 2021-01-15)">
  <defs
     id="defs2" />
  <sodipodi:namedview
     id="base"
     pagecolor="#ffffff"
     bordercolor="#666666"
     borderopacity="1.0"
     inkscape:pageopacity="0.0"
     inkscape:pageshadow="2"
     inkscape:zoom="30.556935"
     inkscape:cx="20.29751"
     inkscape:cy="42.503785"
     inkscape:document-units="mm"
     inkscape:current-layer="layer1"
     inkscape:document-rotation="0"
     showgrid="true"
     showguides="true"
     inkscape:guide-bbox="true"
     inkscape:window-width="1920"
     inkscape:window-height="1017"
     inkscape:window-x="-8"
     inkscape:window-y="-8"
     inkscape:window-maximized="1"
     units="px">
    <inkscape:grid
       type="xygrid"
       id="grid1942"
       units="px"
       dotted="false"
       spacingx="0.26458333"
       spacingy="0.26458333"
       empspacing="10"
       visible="true" />
  </sodipodi:namedview>
  <metadata
     id="metadata5">
    <rdf:RDF>
      <cc:Work
         rdf:about="">
        <dc:format>image/svg+xml</dc:format>
        <dc:type
           rdf:resource="http://purl.org/dc/dcmitype/StillImage" />
        <dc:title></dc:title>
      </cc:Work>
    </rdf:RDF>
  </metadata>
  <g
     inkscape:label="Layer 1"
     inkscape:groupmode="layer"
     id="layer1">
    <path
       style="mix-blend-mode:normal;fill:#656565;fill-opacity:1;stroke:#050505;stroke-width:0;stroke-linecap:butt;stroke-linejoin:bevel;stroke-miterlimit:4;stroke-dasharray:none;stroke-opacity:1"
       d="M 0.01427064,7.9375004 V 13.229167 L 13.204799,21.166666 V 15.875 Z"
       id="path1962"
       sodipodi:nodetypes="ccccc" />
    <rect
       style="mix-blend-mode:normal;fill:#585858;fill-opacity:1;fill-rule:evenodd;stroke:#050505;stroke-width:0;stroke-linejoin:bevel;stroke-miterlimit:4;stroke-dasharray:none;stroke-opacity:1;paint-order:stroke markers fill"
       id="rect2163-7"
       width="15.357525"
       height="5.4081573"
       x="15.357563"
       y="23.537949"
       transform="matrix(0.86141115,-0.50790829,0,1,0,0)" />
    <path
       style="mix-blend-mode:normal;fill:#6e6e6e;fill-opacity:1;stroke:#050505;stroke-width:0;stroke-linecap:butt;stroke-linejoin:miter;stroke-miterlimit:4;stroke-dasharray:none;stroke-opacity:1"
       d="m 13.493761,17.474564 c 0.459354,0.503423 0.934342,0.925213 1.587498,0.416012 l 1.852079,-1.092035 c 0.318962,-0.450212 0.656138,-1.012624 1.058328,-1.976055 l -1.587491,-0.956824 -2.910414,1.716047 z"
       id="path1971-2"
       sodipodi:nodetypes="ccccccc" />
    <path
       style="mix-blend-mode:normal;fill:#6e6e6e;fill-opacity:1;stroke:#050505;stroke-width:0;stroke-linecap:butt;stroke-linejoin:miter;stroke-miterlimit:4;stroke-dasharray:none;stroke-opacity:1"
       d="m 18.256254,14.936895 1.587497,0.956829 2.645824,-1.560041 1.322915,-1.861653 -0.793743,-0.343214 V 9.9655522 L 19.579168,11.99361 v 1.081636 c -0.364538,0.706279 -0.847929,1.279253 -1.322914,1.861649 z"
       id="path1973-2"
       sodipodi:nodetypes="ccccccccc" />
    <path
       style="mix-blend-mode:normal;fill:#6e6e6e;fill-opacity:1;stroke:#050505;stroke-width:0;stroke-linecap:butt;stroke-linejoin:miter;stroke-miterlimit:4;stroke-dasharray:none;stroke-opacity:1"
       d="m 16.668757,13.709657 1.322913,0.842424 c 0.300446,-0.289867 0.601212,-0.580924 1.058326,-1.435241 l 0.264591,-0.967235 -1.587496,0.665623 z"
       id="path1975-5"
       sodipodi:nodetypes="cccccc" />
    <path
       style="mix-blend-mode:normal;fill:#6e6e6e;fill-opacity:1;stroke:#050505;stroke-width:0;stroke-linecap:butt;stroke-linejoin:miter;stroke-miterlimit:4;stroke-dasharray:none;stroke-opacity:1"
       d="m 23.547906,9.6535477 1.587499,-1.2064336 1.322913,-0.5096134 v 2.1632633 l -0.529167,0.852824 -1.852077,1.092029 c -0.171361,0.0093 -0.347199,-0.138156 -0.52917,-0.499212 z"
       id="path1977-8"
       sodipodi:nodetypes="cccccccc" />
    <path
       style="mix-blend-mode:normal;fill:#6e6e6e;fill-opacity:1;stroke:#050505;stroke-width:0;stroke-linecap:butt;stroke-linejoin:miter;stroke-miterlimit:4;stroke-dasharray:none;stroke-opacity:1"
       d="m 13.229179,17.900976 1.322913,0.842424 -0.793752,1.279241 -0.529168,1.123232 -0.264588,-2.007257 z"
       id="path1979-7"
       sodipodi:nodetypes="cccccc" />
    <path
       style="mix-blend-mode:normal;fill:#6e6e6e;fill-opacity:1;stroke:#050505;stroke-width:0;stroke-linecap:butt;stroke-linejoin:miter;stroke-miterlimit:4;stroke-dasharray:none;stroke-opacity:1"
       d="m 14.816675,18.587397 c 1.348593,-0.701812 2.114509,-1.252734 2.381246,-1.674441 l 0.79376,-0.738435 c 0.536631,-0.713324 1.059301,-0.0012 1.587497,0.1456 l -0.264594,1.23765 -2.381247,1.404038 -0.264587,-0.384806 v 0.540813 l -3.174995,1.872053 z"
       id="path1981-7"
       sodipodi:nodetypes="cccccccccc" />
    <path
       style="mix-blend-mode:normal;fill:#6e6e6e;fill-opacity:1;stroke:#050505;stroke-width:0;stroke-linecap:butt;stroke-linejoin:miter;stroke-miterlimit:4;stroke-dasharray:none;stroke-opacity:1"
       d="m 22.489575,14.60409 0.793748,0.07278 8e-6,0.540812 1.587492,-0.66559 1.587498,-1.206427 0.264588,-2.319278 -0.264588,-0.384809 -0.793745,1.549649 c -0.147676,0.405578 -0.645136,0.824857 -1.058325,1.164832 l -0.52918,-0.769624 z"
       id="path1983-91"
       sodipodi:nodetypes="ccccccccccc" />
    <path
       style="mix-blend-mode:normal;fill:#6e6e6e;fill-opacity:1;stroke:#050505;stroke-width:0;stroke-linecap:butt;stroke-linejoin:miter;stroke-miterlimit:4;stroke-dasharray:none;stroke-opacity:1"
       d="m 19.579168,17.401766 1.322915,-0.509607 1.852076,-1.36244 -0.529165,-0.228809 -0.264591,-0.384807 -2.116659,1.518445 z"
       id="path1987-0" />
    <path
       style="mix-blend-mode:normal;fill:#6e6e6e;fill-opacity:1;stroke:#050505;stroke-width:0;stroke-linecap:butt;stroke-linejoin:miter;stroke-miterlimit:4;stroke-dasharray:none;stroke-opacity:1"
       d="m 24.341656,12.430429 0.529168,0.228811 c 0.491896,-0.422401 0.764157,-0.933224 1.058338,-1.435241 l -1.058338,0.624013 z"
       id="path1989-4"
       sodipodi:nodetypes="ccccc" />
    <path
       style="mix-blend-mode:normal;fill:#777777;fill-opacity:1;stroke:#050505;stroke-width:0;stroke-linecap:butt;stroke-linejoin:miter;stroke-miterlimit:4;stroke-dasharray:none;stroke-opacity:1"
       d="m 14.816674,18.587397 c 1.348593,-0.701812 2.114508,-1.252733 2.381247,-1.67444 l 0.793759,-0.738435 c 0.536631,-0.713324 1.059301,-0.0012 1.587497,0.145611 l -0.793759,1.008835 -1.587497,1.206434 -0.529169,-0.228812 -1.058326,0.894424 -1.852081,1.362437 z"
       id="path1981-0-5"
       sodipodi:nodetypes="cccccccccc" />
    <path
       style="mix-blend-mode:normal;fill:#777777;fill-opacity:1;stroke:#050505;stroke-width:0;stroke-linecap:butt;stroke-linejoin:miter;stroke-miterlimit:4;stroke-dasharray:none;stroke-opacity:1"
       d="m 18.785418,14.895295 1.058326,0.728024 1.587497,-1.206439 0.79376,-0.1976 0.529168,-1.393639 -0.264589,-0.655224 0.264589,-2.048862 -3.174993,1.872052 0.529169,1.040035 c -0.364527,0.706279 -0.84793,1.279254 -1.322927,1.861653 z"
       id="path1973-0-3"
       sodipodi:nodetypes="cccccccccc" />
    <path
       style="mix-blend-mode:normal;fill:#777777;fill-opacity:1;stroke:#050505;stroke-width:0;stroke-linecap:butt;stroke-linejoin:miter;stroke-miterlimit:4;stroke-dasharray:none;stroke-opacity:1"
       d="m 17.197921,13.668058 0.793759,0.07278 c 0.300445,-0.289867 0.336621,0.1159 0.793758,-0.738424 V 12.732 l -1.058316,0.08322 z"
       id="path1975-7-5"
       sodipodi:nodetypes="cccccc" />
    <path
       style="mix-blend-mode:normal;fill:#777777;fill-opacity:1;stroke:#050505;stroke-width:0;stroke-linecap:butt;stroke-linejoin:miter;stroke-miterlimit:4;stroke-dasharray:none;stroke-opacity:1"
       d="m 14.022927,17.432963 c 0.459354,0.503423 1.198925,-0.042 1.85208,-0.551212 l 1.058325,-0.624012 c 0.318972,-0.450212 0.656137,-0.471801 1.058327,-1.435241 -1.35749,0.573779 -1.305098,-0.371934 -1.587495,-0.956835 l -2.64582,1.830449 z"
       id="path1971-1-8"
       sodipodi:nodetypes="ccccccc" />
    <path
       style="mix-blend-mode:normal;fill:#777777;fill-opacity:1;stroke:#050505;stroke-width:0;stroke-linecap:butt;stroke-linejoin:miter;stroke-miterlimit:4;stroke-dasharray:none;stroke-opacity:1"
       d="m 13.229179,18.44179 1.322913,0.301612 -0.793752,0.738424 -0.529168,0.852824 -0.264588,-1.196033 z"
       id="path1979-4-9"
       sodipodi:nodetypes="cccccc" />
    <path
       style="mix-blend-mode:normal;fill:#777777;fill-opacity:1;stroke:#050505;stroke-width:0;stroke-linecap:butt;stroke-linejoin:miter;stroke-miterlimit:4;stroke-dasharray:none;stroke-opacity:1"
       d="m 23.812492,9.7679502 1.322915,-1.0504289 1.058331,-0.0832 -1.587497,1.2064335 1.322912,-0.7800216 0.26459,0.9256241 -0.26459,0.9672317 -1.587495,0.395209 c -0.17136,0.0093 -0.347199,0.132256 -0.529169,-0.228811 z"
       id="path1977-4-3"
       sodipodi:nodetypes="cccccccccc" />
    <path
       style="mix-blend-mode:normal;fill:#777777;fill-opacity:1;stroke:#050505;stroke-width:0;stroke-linecap:butt;stroke-linejoin:miter;stroke-miterlimit:4;stroke-dasharray:none;stroke-opacity:1"
       d="m 23.018743,14.292082 0.79376,-0.197601 v 0.540813 L 25.4,13.969681 l 1.058326,-1.435245 0.26459,-1.508056 -0.26459,0.156016 -0.793749,1.008825 c -0.147676,0.405575 -0.909725,1.251262 -1.32292,1.591242 l -0.264591,-0.925625 z"
       id="path1983-9-0"
       sodipodi:nodetypes="ccccccccccc" />
    <path
       style="mix-blend-mode:normal;fill:#777777;fill-opacity:1;stroke:#050505;stroke-width:0;stroke-linecap:butt;stroke-linejoin:miter;stroke-miterlimit:4;stroke-dasharray:none;stroke-opacity:1"
       d="m 19.579171,17.401765 1.322914,-0.509612 1.587492,-1.206436 -0.529168,0.04156 -0.793759,0.197611 -1.058326,0.624013 z"
       id="path1987-2-4"
       sodipodi:nodetypes="ccccccc" />
    <path
       style="mix-blend-mode:normal;fill:#777777;fill-opacity:1;stroke:#050505;stroke-width:0;stroke-linecap:butt;stroke-linejoin:miter;stroke-miterlimit:4;stroke-dasharray:none;stroke-opacity:1"
       d="m 24.341658,12.430428 0.793758,-0.468013 c 0.491896,-0.4224 0.499567,-0.236411 0.793759,-0.738434 l -1.058337,0.624012 z"
       id="path1989-7-9"
       sodipodi:nodetypes="ccccc" />
    <path
       style="mix-blend-mode:normal;fill:#6a6a6a;fill-opacity:1;stroke:#050505;stroke-width:0;stroke-linecap:butt;stroke-linejoin:miter;stroke-miterlimit:4;stroke-dasharray:none;stroke-opacity:1"
       d="m 18.785419,14.895294 1.322916,0.301612 1.322912,-1.050436 0.793749,0.07278 0.793758,-1.279241 v -0.270411 l 0.529169,-0.04156 -1.058327,1.435241 -1.587496,0.936023 -1.322914,0.509624 z"
       id="path2143-4" />
    <path
       style="mix-blend-mode:normal;fill:#6a6a6a;fill-opacity:1;stroke:#050505;stroke-width:0;stroke-linecap:butt;stroke-linejoin:miter;stroke-miterlimit:4;stroke-dasharray:none;stroke-opacity:1"
       d="m 14.022927,20.40745 2.381248,-1.674448 0.264587,-0.426412 z"
       id="path2145-6" />
    <path
       style="mix-blend-mode:normal;fill:#6a6a6a;fill-opacity:1;stroke:#050505;stroke-width:0;stroke-linecap:butt;stroke-linejoin:miter;stroke-miterlimit:4;stroke-dasharray:none;stroke-opacity:1"
       d="m 17.462505,15.675316 -0.529167,0.852824 -1.587497,1.206432 -1.322914,0.239211 -0.264587,-0.655213 0.264587,-0.696822 1.587498,-1.206434 -0.529166,0.852824 -0.793755,0.468012 -0.264588,0.696823 1.322913,-0.2392 1.322917,-1.050435 z"
       id="path2147-3" />
    <path
       style="mix-blend-mode:normal;fill:#6a6a6a;fill-opacity:1;stroke:#050505;stroke-width:0;stroke-linecap:butt;stroke-linejoin:miter;stroke-miterlimit:4;stroke-dasharray:none;stroke-opacity:1"
       d="m 17.197921,13.668057 0.79376,0.07278 0.529158,-0.312001 0.264589,-0.426412 -0.264589,0.696824 -0.52917,0.582423 L 17.4625,14.05286 Z"
       id="path2149-7" />
    <path
       style="mix-blend-mode:normal;fill:#6a6a6a;fill-opacity:1;stroke:#050505;stroke-width:0;stroke-linecap:butt;stroke-linejoin:miter;stroke-miterlimit:4;stroke-dasharray:none;stroke-opacity:1"
       d="m 17.197921,18.535397 1.587498,-1.20644 0.529169,-0.582422 -0.264591,0.696822 z"
       id="path2151-6" />
    <path
       style="mix-blend-mode:normal;fill:#6a6a6a;fill-opacity:1;stroke:#050505;stroke-width:0;stroke-linecap:butt;stroke-linejoin:miter;stroke-miterlimit:4;stroke-dasharray:none;stroke-opacity:1"
       d="m 23.81249,10.849583 0.529169,0.499215 1.322913,-0.509614 0.52917,-0.582416 -0.52917,0.852824 -1.587494,0.665617 -0.264592,-0.384812 z"
       id="path2153-2" />
    <path
       style="mix-blend-mode:normal;fill:#6a6a6a;fill-opacity:1;stroke:#050505;stroke-width:0;stroke-linecap:butt;stroke-linejoin:miter;stroke-miterlimit:4;stroke-dasharray:none;stroke-opacity:1"
       d="m 23.018741,14.292082 0.793748,-0.1976 v 0.540812 l 2.116662,-1.518447 0.264591,-0.426423 -2.645829,2.371272 -0.26459,-0.655224 z"
       id="path2155-6" />
    <path
       style="mix-blend-mode:normal;fill:#6a6a6a;fill-opacity:1;stroke:#050505;stroke-width:0;stroke-linecap:butt;stroke-linejoin:miter;stroke-miterlimit:4;stroke-dasharray:none;stroke-opacity:1"
       d="m 19.843751,16.975355 0.26459,-0.696824 1.587495,-0.936024 0.52917,0.228812 -1.058327,0.3536 z"
       id="path2157-4" />
    <path
       style="mix-blend-mode:normal;fill:#6a6a6a;fill-opacity:1;stroke:#050505;stroke-width:0;stroke-linecap:butt;stroke-linejoin:miter;stroke-miterlimit:4;stroke-dasharray:none;stroke-opacity:1"
       d="m 13.229179,20.605054 0.529169,-0.852824 0.529169,-0.852824 -0.79376,0.738435 z"
       id="path2159-5" />
    <path
       style="mix-blend-mode:normal;fill:#6a6a6a;fill-opacity:1;stroke:#050505;stroke-width:0;stroke-linecap:butt;stroke-linejoin:miter;stroke-miterlimit:4;stroke-dasharray:none;stroke-opacity:1"
       d="m 22.489575,11.359196 -0.529169,0.852824 -0.529168,0.04156 -1.058326,0.894425 -0.264592,0.696823 1.058329,-1.164833 1.058325,-0.08322 0.264591,-0.967236 z"
       id="path2161-1" />
    <rect
       style="mix-blend-mode:normal;fill:#675537;fill-opacity:1;fill-rule:evenodd;stroke:#050505;stroke-width:0;stroke-linejoin:bevel;stroke-miterlimit:4;stroke-dasharray:none;stroke-opacity:1;paint-order:stroke markers fill"
       id="rect2328"
       width="1.0444301e-14"
       height="2.7040784"
       x="21.166664"
       y="11.837608" />
    <rect
       style="mix-blend-mode:normal;fill:#444444;fill-opacity:1;fill-rule:evenodd;stroke:#050505;stroke-width:0;stroke-linejoin:bevel;stroke-miterlimit:4;stroke-dasharray:none;stroke-opacity:1;paint-order:stroke markers fill"
       id="rect2163-2"
       width="15.239418"
       height="5.2916665"
       x="0.15195851"
       y="7.8613968"
       transform="matrix(0.86555174,0.50081951,0,1,0,0)" />
    <path
       style="mix-blend-mode:normal;fill:#5e5e5e;fill-opacity:1;stroke:#050505;stroke-width:0;stroke-linecap:butt;stroke-linejoin:miter;stroke-miterlimit:4;stroke-dasharray:none;stroke-opacity:1"
       d="M 0.39534018,9.9422287 C 0.85335331,10.964832 1.3269541,11.925598 1.978201,12.181009 l 1.8466722,1.068514 c 0.318035,-0.07245 0.6542157,-0.233734 1.05524,-0.712346 L 3.2972529,9.76923 0.39534018,8.0901454 Z"
       id="path1971-7"
       sodipodi:nodetypes="ccccccc" />
    <path
       style="mix-blend-mode:normal;fill:#5e5e5e;fill-opacity:1;stroke:#050505;stroke-width:0;stroke-linecap:butt;stroke-linejoin:miter;stroke-miterlimit:4;stroke-dasharray:none;stroke-opacity:1"
       d="m 5.1439239,12.954404 1.5828608,2.767947 2.6380981,1.526438 1.3190502,-0.295111 -0.7914246,-1.251679 V 13.585332 L 6.4629746,11.600958 v 1.058336 c -0.3634677,0.270445 -0.8454558,0.273311 -1.3190507,0.29511 z"
       id="path1973-4"
       sodipodi:nodetypes="ccccccccc" />
    <path
       style="mix-blend-mode:normal;fill:#5e5e5e;fill-opacity:1;stroke:#050505;stroke-width:0;stroke-linecap:butt;stroke-linejoin:miter;stroke-miterlimit:4;stroke-dasharray:none;stroke-opacity:1"
       d="m 3.5610629,9.9218739 1.3190507,2.3507211 c 0.2995668,0.063 0.5994541,0.125299 1.0552413,-0.183178 L 6.1991699,11.448318 4.616309,10.26787 Z"
       id="path1975-79"
       sodipodi:nodetypes="cccccc" />
    <path
       style="mix-blend-mode:normal;fill:#5e5e5e;fill-opacity:1;stroke:#050505;stroke-width:0;stroke-linecap:butt;stroke-linejoin:miter;stroke-miterlimit:4;stroke-dasharray:none;stroke-opacity:1"
       d="m 10.420124,13.890616 1.58286,0.651279 1.319049,1.027802 v 2.116663 l -0.527619,0.22389 -1.846671,-1.068514 c -0.170854,-0.188624 -0.346185,-0.535792 -0.527619,-1.099037 z"
       id="path1977-46"
       sodipodi:nodetypes="cccccccc" />
    <path
       style="mix-blend-mode:normal;fill:#6e6e6e;fill-opacity:1;stroke:#050505;stroke-width:0;stroke-linecap:butt;stroke-linejoin:miter;stroke-miterlimit:4;stroke-dasharray:none;stroke-opacity:1"
       d="M 0.13153007,10.054169 1.4505807,12.404888 0.65914477,12.740704 0.13152453,13.229166 -0.13229114,10.959851 Z"
       id="path1979-2"
       sodipodi:nodetypes="cccccc" />
    <path
       style="mix-blend-mode:normal;fill:#5e5e5e;fill-opacity:1;stroke:#050505;stroke-width:0;stroke-linecap:butt;stroke-linejoin:miter;stroke-miterlimit:4;stroke-dasharray:none;stroke-opacity:1"
       d="m 1.714391,12.557532 c 1.3446532,0.869369 2.108333,1.214068 2.3742923,1.109225 l 0.791436,0.193345 c 0.5350648,-0.07878 1.056205,1.221077 1.582861,1.974197 L 6.1991642,16.739985 3.8248718,15.366189 3.5610557,14.684378 v 0.529166 L 0.39533465,13.381811 Z"
       id="path1981-6"
       sodipodi:nodetypes="cccccccccc" />
    <path
       style="mix-blend-mode:normal;fill:#5e5e5e;fill-opacity:1;stroke:#050505;stroke-width:0;stroke-linecap:butt;stroke-linejoin:miter;stroke-miterlimit:4;stroke-dasharray:none;stroke-opacity:1"
       d="m 9.469814,17.513372 0.779285,0.987102 7e-6,0.529168 1.558581,1.180443 1.558578,0.65129 0.259768,-1.964027 -0.259768,-0.681813 -0.779287,0.600413 c -0.144986,0.226445 -0.633391,0.06267 -1.039053,-0.08144 L 11.02839,17.370894 Z"
       id="path1983-93"
       sodipodi:nodetypes="ccccccccccc" />
    <path
       style="mix-blend-mode:normal;fill:#5e5e5e;fill-opacity:1;stroke:#050505;stroke-width:0;stroke-linecap:butt;stroke-linejoin:miter;stroke-miterlimit:4;stroke-dasharray:none;stroke-opacity:1"
       d="m 6.4629746,16.892625 1.3190507,1.02781 1.8466675,0.803912 L 9.101073,17.88989 8.8372567,17.20808 6.726779,16.251513 Z"
       id="path1987-01" />
    <path
       style="mix-blend-mode:normal;fill:#6e6e6e;fill-opacity:1;stroke:#050505;stroke-width:0;stroke-linecap:butt;stroke-linejoin:miter;stroke-miterlimit:4;stroke-dasharray:none;stroke-opacity:1"
       d="m 11.211554,17.523548 0.527619,0.834457 c 0.490464,0.154278 0.761925,-0.03144 1.055243,-0.183178 l -1.055243,-0.610579 z"
       id="path1989-41"
       sodipodi:nodetypes="ccccc" />
    <path
       style="mix-blend-mode:normal;fill:#6a6a6a;fill-opacity:1;stroke:#050505;stroke-width:0;stroke-linecap:butt;stroke-linejoin:miter;stroke-miterlimit:4;stroke-dasharray:none;stroke-opacity:1"
       d="m 1.7143899,12.557531 c 1.3446532,0.869369 2.108333,1.214068 2.3742923,1.109225 l 0.791436,0.193344 c 0.5350649,-0.07878 1.0562041,1.221079 1.5828611,1.974198 L 5.671543,15.905526 4.0886822,15.254246 3.5610619,14.419792 2.5058214,14.073798 0.65915032,13.269874 Z"
       id="path1981-0-1"
       sodipodi:nodetypes="cccccccccc" />
    <path
       style="mix-blend-mode:normal;fill:#6a6a6a;fill-opacity:1;stroke:#050505;stroke-width:0;stroke-linecap:butt;stroke-linejoin:miter;stroke-miterlimit:4;stroke-dasharray:none;stroke-opacity:1"
       d="m 5.671543,13.524275 1.0552402,1.933494 1.5828607,0.651277 0.7914362,0.722523 L 9.6287,16.078525 9.3648841,15.132124 9.6287,13.432687 6.4629784,11.60096 l 0.52762,1.628205 C 6.6271309,13.49961 6.1451427,13.502476 5.671543,13.524275 Z"
       id="path1973-0-5"
       sodipodi:nodetypes="cccccccccc" />
    <path
       style="mix-blend-mode:normal;fill:#777777;fill-opacity:1;stroke:#050505;stroke-width:0;stroke-linecap:butt;stroke-linejoin:miter;stroke-miterlimit:4;stroke-dasharray:none;stroke-opacity:1"
       d="m 4.0886822,10.491745 0.791436,0.987103 c 0.2995669,0.063 0.3356392,0.501824 0.7914362,0.193356 V 11.407615 L 4.6163246,10.267879 Z"
       id="path1975-7-2"
       sodipodi:nodetypes="cccccc" />
    <path
       style="mix-blend-mode:normal;fill:#6a6a6a;fill-opacity:1;stroke:#050505;stroke-width:0;stroke-linecap:butt;stroke-linejoin:miter;stroke-miterlimit:4;stroke-dasharray:none;stroke-opacity:1"
       d="m 0.92296048,10.512101 c 0.45801302,1.022602 1.19542412,1.342263 1.84667092,1.597675 l 1.0552401,0.610579 c 0.3180351,-0.07245 0.6542158,0.295434 1.05524,-0.183178 C 3.5265862,11.532256 3.5788252,10.667369 3.2972517,9.769229 L 0.65915032,8.5073724 Z"
       id="path1971-1-1"
       sodipodi:nodetypes="ccccccc" />
    <path
       style="mix-blend-mode:normal;fill:#777777;fill-opacity:1;stroke:#050505;stroke-width:0;stroke-linecap:butt;stroke-linejoin:miter;stroke-miterlimit:4;stroke-dasharray:none;stroke-opacity:1"
       d="M 0.13153007,10.583335 1.4505807,12.404888 0.65914477,12.211542 0.13152453,12.43542 -0.13229114,10.959857 Z"
       id="path1979-4-5"
       sodipodi:nodetypes="cccccc" />
    <path
       style="mix-blend-mode:normal;fill:#6a6a6a;fill-opacity:1;stroke:#050505;stroke-width:0;stroke-linecap:butt;stroke-linejoin:miter;stroke-miterlimit:4;stroke-dasharray:none;stroke-opacity:1"
       d="m 10.683935,14.307845 1.319051,0.498634 1.055241,1.139742 -1.582861,-0.651279 1.31905,0.763224 0.263817,1.210979 -0.263817,0.641101 -1.58286,-1.44503 C 11.0407,16.276593 10.86537,16.194004 10.683935,15.630759 Z"
       id="path1977-4-2"
       sodipodi:nodetypes="cccccccccc" />
    <path
       style="mix-blend-mode:normal;fill:#6a6a6a;fill-opacity:1;stroke:#050505;stroke-width:0;stroke-linecap:butt;stroke-linejoin:miter;stroke-miterlimit:4;stroke-dasharray:none;stroke-opacity:1"
       d="m 9.9893426,17.818663 0.7792954,0.722523 v 0.529168 l 1.55858,1.180454 1.039054,-0.183179 0.259769,-1.170277 -0.259769,-0.152644 -0.779286,0.07122 c -0.144986,0.226444 -0.893161,0.174622 -1.298823,0.03056 l -0.259769,-1.210996 z"
       id="path1983-9-1"
       sodipodi:nodetypes="ccccccccccc" />
    <path
       style="mix-blend-mode:normal;fill:#777777;fill-opacity:1;stroke:#050505;stroke-width:0;stroke-linecap:butt;stroke-linejoin:miter;stroke-miterlimit:4;stroke-dasharray:none;stroke-opacity:1"
       d="M 6.4629767,16.892626 7.7820274,17.920434 9.3648851,18.571709 8.8372646,18.001836 8.0458287,17.279318 6.9905881,16.668742 Z"
       id="path1987-2-2"
       sodipodi:nodetypes="ccccccc" />
    <path
       style="mix-blend-mode:normal;fill:#777777;fill-opacity:1;stroke:#050505;stroke-width:0;stroke-linecap:butt;stroke-linejoin:miter;stroke-miterlimit:4;stroke-dasharray:none;stroke-opacity:1"
       d="m 11.211556,17.523548 0.791437,0.457935 c 0.490463,0.154278 0.498107,0.345101 0.791436,0.193345 l -1.055243,-0.61058 z"
       id="path1989-7-3"
       sodipodi:nodetypes="ccccc" />
    <path
       style="mix-blend-mode:normal;fill:#6a6a6a;fill-opacity:1;stroke:#050505;stroke-width:0;stroke-linecap:butt;stroke-linejoin:miter;stroke-miterlimit:4;stroke-dasharray:none;stroke-opacity:1"
       d="m 5.671544,13.524277 1.3190508,1.821551 1.3190508,0.498635 0.791425,0.987102 0.791436,-0.335812 V 16.231156 L 10.420127,16.801023 9.3648867,16.984201 7.7820259,16.068335 6.4629751,15.040534 Z"
       id="path2143-7" />
    <path
       style="mix-blend-mode:normal;fill:#6a6a6a;fill-opacity:1;stroke:#050505;stroke-width:0;stroke-linecap:butt;stroke-linejoin:miter;stroke-miterlimit:4;stroke-dasharray:none;stroke-opacity:1"
       d="M 0.92296048,13.422516 3.2972529,14.53173 3.5610688,14.419796 Z"
       id="path2145-0" />
    <path
       style="mix-blend-mode:normal;fill:#6a6a6a;fill-opacity:1;stroke:#050505;stroke-width:0;stroke-linecap:butt;stroke-linejoin:miter;stroke-miterlimit:4;stroke-dasharray:none;stroke-opacity:1"
       d="M 4.3524934,12.761057 3.8248732,12.984934 2.2420112,12.333654 0.92296048,11.041267 0.65914477,10.09487 0.92296048,9.7183502 2.5058214,10.369631 1.978201,10.593509 1.186765,10.135574 0.92294931,10.512093 2.2420001,11.80448 3.5610519,12.303114 Z"
       id="path2147-9" />
    <path
       style="mix-blend-mode:normal;fill:#6a6a6a;fill-opacity:1;stroke:#050505;stroke-width:0;stroke-linecap:butt;stroke-linejoin:miter;stroke-miterlimit:4;stroke-dasharray:none;stroke-opacity:1"
       d="m 4.0886833,10.491746 0.791436,0.987102 0.527609,0.305278 0.263816,-0.111933 -0.263816,0.376522 -0.52762,-0.04067 -0.52762,-0.834455 z"
       id="path2149-3" />
    <path
       style="mix-blend-mode:normal;fill:#6a6a6a;fill-opacity:1;stroke:#050505;stroke-width:0;stroke-linecap:butt;stroke-linejoin:miter;stroke-miterlimit:4;stroke-dasharray:none;stroke-opacity:1"
       d="m 4.0886833,15.254244 1.5828607,0.65128 0.5276202,0.04067 -0.2638162,0.376522 z"
       id="path2151-2" />
    <path
       style="mix-blend-mode:normal;fill:#6a6a6a;fill-opacity:1;stroke:#050505;stroke-width:0;stroke-linecap:butt;stroke-linejoin:miter;stroke-miterlimit:4;stroke-dasharray:none;stroke-opacity:1"
       d="m 10.683933,15.366177 0.527621,1.099036 1.319049,1.027801 0.527622,0.04067 -0.527622,0.223878 -1.582859,-1.180445 -0.263817,-0.681813 z"
       id="path2153-4" />
    <path
       style="mix-blend-mode:normal;fill:#6a6a6a;fill-opacity:1;stroke:#050505;stroke-width:0;stroke-linecap:butt;stroke-linejoin:miter;stroke-miterlimit:4;stroke-dasharray:none;stroke-opacity:1"
       d="m 9.8925031,17.81866 0.7914249,0.722513 v 0.529168 l 2.11048,0.956568 0.263817,-0.111945 -2.638101,-0.73269 -0.263817,-0.946402 z"
       id="path2155-9" />
    <path
       style="mix-blend-mode:normal;fill:#6a6a6a;fill-opacity:1;stroke:#050505;stroke-width:0;stroke-linecap:butt;stroke-linejoin:miter;stroke-miterlimit:4;stroke-dasharray:none;stroke-opacity:1"
       d="m 6.7267847,16.780685 0.263816,-0.376524 1.5828609,0.915868 0.5276201,0.834458 -1.0552413,-0.875169 z"
       id="path2157-6" />
    <path
       style="mix-blend-mode:normal;fill:#6a6a6a;fill-opacity:1;stroke:#050505;stroke-width:0;stroke-linecap:butt;stroke-linejoin:miter;stroke-miterlimit:4;stroke-dasharray:none;stroke-opacity:1"
       d="M 0.13153007,12.700001 0.65915032,12.476122 1.1867706,12.252244 0.39533465,12.058898 Z"
       id="path2159-8" />
    <path
       style="mix-blend-mode:normal;fill:#6a6a6a;fill-opacity:1;stroke:#050505;stroke-width:0;stroke-linecap:butt;stroke-linejoin:miter;stroke-miterlimit:4;stroke-dasharray:none;stroke-opacity:1"
       d="m 9.3648828,14.338374 -0.5276202,0.223877 -0.5276199,-0.569867 -1.0552401,-0.345988 -0.263816,0.376522 1.05524,0.08144 1.0552412,1.139744 0.2638162,-0.641101 z"
       id="path2161-8" />
    <path
       style="fill:#a9a9a9;fill-opacity:1;stroke:none;stroke-width:2.93551px;stroke-linecap:butt;stroke-linejoin:miter;stroke-opacity:1"
       d="M 8.720025,14.552079 9.5114567,14.287502 V 13.758333 L 8.720025,13.229166 9.2476459,14.022912 Z"
       id="path34450"
       sodipodi:nodetypes="cccccc" />
    <path
       style="fill:#a9a9a9;fill-opacity:1;stroke:none;stroke-width:2.93661px;stroke-linecap:butt;stroke-linejoin:miter;stroke-opacity:1"
       d="m 18.802086,17.462494 0.528027,-0.529155 -0.264012,-0.529166 -0.792031,-0.26459 0.792031,0.529167 z"
       id="path34450-0"
       sodipodi:nodetypes="cccccc" />
    <path
       style="fill:#a9a9a9;fill-opacity:1;stroke:none;stroke-width:2.93661px;stroke-linecap:butt;stroke-linejoin:miter;stroke-opacity:1"
       d="m 25.666302,10.318746 0.264014,-0.264578 -0.264014,-0.5291667 -5e-6,-0.5291666 -0.264001,0.7937505 z"
       id="path34450-9"
       sodipodi:nodetypes="cccccc" />
    <path
       style="fill:#a9a9a9;fill-opacity:1;stroke:none;stroke-width:2.93661px;stroke-linecap:butt;stroke-linejoin:miter;stroke-opacity:1"
       d="m 21.970186,11.90625 0.528016,-0.793746 v -0.529167 h -0.528016 l 0.264014,0.264584 z"
       id="path34450-97" />
    <path
       style="fill:#a9a9a9;fill-opacity:1;stroke:none;stroke-width:2.93551px;stroke-linecap:butt;stroke-linejoin:miter;stroke-opacity:1"
       d="m 5.2904876,15.874996 0.7914316,5e-6 v -0.529167 l -0.7914316,-0.793757 0.2638107,1.058335 z"
       id="path34450-2"
       sodipodi:nodetypes="cccccc" />
    <path
       style="fill:#898989;fill-opacity:1;stroke:none;stroke-width:2.93661px;stroke-linecap:butt;stroke-linejoin:miter;stroke-opacity:1"
       d="m 16.69002,18.785424 1.584046,-1.058336 0.264013,-0.793757 h -0.528003 l -1.056034,0.529167 -1.848054,1.322918 -0.528015,0.793746 1.320039,-0.793746 0.792024,-0.793746 0.264012,0.264589 z"
       id="path34543"
       sodipodi:nodetypes="ccccccccccc" />
    <path
       style="fill:#898989;fill-opacity:1;stroke:none;stroke-width:2.93661px;stroke-linecap:butt;stroke-linejoin:miter;stroke-opacity:1"
       d="m 15.898012,14.816668 0.79203,0.264589 -0.264014,0.529168 h 1.05603 l -0.792022,0.529157 -1.320039,1.058336 0.264007,-0.793747 0.528016,-0.793746 v -0.264578 z"
       id="path34565" />
  </g>
</svg>
