<?xml version="1.0" encoding="UTF-8" standalone="no"?>
<svg
   xmlns:dc="http://purl.org/dc/elements/1.1/"
   xmlns:cc="http://creativecommons.org/ns#"
   xmlns:rdf="http://www.w3.org/1999/02/22-rdf-syntax-ns#"
   xmlns:svg="http://www.w3.org/2000/svg"
   xmlns="http://www.w3.org/2000/svg"
   xmlns:sodipodi="http://sodipodi.sourceforge.net/DTD/sodipodi-0.dtd"
   xmlns:inkscape="http://www.inkscape.org/namespaces/inkscape"
   width="100"
   height="60"
   viewBox="0 0 26.458333 15.875"
   version="1.1"
   id="svg8"
   sodipodi:docname="Dirt5.svg"
   inkscape:version="1.0.2-2 (e86c870879, 2021-01-15)">
  <defs
     id="defs2" />
  <sodipodi:namedview
     id="base"
     pagecolor="#ffffff"
     bordercolor="#666666"
     borderopacity="1.0"
     inkscape:pageopacity="0.0"
     inkscape:pageshadow="2"
     inkscape:zoom="4.7234733"
     inkscape:cx="44.161624"
     inkscape:cy="3.6"
     inkscape:document-units="mm"
     inkscape:current-layer="layer1"
     inkscape:document-rotation="0"
     showgrid="true"
     showguides="true"
     inkscape:guide-bbox="true"
     inkscape:window-width="1920"
     inkscape:window-height="1017"
     inkscape:window-x="-8"
     inkscape:window-y="-8"
     inkscape:window-maximized="1"
     units="px">
    <inkscape:grid
       type="xygrid"
       id="grid1942"
       units="px"
       dotted="false"
       spacingx="0.26458333"
       spacingy="0.26458333"
       empspacing="10"
       visible="true" />
  </sodipodi:namedview>
  <metadata
     id="metadata5">
    <rdf:RDF>
      <cc:Work
         rdf:about="">
        <dc:format>image/svg+xml</dc:format>
        <dc:type
           rdf:resource="http://purl.org/dc/dcmitype/StillImage" />
        <dc:title></dc:title>
      </cc:Work>
    </rdf:RDF>
  </metadata>
  <g
     inkscape:label="Layer 1"
     inkscape:groupmode="layer"
     id="layer1">
    <path
       style="fill:#aa7e3d;fill-opacity:1;fill-rule:evenodd;stroke:none;stroke-width:0.229136;stroke-linecap:butt;stroke-linejoin:bevel;stroke-miterlimit:1;stroke-dasharray:none;stroke-opacity:1;paint-order:stroke markers fill"
       d="M 1.2766736e-8,7.9374992 13.229166,0 26.458333,7.9374992 13.229166,15.874999 Z"
       id="path1960" />
    <g
       id="g3050"
       transform="matrix(2.2723033,0,0,1.3718405,-2.8467978,-1.4933522)">
      <g
         id="g3008"
         transform="matrix(0.18708867,0.18708867,-0.18708867,0.18708867,7.0490881,0.87573854)">
        <path
           style="fill:#c29652"
           d="M 0.27547828,30.75 C 0.78175223,29.318699 6.9341627,29.534163 8.435782,31.035782 9.0547393,31.654739 7.6872164,32 4.6166667,32 1.220856,32 -0.03841172,31.637407 0.27547828,30.75 Z M 20.8125,31.316886 c 0.721875,-0.288871 1.584375,-0.253344 1.916667,0.07895 0.332291,0.332292 -0.258334,0.568641 -1.3125,0.52522 -1.164943,-0.04798 -1.4019,-0.284941 -0.604167,-0.604167 z m 5.633649,-0.404018 c -0.971779,-1.572373 1.128999,-3.289877 3.099258,-2.533817 1.36401,0.52342 1.447633,0.924409 0.444772,2.132782 -1.463252,1.763111 -2.621236,1.894146 -3.54403,0.401035 z M 9.1083487,27.708349 c -3.093514,-3.093514 1.0396303,-6.550121 8.3060283,-6.946449 4.220531,-0.230199 5.054642,0.0713 6.89097,2.490819 1.568877,2.067129 1.804116,3.037818 0.944511,3.897423 -1.532987,1.532987 -14.711005,1.988711 -16.1415093,0.558207 z M 1.039869,25.548039 C -0.84307572,23.27923 0.18362335,20.5 2.9047085,20.5 c 3.1544137,0 4.9413038,2.775691 3.164858,4.916177 -1.6380514,1.973732 -3.4614092,2.021534 -5.0296975,0.131862 z M 27.507147,25.011564 C 26.658513,23.638445 28.753219,21 30.691996,21 c 2.033335,0 1.255524,4.394324 -0.848759,4.795153 -0.91122,0.173571 -1.962461,-0.179044 -2.33609,-0.783589 z M 6.25,18.509132 C 2.5276839,16.89126 2.2606131,15.979111 4.8287407,13.654988 7.3609432,11.363376 8.8777734,11.57607 11.697009,14.618075 15.988628,19.248809 12.948447,21.420554 6.25,18.509132 Z m 18,0.828587 c -2.084294,-0.84103 -1.403172,-3.310807 1.245938,-4.517822 2.062331,-0.939661 2.844092,-0.822149 4.5,0.676427 3.031863,2.743798 2.532692,4.516517 -1.245938,4.424729 -1.7875,-0.04342 -3.8125,-0.305921 -4.5,-0.583334 z m -7.754365,-1.344782 c -0.784259,-1.268958 2.015196,-2.413294 3.563241,-1.45655 0.84256,0.520731 0.787931,0.945978 -0.202113,1.5733 -1.78772,1.132756 -2.606468,1.104316 -3.361128,-0.11675 z M 14.25,13.8819 C 12.264021,11.845239 12.778209,10.166053 15.878819,8.5626653 17.462169,7.7438831 19.03461,6.3521901 19.373133,5.4700142 20.413245,2.759525 25.289801,4.0040862 26.432228,7.2715883 27.227299,9.5456019 27.03254,10.411904 25.347383,12.097062 22.836536,14.607909 16.026044,15.703268 14.25,13.8819 Z M 0,12 C 0,10.711111 0.50641026,10.002137 1.25,10.25 1.9375,10.479167 2.5,11.266667 2.5,12 2.5,12.733333 1.9375,13.520833 1.25,13.75 0.50641026,13.997863 0,13.288889 0,12 Z m 30,0.559017 c 0,-0.792541 0.45,-1.719098 1,-2.059017 0.55,-0.339919 1,0.308524 1,1.440983 C 32,13.073442 31.55,14 31,14 30.45,14 30,13.351558 30,12.559017 Z M 6,9.9656841 C 4.7016703,9.0969367 4.7609789,8.7628783 6.4411296,7.4809968 10.079108,4.7053789 14.582982,6.387697 11.963645,9.5438049 10.563846,11.230459 8.1458266,11.401514 6,9.9656841 Z m 22.06751,-2.38434 C 26.254382,5.3966593 27.182089,2.5481535 29.829438,2.1713779 31.886591,1.8786 32.103626,2.1974228 31.819222,5.0943662 31.459279,8.760766 29.902697,9.7926102 28.06751,7.5813441 Z M 0,5.5 C 0,4.009288 0.43059869,3.1480906 1,3.5 1.55,3.8399187 2,4.7399187 2,5.5 2,6.2600813 1.55,7.1600813 1,7.5 0.43059869,7.8519094 0,6.990712 0,5.5 Z M 4.221951,4.8341469 C 4.7385002,3.2844995 7.8809543,3.0238172 8.25,4.5 8.3875,5.05 7.437378,5.6503661 6.1386177,5.8341469 c -1.6189175,0.2290846 -2.221555,-0.085335 -1.9166667,-1 z M 10.380002,3.5478871 C 9.5167265,1.2982262 10.841339,0 14,0 17.618615,0 18.885495,1.8793416 16.461646,3.6517039 14.042869,5.4203565 11.079122,5.3697638 10.380002,3.5478871 Z M 20.6875,2.3541667 C 19.383401,1.0500678 20.006008,0 22.083333,0 c 1.163743,0 1.908611,0.52416667 1.6875,1.1875 C 23.283719,2.648843 21.613972,3.280639 20.6875,2.3541667 Z M 0.5,1 C 0.12402033,0.39165211 1.5696016,0.00599728 4.190983,0.01531277 7.341568,0.02650888 8.0967414,0.29123126 7,1 5.0371296,2.2685043 1.2839788,2.2685043 0.5,1 Z"
           id="path3012" />
        <path
           style="fill:#b78650"
           d="M 8.1858024,30.785802 C 7.6860349,30.286035 5.6417968,29.792279 3.6430511,29.688567 0.59416982,29.530365 0.00824601,29.136315 0.00448404,27.241526 5.0867763e-4,25.239257 0.22504962,25.123598 1.9838345,26.221977 c 1.6495906,1.030187 2.2785486,0.944211 3.7330493,-0.510289 2.2657758,-2.265776 0.5963868,-5.223185 -2.9269304,-5.18521 -2.07263257,0.02234 -2.45726225,-0.446582 -2.46072854,-3 C 0.3269652,15.861915 1.0394652,13.9375 1.9125582,13.25 3.3510813,12.117263 3.3296649,11.867886 1.6842645,10.59169 0.13254209,9.3881531 0.0561997,8.8828723 1.1592239,7.1166498 2.1777081,5.4857973 2.1915719,4.7915719 1.2249594,3.8249594 -0.64958563,1.9504144 -0.28266279,1.5094536 3.25,1.3913046 5.0375,1.3315222 7.4820111,0.94951111 8.6822469,0.54239113 10.546125,-0.08983634 10.784881,0.10661144 10.318793,1.888935 9.6161721,4.575762 12.241972,5.6664107 15.661839,4.1082151 17.273682,3.3738101 17.989872,2.415989 17.629454,1.4767555 16.843153,-0.57231073 18.985843,-0.37781937 20.639757,1.75 c 1.29547,1.6666667 1.425016,1.6666667 2.720486,0 C 24.828067,-0.13840722 32,-0.76098837 32,1 c 0,0.55 -0.914123,1 -2.031385,1 -1.117261,0 -2.313878,0.7361652 -2.659147,1.6359228 -0.81116,2.1138482 1.006747,4.9037689 3.078922,4.7251883 1.939024,-0.1671055 1.968694,0.061245 0.36161,2.7831109 -1,1.693668 -1,2.207621 0,2.569765 0.6875,0.248974 1.25,1.159924 1.25,2.024334 0,1.34837 -0.284716,1.313989 -2.004062,-0.241997 -1.655908,-1.498576 -2.437669,-1.616088 -4.5,-0.676427 -4.802172,2.188016 -2.604069,5.16488 3.835849,5.194845 L 32.5,20.029484 30,21.294275 c -3.147472,1.592358 -3.307534,4.234222 -0.25,4.126324 1.898701,-0.067 2.25,0.440428 2.25,3.25 C 32,31.075074 31.549276,32 30.377555,32 c -1.323057,0 -1.394539,-0.27461 -0.387376,-1.488167 0.99821,-1.202769 0.934987,-1.603319 -0.329668,-2.088613 -2.005502,-0.769583 -3.938226,0.410682 -3.318233,2.026359 0.360178,0.938608 -1.714804,1.246983 -8.384591,1.246085 C 13.082918,31.695008 8.6855698,31.28557 8.1858024,30.785802 Z M 25.249858,27.150142 C 26.109463,26.290537 25.874224,25.319848 24.305347,23.252719 22.469019,20.8332 21.634908,20.531701 17.414377,20.7619 10.147979,21.158228 6.0148347,24.614835 9.1083487,27.708349 10.538853,29.138853 23.716871,28.683129 25.249858,27.150142 Z M 13.593064,18.618075 C 14.201624,17.032192 9.9215008,12 7.96407,12 6.4337314,12 3,14.907467 3,16.203261 c 0,1.076923 5.7871655,3.702792 8.281385,3.757597 0.979761,0.02153 2.020017,-0.582724 2.311679,-1.342783 z m 6.263699,-0.508388 c 0.990044,-0.627322 1.044673,-1.052569 0.202113,-1.5733 -1.548045,-0.956744 -4.3475,0.187592 -3.563241,1.45655 0.75466,1.221066 1.573408,1.249506 3.361128,0.11675 z m 5.49062,-6.012625 C 27.03254,10.411904 27.227299,9.5456019 26.432228,7.2715883 25.289801,4.0040862 20.413245,2.759525 19.373133,5.4700142 19.03461,6.3521901 17.462169,7.7438831 15.878819,8.5626653 12.778209,10.166053 12.264021,11.845239 14.25,13.8819 c 1.776044,1.821368 8.586536,0.726009 11.097383,-1.784838 z M 11.963645,9.5438049 C 14.582982,6.387697 10.079108,4.7053789 6.4411296,7.4809968 4.7609789,8.7628783 4.7016703,9.0969367 6,9.9656841 8.1458266,11.401514 10.563846,11.230459 11.963645,9.5438049 Z M 8.25,4.5 C 7.8809543,3.0238172 4.7385002,3.2844995 4.221951,4.8341469 c -0.3048883,0.914665 0.2977492,1.2290846 1.9166667,1 C 7.437378,5.6503661 8.3875,5.05 8.25,4.5 Z"
           id="path3010" />
      </g>
    </g>
  </g>
</svg>
