<?xml version="1.0" encoding="UTF-8" standalone="no"?>
<svg
   xmlns:dc="http://purl.org/dc/elements/1.1/"
   xmlns:cc="http://creativecommons.org/ns#"
   xmlns:rdf="http://www.w3.org/1999/02/22-rdf-syntax-ns#"
   xmlns:svg="http://www.w3.org/2000/svg"
   xmlns="http://www.w3.org/2000/svg"
   xmlns:sodipodi="http://sodipodi.sourceforge.net/DTD/sodipodi-0.dtd"
   xmlns:inkscape="http://www.inkscape.org/namespaces/inkscape"
   width="100"
   height="60"
   viewBox="0 0 26.458333 15.875"
   version="1.1"
   id="svg8"
   sodipodi:docname="Dirt6.svg"
   inkscape:version="1.0.2-2 (e86c870879, 2021-01-15)">
  <defs
     id="defs2" />
  <sodipodi:namedview
     id="base"
     pagecolor="#ffffff"
     bordercolor="#666666"
     borderopacity="1.0"
     inkscape:pageopacity="0.0"
     inkscape:pageshadow="2"
     inkscape:zoom="9.8839877"
     inkscape:cx="11.802611"
     inkscape:cy="3.6"
     inkscape:document-units="mm"
     inkscape:current-layer="layer1"
     inkscape:document-rotation="0"
     showgrid="true"
     showguides="true"
     inkscape:guide-bbox="true"
     inkscape:window-width="1920"
     inkscape:window-height="1017"
     inkscape:window-x="-8"
     inkscape:window-y="-8"
     inkscape:window-maximized="1"
     units="px">
    <inkscape:grid
       type="xygrid"
       id="grid1942"
       units="px"
       dotted="false"
       spacingx="0.26458333"
       spacingy="0.26458333"
       empspacing="10"
       visible="true" />
  </sodipodi:namedview>
  <metadata
     id="metadata5">
    <rdf:RDF>
      <cc:Work
         rdf:about="">
        <dc:format>image/svg+xml</dc:format>
        <dc:type
           rdf:resource="http://purl.org/dc/dcmitype/StillImage" />
        <dc:title></dc:title>
      </cc:Work>
    </rdf:RDF>
  </metadata>
  <g
     inkscape:label="Layer 1"
     inkscape:groupmode="layer"
     id="layer1">
    <path
       style="fill:#aa7e3d;fill-opacity:1;fill-rule:evenodd;stroke:none;stroke-width:0.229136;stroke-linecap:butt;stroke-linejoin:bevel;stroke-miterlimit:1;stroke-dasharray:none;stroke-opacity:1;paint-order:stroke markers fill"
       d="M 0,7.9374997 13.229166,0 26.458333,7.9374997 13.229166,15.875 Z"
       id="path1960" />
    <g
       id="g3701"
       transform="matrix(1.6176937,0.95606592,-1.6176937,0.95606592,12.016792,8.9406057)">
      <path
         style="fill:#c1ac56;stroke-width:0.264583"
         d="M -3.4551999,2.1733979 C -3.712922,2.0233583 -3.8547234,1.7888538 -3.7703141,1.652277 -3.5413654,1.2818299 -2.4326635,1.352488 -2.095265,1.7590282 -1.547934,2.4185217 -2.5235405,2.7157871 -3.4551999,2.1733979 Z M 0.18348867,-0.72063506 C 0.08057237,-0.88715692 0.11622207,-1.1432564 0.26271047,-1.2897448 0.63857912,-1.6656134 1.5113022,-1.444689 1.5113022,-0.97367143 c 0,0.47567636 -1.06480554,0.67859245 -1.32781353,0.25303637 z M 1.5006032,-1.8819582 c -0.4214606,-0.311038 -0.4552246,-0.4467301 -0.1804561,-0.7252237 0.3929205,-0.3982478 1.2494883,-0.00177 1.2494883,0.5783411 0,0.5139539 -0.4819234,0.580169 -1.0690322,0.1468826 z m -5.0306321,-0.9704737 c -0.2726588,-0.4411711 0.3405741,-0.9470784 0.7055692,-0.5820833 0.3053092,0.3053092 0.1142263,0.8697204 -0.2944462,0.8697204 -0.1283444,0 -0.3133498,-0.1294367 -0.411123,-0.2876371 z"
         id="path3709" />
      <path
         style="fill:#c29652;stroke-width:0.264583"
         d="m -4.3689355,2.9253091 c 0.1339516,-0.3786984 1.7617768,-0.3216902 2.1590802,0.075613 0.1637658,0.1637657 -0.198058,0.255116 -1.0104742,0.255116 -0.8984749,0 -1.2316561,-0.095936 -1.148606,-0.330729 z M 1.0648178,3.0752976 C 1.2558139,2.9988672 1.484017,3.008267 1.5719359,3.0961865 1.6598546,3.1841054 1.5035851,3.2466394 1.2246703,3.2351509 0.91644585,3.2224562 0.85375098,3.1597603 1.0648178,3.0752984 Z M 2.0776052,2.6544527 C 1.6287571,2.3262469 1.6261004,2.2770169 2.0387551,1.934544 2.5421712,1.5167455 3.3633854,1.8595553 3.3633854,2.4875007 c 0,0.5015579 -0.7032931,0.5928769 -1.2857802,0.166952 z M -0.05906306,2.4900126 C -0.23602512,2.2036821 0.53294582,1.8695594 0.87803629,2.0828371 1.0127986,2.1661248 1.0545589,2.3451048 0.9708365,2.4805704 0.7770062,2.7941943 0.13258284,2.8001024 -0.05906306,2.4900134 Z M -1.4736829,2.1568276 c 0.1373283,-0.4119848 0.72925856,-0.4841324 0.75000242,-0.091414 0.007686,0.1455208 -0.18461936,0.3057199 -0.42734652,0.3559976 -0.2758855,0.057147 -0.3968382,-0.042037 -0.3226559,-0.2645836 z M -0.93609353,1.4933098 C -1.4105316,1.30187 -1.3437937,0.76187714 -0.78296831,0.25433727 -0.17841633,-0.29277499 0.68087912,-0.30906327 1.118546,0.21829309 1.7882296,1.0252122 0.25767439,1.9750057 -0.93609353,1.4933098 Z M 1.418698,1.4171841 C 1.5323926,1.0761005 1.8952938,1.0148315 1.9280209,1.3311946 1.938935,1.4366972 1.8049897,1.5706425 1.6303647,1.6288508 1.4557397,1.6870591 1.3604897,1.5918091 1.418698,1.4171841 Z M -4.4418225,0.87478833 c 0,-0.49388895 0.070556,-0.56444432 0.3175,-0.31749998 0.2469444,0.24694434 0.2469444,0.38805562 0,0.63499995 -0.2469444,0.2469444 -0.3175,0.176389 -0.3175,-0.31749997 z M 3.6137206,1.116318 C 3.5159476,0.95811752 3.568452,0.69618004 3.7303974,0.53423468 3.9466035,0.31802856 4.0248437,0.39445928 4.0248437,0.82187167 4.0248437,1.460711 3.8874035,1.5591458 3.6137206,1.116318 Z M -3.2326695,0.90476747 c -0.2405072,-0.38914888 0.6184162,-0.9540766 0.94859,-0.62390281 0.155778,0.15577819 0.2032364,0.41266955 0.1054632,0.57087 -0.2143097,0.34676024 -0.8526695,0.37887824 -1.0540532,0.0530328 z m -0.630377,-1.10484887 c 0.063665,-0.19099608 0.2720247,-0.39935545 0.4630208,-0.46302081 0.1984375,-0.0661458 0.2976563,0.0330729 0.2315104,0.2315104 -0.063665,0.19099609 -0.2720247,0.39935545 -0.4630208,0.46302081 -0.1984375,0.06614583 -0.2976562,-0.03307291 -0.2315104,-0.2315104 z m 6.1363492,-0.1030851 c -0.1989318,-0.51840789 0.094747,-0.9387117 0.655906,-0.9387117 0.543524,0 1.095635,0.49331531 1.095635,0.97895826 0,0.48115561 -1.5652617,0.44518948 -1.751541,-0.0402466 z m -6.3843961,-0.8505174 c -0.181901,-0.07276 -0.3307291,-0.4222943 -0.3307291,-0.776742 0,-0.6503572 0.2851008,-0.6860678 1.7859374,-0.2236991 0.4785908,0.1474414 0.4058459,0.5594503 -0.1322917,0.7492666 -0.2546614,0.089826 -0.5820833,0.2128533 -0.7276041,0.2733934 -0.1455208,0.06054 -0.4134114,0.050542 -0.5953125,-0.02222 z m 2.6458332,-0.6206206 c -1.0839492,-0.4447717 -0.5458593,-1.5842403 0.74812392,-1.5842403 0.91559825,0 1.50811804,0.671965 1.12774115,1.278949 -0.32838679,0.5240207 -1.05471774,0.6422289 -1.87586507,0.3052913 z m 4.9609373,-0.1134171 c 0,-0.2096931 0.1190625,-0.4548447 0.2645833,-0.5447816 0.1455208,-0.089937 0.2645833,0.08163 0.2645833,0.3812601 0,0.2996298 -0.1190625,0.5447816 -0.2645833,0.5447816 -0.1455208,0 -0.2645833,-0.171567 -0.2645833,-0.3812601 z M 2.0402296,-3.1997795 c -0.5269338,-0.3913497 -0.5267742,-0.3950134 0.042313,-0.9719807 0.4287367,-0.434673 0.7464182,-0.5351836 1.2734546,-0.4029059 0.5749941,0.1443144 0.6872076,0.3063923 0.6193843,0.8946204 -0.098759,0.8565335 -1.0954646,1.1038959 -1.9351519,0.4802662 z m -6.4820521,-0.5556402 c 0,-0.3944176 0.1139292,-0.622276 0.2645833,-0.5291667 0.1455208,0.089937 0.2645833,0.3280618 0.2645833,0.5291667 0,0.2011048 -0.1190625,0.4392298 -0.2645833,0.5291666 -0.1506541,0.093109 -0.2645833,-0.1347491 -0.2645833,-0.5291666 z M -2.8164244,-3.85869 c -0.2502446,-0.1585627 -0.2702798,-0.2822767 -0.066146,-0.4084384 0.3356036,-0.2074144 0.8219976,0.026335 0.8219976,0.3950319 0,0.3076451 -0.2835459,0.3126743 -0.7558516,0.013406 z m 1.1209773,-0.4132263 c -0.2284083,-0.5952227 0.1220621,-0.9387117 0.95779106,-0.9387117 0.95742517,0 1.29262048,0.4972424 0.65131047,0.9661799 -0.63996805,0.467956 -1.42412603,0.45457 -1.60910153,-0.027468 z m -2.6140837,-0.6741284 c -0.099478,-0.1609587 0.2829987,-0.2629965 0.9765725,-0.2605318 0.8335922,0.00296 1.0333985,0.073003 0.743219,0.2605318 -0.5193427,0.3356251 -1.5123638,0.3356251 -1.7197915,0 z m 5.29166633,0 C 0.89219864,-5.0915655 1.0707924,-5.210628 1.3790105,-5.210628 c 0.3082181,0 0.4868119,0.1190625 0.396875,0.2645833 -0.089937,0.1455208 -0.2685306,0.2645833 -0.396875,0.2645833 -0.1283443,0 -0.3069381,-0.1190625 -0.39687497,-0.2645833 z"
         id="path3707" />
      <path
         style="fill:#b78650;stroke-width:0.264583"
         d="M -2.2862943,2.9244833 C -2.4128602,2.7979172 -2.9490972,2.6719121 -3.4779319,2.6444716 -4.2542099,2.6041917 -4.4396783,2.4900854 -4.4406361,2.0521841 -4.4412886,1.7538664 -4.3093217,1.3772876 -4.1473763,1.215342 c 0.1728007,-0.1728007 0.2021412,-0.44060559 0.071019,-0.64822914 -0.3812863,-0.60374368 -0.3503186,-1.85979346 0.04214,-1.70919316 0.4526138,0.1736844 1.7292611,-0.4205449 1.6208786,-0.7544554 -0.04602,-0.1417801 -0.4677658,-0.3363378 -0.9372132,-0.43235 -1.1081875,-0.2266487 -1.1966399,-0.33895 -0.7854995,-0.9972904 0.2702156,-0.432684 0.274082,-0.6166819 0.018332,-0.8724314 -0.4959733,-0.4959734 -0.3988917,-0.6126443 0.535792,-0.6439045 0.4729427,-0.015817 1.1197195,-0.1168912 1.4372819,-0.2246084 0.4931511,-0.1672768 0.5563219,-0.1153 0.4330028,0.3562731 -0.1859018,0.7108896 0.5088411,0.999457 1.41368084,0.5871845 0.42646677,-0.1943113 0.6159587,-0.4477348 0.52059811,-0.6962403 -0.18046673,-0.4702888 0.39185239,-0.5202462 0.83887355,-0.073225 0.2469444,0.2469444 0.3880557,0.2469444 0.635,0 0.4719553,-0.4719553 2.3283332,-0.4139435 2.3283332,0.07276 0,0.2854115 -0.1971143,0.3508375 -0.733684,0.2435236 -0.5410324,-0.1082065 -0.8701145,0.00402 -1.2532584,0.4273863 -0.5164928,0.5707182 -0.5164569,0.5764345 0.00608,0.9638536 0.2891099,0.2143518 0.8530762,0.3432815 1.2532584,0.2865105 0.8353827,-0.1185097 0.8392824,-0.1122501 0.396875,0.6370408 -0.2645833,0.4481163 -0.2645833,0.5840997 0,0.679917 0.181901,0.065874 0.3307292,0.2894523 0.3307292,0.4968398 0,0.30192109 -0.098475,0.31556989 -0.4941184,0.068486 -0.6368856,-0.3977415 -1.4225642,-0.096641 -1.3092067,0.50173541 0.058389,0.30821575 0.3814625,0.49207126 0.9630029,0.54802852 0.7372905,0.07094404 0.8241498,0.145642 0.5514424,0.47423437 C 3.4907857,0.80260884 3.4865635,0.97150772 3.7185564,1.203501 3.8870139,1.3719585 4.0248428,1.896432 4.0248428,2.3689976 v 0.85921 L 0.98433475,3.1914058 C -0.68794533,3.1711644 -2.1597283,3.0510491 -2.2862943,2.9244833 Z M 3.3633854,2.4875007 c 0,-0.6279454 -0.8212142,-0.9707552 -1.3246303,-0.5529567 -0.4126547,0.3424729 -0.409998,0.3917029 0.03885,0.7199087 0.5824871,0.4259249 1.2857802,0.3346059 1.2857803,-0.166952 z M 0.9708365,2.4805712 C 1.0545589,2.3451056 1.0127986,2.1661256 0.87803629,2.0828379 0.53294582,1.8695602 -0.23602512,2.2036829 -0.05906306,2.4900134 0.13258284,2.8001032 0.7770062,2.7941951 0.9708365,2.4805704 Z M -1.9746737,2.2881948 C -1.8789223,2.1924434 -1.9331884,1.9543184 -2.095265,1.7590282 -2.4326635,1.352488 -3.5413654,1.2818299 -3.7703141,1.652277 -4.0688446,2.1353093 -2.409454,2.722975 -1.9746737,2.2881948 Z m 1.25099322,-0.2227815 c -0.0207433,-0.3927181 -0.61267412,-0.3205705 -0.75000242,0.091414 -0.074182,0.2225466 0.04677,0.3217299 0.3226559,0.2645833 0.24272716,-0.050278 0.43503319,-0.2104768 0.42734652,-0.3559973 z M 0.97764423,1.1443347 C 1.9048754,0.11975538 0.27573935,-0.70378004 -0.78296831,0.25433727 -1.3437937,0.76187714 -1.4105316,1.30187 -0.93609353,1.4933098 -0.22283035,1.7811177 0.52473104,1.644798 0.97764423,1.1443347 Z M 1.9280209,1.3311946 C 1.8952938,1.0148315 1.5323926,1.0761005 1.418698,1.4171841 1.3604897,1.5918091 1.4557397,1.6870591 1.6303647,1.6288508 1.8049897,1.5706425 1.938935,1.4366972 1.9280209,1.3311946 Z M -2.1786163,0.85173466 c 0.097773,-0.15820045 0.050315,-0.41509181 -0.1054632,-0.57087 -0.3301738,-0.33017379 -1.1890972,0.23475393 -0.94859,0.62390281 0.2013837,0.32584543 0.8397435,0.29372743 1.0540532,-0.0530328 z m 5.2661194,0.0413359 C 3.2831733,0.57646958 2.7854481,0.26277298 2.4330279,0.48058062 2.137129,0.66345637 2.3313837,1.1393717 2.7019271,1.1393717 c 0.1283443,0 0.3018536,-0.1108356 0.385576,-0.24630114 z m -6.2560184,-1.32466232 c 0.066146,-0.19843748 -0.033073,-0.29765623 -0.2315104,-0.2315104 -0.1909961,0.0636654 -0.3993554,0.27202473 -0.4630208,0.46302081 -0.066146,0.19843749 0.033073,0.29765623 0.2315104,0.2315104 0.1909961,-0.06366536 0.3993555,-0.27202472 0.4630208,-0.46302081 z m 2.45566395,-0.0298114 c 0.68396984,-0.3660497 0.39872706,-0.78047504 -0.53718935,-0.78047504 -0.7500056,0 -1.4852696,0.55998453 -1.1610142,0.88423985 0.2615937,0.2615938 1.1126963,0.20958915 1.69820355,-0.10376481 z M 1.5113022,-0.97367143 c 0,-0.47101757 -0.87272308,-0.69194197 -1.24859173,-0.31607337 -0.1464884,0.1464884 -0.1821381,0.40258788 -0.0792218,0.56910974 0.26300799,0.42555608 1.32781353,0.22263999 1.32781353,-0.25303637 z M 0.41060487,-2.0795958 c 0.38037689,-0.606984 -0.2121429,-1.278949 -1.12774115,-1.278949 -1.29398322,0 -1.83207312,1.1394686 -0.74812392,1.5842403 0.82114733,0.3369376 1.54747828,0.2187294 1.87586507,-0.3052913 z m 2.15903053,0.050755 c 0,-0.580116 -0.8565678,-0.9765889 -1.2494883,-0.5783411 -0.2747685,0.2784936 -0.2410045,0.4141857 0.1804561,0.7252237 0.5871088,0.4332864 1.0690322,0.3670713 1.0690322,-0.1468826 z m -5.2774183,-0.8235911 c 0.2726587,-0.4411711 -0.3405741,-0.9470784 -0.7055692,-0.5820833 -0.3053093,0.3053092 -0.1142263,0.8697204 0.2944462,0.8697204 0.1283444,0 0.3133497,-0.1294367 0.411123,-0.2876371 z m 3.8222101,-0.9250364 c 0,-0.4672348 -0.56958413,-0.3858657 -0.7331162,0.1047308 -0.0576022,0.172806 0.0837845,0.3141927 0.31419269,0.3141927 0.23040789,0 0.41892351,-0.1885156 0.41892351,-0.4189235 z m -3.1749998,-0.094628 c 0,-0.3686973 -0.486394,-0.6024463 -0.8219976,-0.3950319 -0.204134,0.1261617 -0.1840988,0.2498757 0.066146,0.4084384 0.4723059,0.2992678 0.7558518,0.2942386 0.7558516,-0.013406 z"
         id="path3705" />
      <path
         style="fill:#a07b4f;stroke-width:0.264583"
         d="M 2.3163512,0.89307051 C 2.1206809,0.57646958 2.6184061,0.26277298 2.9708263,0.48058062 3.2667252,0.66345637 3.0724705,1.1393717 2.7019271,1.1393717 c -0.1283443,0 -0.3018536,-0.1108356 -0.3855759,-0.24630119 z m -4.7274061,-1.2507089 c -0.095751,-0.0957514 -0.041485,-0.33387636 0.1205913,-0.52916663 0.3374439,-0.40659498 1.70901359,-0.47990048 1.94147808,-0.10376482 0.310969,0.5031581 -1.60404758,1.09095322 -2.06206938,0.63293145 z M 0.381311,-3.6727375 c 0.16353207,-0.4905965 0.7331162,-0.5719656 0.7331162,-0.1047308 0,0.2304079 -0.18851562,0.4189235 -0.41892351,0.4189235 -0.23040815,0 -0.37179486,-0.1413867 -0.31419269,-0.3141927 z"
         id="path3703" />
    </g>
  </g>
</svg>
