<?xml version="1.0" encoding="UTF-8" standalone="no"?>
<svg
   xmlns:dc="http://purl.org/dc/elements/1.1/"
   xmlns:cc="http://creativecommons.org/ns#"
   xmlns:rdf="http://www.w3.org/1999/02/22-rdf-syntax-ns#"
   xmlns:svg="http://www.w3.org/2000/svg"
   xmlns="http://www.w3.org/2000/svg"
   xmlns:sodipodi="http://sodipodi.sourceforge.net/DTD/sodipodi-0.dtd"
   xmlns:inkscape="http://www.inkscape.org/namespaces/inkscape"
   width="100"
   height="60"
   viewBox="0 0 26.458333 15.875"
   version="1.1"
   id="svg8"
   sodipodi:docname="Dirt4.svg"
   inkscape:version="1.0.2-2 (e86c870879, 2021-01-15)">
  <defs
     id="defs2" />
  <sodipodi:namedview
     id="base"
     pagecolor="#ffffff"
     bordercolor="#666666"
     borderopacity="1.0"
     inkscape:pageopacity="0.0"
     inkscape:pageshadow="2"
     inkscape:zoom="28.715278"
     inkscape:cx="11.802611"
     inkscape:cy="3.6"
     inkscape:document-units="mm"
     inkscape:current-layer="layer1"
     inkscape:document-rotation="0"
     showgrid="true"
     showguides="true"
     inkscape:guide-bbox="true"
     inkscape:window-width="1920"
     inkscape:window-height="1017"
     inkscape:window-x="-8"
     inkscape:window-y="-8"
     inkscape:window-maximized="1"
     units="px">
    <inkscape:grid
       type="xygrid"
       id="grid1942"
       units="px"
       dotted="false"
       spacingx="0.26458333"
       spacingy="0.26458333"
       empspacing="10"
       visible="true" />
  </sodipodi:namedview>
  <metadata
     id="metadata5">
    <rdf:RDF>
      <cc:Work
         rdf:about="">
        <dc:format>image/svg+xml</dc:format>
        <dc:type
           rdf:resource="http://purl.org/dc/dcmitype/StillImage" />
        <dc:title></dc:title>
      </cc:Work>
    </rdf:RDF>
  </metadata>
  <g
     inkscape:label="Layer 1"
     inkscape:groupmode="layer"
     id="layer1">
    <path
       style="fill:#aa7e3d;fill-opacity:1;fill-rule:evenodd;stroke:none;stroke-width:0.229136;stroke-linecap:butt;stroke-linejoin:bevel;stroke-miterlimit:1;stroke-dasharray:none;stroke-opacity:1;paint-order:stroke markers fill"
       d="M 0,7.9374991 13.229166,0 26.458333,7.9374991 13.229166,15.874999 Z"
       id="path1960" />
    <g
       id="g2411"
       transform="matrix(2.2877641,0,0,1.3520812,5.7606033,9.2393122)">
      <path
         style="fill:#c29652;stroke-width:0.264583"
         d="m -2.4231802,-1.2417221 c 0.3624984,-0.1730621 1.47323374,1.01829505 1.47323388,1.58016676 7e-8,0.23159975 -0.32044238,0.0403462 -0.89490738,-0.53411891 -0.6353177,-0.6353177 -0.8030755,-0.93874945 -0.5783265,-1.04604785 z m 3.7361861,3.9483019 c 0.1890995,0.08101 0.3438167,0.2490206 0.3438159,0.3733575 0,0.1243362 -0.1547178,0.058055 -0.3438166,-0.1472912 -0.208971,-0.2269243 -0.2089703,-0.3155889 7e-7,-0.2260663 z M 2.326737,3.1251464 C 2.2414301,2.5756863 2.2743623,2.5389969 2.8083182,2.5886228 3.4597153,2.6491636 3.7979984,3.472253 3.3539739,3.9162774 2.9993189,4.2709324 2.4374432,3.8382014 2.326737,3.1251464 Z M 0.93216114,1.498017 C 1.0094963,1.1704196 1.7895013,1.4779038 1.882707,1.8727298 1.9191049,2.0269146 1.822076,2.1830013 1.6670866,2.2195892 1.3082623,2.3042961 0.84840852,1.8527976 0.93216256,1.4980153 Z M -1.24539,-1.1272949 c -0.076143,-0.2883311 -0.010592,-0.5544195 0.1456687,-0.5913076 0.42383693,-0.1000544 1.15784479,0.73387897 1.10895423,1.25992321 C -0.07007794,0.3946745 -0.97013436,-0.08498516 -1.24539,-1.1272949 Z M 0.16747154,0.26213193 C 0.55589449,0.06792039 1.0254686,0.43546226 0.76244307,0.72782397 0.66497922,0.83615775 0.41572076,0.81345503 0.20853507,0.67737275 -0.02695418,0.52270099 -0.04234747,0.36704133 0.16747154,0.26213193 Z M 1.0167822,0.17308746 C 0.81667215,-0.29775939 1.2456957,-0.63240112 2.001144,-0.59472257 2.8154936,-0.55410656 3.4346249,0.04198956 3.3712048,0.72436399 3.2741647,1.7684798 1.5202932,1.3578193 1.0167822,0.17308746 Z M 2.7357003,1.7843476 c 0.3215768,-0.1607883 0.6215104,0.052498 0.4209496,0.2993418 -0.066884,0.082319 -0.2563115,0.082319 -0.4209496,1e-7 -0.164638,-0.082319 -0.164638,-0.2170229 0,-0.2993419 z m -3.7604822,-4.5275457 c 0.34923225,-0.3492323 0.44901278,-0.3492321 0.44901281,0 9e-8,0.349232 -0.0997807,0.4490128 -0.44901281,0.4490128 -0.3492321,-10e-8 -0.3492322,-0.099781 0,-0.4490128 z m 5.5253422,5.8669166 c 0.042729,-0.1810005 0.2650726,-0.3290921 0.494098,-0.3290921 0.3057616,0 0.3070411,0.1093689 0.00481,0.4115951 -0.4517228,0.4517276 -0.6185116,0.4241466 -0.498908,-0.082503 z m -4.69154027,-4.9907179 c 0.10510549,-0.4452341 1.11192029,-0.2373477 1.1119203,0.2295885 -1.4e-7,0.2203035 -0.14809157,0.4355114 -0.32909231,0.4782398 -0.39673638,0.093657 -0.8708358,-0.335021 -0.78282799,-0.7078283 z M 3.7410413,2.04848 C 3.8265523,1.6862495 4.400314,1.8163773 4.4954996,2.2195894 4.5754189,2.5581341 4.1015372,2.7572982 3.8395235,2.4952845 3.7487703,2.4045313 3.7044533,2.2034693 3.7410413,2.04848 Z M 0.14452227,-3.0939894 c 0.18007287,-0.090036 0.4747375,-0.090036 0.65481034,0 0.18708865,0.093544 0.18708868,0.2338608 0,0.3274052 -0.18007286,0.090036 -0.47473749,0.090036 -0.65481034,0 -0.18708864,-0.093544 -0.18708868,-0.2338608 0,-0.3274052 z M 4.5564687,1.1721727 C 4.7823725,0.66493696 5.2872344,0.57539954 5.6840338,0.97219887 6.0683633,1.3565284 6.1099382,2.0957565 5.7665367,2.4391579 5.4263083,2.7793863 4.344933,1.6471472 4.5564687,1.1721727 Z M 1.282645,-2.1786859 c 1e-7,-0.1354128 0.2067518,-0.2654207 0.4594483,-0.2889064 0.5261149,-0.048897 1.547796,0.8691143 1.4462052,1.2994596 C 3.0524003,-0.59245789 1.2826451,-1.5309452 1.282645,-2.1786859 Z m 2.0912969,1.57794204 c 0.044976,-0.19052155 0.2512737,-0.34640309 0.4584396,-0.34640309 0.5315586,0 0.9924498,0.77332563 0.6593901,1.10638537 C 4.1554176,0.4955924 3.259003,-0.11385551 3.3739419,-0.60074386 Z M 0.64342547,-3.9436838 C 0.5662511,-4.1237564 0.7081718,-4.4761518 0.95880418,-4.7267842 1.4186762,-5.1866563 1.6455241,-5.0103107 2.3798319,-3.6221149 2.6139898,-3.1794433 2.2712171,-2.9395474 1.756476,-3.1858477 1.5128866,-3.302404 1.1943709,-3.4469327 1.0486638,-3.5070231 0.90295676,-3.5671137 0.72059914,-3.7636106 0.64342547,-3.9436838 Z m 2.30973173,1.4320415 c -0.4519668,-1.080969 0.7342462,-1.5062079 1.6492306,-0.5912236 0.6474258,0.6474258 0.5912495,1.5415516 -0.1069201,1.701787 C 3.8927245,-1.2627448 3.2955451,-1.6927525 2.9531572,-2.5116423 Z M 5.126462,-0.49058267 C 5.0483815,-1.0085375 5.1204556,-1.128361 5.511671,-1.1309951 6.0711114,-1.134762 6.3964443,-0.24872493 5.9862438,0.16147556 5.6228235,0.52489585 5.2352309,0.23094569 5.126462,-0.49058267 Z M 6.5412652,0.91607468 C 6.6895407,0.76779926 6.9470789,0.67864088 7.1135727,0.7179447 7.2800665,0.75724838 7.2429402,0.96275447 7.0310698,1.1746249 6.8191995,1.3864951 6.5616611,1.4756537 6.4587624,1.372755 6.3558635,1.2698562 6.3929898,1.0643502 6.5412652,0.91607468 Z M 2.2554939,-4.734003 c 0.1191562,-0.504754 0.9105079,-0.4288633 0.9105079,0.087318 0,0.4317725 -0.534215,0.6957554 -0.8231901,0.4067803 -0.090753,-0.090753 -0.1300462,-0.3130973 -0.087318,-0.4940983 z m 4.1843796,3.6931558 c -0.095872,-0.6493244 -0.093169,-0.6518023 0.717214,-0.6573744 0.6105227,-0.0042 0.9062293,0.1493654 1.1853658,0.615571 0.3045366,0.50862784 0.2692772,0.70258115 -0.1946213,1.07056299 C 7.4723382,0.52373987 6.5926492,-0.00612586 6.4398735,-1.0408472 Z M 2.2492673,-6.0172474 C 2.5281626,-6.2961427 2.7698431,-6.3767028 2.8105333,-6.204336 2.849837,-6.0378422 2.7656472,-5.7852726 2.6234447,-5.64307 2.481242,-5.5008674 2.2286723,-5.4166775 2.0621786,-5.4559813 1.8898121,-5.4966719 1.970372,-5.738352 2.2492673,-6.0172474 Z m 3.3520055,3.4689356 c 0.4625411,-0.2312718 0.9228346,0.1139484 0.5924497,0.4443333 -0.162923,0.162923 -0.4295244,0.162923 -0.5924473,0 -0.1629232,-0.1629232 -0.1629232,-0.3628741 -1e-7,-0.4443356 z m -2.1296499,-2.392631 c -0.064829,-0.2890705 0.00848,-0.3907165 0.2420374,-0.3355817 0.3839718,0.090643 0.5626188,0.5998614 0.3019104,0.8605698 -0.2175379,0.2175378 -0.4215913,0.020597 -0.5439478,-0.5249881 z m 1.0848458,0.5004555 c 0.259377,-0.5823951 0.7500804,-0.5774585 1.3410301,0.013491 0.6770019,0.6770018 0.5624172,1.2656242 -0.2226463,1.1437385 C 4.8914318,-3.4048886 4.3464136,-3.9688374 4.5564687,-4.4404873 Z M 3.1847132,-6.7656045 c 0.043473,-0.1841566 0.3860769,0.014144 0.8747648,0.5063173 0.5873458,0.5915318 0.6791022,0.782344 0.3413115,0.709759 -0.6045536,-0.129908 -1.3067256,-0.83208 -1.2160763,-1.2160763 z m 3.7417733,3.7417733 c 0.039304,-0.1664938 0.2497786,-0.1243987 0.4677216,0.093544 0.2179431,0.2179431 0.2600381,0.4284179 0.093544,0.4677216 -0.1664939,0.039304 -0.3769686,-0.00279 -0.4677217,-0.093544 -0.090753,-0.090753 -0.1328481,-0.3012279 -0.093544,-0.4677216 z"
         id="path2135" />
      <path
         style="fill:#b78650;stroke-width:0.264583"
         d="m -0.94994639,0.2303438 c 0,-0.17899135 -0.29007771,-0.64726729 -0.64461701,-1.04061332 -0.5204292,-0.57739358 -0.5708898,-0.78922488 -0.2619241,-1.09954518 0.210481,-0.2114039 0.5700772,-0.3843706 0.7991027,-0.3843707 0.24437708,0 0.45449058,-0.1686198 0.50858553,-0.408149 0.15730114,-0.6965214 1.06735999,-1.5627852 1.23837955,-1.1787847 C 0.8868132,-3.4382593 2.2097227,-2.9557169 2.3691951,-3.2684653 2.4369078,-3.40126 2.2762615,-3.8370524 2.012203,-4.2368928 1.3888609,-5.1807646 1.4057246,-5.3227189 2.1619618,-5.4975157 2.6589869,-5.6123982 2.791827,-5.7397705 2.7918269,-6.1014549 c 0,-0.7014123 0.1511459,-0.7152639 0.8341714,-0.076447 0.3456053,0.3232367 0.8744159,0.7091068 1.1751339,0.8574897 0.4669931,0.2304279 0.4749085,0.3118496 0.054256,0.5581024 -0.6341273,0.3712224 -0.3469179,1.0665279 0.5844212,1.4148255 0.4389563,0.1641586 0.7521449,0.1189522 0.8604347,-0.1241978 0.2049352,-0.4601536 0.6449511,-0.090788 0.6449511,0.5413953 0,0.3492321 0.099781,0.4490128 0.4490128,0.4490128 0.6674456,0 1.9390825,1.353678 1.5949312,1.69782937 C 8.787323,-0.58162833 8.6016789,-0.67474602 8.2981493,-1.1300405 7.9920951,-1.5891217 7.6800428,-1.7424618 7.1097539,-1.7140202 c -0.7687743,0.038343 -0.772791,0.04241 -0.6772483,0.6858466 0.052862,0.35600124 0.3604793,0.84595263 0.6835941,1.08878109 C 7.7906035,0.56751325 7.7889349,0.57469689 6.9462768,0.79169643 6.4423221,0.92147386 6.3461673,1.0176286 6.4655029,1.2724703 6.5475464,1.4476737 6.49469,1.7110049 6.3480449,1.8576501 6.1345545,2.0711405 6.055271,2.0111593 5.9502235,1.5566825 5.781123,0.82509061 5.0126541,0.48244215 4.669694,0.98571409 4.4930398,1.2449428 4.5914818,1.6033958 4.9631252,2.0541747 5.4343033,2.6256828 5.4429027,2.739921 5.0177195,2.7794377 4.6354582,2.8149656 4.5130431,2.9314096 4.5130427,3.2594973 c 0,0.2382348 -0.273399,0.7065534 -0.6075534,1.0407078 L 3.2979361,4.9077583 1.1739949,2.7317705 C 0.00582715,1.5349771 -0.94994639,0.40933502 -0.94994639,0.2303438 Z M 3.3539739,3.9162774 C 3.7979984,3.472253 3.4597153,2.6491636 2.8083182,2.5886228 2.2743623,2.5389969 2.2414301,2.5756863 2.3267369,3.1251463 c 0.1107062,0.713055 0.672582,1.145786 1.027237,0.7911311 z M 1.6670866,2.2195895 C 1.8220755,2.1830019 1.9191045,2.026915 1.8827065,1.8727303 1.7895007,1.4779044 1.0094957,1.1704202 0.93216058,1.4980175 0.84840809,1.8527983 1.3082619,2.3042968 1.6670866,2.2195895 Z M -0.27967351,7.6885914e-4 c 0.13541293,0 0.2654208,-0.20675172914 0.28890644,-0.45944814914 C 0.05812349,-0.98472353 -0.67588437,-1.8186569 -1.0997213,-1.7186025 -1.6523696,-1.58814 -0.89454571,7.6885914e-4 -0.27967351,7.6885914e-4 Z M 0.76244265,0.7278244 C 1.0254686,0.43546297 0.55589414,0.06792074 0.16747119,0.26213228 -0.04234783,0.36704169 -0.02695454,0.52270134 0.20853472,0.6773731 0.4157204,0.81345538 0.66497922,0.83615846 0.76244265,0.7278244 Z M 2.6167619,1.2795418 C 3.9969004,1.2107062 3.4272547,-0.52359446 2.001144,-0.59472257 1.2456957,-0.63240112 0.81667215,-0.29775939 1.0167822,0.17308746 1.3176246,0.88095162 1.9426229,1.3131648 2.6167619,1.2795418 Z m 0.539888,0.8041476 C 3.3572108,1.8368455 3.0572771,1.6235593 2.7357001,1.7843479 c -0.1646378,0.082319 -0.1646378,0.217023 0,0.2993419 0.1646383,0.082319 0.3540656,0.082319 0.4209498,-4e-7 z M 0.59184802,-1.1591711 c 0.18100074,-0.042728 0.32909217,-0.2579363 0.32909231,-0.4782398 -10e-9,-0.4669362 -1.00681481,-0.6748226 -1.1119203,-0.2295885 -0.0880078,0.3728073 0.38609161,0.801485 0.78282799,0.7078283 z M 4.2863279,2.5937668 C 4.6485584,2.5082557 4.5184306,1.934494 4.1152186,1.8393084 3.7766739,1.7593891 3.5775098,2.2332708 3.8395235,2.4952845 c 0.090753,0.090753 0.2918152,0.1350702 0.4468044,0.098482 z m -3.48699529,-5.360351 c 0.18708865,-0.093544 0.18708868,-0.2338608 0,-0.3274052 -0.18007286,-0.090036 -0.47473749,-0.090036 -0.65481034,0 -0.18708864,0.093544 -0.18708868,0.2338608 0,0.3274052 0.18007285,0.090036 0.4747375,0.090036 0.65481034,0 z m 1.75749649,1.7153368 c 0.742476,0.22480352 0.8338218,-0.2699366 0.172029,-0.9317294 -0.530334,-0.530334 -1.4462131,-0.6542754 -1.4462131,-0.1957091 0,0.3699495 0.6385932,0.934997 1.2741841,1.1274385 z m 1.9349425,1.21048582 c 0.3330597,-0.33305974 -0.1278315,-1.10638537 -0.6593901,-1.10638537 -0.2071659,0 -0.4134637,0.15588154 -0.4584398,0.34640295 -0.1149388,0.48688835 0.7814758,1.09633626 1.1178299,0.75998242 z m 0.0037,-1.56031732 c 0.6981696,-0.1602354 0.7543459,-1.0543612 0.1069201,-1.701787 -0.9149844,-0.9149843 -2.1011974,-0.4897454 -1.6492306,0.5912236 0.3423879,0.8188898 0.9395673,1.2488975 1.5423105,1.1105634 z M 5.9862438,0.16147556 C 6.3964477,-0.24872839 6.0711114,-1.134762 5.511671,-1.1309951 5.1204556,-1.128361 5.0483815,-1.0085375 5.126462,-0.49058267 5.2352309,0.23094569 5.6228235,0.52489585 5.9862438,0.16147556 Z M 2.8369121,-4.1525898 c 0.504754,-0.1191562 0.4288633,-0.9105078 -0.087318,-0.9105078 -0.4317724,0 -0.6957554,0.534215 -0.4067803,0.8231901 0.090753,0.090753 0.3130973,0.1300462 0.4940983,0.087318 z m 3.3568104,2.0486113 c 0.3303849,-0.3303849 -0.1299086,-0.6756051 -0.5924474,-0.4443356 -0.162923,0.081461 -0.1629228,0.2814127 1e-7,0.4443356 0.1629229,0.162923 0.4295243,0.162923 0.5924473,0 z M 4.0155706,-4.4159547 c 0.2607085,-0.2607084 0.082062,-0.7699265 -0.3019103,-0.8605698 -0.2335543,-0.055135 -0.3068662,0.046511 -0.2420374,0.3355817 0.1223565,0.545585 0.3264099,0.7425259 0.5439477,0.5249881 z"
         id="path2133" />
    </g>
  </g>
</svg>
