<?xml version="1.0" encoding="UTF-8" standalone="no"?>
<svg
   xmlns:dc="http://purl.org/dc/elements/1.1/"
   xmlns:cc="http://creativecommons.org/ns#"
   xmlns:rdf="http://www.w3.org/1999/02/22-rdf-syntax-ns#"
   xmlns:svg="http://www.w3.org/2000/svg"
   xmlns="http://www.w3.org/2000/svg"
   xmlns:sodipodi="http://sodipodi.sourceforge.net/DTD/sodipodi-0.dtd"
   xmlns:inkscape="http://www.inkscape.org/namespaces/inkscape"
   width="9"
   height="7.1999998"
   viewBox="0 0 2.38125 1.9049999"
   version="1.1"
   id="svg8"
   sodipodi:docname="Dirt1_Edge_2.svg"
   inkscape:version="1.0.2-2 (e86c870879, 2021-01-15)">
  <defs
     id="defs2">
    <inkscape:perspective
       sodipodi:type="inkscape:persp3d"
       inkscape:vp_x="0 : -2.565833 : 1"
       inkscape:vp_y="0 : 999.99998 : 0"
       inkscape:vp_z="10 : -2.565833 : 1"
       inkscape:persp3d-origin="5.0000002 : -4.2324997 : 1"
       id="perspective1944" />
    <clipPath
       clipPathUnits="userSpaceOnUse"
       id="clipPath7404">
      <path
         style="fill:#a2783a;fill-opacity:1;stroke:none;stroke-width:0.264583px;stroke-linecap:butt;stroke-linejoin:miter;stroke-opacity:1"
         d="M 0,0.71437495 V 1.1906249 l 1.1906249,0.714375 v -0.47625 z"
         id="path7406" />
    </clipPath>
    <clipPath
       clipPathUnits="userSpaceOnUse"
       id="clipPath7505">
      <path
         style="fill:#a3793b;fill-opacity:0.956653;stroke:none;stroke-width:0.264583px;stroke-linecap:butt;stroke-linejoin:miter;stroke-opacity:1"
         d="M 1.1906249,1.4287499 2.3812499,0.71437495 V 1.1906249 l -1.190625,0.714375 z"
         id="path7507" />
    </clipPath>
    <clipPath
       clipPathUnits="userSpaceOnUse"
       id="clipPath7404-6">
      <path
         style="fill:#a2783a;fill-opacity:1;stroke:none;stroke-width:0.264583px;stroke-linecap:butt;stroke-linejoin:miter;stroke-opacity:1"
         d="M 0,0.71437495 V 1.1906249 l 1.1906249,0.714375 v -0.47625 z"
         id="path7406-8" />
    </clipPath>
    <clipPath
       clipPathUnits="userSpaceOnUse"
       id="clipPath7696">
      <g
         id="g7712">
        <path
           style="fill:#af813e;fill-opacity:1;stroke:none;stroke-width:0.264583px;stroke-linecap:butt;stroke-linejoin:miter;stroke-opacity:1"
           d="m 0.47624997,1.0001249 c 0.052454,-0.07025 0.18718602,-0.069624 0.26193749,-0.0238125 0.0728901,0.0446708 0.1256313,0.1582161 0.09525,0.238125 C 0.79559201,1.3139785 0.64335152,1.4041001 0.54768747,1.3573124 0.43861367,1.3039662 0.40360486,1.0974162 0.47624997,1.0001249 Z"
           id="path7698"
           sodipodi:nodetypes="aaaaa" />
        <path
           style="fill:#8f6834;fill-opacity:1;stroke:none;stroke-width:0.264583px;stroke-linecap:butt;stroke-linejoin:miter;stroke-opacity:1"
           d="m 0.95249994,1.2858749 c 0.040321,-0.049694 0.12774846,-0.036363 0.19049996,-0.023813 0.062752,0.01255 0.1307242,0.042317 0.1666875,0.09525 0.031542,0.046425 0.046722,0.1154491 0.023813,0.1666875 -0.023363,0.052253 -0.08661,0.08474 -0.142875,0.09525 -0.071936,0.013437 -0.1661889,0.00751 -0.21431247,-0.047625 -0.0628539,-0.072006 -0.0840354,-0.2115282 -0.023813,-0.2857495 z"
           id="path7700"
           sodipodi:nodetypes="aaaaaaa" />
        <path
           style="fill:#b88a46;fill-opacity:1;stroke:none;stroke-width:0.264583px;stroke-linecap:butt;stroke-linejoin:miter;stroke-opacity:1"
           d="m 1.6668749,1.1429999 c -0.030579,-0.066485 0.080124,-0.1290366 0.142875,-0.16668747 0.062751,-0.0376509 0.1705402,-0.10627069 0.2143125,-0.047625 0.048881,0.0654907 -0.048629,0.17286917 -0.1190625,0.21431247 -0.068411,0.040253 -0.2049576,0.072113 -0.238125,0 z"
           id="path7702"
           sodipodi:nodetypes="aaaaa" />
        <path
           style="fill:#8f6834;fill-opacity:1;stroke:none;stroke-width:0.264583px;stroke-linecap:butt;stroke-linejoin:miter;stroke-opacity:1"
           d="m 2.1431249,0.85724996 c 0.019539,0.0250256 0.069493,0.0185645 0.09525,0 0.020363,-0.0146765 0.035892,-0.0494341 0.023813,-0.0714375 -0.015748,-0.0286889 -0.067187,-0.0406504 -0.09525,-0.0238125 -0.028063,0.0168379 -0.043954,0.0694542 -0.023813,0.09525 z"
           id="path7704"
           sodipodi:nodetypes="aaaaa" />
        <path
           style="fill:#b88a46;fill-opacity:1;stroke:none;stroke-width:0.264583px;stroke-linecap:butt;stroke-linejoin:miter;stroke-opacity:1"
           d="m 0.09524999,0.92868746 c 0.03120823,-0.0368401 0.09749567,-0.0403007 0.142875,-0.0238125 0.0687807,0.0249909 0.13846391,0.0936404 0.14287498,0.16668744 0.001725,0.028567 -0.023592,0.055899 -0.047625,0.071438 -0.0405447,0.026216 -0.0985719,0.043006 -0.14287498,0.023813 -0.0525212,-0.022754 -0.0786633,-0.088093 -0.09525,-0.142875 -0.0092007,-0.030388 -0.02052261,-0.0710248 0,-0.0952509 z"
           id="path7706"
           sodipodi:nodetypes="aaaaaaa" />
        <path
           style="fill:#b88a46;fill-opacity:1;stroke:none;stroke-width:0.264583px;stroke-linecap:butt;stroke-linejoin:miter;stroke-opacity:1"
           d="m 0.80962496,1.2620624 c -0.0203628,0.014677 -0.0295795,0.047009 -0.0238125,0.071438 0.0103162,0.0437 0.0509285,0.1024424 0.09525,0.09525 0.0350392,-0.00569 0.0498307,-0.059821 0.047625,-0.09525 -0.001778,-0.028564 -0.0223922,-0.057934 -0.047625,-0.071438 -0.0209949,-0.011236 -0.0521198,-0.013923 -0.0714375,0 z"
           id="path7708"
           sodipodi:nodetypes="aaaaaa" />
        <path
           style="fill:#af813e;fill-opacity:1;stroke:none;stroke-width:0.264583px;stroke-linecap:butt;stroke-linejoin:miter;stroke-opacity:1"
           d="m 1.5239999,1.2382499 c -0.045979,0.014735 -0.04177,0.098056 -0.023813,0.142875 0.01476,0.03684 0.059752,0.089186 0.09525,0.071437 0.042597,-0.021299 0.018225,-0.098875 0,-0.142875 -0.012887,-0.031112 -0.039368,-0.081714 -0.071437,-0.071437 z"
           id="path7710"
           sodipodi:nodetypes="aaaaa" />
      </g>
    </clipPath>
  </defs>
  <sodipodi:namedview
     id="base"
     pagecolor="#ffffff"
     bordercolor="#666666"
     borderopacity="1.0"
     inkscape:pageopacity="0.0"
     inkscape:pageshadow="2"
     inkscape:zoom="116.95546"
     inkscape:cx="5.110738"
     inkscape:cy="3.6484068"
     inkscape:document-units="mm"
     inkscape:current-layer="layer1"
     inkscape:document-rotation="0"
     showgrid="true"
     showguides="true"
     inkscape:guide-bbox="true"
     inkscape:window-width="1920"
     inkscape:window-height="1017"
     inkscape:window-x="-8"
     inkscape:window-y="-8"
     inkscape:window-maximized="1"
     units="px">
    <inkscape:grid
       type="xygrid"
       id="grid1942"
       units="px"
       dotted="false"
       spacingx="0.023812499"
       spacingy="0.023812499"
       empspacing="10"
       visible="true" />
  </sodipodi:namedview>
  <metadata
     id="metadata5">
    <rdf:RDF>
      <cc:Work
         rdf:about="">
        <dc:format>image/svg+xml</dc:format>
        <dc:type
           rdf:resource="http://purl.org/dc/dcmitype/StillImage" />
        <dc:title></dc:title>
      </cc:Work>
    </rdf:RDF>
  </metadata>
  <g
     inkscape:label="Layer 1"
     inkscape:groupmode="layer"
     id="layer1">
    <g
       id="g7694">
      <path
         style="fill:#af813e;fill-opacity:1;stroke:none;stroke-width:0.264583px;stroke-linecap:butt;stroke-linejoin:miter;stroke-opacity:1"
         d="m 0.47624997,1.0001249 c 0.052454,-0.07025 0.18718602,-0.069624 0.26193749,-0.0238125 0.0728901,0.0446708 0.1256313,0.1582161 0.09525,0.238125 C 0.79559201,1.3139785 0.64335152,1.4041001 0.54768747,1.3573124 0.43861367,1.3039662 0.40360486,1.0974162 0.47624997,1.0001249 Z"
         id="path7673"
         sodipodi:nodetypes="aaaaa" />
      <path
         style="fill:#8f6834;fill-opacity:1;stroke:none;stroke-width:0.264583px;stroke-linecap:butt;stroke-linejoin:miter;stroke-opacity:1"
         d="m 0.95249994,1.2858749 c 0.040321,-0.049694 0.12774846,-0.036363 0.19049996,-0.023813 0.062752,0.01255 0.1307242,0.042317 0.1666875,0.09525 0.031542,0.046425 0.046722,0.1154491 0.023813,0.1666875 -0.023363,0.052253 -0.08661,0.08474 -0.142875,0.09525 -0.071936,0.013437 -0.1661889,0.00751 -0.21431247,-0.047625 -0.0628539,-0.072006 -0.0840354,-0.2115282 -0.023813,-0.2857495 z"
         id="path7675"
         sodipodi:nodetypes="aaaaaaa" />
      <path
         style="fill:#b88a46;fill-opacity:1;stroke:none;stroke-width:0.264583px;stroke-linecap:butt;stroke-linejoin:miter;stroke-opacity:1"
         d="m 1.6668749,1.1429999 c -0.030579,-0.066485 0.080124,-0.1290366 0.142875,-0.16668747 0.062751,-0.0376509 0.1705402,-0.10627069 0.2143125,-0.047625 0.048881,0.0654907 -0.048629,0.17286914 -0.1190625,0.21431244 -0.068411,0.040253 -0.2049576,0.072113 -0.238125,0 z"
         id="path7677"
         sodipodi:nodetypes="aaaaa" />
      <path
         style="fill:#8f6834;fill-opacity:1;stroke:none;stroke-width:0.264583px;stroke-linecap:butt;stroke-linejoin:miter;stroke-opacity:1"
         d="m 2.1431249,0.85724996 c 0.019539,0.0250256 0.069493,0.0185645 0.09525,0 0.020363,-0.0146765 0.035892,-0.0494341 0.023813,-0.0714375 -0.015748,-0.0286889 -0.067187,-0.0406504 -0.09525,-0.0238125 -0.028063,0.0168379 -0.043954,0.0694542 -0.023813,0.09525 z"
         id="path7679"
         sodipodi:nodetypes="aaaaa" />
      <path
         style="fill:#b88a46;fill-opacity:1;stroke:none;stroke-width:0.264583px;stroke-linecap:butt;stroke-linejoin:miter;stroke-opacity:1"
         d="m 0.09524999,0.92868746 c 0.03120823,-0.0368401 0.09749567,-0.0403007 0.142875,-0.0238125 0.0687807,0.0249909 0.13846391,0.0936404 0.14287498,0.16668744 0.001725,0.028567 -0.023592,0.055899 -0.047625,0.071438 -0.0405447,0.026216 -0.0985719,0.043006 -0.14287498,0.023813 -0.0525212,-0.022754 -0.0786633,-0.088093 -0.09525,-0.142875 -0.0092007,-0.030388 -0.02052261,-0.0710248 0,-0.0952509 z"
         id="path7681"
         sodipodi:nodetypes="aaaaaaa" />
      <path
         style="fill:#b88a46;fill-opacity:1;stroke:none;stroke-width:0.264583px;stroke-linecap:butt;stroke-linejoin:miter;stroke-opacity:1"
         d="m 0.80962496,1.2620624 c -0.0203628,0.014677 -0.0295795,0.047009 -0.0238125,0.071438 0.0103162,0.0437 0.0509285,0.1024424 0.09525,0.09525 0.0350392,-0.00569 0.0498307,-0.059821 0.047625,-0.09525 -0.001778,-0.028564 -0.0223922,-0.057934 -0.047625,-0.071438 -0.0209949,-0.011236 -0.0521198,-0.013923 -0.0714375,0 z"
         id="path7683"
         sodipodi:nodetypes="aaaaaa" />
      <path
         style="fill:#af813e;fill-opacity:1;stroke:none;stroke-width:0.264583px;stroke-linecap:butt;stroke-linejoin:miter;stroke-opacity:1"
         d="m 1.5239999,1.2382499 c -0.045979,0.014735 -0.04177,0.098056 -0.023813,0.142875 0.01476,0.03684 0.059752,0.089186 0.09525,0.071437 0.042597,-0.021299 0.018225,-0.098875 0,-0.142875 -0.012887,-0.031112 -0.039368,-0.081714 -0.071437,-0.071437 z"
         id="path7685"
         sodipodi:nodetypes="aaaaa" />
    </g>
    <path
       style="fill:#8f6834;fill-opacity:0.37903225;stroke:none;stroke-width:0.264583px;stroke-linecap:butt;stroke-linejoin:miter;stroke-opacity:1"
       d="M 0,0.71437496 V 1.1906249 l 1.1906249,0.714375 1.190625,-0.714375 V 0.71437496 L 1.1906249,1.4287499 Z"
       id="path7671-2"
       clip-path="url(#clipPath7696)" />
  </g>
</svg>
