<?xml version="1.0" encoding="UTF-8" standalone="no"?>
<svg
   xmlns:dc="http://purl.org/dc/elements/1.1/"
   xmlns:cc="http://creativecommons.org/ns#"
   xmlns:rdf="http://www.w3.org/1999/02/22-rdf-syntax-ns#"
   xmlns:svg="http://www.w3.org/2000/svg"
   xmlns="http://www.w3.org/2000/svg"
   xmlns:sodipodi="http://sodipodi.sourceforge.net/DTD/sodipodi-0.dtd"
   xmlns:inkscape="http://www.inkscape.org/namespaces/inkscape"
   width="4"
   height="6"
   viewBox="0 0 1.0583333 1.5875002"
   version="1.1"
   id="svg1634"
   inkscape:version="1.0.2-2 (e86c870879, 2021-01-15)"
   sodipodi:docname="Dude_1.svg">
  <defs
     id="defs1628" />
  <sodipodi:namedview
     id="base"
     pagecolor="#ffffff"
     bordercolor="#666666"
     borderopacity="1.0"
     inkscape:pageopacity="0.0"
     inkscape:pageshadow="2"
     inkscape:zoom="29.238865"
     inkscape:cx="3.0144401"
     inkscape:cy="0.99094433"
     inkscape:document-units="mm"
     inkscape:current-layer="g2261"
     inkscape:document-rotation="0"
     showgrid="false"
     units="px"
     inkscape:window-width="1920"
     inkscape:window-height="1017"
     inkscape:window-x="-8"
     inkscape:window-y="-8"
     inkscape:window-maximized="1" />
  <metadata
     id="metadata1631">
    <rdf:RDF>
      <cc:Work
         rdf:about="">
        <dc:format>image/svg+xml</dc:format>
        <dc:type
           rdf:resource="http://purl.org/dc/dcmitype/StillImage" />
        <dc:title></dc:title>
      </cc:Work>
    </rdf:RDF>
  </metadata>
  <g
     inkscape:label="Layer 1"
     inkscape:groupmode="layer"
     id="layer1">
    <g
       id="g2261"
       transform="matrix(0.21731043,0,0,0.18710199,2.9710783,0.39293503)">
      <g
         id="g3151"
         transform="matrix(0.18506222,0,0,0.18516447,-29.720388,-12.087048)">
        <path
           style="fill:#fefefe;stroke-width:1.31215"
           d="m -3.7872102,24.646928 c -3.7654139,-3.094322 -5.7474884,-7.420121 -4.4860703,-9.790669 0.9907734,-1.861934 3.7929809,-1.359042 5.8701285,1.053472 l 1.91327144,2.222176 v -1.939354 c 0,-1.066645 -0.66138314,-2.707521 -1.46974034,-3.646392 L -3.4293611,10.839125 -1.4838629,8.5795179 C -0.11483188,6.9894511 0.27878057,4.7365147 -0.15547568,0.97617203 l -0.61711,-5.34373853 2.57642548,-2.9924004 C 4.8068396,-10.847814 11.270077,-11.343921 14.787594,-8.3565771 l 2.34999,1.9957902 0.246331,8.8618464 0.24633,8.8618475 -2.492355,4.06531 c -1.625026,2.6506 -2.309086,5.51561 -1.965714,8.232889 l 0.526642,4.167576 h -2.262416 c -1.244329,0 -2.5777841,-0.954526 -2.9632354,-2.121169 -0.38545,-1.166644 -1.2487101,-2.12117 -1.9183551,-2.12117 -0.669645,0 -0.9021676,0.954526 -0.5167175,2.12117 1.1060039,3.347543 -5.30300272,2.655728 -9.8253042,-1.060585 z"
           id="path3171" />
        <path
           style="fill:#e7cfa9;stroke-width:1.31215"
           d="m -3.8779092,24.57209 c -5.2271541,-4.295123 -6.5021078,-10.884537 -2.1059965,-10.884537 0.9171154,0 2.5284545,0.99998 3.5807537,2.222178 l 1.91327144,2.222176 v -1.939354 c 0,-1.066645 -0.66138314,-2.707521 -1.46974034,-3.646392 L -3.4293611,10.839125 -1.4838629,8.5795179 C -0.11483188,6.9894511 0.27878057,4.7365147 -0.15547568,0.97617203 l -0.61711,-5.34373853 2.57642548,-2.9924004 C 4.8068396,-10.847814 11.270077,-11.343921 14.787594,-8.3565771 l 2.34999,1.9957902 0.246331,8.8618464 0.24633,8.8618475 -2.492355,4.06531 c -1.625026,2.6506 -2.309086,5.51561 -1.965714,8.232889 l 0.526642,4.167576 h -2.262416 c -1.244329,0 -2.5777841,-0.954526 -2.9632354,-2.121169 -0.38545,-1.166644 -1.2487101,-2.12117 -1.9183551,-2.12117 -0.669645,0 -0.9554909,0.795439 -0.6352131,1.767641 C 6.9303716,28.422188 0.14902529,27.881 -3.8779092,24.57209 Z m 7.0406377,1.300352 c 0,-0.298169 -1.0965388,-0.875175 -2.43675292,-1.282234 -1.34021397,-0.40706 -2.12971608,-0.163103 -1.75444908,0.542127 0.65534006,1.231562 4.191202,1.855947 4.191202,0.740107 z"
           id="path3169" />
        <path
           style="fill:#b1b1b1;stroke-width:1.31215"
           d="m -3.8779092,24.57209 c -5.2271541,-4.295123 -6.5021078,-10.884537 -2.1059965,-10.884537 0.9171154,0 2.5284545,0.99998 3.5807537,2.222178 l 1.91327144,2.222176 v -1.939354 c 0,-1.066645 -0.66138314,-2.707521 -1.46974034,-3.646392 L -3.4293611,10.839125 -1.4838629,8.5795179 C -0.11483188,6.9894511 0.27878057,4.7365147 -0.15547568,0.97617203 l -0.61711,-5.34373853 2.57642548,-2.9924004 C 4.8068396,-10.847814 11.270077,-11.343921 14.787594,-8.3565771 l 2.34999,1.9957902 0.246331,8.8618464 0.24633,8.8618475 -2.492355,4.06531 c -1.625026,2.6506 -2.309086,5.51561 -1.965714,8.232889 l 0.526642,4.167576 h -2.262416 c -1.244329,0 -2.5777841,-0.954526 -2.9632354,-2.121169 -0.38545,-1.166644 -1.2487101,-2.12117 -1.9183551,-2.12117 -0.669645,0 -0.9554909,0.795439 -0.6352131,1.767641 C 6.9303716,28.422188 0.14902529,27.881 -3.8779092,24.57209 Z m 7.0406377,1.300352 c 0,-0.298169 -1.0965388,-0.875175 -2.43675292,-1.282234 -1.34021397,-0.40706 -2.12971608,-0.163103 -1.75444908,0.542127 0.65534006,1.231562 4.191202,1.855947 4.191202,0.740107 z M 12.903019,7.4075011 c 0,-1.8985046 -0.606385,-3.8871009 -1.347524,-4.4191029 -0.939366,-0.6742943 -0.847169,-1.3355052 0.304384,-2.18297182 1.094972,-0.80582659926 0.215195,-1.18535613 -2.6094688,-1.12570884 -2.3437575,0.049494 -3.576513,0.41095253 -2.7394568,0.80324584 0.8370563,0.3922919 1.5219204,1.33413492 1.5219204,2.09298472 0,0.7588498 -0.4487534,1.0576038 -0.9972304,0.6638977 -0.548477,-0.3937074 -0.760237,1.1596151 -0.470579,3.4518257 L 7.091717,10.859327 h 2.9056505 2.9056515 z"
           id="path3167" />
        <path
           style="fill:#979797;stroke-width:1.31215"
           d="m -3.7872102,24.646928 c -3.7654139,-3.094322 -5.7474884,-7.420121 -4.4860703,-9.790669 0.9907734,-1.861934 3.7929809,-1.359042 5.8701285,1.053472 l 1.91327144,2.222176 v -1.939354 c 0,-1.066645 -0.66138314,-2.707521 -1.46974034,-3.646392 L -3.4293611,10.839125 -1.4838629,8.5795179 C -0.11483188,6.9894511 0.27878057,4.7365147 -0.15547568,0.97617203 l -0.61711,-5.34373853 2.57642548,-2.9924004 C 4.8068396,-10.847814 11.270077,-11.343921 14.787594,-8.3565771 l 2.34999,1.9957902 0.246331,8.8618464 0.24633,8.8618475 -2.492355,4.06531 c -1.625026,2.6506 -2.309086,5.51561 -1.965714,8.232889 l 0.526642,4.167576 h -2.262416 c -1.244329,0 -2.5840495,-0.973491 -2.9771579,-2.163311 C 8.0166867,24.32588 6.89527,23.815113 5.5144657,24.32412 4.2879463,24.776253 1.6405816,24.158867 -0.36856646,22.952149 -4.6850278,20.359633 -5.8042884,20.193298 -4.6769502,22.311874 c 0.4547324,0.854567 2.54166,2.420536 4.63761653,3.479932 2.09595717,1.059396 2.98127777,1.951082 1.96738047,1.981525 -1.01389732,0.03044 -3.5857627,-1.376438 -5.715257,-3.126403 z M 12.903019,7.4075011 c 0,-1.8985046 -0.606385,-3.8871009 -1.347524,-4.4191029 -0.939366,-0.6742943 -0.847169,-1.3355052 0.304384,-2.18297182 1.094972,-0.80582659926 0.215195,-1.18535613 -2.6094688,-1.12570884 -2.3437575,0.049494 -3.576513,0.41095253 -2.7394568,0.80324584 0.8370563,0.3922919 1.5219204,1.33413492 1.5219204,2.09298472 0,0.7588498 -0.4487534,1.0576038 -0.9972304,0.6638977 -0.548477,-0.3937074 -0.760237,1.1596151 -0.470579,3.4518257 L 7.091717,10.859327 h 2.9056505 2.9056515 z"
           id="path3165" />
        <path
           style="fill:#939393;stroke-width:1.31215"
           d="m -3.7872102,24.646928 c -3.7654139,-3.094322 -5.7474884,-7.420121 -4.4860703,-9.790669 0.9907734,-1.861934 3.7929809,-1.359042 5.8701285,1.053472 l 1.91327144,2.222176 v -1.939354 c 0,-1.066645 -0.66138314,-2.707521 -1.46974034,-3.646392 L -3.4293611,10.839125 -1.4838629,8.5795179 C -0.11483188,6.9894511 0.27878057,4.7365147 -0.15547568,0.97617203 l -0.61711,-5.34373853 2.57642548,-2.9924004 C 4.8068396,-10.847814 11.270077,-11.343921 14.787594,-8.3565771 l 2.34999,1.9957902 0.246331,8.8618464 0.24633,8.8618475 -2.492355,4.06531 c -1.625026,2.6506 -2.309086,5.51561 -1.965714,8.232889 0.68926,5.454453 -2.156291,5.582358 -6.2018206,0.278765 C 5.1969176,21.614937 4.3091108,21.046254 4.762693,22.525758 5.6849098,25.533872 3.708645,25.666887 -0.48988056,22.879287 -4.1726806,20.434102 -5.7929939,20.214524 -4.6769502,22.311874 c 0.4547324,0.854567 2.54166,2.420536 4.63761653,3.479932 2.09595717,1.059396 2.98127777,1.951082 1.96738047,1.981525 -1.01389732,0.03044 -3.5857627,-1.376438 -5.715257,-3.126403 z M 11.274298,20.404589 c -0.337761,-0.972203 -0.614109,-0.176764 -0.614109,1.767641 0,1.944406 0.276348,2.739844 0.614109,1.767641 0.337759,-0.972202 0.337759,-2.563079 0,-3.535282 z m 1.385214,-4.171633 c 1.975656,-2.294634 1.840085,-3.959516 -0.322423,-3.959516 -0.980907,0 -2.3699127,1.272701 -3.0866788,2.828226 l -1.303212,2.828225 h 1.6256351 c 0.8940987,0 2.2831047,-0.763621 3.0866787,-1.696935 z m 0.243507,-8.8254549 c 0,-1.8985046 -0.606385,-3.8871009 -1.347524,-4.4191029 -0.939366,-0.6742943 -0.847169,-1.3355052 0.304384,-2.18297182 1.094972,-0.80582659926 0.215195,-1.18535613 -2.6094688,-1.12570884 -2.3437575,0.049494 -3.576513,0.41095253 -2.7394568,0.80324584 0.8370563,0.3922919 1.5219204,1.33413492 1.5219204,2.09298472 0,0.7588498 -0.4487534,1.0576038 -0.9972304,0.6638977 -0.548477,-0.3937074 -0.760237,1.1596151 -0.470579,3.4518257 L 7.091717,10.859327 h 2.9056505 2.9056515 z m 3.246286,-8.8072396 C 15.368669,-6.9869103 13.703706,-8.9470319 9.8591784,-8.8049599 l -2.4350727,0.089987 3.3096793,1.405392 c 2.434035,1.0335668 3.516788,2.6876257 4.092492,6.2518674 1.053706,6.5235745 2.239456,6.2170386 1.323028,-0.342025 z"
           id="path3163" />
        <path
           style="fill:#8837b8;stroke-width:1.31215"
           d="m -3.7872102,24.646928 c -3.7654139,-3.094322 -5.7474884,-7.420121 -4.4860703,-9.790669 0.9907734,-1.861934 3.7929809,-1.359042 5.8701285,1.053472 l 1.91327144,2.222176 v -1.939354 c 0,-1.066645 -0.66138314,-2.707521 -1.46974034,-3.646392 L -3.4293611,10.839125 -1.4838629,8.5795179 C -0.11483188,6.9894511 0.27878057,4.7365147 -0.15547568,0.97617203 l -0.61711,-5.34373853 2.57642548,-2.9924004 C 4.8068396,-10.847814 11.270077,-11.343921 14.787594,-8.3565771 l 2.34999,1.9957902 0.246331,8.8618464 0.24633,8.8618475 -2.492355,4.06531 c -1.625026,2.6506 -2.309086,5.51561 -1.965714,8.232889 l 0.526642,4.167576 h -1.953617 c -2.5501303,0 -6.4603176,-5.338466 -5.3872493,-7.355055 C 6.878496,19.495384 6.6324879,19.308343 5.7029172,19.975607 4.8841544,20.56333 4.5083594,21.934352 4.8678175,23.022326 5.7602826,25.723551 4.708526,25.50563 1.1463738,22.251245 -0.50868955,20.73918 -2.6465538,19.851333 -3.6044359,20.278254 c -2.3830781,1.062119 -0.9951616,3.208578 3.56510223,5.513552 2.09595717,1.059396 2.98127777,1.951082 1.96738047,1.981525 -1.01389732,0.03044 -3.5857627,-1.376438 -5.715257,-3.126403 z M 11.274298,20.404589 c -0.337761,-0.972203 -0.614109,-0.176764 -0.614109,1.767641 0,1.944406 0.276348,2.739844 0.614109,1.767641 0.337759,-0.972202 0.337759,-2.563079 0,-3.535282 z m 1.385214,-4.171633 c 1.975656,-2.294634 1.840085,-3.959516 -0.322423,-3.959516 -0.980907,0 -2.3699127,1.272701 -3.0866788,2.828226 l -1.303212,2.828225 h 1.6256351 c 0.8940987,0 2.2831047,-0.763621 3.0866787,-1.696935 z m 0.243507,-8.8254549 c 0,-1.8985046 -0.606385,-3.8871009 -1.347524,-4.4191029 -0.939366,-0.6742943 -0.847169,-1.3355052 0.304384,-2.18297182 1.094972,-0.80582659926 0.215195,-1.18535613 -2.6094688,-1.12570884 -2.3437575,0.049494 -3.576513,0.41095253 -2.7394568,0.80324584 0.8370563,0.3922919 1.5219204,1.33413492 1.5219204,2.09298472 0,0.7588498 -0.4487534,1.0576038 -0.9972304,0.6638977 -0.548477,-0.3937074 -0.760237,1.1596151 -0.470579,3.4518257 L 7.091717,10.859327 h 2.9056505 2.9056515 z m 3.246286,-8.8072396 C 15.368669,-6.9869103 13.703706,-8.9470319 9.8591784,-8.8049599 l -2.4350727,0.089987 3.3096793,1.405392 c 2.434035,1.0335668 3.516788,2.6876257 4.092492,6.2518674 1.053706,6.5235745 2.239456,6.2170386 1.323028,-0.342025 z"
           id="path3161" />
        <path
           style="fill:#727272;stroke-width:1.31215"
           d="m -3.7872102,24.646928 c -3.7654139,-3.094322 -5.7474884,-7.420121 -4.4860703,-9.790669 0.9907734,-1.861934 3.7929809,-1.359042 5.8701285,1.053472 l 1.91327144,2.222176 v -1.939354 c 0,-1.066645 -0.66138314,-2.707521 -1.46974034,-3.646392 L -3.4293611,10.839125 -1.4838629,8.5795179 C -0.11483188,6.9894511 0.27878057,4.7365147 -0.15547568,0.97617203 l -0.61711,-5.34373853 2.57642548,-2.9924004 C 4.8068396,-10.847814 11.270077,-11.343921 14.787594,-8.3565771 l 2.34999,1.9957902 0.246331,8.8618464 0.24633,8.8618475 -2.492355,4.06531 c -1.625026,2.6506 -2.309086,5.51561 -1.965714,8.232889 l 0.526642,4.167576 h -1.953617 c -2.5501303,0 -6.4603176,-5.338466 -5.3872493,-7.355055 C 6.878496,19.495384 6.6324879,19.308343 5.7029172,19.975607 4.8841544,20.56333 4.5083594,21.934352 4.8678175,23.022326 5.7602826,25.723551 4.708526,25.50563 1.1463738,22.251245 -0.50868955,20.73918 -2.6465538,19.851333 -3.6044359,20.278254 c -2.3830781,1.062119 -0.9951616,3.208578 3.56510223,5.513552 2.09595717,1.059396 2.98127777,1.951082 1.96738047,1.981525 -1.01389732,0.03044 -3.5857627,-1.376438 -5.715257,-3.126403 z M 11.274298,20.404589 c -0.337761,-0.972203 -0.614109,-0.176764 -0.614109,1.767641 0,1.944406 0.276348,2.739844 0.614109,1.767641 0.337759,-0.972202 0.337759,-2.563079 0,-3.535282 z m 1.385214,-4.171633 c 1.975656,-2.294634 1.840085,-3.959516 -0.322423,-3.959516 -0.980907,0 -2.3699127,1.272701 -3.0866788,2.828226 l -1.303212,2.828225 h 1.6256351 c 0.8940987,0 2.2831047,-0.763621 3.0866787,-1.696935 z M 12.903019,5.202875 V -0.45357675 H 9.1084077 5.313795 L 6.0479414,2.7281774 c 0.4037801,1.7499647 0.7416269,4.295368 0.7507706,5.6564517 0.011366,1.6917869 0.9795945,2.4746979 3.0604664,2.4746979 h 3.0438406 z m 3.246286,-6.6026135 C 15.368669,-6.9869103 13.703706,-8.9470319 9.8591784,-8.8049599 l -2.4350727,0.089987 3.3096793,1.405392 c 2.434035,1.0335668 3.516788,2.6876257 4.092492,6.2518674 1.053706,6.5235745 2.239456,6.2170386 1.323028,-0.342025 z"
           id="path3159" />
        <path
           style="fill:#757224;stroke-width:1.31215"
           d="m -3.7872102,24.646928 c -4.1853789,-3.43944 -5.8947902,-7.927193 -3.8958764,-10.22793 0.8522813,-0.98097 0.9917917,-0.651397 0.4386271,1.036196 -0.9398189,2.867196 0.7087394,3.274568 2.9091618,0.718877 l 1.5117428,-1.755821 1.1481933,2.109349 1.14819338,2.109349 0.0186438,-2.191875 C -0.49827024,15.239542 -1.1512637,13.485032 -1.9596209,12.546161 L -3.4293611,10.839125 -1.4838629,8.5795179 C -0.11483188,6.9894511 0.27878057,4.7365147 -0.15547568,0.97617203 l -0.61711,-5.34373853 2.57642548,-2.9924004 C 4.8068396,-10.847814 11.270077,-11.343921 14.787594,-8.3565771 l 2.34999,1.9957902 0.246331,8.8618464 0.24633,8.8618475 -2.492355,4.06531 c -1.625026,2.6506 -2.309086,5.51561 -1.965714,8.232889 l 0.526642,4.167576 h -2.262416 c -1.244329,0 -2.5898669,-0.991098 -2.9900857,-2.20244 C 8.0442201,24.409218 6.9234255,23.778227 5.9412974,24.215953 4.9637557,24.651635 2.8079238,23.769237 1.1505585,22.255069 -0.50680627,20.7409 -2.6465538,19.851333 -3.6044359,20.278254 c -2.3830781,1.062119 -0.9951616,3.208578 3.56510223,5.513552 2.09595717,1.059396 2.98127777,1.951082 1.96738047,1.981525 -1.01389732,0.03044 -3.5857627,-1.376438 -5.715257,-3.126403 z M 11.685483,22.879287 V 19.344004 H 6.0574881 0.42949452 l 1.53851178,2.153098 c 0.8902833,1.245921 2.4945956,1.800655 3.8076879,1.316608 1.4376255,-0.529954 2.5377974,-0.02345 3.0022084,1.382185 1.1323685,3.427345 2.9075804,2.623495 2.9075804,-1.316608 z m 1.943132,-8.13115 2.382262,-3.181754 -6.3501839,0.217033 c -7.06399,0.241427 -8.93303732,1.101097 -8.93303732,4.108763 0,3.561611 10.04463922,2.670865 12.90095922,-1.144042 z M 1.7169041,9.5335959 C 2.0212881,8.4730112 1.564712,7.9427188 0.65155976,8.2962471 -0.22734929,8.636518 -1.1861592,9.7501319 -1.4791288,10.770945 c -0.3043841,1.060584 0.152192,1.590877 1.06534426,1.237349 C 0.46512451,11.668023 1.4239344,10.554409 1.7169041,9.5335959 Z M 5.3755776,4.8493468 4.989033,-1.1606332 9.5547943,-1.5995244 14.120556,-2.038417 v 5.8252728 c 0,3.9231622 0.443175,5.5071512 1.357241,4.8510183 C 17.352204,7.2923909 16.124994,-6.0772645 13.982427,-7.6532178 11.253691,-9.660325 4.7103827,-9.1196558 2.6409277,-6.7160769 0.21956934,-3.9037807 0.19783997,1.3251299 2.5852266,6.6872128 5.1255139,12.39271 5.8308632,11.92813 5.3755776,4.8493468 Z M 12.903019,5.202875 V -0.45357675 H 9.1084077 5.313795 L 6.0479414,2.7281774 c 0.4037801,1.7499647 0.7416269,4.295368 0.7507706,5.6564517 0.011366,1.6917869 0.9795945,2.4746979 3.0604664,2.4746979 h 3.0438406 z"
           id="path3157" />
        <path
           style="fill:#6e3e00;stroke-width:1.31215"
           d="m -4.1424896,24.2934 c -2.2691317,-1.944406 -3.5036935,-3.535283 -2.7434706,-3.535283 0.760223,0 1.7542775,0.699191 2.20901,1.553757 0.4547324,0.854567 2.54166,2.420536 4.63761653,3.479932 C 2.0566235,26.851202 2.9191311,27.742888 1.877351,27.773331 0.83556968,27.803774 -1.8733579,26.237805 -4.1424896,24.2934 Z M 8.4463163,25.626242 C 8.0460975,24.414902 6.937594,23.771912 5.9829749,24.197377 3.7468281,25.19401 -2.9306709,19.489505 -2.9063094,16.603371 l 0.018644,-2.208762 1.1802487,2.121169 1.18024868,2.12117 0.0186438,-2.191875 c 0.010254,-1.205531 -0.64273948,-2.960041 -1.45109668,-3.898912 L -3.4293611,10.839125 -1.4838629,8.5795179 C -0.11483188,6.9894511 0.27878057,4.7365147 -0.15547568,0.97617203 l -0.61711,-5.34373853 2.57642548,-2.9924004 C 4.8068396,-10.847814 11.270077,-11.343921 14.787594,-8.3565771 l 2.34999,1.9957902 0.246331,8.8618464 0.24633,8.8618475 -2.492355,4.06531 c -1.625026,2.6506 -2.309086,5.51561 -1.965714,8.232889 l 0.526642,4.167576 h -2.262416 c -1.244329,0 -2.5898669,-0.991098 -2.9900857,-2.20244 z M 11.685483,22.879287 V 19.344004 H 6.0574881 0.42949452 l 1.53851178,2.153098 c 0.8902833,1.245921 2.4945956,1.800655 3.8076879,1.316608 1.4376255,-0.529954 2.5377974,-0.02345 3.0022084,1.382185 1.1323685,3.427345 2.9075804,2.623495 2.9075804,-1.316608 z m 1.943132,-8.13115 2.382262,-3.181754 -6.3501839,0.217033 c -7.06399,0.241427 -8.93303732,1.101097 -8.93303732,4.108763 0,3.561611 10.04463922,2.670865 12.90095922,-1.144042 z M 1.7169041,9.5335959 C 2.0212881,8.4730112 1.564712,7.9427188 0.65155976,8.2962471 -0.22734929,8.636518 -1.1861592,9.7501319 -1.4791288,10.770945 c -0.3043841,1.060584 0.152192,1.590877 1.06534426,1.237349 C 0.46512451,11.668023 1.4239344,10.554409 1.7169041,9.5335959 Z M 5.3755776,4.8493468 4.989033,-1.1606332 9.5547943,-1.5995244 14.120556,-2.038417 v 5.8252728 c 0,3.9231622 0.443175,5.5071512 1.357241,4.8510183 C 17.352204,7.2923909 16.124994,-6.0772645 13.982427,-7.6532178 11.253691,-9.660325 4.7103827,-9.1196558 2.6409277,-6.7160769 0.21956934,-3.9037807 0.19783997,1.3251299 2.5852266,6.6872128 5.1255139,12.39271 5.8308632,11.92813 5.3755776,4.8493468 Z M 12.903019,5.202875 V -0.45357675 H 9.1084077 5.313795 L 6.0479414,2.7281774 C 6.4517215,4.4781421 6.7895683,7.0235454 6.798712,8.3846291 6.810078,10.076416 7.7783065,10.859327 9.8591784,10.859327 H 12.903019 Z M -8.469432,17.806677 c -0.4499242,-0.845531 -0.1758533,-2.27732 0.6090465,-3.181754 l 1.4270907,-1.644427 -0.8922769,2.720201 -0.8922767,2.720198 2.1009155,-0.93636 c 1.2501899,-0.557199 1.7997038,-0.370302 1.357056,0.461554 -0.9797183,1.841158 -2.6898521,1.776888 -3.7095551,-0.139418 z"
           id="path3155" />
        <path
           style="fill:#000000;stroke-width:1.31215"
           d="m -4.1424896,24.2934 c -2.2691317,-1.944406 -3.5036935,-3.535283 -2.7434706,-3.535283 0.760223,0 1.7542775,0.699191 2.20901,1.553757 0.4547324,0.854567 2.54166,2.420536 4.63761653,3.479932 2.09595717,1.059396 2.95846477,1.951082 1.91668467,1.981525 -1.04178132,0.03044 -3.7507089,-1.535526 -6.0198406,-3.479931 z m 12.1753634,0.791448 c 0,-1.04811 -0.791317,-1.44841 -1.8927844,-0.957495 -2.3570383,1.050513 -9.0716361,-4.534087 -9.0463988,-7.523982 l 0.018644,-2.208762 1.1802487,2.121169 1.18024868,2.12117 0.0186438,-2.191875 c 0.010254,-1.205531 -0.64273948,-2.960041 -1.45109668,-3.898912 L -3.4293611,10.839125 -1.4838629,8.5795179 C -0.11483188,6.9894511 0.27878057,4.7365147 -0.15547568,0.97617203 l -0.61711,-5.34373853 2.57642548,-2.9924004 C 4.8068396,-10.847814 11.270077,-11.343921 14.787594,-8.3565771 l 2.34999,1.9957902 0.246331,8.8618464 0.24633,8.8618475 -2.257067,3.681529 c -1.241387,2.024843 -2.496868,5.570555 -2.789956,7.87936 l -0.532887,4.19783 -0.182426,-3.888811 -0.182426,-3.888811 H 6.0574881 0.42949452 l 1.53851178,2.153098 c 0.8502702,1.189925 2.5050908,1.796786 3.6992261,1.356591 2.1609565,-0.796597 4.4748456,1.582502 3.0963288,3.183588 -0.4018783,0.466762 -0.7306874,0.03817 -0.7306874,-0.952433 z M 14.058881,14.172944 c 1.987667,-2.655106 2.230602,-3.497586 0.828334,-2.872608 l -1.984196,0.88434 V 5.8655495 -0.45357675 H 9.2737017 5.6443853 L 6.423387,6.1474784 7.2023887,12.748534 5.3309221,11.914436 c -2.0863874,-0.929885 -4.60326632,1.353989 -4.60326632,4.177109 0,1.22467 1.75567642,1.838346 5.25934912,1.838346 H 11.246353 Z M 1.7169041,9.5335959 C 2.0212881,8.4730112 1.564712,7.9427188 0.65155976,8.2962471 -0.22734929,8.636518 -1.1861592,9.7501319 -1.4791288,10.770945 c -0.3043841,1.060584 0.152192,1.590877 1.06534426,1.237349 C 0.46512451,11.668023 1.4239344,10.554409 1.7169041,9.5335959 Z M 5.3755776,4.8493468 4.989033,-1.1606332 9.5547943,-1.5995244 14.120556,-2.038417 v 5.8252728 c 0,3.9231622 0.443175,5.5071512 1.357241,4.8510183 C 17.352204,7.2923909 16.124994,-6.0772645 13.982427,-7.6532178 11.253691,-9.660325 4.7103827,-9.1196558 2.6409277,-6.7160769 0.21956934,-3.9037807 0.19783997,1.3251299 2.5852266,6.6872128 5.1255139,12.39271 5.8308632,11.92813 5.3755776,4.8493468 Z M -8.469432,17.806677 c -0.4499242,-0.845531 -0.1758533,-2.27732 0.6090465,-3.181754 l 1.4270907,-1.644427 -0.8922769,2.720201 -0.8922767,2.720198 2.1009155,-0.93636 c 1.2501899,-0.557199 1.7997038,-0.370302 1.357056,0.461554 -0.9797183,1.841158 -2.6898521,1.776888 -3.7095551,-0.139418 z"
           id="path3153" />
      </g>
      <g
         id="g3303"
         transform="matrix(0.17489744,0,0,0.18534893,-9.7660597,2.205889)">
        <path
           style="fill:#fefefe;stroke-width:1.31215"
           d="m -12.607419,11.380173 c 0,-1.9444056 -0.410918,-3.6164952 -0.913152,-3.715756 -0.502234,-0.099261 -2.182431,-0.3325867 -3.733772,-0.5185015 -3.688022,-0.4419782 -5.606475,-2.7788719 -4.652263,-5.6669855 0.907298,-2.746121 5.388058,-1.60136409 7.733872,1.9758693 l 1.487872,2.2689216 0.03872,-2.191875 c 0.0213,-1.2055313 -0.622662,-2.96004105 -1.431019,-3.89891163 l -1.46974,-1.70703657 1.945498,-2.2596068 c 1.369031,-1.5900668 1.762644,-3.8430032 1.328387,-7.6033459 l -0.61711,-5.343738 2.576426,-2.992401 c 3.0029996,-3.487847 9.46623652,-3.983954 12.9837538,-0.99661 l 2.34999,1.99579 0.2463308,8.861847 0.2463307,8.8618465 L 3.020352,2.5149898 C 1.3953257,5.1655903 0.71126629,8.0306001 1.0546383,10.747879 L 1.58128,14.915455 h -2.16370452 c -1.19003708,0 -2.69389898,-1.100369 -3.34191568,-2.445264 l -1.1782111,-2.445266 -2.3263832,2.445266 c -3.2735205,3.440802 -5.1784845,3.039828 -5.1784845,-1.090018 z"
           id="path3321" />
        <path
           style="fill:#cdcdcd;stroke-width:1.31215"
           d="M -12.607419,11.991935 V 9.0684162 l 2.7394572,0.8540125 2.7394568,0.8540123 -3.479509,-2.2978867 c -1.91373,-1.263838 -4.49075,-1.9907458 -5.726711,-1.6153511 -3.155602,0.9584419 -6.597771,-2.2792092 -5.608039,-5.2748336 0.942059,-2.8513324 5.374498,-1.78662136 7.77003,1.8664297 l 1.487872,2.2689216 0.03872,-2.191875 c 0.0213,-1.2055313 -0.622662,-2.96004105 -1.431019,-3.89891163 l -1.46974,-1.70703657 1.945498,-2.2596068 c 1.369031,-1.5900668 1.762644,-3.8430032 1.328387,-7.6033459 l -0.61711,-5.343738 2.576426,-2.992401 c 3.0029996,-3.487847 9.46623652,-3.983954 12.9837538,-0.99661 l 2.34999,1.99579 0.2463308,8.861847 0.2463307,8.8618465 L 3.020352,2.5149898 C 1.3953257,5.1655903 0.71126629,8.0306001 1.0546383,10.747879 L 1.58128,14.915455 h -2.16370452 c -1.19003708,0 -2.69389898,-1.100369 -3.34191568,-2.445264 l -1.1782111,-2.445266 -2.3263832,2.445266 c -3.1170415,3.276327 -5.1784845,3.085943 -5.1784845,-0.478256 z"
           id="path3319" />
        <path
           style="fill:#e7cfa9;stroke-width:1.31215"
           d="M -12.607419,12.060287 V 9.2051199 l 3.0438413,0.8872991 C -5.961119,11.142559 -5.3532469,8.4654823 -8.8974891,7.1589635 -10.205253,6.6768811 -12.133933,4.2832546 -13.183443,1.8397947 l -1.908201,-4.442655 1.717871,-1.9952285 c 1.136344,-1.3198114 1.508969,-3.8041674 1.100759,-7.3389662 l -0.61711,-5.343738 2.576426,-2.992401 c 3.0029996,-3.487847 9.46623652,-3.983954 12.9837538,-0.99661 l 2.34999,1.99579 0.2463308,8.861847 0.2463307,8.8618465 L 3.020352,2.5149898 C 1.3953257,5.1655903 0.71126629,8.0306001 1.0546383,10.747879 L 1.58128,14.915455 h -2.16370452 c -1.19003708,0 -2.69389898,-1.100369 -3.34191568,-2.445264 l -1.1782111,-2.445266 -2.3263832,2.445266 c -3.0977635,3.256063 -5.1784845,3.091364 -5.1784845,-0.409904 z m -7.609602,-5.7598795 c -2.228936,-1.4899518 -2.849005,-4.8435475 -1.124445,-6.08146766 1.281291,-0.91973481 6.298975,0.56522377 6.298975,1.86415016 0,0.5383966 -0.684864,2.028009 -1.521921,3.3102503 -1.137678,1.7427457 -2.059859,1.9717556 -3.652609,0.9070672 z"
           id="path3317" />
        <path
           style="fill:#979797;stroke-width:1.31215"
           d="M -12.607419,12.060287 V 9.2051199 l 3.0438413,0.8872991 C -5.961119,11.142559 -5.3532469,8.4654823 -8.8974891,7.1589635 -10.205253,6.6768811 -12.133933,4.2832546 -13.183443,1.8397947 l -1.908201,-4.442655 1.717871,-1.9952285 c 1.136344,-1.3198114 1.508969,-3.8041674 1.100759,-7.3389662 l -0.61711,-5.343738 2.576426,-2.992401 c 3.0029996,-3.487847 9.46623652,-3.983954 12.9837538,-0.99661 l 2.34999,1.99579 0.2463308,8.861847 0.2463307,8.8618465 L 3.020352,2.5149898 C 1.3953257,5.1655903 0.71126629,8.0306001 1.0546383,10.747879 L 1.58128,14.915455 h -2.16370452 c -1.19003708,0 -2.69389898,-1.100369 -3.34191568,-2.445264 l -1.1782111,-2.445266 -2.3263832,2.445266 c -3.0977635,3.256063 -5.1784845,3.091364 -5.1784845,-0.409904 z M 0.78548122,-5.5057259 c 0,-1.8985046 -0.60638545,-3.8871009 -1.34752418,-4.4191029 -0.93936584,-0.6742942 -0.84716914,-1.3355052 0.30438409,-2.1829722 1.09497183,-0.805826 0.21519468,-1.185356 -2.60946893,-1.125708 -2.3437575,0.04949 -3.576513,0.410952 -2.7394568,0.803245 0.8370563,0.392292 1.5219204,1.334135 1.5219204,2.092985 0,0.7588499 -0.4487534,1.0576039 -0.9972304,0.6638978 -0.548477,-0.3937078 -0.760237,1.1596151 -0.470579,3.4518257 l 0.5266526,4.1676552 h 2.9056505 2.90565172 z M -20.217021,6.3004075 c -2.228936,-1.4899518 -2.849005,-4.8435475 -1.124445,-6.08146766 1.281291,-0.91973481 6.298975,0.56522377 6.298975,1.86415016 0,0.5383966 -0.684864,2.028009 -1.521921,3.3102503 -1.137678,1.7427457 -2.059859,1.9717556 -3.652609,0.9070672 z"
           id="path3315" />
        <path
           style="fill:#8837b8;stroke-width:1.31215"
           d="m -12.607419,12.087229 c 0,-2.9951929 1.773071,-3.8022385 3.0561153,-1.391046 0.8389629,1.57664 3.0315669,0.54575 3.0315669,-1.4253422 0,-0.6794502 -1.0699892,-1.6297949 -2.3777523,-2.1118773 C -10.205253,6.6768811 -12.133933,4.2832546 -13.183443,1.8397947 l -1.908201,-4.442655 1.717871,-1.9952285 c 1.136344,-1.3198114 1.508969,-3.8041674 1.100759,-7.3389662 l -0.61711,-5.343738 2.576426,-2.992401 c 3.0029996,-3.487847 9.46623652,-3.983954 12.9837538,-0.99661 l 2.34999,1.99579 0.2463308,8.861847 0.2463307,8.8618465 L 3.020352,2.5149898 C 1.3953257,5.1655903 0.71126629,8.0306001 1.0546383,10.747879 L 1.58128,14.915455 h -2.16370452 c -1.19003708,0 -2.69389898,-1.100369 -3.34191568,-2.445264 l -1.1782111,-2.445266 -2.3263832,2.445266 c -3.0900535,3.247961 -5.1784845,3.093516 -5.1784845,-0.382962 z M -0.84324028,7.4913621 C -1.1810007,6.5191594 -1.4573486,7.314598 -1.4573486,9.2590032 c 0,1.9444058 0.2763479,2.7398438 0.61410832,1.7676408 0.33775919,-0.972202 0.33775919,-2.5630793 0,-3.5352819 z M 0.54197395,3.3197289 C 2.51763,1.0250945 2.3820585,-0.63978731 0.21955085,-0.63978731 c -0.98090694,0 -2.36991255,1.27270164 -3.08667865,2.82822591 l -1.303212,2.8282258 h 1.6256351 c 0.894099,0 2.28310466,-0.7636209 3.08667865,-1.6969355 z m 0.24350727,-8.8254548 c 0,-1.8985046 -0.60638545,-3.8871009 -1.34752418,-4.4191029 -0.93936584,-0.6742942 -0.84716914,-1.3355052 0.30438409,-2.1829722 1.09497183,-0.805826 0.21519468,-1.185356 -2.60946893,-1.125708 -2.3437575,0.04949 -3.576513,0.410952 -2.7394568,0.803245 0.8370563,0.392292 1.5219204,1.334135 1.5219204,2.092985 0,0.7588499 -0.4487534,1.0576039 -0.9972304,0.6638978 -0.548477,-0.3937078 -0.760237,1.1596151 -0.470579,3.4518257 l 0.5266526,4.1676552 h 2.9056505 2.90565172 z M 4.0317667,-14.312966 c -0.7806356,-5.587171 -2.4455983,-7.547293 -6.2901263,-7.405221 l -2.4350727,0.08999 3.3096789,1.405392 c 2.4340354,1.033567 3.516788,2.687626 4.0924928,6.251867 1.0537058,6.523575 2.239456,6.2170391 1.3230273,-0.342025 z M -20.217021,6.3004075 c -2.228936,-1.4899518 -2.849005,-4.8435475 -1.124445,-6.08146766 1.281291,-0.91973481 6.298975,0.56522377 6.298975,1.86415016 0,0.5383966 -0.684864,2.028009 -1.521921,3.3102503 -1.137678,1.7427457 -2.059859,1.9717556 -3.652609,0.9070672 z"
           id="path3313" />
        <path
           style="fill:#727272;stroke-width:1.31215"
           d="m -12.607419,12.087229 c 0,-2.9951929 1.773071,-3.8022385 3.0561153,-1.391046 0.8389629,1.57664 3.0315669,0.54575 3.0315669,-1.4253422 0,-0.6794502 -1.0699892,-1.6297949 -2.3777523,-2.1118773 C -10.205253,6.6768811 -12.133933,4.2832546 -13.183443,1.8397947 l -1.908201,-4.442655 1.717871,-1.9952285 c 1.136344,-1.3198114 1.508969,-3.8041674 1.100759,-7.3389662 l -0.61711,-5.343738 2.576426,-2.992401 c 3.0029996,-3.487847 9.46623652,-3.983954 12.9837538,-0.99661 l 2.34999,1.99579 0.2463308,8.861847 0.2463307,8.8618465 L 3.020352,2.5149898 C 1.3953257,5.1655903 0.71126629,8.0306001 1.0546383,10.747879 L 1.58128,14.915455 h -2.16370452 c -1.19003708,0 -2.69389898,-1.100369 -3.34191568,-2.445264 l -1.1782111,-2.445266 -2.3263832,2.445266 c -3.0900535,3.247961 -5.1784845,3.093516 -5.1784845,-0.382962 z M -0.84324028,7.4913621 C -1.1810007,6.5191594 -1.4573486,7.314598 -1.4573486,9.2590032 c 0,1.9444058 0.2763479,2.7398438 0.61410832,1.7676408 0.33775919,-0.972202 0.33775919,-2.5630793 0,-3.5352819 z M 0.54197395,3.3197289 C 2.51763,1.0250945 2.3820585,-0.63978731 0.21955085,-0.63978731 c -0.98090694,0 -2.36991255,1.27270164 -3.08667865,2.82822591 l -1.303212,2.8282258 h 1.6256351 c 0.894099,0 2.28310466,-0.7636209 3.08667865,-1.6969355 z M 0.78548122,-7.710352 v -5.656452 H -3.0091303 -6.803743 l 0.7341464,3.181754 c 0.4037801,1.7499651 0.7416269,4.2953684 0.7507706,5.6564521 0.011366,1.6917867 0.9795945,2.4746976 3.0604664,2.4746976 h 3.04384082 z m 3.24628548,-6.602614 c -0.7806356,-5.587171 -2.4455983,-7.547293 -6.2901263,-7.405221 l -2.4350727,0.08999 3.3096789,1.405392 c 2.4340354,1.033567 3.516788,2.687626 4.0924928,6.251867 1.0537058,6.523575 2.239456,6.2170391 1.3230273,-0.342025 z M -20.217021,6.3004075 c -2.228936,-1.4899518 -2.849005,-4.8435475 -1.124445,-6.08146766 1.281291,-0.91973481 6.298975,0.56522377 6.298975,1.86415016 0,0.5383966 -0.684864,2.028009 -1.521921,3.3102503 -1.137678,1.7427457 -2.059859,1.9717556 -3.652609,0.9070672 z"
           id="path3311" />
        <path
           style="fill:#555555;stroke-width:1.31215"
           d="m -12.570394,11.733701 0.03702,-3.1817542 1.290773,2.5779722 1.290774,2.577973 2.434778,-2.5592 2.434778,-2.5591991 1.5461787,2.4559241 c 2.1434605,3.404642 3.10403217,3.070626 3.10403217,-1.0793573 V 6.4307774 H -5.8217939 -11.211533 l -1.940056,-4.5168182 -1.940055,-4.5168195 1.717871,-1.9952285 c 1.136344,-1.3198114 1.508969,-3.8041674 1.100759,-7.3389662 l -0.61711,-5.343738 2.576426,-2.992401 c 3.0029996,-3.487847 9.46623652,-3.983954 12.9837538,-0.99661 l 2.34999,1.99579 0.2463308,8.861847 0.2463307,8.8618465 L 3.020352,2.5149898 C 1.3953257,5.1655903 0.71126629,8.0306001 1.0546383,10.747879 L 1.58128,14.915455 h -2.16370452 c -1.19003708,0 -2.69389898,-1.100369 -3.34191568,-2.445264 l -1.1782111,-2.445266 -2.3263832,2.445266 c -3.1885845,3.351525 -5.1857005,3.065447 -5.1414595,-0.73649 z m 14.0814709,-9.8987907 2.382262,-3.1817541 -6.3501838,0.2170324 c -7.06399,0.24142728 -8.9330371,1.10109764 -8.9330371,4.1087631 0,3.5616117 10.0446393,2.6708648 12.9009589,-1.1440414 z M -10.400634,-3.3796311 c 0.304384,-1.0605847 -0.152192,-1.5908771 -1.065344,-1.2373488 -0.878909,0.3402709 -1.837719,1.4538848 -2.130689,2.4746976 -0.304384,1.0605847 0.152192,1.59087705 1.065344,1.23734881 0.87891,-0.34027091 1.837719,-1.45388491 2.130689,-2.47469761 z m 3.6586736,-4.6842491 -0.3865446,-6.0099798 4.5657613,-0.438891 4.5657613,-0.438893 v 5.8252728 c 0,3.9231622 0.4431759,5.5071512 1.3572413,4.8510183 1.8744069,-1.3454832 0.6471973,-14.7151381 -1.4953696,-16.2910921 -2.72873638,-2.007107 -9.2720446,-1.466438 -11.3414996,0.937141 -2.4213587,2.812296 -2.4430877,8.041207 -0.055701,13.4032898 2.5402873,5.70549741 3.2456366,5.24091748 2.7903509,-1.837866 z m 7.52744162,0.3535282 v -5.656452 H -3.0091303 -6.803743 l 0.7341464,3.181754 c 0.4037801,1.7499651 0.7416269,4.2953684 0.7507706,5.6564521 0.011366,1.6917867 0.9795945,2.4746976 3.0604664,2.4746976 H 0.78548122 Z M -20.429175,5.9769164 c -2.489871,-2.1145881 -1.938168,-6.69976446 0.78271,-6.50506374 l 1.560133,0.11164139 -1.521921,0.71325877 c -2.140917,1.00335558 -1.901239,4.71991158 0.304385,4.71991158 1.004467,0 1.826304,-0.9545262 1.826304,-2.1211694 0,-1.1666431 0.547891,-2.12116938 1.217536,-2.12116938 1.65146,0 1.530785,1.79010998 -0.318712,4.72782078 l -1.536249,2.4401523 z"
           id="path3309" />
        <path
           style="fill:#6e3e00;stroke-width:1.31215"
           d="m -12.570394,11.733701 0.03702,-3.1817542 1.290773,2.5779722 1.290774,2.577973 2.434778,-2.5592 2.434778,-2.5591991 1.5461787,2.4559241 c 2.1434605,3.404642 3.10403217,3.070626 3.10403217,-1.0793573 V 6.4307774 H -5.8217939 -11.211533 l -1.940056,-4.5168182 -1.940055,-4.5168195 1.717871,-1.9952285 c 1.136344,-1.3198114 1.508969,-3.8041674 1.100759,-7.3389662 l -0.61711,-5.343738 2.576426,-2.992401 c 3.0029996,-3.487847 9.46623652,-3.983954 12.9837538,-0.99661 l 2.34999,1.99579 0.2463308,8.861847 0.2463307,8.8618465 L 3.020352,2.5149898 C 1.3953257,5.1655903 0.71126629,8.0306001 1.0546383,10.747879 L 1.58128,14.915455 h -2.16370452 c -1.19003708,0 -2.69389898,-1.100369 -3.34191568,-2.445264 l -1.1782111,-2.445266 -2.3263832,2.445266 c -3.1885845,3.351525 -5.1857005,3.065447 -5.1414595,-0.73649 z m 14.0814709,-9.8987907 2.382262,-3.1817541 -6.3501838,0.2170324 c -7.06399,0.24142728 -8.9330371,1.10109764 -8.9330371,4.1087631 0,3.5616117 10.0446393,2.6708648 12.9009589,-1.1440414 z M -10.400634,-3.3796311 c 0.304384,-1.0605847 -0.152192,-1.5908771 -1.065344,-1.2373488 -0.878909,0.3402709 -1.837719,1.4538848 -2.130689,2.4746976 -0.304384,1.0605847 0.152192,1.59087705 1.065344,1.23734881 0.87891,-0.34027091 1.837719,-1.45388491 2.130689,-2.47469761 z m 3.6586736,-4.6842491 -0.3865446,-6.0099798 4.5657613,-0.438891 4.5657613,-0.438893 v 5.8252728 c 0,3.9231622 0.4431759,5.5071512 1.3572413,4.8510183 1.8744069,-1.3454832 0.6471973,-14.7151381 -1.4953696,-16.2910921 -2.72873638,-2.007107 -9.2720446,-1.466438 -11.3414996,0.937141 -2.4213587,2.812296 -2.4430877,8.041207 -0.055701,13.4032898 2.5402873,5.70549741 3.2456366,5.24091748 2.7903509,-1.837866 z m 7.52744162,0.3535282 v -5.656452 H -3.0091303 -6.803743 l 0.7341464,3.181754 c 0.4037801,1.7499651 0.7416269,4.2953684 0.7507706,5.6564521 0.011366,1.6917867 0.9795945,2.4746976 3.0604664,2.4746976 H 0.78548122 Z M -21.850513,4.4818384 c -0.86044,-2.6042968 0.321606,-5.16338871 2.314116,-5.00998574 1.045563,0.0804984 1.025519,0.31060708 -0.07186,0.82490016 -0.837056,0.3922919 -1.52192,1.61475578 -1.52192,2.71658448 0,2.2992317 3.140773,2.7267859 4.068601,0.5538614 0.340403,-0.7972062 0.477631,-0.6381185 0.304952,0.3535282 -0.4617,2.6514165 -4.264859,3.0703475 -5.093893,0.5611115 z"
           id="path3307" />
        <path
           style="fill:#000000;stroke-width:1.31215"
           d="m -7.5497251,11.488928 c 2.0488093,-2.6090909 4.6977873,-2.0210815 4.6639532,1.035286 -0.011688,1.057148 -0.4304527,0.928309 -1.1247406,-0.346055 l -1.1060977,-2.030239 -2.2234844,1.952791 -2.2234831,1.95279 z m 7.30009588,-1.16934 -0.18242591,-3.8888106 H -5.8217939 -11.211533 l -1.940056,-4.5168182 -1.940055,-4.5168195 1.717871,-1.9952285 c 1.136344,-1.3198114 1.508969,-3.8041674 1.100759,-7.3389662 l -0.61711,-5.343738 2.576426,-2.992401 c 3.0029996,-3.487847 9.46623652,-3.983954 12.9837538,-0.99661 l 2.34999,1.99579 0.2463308,8.861847 0.2463307,8.8618465 -2.2570676,3.6815299 C 2.014253,4.1560523 0.75877212,7.7017637 0.46568434,10.010569 l -0.53288765,4.19783 z M 1.9413433,1.2597171 c 1.987667,-2.655106 2.230602,-3.4975864 0.8283338,-2.8726078 L 0.78548122,-0.72855118 V -7.0476775 -13.366804 H -2.8438363 -6.4731527 l 0.7790017,6.6010554 0.7790017,6.60105515 -1.8714666,-0.83409754 c -2.0863874,-0.92988531 -4.6032661,1.3539891 -4.6032661,4.17710859 0,1.2246699 1.7556762,1.8383468 5.2593489,1.8383468 h 5.25934792 z M -10.400634,-3.3796311 c 0.304384,-1.0605847 -0.152192,-1.5908771 -1.065344,-1.2373488 -0.878909,0.3402709 -1.837719,1.4538848 -2.130689,2.4746976 -0.304384,1.0605847 0.152192,1.59087705 1.065344,1.23734881 0.87891,-0.34027091 1.837719,-1.45388491 2.130689,-2.47469761 z m 3.6586736,-4.6842491 -0.3865446,-6.0099798 4.5657613,-0.438891 4.5657613,-0.438893 v 5.8252728 c 0,3.9231622 0.4431759,5.5071512 1.3572413,4.8510183 1.8744069,-1.3454832 0.6471973,-14.7151381 -1.4953696,-16.2910921 -2.72873638,-2.007107 -9.2720446,-1.466438 -11.3414996,0.937141 -2.4213587,2.812296 -2.4430877,8.041207 -0.055701,13.4032898 2.5402873,5.70549741 3.2456366,5.24091748 2.7903509,-1.837866 z M -21.850513,4.4818384 c -0.86044,-2.6042968 0.321606,-5.16338871 2.314116,-5.00998574 1.045563,0.0804984 1.025519,0.31060708 -0.07186,0.82490016 -0.837056,0.3922919 -1.52192,1.61475578 -1.52192,2.71658448 0,2.2992317 3.140773,2.7267859 4.068601,0.5538614 0.340403,-0.7972062 0.477631,-0.6381185 0.304952,0.3535282 -0.4617,2.6514165 -4.264859,3.0703475 -5.093893,0.5611115 z"
           id="path3305" />
      </g>
    </g>
  </g>
</svg>
