<?xml version="1.0" encoding="UTF-8" standalone="no"?>
<svg
   xmlns:dc="http://purl.org/dc/elements/1.1/"
   xmlns:cc="http://creativecommons.org/ns#"
   xmlns:rdf="http://www.w3.org/1999/02/22-rdf-syntax-ns#"
   xmlns:svg="http://www.w3.org/2000/svg"
   xmlns="http://www.w3.org/2000/svg"
   xmlns:sodipodi="http://sodipodi.sourceforge.net/DTD/sodipodi-0.dtd"
   xmlns:inkscape="http://www.inkscape.org/namespaces/inkscape"
   width="4"
   height="6"
   viewBox="0 0 1.0583333 1.5875002"
   version="1.1"
   id="svg1634"
   inkscape:version="1.0.2-2 (e86c870879, 2021-01-15)"
   sodipodi:docname="Gal.svg">
  <defs
     id="defs1628" />
  <sodipodi:namedview
     id="base"
     pagecolor="#ffffff"
     bordercolor="#666666"
     borderopacity="1.0"
     inkscape:pageopacity="0.0"
     inkscape:pageshadow="2"
     inkscape:zoom="29.238865"
     inkscape:cx="3.0144401"
     inkscape:cy="0.99094433"
     inkscape:document-units="mm"
     inkscape:current-layer="g2261"
     inkscape:document-rotation="0"
     showgrid="false"
     units="px"
     inkscape:window-width="1920"
     inkscape:window-height="1017"
     inkscape:window-x="-8"
     inkscape:window-y="-8"
     inkscape:window-maximized="1" />
  <metadata
     id="metadata1631">
    <rdf:RDF>
      <cc:Work
         rdf:about="">
        <dc:format>image/svg+xml</dc:format>
        <dc:type
           rdf:resource="http://purl.org/dc/dcmitype/StillImage" />
        <dc:title></dc:title>
      </cc:Work>
    </rdf:RDF>
  </metadata>
  <g
     inkscape:label="Layer 1"
     inkscape:groupmode="layer"
     id="layer1">
    <g
       id="g2261"
       transform="matrix(0.21731043,0,0,0.18710199,2.9710783,0.39293503)">
      <g
         id="g2889"
         transform="matrix(0.16297055,0,0,0.19130128,-8.9573256,2.1980102)">
        <path
           style="fill:#e7cfa9;stroke-width:1.31215"
           d="m -18.837043,20.394389 c -1.593945,-1.078121 -1.844427,-2.08532 -0.98334,-3.954049 1.915808,-4.157682 -0.119082,-22.7955967 -2.488827,-22.7955967 -2.619323,0 -0.659745,-4.6624593 4.457579,-10.6059983 5.786872,-6.721188 6.784001,-6.826428 10.6776011,-1.12695 1.2204815,1.786549 3.0183237,3.248271 3.9952055,3.248271 2.28352711,0 3.53848078,3.76026 2.0117876,6.0279883 -1.9015227,2.8244941 -2.6761449,8.25660953 -1.533067,10.7507837 2.38885504,5.2124359 3.7866209,15.9804 2.33761016,18.00824 -1.87244546,2.620427 -6.51797616,2.52313 -8.44731826,-0.176921 -1.3812771,-1.933051 -1.7541031,-1.933051 -3.5931751,0 -2.381771,2.503484 -3.495876,2.611574 -6.434056,0.624232 z m -6.014115,-2.709726 c -1.189585,-3.230136 -2.198431,-9.8422739 -2.696976,-17.67641153 -0.247474,-3.88881057 -0.778176,-8.02509097 -1.179338,-9.19173407 -0.401162,-1.1666434 -0.18725,-3.0756954 0.475361,-4.2423384 1.070886,-1.885484 1.33694,-1.885484 2.394489,0 0.654358,1.166643 0.907571,3.175541 0.562696,4.4642184 -0.344875,1.2886768 -0.02351,5.1268678 0.714135,8.52931264 1.372912,6.33263246 1.139902,21.94632696 -0.270367,18.11695296 z"
           id="path2907" />
        <path
           style="fill:#979797;stroke-width:1.31215"
           d="m -18.837043,20.394389 c -1.593945,-1.078121 -1.844427,-2.08532 -0.98334,-3.954049 1.915808,-4.157682 -0.119082,-22.7955967 -2.488827,-22.7955967 -2.619323,0 -0.659745,-4.6624593 4.457579,-10.6059983 5.786872,-6.721188 6.784001,-6.826428 10.6776011,-1.12695 1.2204815,1.786549 3.0183237,3.248271 3.9952055,3.248271 2.28352711,0 3.53848078,3.76026 2.0117876,6.0279883 -1.9015227,2.8244941 -2.6761449,8.25660953 -1.533067,10.7507837 2.38885504,5.2124359 3.7866209,15.9804 2.33761016,18.00824 -1.87244546,2.620427 -6.51797616,2.52313 -8.44731826,-0.176921 -1.3812771,-1.933051 -1.7541031,-1.933051 -3.5931751,0 -2.381771,2.503484 -3.495876,2.611574 -6.434056,0.624232 z M -8.053437,3.8754077 c 1.3270026,-1.0291221 4.1392632,-6.4756403 4.1392632,-8.0165298 0,-1.5516044 -2.2839849,-0.7734873 -4.1744098,1.4221564 -1.0522996,1.2221966 -1.9132724,1.540372 -1.9132724,0.7070564 0,-2.1446931 -4.862199,-1.8944871 -4.907169,0.2525196 -0.02055,0.98099842 -0.589303,0.6663413 -1.278036,-0.7070565 -1.802864,-3.5950866 -3.880258,-3.0849595 -2.879351,0.7070565 0.461905,1.74996476 1.38775,3.9771926 2.057433,4.9493953 1.327512,1.9271998 6.812963,2.347023 8.955542,0.6854021 z M -24.851158,17.684663 c -1.189585,-3.230136 -2.198431,-9.8422739 -2.696976,-17.67641153 -0.247474,-3.88881057 -0.778176,-8.02509097 -1.179338,-9.19173407 -0.401162,-1.1666434 -0.18725,-3.0756954 0.475361,-4.2423384 1.070886,-1.885484 1.33694,-1.885484 2.394489,0 0.654358,1.166643 0.907571,3.175541 0.562696,4.4642184 -0.344875,1.2886768 -0.02351,5.1268678 0.714135,8.52931264 1.372912,6.33263246 1.139902,21.94632696 -0.270367,18.11695296 z"
           id="path2905" />
        <path
           style="fill:#b0bb3d;stroke-width:1.31215"
           d="m -18.837043,20.394389 c -1.593945,-1.078121 -1.844427,-2.08532 -0.98334,-3.954049 1.915808,-4.157682 -0.119082,-22.7955967 -2.488827,-22.7955967 -2.619323,0 -0.659745,-4.6624593 4.457579,-10.6059983 5.786872,-6.721188 6.784001,-6.826428 10.6776011,-1.12695 1.2204815,1.786549 3.0183237,3.248271 3.9952055,3.248271 2.28352711,0 3.53848078,3.76026 2.0117876,6.0279883 -1.9015227,2.8244941 -2.6761449,8.25660953 -1.533067,10.7507837 2.38885504,5.2124359 3.7866209,15.9804 2.33761016,18.00824 -1.87244546,2.620427 -6.51797616,2.52313 -8.44731826,-0.176921 -1.3812771,-1.933051 -1.7541031,-1.933051 -3.5931751,0 -2.381771,2.503484 -3.495876,2.611574 -6.434056,0.624232 z M -8.053437,3.8754077 c 1.3270026,-1.0291221 4.1392632,-6.4756403 4.1392632,-8.0165298 0,-1.5516044 -2.2839849,-0.7734873 -4.1744098,1.4221564 -1.0522996,1.2221966 -1.9132724,1.540372 -1.9132724,0.7070564 0,-2.1446931 -4.862199,-1.8944871 -4.907169,0.2525196 -0.02055,0.98099842 -0.589303,0.6663413 -1.278036,-0.7070565 -1.802864,-3.5950866 -3.880258,-3.0849595 -2.879351,0.7070565 0.461905,1.74996476 1.38775,3.9771926 2.057433,4.9493953 1.327512,1.9271998 6.812963,2.347023 8.955542,0.6854021 z M -25.160526,17.331135 c -1.26019,-4.721316 -2.086649,-10.6610767 -2.016019,-14.4891426 0.043,-2.33025168 -0.425363,-6.3549147 -1.040795,-8.943693 -1.128865,-4.7485034 -0.594674,-8.7382334 1.169976,-8.7382334 1.653929,0 2.533968,4.521205 1.23412,6.3402994 -1.398102,1.9565978 -0.294045,10.6290555 1.353144,10.6290555 0.58594,0 1.065345,1.2727016 1.065345,2.8282258 0,1.5555243 -0.474324,2.8282259 -1.054053,2.8282259 -0.579729,0 -0.653297,2.5454034 -0.163484,5.6564514 0.837435,5.318966 0.490449,7.780248 -0.548234,3.888811 z"
           id="path2903" />
        <path
           style="fill:#8837b8;stroke-width:1.31215"
           d="m -18.837043,20.394389 c -1.593945,-1.078121 -1.844427,-2.08532 -0.98334,-3.954049 1.915808,-4.157682 -0.119082,-22.7955967 -2.488827,-22.7955967 -2.619323,0 -0.659745,-4.6624593 4.457579,-10.6059983 5.786872,-6.721188 6.784001,-6.826428 10.6776011,-1.12695 1.2204815,1.786549 3.0183237,3.248271 3.9952055,3.248271 2.28352711,0 3.53848078,3.76026 2.0117876,6.0279883 -1.9015227,2.8244941 -2.6761449,8.25660953 -1.533067,10.7507837 2.38885504,5.2124359 3.7866209,15.9804 2.33761016,18.00824 -1.87244546,2.620427 -6.51797616,2.52313 -8.44731826,-0.176921 -1.3812771,-1.933051 -1.7541031,-1.933051 -3.5931751,0 -2.381771,2.503484 -3.495876,2.611574 -6.434056,0.624232 z M -8.053437,3.8754077 c 1.3270026,-1.0291221 4.1392632,-6.4756403 4.1392632,-8.0165298 0,-1.5516044 -2.2839849,-0.7734873 -4.1744098,1.4221564 -1.0522996,1.2221966 -1.9132724,1.540372 -1.9132724,0.7070564 0,-2.1446931 -4.862199,-1.8944871 -4.907169,0.2525196 -0.02055,0.98099842 -0.589303,0.6663413 -1.278036,-0.7070565 -1.802864,-3.5950866 -3.880258,-3.0849595 -2.879351,0.7070565 0.461905,1.74996476 1.38775,3.9771926 2.057433,4.9493953 1.327512,1.9271998 6.812963,2.347023 8.955542,0.6854021 z M -25.160526,17.331135 c -1.26019,-4.721316 -2.086649,-10.6610767 -2.016019,-14.4891426 0.043,-2.33025168 -0.425363,-6.3549147 -1.040795,-8.943693 -1.128865,-4.7485034 -0.594674,-8.7382334 1.169976,-8.7382334 1.653929,0 2.533968,4.521205 1.23412,6.3402994 -1.398102,1.9565978 -0.294045,10.6290555 1.353144,10.6290555 0.58594,0 1.065345,1.2727016 1.065345,2.8282258 0,1.5555243 -0.474324,2.8282259 -1.054053,2.8282259 -0.579729,0 -0.653297,2.5454034 -0.163484,5.6564514 0.837435,5.318966 0.490449,7.780248 -0.548234,3.888811 z"
           id="path2901" />
        <path
           style="fill:#552372;stroke-width:1.31215"
           d="m -18.837043,20.394389 c -1.593945,-1.078121 -1.844427,-2.08532 -0.98334,-3.954049 1.915808,-4.157682 -0.119082,-22.7955967 -2.488827,-22.7955967 -2.619323,0 -0.659745,-4.6624593 4.457579,-10.6059983 5.786872,-6.721188 6.784001,-6.826428 10.6776011,-1.12695 1.2204815,1.786549 3.0183237,3.248271 3.9952055,3.248271 2.28352711,0 3.53848078,3.76026 2.0117876,6.0279883 -1.9450313,2.8891219 -2.7267469,8.55894405 -1.4302119,10.3734008 0.6682582,0.9352067 1.3301925,4.5608494 1.4709653,8.0569849 0.14077276,3.496135 0.66686899,6.067367 1.16910274,5.713848 1.49512736,-1.052413 1.03519076,3.059101 -0.54789136,4.897778 -2.03531168,2.363922 -6.46212528,2.118769 -8.30473988,-0.459909 -1.3812771,-1.933051 -1.7541031,-1.933051 -3.5931751,0 -2.381771,2.503484 -3.495876,2.611574 -6.434056,0.624232 z M -2.185092,8.0527369 C -3.5931448,0.56440936 -3.9311889,-0.1266846 -5.1060396,2.0811798 -5.7672203,3.323717 -5.5477898,5.101479 -4.5236238,6.7997594 c 0.9038089,1.4987023 1.3175667,3.7107756 0.9194628,4.9157166 -0.476976,1.443662 -0.2365162,1.841004 0.7050862,1.165106 0.8411448,-0.603791 1.134834,-2.589668 0.7139828,-4.8278451 z M -12.436928,7.2436692 c 0,-0.298211 -1.369729,-0.8463183 -3.043841,-1.2180151 -1.674113,-0.3716967 -3.043841,-0.1277057 -3.043841,0.5422035 0,0.6699077 1.369728,1.218015 3.043841,1.218015 1.674112,0 3.043841,-0.243991 3.043841,-0.5422034 z m 4.383491,-3.3682615 c 1.3270026,-1.0291221 4.1392632,-6.4756403 4.1392632,-8.0165298 0,-1.5516044 -2.2839849,-0.7734873 -4.1744098,1.4221564 -1.0522996,1.2221966 -1.9132724,1.540372 -1.9132724,0.7070564 0,-2.1446931 -4.862199,-1.8944871 -4.907169,0.2525196 -0.02055,0.98099842 -0.589303,0.6663413 -1.278036,-0.7070565 -1.802864,-3.5950866 -3.880258,-3.0849595 -2.879351,0.7070565 0.461905,1.74996476 1.38775,3.9771926 2.057433,4.9493953 1.327512,1.9271998 6.812963,2.347023 8.955542,0.6854021 z m 2.8668574,-11.3088195 2.6499703,-2.4922667 -4.9501595,-6.2277045 c -5.1527262,-6.48255 -6.2882622,-5.535709 -3.2908512,2.744002 0.9947007,2.747646 1.9988102,3.9454741 2.5069283,2.99058 0.466191,-0.876099 1.4586816,-1.592907 2.2055342,-1.592907 0.7468526,0 0.071121,1.590877 -1.5016253,3.5352818 -3.2705822,4.0434594 -1.5921406,4.7789608 2.3802032,1.0430144 z M -18.52461,-7.7693697 c 0,-0.7777621 -0.95881,-1.4043683 -2.130689,-1.3924586 -1.820882,0.018505 -1.86514,0.2209707 -0.304384,1.3924586 2.29775,1.7246663 2.435073,1.7246663 2.435073,0 z m -6.635916,25.1005047 c -1.26019,-4.721316 -2.086649,-10.6610767 -2.016019,-14.4891426 0.043,-2.33025168 -0.437664,-6.4066556 -1.06813,-9.0586746 -0.744542,-3.1318751 -0.715228,-5.6119208 0.08364,-7.0760808 0.973113,-1.783513 1.073551,-1.589832 0.480991,0.927526 -0.411923,1.749965 -0.301112,3.1846081 0.246248,3.1880953 0.547359,0.00354 1.102068,2.378149 1.232686,5.277024 0.130618,2.8988764 0.815483,5.4944552 1.521921,5.7679545 1.535476,0.594462 1.742715,5.9180358 0.23038,5.9180358 -0.579729,0 -0.653297,2.5454034 -0.163484,5.6564514 0.837435,5.318966 0.490449,7.780248 -0.548234,3.888811 z"
           id="path2899" />
        <path
           style="fill:#484848;stroke-width:1.31215"
           d="m -18.837043,20.394389 c -1.593945,-1.078121 -1.844427,-2.08532 -0.98334,-3.954049 1.915808,-4.157682 -0.119082,-22.7955967 -2.488827,-22.7955967 -2.619323,0 -0.659745,-4.6624593 4.457579,-10.6059983 5.786872,-6.721188 6.784001,-6.826428 10.6776011,-1.12695 1.2204815,1.786549 3.0183237,3.248271 3.9952055,3.248271 2.28352711,0 3.53848078,3.76026 2.0117876,6.0279883 -1.9015227,2.8244941 -2.6761449,8.25660953 -1.533067,10.7507837 2.38885504,5.2124359 3.7866209,15.9804 2.33761016,18.00824 -2.03613476,2.849504 -6.79111336,2.436093 -8.71728626,-0.757903 -1.6329051,-2.707696 -1.6672781,-2.707696 -3.1231971,0 -1.635158,3.041037 -3.436164,3.368227 -6.634066,1.205214 z M -1.5244275,11.177294 C -3.7345373,0.15454428 -3.610978,0.36315988 -6.1694395,3.3346962 -7.4402114,4.8106398 -9.1276681,6.2690018 -9.9193418,6.5754994 -11.996991,7.3798652 -10.211111,11.760486 -7.380087,12.80409 c 1.3182473,0.485947 3.006023,2.436485 3.7506122,4.334529 2.2177327,5.653254 3.6312242,1.650362 2.1050473,-5.961325 z m -11.7593875,1.809202 c 2.873049,-2.275411 1.58564,-6.1210073 -2.341021,-6.9928291 -2.76599,-0.614121 -2.960075,-0.3317636 -2.272222,3.3056502 0.413652,2.1874209 0.09676,5.4462399 -0.704212,7.2418209 -1.411728,3.164761 -1.386257,3.186952 0.832097,0.725003 1.258623,-1.39683 3.277034,-3.322671 4.485358,-4.279645 z m 5.230378,-9.1110883 c 1.3270026,-1.0291221 4.1392632,-6.4756403 4.1392632,-8.0165298 0,-1.5516044 -2.2839849,-0.7734873 -4.1744098,1.4221564 -1.0522996,1.2221966 -1.9132724,1.540372 -1.9132724,0.7070564 0,-2.1446931 -4.862199,-1.8944871 -4.907169,0.2525196 -0.02055,0.98099842 -0.589303,0.6663413 -1.278036,-0.7070565 -1.802864,-3.5950866 -3.880258,-3.0849595 -2.879351,0.7070565 0.461905,1.74996476 1.38775,3.9771926 2.057433,4.9493953 1.327512,1.9271998 6.812963,2.347023 8.955542,0.6854021 z m 3.7669844,-12.3071465 c 2.6369329,-2.6944212 2.944261,-3.5007872 1.3473927,-3.5352822 -1.1377999,-0.02458 -3.5313667,-2.271915 -5.3190376,-4.994083 -1.7876705,-2.722167 -3.5962005,-4.935808 -4.0189545,-4.919202 -0.422754,0.01661 -2.295808,2.537657 -4.162339,5.602335 l -3.393695,5.572141 4.002463,1.340694 c 3.786953,1.2685052 3.826863,1.3475612 0.741205,1.4682303 -1.793692,0.070144 -4.12223,-0.8724441 -5.17453,-2.0946415 -1.564465,-1.8170558 -1.913271,-1.8564518 -1.913271,-0.2160968 0,2.7163299 4.511376,5.0544978 9.97678,5.170793 3.1300134,0.066605 5.5367492,-0.9658236 7.9139864,-3.3948878 z m -4.4978666,-1.4588003 c 0.8336338,-1.1666429 2.063589,-2.1211689 2.733234,-2.1211689 0.6791746,0 0.5473361,0.937923 -0.2981613,2.1211689 -0.8336337,1.1666432 -2.0635889,2.1211694 -2.7332339,2.1211694 -0.6791747,0 -0.5473362,-0.9379245 0.2981612,-2.1211694 z M -25.160526,17.331135 c -1.128428,-4.227666 -1.962277,-10.7993599 -2.287729,-18.02994 -0.335105,-7.4450289 -0.298803,-7.550854 0.848907,-2.4746976 0.659441,2.91660789 1.650245,5.3029235 2.201788,5.3029235 0.551542,0 1.002805,1.2727016 1.002805,2.8282258 0,1.5555243 -0.474324,2.8282259 -1.054053,2.8282259 -0.579729,0 -0.653297,2.5454034 -0.163484,5.6564514 0.837435,5.318966 0.490449,7.780248 -0.548234,3.888811 z"
           id="path2897" />
        <path
           style="fill:#6e3e00;stroke-width:1.31215"
           d="m -18.837043,20.394389 c -1.593945,-1.078121 -1.844427,-2.08532 -0.98334,-3.954049 1.915808,-4.157682 -0.119082,-22.7955967 -2.488827,-22.7955967 -2.619323,0 -0.659745,-4.6624593 4.457579,-10.6059983 5.786872,-6.721188 6.784001,-6.826428 10.6776011,-1.12695 1.2204815,1.786549 3.0183237,3.248271 3.9952055,3.248271 2.28352711,0 3.53848078,3.76026 2.0117876,6.0279883 -1.9015227,2.8244941 -2.6761449,8.25660953 -1.533067,10.7507837 0.5827105,1.2714629 1.6653779,5.3979788 2.40592734,9.170035 1.57323836,8.013434 0.34310296,10.843802 -4.68223084,10.773156 -2.9545431,-0.04153 -3.0325616,-0.191725 -1.0204001,-1.964349 2.0033221,-1.764837 2.0208266,-2.102785 0.2174166,-4.197365 -2.4501141,-2.845695 -5.3529292,-2.89853 -8.7207862,-0.15873 -1.913801,1.556904 -2.734095,1.669687 -3.091308,0.425028 -0.327809,-1.142206 -0.71381,-1.005444 -1.18468,0.419739 -0.855995,2.590841 3.986927,3.410859 5.32237,0.901198 0.486456,-0.914183 1.266275,-1.218693 1.732934,-0.676692 1.057802,1.22859 -1.743764,5.311429 -3.604605,5.253142 -0.755061,-0.02365 -2.335271,-0.693976 -3.511577,-1.489611 z M -1.5244275,11.177294 C -3.7345373,0.15454428 -3.610978,0.36315988 -6.1694395,3.3346962 -7.4402114,4.8106398 -9.1276681,6.2690018 -9.9193418,6.5754994 -11.996991,7.3798652 -10.211111,11.760486 -7.380087,12.80409 c 1.3182473,0.485947 3.006023,2.436485 3.7506122,4.334529 2.2177327,5.653254 3.6312242,1.650362 2.1050473,-5.961325 z M -13.212138,13.05149 c 2.799006,-2.377129 1.473552,-6.1949738 -2.453427,-7.0668649 -2.641891,-0.5865684 -2.969074,-0.2651703 -2.369902,2.3280046 0.382329,1.6546889 0.702625,3.8039633 0.711768,4.7761663 0.02124,2.258456 1.423343,2.245733 4.111561,-0.0373 z m 5.158701,-9.1760823 c 1.3270026,-1.0291221 4.1392632,-6.4756403 4.1392632,-8.0165298 0,-1.5516044 -2.2839849,-0.7734873 -4.1744098,1.4221564 -1.0522996,1.2221966 -1.9132724,1.540372 -1.9132724,0.7070564 0,-2.1446931 -4.862199,-1.8944871 -4.907169,0.2525196 -0.02055,0.98099842 -0.589303,0.6663413 -1.278036,-0.7070565 -1.802864,-3.5950866 -3.880258,-3.0849595 -2.879351,0.7070565 0.461905,1.74996476 1.38775,3.9771926 2.057433,4.9493953 1.327512,1.9271998 6.812963,2.347023 8.955542,0.6854021 z m 3.7669844,-12.3071465 c 2.6369329,-2.6944212 2.944261,-3.5007872 1.3473927,-3.5352822 -1.1377999,-0.02458 -3.5313667,-2.271915 -5.3190376,-4.994083 -1.7876705,-2.722167 -3.5962005,-4.935808 -4.0189545,-4.919202 -0.422754,0.01661 -2.295808,2.537657 -4.162339,5.602335 l -3.393695,5.572141 4.002463,1.340694 c 3.786953,1.2685052 3.826863,1.3475612 0.741205,1.4682303 -1.793692,0.070144 -4.12223,-0.8724441 -5.17453,-2.0946415 -1.564465,-1.8170558 -1.913271,-1.8564518 -1.913271,-0.2160968 0,2.7163299 4.511376,5.0544978 9.97678,5.170793 3.1300134,0.066605 5.5367492,-0.9658236 7.9139864,-3.3948878 z m -4.4978666,-1.4588003 c 0.8336338,-1.1666429 2.063589,-2.1211689 2.733234,-2.1211689 0.6791746,0 0.5473361,0.937923 -0.2981613,2.1211689 -0.8336337,1.1666432 -2.0635889,2.1211694 -2.7332339,2.1211694 -0.6791747,0 -0.5473362,-0.9379245 0.2981612,-2.1211694 z M -27.656132,6.3717597 c -1.019128,-1.915218 0.35604,-4.2423388 2.506928,-4.2423388 0.964947,0 1.754449,1.2727016 1.754449,2.8282258 0,2.9276465 -2.937319,3.902379 -4.261377,1.414113 z"
           id="path2895" />
        <path
           style="fill:#1c7a09;stroke-width:1.31215"
           d="m -18.837043,20.394389 c -1.686701,-1.140861 -1.868718,-2.032605 -0.861183,-4.219156 0.702655,-1.524898 0.919247,-4.990854 0.481317,-7.7021213 -0.785666,-4.8641214 0.767082,-6.8070518 2.634869,-3.2969732 0.564529,1.0609057 0.330924,1.2465505 -0.667108,0.5301439 -1.179172,-0.84643 -1.331208,0.00594 -0.654661,3.6703188 1.11488,6.0385108 1.099568,6.0235978 4.203578,4.0941708 1.859725,-1.155989 2.406444,-2.494379 1.924166,-4.7104384 l -0.673697,-3.0956304 1.398057,3.1506408 c 0.768931,1.732851 2.4177078,3.526515 3.6639487,3.985919 1.2462398,0.459403 3.0048347,2.473306 3.9079885,4.475341 2.62570969,5.820449 3.40572922,1.482417 1.4680737,-8.1646074 -0.9729455,-4.8440113 -1.3429329,-8.23764338 -0.8221962,-7.5414063 0.5207378,0.6962385 1.5935347,4.6907484 2.38399459,8.8766897 1.66018631,8.791646 0.58545114,11.506613 -4.52651159,11.434749 -2.9545431,-0.04153 -3.0325616,-0.191725 -1.0204001,-1.964349 2.0033221,-1.764837 2.0208266,-2.102785 0.2174166,-4.197365 -2.4501141,-2.845695 -5.3529292,-2.89853 -8.7207862,-0.15873 -1.913801,1.556904 -2.734095,1.669687 -3.091308,0.425028 -0.327809,-1.142206 -0.71381,-1.005444 -1.18468,0.419739 -0.855995,2.590841 3.986927,3.410859 5.32237,0.901198 0.486456,-0.914183 1.266275,-1.218693 1.732934,-0.676692 1.057802,1.22859 -1.743764,5.311429 -3.604605,5.253142 -0.755061,-0.02365 -2.335271,-0.693976 -3.511577,-1.489611 z M -27.656132,6.3717597 c -1.019128,-1.915218 0.35604,-4.2423388 2.506928,-4.2423388 0.964947,0 1.754449,1.2727016 1.754449,2.8282258 0,2.9276465 -2.937319,3.902379 -4.261377,1.414113 z m 11.662716,-8.2047116 c -0.05287,-1.0126604 -1.739795,-2.5067018 -3.74873,-3.3200897 -2.008935,-0.8133878 -3.652609,-2.354416 -3.652609,-3.4245064 0,-3.018696 10.862033,-14.97736 12.543959,-13.810397 0.801739,0.556268 2.1978624,2.204124 3.1024956,3.661903 0.9046319,1.457779 2.9592245,3.230942 4.5657613,3.940363 3.85144971,1.70074 3.69616391,4.721926 -0.4272506,8.3123961 -1.8415237,1.6035094 -4.0330891,3.5838374 -4.8701454,4.400728 -1.0445999,1.0194354 -1.5219209,1.0242632 -1.5219209,0.015386 0,-2.0861418 -4.542089,-1.8300474 -5.28133,0.297774 -0.47447,1.36570789 -0.635966,1.34898035 -0.71023,-0.073562 z m 11.7069634,-6.5987869 c 2.6369329,-2.6944212 2.944261,-3.5007872 1.3473927,-3.5352822 -1.1377999,-0.02458 -3.5313667,-2.271915 -5.3190376,-4.994083 -1.7876705,-2.722167 -3.5962005,-4.935808 -4.0189545,-4.919202 -0.422754,0.01661 -2.295808,2.537657 -4.162339,5.602335 l -3.393695,5.572141 4.002463,1.340694 c 3.786953,1.2685052 3.826863,1.3475612 0.741205,1.4682303 -1.793692,0.070144 -4.12223,-0.8724441 -5.17453,-2.0946415 -1.564465,-1.8170558 -1.913271,-1.8564518 -1.913271,-0.2160968 0,2.7163299 4.511376,5.0544978 9.97678,5.170793 3.1300134,0.066605 5.5367492,-0.9658236 7.9139864,-3.3948878 z m -4.4978666,-1.4588003 c 0.8336338,-1.1666429 2.063589,-2.1211689 2.733234,-2.1211689 0.6791746,0 0.5473361,0.937923 -0.2981613,2.1211689 -0.8336337,1.1666432 -2.0635889,2.1211694 -2.7332339,2.1211694 -0.6791747,0 -0.5473362,-0.9379245 0.2981612,-2.1211694 z"
           id="path2893" />
        <path
           style="fill:#020202;stroke-width:1.31215"
           d="m -18.837043,20.394389 c -1.686701,-1.140861 -1.868718,-2.032605 -0.861183,-4.219156 0.702655,-1.524898 0.919247,-4.990854 0.481317,-7.7021213 -0.785666,-4.8641214 0.767082,-6.8070518 2.634869,-3.2969732 0.564529,1.0609057 0.330924,1.2465505 -0.667108,0.5301439 -1.179172,-0.84643 -1.331208,0.00594 -0.654661,3.6703188 1.11488,6.0385108 1.099568,6.0235978 4.203578,4.0941708 1.859725,-1.155989 2.406444,-2.494379 1.924166,-4.7104384 l -0.673697,-3.0956304 1.398057,3.1506408 c 0.768931,1.732851 2.4177078,3.526515 3.6639487,3.985919 1.2462398,0.459403 3.0048347,2.473306 3.9079885,4.475341 2.62570969,5.820449 3.40572922,1.482417 1.4680737,-8.1646074 -0.9729455,-4.8440113 -1.3429329,-8.23764338 -0.8221962,-7.5414063 0.5207378,0.6962385 1.5935347,4.6907484 2.38399459,8.8766897 1.66018631,8.791646 0.58545114,11.506613 -4.52651159,11.434749 -2.9545431,-0.04153 -3.0325616,-0.191725 -1.0204001,-1.964349 2.0033221,-1.764837 2.0208266,-2.102785 0.2174166,-4.197365 -2.4501141,-2.845695 -5.3529292,-2.89853 -8.7207862,-0.15873 -1.913801,1.556904 -2.734095,1.669687 -3.091308,0.425028 -0.327809,-1.142206 -0.71381,-1.005444 -1.18468,0.419739 -0.855995,2.590841 3.986927,3.410859 5.32237,0.901198 0.486456,-0.914183 1.266275,-1.218693 1.732934,-0.676692 1.057802,1.22859 -1.743764,5.311429 -3.604605,5.253142 -0.755061,-0.02365 -2.335271,-0.693976 -3.511577,-1.489611 z M -27.656132,6.3717597 c -1.019128,-1.915218 0.35604,-4.2423388 2.506928,-4.2423388 0.964947,0 1.754449,1.2727016 1.754449,2.8282258 0,2.9276465 -2.937319,3.902379 -4.261377,1.414113 z m 7.609602,-11.5423872 c -4.653722,-1.9741059 -4.211443,-4.3499528 2.194899,-11.7906275 5.645013,-6.556425 6.984644,-6.790424 10.1033306,-1.764787 0.9046319,1.457779 2.9592245,3.230942 4.5657613,3.940363 3.80735055,1.681266 3.70392692,4.681618 -0.2870622,8.3277859 -3.5002953,3.1978708 -10.7464267,3.7605619 -16.5769287,1.2872656 z m 15.7600774,-3.2611113 c 2.6369329,-2.6944212 2.944261,-3.5007872 1.3473927,-3.5352822 -1.1377999,-0.02458 -3.5313667,-2.271915 -5.3190376,-4.994083 -1.7876705,-2.722167 -3.5962005,-4.935808 -4.0189545,-4.919202 -0.422754,0.01661 -2.295808,2.537657 -4.162339,5.602335 l -3.393695,5.572141 4.002463,1.340694 c 3.786953,1.2685052 3.826863,1.3475612 0.741205,1.4682303 -1.793692,0.070144 -4.12223,-0.8724441 -5.17453,-2.0946415 -1.564465,-1.8170558 -1.913271,-1.8564518 -1.913271,-0.2160968 0,2.7163299 4.511376,5.0544978 9.97678,5.170793 3.1300134,0.066605 5.5367492,-0.9658236 7.9139864,-3.3948878 z m -4.4978666,-1.4588003 c 0.8336338,-1.1666429 2.063589,-2.1211689 2.733234,-2.1211689 0.6791746,0 0.5473361,0.937923 -0.2981613,2.1211689 -0.8336337,1.1666432 -2.0635889,2.1211694 -2.7332339,2.1211694 -0.6791747,0 -0.5473362,-0.9379245 0.2981612,-2.1211694 z"
           id="path2891" />
      </g>
    </g>
  </g>
</svg>
