<?xml version="1.0" encoding="UTF-8" standalone="no"?>
<svg
   xmlns:dc="http://purl.org/dc/elements/1.1/"
   xmlns:cc="http://creativecommons.org/ns#"
   xmlns:rdf="http://www.w3.org/1999/02/22-rdf-syntax-ns#"
   xmlns:svg="http://www.w3.org/2000/svg"
   xmlns="http://www.w3.org/2000/svg"
   xmlns:sodipodi="http://sodipodi.sourceforge.net/DTD/sodipodi-0.dtd"
   xmlns:inkscape="http://www.inkscape.org/namespaces/inkscape"
   width="100"
   height="60"
   viewBox="0 0 26.458333 15.875"
   version="1.1"
   id="svg8"
   sodipodi:docname="Grass5.svg"
   inkscape:version="1.0.2-2 (e86c870879, 2021-01-15)">
  <defs
     id="defs2" />
  <sodipodi:namedview
     id="base"
     pagecolor="#ffffff"
     bordercolor="#666666"
     borderopacity="1.0"
     inkscape:pageopacity="0.0"
     inkscape:pageshadow="2"
     inkscape:zoom="9.4469466"
     inkscape:cx="50"
     inkscape:cy="15.564666"
     inkscape:document-units="mm"
     inkscape:current-layer="g3625"
     inkscape:document-rotation="0"
     showgrid="true"
     showguides="true"
     inkscape:guide-bbox="true"
     inkscape:window-width="1920"
     inkscape:window-height="1017"
     inkscape:window-x="-8"
     inkscape:window-y="-8"
     inkscape:window-maximized="1"
     units="px">
    <inkscape:grid
       type="xygrid"
       id="grid1942"
       units="px"
       dotted="false"
       spacingx="0.26458333"
       spacingy="0.26458333"
       empspacing="10"
       visible="true" />
  </sodipodi:namedview>
  <metadata
     id="metadata5">
    <rdf:RDF>
      <cc:Work
         rdf:about="">
        <dc:format>image/svg+xml</dc:format>
        <dc:type
           rdf:resource="http://purl.org/dc/dcmitype/StillImage" />
        <dc:title></dc:title>
      </cc:Work>
    </rdf:RDF>
  </metadata>
  <g
     inkscape:label="Layer 1"
     inkscape:groupmode="layer"
     id="layer1">
    <g
       id="g3625"
       transform="matrix(0.03720703,-0.02232422,0.03720703,0.02232422,0,0.71437504)">
      <path
         style="fill:#489130;stroke:none;stroke-width:6.49153px;stroke-linecap:butt;stroke-linejoin:miter;stroke-opacity:1;fill-opacity:1"
         d="m -161.77777,161.77777 355.55555,1e-5 2e-5,355.55555 -355.55555,-2e-5 z"
         id="path3631" />
      <path
         style="fill:#2e8035;stroke-width:11.1111"
         d="m -161.77776,339.55554 -1e-5,-177.77777 177.777778,1e-5 H 193.77778 l 2e-5,77.12202 c -4e-5,42.41717 -5.00001,80.21221 -11.11112,83.9891 -6.11112,3.77688 -11.11109,11.86702 -11.11114,17.97818 5e-5,6.11106 5.00002,8.02092 11.11114,4.24404 7.05631,-4.36103 11.11111,25.81054 11.11113,82.67757 l -10e-6,89.54465 -177.777772,-10e-6 -177.777788,-1e-5 z M 4.8888864,460.4663 c 5.6e-5,-6.11116 -4.99997506,-8.02097 -11.1110848,-4.24408 -6.1111196,3.77688 -11.1110896,11.86702 -11.1111456,17.97818 5.5e-5,6.11106 5.000025,8.02092 11.1111451,4.24404 C -0.11107915,474.66756 4.888891,466.57742 4.8888864,460.4663 Z M 149.33333,427.13298 c 6e-5,-6.11117 -4.99997,-8.02098 -11.11109,-4.2441 -6.11111,3.77689 -11.11114,11.86708 -11.11109,17.97814 0,6.11112 4.99998,8.02097 11.1111,4.24409 6.1111,-3.77688 11.11114,-11.86708 11.11108,-17.97813 z m -33.33327,1.96717 c -1e-5,-5.75045 -5.00004,-13.54549 -11.11115,-17.32238 -6.111106,-3.77687 -11.11109,0.92803 -11.111097,10.45536 -6e-6,9.52732 4.999989,17.32243 11.111097,17.32242 6.11111,1e-5 11.1111,-4.7049 11.11115,-10.4554 z M -61.777765,418.5221 c 2.6e-5,-5.45731 -7.499958,-12.80041 -16.666694,-16.31792 -16.936366,-6.49915 -22.755471,5.33664 -9.259189,18.83281 10.618799,10.61891 25.925909,9.13402 25.925883,-2.51489 z m 33.33332,-19.1669 c 5.3e-5,-9.16673 -4.999978,-13.57654 -11.111088,-9.79965 -6.111119,3.77688 -11.111089,14.36702 -11.111093,23.53369 -5.3e-5,9.16672 4.999978,13.57653 11.111088,9.79964 6.111119,-3.77688 11.111089,-14.36702 11.111093,-23.53368 z M -0.66664593,350.66667 C -4.4435349,344.55555 -12.533675,339.55553 -18.644781,339.55553 c -6.111115,0 -8.020974,5.00003 -4.244095,11.11113 3.776889,6.11111 11.867029,11.11114 17.9781949,11.11108 6.1110549,6e-5 8.0209141,-4.99997 4.24403517,-11.11107 z M 49.333383,332.68848 c -5.7e-5,-9.16662 -5.000028,-13.57648 -11.111147,-9.7996 -6.11106,3.77683 -11.111141,14.36708 -11.111144,23.53375 5.8e-5,9.16661 5.000028,13.57647 11.111148,9.79959 6.11112,-3.77688 11.11109,-14.36702 11.111143,-23.53374 z m 108.039597,7.08582 c 0.91156,-12.10189 -3.87409,-25.42209 -10.63483,-29.6005 -7.93977,-4.90698 -9.78007,-1.05018 -5.1973,10.89237 3.90228,10.16918 1.95692,18.48936 -4.32307,18.48937 -6.27998,2e-5 -8.32798,5.00002 -4.5511,11.11112 11.11572,17.98561 22.92306,12.78007 24.7063,-10.89236 z M 6.9259395,314.92592 c -7.97291,-7.97291 -13.148156,-8.62893 -13.1481269,-1.66668 -3.42e-5,6.31485 3.3333531,14.81479 7.4073726,18.88892 4.07407,4.07407 9.9907328,4.82407 13.1481778,1.66663 3.157393,-3.15739 -0.175923,-11.65737 -7.4074235,-18.88887 z M -66.325535,286.85955 c -7.70553,-7.70553 -28.785561,7.95052 -28.785551,21.3789 -3.8e-5,7.36773 6.375353,6.52479 16.935161,-2.23906 9.31414,-7.72998 14.64699,-16.34312 11.85039,-19.13984 z m -48.970745,-5.26697 c -7.97292,-7.97291 -13.14815,-8.62893 -13.14815,-1.66667 0,14.8309 13.14011,27.97102 20.55558,20.55553 3.15738,-3.15737 -0.17595,-11.65737 -7.40743,-18.88886 z M 127.11116,254.9107 c -6e-5,-9.16661 -5.00003,-13.57647 -11.11115,-9.79959 -6.11112,3.77688 -11.11114,14.36708 -11.11114,23.53374 5e-5,9.16662 5.00002,13.57648 11.11114,9.7996 6.11112,-3.77688 11.11109,-14.36702 11.11115,-23.53375 z m -44.44448,6.86708 c -4e-6,-6.11112 -5.2951,-11.1111 -11.766818,-11.11115 -6.471829,6e-5 -8.676733,5.00004 -4.899855,11.11114 3.776889,6.11111 9.071985,11.1111 11.766879,11.1111 2.694895,10e-6 4.899789,-4.99998 4.899794,-11.11109 z M 11.452238,231.304 c -7.7055804,-7.70547 -28.785579,7.95053 -28.785551,21.37889 2.2e-5,7.36769 6.375353,6.5248 16.93516092,-2.23906 C 8.9164936,242.71326 14.248838,234.10071 11.452238,231.304 Z m -53.554082,6.16822 c -2.418978,-7.25695 -10.339045,-15.17475 -17.600146,-17.59512 -8.119436,-2.70648 -10.602635,2.37318 -6.450123,13.19445 7.750247,20.19682 30.71645,24.3991 24.050269,4.40067 z m 14.907409,-45.55556 c -9.074082,-9.07407 -12.36111,-7.83066 -12.361114,4.67593 5e-6,22.08729 14.94115,37.02844 20.462971,20.46296 2.342576,-7.02777 -1.303246,-18.34028 -8.101857,-25.13889 z"
         id="path3627" />
    </g>
  </g>
</svg>
