<?xml version="1.0" encoding="UTF-8" standalone="no"?>
<svg
   xmlns:dc="http://purl.org/dc/elements/1.1/"
   xmlns:cc="http://creativecommons.org/ns#"
   xmlns:rdf="http://www.w3.org/1999/02/22-rdf-syntax-ns#"
   xmlns:svg="http://www.w3.org/2000/svg"
   xmlns="http://www.w3.org/2000/svg"
   xmlns:xlink="http://www.w3.org/1999/xlink"
   xmlns:sodipodi="http://sodipodi.sourceforge.net/DTD/sodipodi-0.dtd"
   xmlns:inkscape="http://www.inkscape.org/namespaces/inkscape"
   width="9"
   height="7.1999998"
   viewBox="0 0 2.38125 1.9049999"
   version="1.1"
   id="svg8"
   sodipodi:docname="Grass1_Edge_1.svg"
   inkscape:version="1.0.2-2 (e86c870879, 2021-01-15)">
  <defs
     id="defs2">
    <linearGradient
       inkscape:collect="always"
       id="linearGradient7298">
      <stop
         style="stop-color:#16b627;stop-opacity:1"
         offset="0"
         id="stop7294" />
      <stop
         style="stop-color:#1ad92f;stop-opacity:1"
         offset="1"
         id="stop7296" />
    </linearGradient>
    <inkscape:perspective
       sodipodi:type="inkscape:persp3d"
       inkscape:vp_x="0 : -2.565833 : 1"
       inkscape:vp_y="0 : 999.99998 : 0"
       inkscape:vp_z="10 : -2.565833 : 1"
       inkscape:persp3d-origin="5.0000002 : -4.2324997 : 1"
       id="perspective1944" />
    <radialGradient
       inkscape:collect="always"
       xlink:href="#linearGradient7298"
       id="radialGradient7302"
       cx="1.5899621"
       cy="0.76266044"
       fx="1.5899621"
       fy="0.76266044"
       r="1.1906257"
       gradientTransform="matrix(-0.43149321,0.4590347,-0.49999906,-0.46999953,2.2580123,1.0811647)"
       gradientUnits="userSpaceOnUse" />
  </defs>
  <sodipodi:namedview
     id="base"
     pagecolor="#ffffff"
     bordercolor="#666666"
     borderopacity="1.0"
     inkscape:pageopacity="0.0"
     inkscape:pageshadow="2"
     inkscape:zoom="116.95546"
     inkscape:cx="4.8481012"
     inkscape:cy="3.6484068"
     inkscape:document-units="mm"
     inkscape:current-layer="layer1"
     inkscape:document-rotation="0"
     showgrid="true"
     showguides="true"
     inkscape:guide-bbox="true"
     inkscape:window-width="1920"
     inkscape:window-height="1017"
     inkscape:window-x="-8"
     inkscape:window-y="-8"
     inkscape:window-maximized="1"
     units="px">
    <inkscape:grid
       type="xygrid"
       id="grid1942"
       units="px"
       dotted="false"
       spacingx="0.023812499"
       spacingy="0.023812499"
       empspacing="10"
       visible="true" />
  </sodipodi:namedview>
  <metadata
     id="metadata5">
    <rdf:RDF>
      <cc:Work
         rdf:about="">
        <dc:format>image/svg+xml</dc:format>
        <dc:type
           rdf:resource="http://purl.org/dc/dcmitype/StillImage" />
        <dc:title></dc:title>
      </cc:Work>
    </rdf:RDF>
  </metadata>
  <g
     inkscape:label="Layer 1"
     inkscape:groupmode="layer"
     id="layer1">
    <path
       style="fill:url(#radialGradient7302);fill-opacity:1;stroke:none;stroke-width:0.264583px;stroke-linecap:butt;stroke-linejoin:miter;stroke-opacity:1"
       d="m 0,0.71437496 c 0.01391052,0.076107 0.01315913,0.18706495 0.047625,0.2143125 0.04538792,-0.0663521 0.0689089,-0.0517696 0.09524999,-0.047625 0.0205966,0.0231193 0.0332534,0.0566302 0.0238125,0.11906244 0.0263103,-0.0256779 0.0299959,-0.0679352 0.11906251,-0.047625 0.0115973,0.081181 -10e-9,0.1428751 0.048497,0.167024 -8.7201e-4,-0.095586 0.046753,-0.1193989 0.046753,-0.1193989 0,0 0.0238125,0.071438 0.0664167,0.1330865 0.005021,-0.061649 0.054466,-0.074465 0.0764583,-0.085462 0.0407402,0.015777 0.063409,0.065554 0.0714375,0.142875 0.0277905,0.023177 0.0567684,0.039404 0.09525,0 0.0230589,0.064029 0.0475169,0.068129 0.0714375,0.09525 0.012315,-0.028271 0.0115701,-0.07964 0.0714375,-0.023813 0.0889517,0.00885 0.0646987,0.1258548 0.09525,0.1905 0.0265345,-0.031744 0.0513987,-0.068569 0.0952499,-0.047625 0.047021,0.00872 0.062494,0.037953 0.071437,0.071438 -9.253e-4,-0.051324 0.036177,-0.061392 0.09525,-0.047625 0.132892,-0.027663 0.1237432,0.039226 0.1666875,0.071438 2e-7,-0.02571 1.2e-6,-0.024998 0,-0.09525 -0.010376,-0.069034 0.119063,-0.09525 0.166688,0.047624 0.039678,-0.1072189 -0.023813,-0.1190625 0.047624,-0.1666875 0.074954,-0.06058 0.1477557,-0.059295 0.1666875,0.023813 0.066957,-0.058529 0.051354,-0.1122633 0.047625,-0.1666875 0.04013,-0.0081 0.063465,3.032e-4 0.071438,0.023813 0.032992,-0.023108 0.062529,-0.052458 0.071438,-0.1190625 0.062762,-0.00949 0.095953,0.00335 0.1190625,0.023813 0.071497,-0.00369 0.055182,-0.07367 0.071438,-0.11906246 h 0.047625 c -0.019976,-0.0345693 0.063175,-0.0793428 0.09525,-0.11906248 0.028562,-0.002186 0.05939,-0.009202 0.071437,0.0238125 -0.00821,-0.0404129 4.935e-4,-0.0634416 0.023813,-0.0714375 l 0.023813,0.0238125 v -0.09525 L 1.1906249,1.4287499 Z"
       id="path7290"
       sodipodi:nodetypes="ccccccccccccccccccccccccccccccccccc" />
    <path
       style="fill:#00b513;fill-opacity:1;stroke:none;stroke-width:0.264583px;stroke-linecap:butt;stroke-linejoin:miter;stroke-opacity:1"
       d="m 1.6668749,1.1429999 c 0.052438,0.045772 0.1049029,0.097371 0.1190625,0.1666875 0.00715,-0.067752 -0.035566,-0.1597978 0.047625,-0.1905 0.03263,-0.025288 0.064304,0.00278 0.09525,0.071438 -0.0032,-0.043418 -0.00771,-0.087278 0.023813,-0.1190625 0.012546,0.027057 0.010847,0.068254 0.071438,0.047625 -0.041096,-0.040848 -0.020966,-0.068142 0,-0.09525 -0.016218,-0.0241263 6.242e-4,-0.0315757 0.047624,-0.023813 L 2.0240634,0.9286879 Z"
       id="path7292"
       sodipodi:nodetypes="cccccccccc" />
  </g>
</svg>
