<?xml version="1.0" encoding="UTF-8" standalone="no"?>
<svg
   xmlns:dc="http://purl.org/dc/elements/1.1/"
   xmlns:cc="http://creativecommons.org/ns#"
   xmlns:rdf="http://www.w3.org/1999/02/22-rdf-syntax-ns#"
   xmlns:svg="http://www.w3.org/2000/svg"
   xmlns="http://www.w3.org/2000/svg"
   xmlns:sodipodi="http://sodipodi.sourceforge.net/DTD/sodipodi-0.dtd"
   xmlns:inkscape="http://www.inkscape.org/namespaces/inkscape"
   width="100"
   height="60"
   viewBox="0 0 26.458333 15.875"
   version="1.1"
   id="svg8"
   sodipodi:docname="Grass4.svg"
   inkscape:version="1.0.2-2 (e86c870879, 2021-01-15)">
  <defs
     id="defs2" />
  <sodipodi:namedview
     id="base"
     pagecolor="#ffffff"
     bordercolor="#666666"
     borderopacity="1.0"
     inkscape:pageopacity="0.0"
     inkscape:pageshadow="2"
     inkscape:zoom="13.36"
     inkscape:cx="50"
     inkscape:cy="31.005836"
     inkscape:document-units="mm"
     inkscape:current-layer="g3625"
     inkscape:document-rotation="0"
     showgrid="true"
     showguides="true"
     inkscape:guide-bbox="true"
     inkscape:window-width="1920"
     inkscape:window-height="1017"
     inkscape:window-x="-8"
     inkscape:window-y="-8"
     inkscape:window-maximized="1"
     units="px">
    <inkscape:grid
       type="xygrid"
       id="grid1942"
       units="px"
       dotted="false"
       spacingx="0.26458333"
       spacingy="0.26458333"
       empspacing="10"
       visible="true" />
  </sodipodi:namedview>
  <metadata
     id="metadata5">
    <rdf:RDF>
      <cc:Work
         rdf:about="">
        <dc:format>image/svg+xml</dc:format>
        <dc:type
           rdf:resource="http://purl.org/dc/dcmitype/StillImage" />
        <dc:title></dc:title>
      </cc:Work>
    </rdf:RDF>
  </metadata>
  <g
     inkscape:label="Layer 1"
     inkscape:groupmode="layer"
     id="layer1">
    <g
       id="g3625"
       transform="matrix(0.41341146,0.24804687,-0.41341146,0.24804687,13.229167,0)">
      <path
         style="fill:#489130;stroke:none;stroke-width:0.584237px;stroke-linecap:butt;stroke-linejoin:miter;stroke-opacity:1;fill-opacity:1"
         d="M 2e-7,32 -3.2e-7,3.2e-7 32,5.2e-7 V 32 Z"
         id="path3048" />
      <path
         style="fill:#2e8035"
         d="M 0,16 V 0 h 16 16 v 6.940983 c 0,3.817541 -0.45,7.219098 -1,7.559017 -0.55,0.339919 -1,1.068034 -1,1.618034 0,0.55 0.45,0.721885 1,0.381966 0.635069,-0.392494 1,2.322949 1,7.440983 V 32 H 16 0 Z m 15,10.881966 c 0,-0.55 -0.45,-0.721885 -1,-0.381966 -0.55,0.339919 -1,1.068034 -1,1.618034 0,0.55 0.45,0.721885 1,0.381966 0.55,-0.339919 1,-1.068034 1,-1.618034 z m 13,-3 c 0,-0.55 -0.45,-0.721885 -1,-0.381966 -0.55,0.339919 -1,1.068034 -1,1.618034 0,0.55 0.45,0.721885 1,0.381966 0.55,-0.339919 1,-1.068034 1,-1.618034 z m -3,0.177051 C 25,23.541476 24.55,22.839919 24,22.5 23.45,22.160081 23,22.583524 23,23.440983 23,24.298442 23.45,25 24,25 c 0.55,0 1,-0.423442 1,-0.940983 z M 9,23.106989 C 9,22.615833 8.325,21.954956 7.5,21.638374 5.9757245,21.053454 5.4520059,22.118673 6.6666667,23.333333 7.6223636,24.28903 9,24.155393 9,23.106989 Z m 3,-1.725023 c 0,-0.825 -0.45,-1.221885 -1,-0.881966 -0.55,0.339919 -1,1.293034 -1,2.118034 0,0.825 0.45,1.221885 1,0.881966 0.55,-0.339919 1,-1.293034 1,-2.118034 z M 14.5,17 c -0.339919,-0.55 -1.068034,-1 -1.618034,-1 -0.55,0 -0.721885,0.45 -0.381966,1 0.339919,0.55 1.068034,1 1.618034,1 0.55,0 0.721885,-0.45 0.381966,-1 z M 19,15.381966 c 0,-0.825 -0.45,-1.221885 -1,-0.881966 -0.55,0.339919 -1,1.293034 -1,2.118034 0,0.825 0.45,1.221885 1,0.881966 0.55,-0.339919 1,-1.293034 1,-2.118034 z m 9.723564,0.637724 c 0.08204,-1.08917 -0.348666,-2.28799 -0.957135,-2.664045 -0.714576,-0.441632 -0.880202,-0.09452 -0.467753,0.98031 C 27.649881,15.25118 27.474796,16 26.909598,16 26.344401,16 26.160081,16.45 26.5,17 c 1.000414,1.618704 2.063077,1.150204 2.223564,-0.98031 z M 15.183333,13.783333 C 14.465771,13.065771 14,13.006729 14,13.633333 c 0,0.568334 0.3,1.333334 0.666667,1.7 0.366666,0.366667 0.899166,0.434167 1.183333,0.15 0.284167,-0.284166 -0.01583,-1.049166 -0.666667,-1.7 z M 8.5906971,11.257364 C 7.8971996,10.563866 6,11.972907 6,13.181462 c 0,0.663093 0.573782,0.587231 1.524166,-0.201518 0.8382913,-0.69572 1.3182303,-1.470881 1.0665311,-1.72258 z M 4.1833333,10.783333 C 3.4657706,10.065771 3,10.006729 3,10.633333 c 0,1.334781 1.1826098,2.517391 1.85,1.85 0.2841667,-0.284166 -0.015833,-1.049166 -0.6666667,-1.7 z M 26,8.381966 C 26,7.556966 25.55,7.1600813 25,7.5 c -0.55,0.3399187 -1,1.293034 -1,2.118034 0,0.825 0.45,1.221885 1,0.881966 0.55,-0.339919 1,-1.293034 1,-2.118034 z M 22,9 C 22,8.45 21.523442,8 20.940983,8 20.358524,8 20.160081,8.45 20.5,9 c 0.339919,0.55 0.816476,1 1.059017,1 C 21.801558,10 22,9.55 22,9 Z M 15.590697,6.2573638 C 14.8972,5.5638663 13,6.972907 13,8.1814617 c 0,0.6630936 0.573782,0.587231 1.524166,-0.2015177 0.838291,-0.69572 1.31823,-1.4708811 1.066531,-1.7225802 z M 10.770833,6.8125 C 10.553125,6.159375 9.8403189,5.446773 9.1868198,5.2289399 8.4560704,4.9853568 8.2325827,5.4425258 8.6063086,6.4164399 9.3038309,8.2341539 11.370787,8.6123611 10.770833,6.8125 Z m 1.341667,-4.1 C 11.295833,1.8958333 11,2.0077403 11,3.1333333 11,5.12119 12.344703,6.4658925 12.841667,4.975 13.0525,4.3425 12.724375,3.324375 12.1125,2.7125 Z"
         id="path3627" />
    </g>
  </g>
</svg>
