<?xml version="1.0" encoding="UTF-8" standalone="no"?>
<svg
   xmlns:dc="http://purl.org/dc/elements/1.1/"
   xmlns:cc="http://creativecommons.org/ns#"
   xmlns:rdf="http://www.w3.org/1999/02/22-rdf-syntax-ns#"
   xmlns:svg="http://www.w3.org/2000/svg"
   xmlns="http://www.w3.org/2000/svg"
   xmlns:sodipodi="http://sodipodi.sourceforge.net/DTD/sodipodi-0.dtd"
   xmlns:inkscape="http://www.inkscape.org/namespaces/inkscape"
   width="9"
   height="7.1999998"
   viewBox="0 0 2.38125 1.9049999"
   version="1.1"
   id="svg8"
   sodipodi:docname="Grass_Top.svg"
   inkscape:version="1.0.2-2 (e86c870879, 2021-01-15)">
  <defs
     id="defs2">
    <inkscape:perspective
       sodipodi:type="inkscape:persp3d"
       inkscape:vp_x="0 : -2.565833 : 1"
       inkscape:vp_y="0 : 999.99998 : 0"
       inkscape:vp_z="10 : -2.565833 : 1"
       inkscape:persp3d-origin="5.0000002 : -4.2324997 : 1"
       id="perspective1944" />
    <mask
       maskUnits="userSpaceOnUse"
       id="mask4667">
      <path
         style="fill:#8f8980;fill-opacity:1;stroke:none;stroke-width:0.264583px;stroke-linecap:butt;stroke-linejoin:miter;stroke-opacity:1"
         d="m 0.47624997,0.59531247 c -0.11073061,0.11898408 -0.12732554,0.31444944 0.047625,0.35718748 0.1366134,0.006177 0.2513938,-0.0269326 0.33337498,-0.1190625 0.0306756,-0.10038779 0.0524371,-0.2013117 -0.047625,-0.30956248 -0.047625,-0.047625 -0.12865574,-0.0973955 -0.33337498,0.0714375 z"
         id="path4669"
         sodipodi:nodetypes="ccccc" />
    </mask>
  </defs>
  <sodipodi:namedview
     id="base"
     pagecolor="#ffffff"
     bordercolor="#666666"
     borderopacity="1.0"
     inkscape:pageopacity="0.0"
     inkscape:pageshadow="2"
     inkscape:zoom="20.675"
     inkscape:cx="4.8481012"
     inkscape:cy="2.5349484"
     inkscape:document-units="mm"
     inkscape:current-layer="layer1"
     inkscape:document-rotation="0"
     showgrid="true"
     showguides="true"
     inkscape:guide-bbox="true"
     inkscape:window-width="1920"
     inkscape:window-height="1017"
     inkscape:window-x="-8"
     inkscape:window-y="-8"
     inkscape:window-maximized="1"
     units="px">
    <inkscape:grid
       type="xygrid"
       id="grid1942"
       units="px"
       dotted="false"
       spacingx="0.023812499"
       spacingy="0.023812499"
       empspacing="10"
       visible="true" />
  </sodipodi:namedview>
  <metadata
     id="metadata5">
    <rdf:RDF>
      <cc:Work
         rdf:about="">
        <dc:format>image/svg+xml</dc:format>
        <dc:type
           rdf:resource="http://purl.org/dc/dcmitype/StillImage" />
        <dc:title></dc:title>
      </cc:Work>
    </rdf:RDF>
  </metadata>
  <g
     inkscape:label="Layer 1"
     inkscape:groupmode="layer"
     id="layer1">
    <g
       id="g983"
       transform="matrix(0.12692711,0,0,0.11364735,0.59132369,0.51351386)">
      <path
         style="fill:#82797c;stroke-width:0.264583"
         d="m 3.0276924,5.3472326 c -0.092694,-0.1499817 0.01351,-0.1943383 0.2489684,-0.1039841 0.4583687,0.1758926 0.5422336,0.3655369 0.1616485,0.3655369 -0.1369327,0 -0.3217103,-0.1176988 -0.4106169,-0.2615528 z M 5.142486,4.2858688 C 5.0525491,4.140348 5.098027,4.0212855 5.2435478,4.0212855 c 0.1455208,0 0.3381679,0.1190625 0.4281048,0.2645833 0.089937,0.1455208 0.044459,0.2645833 -0.1010618,0.2645833 -0.1455208,0 -0.3381679,-0.1190625 -0.4281048,-0.2645833 z M 3.4226944,4.0212855 c 0,-0.1455208 0.1260893,-0.2645833 0.2801983,-0.2645833 0.1541089,0 0.2066136,0.1190625 0.1166767,0.2645833 -0.089937,0.1455208 -0.2160259,0.2645833 -0.2801982,0.2645833 -0.064172,0 -0.1166768,-0.1190625 -0.1166768,-0.2645833 z M 6.8622776,3.2431504 c 0,-0.1369327 0.1176988,-0.3217103 0.2615527,-0.4106169 0.1499817,-0.092694 0.1943383,0.01351 0.1039842,0.2489684 C 7.0519219,3.5398706 6.8622776,3.6237356 6.8622776,3.2431504 Z M 1.0414446,2.1692023 c 0.1557607,-0.2910417 0.3427326,-0.5291667 0.415493,-0.5291667 0.07276,0 0.00485,0.238125 -0.1509097,0.5291667 -0.1557608,0.2910416 -0.34273266,0.5291666 -0.41549308,0.5291666 -0.0727604,0 -0.004851,-0.238125 0.15090978,-0.5291666 z M 3.6872777,2.4337856 C 3.4488109,2.2796764 3.4161769,2.1756883 3.605517,2.1732538 c 0.1733129,-0.00223 0.3886988,0.1150109 0.4786357,0.2605318 0.2030161,0.3284868 0.1114221,0.3284868 -0.396875,0 z M 4.5977433,2.0453251 C 4.3152684,1.831672 4.2184023,1.6530783 4.382485,1.6484502 c 0.1640829,-0.00463 0.446552,0.1701792 0.6277093,0.3884604 0.4182512,0.5039619 0.2473315,0.5074491 -0.412451,0.00841 z M -0.37715236,0.97857732 c 0.0837624,-0.21828124 0.27319794,-0.39687498 0.42096791,-0.39687498 0.1548617,0 0.12914709,0.1681181 -0.06070427,0.39687498 -0.18115735,0.21828128 -0.37059292,0.39687498 -0.42096791,0.39687498 -0.050375,0 -0.0230581,-0.1785937 0.0607043,-0.39687498 z M 6.2008193,0.84628566 c -0.089937,-0.14552082 0.029126,-0.26458332 0.2645833,-0.26458332 0.2354577,0 0.3545202,0.1190625 0.2645833,0.26458332 C 6.640049,0.99180649 6.5209865,1.110869 6.4654026,1.110869 c -0.055584,0 -0.1746464,-0.11906251 -0.2645833,-0.26458334 z M 1.4383195,-1.5349642 c 0.089937,-0.1455208 0.216026,-0.2645833 0.2801983,-0.2645833 0.064172,0 0.1166767,0.1190625 0.1166767,0.2645833 0,0.1455208 -0.1260893,0.2645833 -0.2801982,0.2645833 -0.154109,0 -0.2066136,-0.1190625 -0.1166768,-0.2645833 z m 1.0583333,-0.2645833 c -0.089937,-0.1455209 -0.037432,-0.2645833 0.1166767,-0.2645833 0.154109,0 0.2801983,0.1190624 0.2801983,0.2645833 0,0.1455208 -0.052505,0.2645833 -0.1166768,0.2645833 -0.064172,0 -0.1902613,-0.1190625 -0.2801982,-0.2645833 z m 0.79375,-0.2645833 c -0.089937,-0.1455209 -0.037432,-0.2645834 0.1166767,-0.2645834 0.1541089,0 0.2801982,0.1190625 0.2801982,0.2645834 0,0.1455208 -0.052504,0.2645833 -0.1166767,0.2645833 -0.064172,0 -0.1902613,-0.1190625 -0.2801982,-0.2645833 z"
         id="path993" />
      <path
         style="fill:#579b2d;stroke-width:0.264583"
         d="M 2.2982153,4.9269661 C 1.934853,4.5605137 2.0934278,4.1343726 2.6075651,4.095644 2.8868478,4.074607 3.1872298,4.2447036 3.2750802,4.473638 3.4042622,4.8102814 3.3619802,4.8294409 3.0539825,4.5738254 2.7503096,4.3217992 2.6552776,4.3458279 2.5849048,4.6924297 2.5363662,4.9314934 2.4073559,5.0370349 2.2982153,4.9269661 Z M 1.1158942,4.4843063 c 0.09897,-0.264083 0.049496,-0.4630208 -0.1151504,-0.4630208 -0.19042355,0 -0.17657081,-0.1350788 0.040701,-0.396875 0.1811573,-0.2182812 0.4484394,-0.396875 0.5939601,-0.396875 0.1557438,0 0.1378744,0.1526752 -0.04344,0.3711453 C 1.360465,3.8776212 1.3596242,3.9950536 1.5885809,4.0713724 1.781573,4.1357032 1.7189816,4.3148248 1.4177941,4.5601229 0.99099909,4.9077203 0.96011807,4.8999651 1.1158942,4.4843063 Z M 5.9532468,3.8342589 C 5.8096614,3.4571753 5.8400525,3.4267842 6.1013592,3.6861465 6.2821802,3.8656224 6.3634742,4.0791165 6.2820125,4.1605783 6.2005507,4.2420403 6.052606,4.0951966 5.9532468,3.8342589 Z M 5.4910182,2.8382485 C 5.7199814,2.3330992 5.9596137,1.972094 6.0235347,2.036015 6.1903235,2.2028035 5.5142928,3.7567022 5.2749417,3.7567022 c -0.1101212,0 -0.012888,-0.413304 0.2160765,-0.9184537 z m -2.9943654,0.389287 c -0.089937,-0.1455208 0.015073,-0.2645833 0.2333535,-0.2645833 0.2182812,0 0.4704596,0.1190625 0.5603965,0.2645833 0.089937,0.1455209 -0.015073,0.2645834 -0.2333535,0.2645834 -0.2182813,0 -0.4704596,-0.1190625 -0.5603965,-0.2645834 z M 1.239882,2.7877237 c 0.1819011,-0.073399 0.4795573,-0.073399 0.6614583,0 0.1819011,0.073399 0.033073,0.1334521 -0.3307291,0.1334521 -0.3638021,0 -0.5126302,-0.060053 -0.3307292,-0.1334521 z M 1.7029028,2.1692023 c 0.089937,-0.1455209 0.282584,-0.2645834 0.4281049,-0.2645834 0.1455208,0 0.1909987,0.1190625 0.1010618,0.2645834 -0.089937,0.1455208 -0.282584,0.2645833 -0.4281048,0.2645833 -0.1455208,0 -0.1909988,-0.1190625 -0.1010619,-0.2645833 z M 3.0102434,1.5161585 C 2.7277684,1.3025054 2.6309024,1.1239116 2.794985,1.1192835 2.959068,1.1146557 3.2415371,1.2894627 3.4226944,1.507744 3.8409456,2.0117059 3.6700258,2.0151931 3.0102434,1.5161577 Z M 1.1012908,1.2236712 C 1.3524874,0.9606727 1.6305753,0.81805542 1.7192639,0.90674401 1.8079525,0.99543234 1.6024279,1.2106129 1.2625426,1.3849231 0.67176614,1.6879024 0.66466957,1.6808058 1.1012908,1.2236712 Z M 3.8039934,0.98699187 C 3.5215184,0.77333872 3.4164746,0.59474498 3.5705621,0.59011689 3.7246499,0.58548932 4.0818373,0.75650937 4.3643121,0.97016278 4.646787,1.1838159 4.7518308,1.3624097 4.5977433,1.3670378 4.4436556,1.3716653 4.0864681,1.2006453 3.8039934,0.98699187 Z M 0.77686123,0.61256096 c 0,-0.12854833 0.24492947,-0.29777503 0.54428777,-0.37605888 C 1.7677572,0.11971129 1.8094262,0.16165622 1.5533355,0.47022651 1.204012,0.89113571 0.77686123,0.96943623 0.77686123,0.61256096 Z M 5.0155008,0.4558046 C 4.806811,0.20434885 4.7867392,0.05253571 4.9621825,0.05253571 c 0.3197635,0 0.6925722,0.50196747 0.5090842,0.68545521 -0.066595,0.0665954 -0.27169,-0.0603885 -0.4557659,-0.28218632 z M 5.6716526,0.05253571 c -0.2069523,-0.33485596 0.1433058,-0.33485596 0.6614583,0 C 6.6751343,0.27356835 6.6681507,0.30957602 6.28258,0.31306746 6.0365067,0.31529578 5.7615895,0.19805653 5.6716526,0.05253571 Z M 0.09155445,-0.25063524 C -0.04162861,-0.46613002 0.12025137,-0.49957687 0.65131092,-0.36628942 1.3360666,-0.19442663 1.3669706,-0.21690915 1.0215034,-0.63560262 0.67313962,-1.0578068 0.69240118,-1.0669394 1.2756271,-0.75609254 1.7732622,-0.49086377 1.8292022,-0.37068188 1.5402105,-0.18765991 1.0248125,0.1387478 0.31308454,0.10780796 0.09155445,-0.25063524 Z m 2.43155665,-0.649329 C 2.428948,-1.1453496 2.4114366,-1.4056507 2.484197,-1.4784111 c 0.07276,-0.07276 0.2093344,0.068478 0.3034975,0.3138635 0.094163,0.24538543 0.1116745,0.50568652 0.038914,0.57844693 -0.07276,0.0727604 -0.2093344,-0.0684782 -0.3034974,-0.31386357 z m 0.9657291,-0.0164785 C 3.110366,-1.0691603 3.0392341,-1.5349642 3.3943869,-1.5349642 c 0.1299517,0 0.3048087,0.1785937 0.388571,0.396875 0.083763,0.21828121 0.1262666,0.38747528 0.094453,0.37598678 -0.031813,-0.0114885 -0.20667,-0.0809416 -0.3885707,-0.15434032 z M 5.0037187,-1.2582812 c 0.1593225,-0.2976965 0.4045505,-0.5412663 0.5449514,-0.5412663 0.4330067,0 0.2828877,0.3846324 -0.289677,0.7422049 -0.5032948,0.31431283 -0.5228081,0.29895292 -0.2552744,-0.2009386 z m 0.8002256,0.2524836 c 0.5181526,-0.3348559 0.8684106,-0.3348559 0.6614583,0 -0.089937,0.14552086 -0.3648541,0.26276019 -0.6109274,0.26053184 -0.3855707,-0.003492 -0.3925543,-0.0394992 -0.050531,-0.26053184 z M 4.2204959,-1.1886201 c 0.00223,-0.1177289 0.1194676,-0.3926462 0.2605318,-0.6109274 0.2210326,-0.3420235 0.2570403,-0.3350397 0.2605317,0.050531 0.00223,0.2460732 -0.1150109,0.5209906 -0.2605317,0.6109274 -0.1455208,0.089937 -0.2627601,0.067198 -0.2605318,-0.050531 z"
         id="path991" />
      <path
         style="fill:#2e8035;stroke-width:0.264583"
         d="M 1.6679313,4.7335353 C 1.7467948,4.1461606 1.6808977,4.0238797 1.353253,4.1496089 1.0170502,4.2786221 1.0275314,4.2106179 1.4087796,3.7893433 1.8624098,3.2880878 1.8572981,3.2659628 1.2616536,3.1525304 0.68268722,3.0422743 0.68760794,3.0327895 1.341315,2.9989837 1.806543,2.9749249 2.0858581,2.7801741 2.1819058,2.4128861 2.2919151,1.9922106 2.2281335,1.9002795 1.9107577,2.022068 1.5657226,2.1544705 1.5521369,2.1133908 1.8301677,1.7783841 2.0771313,1.4808112 2.0828339,1.3754523 1.8519765,1.3754523 1.6800492,1.3754523 1.625471,1.2361566 1.7306915,1.065906 1.8522977,0.86914302 1.7856865,0.80771365 1.5478689,0.89730632 0.36216826,1.3439936 -0.07360893,1.4166966 0.09788424,1.1392149 0.19745633,0.97810372 0.49544412,0.84628566 0.76007932,0.84628566 1.0247145,0.84628566 1.3926014,0.66389939 1.5776057,0.44098265 1.8710942,0.08735064 1.8302452,0.06751483 1.2571877,0.28539072 0.86645002,0.43394896 0.44857871,0.43900409 0.22560887,0.29787112 -0.04631372,0.12575067 0.05941353,0.05952679 0.61082057,0.05658727 1.2348732,0.0532604 1.3153998,-0.01424354 1.0609937,-0.32078403 0.84369231,-0.58261616 0.83597507,-0.7465188 1.0351523,-0.86961709 c 0.1561926,-0.0965323 0.2512709,-0.0327181 0.2112852,0.14180933 -0.039986,0.17452746 0.095099,0.37821714 0.3001891,0.45264374 0.2537001,0.0920674 0.3219387,0.002543 0.2134863,-0.28007906 -0.1133808,-0.29546583 -0.010967,-0.40421883 0.3547139,-0.37667288 0.2827647,0.0213 0.5159409,0.16221844 0.5181692,0.31315201 0.00222,0.15093356 0.1092745,0.10824709 0.2378803,-0.0948588 0.132476,-0.20921833 0.4233841,-0.29654435 0.6711486,-0.20146813 0.2405259,0.0922985 0.3712186,0.0608611 0.2904279,-0.0698607 C 3.6273245,-1.3168564 3.958169,-2.0914621 4.2326133,-1.9218462 c 0.1239171,0.076585 0.1612519,0.3437916 0.082967,0.5937928 -0.078285,0.2500011 0.115439,0.1271256 0.4304985,-0.2730566 0.3150594,-0.4001823 0.7004205,-0.7276042 0.8563577,-0.7276042 0.1581687,0 0.1077148,0.2047156 -0.1141153,0.4630208 -0.7697229,0.89628744 -0.8602281,1.20235467 -0.2412298,0.8157839 0.3062694,-0.1912684 0.5568534,-0.4381831 0.5568534,-0.5486994 0,-0.1105162 0.1375156,-0.2009386 0.3055905,-0.2009386 0.1732987,0 0.098277,0.2290789 -0.1732989,0.5291666 -0.3801482,0.42005918 -0.3995141,0.52916665 -0.093924,0.52916665 0.2117313,0 0.551864,-0.14882812 0.7558511,-0.33072915 0.3125679,-0.2787256 0.319152,-0.2619699 0.041874,0.10656202 -0.2635462,0.35028042 -0.2610072,0.46457746 0.012761,0.5744243 0.1879748,0.0754232 0.017298,0.14653283 -0.3792831,0.1580213 -0.6575766,0.0190492 -0.6989161,0.0791208 -0.46957,0.68234646 C 5.9422616,0.81321275 5.953201,1.110869 5.8282542,1.110869 5.7033074,1.110869 5.5388069,0.87274399 5.462698,0.58170234 5.386589,0.29066069 5.17953,0.05253571 5.0025675,0.05253571 c -0.2439279,0 -0.2482858,0.08851952 -0.018018,0.36597614 C 5.3644478,0.87626163 4.7617085,1.1862268 4.1924496,0.82585798 3.5749947,0.43497819 3.251549,0.56914495 3.8039921,0.98699187 4.0864681,1.2006453 4.1687382,1.3754523 3.986816,1.3754523 c -0.1819225,0 -0.2553603,0.1220123 -0.163195,0.2711389 0.092165,0.1491263 0.0099,0.2384232 -0.1828226,0.1984375 C 3.41664,1.7985194 3.3140904,1.9923384 3.3561525,2.3830099 3.392315,2.7188855 3.3270989,2.9351008 3.2112281,2.8634887 3.0953575,2.7918766 2.8486132,2.8271895 2.662908,2.9419618 2.398445,3.1054086 2.4196162,3.2449927 2.7605852,3.5859621 3.1736427,3.9990195 3.0092925,4.1648931 2.2982153,4.0526177 1.9820054,4.0026898 2.0684488,4.6740692 2.430507,5.0800876 2.7092325,5.3926555 2.692477,5.3992396 2.323945,5.1219611 1.9737245,4.8584599 1.8549475,4.8610007 1.7274162,5.1347219 1.6398354,5.3226967 1.6130673,5.142162 1.6679313,4.7335358 Z M 3.5549861,1.3754523 C 3.644923,1.2299315 3.4663292,1.110869 3.1581111,1.110869 c -0.3082181,0 -0.4868119,0.1190625 -0.396875,0.2645833 0.089937,0.1455208 0.2685307,0.2645833 0.396875,0.2645833 0.1283443,0 0.3069381,-0.1190625 0.396875,-0.2645833 z M 3.0371185,4.8333176 C 2.9533961,4.697852 3.0242968,4.5008623 3.1946757,4.3955624 c 0.1846382,-0.1141127 0.2391574,-0.077186 0.1349589,0.091411 -0.096151,0.155576 -0.025252,0.3431664 0.157557,0.4168671 0.237898,0.095911 0.2428052,0.1399392 0.017264,0.15489 C 3.3311428,5.0702189 3.1208414,4.9687832 3.037119,4.8333176 Z M 5.9362359,4.2858688 C 5.846299,4.140348 5.8385886,3.9146989 5.9191013,3.7844265 5.9996142,3.6541539 5.8875783,3.4792971 5.6701329,3.3958555 5.4526874,3.3124139 5.2766009,3.0915783 5.2788292,2.9051103 5.2816621,2.6680458 5.3600203,2.6854424 5.539361,2.9629522 5.7103479,3.2275355 5.7971919,3.2495841 5.7998927,3.029098 5.8065073,2.4892433 6.1790835,2.6556061 6.4963647,3.3400864 6.7456839,3.8779501 6.7281537,3.9532095 6.3842848,3.8212547 6.085602,3.7066393 6.0220731,3.7831798 6.1465813,4.1076431 6.3325638,4.5923052 6.1967463,4.7073834 5.9362359,4.2858688 Z"
         id="path989" />
      <path
         style="fill:#006a45;stroke-width:0.264583"
         d="M 1.326916,4.9252786 C 1.339612,4.6170541 1.402306,4.5543592 1.4867684,4.7654261 1.5631984,4.9564222 1.5537994,5.1846253 1.4658804,5.2725442 1.3779615,5.3604628 1.3154276,5.2041933 1.326916,4.9252786 Z m -0.80653509,0.022048 c 0,-0.1455208 0.11541616,-0.4431771 0.25648032,-0.6614583 0.14106416,-0.2182807 0.25648037,-0.277812 0.25648037,-0.1322912 0,0.1455209 -0.11541621,0.4431771 -0.25648037,0.6614583 C 0.63579707,5.0333167 0.52038091,5.0928479 0.52038091,4.9473266 Z M 2.6498325,4.6606953 C 2.6625272,4.3524708 2.7252232,4.2897759 2.809685,4.5008428 2.8861155,4.6918388 2.8767156,4.9200419 2.7887962,5.0079609 2.7008773,5.0958795 2.6383433,4.93961 2.6498317,4.6606953 Z M 3.3923943,4.4843063 C 3.2199683,4.1568844 2.9478888,3.8015202 2.7877728,3.6946079 2.6003213,3.5694433 2.6408796,3.4987792 2.9016669,3.4961704 3.1244249,3.4939479 3.4415044,3.8493063 3.6062883,4.2858688 3.9590919,5.2205517 3.8388559,5.3320987 3.3923943,4.4843063 Z M 6.353999,4.1315286 C 6.3666937,3.8233041 6.4293896,3.7606093 6.5138515,3.9716761 6.5902819,4.1626722 6.5808821,4.3908753 6.4929626,4.4787942 6.4050437,4.5667129 6.3425097,4.4104434 6.3539982,4.1315286 Z M 4.7537141,3.8889938 c 0,-0.1455208 0.115416,-0.443177 0.2564802,-0.6614583 0.1410642,-0.2182812 0.2564802,-0.2778125 0.2564802,-0.1322916 0,0.1455208 -0.115416,0.443177 -0.2564802,0.6614583 C 4.8691301,3.9749834 4.7537141,4.0345147 4.7537141,3.8889938 Z M 6.6515822,3.4800861 C 6.4739568,3.1956625 6.43596,2.9629522 6.5671447,2.9629522 c 0.2375365,0 0.6466196,0.7950409 0.4897826,0.9518782 C 7.0116129,3.9601445 6.8292078,3.7645095 6.6515822,3.4800861 Z M 3.2748267,3.0756232 C 2.9923518,2.8465504 2.9228198,2.7423979 3.1203111,2.8441734 3.389861,2.9830836 3.4348904,2.889026 3.3009189,2.4669191 3.0244727,1.5959137 3.3357515,1.8037098 3.6476313,2.6983689 3.968212,3.617987 3.9572752,3.6290542 3.2748267,3.0756232 Z M 0.99551058,2.4797196 C 1.3118159,2.1634142 1.5706112,1.7855564 1.5706112,1.6400356 c 0,-0.1455208 0.133641,-0.2645833 0.2969802,-0.2645833 0.1988037,0 0.1825614,0.1378662 -0.049133,0.4170402 -0.2868423,0.3456239 -0.2810629,0.4582022 0.033749,0.657407 0.3160297,0.1999752 0.3056919,0.2410473 -0.061519,0.2444178 -0.2427596,0.00222 -0.650383,0.084253 -0.90582969,0.1822773 C 0.51818587,3.0173 0.5414804,2.9337496 0.99551058,2.4797196 Z M 5.3469748,2.1692023 C 5.7169742,1.8781606 6.179515,1.6475826 6.3748434,1.6568065 6.5701718,1.6660307 6.4620953,1.7812564 6.1346734,1.9128639 5.8072516,2.0444713 5.539361,2.2750493 5.539361,2.4252596 c 0,0.1502101 -0.1946503,0.2731093 -0.4325565,0.2731093 -0.3202961,0 -0.2579655,-0.137333 0.2401703,-0.5291666 z m 0.7215528,0.2893536 c 0,-0.1318975 0.238125,-0.1775421 0.5291666,-0.1014331 0.2910417,0.076109 0.5291667,0.1840251 0.5291667,0.2398131 0,0.055788 -0.238125,0.101433 -0.5291667,0.101433 -0.2910416,0 -0.5291666,-0.1079159 -0.5291666,-0.239813 z M 3.6211319,1.5849142 C 3.1353059,1.0875208 3.299387,0.95706035 3.917964,1.3489037 4.1176016,1.4753661 4.2366641,1.6868632 4.1825473,1.8188974 4.1284302,1.9509313 3.8757934,1.8456388 3.6211319,1.5849142 Z M 0.51227791,1.507744 c 0,-0.2182813 0.11532573,-0.396875 0.25627943,-0.396875 0.14095369,0 0.18774657,0.1785937 0.1039842,0.396875 -0.0837624,0.2182812 -0.1990881,0.3968749 -0.25627942,0.3968749 -0.0571913,0 -0.10398421,-0.1785937 -0.10398421,-0.3968749 z M 4.8670233,1.3578493 C 4.7711031,1.2026468 4.7493676,1.0189181 4.8187223,0.94956338 4.888077,0.88020842 5.0153251,1.0071923 5.1014959,1.2317497 5.280403,1.6979738 5.1279146,1.7799817 4.8670233,1.3578493 Z M 5.9253565,0.82868267 C 5.8294364,0.67348021 5.8077008,0.48975144 5.8770555,0.42039674 5.9464102,0.35104178 6.0736584,0.47802563 6.1598292,0.70258305 6.3387362,1.1688072 6.1862479,1.250815 5.9253565,0.82868267 Z M 0.24769459,-0.45179987 -0.4137637,-0.63880479 0.24769459,-0.82229446 C 0.80067767,-0.97569291 0.84406775,-1.051808 0.51227791,-1.2864278 0.21402319,-1.4973338 0.32908013,-1.5249849 0.97529872,-1.3977036 c 0.68502738,0.1349252 0.85989578,0.082491 0.85989578,-0.2578388 0,-0.3452181 0.1015563,-0.3728552 0.5291666,-0.1440051 0.4263083,0.2281533 0.5291667,0.2012129 0.5291667,-0.1385976 0,-0.2319894 0.1078849,-0.3551224 0.2397442,-0.2736288 0.1318593,0.081493 0.1754465,0.3940449 0.096861,0.6945586 C 3.1289717,-1.1303759 3.0048827,-1.0531927 2.80518,-1.2528955 2.3939574,-1.664118 2.0922978,-1.5977358 2.2698321,-1.1350887 2.383871,-0.83790874 2.3026415,-0.78150611 1.9535416,-0.91546832 1.5981805,-1.0518331 1.5360354,-1.0042461 1.6983147,-0.72003137 1.8720152,-0.4158141 1.845037,-0.40725999 1.5565101,-0.67506842 1.0685185,-1.1280182 0.68748626,-1.091169 0.87254154,-0.60892259 c 0.0837624,0.21828124 0.12626636,0.38500683 0.0944533,0.37050131 -0.0318131,-0.0145055 -0.35549817,-0.1105259 -0.71930025,-0.21337859 z M 6.4680698,-0.74553011 c 0.091404,-0.14789453 0.2770243,-0.20039908 0.4124899,-0.11667674 0.3669887,0.22681138 0.2985588,0.38557592 -0.1661887,0.38557592 -0.2268694,0 -0.3377049,-0.12100464 -0.2463012,-0.26889918 z M 6.0986107,-1.4389205 c 0.232487,-0.2801297 0.1999885,-0.360627 -0.1455928,-0.360627 -0.2446877,0 -0.3713022,-0.1190625 -0.2813653,-0.2645833 0.089937,-0.1455209 0.044459,-0.2645834 -0.1010618,-0.2645834 -0.1455208,0 -0.3460242,0.131774 -0.4455628,0.292831 -0.1261618,0.204134 -0.2498757,0.1840987 -0.4084383,-0.066146 -0.1811933,-0.2859602 -0.2282831,-0.2885297 -0.2315104,-0.012633 -0.00223,0.1904893 -0.1231141,0.2727594 -0.2686349,0.1828226 -0.1455209,-0.089937 -0.2645833,-0.037432 -0.2645833,0.1166768 0,0.154109 -0.1079159,0.2801982 -0.2398131,0.2801982 -0.1318974,0 -0.1778923,-0.2367859 -0.1022112,-0.5261908 0.075681,-0.2894049 0.2483438,-0.4577486 0.3836948,-0.374097 0.135351,0.083652 0.4194712,0.0082 0.6313778,-0.1676644 0.259302,-0.2152016 0.3852849,-0.2253649 0.3852849,-0.031082 0,0.1587719 0.1821593,0.2187752 0.4047985,0.1333405 0.236153,-0.09062 0.6161063,0.088304 0.9119996,0.4294722 0.2978259,0.3433961 0.639095,0.5032932 0.826707,0.3873426 0.1898142,-0.1173118 0.2507999,-0.086297 0.1502434,0.076406 -0.093094,0.1506296 -0.469719,0.3313079 -0.836944,0.4015074 -0.5406315,0.1033483 -0.6107305,0.059013 -0.3683881,-0.2329915 z"
         id="path987" />
      <path
         style="fill:#004236;stroke-width:0.264583"
         d="M 1.6566016,5.3056393 C 1.9221773,5.1546501 2.2088788,5.1005253 2.2937158,5.1853621 2.3785526,5.2701992 2.577982,5.2362957 2.7368921,5.1100218 2.8988909,4.981293 3.2582871,4.9803921 3.5549861,5.107958 L 4.0841527,5.3354968 3.5549861,5.3093744 C 3.2639444,5.2950076 2.9662882,5.3051676 2.8935278,5.3319513 2.8207674,5.3587351 2.4040486,5.4255376 1.9674862,5.4804011 1.3097486,5.5630601 1.2564772,5.5331119 1.6566016,5.3056269 Z M 0.51227791,5.2402179 c 0,-0.057191 0.18477758,-0.1748901 0.41061686,-0.2615528 C 1.1583541,4.888311 1.264557,4.9326676 1.1718632,5.0826493 1.0164845,5.3340574 0.51227791,5.4545074 0.51227791,5.2402179 Z M 5.7939512,4.4061195 C 5.6072978,4.1812158 5.2652974,4.0692073 5.0339502,4.1572117 4.7102505,4.280347 4.6851849,4.2447904 4.9251784,4.0029141 5.1657087,3.7604974 5.4008045,3.817428 5.9530473,4.2518222 6.3468526,4.5615895 6.5485164,4.8150354 6.401189,4.8150354 c -0.1473271,0 -0.4205843,-0.1840121 -0.6072378,-0.4089159 z M 3.6376684,3.5759616 c 0.190996,-0.07643 0.4191992,-0.067031 0.5071181,0.020889 C 4.2327055,3.6847696 4.0764355,3.7473035 3.7975209,3.735815 3.4892964,3.7231202 3.4266015,3.6604243 3.6376684,3.5759624 Z M 0.51227791,3.2275355 C 0.27381111,3.0734263 0.24117722,2.9694382 0.43051717,2.9670038 c 0.17331284,-0.00223 0.3886989,0.1150109 0.47863572,0.2605317 0.20301601,0.3284868 0.11142221,0.3284868 -0.39687498,0 z M 4.4810277,2.9629522 C 4.2425609,2.808843 4.2099269,2.7048549 4.399267,2.7024205 c 0.1733129,-0.00223 0.3886988,0.1150109 0.4786357,0.2605317 0.2030161,0.3284868 0.1114221,0.3284868 -0.396875,0 z M 3.6872777,2.1692023 C 3.4488109,2.0150931 3.4161769,1.9111049 3.605517,1.9086705 c 0.1733129,-0.00223 0.3886988,0.1150109 0.4786357,0.2605318 0.2030161,0.3284868 0.1114221,0.3284868 -0.396875,0 z M 0.51227791,1.9804961 C 0.73055915,1.8996847 1.0877466,1.7007249 1.3060279,1.5383634 1.6509006,1.2818409 1.6553228,1.3038299 1.3397769,1.7061814 1.1400576,1.9608429 0.7828701,2.1598027 0.54602692,2.1483142 0.1858102,2.1308411 0.1802922,2.1034028 0.51227791,1.9804961 Z M 4.4810277,1.6400356 C 4.2627465,1.4989714 4.2032152,1.3835554 4.348736,1.3835554 c 0.1455209,0 0.4431771,0.115416 0.6614583,0.2564802 0.2182813,0.1410642 0.2778125,0.2564802 0.1322917,0.2564802 -0.1455208,0 -0.4431771,-0.115416 -0.6614583,-0.2564802 z M -0.34761787,1.4648071 c 0.18190103,-0.073399 0.47955726,-0.073399 0.66145829,0 0.18190104,0.073399 0.0330729,0.1334521 -0.33072914,0.1334521 -0.36380207,0 -0.51263019,-0.060053 -0.33072915,-0.1334521 z M 5.2747777,1.0987802 C 4.9849377,0.90264297 5.0919728,0.87809546 5.6716526,1.0077609 6.6445064,1.225373 6.8556931,1.3768088 6.1787707,1.3714007 5.8998557,1.3691724 5.4930589,1.2464933 5.2747777,1.0987802 Z M -0.14918038,0.58170234 c -0.43137874,-0.18536972 -0.44648779,-0.23082725 -0.0817607,-0.24598708 0.24607326,-0.010228 0.52099057,0.10046626 0.61092738,0.24598708 0.18802995,0.30423881 0.17883528,0.30423881 -0.52916668,0 z m 6.74687458,0 C 5.9819409,0.38450363 5.9762915,0.36804391 6.5159335,0.34349269 6.8347672,0.32898717 7.1692156,0.43618152 7.2591525,0.58170234 7.3490894,0.72722317 7.3858816,0.83441751 7.3409133,0.819912 7.295945,0.80540648 6.9614963,0.69821214 6.5976942,0.58170234 Z m 0,-0.62906139 c 0,-0.05494231 0.2083594,-0.2633016 0.4630209,-0.46302089 0.4196439,-0.32910741 0.4290022,-0.31974902 0.099895,0.0998948 -0.3456434,0.44072913 -0.5629156,0.58088712 -0.5629159,0.36312609 z"
         id="path985" />
    </g>
  </g>
</svg>
