<?xml version="1.0" encoding="UTF-8" standalone="no"?>
<svg
   xmlns:dc="http://purl.org/dc/elements/1.1/"
   xmlns:cc="http://creativecommons.org/ns#"
   xmlns:rdf="http://www.w3.org/1999/02/22-rdf-syntax-ns#"
   xmlns:svg="http://www.w3.org/2000/svg"
   xmlns="http://www.w3.org/2000/svg"
   xmlns:sodipodi="http://sodipodi.sourceforge.net/DTD/sodipodi-0.dtd"
   xmlns:inkscape="http://www.inkscape.org/namespaces/inkscape"
   width="100"
   height="60"
   viewBox="0 0 26.458333 15.875"
   version="1.1"
   id="svg8"
   sodipodi:docname="Grass_Top_2.svg"
   inkscape:version="1.0.2-2 (e86c870879, 2021-01-15)">
  <defs
     id="defs2">
    <inkscape:perspective
       sodipodi:type="inkscape:persp3d"
       inkscape:vp_x="0 : 11.404167 : 1"
       inkscape:vp_y="0 : 1000 : 0"
       inkscape:vp_z="9.9999999 : 11.404167 : 1"
       inkscape:persp3d-origin="5.0000001 : 9.7375002 : 1"
       id="perspective1944" />
    <mask
       maskUnits="userSpaceOnUse"
       id="mask4667">
      <path
         style="fill:#8f8980;fill-opacity:1;stroke:none;stroke-width:0.264583px;stroke-linecap:butt;stroke-linejoin:miter;stroke-opacity:1"
         d="m 0.47624997,0.59531247 c -0.11073061,0.11898408 -0.12732554,0.31444944 0.047625,0.35718748 0.1366134,0.006177 0.2513938,-0.0269326 0.33337498,-0.1190625 0.0306756,-0.10038779 0.0524371,-0.2013117 -0.047625,-0.30956248 -0.047625,-0.047625 -0.12865574,-0.0973955 -0.33337498,0.0714375 z"
         id="path4669"
         sodipodi:nodetypes="ccccc" />
    </mask>
  </defs>
  <sodipodi:namedview
     id="base"
     pagecolor="#ffffff"
     bordercolor="#666666"
     borderopacity="1.0"
     inkscape:pageopacity="0.0"
     inkscape:pageshadow="2"
     inkscape:zoom="13.36"
     inkscape:cx="50"
     inkscape:cy="30"
     inkscape:document-units="mm"
     inkscape:current-layer="g1011"
     inkscape:document-rotation="0"
     showgrid="true"
     showguides="true"
     inkscape:guide-bbox="true"
     inkscape:window-width="1920"
     inkscape:window-height="1017"
     inkscape:window-x="-8"
     inkscape:window-y="-8"
     inkscape:window-maximized="1"
     units="px">
    <inkscape:grid
       type="xygrid"
       id="grid1942"
       units="px"
       dotted="false"
       spacingx="0.26458333"
       spacingy="0.26458333"
       empspacing="10"
       visible="true" />
  </sodipodi:namedview>
  <metadata
     id="metadata5">
    <rdf:RDF>
      <cc:Work
         rdf:about="">
        <dc:format>image/svg+xml</dc:format>
        <dc:type
           rdf:resource="http://purl.org/dc/dcmitype/StillImage" />
        <dc:title></dc:title>
      </cc:Work>
    </rdf:RDF>
  </metadata>
  <g
     inkscape:label="Layer 1"
     inkscape:groupmode="layer"
     id="layer1">
    <g
       id="g1011"
       transform="matrix(0.16403977,0.10507993,-0.16403977,0.10507993,0.68009178,0.8871737)">
      <path
         style="fill:#58a13e;stroke-width:2.00785"
         d="m 74.926294,31.184746 c -0.766835,-1.711091 -0.516334,-3.042799 0.556588,-2.959369 1.072912,0.08299 2.056471,1.511124 2.185667,3.172619 0.12917,1.661512 -0.121222,2.993229 -0.55659,2.959377 -0.435374,-0.034 -1.418874,-1.461531 -2.185665,-3.172627 z m 20.188195,0.665063 c 0.397888,-2.121256 2.817074,-5.130776 5.376041,-6.687811 4.48126,-2.726679 4.57219,-2.690947 2.46835,0.970111 -1.20138,2.090616 -2.94405,3.296746 -3.87259,2.680287 -0.928514,-0.616428 -1.582566,0.238599 -1.45336,1.900095 0.129175,1.661507 -0.547396,3.464892 -1.503437,4.007525 -0.956142,0.542672 -1.412848,-0.748937 -1.015004,-2.870227 z M 48.888938,21.2212 c -1.674191,-2.845043 -3.862802,-4.708164 -4.863472,-4.140174 -1.000721,0.567949 -0.963433,-0.760924 0.08302,-2.953052 2.896586,-6.0688981 4.767998,-6.2994468 10.859364,-1.337783 l 5.594032,4.556555 -0.319614,-6.675897 c -0.299921,-6.2656131 -0.19643,-6.3587645 1.68437,-1.5156329 1.894053,4.8771759 3.116754,2.4949229 1.828081,-3.5618177 -0.321664,-1.5117144 0.352494,-2.1263072 1.498089,-1.3657591 1.145596,0.7605471 3.781659,-0.8671328 5.857926,-3.61706883 2.076254,-2.74994207 3.827201,-4.32879217 3.890975,-3.50856377 0.06399,0.820239 -1.984126,4.0613756 -4.550926,7.2025419 -2.566801,3.1411569 -4.26486,6.7423284 -3.773476,8.0025994 0.491358,1.260277 -1.038623,4.135756 -3.400011,6.389981 -2.80677,2.679374 -4.366619,3.157647 -4.50476,1.381239 -0.116179,-1.494538 -2.542781,-4.343426 -5.392359,-6.33087 -7.210392,-5.028905 -8.817234,-1.110477 -2.759547,6.729431 2.629153,3.402683 4.000061,6.126068 3.046407,6.051912 -0.953632,-0.07398 -3.103712,-2.462609 -4.777915,-5.307663 z m 28.759529,4.770456 c -3.56112,-3.56113 -3.449373,-5.161734 0.781161,-11.188828 3.133817,-4.464626 3.256056,-6.1456141 0.865655,-11.9040653 -2.084574,-5.0217394 -2.254739,-7.3628702 -0.677667,-9.3241934 1.44326,-1.7949829 1.409435,-3.0811256 -0.107554,-4.0882223 -1.21728,-0.808144 -2.283291,-2.547628 -2.368912,-3.865528 -0.09398,-1.439772 0.71726,-1.129819 2.03151,0.776563 2.001653,2.9036 3.019066,1.630836 1.995125,-2.495856 -0.229575,-0.925426 0.601968,-1.005756 1.848037,-0.178516 1.588963,1.054895 1.627235,2.297914 0.128152,4.162298 -1.175541,1.46203 -1.391994,2.7161921 -0.480995,2.7870373 0.911039,0.070886 0.653446,1.1317668 -0.572484,2.3576073 -1.22584,1.22584 -2.124891,3.5649395 -1.997899,5.1979918 0.166971,2.14674135 1.523669,1.76746772 4.897935,-1.3692869 2.566886,-2.386159 4.743933,-3.3497502 4.83792,-2.1412974 0.09398,1.2084439 -0.930266,2.4860766 -2.276097,2.8391838 -1.508083,0.3956784 -0.638072,1.7064499 2.267421,3.41622118 3.274785,1.92707472 4.662069,2.10130002 4.543033,0.57055312 -0.09399,-1.21202225 0.939849,-1.46591828 2.298066,-0.56422931 1.650699,1.09588921 1.966522,0.51718631 0.952556,-1.74544496 -0.834225,-1.86168723 -0.558524,-3.92879023 0.612799,-4.59356223 1.28958,-0.731893 1.634123,-0.335583 0.873438,1.0047072 -0.698261,1.2304195 -0.117315,2.3019364 1.30817,2.4127932 1.756843,0.1366141 1.586873,1.17688008 -0.539694,3.3034616 -2.900503,2.900503 -2.86483,3.2989658 0.544006,6.0766135 2.214001,1.8039713 2.578621,2.6812948 0.927321,2.2315479 -1.496442,-0.4075632 -4.047088,1.4078299 -5.668092,4.0342069 -2.652112,4.296995 -2.640246,4.543398 0.118569,2.460342 2.535632,-1.91458 3.319359,-1.74911 4.531975,0.956792 0.806418,1.799446 0.634831,2.719811 -0.381294,2.045246 -1.016094,-0.674556 -2.854898,0.02703 -4.08628,1.557994 -4.123051,5.127773 -6.235222,0.271142 -2.725337,-6.266431 2.96424,-5.5212127 3.019772,-6.8052494 0.391159,-9.0465313 -4.016993,-3.4251239 -7.244324,-0.8367138 -10.160222,8.1489273 -1.220643,3.761556 -3.008806,6.315081 -3.973685,5.674504 -2.71993,-1.805733 -1.650807,3.987136 1.276028,6.913971 1.432569,1.43258 2.151517,2.569428 1.597697,2.526374 -0.553862,-0.04299 -2.17908,-1.250414 -3.61165,-2.682984 z M 85.23154,0.34012561 c -0.05299,-0.8948145 -0.958617,-1.13728229 -2.01303,-0.53884423 -1.054439,0.59843456 -1.784096,2.62165172 -1.621485,4.49602432 0.254757,2.9369466 0.533032,3.0114145 2.013014,0.5388392 0.944559,-1.5780001 1.674215,-3.6012163 1.621501,-4.49601929 z M 69.0758,19.719787 c 0.115447,-6.010893 8.233482,-18.6829271 8.637824,-13.4833904 0.07999,1.0285568 -1.16265,3.1781838 -2.761428,4.7769524 -1.598768,1.598768 -3.163456,5.349528 -3.477084,8.335019 -0.85322,8.122011 -2.553199,8.385169 -2.399312,0.371399 z m 14.825114,0.764206 c 0.279099,-2.394146 1.902966,-5.645849 3.608656,-7.226009 2.595108,-2.404122 2.85181,-2.402364 1.572854,0.01078 -1.62627,3.06846 -1.848886,4.120401 -1.87546,8.862122 -0.0093,1.650739 -0.871074,2.934905 -1.915138,2.853726 -1.044068,-0.08098 -1.669959,-2.106449 -1.390912,-4.500623 z M 54.002184,5.5363566 C 50.87586,-0.5325018 46.152078,-1.582265 43.609841,3.2268672 c -0.978248,1.8506309 -1.872196,2.5147699 -1.986457,1.4758704 -0.114282,-1.0389033 1.541844,-3.77101636 3.68025,-6.0713701 2.333848,-2.5105942 3.183546,-5.2435867 2.125664,-6.8370406 -1.297536,-1.9544429 -2.132931,-1.6625168 -3.167399,1.1068279 -1.189892,3.1854476 -1.321259,3.0453656 -0.857917,-0.9148468 0.300903,-2.571949 -0.426103,-6.864146 -1.615559,-9.538221 -1.824815,-4.10244 -1.60994,-4.618791 1.375519,-3.305351 1.94599,0.856134 4.752271,3.058038 6.236182,4.89312 1.95332,2.415584 2.659104,2.610221 2.557051,0.705208 -0.07798,-1.447221 0.701272,-2.072177 1.730619,-1.388785 1.029374,0.683385 2.820289,0.06267 3.979817,-1.379477 1.463075,-1.819627 1.425771,-2.994991 -0.121957,-3.840848 -1.226586,-0.670368 -1.055176,-0.876585 0.381278,-0.457783 1.436289,0.418578 2.462381,2.224428 2.280204,4.012992 -0.279402,2.742683 0.48914,2.996261 4.907524,1.619283 6.539659,-2.038076 8.624581,-0.227707 4.494358,3.902505 -2.574639,2.57465 -3.193896,2.607991 -3.440464,0.185236 -0.171174,-1.681604 -1.372049,-0.881737 -2.787351,1.856503 -1.811051,3.5039299 -2.578004,3.8842823 -2.822856,1.3999444 -0.184867,-1.8761044 -1.275155,-4.0344664 -2.422755,-4.7963494 -1.223689,-0.812393 -1.484416,0.15324 -0.630483,2.335042 1.242156,3.1736947 1.075238,3.2495192 -1.136083,0.516062 -2.024715,-2.502868 -2.777544,-2.652678 -3.439307,-0.684357 -0.650572,1.934994 -1.545243,1.924684 -3.85459,-0.04446 -1.770272,-1.509436 -2.942985,-1.735835 -2.850792,-0.550346 0.08598,1.107668 1.60376,3.2478767 3.372504,4.75601 1.768757,1.5081603 3.169537,2.1460733 3.112892,1.4176395 -0.05699,-0.7284402 1.863525,-0.1672163 4.267045,1.2471497 3.486292,2.0515417 5.095779,1.9257901 7.958725,-0.6217895 1.973778,-1.7563649 3.648323,-2.4265676 3.721202,-1.4893445 0.07299,0.9372161 1.369857,0.051684 2.882164,-1.9678342 2.561958,-3.421241 2.621262,-3.316619 0.868925,1.5327705 -2.111985,5.8446173 -9.368304,8.03563584 -15.216124,4.594442 -3.825195,-2.2509675 -6.346384,-1.5297002 -6.0919,1.742785 0.07199,0.9230567 1.263404,1.76702232 2.648052,1.87547882 1.384656,0.10845901 2.824386,2.47240608 3.199419,5.25323048 0.853176,6.3267612 0.415212,6.2924922 -2.945029,-0.2304362 z M 90.892013,-4.4882819 c -0.08099,-1.0423048 0.705471,-2.3791216 1.747829,-2.9707044 1.086753,-0.6167891 1.487258,0.2178608 0.938916,1.9566405 -1.067527,3.3848887 -2.461422,3.9109901 -2.686705,1.0140639 z m 8.435188,-7.4692621 c 0.694699,-4.20715 0.461416,-4.522593 -1.570925,-2.12394 -1.31274,1.549371 -4.554053,2.734433 -7.202912,2.633464 -4.459308,-0.169976 -4.563364,-0.358687 -1.404519,-2.547308 1.876383,-1.300056 4.14038,-1.879903 5.031112,-1.28856 0.890739,0.591358 1.948224,-0.03092 2.350006,-1.3827 0.55338,-1.86206 1.374115,-1.848028 3.385556,0.05786 2.025701,1.91942 2.173951,3.354461 0.625401,6.053945 -1.785427,3.1124555 -1.931464,2.9436661 -1.213757,-1.402792 z"
         id="path1017" />
      <path
         style="fill:#19732a;stroke-width:2.228"
         d="m 52.612841,23.562393 c -1.902279,-2.244442 -2.067772,-3.691148 -0.524518,-4.586063 1.243122,-0.720864 2.425461,0.507642 2.635803,2.738728 0.30015,3.183372 0.75772,2.970991 2.146044,-0.996154 1.456975,-4.163121 6.264067,-4.811513 6.497934,-0.8765 0.03599,0.613758 -0.974939,0.435579 -2.247595,-0.396052 -1.272666,-0.831632 -2.22439,-0.0055 -2.114955,1.835846 0.288333,4.851389 -3.168416,6.084359 -6.392673,2.280155 z M 67.011477,19.944161 C 64.821735,16.760797 62.793603,11.855094 62.504518,9.0425972 61.9945,4.0806369 61.942801,4.091069 60.762397,9.3943952 59.92232,13.168817 58.958176,13.960453 57.646382,11.953003 56.601659,10.35425 55.011237,9.4727822 54.11212,9.9941782 53.212975,10.515582 52.593191,8.7438009 52.734404,6.0564734 c 0.141417,-2.687141 0.313034,-5.883215 0.381338,-7.1023897 0.06801,-1.2191637 1.550704,-0.3960029 3.294044,1.82925123 1.743356,2.22526867 3.758381,3.45724317 4.477881,2.73775367 0.719458,-0.7194885 2.513507,1.6545515 3.9867,5.2756463 1.473184,3.6210931 3.862339,8.5030781 5.309219,10.8488461 4.056489,6.576653 1.323326,6.833917 -3.172139,0.29861 z M 56.03594,4.0947148 C 53.701608,1.775805 53.460491,2.016962 54.860766,5.2698888 c 0.96901,2.251002 2.290621,3.5639076 2.936967,2.9175616 C 58.444091,7.5411029 57.651264,5.6993723 56.03594,4.0947148 Z M 84.969005,23.175001 c 0.622872,-1.876954 -0.165941,-4.944645 -1.752916,-6.817104 -1.587005,-1.872458 -2.444249,-4.662943 -1.904986,-6.201068 0.616382,-1.7579545 1.132171,-1.3420754 1.388804,1.119731 0.505221,4.845307 4.951435,5.514359 4.665429,0.702039 -0.11517,-1.937332 0.908169,-2.7510378 2.308745,-1.835821 1.811433,1.183706 1.876998,2.282811 0.233343,3.926026 -1.255215,1.255215 -2.17829,4.030817 -2.051269,6.167991 0.127066,2.13718 -0.725493,4.440398 -1.894401,5.118273 -1.22245,0.708859 -1.644207,-0.217269 -0.992803,-2.180133 z m 8.240831,0.402594 C 93.433345,21.144407 94.7764,19.456338 96.194501,19.82633 98.978656,20.552754 97.898861,7.5973799 94.77707,2.8200895 93.720115,1.20262 94.20263,0.42114853 95.968976,0.88982946 c 2.00577,0.53222474 2.624869,-1.21554677 1.909775,-5.39154596 -0.581931,-3.3984827 0.01806,-6.1150895 1.333597,-6.0369145 1.315422,0.07819 2.328462,-0.921511 2.251192,-2.221529 -0.077,-1.300014 -1.0411,-1.841382 -2.141875,-1.203043 -1.100772,0.638337 -2.6884,0.109298 -3.528072,-1.175646 -0.895628,-1.370658 0.769369,-2.011373 4.028656,-1.550197 4.393151,0.621626 5.192071,1.525263 3.819011,4.319566 -1.08891,2.216022 -0.7196,4.5502191 0.99057,6.2603464 2.05939,2.0593859 2.07127,2.6878827 0.048,2.5676643 -1.47308,-0.08758 -2.58881,1.3473788 -2.47937,3.18873915 0.10948,1.84135485 -0.86467,3.28470035 -2.1647,3.20743785 -1.331555,-0.079182 -1.530994,1.1229392 -0.456793,2.7529301 1.048813,1.5913793 2.277843,4.6321602 2.731183,6.7572872 0.45335,2.125133 1.13381,4.667638 1.51216,5.650033 0.37837,0.982331 -0.1943,1.898434 -1.27267,2.03567 -1.07832,0.137206 -2.73106,1.540278 -3.672752,3.117831 -1.378459,2.309207 -1.788211,2.213497 -2.102209,-0.490953 -0.267754,-2.306146 -0.951411,-1.998161 -2.180847,0.982461 L 92.803021,28.00166 Z M 73.411502,16.692454 C 67.723428,11.004384 67.025299,9.3331659 69.210795,6.6365791 70.652405,4.8578456 72.91418,3.466843 74.236954,3.5454516 c 1.566938,0.093084 1.527169,1.0208138 -0.114114,2.6620968 -2.874698,2.8746885 -3.121937,9.1442946 -0.295951,7.5055166 1.024446,-0.59408 3.680903,0.906614 5.903224,3.334875 6.692634,7.312777 1.031178,6.994273 -6.318581,-0.355516 z M 46.424805,11.678401 C 45.507487,9.5611962 45.229226,7.3565935 45.80649,6.7792853 c 0.577272,-0.5773015 1.800212,0.6826069 2.717569,2.7998161 0.91732,2.1172086 1.195579,4.3218076 0.618316,4.8991176 -0.577269,0.577305 -1.800211,-0.682606 -2.71757,-2.799818 z M 81.703653,1.0695379 c 2.675815,-3.066045 2.891014,-4.4906114 0.804699,-5.3269909 -3.251967,-1.3036625 -4.1085,-5.2940559 -1.097966,-5.1151357 3.205293,0.1904957 5.400839,7.3118024 3.12138,10.12429991 C 83.38233,2.1699469 82.964685,3.8531246 83.603699,4.4921114 84.242685,5.1311272 83.254711,5.5641046 81.408288,5.4543674 78.607869,5.2879356 78.656867,4.5606593 81.703708,1.0695429 Z M 60.73105,-2.2613672 56.180763,-7.5359334 61.455331,-2.9856482 C 66.412124,1.2904977 67.837508,3.1651196 66.051392,3.058971 65.627826,3.033782 63.233703,0.63964368 60.73105,-2.2613672 Z m -14.171454,1.2388995 c -0.03299,-0.5611411 1.268763,-3.8079367 2.893584,-7.2150906 2.110214,-4.4249867 3.027175,-5.0331407 3.209587,-2.1286707 0.140464,2.2363735 -1.161663,5.4831707 -2.893588,7.2150852 -1.731915,1.7319255 -3.176229,2.68982669 -3.209583,2.1286761 z M 68.685372,-2.9547383 C 68.362747,-8.3825709 64.566929,-11.747872 63.35629,-7.6793527 62.907002,-6.169396 62.360255,-7.9471 62.14142,-11.629805 c -0.21885,-3.68271 0.119642,-5.407805 0.752283,-3.833545 0.632641,1.574258 1.956195,2.39472 2.941583,1.82346 2.076055,-1.203903 6.24893,12.2700732 4.37911,14.13989324 -0.68716,0.68717996 -1.375228,-0.86745863 -1.528989,-3.45473654 z m 17.980191,-4.3262733 c -1.560628,-1.5606308 -2.878307,-4.8916334 -2.928159,-7.4022254 -0.07596,-3.831038 0.409202,-3.543531 3.019207,1.788794 1.710419,3.4944296 3.918014,5.62729 4.905744,4.7396826 0.987742,-0.8876099 1.148016,-0.4013043 0.356162,1.0806772 -1.765868,3.3049297 -1.844115,3.3019028 -5.352954,-0.2069284 z M 72.670721,-10.741515 c -0.109475,-1.841355 0.768486,-3.908964 1.950982,-4.594689 1.182487,-0.685725 2.239507,0.259801 2.348963,2.101175 0.109475,1.841355 -0.768486,3.908964 -1.950992,4.5946882 -1.182477,0.6857256 -2.239497,-0.2598003 -2.348935,-2.1011522 z m -27.203353,-3.751943 c 1.269322,-1.566149 1.514446,-3.713696 0.544714,-4.772319 -0.969754,-1.05865 -0.414164,-1.094629 1.234563,-0.08001 2.309594,1.421309 2.440725,2.532011 0.571319,4.838654 -1.334551,1.646627 -2.928644,2.964031 -3.542419,2.927556 -0.613763,-0.0365 -0.07699,-1.347725 1.191863,-2.91388 z m 5.569671,-7.152649 c -1.400292,-3.25295 -1.159158,-3.494084 1.175174,-1.175174 1.61534,1.604663 2.408138,3.446392 1.761793,4.092737 -0.646363,0.646352 -1.967981,-0.666557 -2.936967,-2.917563 z m 11.948994,1.545626 c -7.600414,-3.762201 -13.640497,-8.889938 -13.80888,-11.723063 -0.07198,-1.213256 1.985154,0.282592 4.571694,3.324109 5.69671,6.698785 6.169352,4.252844 0.711385,-3.681688 -3.123526,-4.540862 -3.304982,-5.671326 -0.882887,-5.500321 3.797081,0.268116 6.706244,2.444561 11.253126,8.418949 2.558831,3.362184 1.666767,2.999664 -3.205123,-1.302509 l -6.750821,-5.96137 4.609137,7.502129 c 2.573065,4.188106 6.426633,7.610147 8.723517,7.746655 2.541657,0.151055 3.447095,-0.776641 2.36869,-2.426926 -1.106725,-1.693628 -0.726727,-2.005601 1.038124,-0.852327 2.131633,1.392946 2.21537,2.520515 0.357326,4.812996 -1.334517,1.646633 -2.559372,2.904695 -2.721882,2.795685 -0.162474,-0.109004 -2.981042,-1.52755 -6.263406,-3.152319 z m 13.502179,-4.206384 c -0.04697,-2.593725 0.449999,-3.091166 1.268331,-1.268322 0.740528,1.649499 0.775608,3.569838 0.07795,4.267418 -0.697554,0.697585 -1.303441,-0.652009 -1.346359,-2.999096 z m 6.544872,0.812262 c -0.101581,-1.710021 1.310133,-3.605248 3.137248,-4.211617 2.710297,-0.899475 2.935366,-0.315586 1.222229,3.170784 -2.46144,5.009233 -4.100367,5.400527 -4.359477,1.040833 z m 12.401287,-0.400002 c -2.673911,-2.921679 -3.293183,-4.920645 -1.793753,-5.790163 1.259507,-0.730398 2.351364,-0.295853 2.426337,0.965632 0.07498,1.261487 1.509219,1.837963 3.187259,1.281086 4.227236,-1.402906 6.565156,2.898651 3.101256,5.706037 -2.14738,1.740389 -3.830402,1.214502 -6.921099,-2.162592 z M 65.534852,-34.997779 c -2.117553,-3.240513 2.685811,-4.069003 5.352103,-0.923134 1.981628,2.338071 1.789095,3.047253 -0.78588,2.894218 -1.875867,-0.111479 -3.930676,-0.998475 -4.566243,-1.971084 z m 11.116147,-0.123753 c -4.36547,-3.371294 -4.34407,-3.43893 0.607578,-1.919496 2.822806,0.86619 5.730684,2.490473 6.461947,3.609517 2.069297,3.166739 -2.058244,2.180014 -7.069525,-1.690021 z m 21.725263,1.625359 c -1.996068,-2.355098 -1.3608,-2.972157 2.805008,-2.724574 4.16582,0.247583 4.87919,0.944789 3.1499,3.078483 -1.22959,1.517133 -2.49184,2.743188 -2.80501,2.724579 -0.31318,-0.0186 -1.730642,-1.403962 -3.149898,-3.078488 z"
         id="path1015" />
      <path
         style="fill:#354539;stroke-width:1.54583"
         d="m 56.708369,31.378456 c 0.01102,-2.17572 0.648793,-3.569553 1.416684,-3.097404 0.767949,0.472165 1.025433,2.250921 0.572225,3.952809 -1.134286,4.259232 -2.013361,3.881148 -1.988889,-0.855425 z m 7.816798,1.983115 c -0.04599,-1.487601 -0.779622,-2.701141 -1.629868,-2.696756 -0.850239,0.0044 -1.539775,-1.168417 -1.532352,-2.606249 0.01203,-2.279593 0.302003,-2.231631 2.267628,0.374756 1.584961,2.101695 2.272064,2.338821 2.314582,0.798721 0.03301,-1.204616 0.42139,-1.829321 0.862458,-1.388243 0.441066,0.441066 0.12687,2.471594 -0.698196,4.512233 -1.088654,2.692407 -1.523258,2.968253 -1.584215,1.005506 z m 5.326466,-2.732688 c -0.521087,-0.847562 -0.21067,-1.544723 0.68967,-1.54937 0.900335,-0.0047 1.63348,0.687135 1.629094,1.537399 -0.0044,0.850241 -0.314796,1.547427 -0.68967,1.549371 -0.374977,0.0019 -1.108026,-0.689841 -1.629094,-1.5374 z m 10.048044,-0.05209 c 0.0044,-0.850243 0.703667,-1.549463 1.553835,-1.553855 0.850247,-0.0044 1.542264,0.687644 1.537866,1.537876 -0.0044,0.850243 -0.703667,1.549443 -1.55383,1.55383 -0.850243,0.0044 -1.54226,-0.687639 -1.537871,-1.537851 z m 3.10768,-3.107691 c 0.0044,-0.850242 0.66257,-1.549231 1.462601,-1.553364 0.800051,-0.0041 1.880952,0.685941 2.402024,1.533394 0.521034,0.84752 -0.137106,1.546527 -1.462602,1.553374 -1.32551,0.0069 -2.406426,-0.683136 -2.402023,-1.533404 z m 7.981327,-1.587039 c 0.01102,-2.125547 0.366304,-2.996902 0.789665,-1.936348 0.423361,1.060565 0.414346,2.799648 -0.02004,3.86464 -0.43428,1.064983 -0.780749,0.197295 -0.769729,-1.928292 z M 53.243962,23.109328 c -0.659127,-2.567808 -0.454836,-3.1724 0.686374,-2.0312 0.893631,0.893631 1.315969,2.538878 0.9384,3.656034 -0.391881,1.159758 -1.088997,0.462682 -1.624821,-1.624832 z m 43.54069,0.810529 c -0.08299,-0.212083 -0.314062,-2.322305 -0.512921,-4.689288 -0.370934,-4.415227 1.348998,-6.947706 2.949992,-4.343744 0.493581,0.802788 0.231063,1.873515 -0.583382,2.379453 -0.81445,0.505974 -1.22276,2.295138 -0.907378,3.976031 0.453347,2.416593 -0.258424,4.430544 -0.946361,2.677549 z M 89.972518,13.418174 c -0.555753,-0.903893 -0.677232,-1.976682 -0.269857,-2.383988 0.407277,-0.407306 1.146939,0.330767 1.643623,1.640165 1.031202,2.718559 0.137858,3.202295 -1.373745,0.743822 z M 82.424881,4.5404264 C 83.414952,1.0015821 83.354356,0.97973477 79.531003,3.4961386 75.719012,6.0050498 75.648429,5.9818594 76.569527,2.5231076 77.088513,0.57435167 77.794022,-0.1656255 78.137331,0.87871906 78.480595,1.9230581 79.57427,2.2674023 80.56762,1.643924 83.009408,0.111326 89.020139,-0.71186477 86.877638,0.7797368 85.951494,1.4245521 84.343177,3.347745 83.303677,5.0535038 81.521149,7.9785534 81.471185,7.9493834 82.424846,4.5404319 Z M 93.311898,0.76295217 c 1.038444,-3.22471577 0.908771,-3.30653617 -1.822156,-1.14994505 -2.718511,2.14675498 -2.777957,2.11557798 -0.788643,-0.4135647 1.661168,-2.11197262 2.635444,-2.33447712 4.275082,-0.97634552 1.606363,1.33064039 1.69353,2.27621462 0.358437,3.8817367 C 92.763512,5.196869 92.038837,4.716127 93.311869,0.76295167 Z m -23.206805,0.0411196 c 0.588378,-1.52754583 1.457204,-2.38996257 1.930685,-1.91647607 0.473498,0.47352856 -0.0079,1.72330297 -1.069795,2.7773632 C 69.431445,3.1881974 69.254798,3.011552 70.105029,0.80404525 Z M 87.105142,-4.9070565 c -0.485038,-0.7889239 -0.288962,-1.8027774 0.435695,-2.2529655 0.72465,-0.4501916 1.312385,0.194319 1.306015,1.4322641 -0.01302,2.6065651 -0.50209,2.8368301 -1.74167,0.8207214 z"
         id="path1013" />
    </g>
  </g>
</svg>
