<?xml version="1.0" encoding="UTF-8" standalone="no"?>
<svg
   xmlns:dc="http://purl.org/dc/elements/1.1/"
   xmlns:cc="http://creativecommons.org/ns#"
   xmlns:rdf="http://www.w3.org/1999/02/22-rdf-syntax-ns#"
   xmlns:svg="http://www.w3.org/2000/svg"
   xmlns="http://www.w3.org/2000/svg"
   xmlns:sodipodi="http://sodipodi.sourceforge.net/DTD/sodipodi-0.dtd"
   xmlns:inkscape="http://www.inkscape.org/namespaces/inkscape"
   width="100"
   height="60"
   viewBox="0 0 26.458333 15.875"
   version="1.1"
   id="svg8"
   sodipodi:docname="Grass1_Edge_1_South.svg"
   inkscape:version="1.0.2-2 (e86c870879, 2021-01-15)">
  <defs
     id="defs2">
    <inkscape:perspective
       sodipodi:type="inkscape:persp3d"
       inkscape:vp_x="0 : 11.404167 : 1"
       inkscape:vp_y="0 : 1000 : 0"
       inkscape:vp_z="9.9999999 : 11.404167 : 1"
       inkscape:persp3d-origin="5.0000001 : 9.7375002 : 1"
       id="perspective1944" />
    <mask
       maskUnits="userSpaceOnUse"
       id="mask4667">
      <path
         style="fill:#8f8980;fill-opacity:1;stroke:none;stroke-width:0.264583px;stroke-linecap:butt;stroke-linejoin:miter;stroke-opacity:1"
         d="m 0.47624997,0.59531247 c -0.11073061,0.11898408 -0.12732554,0.31444944 0.047625,0.35718748 0.1366134,0.006177 0.2513938,-0.0269326 0.33337498,-0.1190625 0.0306756,-0.10038779 0.0524371,-0.2013117 -0.047625,-0.30956248 -0.047625,-0.047625 -0.12865574,-0.0973955 -0.33337498,0.0714375 z"
         id="path4669"
         sodipodi:nodetypes="ccccc" />
    </mask>
    <mask
       maskUnits="userSpaceOnUse"
       id="mask4667-5">
      <path
         style="fill:#8f8980;fill-opacity:1;stroke:none;stroke-width:0.264583px;stroke-linecap:butt;stroke-linejoin:miter;stroke-opacity:1"
         d="m 0.47624997,0.59531247 c -0.11073061,0.11898408 -0.12732554,0.31444944 0.047625,0.35718748 0.1366134,0.006177 0.2513938,-0.0269326 0.33337498,-0.1190625 0.0306756,-0.10038779 0.0524371,-0.2013117 -0.047625,-0.30956248 -0.047625,-0.047625 -0.12865574,-0.0973955 -0.33337498,0.0714375 z"
         id="path4669-3"
         sodipodi:nodetypes="ccccc" />
    </mask>
    <clipPath
       clipPathUnits="userSpaceOnUse"
       id="clipPath2261">
      <path
         style="fill:#7c5c2c;fill-opacity:1;stroke:none;stroke-width:0.0217377;stroke-linecap:butt;stroke-linejoin:bevel;stroke-miterlimit:4;stroke-dasharray:none;stroke-opacity:1"
         d="m 0,0.714375 v 0.47625 L 1.190625,1.905 V 1.4287499 Z"
         id="path2263"
         sodipodi:nodetypes="ccccc" />
    </clipPath>
    <clipPath
       clipPathUnits="userSpaceOnUse"
       id="clipPath2305">
      <path
         style="fill:#c29652;stroke-width:0.0665578"
         d="m 1.2326512,0.15157154 c -0.04977,0.0644244 0.1665026,0.13960197 0.2635591,0.0916145 0.037902,-0.0187398 0.049647,-0.0590102 0.026099,-0.08949 -0.054515,-0.0705654 -0.2357594,-0.0718948 -0.2896596,-0.002124 z m -0.39786189,0.0749663 c 0.038624,0.0926965 0.20510379,0.10892978 0.21093819,0.0205682 0.00216,-0.0327422 -0.051924,-0.068787 -0.12019119,-0.0800995 -0.077593,-0.0128579 -0.1116109,0.009458 -0.090747,0.0595313 z M 0.9859863,0.37582962 c -0.1334357,0.043074 -0.11466578,0.16457237 0.043066,0.27876881 0.1700302,0.1231003 0.4117071,0.1267651 0.5348009,0.00811 C 1.7522021,0.48115159 1.3217335,0.26744803 0.9859863,0.37582962 Z m 0.6622852,0.0171283 c 0.031977,0.0767438 0.1340425,0.0905294 0.1432471,0.0193476 0.00307,-0.0237381 -0.034603,-0.0538758 -0.083716,-0.0669727 -0.049113,-0.0130968 -0.075902,0.008334 -0.059531,0.0476251 z M 0.3400743,0.50825167 C 0.2724316,0.59581017 0.51400374,0.72291882 0.60686535,0.64862983 0.65067795,0.61357973 0.66402575,0.55577913 0.63652685,0.52018404 0.57625205,0.44216294 0.39671358,0.43493645 0.3400743,0.50825167 Z m 1.560662,0.002633 c -0.055032,0.0712346 0.084953,0.14181634 0.1840714,0.0928096 0.083222,-0.041147 0.028587,-0.14822794 -0.075628,-0.14822794 -0.036097,0 -0.084896,0.024938 -0.1084434,0.0554183 z M 0.16278078,0.75684282 c 0.0179058,0.042974 0.076507,0.089855 0.1302246,0.10417971 0.0558105,0.014883 0.0837158,-0.00744 0.0651123,-0.05209 -0.017907,-0.042974 -0.076507,-0.089855 -0.13022461,-0.10417971 -0.0558106,-0.014883 -0.0837158,0.00744 -0.0651123,0.05209 z m 1.72584812,0.023194 c -0.055949,0.1166417 0.026646,0.2112101 0.1844738,0.2112101 0.152866,0 0.3081473,-0.11099601 0.3081473,-0.2202656 0,-0.10826001 -0.44023,-0.10016759 -0.4926211,0.00906 z m -1.31747545,0.012256 c -0.026929,0.021544 -0.0116681,0.075122 0.033916,0.1190625 0.094906,0.091484 0.48066005,0.10797758 0.54604065,0.0233471 0.08746,-0.11321053 -0.45113831,-0.24546433 -0.57995665,-0.1424096 z m 0.72971525,0.081674 c -0.028944,0.037467 -0.018919,0.09509 0.022283,0.12804968 0.1057129,0.08457 0.3511664,0.034863 0.3511664,-0.071116 0,-0.10702718 -0.2994766,-0.15268329 -0.3734494,-0.0569337 z M 0.0930176,0.97140324 C 0.0418579,0.98777422 0,1.0664194 0,1.1461702 0,1.2925006 0.0801846,1.3005355 0.50229492,1.1965022 0.63689852,1.1633282 0.61643903,1.0706261 0.46508792,1.0279174 0.39346436,1.0077066 0.30137698,0.98002553 0.26044924,0.96640393 0.2195215,0.95278244 0.14417727,0.95503222 0.0930176,0.97140324 Z M 0.8371581,1.1110429 C 0.53229745,1.2111166 0.68363515,1.467497 1.047568,1.467497 1.30508,1.467497 1.4717262,1.3163049 1.3647452,1.1797335 1.2723862,1.0618287 1.0681057,1.0352319 0.8371581,1.1110429 Z m 0.8341491,0.024222 c -0.1185356,0.069984 -0.1280317,0.1005143 -0.050753,0.1631754 0.1105087,0.089606 0.3514186,3.969e-4 0.3514186,-0.1301268 0,-0.1156397 -0.1355411,-0.1305381 -0.3006656,-0.033049 z m 0.5611147,0.0013 c 0,0.047181 0.033486,0.1023401 0.074414,0.1225759 0.040928,0.020236 0.074414,-0.018367 0.074414,-0.085784 0,-0.067417 -0.033486,-0.1225759 -0.074414,-0.1225759 -0.040928,0 -0.074414,0.038603 -0.074414,0.085784 z M 1.8138631,1.3580626 c -0.1482001,0.088054 -0.099363,0.1927782 -0.051738,0.2404031 0.047625,0.047625 0.1330544,-0.00725 0.2812835,-0.037014 0.1617175,-0.032471 0.1614221,-0.2213478 0.14656,-0.2911263 -0.015343,-0.072036 -0.1399433,-0.052578 -0.3761055,0.087737 z M 1.3565064,1.5381909 c 0.045993,0.1103842 0.2061888,0.1286922 0.2061888,0.023564 0,-0.051842 -0.05302,-0.094258 -0.1178221,-0.094258 -0.064802,0 -0.1045673,0.031812 -0.088367,0.070693 z m -0.89936318,0.041839 c -0.30476213,-1.06720946 -0.15238106,-0.5336048 0,0 z m 0.31527488,0.092976 c -0.06424,0.1339249 0.03433,0.2112099 0.2693789,0.2112099 0.2692759,0 0.3635495,-0.1118796 0.1831812,-0.2173905 C 1.0449868,1.5615352 0.82444241,1.5645471 0.7724181,1.6730059 Z"
         id="path2307"
         sodipodi:nodetypes="cscccscssssssccscsscscsscsscsscsscccscccscsssssssssscsscsssssscssssssssccssss" />
    </clipPath>
    <clipPath
       clipPathUnits="userSpaceOnUse"
       id="clipPath2373">
      <path
         style="fill:#aa7e3d;fill-opacity:1;fill-rule:evenodd;stroke:none;stroke-width:0.0206222;stroke-linecap:butt;stroke-linejoin:bevel;stroke-miterlimit:1;stroke-dasharray:none;stroke-opacity:1;paint-order:stroke markers fill"
         d="M -9.9999998e-8,0.71437497 1.1906248,5.0000001e-8 2.3812499,0.71437497 1.1906248,1.4287499 Z"
         id="path2375" />
    </clipPath>
  </defs>
  <sodipodi:namedview
     id="base"
     pagecolor="#ffffff"
     bordercolor="#666666"
     borderopacity="1.0"
     inkscape:pageopacity="0.0"
     inkscape:pageshadow="2"
     inkscape:zoom="6.68"
     inkscape:cx="100.10085"
     inkscape:cy="30"
     inkscape:document-units="mm"
     inkscape:current-layer="layer1"
     inkscape:document-rotation="0"
     showgrid="true"
     showguides="true"
     inkscape:guide-bbox="true"
     inkscape:window-width="1920"
     inkscape:window-height="1017"
     inkscape:window-x="-8"
     inkscape:window-y="-8"
     inkscape:window-maximized="1"
     units="px">
    <inkscape:grid
       type="xygrid"
       id="grid1942"
       units="px"
       dotted="false"
       spacingx="0.26458333"
       spacingy="0.26458333"
       empspacing="10"
       visible="true" />
  </sodipodi:namedview>
  <metadata
     id="metadata5">
    <rdf:RDF>
      <cc:Work
         rdf:about="">
        <dc:format>image/svg+xml</dc:format>
        <dc:type
           rdf:resource="http://purl.org/dc/dcmitype/StillImage" />
        <dc:title></dc:title>
      </cc:Work>
    </rdf:RDF>
  </metadata>
  <g
     inkscape:label="Layer 1"
     inkscape:groupmode="layer"
     id="layer1">
    <g
       id="g4397"
       transform="matrix(1.5625,0.94548852,1.5625,-0.94548852,1.601511,8.8550702)">
      <g
         id="g4435"
         transform="matrix(0.16864072,-0.02801578,0.11260916,0.02801578,6.0689507,-0.42654123)">
        <path
           style="fill:#579b2d;stroke-width:1.71755"
           d="m -15.098998,8.9938231 c -2.312634,2.3284809 -5.06418,4.2463249 -6.114546,4.2618769 -2.438563,0.0361 2.756377,-5.1588361 7.055555,-7.0555557 2.552784,-1.1262429 2.347789,-0.5176536 -0.941009,2.7936788 z M -25.834351,5.4751507 c -4.38872,5.9448573 -6.109336,6.7048213 -4.533257,2.0022527 0.772253,-2.3041791 2.330316,-4.0394271 4.672871,-5.2042769 2.994914,-1.48923949 2.974279,-1.0159823 -0.139614,3.2020242 z M -31.55438,0.44269879 c -3.333385,2.93942121 -5.182824,5.48780441 -4.903794,6.75704891 0.246392,1.1207809 -0.25757,2.7433385 -1.119916,3.6056843 -2.513268,2.513268 -2.778412,-2.6197183 -0.321908,-6.2318977 1.230582,-1.8095133 4.365914,-4.54104261 6.967408,-6.0700635 4.411049,-2.5925826 4.369124,-2.4618227 -0.62179,1.93922799 z M -11.592999,19.212962 c -3.39374,5.490217 -5.833852,7.588553 -5.014817,4.312414 0.377287,-1.509146 2.153682,-3.895528 3.947546,-5.30307 3.1457886,-2.46832 3.1836753,-2.433152 1.067271,0.990656 z m -4.777735,-4.585384 c -1.247583,2.017479 -2.859349,3.815898 -3.581703,3.996486 -2.288032,0.572009 -0.699554,-2.526359 2.637352,-5.144221 3.058145,-2.399171 3.103571,-2.343962 0.944351,1.147735 z M -33.443441,-4.6469166 c -0.705575,0.6897295 -2.751566,1.9020185 -4.546646,2.6939755 -2.8127,1.2409123 -2.899341,1.07149949 -0.626892,-1.2257776 1.450289,-1.4661349 3.496279,-2.6784239 4.546645,-2.6939754 1.050367,-0.015552 1.332468,0.5360482 0.626893,1.2257775 z m -2.726588,-1.9276044 c -1.040315,1.662651 -3.170264,3.342702 -4.733228,3.7334387 -2.116567,0.5291409 -1.76145,-0.3698595 1.391587,-3.5228971 4.717348,-4.7173476 6.220806,-4.8120726 3.341641,-0.2105416 z m 11.507102,19.516641 c -0.670328,2.000066 -1.783223,3.777595 -2.4731,3.950064 -0.689876,0.172469 -0.70587,-1.322837 -0.03554,-3.322904 0.670328,-2.000067 1.783223,-3.7775952 2.4731,-3.9500643 0.689876,-0.1724692 0.70587,1.3228373 0.03554,3.3229043 z m 3.15112,13.619399 c -1.365816,2.65786 -2.978342,4.956232 -3.583391,5.107494 -1.96943,0.492358 1.1782,-6.68097 3.656593,-8.333232 1.524983,-1.016656 1.498099,0.168007 -0.0732,3.225738 z m -1.241363,-4.240268 c -0.862346,0.862346 -2.427292,1.580625 -3.477659,1.596177 -1.050366,0.01555 -1.204201,-0.67728 -0.341855,-1.539626 0.862345,-0.862346 2.427292,-1.580625 3.477658,-1.596177 1.050366,-0.01555 1.204201,0.67728 0.341856,1.539626 z m -11.003584,-5.929749 c -1.937633,0.649404 -3.894468,0.809236 -4.348522,0.355182 -0.454053,-0.454053 0.232782,-1.883885 1.5263,-3.177404 1.351811,-1.35181 3.200865,-1.502839 4.348522,-0.355181 1.668155,1.668154 1.41703,2.190938 -1.5263,3.177403 z m -9.388384,-9.4641637 c -0.7481,2.2321165 -1.576367,3.2031167 -2.200166,2.5793179 -1.136937,-1.1369369 0.512143,-5.4371006 2.25188,-5.8720344 0.631423,-0.157856 0.608152,1.3238664 -0.05171,3.2927165 z m 0.103416,-3.7981606 c -1.242625,1.2426256 -3.118709,2.272043 -4.169076,2.2875946 -1.050366,0.015552 -0.457006,-1.4244753 1.318579,-3.2000597 1.775584,-1.7755844 3.651668,-2.80500191 4.169075,-2.28759454 0.517408,0.51740734 -0.07595,1.95743434 -1.318578,3.20005964 z"
           id="path4441"
           sodipodi:nodetypes="sssssssssssssssssssssssssssssssssssssssssssssssssssssssssssss" />
        <path
           style="fill:#2e8035;stroke-width:1.71755"
           d="m -12.917577,25.656027 c -10.766226,10.766226 -14.625975,11.467969 -9.130652,1.660049 1.860939,-3.321361 2.119554,-4.897667 0.648083,-3.950188 -1.346708,0.867145 -2.96798,3.126428 -3.602828,5.02063 -1.004208,2.996268 -2.747695,1.850576 -13.411013,-8.812743 C -50.207578,7.7801842 -50.533645,7.2171274 -47.042912,4.6732456 c 2.028293,-1.4781237 4.251324,-3.2694845 3.66402,-3.85678894 -0.577753,-0.57775306 1.35483,-1.99252786 -0.645467,-0.11226935 -3.051086,2.86798029 -3.234877,2.87035299 -1.141032,0.014708 1.37273,-1.87216771 0.680588,-2.06768761 3.402,-3.46616461 3.801385,-1.953448 4.032832,-3.0660067 4.601289,-5.3398153 0.406955,-1.6278245 1.493626,-3.6876404 2.414823,-4.5773694 0.921192,-0.889734 0.845689,0.100788 -0.167793,2.201151 -1.530734,3.1723155 -1.243119,3.7509778 1.698859,3.4179949 2.989665,-0.3383776 3.015814,-0.2415955 0.167794,0.6210704 -1.855572,0.5620529 -5.545212,3.0690042 -6.841,4.4464879 -1.579558,1.67914521 -0.438604,1.09237106 1.201375,0.091263 1.345352,-0.8212579 2.434458,-0.7072056 2.420235,0.2534484 -0.01422,0.9606549 1.115752,0.6050315 2.511057,-0.7902731 1.395304,-1.3953046 2.525388,-1.7582065 2.511296,-0.8064486 -0.01409,0.9517579 -1.535643,2.83090156 -3.381225,4.17587451 -3.471011,2.52950869 -6.699089,11.26202559 -3.904916,10.56348159 0.868389,-0.217097 1.743563,-1.878564 1.94483,-3.6921481 0.254713,-2.2951793 1.760348,-4.2858243 4.953587,-6.549286 2.523205,-1.78852285 3.829046,-2.4088628 2.901867,-1.3785338 -0.927178,1.03032888 -1.788515,4.2084414 -1.914082,7.0624723 l -0.228303,5.1891476 3.830597,-5.1459576 3.830598,-5.1459577 -2.644925,8.3303833 c -1.45471,4.581711 -1.832168,7.552035 -0.838798,6.60072 0.993368,-0.951317 2.04768,-3.231893 2.34291,-5.067952 0.295232,-1.8360594 1.540905,-3.7991607 2.768164,-4.3624484 1.369973,-0.6287913 1.618184,0.5476758 0.642964,3.0475094 -1.254667,3.21615 -1.037439,3.697912 1.033852,2.292847 1.442249,-0.97835 3.892388,-2.625368 5.444756,-3.6600374 1.552367,-1.0346696 0.562851,0.4452591 -2.198924,3.2887304 -5.621064,5.78734 -5.185132,8.973898 0.496976,3.632779 3.081868,-2.896922 3.253103,-2.895507 1.12202,0.0093 -2.020674,2.754286 -1.921704,3.161371 0.503628,2.071529 2.438182,-1.095617 2.511552,-0.843894 0.381624,1.309306 -1.450289,1.466135 -2.651617,3.660464 -2.669619,4.876288 -0.02203,1.487774 0.825391,1.033069 2.591664,-1.390624 1.443416,-1.980667 4.5146909,-4.338645 6.8250545,-5.239951 3.7105001,-1.447518 3.067977,-0.506053 -5.5064195,8.068343 z m -13.655107,-3.278225 c -0.862346,0.862346 -0.708511,1.555177 0.341855,1.539626 1.050367,-0.01555 2.615313,-0.733831 3.477659,-1.596177 0.862345,-0.862346 0.70851,-1.555177 -0.341856,-1.539626 -1.050366,0.01555 -2.615313,0.733831 -3.477658,1.596177 z M -36.578976,13.56928 c -1.293518,1.293519 -1.980353,2.723351 -1.5263,3.177404 0.454054,0.454054 2.410889,0.294222 4.348522,-0.355182 2.94333,-0.986465 3.194455,-1.509249 1.5263,-3.177403 -1.147657,-1.147658 -2.996711,-0.996629 -4.348522,0.355181 z M -45.29359,6.2139386 c -0.578668,1.2607691 -0.60194,2.7424915 -0.05171,3.2927176 0.623799,0.6237988 1.452066,-0.3472014 2.200166,-2.5793179 1.300859,-3.8813877 -0.430533,-4.4563009 -2.148452,-0.7133997 z"
           id="path4439"
           sodipodi:nodetypes="cssssssssssssssssssssssssscccssssssssscsssssccsssssssssssssss" />
        <path
           style="fill:#00503b;stroke-width:1.71755"
           d="m -9.6406971,6.2547252 c -3.5526289,4.8123088 -3.5456849,5.1347898 0.080117,3.7203132 3.528941,-1.3766895 3.8368236,-1.1516046 2.7717265,2.0263396 -1.0651988,3.178248 -0.7521518,3.40814 2.8203672,2.071193 4.81125837,-1.800521 3.16899506,0.266791 -2.5441878,3.202672 -2.2355192,1.148784 -4.0532768,1.325245 -4.0394618,0.392135 0.01382,-0.93311 -1.660921,-0.88348 -3.721637,0.110288 -3.473785,1.675213 -3.52143,1.575258 -0.653966,-1.371963 2.187402,-2.248243 2.282618,-2.815464 0.325252,-1.937613 -2.002304,0.898004 -1.953304,-0.185715 0.177211,-3.919366 3.010753,-5.2762379 1.020124,-6.9828983 -3.210371,-2.7524029 -1.293519,1.2935185 -2.339038,1.4863917 -2.323377,0.4286064 0.01566,-1.0577843 -1.389508,-1.0360167 -3.122599,0.048373 -2.620007,1.6393301 -2.72356,0.989135 -0.614427,-3.857911 l 2.536648,-5.8295295 -5.359575,3.5703176 -5.359574,3.5703176 3.175107,-6.23229995 c 2.257634,-4.43142785 2.344634,-5.42359535 0.301082,-3.43360545 -1.580713,1.5392828 -2.862264,2.0043444 -2.847889,1.0334718 0.01437,-0.9708726 -1.411823,-0.7164602 -3.169328,0.5653596 -2.309792,1.68462641 -2.194722,1.2693488 0.415168,-1.4983035 2.951926,-3.1303654 3.025633,-3.7348195 0.404011,-3.3132739 -2.560685,0.4117477 -2.778039,-0.3184047 -1.079007,-3.6246958 2.997931,-5.833933 5.046182,-7.441153 3.198683,-2.509941 -1.031953,2.754416 -0.753863,3.7646021 0.835523,3.035106 1.727467,-0.792874 2.242479,-0.223901 1.873643,2.0699439 -0.413295,2.5703021 0.1943,2.4715645 3.240827,-0.5266537 l 3.749483,-3.6900262 -1.936313,6.2803886 c -1.933294,6.2705922 -1.929285,6.27719212 2.570568,4.2304052 l 4.506882,-2.0499835 -2.899537,4.55384825 c -2.808627,4.41107225 -2.763281,4.50269405 1.446328,2.92229335 2.390225,-0.8973563 3.751996,-1.0107608 3.026159,-0.2520123 -0.72584,0.7587466 1.073388,0.551459 3.99828,-0.4606423 l 5.3179866,-1.84018534 z"
           id="path4437" />
      </g>
    </g>
  </g>
</svg>
