<?xml version="1.0" encoding="UTF-8" standalone="no"?>
<svg
   xmlns:dc="http://purl.org/dc/elements/1.1/"
   xmlns:cc="http://creativecommons.org/ns#"
   xmlns:rdf="http://www.w3.org/1999/02/22-rdf-syntax-ns#"
   xmlns:svg="http://www.w3.org/2000/svg"
   xmlns="http://www.w3.org/2000/svg"
   xmlns:sodipodi="http://sodipodi.sourceforge.net/DTD/sodipodi-0.dtd"
   xmlns:inkscape="http://www.inkscape.org/namespaces/inkscape"
   width="100"
   height="60"
   viewBox="0 0 26.458333 15.875"
   version="1.1"
   id="svg8"
   sodipodi:docname="Grass6.svg"
   inkscape:version="1.0.2-2 (e86c870879, 2021-01-15)">
  <defs
     id="defs2" />
  <sodipodi:namedview
     id="base"
     pagecolor="#ffffff"
     bordercolor="#666666"
     borderopacity="1.0"
     inkscape:pageopacity="0.0"
     inkscape:pageshadow="2"
     inkscape:zoom="6.9890346"
     inkscape:cx="7.330695"
     inkscape:cy="3.6"
     inkscape:document-units="mm"
     inkscape:current-layer="layer1"
     inkscape:document-rotation="0"
     showgrid="true"
     showguides="true"
     inkscape:guide-bbox="true"
     inkscape:window-width="1920"
     inkscape:window-height="1017"
     inkscape:window-x="-8"
     inkscape:window-y="-8"
     inkscape:window-maximized="1"
     units="px">
    <inkscape:grid
       type="xygrid"
       id="grid1942"
       units="px"
       dotted="false"
       spacingx="0.26458333"
       spacingy="0.26458333"
       empspacing="10"
       visible="true" />
  </sodipodi:namedview>
  <metadata
     id="metadata5">
    <rdf:RDF>
      <cc:Work
         rdf:about="">
        <dc:format>image/svg+xml</dc:format>
        <dc:type
           rdf:resource="http://purl.org/dc/dcmitype/StillImage" />
        <dc:title></dc:title>
      </cc:Work>
    </rdf:RDF>
  </metadata>
  <g
     inkscape:label="Layer 1"
     inkscape:groupmode="layer"
     id="layer1">
    <path
       style="fill:#2e8035;fill-opacity:1;fill-rule:evenodd;stroke:none;stroke-width:0.229136;stroke-linecap:butt;stroke-linejoin:bevel;stroke-miterlimit:1;stroke-dasharray:none;stroke-opacity:1;paint-order:stroke markers fill"
       d="M 3.5912897e-6,7.9374999 13.229166,5.4663196e-7 26.458333,7.9374999 13.229166,15.875 Z"
       id="path1960" />
    <g
       id="g3677"
       transform="matrix(1.5624998,0.93750003,-1.5624998,0.93750003,15.204834,6.2722431)">
      <path
         style="fill:#63a32b;stroke-width:0.264583"
         d="m -2.5150514,3.7385006 c -0.321379,-0.3213788 -0.1828118,-0.603218 0.2204861,-0.4484579 0.2182812,0.083762 0.396875,0.2586194 0.396875,0.388571 0,0.2773902 -0.3644996,0.3127484 -0.6173611,0.059887 z M -0.30177588,2.541442 c -0.004628,-0.2460733 0.11856931,-0.5258863 0.27377177,-0.6218067 0.46634927,-0.2882196 0.5317331,0.015621 0.12036954,0.5593608 -0.33866004,0.4476393 -0.38675335,0.455259 -0.39414131,0.062446 z M 1.0211407,1.7644741 C 1.0165129,1.5276307 1.1913199,1.1856303 1.4096012,1.004473 1.9182755,0.58231078 1.9236289,1.013027 1.4180149,1.6815074 1.091667,2.1129782 1.0282093,2.1262441 1.0211399,1.7644741 Z M -1.9858848,1.621834 C -2.0828988,1.52482 -2.1622737,1.2721168 -2.1622737,1.0602708 c 0,-0.31237849 0.075008,-0.32292399 0.396875,-0.055798 0.2182813,0.1811573 0.396875,0.4338609 0.396875,0.5615636 0,0.273981 -0.36609,0.3070685 -0.6173611,0.055798 z M -1.0327992,1.2690564 C -1.341986,0.52277662 -1.2368012,0.2366123 -0.81013462,0.66327883 -0.65339229,0.82002116 -0.57770982,1.1692711 -0.64195144,1.4393898 -0.74311302,1.8647472 -0.7954521,1.8419375 -1.0327992,1.2690564 Z m 4.090534,0.1047308 C 2.9516258,1.2676784 2.8648094,0.99829952 2.8648094,0.77516741 c 0,-0.29781313 0.078273,-0.32742185 0.2943489,-0.11134539 C 3.3210503,0.82571394 3.4078667,1.0950928 3.3520838,1.2624418 3.2963006,1.4297907 3.1638436,1.4798962 3.0577348,1.3737872 Z M -0.31019042,0.65560988 c 0,-0.20905125 0.1692267,-0.52053873 0.37605915,-0.69219443 0.30876926,-0.25625588 0.35039774,-0.21397213 0.23264626,0.2363097 C 0.1254357,0.86158165 -0.31019042,1.1878399 -0.31019042,0.65560988 Z M -2.0018545,-0.73742714 c -0.098882,-0.25768142 -0.039751,-0.37864076 0.1535936,-0.31419266 0.395509,0.13183634 0.6132761,0.73317625 0.2655099,0.73317625 -0.1420784,0 -0.330675,-0.1885426 -0.4191035,-0.41898359 z"
         id="path3685" />
      <path
         style="fill:#489130;stroke-width:0.264583"
         d="m -1.633107,3.5492444 c 0,-0.2182812 0.1190625,-0.4704596 0.2645833,-0.5603965 0.1455208,-0.089937 0.2645833,0.015073 0.2645833,0.2333535 0,0.2182813 -0.1190625,0.4704596 -0.2645833,0.5603965 C -1.5140445,3.8725348 -1.633107,3.7675246 -1.633107,3.5492444 Z M 2.7325177,2.0628063 C 2.6425808,1.9172855 2.6880588,1.798223 2.8335796,1.798223 c 0.1455208,0 0.3381679,0.1190625 0.4281048,0.2645833 0.089937,0.1455208 0.044459,0.2645833 -0.1010618,0.2645833 -0.1455209,0 -0.338168,-0.1190625 -0.4281049,-0.2645833 z M 3.6585594,1.8294528 c 0,-0.1455208 0.1190625,-0.3381679 0.2645833,-0.4281048 0.1455208,-0.089937 0.2645833,-0.044459 0.2645833,0.1010619 0,0.1455208 -0.1190625,0.3381679 -0.2645833,0.4281048 C 3.7776219,2.0204516 3.6585594,1.9749737 3.6585594,1.8294528 Z M -3.3088014,0.82808408 c -0.097014,-0.0970137 -0.1763888,-0.29941995 -0.1763888,-0.44979165 0,-0.16578896 0.1232351,-0.15016743 0.3130902,0.0396875 0.1721997,0.17219982 0.2515747,0.37460606 0.1763889,0.44979164 -0.075186,0.0751859 -0.2160764,0.0573265 -0.3130903,-0.0396875 z M 2.0710595,0.10966126 c 0,-0.21828124 0.1190624,-0.47045965 0.2645833,-0.56039647 0.1455208,-0.0899368 0.2645833,0.0150723 0.2645833,0.23335349 0,0.2182812399 -0.1190625,0.47045957 -0.2645833,0.56039647 C 2.1901219,0.43295164 2.0710595,0.32794144 2.0710595,0.10966126 Z M 1.1450178,-0.05386023 c -0.089937,-0.14552083 -0.037432,-0.26458332 0.1166768,-0.26458332 0.1541089,0 0.2801982,0.11906249 0.2801982,0.26458332 0,0.14552082 -0.052504,0.26458332 -0.1166767,0.26458332 -0.064172,0 -0.1902614,-0.1190625 -0.2801983,-0.26458332 z M -1.1755983,-1.0074626 c -0.106109,-0.1061089 -0.1929254,-0.3754878 -0.1929254,-0.5986198 0,-0.2978131 0.078272,-0.3274218 0.2943489,-0.1113454 0.16189197,0.1618919 0.24870837,0.4312708 0.19292547,0.5986197 -0.0557832,0.16734896 -0.18824017,0.21745443 -0.29434897,0.1113455 z"
         id="path3683" />
      <path
         style="fill:#006a45;stroke-width:0.264583"
         d="M 0.6158512,2.3273896 C 0.5259143,2.1818688 0.5713922,2.0628063 0.71691303,2.0628063 c 0.14552082,0 0.33816787,0.1190625 0.42810477,0.2645833 0.089937,0.1455209 0.044459,0.2645834 -0.1010618,0.2645834 -0.14552082,0 -0.33816791,-0.1190625 -0.4281048,-0.2645834 z M -1.236232,2.0628063 c 0.089937,-0.1455208 0.34211519,-0.2645833 0.56039643,-0.2645833 0.21828124,0 0.32329039,0.1190625 0.23335349,0.2645833 -0.0899369,0.1455208 -0.34211523,0.2645833 -0.56039642,0.2645833 -0.2182813,0 -0.3232904,-0.1190625 -0.2333535,-0.2645833 z M 0.08668456,1.2690564 C 0.17662146,1.1235355 0.36926854,1.004473 0.51478936,1.004473 c 0.14552083,0 0.19099873,0.1190625 0.10106184,0.2645834 -0.0899369,0.1455208 -0.28258398,0.2645833 -0.42810481,0.2645833 -0.14552082,0 -0.19099873,-0.1190625 -0.10106183,-0.2645833 z"
         id="path3679" />
    </g>
  </g>
</svg>
