<?xml version="1.0" encoding="UTF-8" standalone="no"?>
<svg
   xmlns:dc="http://purl.org/dc/elements/1.1/"
   xmlns:cc="http://creativecommons.org/ns#"
   xmlns:rdf="http://www.w3.org/1999/02/22-rdf-syntax-ns#"
   xmlns:svg="http://www.w3.org/2000/svg"
   xmlns="http://www.w3.org/2000/svg"
   xmlns:sodipodi="http://sodipodi.sourceforge.net/DTD/sodipodi-0.dtd"
   xmlns:inkscape="http://www.inkscape.org/namespaces/inkscape"
   width="80"
   height="160"
   viewBox="0 0 21.166666 42.333335"
   version="1.1"
   id="svg8"
   inkscape:version="1.0.2-2 (e86c870879, 2021-01-15)"
   sodipodi:docname="Knight2.svg">
  <defs
     id="defs2" />
  <sodipodi:namedview
     id="base"
     pagecolor="#ffffff"
     bordercolor="#666666"
     borderopacity="1.0"
     inkscape:pageopacity="0.0"
     inkscape:pageshadow="2"
     inkscape:zoom="1.8274291"
     inkscape:cx="40"
     inkscape:cy="80"
     inkscape:document-units="mm"
     inkscape:current-layer="layer1"
     inkscape:document-rotation="0"
     showgrid="true"
     units="px"
     inkscape:window-width="1920"
     inkscape:window-height="1017"
     inkscape:window-x="-8"
     inkscape:window-y="-8"
     inkscape:window-maximized="1">
    <inkscape:grid
       type="xygrid"
       id="grid833"
       empspacing="10" />
  </sodipodi:namedview>
  <metadata
     id="metadata5">
    <rdf:RDF>
      <cc:Work
         rdf:about="">
        <dc:format>image/svg+xml</dc:format>
        <dc:type
           rdf:resource="http://purl.org/dc/dcmitype/StillImage" />
        <dc:title />
      </cc:Work>
    </rdf:RDF>
  </metadata>
  <g
     inkscape:label="Layer 1"
     inkscape:groupmode="layer"
     id="layer1">
    <g
       id="g8462"
       transform="matrix(1,0,0,1.1153846,-247.80232,1.6520483)">
      <path
         style="fill:#cacaca;stroke-width:0.0716605"
         d="m 256.66608,35.820499 -1.19662,-0.641496 -0.0207,-0.966655 c -0.0114,-0.531659 -0.0422,-0.966653 -0.0684,-0.966653 -0.0262,0 -0.30147,0.127886 -0.61167,0.284195 l -0.56401,0.284193 -0.31846,-0.155102 -0.31846,-0.155105 -0.27765,0.150402 c -0.1527,0.08272 -0.34007,0.135413 -0.41637,0.117093 -0.0763,-0.01832 -0.67694,-0.320532 -1.33477,-0.671591 l -1.19606,-0.638289 0.0205,-1.09969 0.0205,-1.099694 0.58272,-0.310621 c 0.59781,-0.318667 0.7125,-0.461014 0.6237,-0.774101 -0.0283,-0.09993 -0.20949,-0.23653 -0.51293,-0.386792 -0.74374,-0.368293 -0.73088,-0.349256 -0.73088,-1.081972 v -0.640686 l -0.29916,-0.181758 c -0.16453,-0.09997 -0.30392,-0.216274 -0.30974,-0.258462 -0.006,-0.04219 -0.0169,-0.138502 -0.0246,-0.214031 -0.008,-0.07553 -0.0198,-0.191012 -0.0268,-0.256627 -0.007,-0.06562 -0.14741,-0.197321 -0.31195,-0.292681 l -0.29915,-0.173381 v -0.648236 c 0,-0.62033 -0.008,-0.653546 -0.1941,-0.771602 -0.48966,-0.311225 -0.479,-0.281763 -0.479,-1.324002 v -0.960313 l -0.29985,-0.182178 -0.29985,-0.182178 0.0194,-3.405843 0.0194,-3.405844 0.28046,-0.166613 0.28046,-0.166614 V 13.84104 13.204508 l 0.33655,-0.221896 0.33655,-0.221897 V 11.50538 10.250045 l -0.33655,-0.212587 -0.33655,-0.2125875 V 9.1462103 c 0,-0.6646207 0.004,-0.6812422 0.20599,-0.8034967 0.3155,-0.1912049 0.47694,-0.2769911 0.81729,-0.4343134 0.17203,-0.079518 0.52288,-0.2692505 0.77967,-0.4216269 0.25679,-0.1523773 0.53673,-0.3058614 0.62208,-0.3410761 0.0854,-0.035215 0.28981,-0.1329605 0.45435,-0.2172119 0.27446,-0.1405395 0.30235,-0.1814985 0.33788,-0.4961797 0.0422,-0.3736478 0.10844,-0.5129878 0.24615,-0.5177021 0.049,-0.00169 0.35831,-0.1552935 0.68738,-0.3413698 0.32907,-0.1860768 0.69928,-0.3857665 0.82268,-0.4437555 0.1234,-0.057989 0.35002,-0.1747347 0.5036,-0.2594351 0.15358,-0.084701 0.86978,-0.4696832 1.59155,-0.8555173 l 1.31232,-0.7015178 0.24078,0.1347878 c 0.33798,0.1891978 0.46338,0.1723101 1.03479,-0.1393532 0.27696,-0.1510594 0.54816,-0.2747395 0.60266,-0.2748446 0.0545,-1.373e-4 0.23373,0.064879 0.39827,0.1444096 l 0.29916,0.1445996 0.80964,-0.4362283 c 1.40073,-0.7546969 1.5047,-0.8046453 1.68451,-0.809315 0.14042,-0.00365 1.13658,0.470509 1.73143,0.8241318 0.0617,0.03668 0.21315,0.1119035 0.33655,0.1671639 0.49899,0.2234527 0.52055,0.2611544 0.56092,0.980927 l 0.0374,0.666756 0.61701,0.3343203 0.61701,0.3343209 v 0.3330973 c 0,0.3159204 0.0153,0.3411666 0.2961,0.489553 0.27106,0.143227 0.30028,0.1871881 0.34557,0.5199552 l 0.0495,0.3635 0.58929,0.3120655 0.5893,0.3120656 v 0.2980715 c 0,0.3199564 0.0947,0.4487663 0.45582,0.6202298 l 0.21728,0.1031579 v 3.0510514 c 0,2.353792 -0.0214,3.068738 -0.0935,3.128441 -0.0514,0.04256 -0.32907,0.206465 -0.61701,0.364222 l -0.52352,0.286831 -0.0214,0.667646 -0.0214,0.667644 -0.26528,0.165501 -0.26529,0.165502 0.58584,0.301 0.58584,0.301001 0.0374,0.354129 c 0.0329,0.311212 0.0691,0.373676 0.29916,0.515411 l 0.26176,0.161281 0.0202,1.337615 0.0202,1.337615 0.33503,0.18579 0.33503,0.185789 v 3.365767 3.365768 l -0.31786,0.211072 -0.31785,0.211072 -0.0374,0.691684 -0.0374,0.69168 -1.65426,0.865759 c -0.90984,0.476169 -1.75592,0.916439 -1.88018,0.97838 l -0.22591,0.112622 0.0161,0.661354 c 0.0115,0.471 -0.0116,0.682479 -0.0802,0.734745 -0.053,0.04037 -1.19708,0.657659 -2.54245,1.371759 l -2.44613,1.298365 -0.79134,-0.0054 -0.79135,-0.0054 -1.19662,-0.641499 z"
         id="path8476" />
      <path
         style="fill:#adadad;stroke-width:0.0716605"
         d="m 257.78682,36.334025 c -0.90923,-0.421507 -2.27498,-1.208991 -2.31114,-1.332595 -0.0229,-0.07818 -0.042,-0.520653 -0.0426,-0.983272 -5.6e-4,-0.46262 -0.0268,-0.841128 -0.0583,-0.841128 -0.0315,0 -0.28765,0.123594 -0.56921,0.274655 -0.28156,0.151059 -0.54319,0.274653 -0.58141,0.274653 -0.0382,0 -0.20458,-0.06328 -0.36971,-0.140624 l -0.30023,-0.140623 -0.24784,0.140623 c -0.1363,0.07734 -0.29517,0.140624 -0.35303,0.140624 -0.15509,0 -2.32315,-1.153115 -2.47606,-1.316934 -0.10989,-0.117719 -0.13089,-0.281278 -0.13089,-1.019615 0,-0.483669 0.0199,-0.926988 0.0442,-0.985148 0.0243,-0.05816 0.31038,-0.249016 0.63571,-0.424121 l 0.59151,-0.318376 v -0.334946 -0.334946 l -0.59831,-0.31684 -0.59832,-0.31684 v -0.6715 -0.671501 l -0.29915,-0.181757 c -0.25599,-0.155532 -0.29916,-0.217053 -0.29916,-0.426386 0,-0.241278 -0.065,-0.320891 -0.60546,-0.74108 -0.12569,-0.09773 -0.13583,-0.175182 -0.0939,-0.717306 l 0.047,-0.607747 -0.32821,-0.202263 -0.32821,-0.202262 -0.0206,-1.00233 -0.0206,-1.00233 -0.29791,-0.181005 -0.29792,-0.181004 0.0194,-3.345936 0.0194,-3.345936 0.21224,0.01375 c 0.1502,0.0097 0.20104,-0.01305 0.17392,-0.07795 -0.0211,-0.05043 0.0105,-0.155723 0.0702,-0.233974 0.0709,-0.09299 0.11433,-0.351402 0.12525,-0.746014 0.0154,-0.555847 0.0286,-0.603115 0.16627,-0.595857 0.0823,0.0043 0.20358,0.02909 0.26959,0.05501 0.16586,0.06514 0.21507,-0.366619 0.21589,-1.894044 l 5.6e-4,-1.213175 -0.28046,-0.156468 c -0.15425,-0.086059 -0.3045,-0.1889987 -0.33388,-0.2287567 -0.077,-0.1042029 -0.0617,-1.1586052 0.0186,-1.2770482 0.0555,-0.081927 0.0947,-0.084442 0.2185,-0.014017 0.23256,0.132324 0.30245,0.1040587 0.30245,-0.1223158 0,-0.1194351 0.0467,-0.224591 0.10953,-0.2467328 0.13447,-0.047376 0.56357,0.2221199 0.56357,0.3539508 0,0.052642 -0.22717,0.2001348 -0.50482,0.3277637 -0.27766,0.127628 -0.50483,0.2706936 -0.50483,0.3179238 0,0.080337 7.0993,3.8955552 7.3865,3.9695562 0.0798,0.02057 0.35518,-0.104455 0.69686,-0.316381 l 0.56491,-0.350383 0.35572,0.165493 0.35572,0.165492 1.41546,-0.755934 c 0.7785,-0.415764 1.44742,-0.784312 1.4865,-0.818996 0.11074,-0.09829 0.2774,-0.07578 0.60205,0.08131 l 0.29916,0.144756 1.15617,-0.6168 c 0.6359,-0.339239 1.16698,-0.646542 1.18018,-0.682895 0.0331,-0.09125 -1.47244,-0.8426947 -1.68911,-0.8430552 -0.0965,-1.375e-4 -0.27317,0.052717 -0.39264,0.117507 -0.18223,0.098828 -0.21739,0.1624129 -0.21835,0.3948146 -5.7e-4,0.152358 -0.0259,0.3119216 -0.0561,0.3545846 -0.11217,0.15835 -3.79041,2.085328 -3.9805,2.085328 -0.0806,0 -0.29039,-0.05792 -0.46631,-0.128702 -0.75642,-0.30437 -0.88375,-0.328452 -1.32951,-0.251459 -0.22721,0.03924 -0.3736,-0.01109 -1.10925,-0.381449 l -0.84749,-0.426662 -0.37166,0.07876 c -0.39991,0.08475 -0.56779,0.03495 -1.28745,-0.381905 -0.26337,-0.152557 -0.28379,-0.186026 -0.24106,-0.395163 0.0579,-0.283384 0.006,-0.333925 -0.77574,-0.7546665 -0.58085,-0.3126396 -0.73911,-0.5003626 -0.52449,-0.6221406 0.0448,-0.025401 -0.0976,-0.2069269 -0.33372,-0.425411 -0.33482,-0.3098589 -0.39835,-0.4041776 -0.33985,-0.5045369 0.0396,-0.067889 0.072,-0.2036818 0.072,-0.301762 0,-0.2113355 0.18468,-0.2984659 0.38689,-0.182528 0.19122,0.1096364 0.28621,0.04275 0.28621,-0.2015326 0,-0.1269351 0.0387,-0.2019376 0.10429,-0.2019376 0.0574,0 0.57435,0.2471883 1.14887,0.5493074 0.57451,0.3021189 1.09972,0.5493072 1.16712,0.5493072 0.0863,0 0.12255,-0.06092 0.12255,-0.2059903 0,-0.1132945 0.0352,-0.2059902 0.0783,-0.2059902 0.0431,0 0.34553,0.1415284 0.67218,0.3145081 l 0.59391,0.3145073 0.4035,-0.2119482 c 0.22192,-0.1165719 0.4441,-0.2568734 0.49374,-0.3117808 0.0961,-0.106319 -0.01,-0.184307 -0.72352,-0.5320391 l -0.31424,-0.1531366 -0.34216,0.1526176 c -0.34776,0.1551037 -0.63734,0.198689 -0.63734,0.095923 0,-0.031181 0.0841,-0.129263 0.18697,-0.2179588 0.16419,-0.1416082 0.18697,-0.2186559 0.18697,-0.6320949 0,-0.3218441 0.0306,-0.4816176 0.0968,-0.5049228 0.0532,-0.01875 0.6233,0.2448566 1.26685,0.5857945 0.64356,0.3409372 1.21704,0.6198865 1.27443,0.6198865 0.0574,0 1.76397,-0.8827815 3.79243,-1.9617374 2.77988,-1.4786467 3.70352,-1.939412 3.75072,-1.8710782 0.0344,0.049863 0.0631,0.3560617 0.0637,0.6804421 10e-4,0.5421663 0.0147,0.5960926 0.16942,0.6679269 0.0926,0.042979 0.3029,0.1557549 0.46743,0.2506131 0.16454,0.094858 0.37488,0.2029322 0.46744,0.2401643 0.1415,0.056925 0.16827,0.1210954 0.16827,0.4033728 0,0.31233 0.0202,0.3485054 0.28985,0.520092 0.24944,0.1586995 0.29528,0.2286215 0.32877,0.5014665 0.0408,0.3325611 0.17053,0.4760635 0.6154,0.6808963 0.64385,0.2964479 0.63571,0.2886388 0.63571,0.6098793 0,0.3210373 0.1639,0.5338245 0.5056,0.656397 l 0.16906,0.060642 -0.0195,3.0379676 -0.0195,3.037967 -0.48612,0.25916 c -0.7739,0.412572 -0.74789,0.373963 -0.74789,1.110288 v 0.646192 l -0.26176,0.141793 c -0.14398,0.07799 -0.26177,0.173106 -0.26177,0.211377 0,0.03827 0.12846,0.129751 0.28546,0.203288 0.49964,0.234015 0.5194,0.313294 0.13028,0.522651 -0.32681,0.175838 -0.43641,0.307724 -0.25573,0.307724 0.0469,0 0.25271,-0.09462 0.45743,-0.210271 0.4831,-0.272907 0.57975,-0.235177 0.57709,0.225282 l -0.002,0.362637 -0.64285,0.335715 -0.64285,0.335714 -0.32732,-0.145998 c -0.18002,-0.0803 -0.32731,-0.177297 -0.32731,-0.215552 0,-0.03826 -0.0657,-0.06956 -0.14606,-0.06956 -0.0803,0 -0.229,-0.03469 -0.33036,-0.0771 -0.16576,-0.06934 -0.30725,-0.01149 -1.40582,0.574812 -0.67183,0.358551 -1.29723,0.687868 -1.38978,0.731816 -0.0926,0.04395 -0.16828,0.105542 -0.16828,0.136876 0,0.03133 0.27765,0.211807 0.61701,0.401052 0.97006,0.540965 0.92326,0.526828 1.20846,0.365 0.13689,-0.07767 0.29244,-0.14122 0.34567,-0.14122 0.0532,0 0.36046,0.141922 0.68273,0.315382 l 0.58595,0.315383 0.82292,-0.424652 c 0.4526,-0.233559 0.82292,-0.453408 0.82292,-0.488553 0,-0.0699 -0.6176,-0.44743 -0.83609,-0.511095 -0.25062,-0.07303 -0.13997,-0.266775 0.29542,-0.517273 0.79334,-0.456441 1.28627,-0.689833 1.3639,-0.645784 0.0492,0.02792 0.0735,0.514863 0.0671,1.344169 -0.006,0.837964 0.0185,1.331947 0.0702,1.389127 0.0441,0.0488 0.0609,0.156648 0.0372,0.239654 -0.0473,0.166105 0.10464,0.209924 0.25363,0.07314 0.0466,-0.04278 0.13746,-0.0592 0.20193,-0.03649 0.10418,0.0367 0.11708,0.406007 0.11606,3.322128 -5.6e-4,1.804458 -0.0259,3.311907 -0.0561,3.349887 -0.0302,0.03798 -0.18115,0.155422 -0.33541,0.260982 l -0.28046,0.191927 v 0.638166 c 0,0.523066 -0.0236,0.656603 -0.13088,0.740377 -0.15876,0.123986 -2.58505,1.405937 -3.15983,1.669532 -0.22624,0.103751 -0.42471,0.199772 -0.44105,0.213378 -0.0163,0.0136 -0.0332,0.340046 -0.0374,0.725423 l -0.008,0.700684 -2.50543,1.330044 -2.50544,1.330045 -0.71049,0.01334 c -0.51157,0.0096 -0.77362,-0.01593 -0.93595,-0.09118 z m 6.72332,-12.2075 c 0.0206,-0.03058 -0.21302,-0.169369 -0.51911,-0.308423 -0.3061,-0.139054 -0.55654,-0.23838 -0.55654,-0.220722 0,0.03995 0.91563,0.581322 0.98654,0.5833 0.0284,7.79e-4 0.0685,-0.02358 0.0891,-0.05416 z m 1.27345,-0.003 c 0.0217,-0.03224 -0.0452,-0.09404 -0.14869,-0.137327 -0.28895,-0.120872 -0.388,-0.08937 -0.19152,0.06091 0.19249,0.147221 0.2794,0.166745 0.34021,0.07642 z m -5.14747,-1.318094 c 0.34392,-0.190721 0.64401,-0.374562 0.66689,-0.408536 0.0229,-0.03397 -0.0279,-0.0959 -0.11279,-0.137617 -0.12757,-0.06268 -0.25079,-0.03088 -0.70985,0.183184 -0.30551,0.142468 -0.63243,0.312547 -0.7265,0.377954 -0.16988,0.118133 -0.17002,0.119615 -0.0214,0.223168 0.0823,0.05733 0.17856,0.105227 0.21398,0.106429 0.0354,0.0012 0.34579,-0.153861 0.68971,-0.344582 z m 7.73816,-0.03265 c 0.27183,-0.129055 0.27707,-0.192916 0.0245,-0.298571 -0.16029,-0.06705 -0.22866,-0.0625 -0.37394,0.02489 -0.20039,0.120543 -0.21729,0.177378 -0.088,0.29604 0.11629,0.106772 0.17143,0.103954 0.43749,-0.02236 z m -3.11155,-0.369809 c 0.0473,-0.07026 -0.85414,-0.555381 -1.032,-0.555381 -0.2721,0 -0.16733,0.145306 0.26822,0.371947 0.47371,0.246503 0.68687,0.297697 0.76378,0.183437 z m 1.97252,-0.354432 c 0.63056,-0.339592 0.75593,-0.433228 0.68505,-0.511639 -0.19762,-0.218607 -0.37046,-0.183511 -1.19713,0.243077 -0.45135,0.232912 -0.82064,0.450016 -0.82064,0.482454 0,0.08411 0.23526,0.198701 0.41134,0.200361 0.0823,7.79e-4 0.49689,-0.185639 0.92138,-0.414253 z m -3.9237,-0.02613 c -0.0151,-0.09197 -1.55287,-0.817801 -1.66192,-0.784429 -0.13305,0.04072 1.34877,0.882038 1.5231,0.864759 0.0823,-0.0082 0.14474,-0.0443 0.13882,-0.08033 z m 4.57169,-1.179734 c -0.16373,-0.10992 -0.30436,-0.02288 -0.23421,0.144969 0.0381,0.09123 0.0749,0.09646 0.21038,0.02991 0.15877,-0.07801 0.15956,-0.08376 0.0238,-0.174877 z m -0.63451,-0.850045 c 0.0997,-0.0601 0.0997,-0.07512 0,-0.135225 -0.16815,-0.101341 -0.22436,-0.0844 -0.22436,0.06761 0,0.152013 0.0562,0.168953 0.22436,0.06761 z m -8.1714,-0.382651 c 0.18166,-0.09774 0.31639,-0.190475 0.2994,-0.206075 -0.017,-0.0156 -0.2945,-0.0079 -0.61668,0.0171 l -0.58579,0.04546 0.21817,0.160272 c 0.27201,0.199828 0.28284,0.199563 0.6849,-0.01676 z m -10.67544,-3.999313 c 0,-0.0894 -0.0889,-0.148865 -0.16123,-0.107828 -0.0774,0.04389 -0.0107,0.165047 0.0908,0.165047 0.0387,0 0.0704,-0.02575 0.0704,-0.05722 z m 0.6731,-1.762361 c 0,-0.05665 -0.0485,-0.102995 -0.10777,-0.102995 -0.12495,0 -0.20929,0.098 -0.13949,0.162081 0.0894,0.08206 0.24726,0.04434 0.24726,-0.05909 z m 8.48244,-0.144673 c 0.1786,-0.06292 0.14324,-0.138168 -0.11022,-0.234558 -0.29719,-0.113017 -0.48254,0.01182 -0.25359,0.170799 0.16615,0.115367 0.20033,0.121356 0.36381,0.06376 z m 2.07183,-0.412045 c 2.05412,-1.095102 1.90004,-0.997984 1.74671,-1.10092 -0.0764,-0.0513 -0.21826,-0.09328 -0.31519,-0.09328 -0.14745,0 -2.38015,1.0987 -2.70093,1.329118 -0.0824,0.05917 -0.0704,0.09552 0.0644,0.195736 0.0911,0.06769 0.20794,0.123068 0.25975,0.123068 0.0518,0 0.47719,-0.204174 0.94528,-0.453722 z m 0.1937,-2.779836 c 0.93742,-0.49445 1.74913,-0.932834 1.80379,-0.974186 0.0786,-0.059461 0.0451,-0.1007586 -0.16026,-0.1974758 l -0.25963,-0.1222916 -1.73955,0.9215384 c -0.95676,0.506846 -1.7718,0.951141 -1.81121,0.987322 -0.0457,0.04194 0.006,0.104358 0.14227,0.17219 0.11765,0.05852 0.23782,0.107644 0.26704,0.109156 0.0292,0.0015 0.82012,-0.401801 1.75755,-0.896253 z m -3.4589,0.53177 c 0.0758,-0.05092 0.1158,-0.125409 0.0888,-0.165535 -0.027,-0.04013 -0.41989,-0.26429 -0.87307,-0.498143 -0.62697,-0.323537 -0.86828,-0.4149731 -1.00936,-0.3824644 -0.35594,0.082018 -0.25631,0.1769014 0.77835,0.7413004 0.39545,0.215714 0.75463,0.39338 0.79819,0.394814 0.0436,0.0014 0.14125,-0.03905 0.2171,-0.08997 z m -2.47311,-0.723334 c 0.12251,-0.124284 0.10533,-0.140414 -0.44486,-0.4176449 -0.40811,-0.2056373 -0.62372,-0.2765171 -0.75155,-0.2470627 -0.3015,0.069475 -0.20267,0.2252853 0.32557,0.5132766 0.57348,0.312647 0.69167,0.3332 0.87084,0.151431 z m 5.38915,-0.8595475 c 0.94411,-0.5026699 1.72746,-0.9439752 1.74079,-0.9806784 0.0133,-0.036704 -0.0632,-0.103298 -0.17001,-0.1479855 -0.11849,-0.049567 -0.18483,-0.1260888 -0.17012,-0.1962366 0.0133,-0.063242 0.37503,-0.3023657 0.80392,-0.5313856 0.42888,-0.2290199 0.79291,-0.4535811 0.80895,-0.4990232 0.0164,-0.046611 -0.20897,-0.1927202 -0.51718,-0.3352203 -0.50804,-0.2348899 -0.55951,-0.2455801 -0.73426,-0.1524938 -2.43517,1.297177 -4.26858,2.2400843 -4.42435,2.2754007 -0.11164,0.025313 -0.33387,7.785e-4 -0.51015,-0.056323 -0.29806,-0.09655 -0.32963,-0.093128 -0.69075,0.074881 -0.32015,0.1489426 -0.36252,0.1903719 -0.27514,0.269032 0.20055,0.18053 2.12463,1.1898262 2.27217,1.1918862 0.0823,0.0011 0.92203,-0.409185 1.86613,-0.9118535 z M 254.51963,9.337091 c 0.0494,-0.045318 0.0898,-0.1043223 0.0898,-0.1311203 0,-0.026799 -0.25083,-0.1751124 -0.55739,-0.3295857 -0.49122,-0.2475138 -0.58002,-0.271399 -0.7479,-0.201175 -0.10477,0.043827 -0.19049,0.1041342 -0.19049,0.1340158 0,0.085839 0.99282,0.6044723 1.16297,0.6075175 0.0843,0.00151 0.1937,-0.034334 0.24306,-0.079652 z m -1.59259,-0.055545 c 0.10752,-0.1597187 -0.0785,-0.3515636 -0.62742,-0.647003 -0.58083,-0.3126293 -0.71314,-0.351017 -0.93745,-0.2719923 -0.24363,0.085833 -0.0972,0.2209171 0.64829,0.5981869 0.8254,0.4176885 0.84641,0.4250442 0.91658,0.3208084 z m 9.34822,-0.8333163 c 0,-0.049345 -0.0956,-0.120595 -0.21251,-0.1583324 -0.41033,-0.1324875 -0.91121,0.276989 -0.76544,0.6257552 0.0358,0.085689 0.12634,0.061446 0.51074,-0.1367775 0.25697,-0.1325101 0.46721,-0.2813003 0.46721,-0.3306453 z M 251.69261,6.5053443 c 0,-0.167713 0.0327,-0.3234687 0.0726,-0.3461233 0.10807,-0.061318 0.52572,0.15809 0.52572,0.2761801 0,0.092789 -0.40702,0.3740007 -0.54222,0.3746194 -0.0309,1.372e-4 -0.0561,-0.1369631 -0.0561,-0.3046762 z m 3.11874,-1.4260221 c -0.27968,-0.1545276 -0.48162,-0.3039803 -0.44873,-0.3321159 0.0329,-0.028136 0.59044,-0.3316876 1.23902,-0.6745597 l 1.17923,-0.6234027 0.24176,0.1353328 c 0.33941,0.1899951 0.46616,0.1700882 1.10055,-0.1728478 l 0.55963,-0.3025234 0.22437,0.1304303 c 0.12341,0.071736 0.23363,0.1559014 0.24494,0.1870337 0.0302,0.083248 -3.41533,1.8976686 -3.64051,1.9170825 -0.11636,0.010033 -0.39163,-0.093914 -0.70026,-0.2644298 z"
         id="path8474" />
      <path
         style="fill:#8f8f8f;stroke-width:0.0716605"
         d="m 256.73046,35.747544 -1.18621,-0.632161 -0.0195,-0.917677 c -0.0107,-0.504724 -0.0357,-0.958242 -0.0555,-1.00782 -0.026,-0.06507 -0.20588,-0.0047 -0.6469,0.216895 l -0.6109,0.307035 -0.32343,-0.144267 -0.32344,-0.144267 -0.30232,0.156 -0.30233,0.156 -0.42794,-0.218764 c -0.23538,-0.120319 -0.80657,-0.420903 -1.26933,-0.667964 l -0.84138,-0.449205 v -1.021271 -1.021273 l 0.35525,-0.199764 c 0.91795,-0.516187 0.92644,-0.524465 0.90148,-0.879508 l -0.0227,-0.32306 -0.57961,-0.299844 -0.57962,-0.299845 v -0.645399 c 0,-0.691312 -0.009,-0.710394 -0.479,-1.009087 -0.15287,-0.09716 -0.1941,-0.180331 -0.1941,-0.391516 0,-0.241624 -0.0342,-0.289771 -0.34601,-0.486716 l -0.34602,-0.218567 0.0506,-0.572469 c 0.0579,-0.654586 0.0138,-0.7722 -0.36628,-0.978089 L 248.55158,23.9121 v -0.988811 -0.988811 l -0.29918,-0.181757 -0.29915,-0.181757 v -2.940109 c 0,-1.61706 0.0207,-2.9591 0.046,-2.982311 0.0253,-0.02321 0.12798,0.0071 0.22821,0.06743 0.13969,0.08403 0.20278,0.09077 0.27021,0.02887 0.14671,-0.134695 -0.0402,-0.318982 -0.31162,-0.307178 -0.21703,0.0094 -0.23276,-0.0057 -0.23276,-0.223418 0,-0.221282 0.0127,-0.232627 0.24306,-0.216115 0.21809,0.01564 0.24306,-0.0013 0.24306,-0.165295 0,-0.100497 0.0252,-0.206067 0.0561,-0.2346 0.0308,-0.02853 0.0561,-0.185771 0.0561,-0.349419 0,-0.213289 0.0305,-0.297541 0.10777,-0.297541 0.0593,0 0.12857,0.0309 0.15399,0.06866 0.0254,0.03777 0.11368,0.06866 0.19612,0.06866 0.12407,0 0.14587,-0.03846 0.12647,-0.223156 -0.0241,-0.229807 -0.0709,-0.246755 -0.41608,-0.150881 -0.15349,0.04263 -0.16827,0.02428 -0.16827,-0.20894 0,-0.216967 0.0198,-0.24803 0.13088,-0.205169 0.41221,0.159076 0.44171,0.140275 0.49349,-0.314527 0.0268,-0.235437 0.0487,-0.942904 0.0487,-1.572149 0,-1.233361 -0.001,-1.238529 -0.43004,-1.5076752 -0.19711,-0.1237924 -0.24306,-0.1985847 -0.24306,-0.395642 0,-0.1878818 0.0255,-0.2340207 0.11228,-0.203434 0.0618,0.021758 1.77428,0.9211202 3.8056,1.9985852 2.03131,1.077465 3.75758,1.959027 3.83614,1.959027 0.0786,0 0.27855,-0.11587 0.4444,-0.257488 0.16586,-0.141618 0.39201,-0.301561 0.50255,-0.355427 0.18186,-0.08862 0.22856,-0.08372 0.4906,0.0515 0.15929,0.08219 0.3363,0.149437 0.39336,0.149437 0.11034,0 1.88483,-0.923486 2.65393,-1.381171 l 0.45958,-0.273495 0.25092,0.140442 c 0.138,0.07724 0.31417,0.140557 0.3915,0.140698 0.17539,3.38e-4 2.17826,-1.052777 2.46043,-1.293678 0.11427,-0.09756 0.6847,-0.4287162 1.26762,-0.7359011 0.58293,-0.3071851 1.07262,-0.5936661 1.08822,-0.6366239 0.0156,-0.042959 -0.0597,-0.1149562 -0.1674,-0.1599961 -0.10978,-0.045922 -0.1861,-0.128001 -0.17375,-0.1868715 0.0226,-0.10788 1.01057,-0.6673496 1.07461,-0.6085522 0.0196,0.018018 0.0557,0.1882529 0.0803,0.3783024 0.0389,0.30144 0.025,0.355154 -0.10867,0.4208422 -0.25549,0.1255312 -0.38928,0.2832077 -0.38928,0.4587519 0,0.2150012 0.0681,0.2101363 0.5494,-0.039236 0.21865,-0.1132946 0.43726,-0.2059903 0.48578,-0.2059903 0.0667,0 0.0835,0.7309936 0.0687,2.9996326 l -0.0195,2.999631 -0.57409,0.307448 c -0.34608,0.18534 -0.59073,0.364344 -0.61599,0.450704 -0.023,0.07879 -0.0428,0.390447 -0.0438,0.692566 l -0.002,0.549307 -0.26083,0.155124 c -0.32824,0.195209 -0.33,0.309305 -0.006,0.416728 0.45067,0.149617 0.47118,0.252407 0.0912,0.456873 -0.19371,0.104223 -0.34622,0.240324 -0.35965,0.32096 -0.0147,0.08816 -0.18048,0.22009 -0.44773,0.356285 -0.38576,0.196578 -0.44631,0.208694 -0.66472,0.133004 -0.23047,-0.07987 -0.27737,-0.06277 -1.14616,0.417834 -0.49822,0.275611 -1.16668,0.636015 -1.48547,0.8009 -0.31879,0.164886 -0.57961,0.321229 -0.57961,0.347431 0,0.04742 1.48312,0.87877 1.72494,0.966904 0.0784,0.02858 0.2311,-0.01877 0.39961,-0.123894 l 0.27273,-0.17014 0.66978,0.354894 0.66979,0.354895 0.84268,-0.450877 0.84267,-0.450877 0.0251,0.182158 c 0.0286,0.207244 0.0553,0.186907 -0.92096,0.699675 -0.7819,0.410667 -0.91013,0.568145 -0.6274,0.770528 0.35165,0.251723 0.46605,0.233133 1.29161,-0.209886 0.42952,-0.230496 0.81722,-0.419084 0.86154,-0.419084 0.0443,0 0.0806,0.104038 0.0806,0.231197 0,0.194596 -0.0485,0.260687 -0.30658,0.417466 l -0.30658,0.186268 0.157,0.153433 c 0.20627,0.201576 0.19822,0.275871 -0.0487,0.449095 -0.11311,0.07937 0.0855,0.0047 0.4413,-0.165932 0.35583,-0.170631 0.66714,-0.310239 0.6918,-0.310239 0.0247,0 0.0448,0.865159 0.0448,1.922575 0,1.057417 -0.019,1.922576 -0.0423,1.922576 -0.0233,0 -0.11059,-0.03355 -0.19405,-0.07456 -0.13477,-0.06622 -0.14607,-0.05818 -0.10109,0.07196 0.0296,0.08568 0.009,0.194548 -0.049,0.262196 -0.0909,0.105539 -0.0819,0.105249 0.10337,-0.0033 0.11168,-0.06544 0.222,-0.118976 0.24518,-0.118976 0.0232,0 0.0328,0.424626 0.0213,0.943613 l -0.0208,0.943613 -0.28046,0.166506 -0.28046,0.166505 -0.001,0.657965 c -5.7e-4,0.361881 -0.0259,0.693482 -0.0561,0.736891 -0.0711,0.102096 -2.62139,1.463975 -3.26136,1.741579 l -0.49067,0.212844 -0.0212,0.729796 -0.0212,0.729793 -2.46804,1.309055 -2.46803,1.309052 -0.7583,0.0049 -0.7583,0.0049 -1.18622,-0.632163 z m 9.32165,-8.275237 0.18697,-0.139934 -0.24306,0.108892 c -0.13369,0.05989 -0.24307,0.123547 -0.24307,0.14146 0,0.06828 0.11914,0.02431 0.29916,-0.110418 z m 0.39264,-3.549354 c 0.23652,-0.132546 0.43004,-0.250351 0.43004,-0.261787 0,-0.01144 -0.18606,0.05475 -0.41347,0.147086 -0.49039,0.19911 -0.54918,0.20261 -0.89082,0.05303 -0.21505,-0.09415 -0.29767,-0.10006 -0.45848,-0.03279 l -0.19616,0.08206 0.39985,0.196913 c 0.44328,0.2183 0.39665,0.225921 1.12904,-0.184513 z m -1.73393,0.256754 c 0.18806,-0.0924 0.18545,-0.203575 -0.005,-0.203575 -0.0822,0 -0.41683,-0.131319 -0.74361,-0.291819 -0.54759,-0.268952 -0.60374,-0.283132 -0.71653,-0.180952 -0.11297,0.102353 -0.0774,0.135058 0.46315,0.425824 0.61343,0.329968 0.76364,0.367532 1.00177,0.250522 z m -3.84245,-1.346016 c 0.38302,-0.209834 0.69639,-0.418196 0.69639,-0.463026 0,-0.09754 -0.38457,-0.317109 -0.55542,-0.317109 -0.15123,0 -1.2144,0.487195 -1.45708,0.667703 -0.20747,0.154319 -0.17241,0.244558 0.16964,0.436613 0.2783,0.156266 0.26011,0.161408 1.14647,-0.324181 z m -0.83482,-0.88313 c 0.65503,-0.358766 1.2129,-0.652302 1.2397,-0.652302 0.0268,0 0.44833,0.216173 0.93672,0.480384 0.48838,0.264211 0.92631,0.480501 0.97317,0.480644 0.0469,1.37e-4 0.162,-0.05683 0.25586,-0.12661 l 0.17065,-0.12687 -0.77938,-0.395301 c -0.42866,-0.217415 -0.87056,-0.453859 -0.98202,-0.525432 -0.11145,-0.07157 -0.2418,-0.130132 -0.28966,-0.130132 -0.0479,0 -0.66343,0.291756 -1.36793,0.648348 -0.7045,0.356591 -1.37346,0.668926 -1.48658,0.694078 -0.28559,0.0635 -0.2727,0.305496 0.0163,0.305496 0.0672,0 0.65817,-0.293536 1.3132,-0.652303 z m 5.28937,0.55672 c 0.072,-0.05017 0.13088,-0.120481 0.13088,-0.15625 0,-0.03577 -0.27089,-0.197549 -0.60198,-0.359512 -0.44324,-0.216822 -0.65163,-0.283037 -0.79026,-0.251093 -0.30354,0.06994 -0.18656,0.242178 0.38258,0.563282 0.56383,0.318109 0.67686,0.344292 0.87878,0.203573 z m -7.58929,-2.719874 c 0.30618,-0.171384 0.35895,-0.170883 0.72739,0.0069 l 0.29915,0.144355 0.50414,-0.264325 c 0.27727,-0.145378 0.50444,-0.287499 0.50482,-0.315822 2.9e-4,-0.02832 -0.3611,-0.05147 -0.80329,-0.05144 -0.7386,4.9e-5 -0.84268,0.01686 -1.27988,0.206751 -0.40305,0.175056 -0.46175,0.222348 -0.38348,0.308931 0.11809,0.130639 0.13746,0.129051 0.43115,-0.03535 z m -0.0214,-6.053766 0.20628,-0.148969 -0.34576,-0.161327 c -0.3622,-0.169 -0.71972,-0.160097 -0.71972,0.01792 0,0.08396 0.49038,0.441343 0.60558,0.441343 0.026,0 0.14017,-0.06704 0.25362,-0.148969 z m 2.56251,-0.651694 c 0.75076,-0.397862 1.38304,-0.750156 1.40506,-0.782878 0.022,-0.03272 -0.13335,-0.140163 -0.34528,-0.238759 l -0.38532,-0.179267 -0.75798,0.348571 c -1.1623,0.534512 -2.02939,1.049836 -2.02939,1.206103 0,0.161942 0.46986,0.46727 0.63163,0.410451 0.0639,-0.02246 0.73052,-0.36636 1.48128,-0.764221 z m 8.25436,9.323542 -0.17799,-0.125659 0.17593,-0.113137 c 0.25102,-0.161417 0.29223,-0.14348 0.29223,0.127185 0,0.273015 -0.0398,0.28834 -0.29017,0.111611 z m -0.66535,-1.050666 c -0.0642,-0.05898 -0.0658,-0.105282 -0.006,-0.171658 0.13471,-0.149027 0.28821,-0.106015 0.28821,0.08076 0,0.18201 -0.13563,0.225662 -0.28242,0.0909 z m -0.21942,-0.769843 c -0.57703,-0.316432 -0.60288,-0.354427 -0.32943,-0.484251 0.29062,-0.137976 0.29222,-0.204502 0.009,-0.358319 -0.1234,-0.06692 -0.22436,-0.139252 -0.22436,-0.160726 0,-0.06452 0.93036,-0.53748 0.99095,-0.503763 0.0308,0.01717 0.0561,0.398349 0.0561,0.84707 0,0.44872 -0.0252,0.828863 -0.0561,0.844761 -0.0309,0.0159 -0.23144,-0.06725 -0.44575,-0.184772 z m -1.06148,-0.617639 c -0.0665,-0.07351 -0.0587,-0.104547 0.0344,-0.137327 0.19964,-0.07034 0.25755,-0.04899 0.25755,0.09498 0,0.157952 -0.16568,0.181989 -0.29191,0.04235 z m -0.54947,-0.940475 c -0.072,-0.03849 -0.13088,-0.09656 -0.13088,-0.129032 0,-0.03247 0.26083,-0.18971 0.57962,-0.349411 0.31879,-0.159701 0.66895,-0.347885 0.77813,-0.418187 0.26696,-0.17189 0.28761,-0.164478 0.28761,0.103233 0,0.21639 -0.0379,0.251254 -0.5966,0.549308 -0.6287,0.335384 -0.70781,0.356421 -0.91788,0.244089 z m -8.58204,-7.032501 c -0.18511,-0.091 -0.40774,-0.166849 -0.49474,-0.168555 -0.22812,-0.0045 -0.55231,-0.262226 -0.55231,-0.439121 0,-0.08327 0.0538,-0.22196 0.11963,-0.308205 0.10948,-0.143507 0.10952,-0.167068 5.7e-4,-0.277754 -0.0656,-0.06652 -0.52327,-0.315933 -1.0171,-0.554252 -0.6455,-0.3114926 -0.89792,-0.4684311 -0.89792,-0.558254 0,-0.161617 0.15544,-0.4747271 0.23568,-0.4747271 0.0342,0 0.6093,0.293381 1.27811,0.6519571 0.66881,0.358577 1.26693,0.652113 1.32916,0.652303 0.0622,2.05e-4 0.87864,-0.401336 1.81423,-0.8922796 0.93559,-0.4909435 1.73446,-0.8926244 1.77527,-0.8926244 0.0871,0 0.0958,0.137186 0.0159,0.2524292 -0.0308,0.044424 -0.71177,0.4269094 -1.51333,0.8499674 -2.31079,1.2196204 -2.37847,1.2800714 -1.76677,1.5779994 l 0.32632,0.158933 1.33774,-0.691297 c 1.95741,-1.011524 2.62514,-1.3037631 1.88789,-0.826261 -0.1895,0.122736 -0.59273,0.388038 -0.89608,0.589561 -0.30335,0.201523 -0.90927,0.550889 -1.34648,0.776369 -0.43722,0.225481 -0.87219,0.485453 -0.9666,0.577717 -0.20924,0.204483 -0.24565,0.204271 -0.66911,-0.0039 z m -1.8305,-0.328239 c -0.0813,-0.04606 -0.4683,-0.241107 -0.86008,-0.433444 -0.62668,-0.307655 -0.71497,-0.373702 -0.73432,-0.549307 -0.0121,-0.109783 0.0267,-0.260733 0.0863,-0.335444 0.10648,-0.133608 0.11299,-0.132666 0.39593,0.05732 0.15822,0.106239 0.44693,0.290961 0.64158,0.410493 0.19465,0.119532 0.35451,0.254382 0.35525,0.299666 8.4e-4,0.04528 0.11913,0.164821 0.2631,0.265638 0.14397,0.100816 0.26176,0.225983 0.26176,0.278148 0,0.116323 -0.21022,0.11988 -0.4095,0.0069 z m -2.58632,-0.779123 c -0.63655,-0.329729 -0.68652,-0.369608 -0.59288,-0.473195 0.0478,-0.05289 0.0631,-0.16113 0.0345,-0.243852 -0.0598,-0.1729293 -0.0754,-0.1773942 0.58512,0.167196 0.46836,0.244346 0.49955,0.274603 0.39366,0.38202 -0.0819,0.08309 -0.0919,0.137863 -0.0347,0.190366 0.16978,0.155877 -0.0682,0.141978 -0.38575,-0.02253 z m 0.46508,-1.098325 c -0.39978,-0.2080145 -0.46731,-0.2697085 -0.43106,-0.3937558 0.0237,-0.080901 0.0435,-0.203686 0.044,-0.2728549 8.5e-4,-0.1165875 0.0215,-0.1143788 0.28148,0.030277 0.84868,0.4721785 0.81961,0.4472082 0.78351,0.6730415 -0.0187,0.1166399 -0.0721,0.2115962 -0.1189,0.2110142 -0.0468,-5.45e-4 -0.29831,-0.1120571 -0.55904,-0.2477216 z m -1.86998,-0.2456997 c -0.33558,-0.1866712 -0.61014,-0.364762 -0.61014,-0.3957588 0,-0.1163604 0.22988,-0.1305881 0.49108,-0.030393 0.14871,0.057046 0.24851,0.071235 0.22179,0.031532 -0.0774,-0.1150462 0.0579,-0.085555 0.53538,0.1166361 l 0.4459,0.1888243 -0.23693,0.2142808 -0.23693,0.2142804 z m 9.99121,-0.3081498 c -0.20913,-0.050174 -0.15253,-0.1414501 0.14328,-0.2310812 0.1508,-0.045689 0.42027,-0.2210811 0.59883,-0.3897582 0.43352,-0.4095294 3.76118,-2.1924306 3.85059,-2.0630804 0.0333,0.04824 0.0611,0.2186409 0.0618,0.3786684 10e-4,0.3413259 0.16673,0.2284186 -2.07938,1.4195475 -1.39272,0.7385658 -1.53762,0.800095 -1.73529,0.7368319 -0.17549,-0.056167 -0.24988,-0.04432 -0.3993,0.063588 -0.18737,0.1353082 -0.21207,0.1400908 -0.4405,0.085284 z m -7.2641,-0.3362194 c -0.64312,-0.3145847 -0.81045,-0.4232144 -0.72585,-0.4712157 0.0446,-0.025279 0.081,-0.1213851 0.081,-0.2135686 0,-0.092183 0.022,-0.1676061 0.0489,-0.1676061 0.0737,0 0.98636,0.4762585 1.02625,0.5355103 0.0191,0.028337 0.0121,0.1513781 -0.0154,0.2734245 l -0.0501,0.221903 z m -5.80529,-0.097093 c 0,-0.2258017 0.0868,-0.2521142 0.36482,-0.1106099 l 0.17784,0.090514 -0.17579,0.1130436 c -0.26109,0.1678991 -0.36687,0.1410998 -0.36687,-0.092948 z m 3.64249,-0.3239924 -0.58308,-0.316373 -0.25829,0.1130817 c -0.1684,0.073724 -0.25829,0.1612636 -0.25829,0.2515191 0,0.2089077 -0.16331,0.1673012 -0.46809,-0.1192527 -0.20434,-0.1921257 -0.25607,-0.2838436 -0.2033,-0.3604829 0.0389,-0.056536 0.0713,-0.1759178 0.0719,-0.2652936 8.5e-4,-0.1364368 0.0281,-0.1550049 0.16942,-0.1157651 0.3452,0.095875 0.39194,0.078926 0.41608,-0.1508804 0.0129,-0.1227357 0.0594,-0.2231559 0.10328,-0.2231559 0.0439,0 0.48772,0.2137923 0.98622,0.4750939 0.4985,0.2613012 0.99892,0.5134492 1.11204,0.5603285 0.11311,0.046879 0.20566,0.1035025 0.20566,0.1258291 0,0.041687 -0.60592,0.3529107 -0.6731,0.3457245 -0.0206,-0.00221 -0.29978,-0.1463685 -0.62048,-0.3203732 z m 3.81772,0.2160555 c -0.22572,-0.1124225 -0.27983,-0.4028826 -0.11908,-0.6391967 0.13486,-0.1982635 0.0387,-0.3137218 -0.48526,-0.5827445 -0.52458,-0.2693384 -0.73158,-0.2989777 -1.02233,-0.1463855 -0.25102,0.131746 -0.31476,0.1269593 -0.22854,-0.017167 0.0395,-0.066088 0.093,-0.3287259 0.11877,-0.583639 0.0258,-0.254913 0.0666,-0.4634779 0.0908,-0.4634779 0.0241,0 0.46737,0.2287863 0.985,0.5084148 1.35287,0.7308335 1.4533,0.7699518 1.70575,0.6644464 0.17699,-0.073967 5.53243,-2.9411346 6.74976,-3.6136516 0.22516,-0.1243956 0.43891,-0.2094284 0.47497,-0.1889625 0.0619,0.03511 0.0323,1.1649346 -0.0317,1.2120763 -0.0165,0.012135 -0.65113,0.3515264 -1.41034,0.7542016 -1.02322,0.5427083 -1.44691,0.7321383 -1.63751,0.7321383 -0.14142,0 -0.50204,0.108145 -0.80136,0.2403221 -0.29932,0.1321768 -0.5721,0.2408704 -0.60616,0.2415407 -0.0341,6.748e-4 -0.56609,0.2324097 -1.18227,0.5149757 -0.61618,0.2825664 -1.14761,0.5137567 -1.18095,0.5137567 -0.18065,0 -0.49466,0.3138873 -0.54079,0.5405742 -0.0279,0.1369807 -0.0855,0.2876784 -0.12794,0.3348845 -0.10397,0.1155056 -0.49773,0.1039097 -0.75074,-0.022108 z m -6.83217,-0.05731 c -0.058,-0.1386596 -0.01,-0.3329701 0.0898,-0.3634621 0.0452,-0.013811 0.16129,0.033714 0.25801,0.1056139 l 0.17584,0.1307262 -0.24065,0.1142539 c -0.20896,0.099207 -0.24624,0.1009022 -0.28303,0.012867 z m 11.80191,-0.4079067 c -0.16431,-0.083727 -0.13687,-0.1066197 0.61426,-0.5123397 0.43245,-0.2335832 0.81933,-0.4814128 0.85973,-0.5507319 0.074,-0.1268682 2.90197,-1.659619 3.06209,-1.659619 0.0541,0 0.0859,0.1377964 0.0859,0.3721104 v 0.3721115 l -1.47708,0.7799525 c -1.4871,0.7852397 -1.81549,0.9329904 -2.22229,0.9998438 -0.12193,0.020037 -0.32386,0.093635 -0.44874,0.1635499 -0.26583,0.1488302 -0.2526,0.1478503 -0.47384,0.035123 z m -9.21402,-1.7614023 c 0,-0.2096219 0.045,-0.2385314 0.25564,-0.1643124 0.16234,0.057192 0.14859,0.2132632 -0.0264,0.2992235 -0.21058,0.1034669 -0.22928,0.092461 -0.22928,-0.1349111 z"
         id="path8472" />
      <path
         style="fill:#737373;stroke-width:0.0716605"
         d="m 257.82835,36.279296 c -0.52099,-0.248379 -2.07595,-1.076545 -2.19062,-1.166716 -0.11295,-0.08882 -0.13088,-0.233174 -0.13088,-1.053567 0,-0.670624 -0.0253,-0.950646 -0.086,-0.950646 -0.0473,0 -0.3195,0.123594 -0.60488,0.274653 -0.28539,0.151061 -0.558,0.27336 -0.6058,0.271777 -0.0478,-0.0016 -0.20431,-0.06025 -0.34779,-0.13038 -0.25465,-0.124459 -0.26752,-0.124391 -0.53924,0.0029 -0.1531,0.07171 -0.32263,0.130381 -0.37673,0.130381 -0.13675,0 -2.31695,-1.157259 -2.43173,-1.29077 -0.0641,-0.07461 -0.0935,-0.394746 -0.0935,-1.019871 0,-0.641852 0.0276,-0.933998 0.0935,-0.988517 0.0514,-0.04256 0.32907,-0.206549 0.61701,-0.364412 l 0.52352,-0.287021 v -0.407052 -0.40705 l -0.48613,-0.2557 c -0.71359,-0.375343 -0.68954,-0.339182 -0.63155,-0.949542 0.0583,-0.613466 0.006,-0.74711 -0.37715,-0.964535 -0.22784,-0.129275 -0.26271,-0.184648 -0.26271,-0.417142 0,-0.23994 -0.0334,-0.287933 -0.31785,-0.457235 -0.17482,-0.104036 -0.34124,-0.219407 -0.36982,-0.25638 -0.0286,-0.03697 -0.0321,-0.366503 -0.008,-0.732289 l 0.0441,-0.665065 -0.30802,-0.144273 -0.30803,-0.144272 -0.0207,-1.00981 -0.0207,-1.009809 -0.31785,-0.195879 -0.31786,-0.195878 1.5e-4,-0.973916 c 7e-5,-0.535652 0.0223,-1.829797 0.0493,-2.875875 0.0464,-1.792651 0.0568,-1.898212 0.18191,-1.836747 0.073,0.03587 0.20225,0.06521 0.28722,0.06521 0.12697,0 0.1545,-0.0432 0.1545,-0.242476 0,-0.254215 -0.0846,-0.321537 -0.42018,-0.334341 -0.0983,-0.0038 -0.17864,-0.03 -0.17846,-0.05832 1.5e-4,-0.02832 2.8e-4,-0.07619 2.8e-4,-0.106374 0,-0.03018 0.1178,-0.04225 0.26176,-0.02682 0.21431,0.02297 0.26321,0.0049 0.26972,-0.09962 0.0251,-0.403926 0.0245,-0.402805 0.23511,-0.382562 0.16515,0.01587 0.20567,-0.0083 0.20567,-0.122577 0,-0.117726 -0.0242,-0.130467 -0.13975,-0.07368 -0.16945,0.08326 -0.2342,0.03398 -0.2342,-0.178271 0,-0.187528 0.1201,-0.205991 0.31057,-0.04774 0.10676,0.08871 0.15811,0.09514 0.24303,0.03044 0.0888,-0.06764 0.10835,-0.415722 0.11156,-1.983549 0.002,-1.045833 0.005,-1.94165 0.006,-1.990705 0.002,-0.09113 0.86293,0.305435 1.16125,0.534939 0.17677,0.135987 0.76136,0.448039 1.23402,0.658715 0.45074,0.200901 2.55096,1.320966 2.69241,1.435879 0.0617,0.05013 0.49419,0.279837 0.9611,0.510468 l 0.84893,0.419327 0.25285,-0.143471 c 0.27084,-0.153677 0.29311,-0.148805 0.72301,0.158128 0.18651,0.133163 0.28046,0.255806 0.28046,0.366126 0,0.09124 0.0317,0.165889 0.0705,0.165889 0.0939,0 0.30339,-0.279389 0.30339,-0.404686 0,-0.05471 0.054,-0.154274 0.12004,-0.221249 0.11437,-0.116025 0.13378,-0.11342 0.41134,0.05522 0.204,0.123942 0.2913,0.226348 0.2913,0.341677 0,0.261355 0.18477,0.2599 0.65247,-0.0051 0.77096,-0.436888 0.71495,-0.630378 0.68254,2.357963 -0.0155,1.432435 -0.0464,2.621065 -0.0685,2.6414 -0.0222,0.02033 -0.42554,0.05512 -0.89644,0.0773 -0.88802,0.04183 -1.18513,0.09873 -1.66016,0.317958 -0.30787,0.142083 -0.35429,0.276664 -0.14297,0.414566 0.0756,0.04935 0.1604,0.174693 0.1884,0.278547 0.028,0.103853 0.082,0.188824 0.12003,0.188824 0.0978,0 0.30197,-0.283215 0.30197,-0.418851 0,-0.0625 0.0542,-0.15494 0.12045,-0.205417 0.17921,-0.136546 0.65065,0.127054 0.70427,0.393779 0.0291,0.144858 0.078,0.19215 0.18697,0.180836 0.5547,-0.0576 0.51993,-0.07064 0.5447,0.204146 0.0128,0.141618 0.0432,0.257488 0.0676,0.257488 0.0864,0 0.97202,-0.476997 1.054,-0.567687 0.0458,-0.05063 0.093,-0.380069 0.10491,-0.732094 l 0.0217,-0.640046 1.86973,-0.976255 1.86973,-0.976254 0.0374,-0.709163 0.0374,-0.709164 0.56091,-0.303847 c 0.30851,-0.167117 0.58565,-0.339478 0.61587,-0.383026 0.0779,-0.112188 0.0686,-3.698564 -0.01,-3.81224 -0.0515,-0.07464 -0.17015,-0.03673 -0.57847,0.184846 -0.63134,0.342602 -0.67772,0.310266 -0.62586,-0.436382 l 0.0374,-0.538345 0.35319,-0.190128 c 0.19425,-0.1045693 0.54763,-0.2886188 0.78528,-0.4089976 0.23765,-0.1203787 0.60386,-0.3226226 0.81378,-0.4494301 0.20993,-0.1268077 0.40345,-0.2305596 0.43004,-0.2305596 0.0266,0 0.0483,0.1063213 0.0483,0.2362695 0,0.1299483 0.0328,0.254873 0.0729,0.2776105 0.0401,0.022739 0.29791,-0.068306 0.57297,-0.2023176 0.27506,-0.1340124 0.51027,-0.2343312 0.52269,-0.2229296 0.0194,0.017811 0.0395,3.4002215 0.0309,5.2096075 l -0.003,0.594795 -0.59831,0.31684 -0.59831,0.31684 -0.001,0.633291 c -5.7e-4,0.348311 -0.0259,0.667604 -0.0561,0.709541 -0.0302,0.04194 -0.16433,0.127701 -0.29802,0.190587 -0.28233,0.132812 -0.35434,0.45413 -0.10177,0.45413 0.0777,0 0.21364,0.05407 0.30207,0.120161 l 0.16078,0.120161 -0.30207,0.170702 c -0.16612,0.09389 -0.30205,0.221983 -0.30205,0.284661 0,0.06268 -0.17152,0.215007 -0.38115,0.33851 -0.35734,0.21052 -0.39746,0.219135 -0.64215,0.1379 -0.24453,-0.08118 -0.28539,-0.07248 -0.6472,0.137851 -0.21241,0.123476 -0.88664,0.495767 -1.49828,0.827315 -0.61165,0.331547 -1.12969,0.61897 -1.15119,0.638717 -0.0803,0.07369 0.17113,0.256267 0.96296,0.699353 0.73518,0.411379 0.81418,0.474952 0.81418,0.65518 0,0.109777 -0.0465,0.215973 -0.10331,0.235992 -0.1212,0.0427 -1.74301,-0.740366 -1.874,-0.904837 -0.10303,-0.129368 -0.12273,-0.121464 -1.79954,0.722182 -0.53474,0.269043 -1.113,0.522328 -1.28502,0.562856 -0.38177,0.08994 -0.45004,0.217985 -0.20901,0.392044 0.17732,0.12806 0.18341,0.164889 0.24174,1.461623 l 0.0598,1.330253 0.097,-0.617971 c 0.21362,-1.360267 0.25029,-1.537438 0.34209,-1.652705 0.0889,-0.111598 0.11807,-0.105465 0.42439,0.08918 l 0.32894,0.209019 0.0748,2.860487 c 0.0706,2.69969 0.0821,2.855483 0.20489,2.771488 0.19149,-0.130988 0.4324,-1.499677 0.47494,-2.69821 0.0309,-0.870189 0.0274,-0.838628 0.15547,-1.4076 0.22364,-0.9936 0.57316,-2.164956 0.70897,-2.375979 0.15268,-0.23726 0.13483,-0.266081 -0.32894,-0.530926 -0.22582,-0.128957 -0.26884,-0.35205 -0.10705,-0.555184 0.092,-0.11549 0.16049,-0.09007 1.01742,0.377495 0.50534,0.275729 0.9289,0.534111 0.94125,0.574183 0.0948,0.307769 0.10772,0.319913 0.26006,0.245063 0.0829,-0.04072 0.15068,-0.131327 0.15068,-0.201344 0,-0.07002 0.0611,-0.196568 0.13576,-0.281224 l 0.13576,-0.15392 0.61171,0.335137 c 0.53437,0.292767 0.61176,0.359614 0.61213,0.528738 2.9e-4,0.160768 0.0286,0.189879 0.16661,0.171658 0.12072,-0.01594 0.19751,-0.104924 0.28072,-0.325285 0.063,-0.166839 0.15397,-0.31541 0.20216,-0.330157 0.0482,-0.01475 0.20751,0.04451 0.35405,0.131685 0.19134,0.113822 0.26671,0.208498 0.26737,0.335879 5.7e-4,0.09756 0.0227,0.19733 0.0492,0.221712 0.0266,0.02438 0.27806,-0.07089 0.55891,-0.211712 l 0.51062,-0.256043 0.19619,0.179834 0.19618,0.179834 -0.43724,0.241562 c -1.06645,0.58918 -1.35128,0.671708 -1.81075,0.524655 -0.18894,-0.06047 -0.29871,-0.05291 -0.54488,0.03752 l -0.30827,0.113244 -0.65324,-0.285009 c -0.54944,-0.239721 -0.67855,-0.272576 -0.81249,-0.206763 -0.0876,0.04304 -0.15925,0.116742 -0.15925,0.163792 0,0.04705 0.29832,0.24769 0.66294,0.445868 l 0.66294,0.360323 0.0469,0.358512 c 0.0258,0.19718 0.0472,0.618573 0.0476,0.936428 2.8e-4,0.317854 0.0141,0.565042 0.0305,0.549307 0.0164,-0.01573 0.0843,-0.441025 0.15085,-0.945088 0.16411,-1.242757 0.22047,-1.320443 0.74992,-1.033647 l 0.26604,0.144109 v 1.194828 c 0,0.918075 0.0219,1.194827 0.0947,1.194827 0.0521,0 0.32973,-0.126742 0.61701,-0.281649 1.30862,-0.705619 1.70291,-0.892801 1.80495,-0.856853 0.0781,0.0275 0.10301,0.122738 0.0866,0.330486 -0.0181,0.22876 -0.0554,0.29717 -0.17261,0.316434 -0.20243,0.03326 -2.58022,1.249952 -2.58022,1.320274 0,0.03071 0.0336,0.07492 0.0748,0.09826 0.0452,0.02567 0.0748,0.515689 0.0748,1.239995 0,0.912814 0.0222,1.197315 0.0935,1.196537 0.0514,-5.19e-4 0.58149,-0.261301 1.17793,-0.579423 0.59644,-0.318121 1.11102,-0.554356 1.1435,-0.524965 0.0325,0.02939 0.0493,0.340237 0.0374,0.690775 l -0.0217,0.637338 -1.53282,0.815602 c -0.84305,0.448583 -1.57949,0.815605 -1.63653,0.815605 -0.057,0 -0.21196,0.06142 -0.34427,0.136494 l -0.24055,0.136495 0.0355,0.676671 c 0.0273,0.519977 0.0116,0.696209 -0.0674,0.761054 -0.0566,0.04641 -1.17899,0.655004 -2.49418,1.352423 l -2.39127,1.268035 -0.70945,0.01448 c -0.46989,0.0096 -0.7736,-0.01612 -0.89945,-0.07611 z M 249.0002,15.267322 c 0,-0.09663 -0.0842,-0.141148 -0.19385,-0.102513 -0.0574,0.02024 -0.0858,0.06446 -0.0631,0.09826 0.0522,0.07755 0.25692,0.08093 0.25692,0.0043 z m 19.146,11.386684 c 0,-0.03777 0.0505,-0.06866 0.11219,-0.06866 0.0617,0 0.11218,0.0309 0.11218,0.06866 0,0.03777 -0.0505,0.06866 -0.11218,0.06866 -0.0617,0 -0.11219,-0.0309 -0.11219,-0.06866 z m -3.34681,-4.791192 c -0.50892,-0.235812 -0.54222,-0.265213 -0.54222,-0.478717 0,-0.136799 0.0438,-0.242915 0.10995,-0.266209 0.0606,-0.02135 0.36102,0.107295 0.66925,0.286557 0.49706,0.289082 0.55766,0.347122 0.54446,0.521397 -0.0193,0.254326 -0.11283,0.24678 -0.78144,-0.06303 z m -1.70678,-7.041234 c -0.0209,-0.05004 -0.0283,-0.380952 -0.0163,-0.735364 l 0.0217,-0.644384 0.52352,-0.289548 c 0.28794,-0.159252 0.60042,-0.291815 0.69441,-0.294587 0.16858,-0.005 0.17061,0.0045 0.14958,0.698761 l -0.0213,0.7038 -0.59831,0.325884 c -0.65364,0.356019 -0.69714,0.369615 -0.75322,0.235438 z m -14.46635,-1.279872 c 0,-0.15152 0.0546,-0.171113 0.21577,-0.07741 0.0828,0.04812 0.0715,0.076 -0.0561,0.138691 -0.13874,0.06817 -0.15968,0.06013 -0.15968,-0.06128 z m 8.97468,-0.188455 c -0.34593,-0.11678 -0.45838,-0.36833 -0.27024,-0.604554 0.10032,-0.125954 0.11253,-0.124026 0.37395,0.05903 0.20277,0.141998 0.27024,0.239793 0.27024,0.391737 0,0.205 -0.10018,0.246199 -0.37395,0.153783 z m 3.75484,-1.394541 c -0.31822,-0.130803 -0.34873,-0.183537 -0.2674,-0.462156 0.0568,-0.194531 0.19725,-0.195778 0.47941,-0.0043 0.15203,0.103193 0.22134,0.20943 0.22134,0.339264 0,0.25783 -0.0673,0.277589 -0.43335,0.127145 z m -4.6364,-0.324829 c -0.13588,-0.108664 -0.14204,-0.149727 -0.0644,-0.429147 0.0472,-0.169942 0.11952,-0.305786 0.16066,-0.301876 0.0411,0.0039 0.17939,0.197026 0.30723,0.429147 l 0.23245,0.422037 h -0.24286 c -0.13357,0 -0.31047,-0.05407 -0.3931,-0.120161 z m -2.52537,-0.778447 c -0.0276,-0.04106 -0.0159,-0.10617 0.0261,-0.144698 0.0519,-0.04763 0.1033,-0.02373 0.16065,0.07465 0.0681,0.116781 0.0631,0.144698 -0.0261,0.144698 -0.0607,0 -0.13302,-0.03359 -0.16066,-0.07465 z m 0.80323,-0.9627212 c -0.13925,-0.048336 -0.16848,-0.1027535 -0.14958,-0.2785284 0.0349,-0.3247237 0.18887,-0.3173047 0.28598,0.01378 0.0461,0.157314 0.0733,0.2947548 0.0603,0.305423 -0.013,0.010669 -0.10149,-0.00763 -0.19667,-0.040675 z m 7.56911,-0.9827535 c -0.12409,-0.2968834 0.0213,-0.4071081 1.7591,-1.333695 0.94515,-0.5039454 1.74554,-0.9210758 1.77865,-0.9269561 0.0331,-0.00588 0.0705,0.086407 0.083,0.2050832 0.0279,0.2636338 0.0503,0.2483741 -1.74299,1.1894497 -0.74041,0.3885592 -1.45558,0.7668611 -1.58927,0.8406709 -0.21594,0.1192195 -0.24814,0.1220602 -0.28852,0.025448 z M 248.62626,8.8015164 c 0,-0.0885 0.0379,-0.1371798 0.0935,-0.1201611 0.0514,0.015734 0.0935,0.069808 0.0935,0.1201611 0,0.050353 -0.0421,0.1044253 -0.0935,0.120161 -0.0556,0.017019 -0.0935,-0.031661 -0.0935,-0.120161 z m 7.4894,-0.1422536 c -0.15589,-0.057313 -0.1707,-0.09487 -0.1269,-0.3217984 0.0787,-0.4079934 0.12309,-0.5064823 0.21624,-0.4803317 0.10558,0.029642 0.4163,0.5877975 0.4206,0.7555593 0.003,0.1344133 -0.21641,0.154492 -0.50994,0.046571 z m 10.59085,-0.034347 c -0.11311,-0.056342 -0.20567,-0.1258403 -0.20567,-0.1544412 0,-0.081332 0.82841,-0.4977734 0.90442,-0.4546487 0.0373,0.021174 0.0678,0.1298233 0.0678,0.2414445 0,0.1552804 -0.0571,0.2349039 -0.24306,0.3390079 -0.28597,0.1600763 -0.26224,0.1587779 -0.52353,0.028637 z M 249.29936,8.4965836 c 0,-0.058876 0.0336,-0.1070478 0.0748,-0.1070478 0.0411,0 0.0748,0.029075 0.0748,0.064611 0,0.035536 -0.0337,0.083708 -0.0748,0.1070475 -0.0411,0.023341 -0.0748,-0.00573 -0.0748,-0.064611 z m 1.53318,-0.1070478 c -0.0254,-0.037765 -0.0106,-0.068663 0.033,-0.068663 0.0436,0 0.0792,0.030898 0.0792,0.068663 0,0.037765 -0.0148,0.068663 -0.033,0.068663 -0.0181,0 -0.0538,-0.030898 -0.0792,-0.068663 z m 11.70448,-0.9475551 c 0,-0.1057416 0.0421,-0.23138 0.0935,-0.2791959 0.0982,-0.091285 2.73138,-1.5053932 2.86068,-1.536263 0.0411,-0.00982 0.0851,0.079244 0.0976,0.1979203 0.0181,0.1715762 -0.0201,0.2432889 -0.18698,0.3500991 -0.36733,0.235172 -2.70483,1.4596969 -2.78642,1.4596969 -0.0431,0 -0.0784,-0.086516 -0.0784,-0.1922574 z M 251.84219,6.4285758 c 0,-0.058876 0.0336,-0.087951 0.0748,-0.064611 0.0411,0.023341 0.0748,0.071511 0.0748,0.1070474 0,0.035536 -0.0337,0.064611 -0.0748,0.064611 -0.0411,0 -0.0748,-0.048171 -0.0748,-0.1070474 z"
         id="path8470" />
      <path
         style="fill:#535353;stroke-width:0.0716605"
         d="m 256.75986,35.687373 -1.17764,-0.622097 -2.9e-4,-0.974402 c -1.5e-4,-0.547969 -0.0317,-0.992226 -0.0721,-1.015131 -0.0395,-0.0224 -0.34737,0.09674 -0.68421,0.264755 l -0.61243,0.305483 -0.32437,-0.144682 -0.32436,-0.14468 -0.30507,0.157417 -0.30507,0.157414 -0.94873,-0.499525 c -0.52177,-0.274741 -1.07491,-0.571764 -1.22916,-0.660054 l -0.28046,-0.160526 v -0.988231 -0.988232 l 0.59151,-0.318376 c 0.6273,-0.337637 0.67991,-0.396482 0.67991,-0.760522 0,-0.126859 0.0252,-0.244614 0.0561,-0.261677 0.0309,-0.01705 0.40522,0.151056 0.83194,0.373598 0.42672,0.222539 0.78638,0.404618 0.79924,0.404618 0.0129,0 0.0339,-0.10042 0.0468,-0.223157 0.0169,-0.160692 0.0592,-0.220627 0.15102,-0.214124 0.12517,0.0089 2.70882,1.333958 3.48099,1.78532 0.37603,0.219804 0.39264,0.24226 0.39264,0.530818 v 0.301302 l 0.6918,0.364534 c 0.38049,0.200493 1.04063,0.559665 1.46697,0.798162 0.42635,0.2385 0.82394,0.433632 0.88353,0.433632 0.0596,0 0.62787,-0.281211 1.26283,-0.62491 l 1.15448,-0.624913 V 32.082654 31.82612 l -0.50483,-0.0013 c -0.59405,-0.0016 -0.99786,-0.05143 -1.19232,-0.146979 -0.14694,-0.0722 -0.5663,-0.0079 -1.07005,0.164037 -0.42346,0.144542 -0.83207,0.167146 -1.27652,0.07062 -0.57998,-0.125959 -0.71769,-0.208404 -0.81904,-0.490354 -0.11281,-0.313814 -0.0592,-0.356894 0.2667,-0.214222 0.14485,0.06341 0.27545,0.115302 0.29022,0.115302 0.0813,0 0.10118,-0.228877 0.0349,-0.403325 -0.0661,-0.174057 -0.66605,-0.513425 -4.44679,-2.515345 -2.40372,-1.272776 -4.3704,-2.340497 -4.3704,-2.372712 0,-0.03222 -0.15145,-0.140059 -0.33655,-0.239651 -0.30369,-0.163394 -0.33655,-0.206145 -0.33655,-0.437763 0,-0.333195 0.0454,-0.365504 0.32733,-0.232841 0.23331,0.109788 7.18244,3.787647 8.78255,4.648202 0.46513,0.250152 0.88674,0.454821 0.93692,0.454821 0.14991,0 0.42367,-0.20599 0.42367,-0.318791 0,-0.148767 -0.4554,-0.573832 -0.61477,-0.573832 -0.15614,0 -0.16212,-0.02794 -0.0479,-0.223832 0.0573,-0.09831 0.0823,-0.653065 0.0765,-1.694906 -0.0126,-2.236561 0.15378,-4.360169 0.31233,-3.986316 0.024,0.05665 0.0554,1.331073 0.0697,2.832056 l 0.026,2.729062 0.21336,0.204462 0.21337,0.204462 0.28188,-0.145451 c 0.15503,-0.08 0.43445,-0.287735 0.62093,-0.461639 l 0.33906,-0.316191 0.0327,-1.270273 c 0.018,-0.69865 0.07,-1.486563 0.11543,-1.750917 0.0455,-0.264354 0.16709,-1.035735 0.27023,-1.71418 0.18027,-1.185715 0.27327,-1.502702 0.36029,-1.228093 0.0836,0.263879 0.2025,1.191754 0.27521,2.148264 0.0577,0.759414 0.10462,1.02093 0.20049,1.118187 0.0688,0.06982 0.56141,0.378501 1.09464,0.685957 l 0.9695,0.559012 0.17577,-0.187598 c 0.14337,-0.153029 0.17587,-0.26597 0.17637,-0.612914 5.6e-4,-0.460525 0.13212,-1.634352 0.18886,-1.686448 0.0793,-0.07277 0.0993,0.0739 0.14887,1.089471 0.0538,1.102694 0.1312,1.373375 0.39257,1.373165 0.071,-5.8e-5 0.49904,-0.204138 0.95111,-0.453513 0.78965,-0.435596 1.48496,-0.782325 1.56881,-0.782325 0.0219,0 0.0399,0.08996 0.0399,0.199904 0,0.206554 -0.15745,0.298608 -2.0941,1.224375 -0.42974,0.205423 -0.79321,0.189395 -0.76747,-0.03384 0.0142,-0.123203 -0.0199,-0.154492 -0.16827,-0.154492 -0.13689,0 -0.1861,0.0367 -0.1861,0.138799 0,0.08166 -0.0775,0.171206 -0.18819,0.217523 -0.25598,0.10708 -0.7365,-2.85e-4 -1.60095,-0.357614 -0.37385,-0.154548 -0.7122,-0.262569 -0.75189,-0.240046 -0.0428,0.02426 -0.0558,0.298722 -0.032,0.673286 0.0221,0.347784 0.0463,0.878953 0.0539,1.180374 l 0.0137,0.548039 0.85459,0.500813 c 1.02071,0.598167 1.14723,0.637276 1.3885,0.429179 0.17231,-0.148614 0.17888,-0.192361 0.20154,-1.34179 0.0129,-0.653492 0.0492,-1.211776 0.0807,-1.240632 0.0315,-0.02886 0.0988,-0.01444 0.14958,0.03204 0.0629,0.0576 0.10414,0.463582 0.12963,1.275336 0.0367,1.167206 0.0411,1.193664 0.22437,1.333405 0.10284,0.07841 0.21793,0.143595 0.25576,0.144851 0.0378,0.0013 0.56411,-0.260351 1.16949,-0.581353 0.60538,-0.321002 1.13814,-0.583639 1.18392,-0.583639 0.0546,0 0.0832,0.201069 0.0832,0.58449 v 0.584494 l -0.39265,0.227761 c -1.03451,0.600098 -2.66746,1.418383 -2.82928,1.417783 -0.0995,-2.59e-4 -0.36256,-0.07827 -0.58449,-0.173122 -0.22193,-0.09485 -0.41537,-0.161564 -0.42987,-0.148253 -0.0145,0.01331 -0.0348,0.222531 -0.0452,0.464942 -0.0155,0.362792 8.5e-4,0.436258 0.0933,0.41538 0.33109,-0.07486 0.33573,-0.06734 0.35789,0.580562 l 0.0213,0.623862 -2.44899,1.296055 -2.44899,1.296058 -0.75089,0.0068 -0.75088,0.0068 -1.17764,-0.6221 z m 3.40261,-4.597166 c 0.15198,-0.105915 0.17532,-0.316395 0.0351,-0.316395 -0.0527,0 -0.13389,0.09269 -0.18047,0.20599 -0.0922,0.224167 -0.0566,0.251174 0.14538,0.110405 z m 3.73052,-7.595736 c -0.38393,-0.166753 -0.52179,-0.195754 -0.7105,-0.149463 -0.39183,0.09612 -0.59458,0.0094 -0.67091,-0.28689 -0.0892,-0.346476 0.008,-0.433741 0.31974,-0.285901 0.2704,0.128373 0.43888,0.09691 0.7442,-0.13895 0.21299,-0.164541 0.2167,-0.164876 0.39557,-0.0357 0.34378,0.248269 1.0972,0.623264 1.25223,0.623264 0.0856,0 0.223,-0.0618 0.30526,-0.137327 0.18041,-0.165625 0.26813,-0.173292 0.32855,-0.02872 0.0619,0.14801 0.0661,0.143285 -0.12287,0.137163 -0.1353,-0.0044 -0.17273,0.03656 -0.191,0.208877 -0.021,0.198366 -0.0483,0.217544 -0.36569,0.257488 -0.59289,0.07461 -0.79487,0.04885 -1.28458,-0.163849 z m 2.00954,0.0753 c 0,-0.169945 0.10877,-0.28027 0.27631,-0.28027 0.10203,0 0.39615,-0.108145 0.65359,-0.240322 0.53003,-0.272132 0.64067,-0.292424 0.64067,-0.117503 0,0.122893 -0.56997,0.482865 -0.99582,0.628929 -0.25951,0.08901 -0.57475,0.09403 -0.57475,0.0092 z m -9.02217,-1.955128 c -0.93213,-0.410122 -6.00435,-3.108018 -6.58011,-3.499937 -0.46046,-0.313437 -0.60058,-0.661596 -0.26626,-0.661596 0.1591,0 1.55912,0.699896 4.12666,2.062992 2.6819,1.423811 2.60499,1.385448 2.6858,1.339597 0.0394,-0.02233 0.0525,-0.148176 0.0293,-0.279661 -0.0494,-0.279236 -0.0125,-0.290654 0.29315,-0.09083 0.22473,0.146917 0.22906,0.147085 0.48821,0.01895 0.14381,-0.0711 0.2967,-0.200262 0.33976,-0.287022 0.0781,-0.157459 0.0787,-0.157296 0.30104,0.09036 0.18721,0.208517 0.25976,0.243289 0.4547,0.217917 0.12757,-0.0166 0.28548,-0.05177 0.35093,-0.07814 0.0987,-0.03977 0.11986,0.0056 0.12415,0.265946 0.005,0.298755 -0.009,0.32065 -0.29374,0.453896 -0.28288,0.132496 -0.31731,0.134242 -0.6423,0.03258 -0.4374,-0.13683 -0.6907,-0.138455 -0.6907,-0.0044 0,0.05665 0.0252,0.103079 0.0561,0.10318 0.0309,6.9e-5 0.20753,0.12238 0.39264,0.271727 l 0.33655,0.27154 -0.48824,0.0029 c -0.40511,0.0024 -0.57837,-0.03673 -1.01763,-0.229998 z m 1.20979,-0.870257 c 0.0805,-0.119573 -0.0112,-0.144896 -0.11376,-0.03142 -0.059,0.06526 -0.0647,0.104655 -0.0151,0.104655 0.0438,0 0.10172,-0.03295 0.12883,-0.07323 z m 1.86665,0.588525 c 0.1234,-0.09849 0.40177,-0.319029 0.61859,-0.490082 0.21682,-0.171054 0.4605,-0.430303 0.54152,-0.576111 0.18479,-0.332537 0.39068,-0.474141 1.64259,-1.129683 1.26625,-0.663052 1.46759,-0.742251 1.65402,-0.650649 0.0785,0.03859 0.14281,0.09631 0.14281,0.128268 0,0.09947 -0.49481,0.411129 -1.59522,1.004755 -1.01451,0.547283 -1.059,0.580561 -1.04129,0.778749 0.018,0.201183 -0.008,0.218648 -0.91675,0.617777 -0.51439,0.225907 -1.01071,0.429935 -1.10295,0.453396 -0.14657,0.03728 -0.13943,0.0201 0.0567,-0.13642 z m -2.07153,-2.268383 c -0.0219,-0.02008 -0.01,-0.182296 0.0265,-0.360483 0.0364,-0.178188 0.0501,-0.401225 0.0305,-0.495637 -0.0196,-0.09441 -0.0568,-0.635137 -0.0826,-1.20161 -0.0831,-1.826552 -0.15791,-2.076389 -0.66806,-2.230962 -0.24105,-0.07304 -0.4577,-0.359749 -0.37014,-0.489827 0.0255,-0.0379 0.15358,0.009 0.29512,0.108141 0.33408,0.233947 0.43314,0.221905 0.71562,-0.087 l 0.23967,-0.262098 0.35053,0.302788 0.35053,0.302788 -0.13035,0.362763 c -0.0763,0.212219 -0.16474,0.800847 -0.21321,1.418408 -0.0456,0.580604 -0.11941,1.291784 -0.16407,1.580399 -0.0447,0.288616 -0.061,0.589877 -0.0362,0.669469 0.0247,0.07959 0.0641,0.20651 0.0874,0.28204 0.0354,0.114719 0.007,0.137327 -0.1745,0.137327 -0.11932,0 -0.23484,-0.01643 -0.25671,-0.03651 z m 1.30966,-0.392642 c 0.0254,-0.93685 -0.12718,-3.537366 -0.22225,-3.787371 -0.0915,-0.24054 -0.0884,-0.282405 0.0297,-0.40372 0.17817,-0.18305 0.66297,-0.460856 0.80424,-0.460856 0.13404,0 0.10682,0.262674 -0.11385,1.098615 -0.13371,0.506479 -0.26562,2.263258 -0.25393,3.381674 0.005,0.461031 -0.0118,0.532141 -0.12407,0.532141 -0.10775,0 -0.12797,-0.06081 -0.11984,-0.360483 z m -3.98397,-0.08221 c -0.0494,-0.05466 -0.24705,-0.152677 -0.43919,-0.217814 -0.19215,-0.06514 -0.39143,-0.147794 -0.44285,-0.18368 -0.14382,-0.10038 -0.13512,-4.580218 0.009,-4.580218 0.0563,0 0.35079,0.119364 0.6544,0.265255 l 0.55202,0.265255 0.0198,2.006579 c 0.0227,2.293424 -0.0479,2.782231 -0.35312,2.444623 z m 10.09326,-0.106609 c 0,-0.03776 0.0693,-0.06866 0.15399,-0.06866 0.0847,0 0.13319,0.0309 0.10777,0.06866 -0.0254,0.03777 -0.0947,0.06866 -0.15399,0.06866 -0.0593,0 -0.10777,-0.0309 -0.10777,-0.06866 z m -14.06035,-1.998522 c -0.14397,-0.07134 -0.38796,-0.174557 -0.54222,-0.229372 l -0.28046,-0.09966 v -2.303731 c 0,-1.267051 0.0178,-2.303729 0.0395,-2.303729 0.0665,0 1.10644,0.48217 1.20975,0.56089 0.12308,0.09378 0.13923,3.862824 0.0183,4.262715 -0.0879,0.290561 -0.0868,0.290284 -0.44481,0.112887 z m 11.89146,-2.347952 v -0.638641 l 0.55196,-0.288315 c 0.30357,-0.158574 0.58964,-0.288315 0.6357,-0.288315 0.0559,0 0.0838,0.214326 0.0838,0.643422 v 0.643423 l -0.53342,0.283533 c -0.29338,0.155944 -0.57945,0.283534 -0.63571,0.283534 -0.0792,0 -0.10229,-0.144203 -0.10229,-0.638641 z m -6.54404,-0.39131 c 0.0254,-0.03777 0.0779,-0.06866 0.1166,-0.06866 0.0387,0 0.0704,0.0309 0.0704,0.06866 0,0.03777 -0.0525,0.06866 -0.11659,0.06866 -0.0641,0 -0.0958,-0.0309 -0.0704,-0.06866 z"
         id="path8468" />
      <path
         style="fill:#5a3002;stroke-width:0.0716605"
         d="m 257.72566,36.159493 c -0.17714,-0.08658 -0.7236,-0.3729 -1.21435,-0.636277 l -0.89228,-0.478862 -0.0207,-1.002326 c -0.0181,-0.874966 -0.0363,-1.002324 -0.1432,-1.002324 -0.0674,0 -0.37423,0.126841 -0.6819,0.28187 l -0.5594,0.281873 -0.32772,-0.150262 -0.32771,-0.150265 -0.26407,0.143045 c -0.14524,0.07868 -0.30152,0.143045 -0.34729,0.143045 -0.10851,0 -2.32172,-1.169352 -2.39498,-1.265389 -0.0309,-0.04045 -0.0477,-0.49018 -0.0374,-0.999396 l 0.0187,-0.925849 0.52352,-0.286907 c 0.68319,-0.374411 0.7105,-0.400362 0.7105,-0.675251 0,-0.128458 0.0254,-0.247959 0.0564,-0.265559 0.031,-0.0176 0.40099,0.150521 0.82216,0.373598 0.84915,0.449753 1.0398,0.490881 1.10862,0.239146 0.0445,-0.162763 0.0521,-0.164307 0.34398,-0.06977 0.28972,0.09385 1.401,0.65708 2.66102,1.348691 l 0.61701,0.33867 v 0.293735 c 0,0.194488 0.0442,0.328756 0.13088,0.397383 0.17943,0.142095 2.99219,1.634222 3.08062,1.634222 0.0391,0 0.66296,-0.315571 1.38639,-0.701268 1.22639,-0.653851 1.31285,-0.713046 1.27864,-0.875459 -0.0202,-0.0958 -0.0589,-0.383161 -0.0861,-0.638566 -0.0476,-0.447682 -0.0603,-0.471134 -0.35329,-0.652304 -0.17665,-0.10922 -0.32663,-0.266237 -0.35813,-0.374912 -0.0298,-0.10284 -0.12465,-0.269226 -0.21077,-0.369742 -0.0861,-0.100515 -0.15658,-0.224937 -0.15658,-0.276492 0,-0.05156 -0.0717,-0.09373 -0.15936,-0.09373 -0.15594,0 -1.38345,0.591218 -2.11765,1.019947 -0.20344,0.118796 -0.42535,0.215995 -0.49314,0.215995 -0.0678,0 -0.32202,-0.120919 -0.56497,-0.268707 -0.24295,-0.147789 -2.29276,-1.248894 -4.55512,-2.446902 -4.90131,-2.595421 -4.97348,-2.63787 -4.97348,-2.925359 0,-0.17007 0.0264,-0.205095 0.13508,-0.179009 0.0743,0.01784 2.33411,1.198485 5.02181,2.623663 4.56734,2.421874 4.89945,2.585978 5.08146,2.510843 0.33945,-0.14013 2.00443,-1.095009 2.10682,-1.208272 0.0801,-0.0886 0.0805,-0.134626 0.003,-0.249433 -0.0826,-0.121431 -0.0734,-0.160786 0.0666,-0.286245 l 0.16235,-0.145458 -0.0247,0.273335 -0.0247,0.273336 1.27142,0.703468 c 0.69928,0.386909 1.3219,0.703525 1.3836,0.703593 0.0617,6.7e-5 0.19632,-0.0603 0.29915,-0.134152 0.23672,-0.169998 0.35612,-0.169998 0.63571,0 0.1234,0.07503 0.2712,0.136627 0.32843,0.136874 0.0572,2.59e-4 0.60536,-0.263309 1.21805,-0.585687 0.6127,-0.322378 1.14642,-0.567744 1.18605,-0.545255 0.0837,0.04751 0.0962,0.921749 0.0148,1.038664 -0.0447,0.06424 -2.28307,1.288934 -2.91672,1.595858 -0.14694,0.07117 -0.24635,0.04527 -0.75057,-0.195568 -0.74274,-0.354766 -0.83761,-0.356587 -0.83761,-0.01609 0,0.143841 -0.0494,0.321508 -0.1098,0.394813 -0.15626,0.18968 -0.14008,0.327662 0.0585,0.498965 0.20678,0.178349 0.29663,0.184824 0.53927,0.03886 0.24155,-0.145305 0.27379,-0.0671 0.24471,0.593636 l -0.0222,0.504685 -1.3462,0.715567 c -3.88327,2.064127 -3.58966,1.925847 -3.91822,1.845332 -0.2071,-0.05075 -0.39884,-0.05087 -0.63913,-5.19e-4 -0.30349,0.06376 -0.38061,0.05387 -0.66535,-0.08529 z m 2.71727,-4.907192 c 0,-0.03658 0.0505,-0.06651 0.11218,-0.06651 0.0617,0 0.11218,0.01215 0.11218,0.02698 0,0.01484 -0.0505,0.04477 -0.11218,0.06651 -0.0617,0.02175 -0.11218,0.0096 -0.11218,-0.02698 z m 2.1723,-4.912552 c -0.31535,-0.125595 -0.33024,-0.138404 -0.26813,-0.230668 0.0547,-0.08123 0.24685,-0.0079 0.55526,0.211845 0.21477,0.153037 0.0732,0.16232 -0.28713,0.01882 z m 1.08933,-3.043713 -0.59001,-0.256212 0.20952,-0.151309 c 0.35556,-0.256781 0.48656,-0.248845 1.04913,0.06356 0.63718,0.353839 0.68806,0.416503 0.42477,0.523154 -0.30637,0.124098 -0.44872,0.100771 -1.09341,-0.17919 z m -5.28094,-2.341715 c -0.0973,-0.06125 -0.0929,-0.08418 0.033,-0.172342 0.0798,-0.05593 0.1851,-0.101691 0.2339,-0.101691 0.0956,0 0.2971,0.191719 0.24843,0.2364 -0.0819,0.07517 -0.41687,0.09964 -0.51533,0.03763 z m -3.3842,-2.888097 -0.28046,-0.135754 -0.002,-0.908149 c -0.002,-0.991007 -0.0563,-2.385908 -0.11068,-2.848905 -0.0339,-0.289018 -0.0317,-0.292265 0.17002,-0.249294 0.11241,0.02394 0.30535,0.09565 0.42875,0.159354 l 0.22437,0.115816 v 1.981669 c 0,1.26222 -0.0272,1.988811 -0.0748,2.001342 -0.0411,0.01082 -0.201,-0.04141 -0.35525,-0.116079 z m -3.83953,-2.046559 -0.23096,-0.130281 -0.0487,-1.844514 c -0.0268,-1.014483 -0.0698,-1.914036 -0.0956,-1.999007 -0.0395,-0.130129 -0.0178,-0.154493 0.13771,-0.154493 0.10155,0 0.29899,0.07075 0.43876,0.157228 l 0.25412,0.157228 v 1.953232 c 0,2.154256 0.008,2.121915 -0.45532,1.860607 z m 12.01023,-1.886091 c 0,-0.395678 0.0282,-0.526314 0.13089,-0.606353 0.18558,-0.144662 0.81518,-0.468573 0.91078,-0.468573 0.0912,0 0.11156,0.95076 0.0229,1.068817 -0.0709,0.0945 -0.86968,0.510442 -0.98021,0.510442 -0.055,0 -0.0844,-0.175662 -0.0844,-0.504333 z"
         id="path8466" />
      <path
         style="fill:#261e16;stroke-width:0.0716605"
         d="m 258.53581,36.129558 c 0.0254,-0.03776 0.0927,-0.06867 0.14958,-0.06867 0.0568,0 0.12415,0.0309 0.14957,0.06867 0.0263,0.0391 -0.0381,0.06866 -0.14957,0.06866 -0.11149,0 -0.1759,-0.02957 -0.14958,-0.06866 z m -4.20725,-3.171053 0.0384,-0.493181 0.43904,-0.362776 c 0.24148,-0.199528 0.49794,-0.38136 0.56993,-0.404073 0.11074,-0.03494 0.13088,-0.130373 0.13088,-0.620306 0,-0.452894 0.023,-0.579013 0.10562,-0.579013 0.0581,0 0.34415,0.126267 0.6357,0.280591 l 0.53009,0.280588 -10e-4,0.663534 c -5.6e-4,0.364943 -0.0302,0.705658 -0.0657,0.757148 -0.0646,0.09359 -1.01306,0.490022 -1.1724,0.490022 -0.0464,0 -0.30634,0.108146 -0.57763,0.240322 -0.2713,0.132179 -0.53331,0.240324 -0.58224,0.240324 -0.0641,0 -0.0782,-0.137971 -0.0505,-0.49318 z m 4.64768,0.214512 c -0.66455,-0.321324 -1.45027,-0.819948 -1.29207,-0.819948 0.10735,0 1.61306,0.75393 1.94691,0.974853 0.34536,0.228534 -0.0603,0.132581 -0.65484,-0.154905 z m 4.20044,-0.745421 c -0.0233,-0.03454 -0.0107,-0.07316 0.0279,-0.08583 0.0434,-0.01425 0.0413,-0.241105 -0.006,-0.595299 -0.0417,-0.314748 -0.0549,-0.591508 -0.0293,-0.615026 0.0256,-0.02351 0.13669,0.0074 0.24684,0.06881 0.17483,0.09739 0.19748,0.149356 0.17829,0.409035 -0.0121,0.163606 -0.0729,0.370144 -0.13523,0.458968 -0.0623,0.08883 -0.0966,0.220145 -0.0761,0.29182 0.0382,0.134024 -0.12585,0.187606 -0.20669,0.06752 z m -8.83962,-0.864674 c -0.0545,-0.1303 0.036,-0.589286 0.13859,-0.703281 0.18052,-0.200558 0.43213,-0.05777 0.43335,0.245938 2.2e-4,0.063 0.0507,0.203047 0.11218,0.311218 0.0614,0.108169 0.11173,0.208591 0.11173,0.223155 0,0.01456 -0.16934,0.02648 -0.3763,0.02648 -0.26632,0 -0.38893,-0.03025 -0.41955,-0.103513 z m -0.99909,-0.17114 c 0.0936,-0.160601 0.19186,-0.17682 0.2486,-0.04105 0.0507,0.121166 -0.01,0.178371 -0.18891,0.178371 -0.11657,0 -0.12647,-0.02279 -0.0597,-0.137326 z m 7.10496,-0.139481 c 0,-0.03658 0.0505,-0.06651 0.11218,-0.06651 0.0617,0 0.11218,0.01215 0.11218,0.02698 0,0.01484 -0.0505,0.04477 -0.11218,0.06651 -0.0617,0.02175 -0.11218,0.0096 -0.11218,-0.02698 z m -6.513,-0.773854 c -0.64556,-0.233302 -1.87147,-1.009242 -1.5945,-1.009242 0.0638,0 0.87667,0.41115 0.9614,0.486298 0.0391,0.03466 0.11755,0.06301 0.17439,0.06301 0.0843,0 0.4476,0.234402 0.87266,0.563039 0.10074,0.07788 0.0561,0.06676 -0.41395,-0.103105 z m 8.325,-0.34815 c -0.0916,-0.122803 -0.16664,-0.263494 -0.16664,-0.312651 0,-0.0604 -0.0733,-0.07949 -0.22613,-0.0589 -0.18716,0.02522 -0.23353,0.0034 -0.2691,-0.126719 -0.0236,-0.08645 -0.0913,-0.19399 -0.15031,-0.238972 -0.0916,-0.06983 -0.0828,-0.10581 0.0607,-0.246047 0.14635,-0.143024 0.15546,-0.182805 0.0705,-0.307715 -0.0851,-0.125043 -0.0763,-0.162118 0.0679,-0.28891 l 0.16553,-0.145458 -0.042,0.258078 c -0.0408,0.251025 -0.0309,0.264606 0.36477,0.496958 l 0.40674,0.238878 -0.001,0.395668 c -10e-4,0.531368 -0.0721,0.615666 -0.28095,0.335792 z m -8.49125,-0.381685 c 0.0352,-0.123571 0.1324,-0.129119 0.34886,-0.01991 0.0837,0.04221 -0.10349,0.150083 -0.26274,0.151435 -0.0858,7.79e-4 -0.11227,-0.03972 -0.0861,-0.131522 z m 8.85155,-3.408863 c -0.31535,-0.125595 -0.33024,-0.138404 -0.26813,-0.230668 0.0547,-0.08123 0.24685,-0.0079 0.55526,0.211845 0.21477,0.153037 0.0732,0.16232 -0.28713,0.01882 z m 1.08933,-3.043713 -0.59001,-0.256212 0.20952,-0.151309 c 0.35556,-0.256781 0.48656,-0.248845 1.04913,0.06356 0.63718,0.353839 0.68806,0.416503 0.42477,0.523154 -0.30637,0.124098 -0.44872,0.100771 -1.09341,-0.17919 z m -5.28094,-2.341715 c -0.0973,-0.06125 -0.0929,-0.08418 0.033,-0.172342 0.0798,-0.05593 0.1851,-0.101691 0.2339,-0.101691 0.0956,0 0.2971,0.191719 0.24843,0.2364 -0.0819,0.07517 -0.41687,0.09964 -0.51533,0.03763 z m -3.3842,-2.888097 -0.28046,-0.135754 -0.002,-0.908149 c -0.002,-0.991007 -0.0563,-2.385908 -0.11068,-2.848905 -0.0339,-0.289018 -0.0317,-0.292265 0.17002,-0.249294 0.11241,0.02394 0.30535,0.09565 0.42875,0.159354 l 0.22437,0.115816 v 1.981669 c 0,1.26222 -0.0272,1.988811 -0.0748,2.001342 -0.0411,0.01082 -0.201,-0.04141 -0.35525,-0.116079 z m -3.83953,-2.046559 -0.23096,-0.130281 -0.0487,-1.844514 c -0.0268,-1.014483 -0.0698,-1.914036 -0.0956,-1.999007 -0.0395,-0.130129 -0.0178,-0.154493 0.13771,-0.154493 0.10155,0 0.29899,0.07075 0.43876,0.157228 l 0.25412,0.157228 v 1.953232 c 0,2.154256 0.008,2.121915 -0.45532,1.860607 z m 12.01023,-1.886091 c 0,-0.395678 0.0282,-0.526314 0.13089,-0.606353 0.18558,-0.144662 0.81518,-0.468573 0.91078,-0.468573 0.0912,0 0.11156,0.95076 0.0229,1.068817 -0.0709,0.0945 -0.86968,0.510442 -0.98021,0.510442 -0.055,0 -0.0844,-0.175662 -0.0844,-0.504333 z"
         id="path8464" />
    </g>
  </g>
</svg>
