<?xml version="1.0" encoding="UTF-8" standalone="no"?>
<svg
   xmlns:dc="http://purl.org/dc/elements/1.1/"
   xmlns:cc="http://creativecommons.org/ns#"
   xmlns:rdf="http://www.w3.org/1999/02/22-rdf-syntax-ns#"
   xmlns:svg="http://www.w3.org/2000/svg"
   xmlns="http://www.w3.org/2000/svg"
   xmlns:sodipodi="http://sodipodi.sourceforge.net/DTD/sodipodi-0.dtd"
   xmlns:inkscape="http://www.inkscape.org/namespaces/inkscape"
   width="100"
   height="100"
   viewBox="0 0 26.458333 26.458334"
   version="1.1"
   id="svg8"
   inkscape:version="1.0.2-2 (e86c870879, 2021-01-15)"
   sodipodi:docname="Knight.svg">
  <defs
     id="defs2" />
  <sodipodi:namedview
     id="base"
     pagecolor="#ffffff"
     bordercolor="#666666"
     borderopacity="1.0"
     inkscape:pageopacity="0.0"
     inkscape:pageshadow="2"
     inkscape:zoom="1.03375"
     inkscape:cx="50"
     inkscape:cy="50"
     inkscape:document-units="mm"
     inkscape:current-layer="layer1"
     inkscape:document-rotation="0"
     showgrid="true"
     units="px"
     inkscape:window-width="1920"
     inkscape:window-height="1017"
     inkscape:window-x="-8"
     inkscape:window-y="-8"
     inkscape:window-maximized="1">
    <inkscape:grid
       type="xygrid"
       id="grid833"
       empspacing="10" />
  </sodipodi:namedview>
  <metadata
     id="metadata5">
    <rdf:RDF>
      <cc:Work
         rdf:about="">
        <dc:format>image/svg+xml</dc:format>
        <dc:type
           rdf:resource="http://purl.org/dc/dcmitype/StillImage" />
        <dc:title></dc:title>
      </cc:Work>
    </rdf:RDF>
  </metadata>
  <g
     inkscape:label="Layer 1"
     inkscape:groupmode="layer"
     id="layer1">
    <g
       id="g865"
       transform="matrix(0.27397659,0,0,0.25741584,7.491378,10.833567)">
      <path
         style="fill:#c7c7c7;stroke-width:0.264583"
         d="m 35.097124,57.952383 -4.630209,-2.732839 -0.0708,-2.347102 c -0.09345,-3.097774 -0.105151,-3.12106 -1.233845,-2.455114 -1.123968,0.663157 -1.473478,0.496797 -1.473478,-0.701352 0,-1.01163 -0.241538,-1.111086 -1.189654,-0.489855 -0.59904,0.392504 -0.723222,0.379939 -1.861023,-0.188304 l -1.21915,-0.608875 -1.106231,0.585914 c -0.608428,0.322252 -1.198732,0.585584 -1.311785,0.585179 -0.113054,-5.29e-4 -2.345476,-1.265851 -4.960938,-2.812103 l -4.755385,-2.811364 v -1.42848 c 0,-1.415466 -0.01103,-1.435053 -1.212199,-2.149573 C 6.466458,38.253466 6.400373,38.19067 6.2575403,36.773289 6.1374804,35.581897 6.0212806,35.39087 5.0007695,34.707213 4.0424116,34.065194 3.8762903,33.819684 3.8762903,33.045352 c 0,-1.009438 -0.2419164,-1.108964 -1.1882993,-0.488871 -0.8387583,0.549574 -1.1929507,0.293336 -1.1929507,-0.863031 0,-0.788739 -0.080071,-0.920345 -0.4940749,-0.81208 -0.271743,0.07106 -5.1830711,2.805417 -10.9140625,6.076347 -5.7309939,3.270927 -10.8032419,6.14485 -11.2716599,6.386489 -0.848239,0.437573 -0.860518,0.434456 -3.042492,-0.772478 -3.151208,-1.743054 -3.117572,-1.699226 -3.115709,-4.05979 7.94e-4,-1.105231 0.07802,-2.991385 0.171439,-4.191448 l 0.169855,-2.181934 1.614498,-0.93259 c 0.887973,-0.512924 1.793092,-1.043612 2.011373,-1.179306 0.218281,-0.135694 3.292845,-1.889313 6.832365,-3.896934 3.539521,-2.007619 6.8732713,-3.909928 7.4083329,-4.227349 0.5350642,-0.317423 1.3300313,-0.767157 1.7665938,-0.999408 0.4365625,-0.232254 1.508125,-0.813162 2.38125,-1.29091 l 1.5875,-0.86863 0.079497,-1.359408 c 0.073528,-1.257297 0.023786,-1.388213 -0.6620828,-1.742892 -1.4488768,-0.749245 -1.7346401,-1.30225 -1.5503419,-3.000195 0.091848,-0.84618 0.1926114,-2.0954 0.2239195,-2.7760456 0.05017,-1.0906893 0.1668092,-1.3116931 0.9829668,-1.8625 l 0.9260417,-0.6249644 0.069929,-8.09816305 0.069929,-8.09816045 -1.2265051,-0.7187803 -1.2265078,-0.7187832 0.1894602,-2.946598 c 0.1042035,-1.620629 0.2079439,-2.953996 0.2305341,-2.963035 0.022595,-0.009 0.7136341,-0.45389 1.5356496,-0.988554 0.8220128,-0.534665 1.7745128,-1.098939 2.1166666,-1.253946 0.3421513,-0.155006 1.09834367,-0.570999 1.680427,-0.92443 0.58208333,-0.353428 1.3559896,-0.787043 1.7197917,-0.963589 0.363802,-0.176545 0.840052,-0.46075 1.0583333,-0.631568 0.2182812,-0.170815 1.349375,-0.812443 2.5135417,-1.425834 2.9230373,-1.540129 3.0337442,-1.670942 2.0964207,-2.477194 -0.6814793,-0.586184 -0.7178913,-0.696867 -0.3680301,-1.118713 0.2135505,-0.25749 0.7454635,-0.636495 1.182026,-0.842235 0.4365625,-0.20574 1.27,-0.662694 1.8520841,-1.015453 0.582083,-0.352758 1.41552,-0.829008 1.852083,-1.058333 0.436562,-0.229325 1.237459,-0.676661 1.77977,-0.994085 0.542311,-0.31742 3.547801,-2.041157 6.678864,-3.830521 l 5.692846,-3.253391 1.190784,0.697844 1.190781,0.697844 2.184519,-1.250212 c 1.201486,-0.687615 2.258481,-1.291341 2.348876,-1.341609 0.0904,-0.05027 0.720921,0.19037 1.401167,0.534754 l 1.236808,0.626153 0.980083,-0.510088 c 0.539049,-0.280545 1.456335,-0.79471 2.038419,-1.142584 0.582083,-0.347875 1.41552,-0.823471 1.852083,-1.056881 0.436562,-0.23341 1.27,-0.716989 1.852083,-1.074619 2.06914,-1.27127 2.840734,-1.535969 3.420997,-1.173588 0.290163,0.18121 1.008359,0.587489 1.595993,0.902846 0.587634,0.315354 1.580232,0.899054 2.20577,1.297106 0.625539,0.398055 1.399445,0.838917 1.719792,0.979691 0.320347,0.140777 1.296823,0.71056 2.169948,1.266188 l 1.5875,1.010229 0.132292,2.757271 0.132292,2.75727 2.182812,1.301137 2.182813,1.301138 v 1.25965 c 0,1.15947 0.457729,2.0912 1.027342,2.0912 0.107686,0 0.45637,0.242764 0.774851,0.539475 0.422516,0.393632 0.579057,0.847471 0.579057,1.678784 0,1.318448 0.125619,1.452886 2.83057,3.029215 l 1.904529,1.109879 0.07985,1.376884 c 0.0749,1.291585 0.149508,1.423567 1.204326,2.130478 l 1.124479,0.753594 v 12.5397899 c 0,9.6977572 -0.07496,12.6067981 -0.33073,12.8354481 -0.181901,0.162613 -1.253463,0.826204 -2.381249,1.474648 l -2.050521,1.178991 2.64e-4,2.570678 2.65e-4,2.570679 1.337024,0.79375 c 0.735364,0.436562 1.707044,0.996548 2.159291,1.244409 0.452244,0.247862 0.920202,0.60505 1.039903,0.79375 0.119702,0.188701 0.219466,5.245915 0.221694,11.238254 0.0044,11.952431 0.09693,11.254632 -1.608516,12.136549 -0.656085,0.339275 -0.768683,0.554083 -0.768683,1.466435 0,1.365544 -0.337294,1.979668 -1.384795,2.521352 l -0.839941,0.434351 0.715492,0.570513 c 0.393522,0.313785 0.708752,0.685107 0.700516,0.825158 -0.02609,0.443302 -2.935698,2.399922 -6.213012,4.178039 -1.740596,0.944364 -3.670734,1.995744 -4.289198,2.3364 l -1.124471,0.619374 -1.124479,-0.627277 c -0.618464,-0.345001 -1.66683,-0.926092 -2.329704,-1.291312 l -1.205222,-0.664033 -4.673084,2.680372 c -2.570194,1.474206 -4.825812,2.674395 -5.012484,2.667085 -0.186671,-0.0073 -2.422996,-1.243066 -4.96961,-2.746127 z"
         id="path879" />
      <path
         style="fill:#afaeae;stroke-width:0.264583"
         d="m 35.493999,57.927327 c -2.328334,-1.369695 -4.441693,-2.745457 -4.696354,-3.057252 -0.363731,-0.445334 -0.463021,-1.071245 -0.463021,-2.918836 0,-1.293566 -0.0893,-2.351154 -0.198438,-2.350196 -0.10914,0.0011 -0.548198,0.232304 -0.975683,0.514102 -0.962371,0.634396 -1.207129,0.499813 -1.207129,-0.663753 0,-1.035724 -0.520716,-1.204518 -1.531594,-0.496469 -0.545994,0.382426 -0.682847,0.368085 -1.79691,-0.188304 l -1.205907,-0.602261 -1.106231,0.585915 c -0.608428,0.322252 -1.206701,0.585584 -1.329497,0.585179 -0.521837,-0.0016 -9.178358,-5.343848 -9.43433,-5.82213 -0.154596,-0.288869 -0.253002,-0.94221 -0.21868,-1.451867 0.07562,-1.122881 0.01325,-1.188992 -2.5971636,-2.752878 C 6.8350543,38.171493 6.6482082,37.983956 6.5829937,37.150556 6.4522551,35.479852 6.2819243,35.158362 5.2075758,34.554543 4.2820553,34.034373 4.1408737,33.833601 4.1408737,33.037608 c 0,-1.097407 -0.5302356,-1.398913 -1.4269244,-0.811379 -0.7657253,0.501721 -0.9543256,0.347696 -0.9543256,-0.77937 0,-0.476481 -0.10863,-0.933466 -0.2414032,-1.015524 -0.1920346,-0.118684 -3.7851001,1.748562 -5.8440135,3.03702 -0.2182812,0.136599 -0.8135937,0.468087 -1.3229167,0.736645 -0.5093229,0.268554 -1.372526,0.746511 -1.9182291,1.062125 -2.3157577,1.339342 -3.0667092,1.762807 -4.6963542,2.648301 -0.945885,0.513962 -3.029479,1.70297 -4.630208,2.642243 -1.600729,0.939274 -3.39208,1.985238 -3.980778,2.324365 l -1.070362,0.616596 -1.575472,-0.827252 c -0.86651,-0.454991 -2.039987,-1.119277 -2.60773,-1.476198 l -1.032259,-0.648943 0.172455,-3.984324 c 0.09485,-2.191379 0.235607,-4.047479 0.312794,-4.124666 0.07719,-0.07719 0.47716,0.05862 0.888825,0.301802 0.89409,0.528151 1.087318,0.389779 1.087318,-0.778639 0,-1.044623 0.267134,-1.092259 1.742697,-0.310761 l 1.081236,0.572653 8.708347,-5.036293 c 11.6312636,-6.726704 11.7398433,-6.791728 11.7458361,-7.033911 0.00288,-0.115909 -0.3512159,-0.413565 -0.7868603,-0.661459 -0.7340097,-0.417674 -0.7921995,-0.561316 -0.79375,-1.959358 -0.00159,-1.489628 -0.016669,-1.518968 -1.1922971,-2.327815 -1.108509,-0.762672 -1.190625,-0.899973 -1.190625,-1.990691 0,-0.693708 0.2097167,-1.516369 0.5141912,-2.01704 0.3890963,-0.639816 0.4485085,-0.968248 0.2442104,-1.3499866 -0.3254798,-0.6081633 -0.1223909,-1.2568661 0.393491,-1.2568661 0.2061104,0 0.5670338,-0.2934679 0.8020526,-0.6521503 0.3697473,-0.5643033 0.4273048,-1.7387041 0.4273048,-8.71853953 V -8.8481968 l -1.2254601,-0.8431371 -1.22546,-0.8431401 0.1652455,-1.749261 c 0.090884,-0.962091 0.1660922,-2.209628 0.1671267,-2.772304 0.00185,-1.07052 0.084309,-1.103323 1.4063213,-0.560263 0.4036801,0.165825 0.465664,0.07982 0.396875,-0.550677 -0.105111,-0.963391 0.9029859,-1.60482 1.6010255,-1.018699 0.2387653,0.200483 0.6618234,0.528151 0.94012807,0.728152 0.68061946,0.489116 0.42191516,1.000585 -0.80768297,1.596818 -2.0774501,1.007356 -2.8636886,1.460257 -2.9417936,1.694572 -0.044061,0.132183 3.1680071,2.12353 7.1379265,4.4252119 3.9699221,2.3016819 10.1302084,5.9136016 13.6895234,8.02648478 3.559318,2.11288582 6.714479,3.88806012 7.011469,3.94483442 0.297624,0.056893 0.955611,-0.1989852 1.466014,-0.5701057 0.50932,-0.370332 1.46092,-1.0274089 2.114671,-1.4601719 L 28.081691,0.41327572 29.241482,1.061497 c 0.637886,0.3565207 1.279758,0.6482185 1.426382,0.6482185 0.146627,0 1.471083,-0.75928269 2.943238,-1.68729816 4.491228,-2.83116874 8.436197,-5.03454464 8.945293,-4.99619594 0.265742,0.020029 0.82786,0.2818368 1.249148,0.5818187 0.421288,0.2999846 0.956416,0.5454254 1.189175,0.5454254 0.598979,0 8.908105,-4.780214 8.750996,-5.0344203 -0.269209,-0.4355889 -3.753419,-2.1975732 -5.022549,-2.5399312 -1.751801,-0.472564 -1.729605,-0.478367 -1.552723,0.406048 0.128601,0.643001 0.02985,0.846905 -0.601927,1.2428379 -0.415671,0.2605035 -1.053423,0.7571343 -1.417225,1.1036274 -1.329642,1.2663805 -13.882092,8.26142155 -14.824942,8.26142155 -0.298085,0 -1.033368,-0.25069271 -1.633964,-0.55709345 C 27.660403,-1.4905205 27.55139,-1.49777 26.708763,-1.09595 c -0.838655,0.39992568 -0.953294,0.39372649 -1.929633,-0.1043649 -0.570904,-0.2912533 -1.229077,-0.5295529 -1.462603,-0.5295529 -0.233527,0 -1.519425,-0.5902061 -2.857553,-1.3115714 C 18.701109,-3.9890788 17.916651,-4.283867 17.631883,-4.1038233 17.043812,-3.7320229 15.95131,-3.7953826 15.370089,-4.2349958 15.087615,-4.4486468 14.558842,-4.6273226 14.19504,-4.6320507 13.251573,-4.6443009 8.9213786,-7.2217025 8.5779653,-7.9754131 8.4217315,-8.3183104 8.0738467,-8.6687061 7.8048872,-8.7540713 7.2146732,-8.9413963 7.167236,-9.3623536 7.7127487,-9.5716867 8.3862085,-9.8301185 8.1724014,-10.093916 6.3236862,-11.285533 5.3414205,-11.918668 4.0382788,-12.942518 3.4278163,-13.560754 l -1.1099297,-1.124072 0.580763,-0.415512 0.5807657,-0.415515 -0.9921875,-0.805587 c -0.8995807,-0.730396 -0.9921875,-0.925442 -0.9921875,-2.089693 0,-1.563918 0.5086297,-2.000599 1.6454729,-1.412714 0.6877182,0.355632 0.7357771,0.345478 0.7357771,-0.155477 0,-0.294777 -0.13512,-0.535961 -0.300265,-0.535961 -0.165145,0 0.010874,-0.244745 0.3911626,-0.543877 l 0.6914277,-0.543875 3.3791499,1.95884 c 3.0715425,1.780524 5.0301685,2.833079 5.2718835,2.833079 0.0504,0 0.09164,-0.35016 0.09164,-0.778134 0,-0.427975 0.120677,-0.852718 0.268171,-0.943875 0.147492,-0.09115 1.342083,0.448815 2.654644,1.199936 1.537735,0.87998 2.548012,1.304224 2.840683,1.19289 0.724049,-0.275437 3.492059,-2.10724 3.494604,-2.312647 0.0013,-0.102642 -0.844024,-0.689422 -1.878436,-1.303956 -1.775045,-1.054534 -1.927474,-1.097942 -2.711979,-0.772279 -0.457176,0.189783 -1.128885,0.359844 -1.492687,0.377915 l -0.661458,0.03286 v -2.642208 c 0,-2.273218 0.06262,-2.654271 0.448403,-2.728566 0.24662,-0.0475 2.15162,0.917805 4.233333,2.145109 2.081712,1.227307 4.157146,2.420832 4.612079,2.652279 l 0.827148,0.420814 13.697085,-7.794453 c 7.533394,-4.286948 13.856928,-7.927113 14.052294,-8.089252 0.195365,-0.162139 0.531095,-0.227306 0.746069,-0.144814 0.30231,0.116009 0.407966,0.764159 0.466389,2.861043 l 0.07553,2.711058 2.116667,1.280192 2.116667,1.280194 0.132291,1.370246 c 0.121656,1.26008 0.2227,1.430813 1.256771,2.123561 1.062734,0.711949 1.124479,0.823217 1.124479,2.026346 0,1.466279 0.06805,1.542042 2.752246,3.064336 l 1.877963,1.065051 0.07986,1.379069 c 0.07536,1.301425 0.146267,1.424757 1.259353,2.190581 l 1.179491,0.811514 -0.06873,12.4789406 -0.06873,12.4789404 -1.877963,1.06647 c -2.870573,1.630156 -2.724578,1.391272 -2.809695,4.597376 l -0.07484,2.81909 -9.121564,5.205836 c -5.016859,2.863213 -9.152694,5.303994 -9.190744,5.423959 -0.0748,0.235828 3.629798,2.467081 4.096145,2.467081 0.30545,0 16.658351,-9.232702 17.843471,-10.074265 0.39429,-0.279987 0.781243,-0.509069 0.859895,-0.509069 0.07865,0 0.143005,4.932453 0.143005,10.961005 v 10.961005 l -0.632796,0.482225 c -0.348036,0.265223 -0.833681,0.601413 -1.079212,0.747088 -0.28889,0.171405 -0.509069,0.778256 -0.623974,1.719791 -0.159491,1.306878 -0.26416,1.495314 -1.028603,1.851803 -1.100936,0.513411 -1.251346,0.940319 -0.570997,1.620668 l 0.550334,0.550334 -0.986865,1.010645 c -0.542776,0.555852 -2.192112,1.626954 -3.66519,2.380228 -1.473076,0.753272 -3.154572,1.645706 -3.736655,1.983187 -2.710567,1.571536 -2.676978,1.562648 -3.63255,0.961213 -0.475951,-0.299561 -1.47438,-0.859194 -2.218729,-1.243626 l -1.353363,-0.698968 -4.657235,2.671286 c -2.561479,1.469205 -4.809966,2.664637 -4.996638,2.656514 -0.186671,-0.0081 -2.244402,-1.135427 -4.572735,-2.50512 z M -22.846626,35.335435 c 0,-0.125048 -0.308872,-0.429739 -0.68638,-0.677093 -0.727855,-0.476909 -1.493427,-0.407374 -2.341118,0.21264 -0.489587,0.358093 -0.464542,0.401262 0.528249,0.910596 0.936305,0.480353 1.116229,0.496403 1.770726,0.157948 0.400688,-0.207203 0.728523,-0.479044 0.728523,-0.604091 z m 6.977149,-1.280406 c 8.5312043,-5.04856 11.9183896,-7.143388 12.0139676,-7.430125 0.056589,-0.169762 -0.1040077,-0.388054 -0.3568805,-0.48509 -0.5180516,-0.198794 -0.7500753,-0.08654 -8.0509031,3.894958 -2.837656,1.547516 -6.022578,3.263606 -7.077604,3.813535 -1.055026,0.549931 -1.918229,1.100384 -1.918229,1.223232 0,0.231484 1.276895,1.004777 1.689912,1.023417 0.12909,0.0058 1.79397,-0.912141 3.699737,-2.039927 z M 35.314074,4.4626443 C 41.476389,0.77551412 41.424782,0.81097358 41.135527,0.46244324 40.710002,-0.05028223 40.219222,0.04227696 38.577667,0.94484216 37.754773,1.3972876 35.861108,2.4198466 34.36952,3.217195 c -1.491589,0.7973483 -2.71198,1.5523422 -2.71198,1.6777653 0,0.2791962 0.79805,0.7644659 1.275284,0.7754593 0.192082,0.00442 1.263645,-0.5390753 2.38125,-1.2077753 z m -3.293221,-9.1086677 c 1.330124,-0.8435393 9.127038,-5.3181674 10.815333,-6.2068896 1.173758,-0.617868 1.226317,-0.83579 0.303035,-1.256464 -0.575164,-0.262064 -0.826796,-0.232304 -1.521354,0.179927 -2.756143,1.635813 -9.803799,5.6168956 -11.122557,6.28291 l -1.559102,0.7874027 0.765352,0.5045578 c 0.420947,0.2775056 0.831342,0.5053436 0.911993,0.5063014 0.08065,0.00106 0.713935,-0.3580263 1.4073,-0.7977453 z M 24.36905,-5.4765055 c 0.37065,-0.1688782 0.673907,-0.3965813 0.673907,-0.5060077 0,-0.2073169 -3.131074,-2.0682347 -5.431277,-3.2280172 -1.175657,-0.5927752 -1.406247,-0.6300338 -1.984375,-0.3206301 -0.359777,0.1925479 -0.610404,0.4490297 -0.55695,0.5699602 0.140409,0.3176587 5.911911,3.7917491 6.299226,3.7917491 0.17906,0 0.62882,-0.1381734 0.999469,-0.3070543 z m -9.631704,-2.7424486 c 0.429337,-0.2220172 0.780611,-0.4959853 0.780611,-0.6088168 0,-0.112829 -0.906288,-0.7207859 -2.013974,-1.3510101 l -2.013974,-1.145866 -0.935172,0.445953 c -0.6890759,0.328597 -0.8573535,0.523769 -0.6394585,0.741664 0.2590425,0.2590431 3.7533365,2.3018408 3.9620715,2.3162659 0.04361,0.00302 0.430559,-0.1761728 0.859896,-0.39819 z m 20.266853,-3.4580279 c 3.689131,-2.123932 6.707508,-3.943731 6.707508,-4.043995 0,-0.100263 -0.357188,-0.393295 -0.79375,-0.651179 -0.436562,-0.257884 -0.79375,-0.61831 -0.79375,-0.800949 0,-0.182639 1.444744,-1.15008 3.210541,-2.149867 l 3.210542,-1.817798 -0.598165,-0.484363 c -1.014957,-0.821862 -1.746017,-0.855736 -2.974416,-0.137826 -5.150231,3.009939 -12.250587,6.803924 -12.733394,6.803924 -0.325934,0 -0.734184,-0.141576 -0.907221,-0.314613 -0.243094,-0.243094 -0.661104,-0.159838 -1.838855,0.366241 -0.838332,0.374471 -2.193917,0.937959 -3.012413,1.252199 -1.435108,0.550971 -1.522219,0.555104 -2.443152,0.115943 -0.823039,-0.39248 -1.046951,-0.406175 -1.620681,-0.09912 -0.837251,0.448082 -0.830927,0.55899 0.06357,1.114779 3.975531,2.470156 7.624921,4.6951349 7.710612,4.7010457 0.05803,0.004 3.123893,-1.7304861 6.81302,-3.8544187 z m -17.772049,-0.68181 c 0.374417,-0.170598 0.639109,-0.435128 0.588203,-0.587846 -0.05091,-0.152717 -0.941938,-0.792699 -1.98007,-1.42218 -1.849456,-1.121434 -1.903743,-1.136118 -2.692421,-0.728276 -0.442698,0.228928 -0.804905,0.525639 -0.804905,0.65936 0,0.284879 3.422547,2.385544 3.890156,2.387669 0.175053,7.93e-4 0.62462,-0.138131 0.999037,-0.308727 z m -6.21211,-1.109324 c 0,-0.835951 -0.132709,-0.967441 -2.1726813,-2.152745 -2.0161117,-1.171443 -2.2195499,-1.235982 -2.8230565,-0.895606 -0.3577087,0.201744 -0.6932666,0.496601 -0.7456858,0.65524 -0.083622,0.253064 5.0270596,3.279389 5.5429866,3.282315 0.10914,5.29e-4 0.198437,-0.399521 0.198437,-0.889204 z m 34.32346,-2.445236 c -0.09316,-0.09316 -0.379545,-0.08874 -0.636405,0.0098 -0.396111,0.152 -0.408223,0.215545 -0.07977,0.418541 0.405609,0.250682 1.024837,-0.1197 0.716172,-0.428365 z M 18.779314,-29.468161 c -1.312219,-0.769249 -2.091668,-1.382529 -1.982216,-1.559626 0.19304,-0.312348 8.883203,-5.362001 9.229818,-5.363234 0.113665,-5.29e-4 0.715552,0.267486 1.337527,0.595313 l 1.130861,0.596048 0.985806,-0.539967 c 0.542192,-0.296979 1.61141,-0.892291 2.376035,-1.322917 l 1.390229,-0.782949 0.973164,0.529166 c 0.535239,0.291042 1.00992,0.648229 1.054846,0.79375 0.06703,0.217109 -13.805411,8.348068 -14.209088,8.328277 -0.06841,-0.0034 -1.09755,-0.576591 -2.286982,-1.273861 z"
         id="path877" />
      <path
         style="fill:#969696;stroke-width:0.264583"
         d="m 35.341599,57.687959 -4.6101,-2.707317 -0.0754,-2.690673 C 30.589637,49.91835 30.525042,49.5993 30.111355,49.5993 c -0.258138,0 -0.700458,0.174807 -0.982932,0.388461 -0.738487,0.558562 -0.90995,0.498131 -0.914517,-0.322316 -0.0074,-1.332785 -0.341542,-1.552209 -1.540396,-1.0116 -1.040167,0.469049 -1.070856,0.467305 -2.116225,-0.120224 l -1.060751,-0.596177 -1.212377,0.710501 -1.212376,0.710499 -4.761286,-2.817093 -4.761288,-2.81709 V 42.28964 c 0,-1.422755 -0.01003,-1.44058 -1.212199,-2.155709 C 6.7310413,37.988883 6.6649563,37.926087 6.5221237,36.508706 6.4020637,35.317313 6.285864,35.126287 5.2653528,34.44263 4.2606585,33.76957 4.1408737,33.578448 4.1408737,32.648477 c 0,-1.144045 -0.1830573,-1.233413 -1.3210408,-0.64494 -0.7951788,0.411202 -1.1743267,0.209341 -0.9084019,-0.483645 0.084439,-0.220041 0.018045,-0.653201 -0.1475184,-0.962578 -0.2968334,-0.554641 -0.3331607,-0.54505 -2.60006045,0.686607 -2.30560825,1.252683 -3.16619735,1.730261 -5.01099935,2.780813 -0.5457031,0.310758 -1.5875,0.888799 -2.3151041,1.284536 -0.7276042,0.395735 -3.0339847,1.689291 -5.1252887,2.874566 -2.091306,1.185275 -3.889888,2.155047 -3.996849,2.155047 -0.10696,0 -0.717613,0.399261 -1.357003,0.887246 -0.639389,0.487984 -1.675114,1.148601 -2.301608,1.468035 l -1.139084,0.58079 -2.300499,-1.275176 -2.300502,-1.275178 -0.07549,-2.713934 -0.07548,-2.713932 1.450041,0.818354 c 1.564457,0.882925 2.217653,0.817684 2.805215,-0.280186 0.37387,-0.698585 0.634416,-0.664533 2.176767,0.284485 l 1.312495,0.807585 1.627182,-1.042196 c 0.894953,-0.573207 3.889372,-2.384012 6.654268,-4.024006 11.29152535,-6.697562 14.419792,-8.636045 14.419792,-8.935471 0,-0.234143 -1.4177063,-1.10725 -1.7978967,-1.10725 -0.2792227,0 -9.0184578,4.611685 -15.5017573,8.180261 -2.166009,1.192228 -4.7757,2.589445 -5.799315,3.104928 -1.023615,0.515485 -2.049394,1.162833 -2.279512,1.43855 -0.409099,0.49017 -0.441902,0.487974 -1.476727,-0.09878 -0.973294,-0.551865 -1.064813,-0.700519 -1.138976,-1.850022 -0.04435,-0.687467 -0.01466,-1.24994 0.06601,-1.24994 0.08066,0 0.739585,0.327422 1.464286,0.727605 1.26042,0.69601 1.349465,0.708945 2.050659,0.297899 0.403161,-0.236336 2.697554,-1.614993 5.098648,-3.063682 2.401093,-1.448689 6.717109,-4.030342 9.5911455,-5.737003 2.8740365,-1.706663 5.22552083,-3.213777 5.22552083,-3.349143 0,-0.135366 -0.47625003,-0.546764 -1.05833333,-0.914218 -1.0218155,-0.645043 -1.0583333,-0.717449 -1.0583333,-2.098407 0,-1.350217 -0.052044,-1.462474 -0.9293887,-2.004703 -1.3507164,-0.83479 -1.8513266,-2.132531 -1.2120218,-3.141957 0.1942279,-0.306673 0.3315837,-0.295968 0.8485716,0.06615 0.3392567,0.237625 0.7561527,0.432046 0.9264333,0.432046 0.2297536,0 0.3193335,-2.371344 0.3473291,-9.1942706 0.020743,-5.056849 0.1073759,-9.635133 0.1925108,-10.1739675 0.2337674,-1.4795977 -0.057333,-2.1804445 -1.2272301,-2.9546445 -0.9782783,-0.6473954 -1.0628709,-0.7978374 -1.0628709,-1.8902464 0,-0.652778 0.041479,-1.186871 0.092173,-1.186871 0.050697,0 4.84296243,2.782567 10.6494792,6.1834793 C 25.072114,4.7331041 23.312423,3.6217905 23.406075,4.5723564 c 0.0937,0.9510501 0.279485,1.0097665 1.385438,0.4378564 0.63241,-0.327033 0.780611,-0.574601 0.780611,-1.3040175 0,-0.9869462 0.303622,-1.3858214 1.722284,-2.262603 L 28.236978,0.86105127 29.64,1.5956272 31.043022,2.3302058 35.238207,-0.12235208 C 37.545559,-1.4712588 40.152576,-3.0526046 41.03158,-3.6364527 l 1.598184,-1.0615428 1.422778,0.7881488 1.422778,0.7881488 4.213953,-2.4086159 c 3.032035,-1.7330552 4.348776,-2.6371259 4.694647,-3.2233341 0.325232,-0.551225 1.370114,-1.3128281 3.230804,-2.3548901 1.512559,-0.847097 3.387569,-1.897226 4.166687,-2.333622 l 1.416577,-0.793446 -0.821264,-0.519988 c -1.297268,-0.821372 -1.060683,-1.296874 1.260652,-2.533732 1.145056,-0.610111 2.216618,-1.109292 2.38125,-1.109292 0.176067,0 0.299331,0.466053 0.299331,1.131752 0,1.302814 0.49534,2.139929 1.606148,2.714348 l 0.780272,0.403497 -0.06873,12.4852964 -0.06873,12.4852956 -1.982803,1.125609 c -1.090541,0.619086 -2.132338,1.330111 -2.315104,1.58006 -0.212106,0.290071 -0.332301,1.374214 -0.332301,2.997288 v 2.542841 l -9.257324,5.277943 c -5.091528,2.902871 -9.258715,5.417857 -9.260416,5.58886 -0.0016,0.171003 0.919641,0.869982 2.047427,1.55329 1.127787,0.683307 2.137995,1.376836 2.244908,1.541171 0.106913,0.164335 0.19621,4.971995 0.198438,10.683687 0.0021,5.711693 0.06777,10.384896 0.14565,10.384896 0.07788,0 0.435068,-0.192286 0.79375,-0.427304 l 0.65215,-0.427305 v -9.444001 c 0,-7.16058 0.07997,-9.542936 0.330729,-9.853186 0.531617,-0.657728 13.971305,-8.194615 14.448727,-8.102749 0.390917,0.07522 0.441068,1.004089 0.504288,9.34039 0.07575,9.98869 0.01738,10.497389 -1.268664,11.05765 -0.398796,0.173733 -3.535857,1.923224 -6.971244,3.887755 -6.134598,3.508079 -6.246194,3.587234 -6.248122,4.431771 -0.0024,0.988701 0.02096,0.99845 1.07728,0.452208 1.043659,-0.539698 1.302006,-0.324456 1.302006,1.084762 0,0.884799 -0.101266,1.175009 -0.410014,1.175009 -0.574876,0 -1.971236,-0.754501 -1.971236,-1.065127 0,-0.141785 -0.171788,-0.257789 -0.381751,-0.257789 -0.209963,0 -0.809752,-0.252527 -1.332865,-0.561171 -0.842314,-0.496977 -1.00294,-0.516946 -1.404186,-0.174551 -0.497515,0.424545 -8.137766,4.788678 -8.807556,5.030899 -0.250193,0.09048 -2.260997,-0.932111 -5.027083,-2.556518 z m 0.899456,-28.130818 c 1.135896,-0.703495 1.069298,-0.968785 -0.448374,-1.786107 -0.884441,-0.476303 -0.916439,-0.474789 -1.871149,0.08851 -1.198972,0.707408 -1.485664,0.710959 -2.811023,0.03481 l -1.055119,-0.538282 -1.896348,1.001303 c -1.042993,0.550717 -1.934866,1.126969 -1.981943,1.280562 -0.0838,0.273428 1.729719,1.440532 2.238399,1.440532 0.141779,0 0.695915,-0.297326 1.231407,-0.66072 l 0.973627,-0.66072 1.367026,0.78074 1.367025,0.780741 0.937416,-0.567415 c 0.515581,-0.312079 1.392653,-0.849358 1.949056,-1.193951 z M 20.54504,25.450543 c 0,-0.750176 -0.155207,-0.950206 -1.165497,-1.502101 -1.130504,-0.617563 -1.186805,-0.62272 -1.875041,-0.17177 -0.390248,0.255699 -0.669444,0.502333 -0.620438,0.548071 0.247404,0.23091 3.291422,1.972713 3.462539,1.981285 0.10914,0.0055 0.198437,-0.379502 0.198437,-0.855485 z M 6.2575403,17.077129 c 0,-0.591315 -0.2087165,-0.901166 -0.8911246,-1.322917 -1.0354892,-0.639966 -1.7216146,-0.69446 -2.4096239,-0.191373 -0.4545145,0.332348 -0.3737583,0.43026 1.0739094,1.302051 1.9398985,1.168215 2.2268391,1.195563 2.2268391,0.212239 z M 38.996434,3.2551574 c 3.09413,-1.7693799 5.62569,-3.31217327 5.62569,-3.42842855 0,-0.11625527 -0.544354,-0.5303864 -1.209675,-0.92028965 l -1.209675,-0.7089166 -1.367571,0.6316159 c -2.832568,1.30823236 -9.838444,5.4282288 -9.916094,5.83143 -0.04996,0.2594531 0.353703,0.681871 1.056386,1.1054557 0.625489,0.3770471 1.195303,0.6901894 1.266251,0.6958674 0.07095,0.00569 2.660558,-1.4373516 5.754688,-3.2067342 z M 29.141866,5.895879 C 30.049202,5.4824676 29.892415,4.8735581 28.715898,4.2415453 27.882315,3.7937565 27.662157,3.7732169 26.933082,4.075207 26.475596,4.2647042 26.10129,4.5200721 26.10129,4.6426933 c 0,0.2354262 1.839844,1.564939 2.165636,1.564939 0.104894,0 0.498615,-0.14029 0.87494,-0.3117533 z m 34.530258,45.041953 c 0,-0.445151 0.119062,-0.809366 0.264583,-0.809366 0.145521,0 0.264583,0.290629 0.264583,0.645843 0,0.355214 -0.119062,0.719429 -0.264583,0.809366 -0.154363,0.0954 -0.264583,-0.173641 -0.264583,-0.645843 z M -26.683085,34.253466 c -0.09237,-0.291042 -0.09267,-0.766355 -5.29e-4,-1.056251 0.156832,-0.494131 0.215839,-0.501975 0.943872,-0.125495 0.930275,0.481063 0.969595,0.751965 0.188542,1.299036 -0.766469,0.536763 -0.929664,0.519851 -1.131885,-0.11729 z M 27.68879,-1.9944512 c -2.533028,-1.4537558 -2.953961,-1.5439549 -3.704166,-0.79375 -0.291042,0.2910417 -0.687457,0.5291667 -0.88092,0.5291667 -0.410583,0 -6.440556,-3.3087496 -7.122726,-3.9083616 -0.629521,-0.5533363 -0.531236,-1.7821275 0.212995,-2.662891 0.04134,-0.048927 1.756748,0.9284494 3.812013,2.1719487 3.345471,2.0241181 3.804394,2.2301306 4.38182,1.9670369 0.750748,-0.3420613 1.102882,-1.1913685 0.675516,-1.6292619 -0.163229,-0.1672537 -1.742683,-1.1375337 -3.509896,-2.1561795 -1.767211,-1.0186459 -3.329895,-2.0420141 -3.472628,-2.2741521 -0.264207,-0.429704 -0.115009,-1.397434 0.318083,-2.063152 0.189772,-0.291706 1.270359,0.25032 5.182354,2.599484 l 4.942586,2.96804 6.637073,-3.790111 c 3.65039,-2.08456 6.736728,-3.829797 6.858526,-3.878303 0.121801,-0.04851 0.221454,0.315815 0.221454,0.809607 0,0.897358 -0.0034,0.899731 -6.879167,4.8095296 -3.831627,2.1787936 -6.879167,4.0750121 -6.879167,4.2803023 0,0.3766793 1.868218,1.6981302 2.400753,1.6981302 0.162028,0 3.111193,-1.6005916 6.553695,-3.5568705 3.442501,-1.9562789 6.476198,-3.6392456 6.741546,-3.7399306 0.416552,-0.158057 0.470762,-0.06072 0.396875,0.7125998 -0.08338,0.8726646 -0.248611,0.9884701 -6.435577,4.5105532 -3.4925,1.988193 -6.666487,3.8634274 -7.053305,4.1671876 -0.386818,0.30376285 -0.803537,0.54504962 -0.926041,0.53619666 C 30.037981,-0.6964847 28.925717,-1.2845556 27.68879,-1.9944512 Z M 11.386364,-6.1785483 C 10.496438,-6.7149513 9.5737035,-7.3172329 9.3358431,-7.516951 8.8385243,-7.9345297 8.7284047,-9.9319513 9.2027047,-9.9319513 c 0.1646317,0 1.3616883,0.6079411 2.6601313,1.3509837 2.345296,1.3421096 2.360274,1.3573152 2.280357,2.3151042 -0.108646,1.302131 -0.709782,1.3211704 -2.756829,0.087315 z m 2.27951,-4.2555817 -2.248959,-1.293072 0.09033,-1.152896 c 0.04968,-0.634092 0.123492,-1.187021 0.164032,-1.228733 0.04054,-0.04171 1.16346,0.553604 2.495383,1.322917 l 2.421678,1.398754 -0.07217,1.03777 c -0.03969,0.5707727 -0.19123,1.076148 -0.336751,1.1230507 -0.14552,0.046905 -1.276614,-0.4965991 -2.513541,-1.2077907 z m -6.8929042,-1.140103 c -1.2293706,-0.725485 -2.3282566,-1.456434 -2.4419639,-1.624328 -0.11371,-0.167896 -0.1730349,-0.803071 -0.1318366,-1.411502 0.066117,-0.976421 -0.014817,-1.15924 -0.6896999,-1.557903 -1.3599795,-0.80336 -1.7498457,-1.366168 -1.7498457,-2.526081 0,-1.172019 0.004,-1.173411 1.7859375,-0.621114 0.5416364,0.167875 0.5953125,0.09823 0.5953125,-0.77239 0,-0.696762 0.1139401,-0.9569 0.4191211,-0.9569 0.2305156,0 2.1844847,1.011713 4.3421486,2.248254 4.9663246,2.846157 4.7637306,2.772135 4.7637306,1.740498 0,-0.456697 0.161234,-0.89223 0.358298,-0.967854 0.570752,-0.219016 4.666147,2.300423 4.835369,2.974666 0.173773,0.692364 -0.09713,1.677352 -0.461325,1.677352 -0.142494,0 -1.187968,-0.535781 -2.323274,-1.190625 -1.135306,-0.654843 -2.144154,-1.190625 -2.241889,-1.190625 -0.09773,0 -0.66259,0.306102 -1.255239,0.680223 l -1.077544,0.680225 -2.4044172,-1.387673 -2.4044196,-1.387674 -0.9332436,0.541237 c -0.5132838,0.29768 -0.9739948,0.663491 -1.0238026,0.812911 -0.049805,0.149421 1.3486156,1.073844 3.1076053,2.05427 1.7589897,0.98043 3.1567677,1.906784 3.1061737,2.058565 -0.0506,0.151783 -0.507788,0.539122 -1.0159839,0.860753 L 9.008191,-10.255166 Z M 50.30513,-11.765305 c -0.439608,-0.105428 -1.123352,-0.404024 -1.519433,-0.663546 -0.780756,-0.511572 -1.832946,-0.468392 -3.289107,0.13498 -0.705887,0.292489 -0.956839,0.290587 -1.521354,-0.01154 -0.371816,-0.198988 -0.676029,-0.511656 -0.676029,-0.694817 0,-0.18316 0.768191,-0.695973 1.707094,-1.139581 0.938901,-0.443609 1.834296,-1.044245 1.989765,-1.334741 0.24547,-0.458663 0.138134,-0.62383 -0.815533,-1.254938 l -1.098206,-0.726757 -1.30152,0.726665 c -1.273707,0.711136 -1.318205,0.716812 -2.082186,0.265515 -0.429366,-0.253633 -0.780664,-0.54464 -0.780664,-0.646684 0,-0.102042 1.361408,-0.910485 3.025354,-1.796535 3.331528,-1.774041 3.859964,-2.391195 2.760366,-3.223799 -0.34449,-0.260842 -0.904128,-0.544531 -1.243642,-0.630415 -0.33951,-0.08589 -1.081286,-0.449062 -1.648386,-0.807059 -0.567102,-0.357994 -1.135597,-0.650899 -1.263322,-0.650899 -0.373462,0 -15.727537,8.753489 -16.367429,9.331212 -0.64443,0.581819 -0.865238,0.539599 -2.467319,-0.47175 -1.170199,-0.738714 -1.142537,-0.631917 -0.742656,-2.867162 0.06606,-0.369247 -0.423283,-0.788898 -1.985807,-1.702991 -1.963248,-1.148524 -2.117952,-1.194792 -2.910416,-0.870429 -1.791912,0.733446 -1.887839,0.650415 -1.962965,-1.699088 -0.09661,-3.021507 0.01834,-3.106306 2.361144,-1.741733 1.066927,0.621437 3.256317,1.89503 4.865312,2.830208 l 2.925442,1.700326 13.743308,-7.826476 c 7.558818,-4.304561 13.856417,-7.93837 13.994662,-8.075131 0.556286,-0.550309 0.674687,-0.137453 0.674687,2.352623 v 2.601272 l 1.322917,0.857221 c 0.727604,0.471471 1.322917,0.962377 1.322917,1.090903 0,0.128527 0.416718,0.311862 0.926041,0.407411 0.866582,0.162571 0.926042,0.238683 0.926042,1.185389 0,1.486191 0.359177,2.175857 1.427726,2.741422 0.822804,0.435496 0.954019,0.634995 0.957136,1.455208 0.006,1.574168 0.246993,2.026791 1.50142,2.819707 1.131538,0.715238 1.164143,0.768046 0.574873,0.931111 -0.822706,0.227666 -6.068758,3.565618 -6.577822,4.185333 -0.359592,0.437751 -5.563327,3.502694 -5.837682,3.438332 -0.06349,-0.0149 -0.47512,-0.113342 -0.914728,-0.218771 z m 7.137985,-16.140031 c 0.217723,-0.352282 -0.331004,-0.625004 -0.85385,-0.42437 -0.381212,0.146285 -0.388665,0.204293 -0.05347,0.416269 0.496416,0.313941 0.71709,0.31591 0.907325,0.0081 z m -62.3862682,14.092828 c -0.2232872,-0.223287 -0.2311691,-1.53272 -0.010557,-1.753335 0.091213,-0.09121 0.5020178,0.008 0.9129025,0.220485 1.0258821,0.530503 1.0379313,0.522703 1.0379313,-0.67201 0,-1.19081 0.3681095,-1.349423 1.4645163,-0.631029 0.99058946,0.64906 0.79471842,1.099543 -0.8080454,1.858415 -0.8031083,0.380254 -1.5245106,0.79543 -1.6031157,0.922618 -0.1689841,0.273421 -0.7433575,0.305131 -0.9936321,0.05486 z"
         id="path875" />
      <path
         style="fill:#6e6e6e;stroke-width:0.264583"
         d="m 35.493999,57.64911 c -2.328334,-1.376275 -4.382162,-2.7017 -4.564063,-2.945387 -0.20887,-0.279812 -0.330729,-1.345718 -0.330729,-2.892888 0,-1.991444 -0.08086,-2.495076 -0.43217,-2.69168 -0.335611,-0.187817 -0.388097,-0.441994 -0.234905,-1.137626 0.108495,-0.492673 0.25124,-2.814175 0.317211,-5.158889 l 0.119946,-4.26312 -0.97672,-0.576278 c -0.537196,-0.316953 -1.047271,-0.505727 -1.133498,-0.4195 -0.08623,0.08623 -0.204399,2.472317 -0.262599,5.302417 -0.08873,4.314431 -0.168953,5.145641 -0.496655,5.145641 -0.214961,0 -0.73338,0.202345 -1.152043,0.449654 -0.728761,0.43049 -0.804289,0.425442 -1.771981,-0.118433 l -1.010777,-0.568087 -1.140119,0.647599 c -0.627068,0.35618 -1.251183,0.6476 -1.386925,0.6476 -0.400558,0 -8.795512,-5.056696 -9.171881,-5.524677 -0.189519,-0.235646 -0.326811,-0.845167 -0.305094,-1.35449 0.06384,-1.497422 0.04403,-1.533139 -1.268561,-2.286876 C 9.6012122,39.507168 8.5296497,38.841585 7.9111862,38.425019 6.8815575,37.731515 6.786707,37.572161 6.786707,36.535833 c 0,-1.173554 -0.4779089,-1.848749 -1.7859375,-2.523196 C 4.5352298,33.772596 4.405457,33.477168 4.405457,32.657415 c 0,-0.933553 -0.094099,-1.087057 -0.8598958,-1.402758 C 2.7460247,30.92505 2.6750264,30.938925 2.5340855,31.452338 2.402831,31.930469 2.3609925,31.898076 2.2220492,31.210758 1.8619301,29.429339 1.8666132,29.413644 2.985261,28.65338 L 4.078604,27.910311 4.022713,25.194908 3.966822,22.479508 2.929367,21.888547 C 2.35877,21.56352 1.6341159,21.295629 1.3190316,21.293235 1.0039446,21.290854 0.40863206,20.921106 -0.0038851,20.4716 -0.41640492,20.022095 -1.2004024,19.365759 -1.7461055,19.013074 -2.672171,18.414563 -2.738293,18.284732 -2.738293,17.064942 c 0,-1.251157 -0.050774,-1.341821 -1.190625,-2.12606 -0.9479624,-0.652213 -1.190625,-0.975174 -1.190625,-1.584594 0,-0.948886 0.3005402,-1.158336 0.9532091,-0.664303 0.2761006,0.208992 0.7103586,0.38377 0.9650201,0.3884 0.4338373,0.0079 0.4630208,-0.69986 0.4630208,-11.2284773 V -9.3869837 l -1.056296,-0.603213 c -0.8838116,-0.5047143 -1.0566268,-0.7409423 -1.0583334,-1.4466813 l -0.00212,-0.843467 1.6536458,0.998537 c 0.9095052,0.549196 7.1007552,4.185145 13.7583336,8.0798858 11.11808,6.5041754 12.105018,7.1384928 12.108738,7.7824305 0.0072,1.2410466 0.368811,1.5407005 1.373109,1.1377586 1.56233,-0.6268323 1.722998,-0.622853 2.820326,0.069861 1.13888,0.7189443 1.531228,1.5484157 1.254307,2.6517627 -0.122132,0.4866137 -0.367154,0.6650778 -0.99895,0.7276041 -1.418212,0.1403536 -1.49964,0.7488741 -1.522296,11.3762943 l -0.02005,9.441368 1.124479,0.753187 c 0.940406,0.629894 1.137922,0.914281 1.206598,1.737281 0.0935,1.120505 0.358182,1.197615 1.571527,0.457824 0.740285,-0.45136 0.859896,-0.672041 0.859896,-1.58651 0,-1.167056 0.179527,-1.256618 1.328213,-0.66261 0.894525,0.462579 1.31762,1.135785 1.31762,2.096535 0,0.781158 0.184467,0.826302 1.207556,0.295518 0.953042,-0.494445 1.172786,-0.333618 1.177745,0.861971 0.0076,1.827501 0.290586,1.886095 2.327243,0.481848 1.00956,-0.696079 1.969585,-1.559737 2.133386,-1.91924 0.163801,-0.359505 0.29782,-1.577784 0.29782,-2.707291 0,-1.245023 0.130225,-2.217181 0.330729,-2.468972 0.181901,-0.228428 3.40564,-2.172243 7.163864,-4.319585 5.036894,-2.877939 6.897402,-4.073287 7.077604,-4.547262 0.134459,-0.35365 0.24447,-1.625978 0.24447,-2.827393 v -2.184394 l 2.224809,-1.248802 c 1.223645,-0.68684 2.295208,-1.432256 2.38125,-1.65648 0.08604,-0.224223 0.156441,-3.9735515 0.156441,-8.3318423 0,-6.7573261 -0.05775,-7.946324 -0.392166,-8.0746522 -0.215691,-0.08277 -1.291793,0.3432572 -2.391341,0.9467242 l -1.999178,1.0972112 0.07624,-2.4272478 0.07624,-2.4272479 4.325173,-2.4799242 c 2.378845,-1.363956 4.373142,-2.479921 4.431771,-2.479921 0.05863,0 0.106598,0.409691 0.106598,0.910426 0,0.500734 0.119192,0.984091 0.264869,1.074126 0.14568,0.09004 1.157711,-0.304151 2.248958,-0.875966 l 1.98409,-1.039665 V -1.4965159 10.574165 l -1.228395,0.651663 c -0.675618,0.358416 -1.764585,0.991704 -2.419926,1.407309 l -1.191533,0.755647 0.159705,2.431304 c 0.08784,1.337215 0.07548,2.565334 -0.02747,2.72915 -0.221967,0.353217 -0.777041,0.684393 -10.902799,6.504994 -4.292865,2.46767 -7.837776,4.517927 -7.877582,4.556127 -0.298366,0.286322 0.537694,1.075407 2.144572,2.024076 1.043104,0.615828 1.991759,1.24868 2.108126,1.406337 0.116366,0.15766 0.153601,5.168215 0.08275,11.134569 l -0.128831,10.847917 -4.448371,2.572671 c -2.446602,1.41497 -4.567431,2.568808 -4.712952,2.564088 -0.145521,-0.0047 -2.169583,-1.134629 -4.497916,-2.510907 z m 3.175,-8.162801 c 0.873125,-0.525211 1.706562,-1.111916 1.852083,-1.303792 0.145521,-0.191876 0.532474,-0.491564 0.859896,-0.665975 0.327422,-0.174411 0.595312,-0.506037 0.595312,-0.736949 0,-0.375579 -0.06249,-0.378349 -0.592759,-0.02625 -0.843243,0.55988 -1.788491,-0.0657 -1.788491,-1.183656 0,-0.779407 -0.01159,-0.786148 -0.641908,-0.373155 -0.621006,0.406897 -0.646435,0.397118 -0.78083,-0.300299 -0.0764,-0.396492 -0.280699,-2.248408 -0.453991,-4.115367 -0.269605,-2.904656 -0.376462,-3.377001 -0.740524,-3.273401 -1.197229,0.340699 -1.218215,0.329824 -1.301324,-0.674314 -0.09607,-1.160828 -0.407823,-1.233229 -1.664692,-0.386612 l -0.899022,0.605578 -0.07186,5.082964 c -0.04923,3.482366 0.01738,5.082966 0.211577,5.082966 0.15589,0 0.638207,-0.18346 1.071817,-0.407689 0.433609,-0.224226 0.903946,-0.336264 1.045194,-0.248968 0.141248,0.0873 0.256812,1.166781 0.256812,2.398859 v 2.240137 l 0.727605,-0.379577 c 0.400182,-0.208764 1.441979,-0.809292 2.315104,-1.334503 z M 21.074207,25.681223 c 0,-1.101715 -0.06009,-1.194983 -1.124479,-1.745343 -2.135513,-1.104201 -2.050521,-0.849834 -2.050521,-6.136897 0,-4.573738 -0.01677,-4.721828 -0.505119,-4.46047 -0.561062,0.30027 -0.720103,1.708928 -0.902152,7.990525 l -0.09701,3.347451 1.876621,1.08322 c 2.471219,1.426429 2.802665,1.417148 2.802665,-0.07849 z M 6.6544153,17.315375 c 0,-1.122106 -0.038558,-1.173813 -1.5213541,-2.040247 L 3.611707,14.386163 V 9.6354391 C 3.611707,7.022541 3.5224101,4.8865386 3.4132695,4.8887664 2.668015,4.9039799 2.5289738,5.4724346 2.4058764,9.0073235 2.3353438,11.032754 2.2275446,13.493559 2.1663226,14.47578 l -0.1113128,1.785852 2.0351194,1.185641 c 1.1193145,0.6521 2.154182,1.148231 2.2997028,1.102513 0.1455208,-0.04572 0.2645833,-0.601205 0.2645833,-1.234411 z M 53.154936,56.684712 c -0.762701,-0.36784 -0.75067,-0.621419 0.05451,-1.148993 0.813464,-0.533003 1.202261,-0.308642 1.202261,0.69378 0,0.830236 -0.273648,0.929354 -1.256771,0.455213 z m -2.484231,-1.512007 c -0.620104,-0.508307 -0.620794,-0.514971 -0.09546,-0.921416 0.794237,-0.614485 1.311246,-0.402765 1.405826,0.575698 0.09777,1.011447 -0.353102,1.130401 -1.31037,0.345718 z m 1.359752,-11.482046 v -9.66942 l 6.945312,-3.960358 c 5.065329,-2.888353 7.034835,-3.886621 7.276042,-3.687948 0.252823,0.208241 0.330729,2.403116 0.330729,9.31757 0,6.829102 -0.08103,9.151104 -0.330729,9.477595 -0.277593,0.362963 -12.860184,7.669654 -13.884566,8.062746 -0.268875,0.103176 -0.336788,-1.820556 -0.336788,-9.540185 z m -23.481194,5.247182 c 0.0029,-0.582083 0.05712,-0.789053 0.120407,-0.459936 0.06329,0.329118 0.06088,0.805368 -0.0053,1.058334 -0.06622,0.252965 -0.118004,-0.01633 -0.115067,-0.598398 z m -51.991202,-6.503485 c -0.691123,-0.402542 -0.566441,-0.7318 0.463021,-1.222716 l 0.926042,-0.441597 v -2.464539 c 0,-2.720633 0.197535,-2.981163 1.417261,-1.869225 0.555533,0.506441 0.676696,0.911299 0.811615,2.711979 0.196191,2.618488 -0.02437,3.100395 -1.122227,2.451878 -0.861598,-0.508958 -1.106649,-0.397656 -1.106649,0.502637 0,0.670597 -0.572416,0.807238 -1.389063,0.331583 z m -2.315104,-1.643327 c -0.614365,-0.310036 -0.666943,-0.489593 -0.738505,-2.522072 l -0.07705,-2.18827 0.804651,0.416099 c 0.794422,0.410813 0.804651,0.442923 0.804651,2.525975 0,1.16043 -0.02977,2.108118 -0.06615,2.105972 -0.03638,-0.0021 -0.363802,-0.154112 -0.727604,-0.337704 z m -0.611061,-6.44307 c -0.245903,-0.245901 -0.233455,-1.153863 0.01574,-1.148776 0.109141,0.0021 0.377031,0.116986 0.595313,0.255016 0.351261,0.222121 0.349451,0.2984 -0.01574,0.663708 -0.226944,0.227007 -0.494834,0.330531 -0.595313,0.230052 z m 3.058457,-0.436202 c -0.415142,-0.187114 -0.595313,-0.496314 -0.595313,-1.021639 0,-0.837866 0.169127,-0.909116 0.879645,-0.370564 0.294558,0.223263 0.449283,0.618278 0.396875,1.013224 -0.07519,0.566666 -0.160052,0.613876 -0.681207,0.378979 z M 31.234564,27.572776 30.414713,27.010394 30.229439,18.118579 C 30.049001,9.4588853 30.168214,5.8125406 30.641331,5.5201389 c 0.127662,-0.078899 0.631545,0.1034124 1.119743,0.4051353 1.341263,0.8289476 1.374574,1.1962342 1.279375,14.1068378 -0.05572,7.556394 -0.09298,8.134765 -0.523013,8.119493 -0.254661,-0.009 -0.831953,-0.269517 -1.282872,-0.578829 z m 4.902817,-0.004 -0.907966,-0.611375 -0.151738,-9.250379 c -0.122137,-7.445803 -0.08294,-9.3654401 0.20093,-9.8401872 0.440166,-0.7361397 1.908775,-1.5268099 2.233247,-1.2023382 0.351727,0.3517266 0.171913,21.3029804 -0.183848,21.4214924 -0.155464,0.05179 -0.691245,-0.180956 -1.190625,-0.517213 z M 49.561013,10.264579 c -0.278529,-0.2785273 -0.205292,-4.5668914 0.08733,-5.1136608 0.296378,-0.5537941 3.932182,-2.6474526 4.5975,-2.6474526 0.368393,0 0.430448,0.3755178 0.430448,2.6048256 0,2.9656723 0.08615,2.8205695 -2.593864,4.3690355 -1.660141,0.9592023 -2.185447,1.1232173 -2.521413,0.7872493 z M 28.940833,3.9491357 C 28.135928,3.4021864 27.953374,3.1168544 27.953374,2.4057338 c 0,-1.2092411 0.192053,-1.299808 1.361985,-0.6422681 0.936696,0.526452 1.019265,0.6653609 1.019265,1.7147619 0,0.6280468 -0.09142,1.1419047 -0.203166,1.1419047 -0.111739,0 -0.64752,-0.3019478 -1.190625,-0.6709966 z m 14.42276,-5.4459744 c -0.873037,-0.5590964 -1.305377,-1.4920701 -1.027266,-2.2168115 0.204843,-0.5338181 0.660676,-0.4990888 1.690484,0.1287992 0.740286,0.4513606 0.859896,0.6720416 0.859896,1.5865104 0,1.22291747 -0.261935,1.3091637 -1.523114,0.5015019 z M 27.854282,-2.2365026 c -2.102075,-1.1554645 -2.385854,-1.5361444 -2.156616,-2.8929992 0.129939,-0.7691094 0.06066,-1.0817622 -0.309817,-1.3981483 -0.473241,-0.4041484 -4.254973,-2.6105512 -4.474435,-2.6105512 -0.06287,0 -0.588189,-0.2991511 -1.167381,-0.6647762 -0.940504,-0.5937145 -1.053076,-0.7775605 -1.053076,-1.7197915 0,-0.580261 0.0956,-1.055016 0.212455,-1.055016 0.116851,0 1.218179,0.628716 2.447396,1.397146 1.229217,0.768429 3.217206,1.9703705 4.417753,2.6709792 l 2.182813,1.2738339 v 1.2850601 c 0,1.2252854 0.05538,1.3231627 1.190625,2.1042313 1.022963,0.7038181 1.190625,0.9477851 1.190625,1.7325022 0,0.5638774 -0.126543,0.906444 -0.33073,0.8953315 -0.181901,-0.0099 -1.149225,-0.4679103 -2.149612,-1.0178018 z m -8.499867,-2.396961 -2.910416,-1.5354247 -0.08136,-1.0877815 c -0.04475,-0.5982785 7.94e-4,-1.0877815 0.101211,-1.0877815 0.100412,0 1.595541,0.9079971 3.322506,2.0177734 2.561664,1.6461661 3.139934,2.1334413 3.139934,2.6458334 0,0.3454321 -0.148828,0.6178762 -0.330729,0.6054328 -0.181901,-0.012435 -1.640416,-0.713568 -3.241146,-1.5580519 z m -7.805208,-2.0329446 c -1.6315637,-0.956773 -2.1166667,-1.411388 -2.1166667,-1.9836342 0,-0.6940338 0.4435317,-0.5903965 2.2489587,0.5255022 1.052936,0.6508009 1.615969,1.1798988 1.672047,1.5712705 0.111366,0.7772321 -0.333589,0.7493318 -1.804339,-0.1131385 z m 2.182813,-4.2614978 c -1.413227,-0.829234 -1.653646,-1.079675 -1.653646,-1.722581 0,-0.413753 0.0893,-0.704792 0.198437,-0.646753 2.37055,1.260605 3.505729,2.142326 3.505729,2.722986 0,0.353267 -0.0893,0.6365321 -0.198437,0.6294757 -0.109141,-0.00706 -0.942578,-0.4494607 -1.852083,-0.9831277 z m -6.8884144,-1.180677 c -1.7293695,-1.064263 -2.1735653,-1.46517 -2.1735653,-1.961745 0,-0.343268 0.1220894,-0.624123 0.2713117,-0.624123 0.4070721,0 5.537872,2.74837 5.544116,2.969768 0.003,0.105404 -0.326178,0.363111 -0.7314457,0.572682 -0.7053765,0.364766 -0.8296963,0.323903 -2.9104167,-0.956582 z m 40.7843884,-1.925003 c -0.442121,-1.152149 0.06254,-1.551355 6.781057,-5.364109 3.647373,-2.069883 6.687891,-3.763423 6.756706,-3.763423 0.06881,0 0.124225,0.446484 0.123138,0.992187 l -0.0019,0.992188 -6.597423,3.770312 c -3.628583,2.073672 -6.667521,3.770313 -6.753198,3.770313 -0.08568,0 -0.224412,-0.178861 -0.308298,-0.397468 z M -4.8549597,-14.56216 c 0,-0.734086 0.5457667,-0.882187 1.0430193,-0.283035 0.2507985,0.302194 0.2075312,0.435438 -0.2147914,0.661458 -0.749218,0.400971 -0.8282279,0.364871 -0.8282279,-0.378423 z m 20.9682287,-0.548568 c -1.432731,-0.81207 -1.653645,-1.039765 -1.653645,-1.704417 v -0.76713 l 1.653645,0.972793 c 1.806853,1.062924 2.040414,1.289032 2.046471,1.981176 0.0055,0.630389 -0.146273,0.594607 -2.046471,-0.482422 z m 46.914748,-0.02521 c -0.749099,-0.405519 -0.758402,-0.43361 -0.264584,-0.798902 0.511556,-0.378407 2.970525,-1.670023 3.179387,-1.670023 0.0608,0 0.110554,0.473191 0.110554,1.051539 0,0.896839 -0.11484,1.110924 -0.780611,1.455208 -0.964057,0.498533 -1.263285,0.493493 -2.244746,-0.03781 z m -65.5881237,0.0024 c -0.2209456,-0.220948 -0.2347119,-1.26819 -0.0195,-1.483405 0.236257,-0.236257 1.4565895,0.384038 1.3550159,0.688756 -0.1336569,0.400968 -1.1339883,0.996177 -1.3355188,0.794649 z M 9.1073224,-16.14966 c -1.1186689,-0.654843 -2.1715333,-1.190625 -2.3396945,-1.190625 -0.1681612,0 -0.7764436,0.264547 -1.351743,0.587881 l -1.0459932,0.587883 -0.9744048,-0.521738 c -0.8589725,-0.459927 -0.9840595,-0.655306 -1.0559124,-1.649259 l -0.081508,-1.127524 0.9380802,0.447341 c 1.0799339,0.514983 1.2336357,0.428649 1.4489219,-0.813861 l 0.157263,-0.907621 3.7041667,2.086944 c 2.0372917,1.147818 3.9359637,2.225421 4.2192687,2.394674 0.502523,0.300215 0.500192,0.319802 -0.09546,0.80213 -0.87503,0.708557 -1.249678,0.634518 -3.522986,-0.696225 z m 15.0869496,0.732229 c -0.627904,-0.389432 -0.725948,-0.635926 -0.79375,-1.995582 l -0.07736,-1.551268 -2.304507,-1.332797 -2.304508,-1.332796 -0.931812,0.575892 c -1.336683,0.826114 -1.551914,0.555649 -1.332492,-1.674445 0.102164,-1.038344 0.226372,-1.931942 0.276019,-1.985772 0.09301,-0.100845 7.566866,4.16863 8.370305,4.78158 0.333481,0.254415 0.497142,0.943168 0.631698,2.65848 0.169312,2.158331 0.147791,2.314628 -0.317796,2.308064 -0.274675,-0.0039 -0.821783,-0.206981 -1.2158,-0.451356 z m 23.653025,-4.767125 c 0.08906,-1.076118 -0.444037,-0.720071 9.673264,-6.460582 l 1.389063,-0.788149 v 1.051248 1.051247 l -5.394214,3.069212 c -2.966818,1.688066 -5.474319,3.069212 -5.572223,3.069212 -0.0979,0 -0.141055,-0.446484 -0.09589,-0.992188 z"
         id="path873" />
      <path
         style="fill:#bc1610;stroke-width:0.264583"
         d="m 35.361707,57.325167 -4.365625,-2.574115 -0.07624,-2.618695 c -0.04193,-1.440283 0.02606,-2.720988 0.151071,-2.846012 0.126701,-0.126701 0.746006,0.153022 1.399162,0.631963 2.149298,1.576025 2.912491,2.062258 3.234113,2.060458 0.175438,-0.0011 1.141566,-0.532098 2.146951,-1.180261 1.005382,-0.648163 1.937727,-1.110647 2.071873,-1.027739 0.141555,0.08749 0.166423,1.080849 0.05926,2.367295 -0.150349,1.804917 -0.114067,2.243638 0.195355,2.362375 0.208997,0.0802 1.31436,-0.386725 2.456363,-1.037614 l 2.076371,-1.183431 1.080359,0.550836 c 1.6567,0.844688 3.064738,1.777741 3.064738,2.030886 0,0.27935 -8.332425,5.060675 -8.796375,5.047552 -0.182461,-0.0052 -2.296281,-1.167736 -4.697375,-2.583498 z M 52.030457,43.67857 c 0,-7.165967 0.07753,-9.424437 0.330729,-9.633858 0.580321,-0.479985 13.426824,-7.728746 13.697149,-7.728746 0.164888,0 0.259622,3.420726 0.259622,9.374693 v 9.37469 l -0.727604,0.50519 c -1.261012,0.875544 -12.982181,7.468344 -13.277776,7.468344 -0.194456,0 -0.28212,-2.908628 -0.28212,-9.360313 z m -35.71875,2.515915 c -4.11262,-2.436117 -4.370538,-2.636189 -4.450413,-3.452233 -0.173358,-1.771121 -0.0543,-1.74086 5.107212,1.298054 6.634813,3.906345 6.162762,3.524919 5.205775,4.206356 -0.431689,0.307388 -0.9451,0.553244 -1.140918,0.546349 -0.195818,-0.0069 -2.320562,-1.176234 -4.721656,-2.598526 z m 17.727083,2.077847 c -0.352777,-0.231584 -0.352777,-0.28948 0,-0.521065 0.594868,-0.390504 0.79375,-0.325226 0.79375,0.260533 0,0.585758 -0.198882,0.651036 -0.79375,0.260532 z m 8.202084,-3.423883 -1.719792,-1.000948 -0.229296,-5.052938 c -0.126111,-2.779115 -0.157744,-5.338014 -0.07029,-5.686439 0.185642,-0.739661 3.735197,-2.932313 4.359269,-2.692836 0.324141,0.124386 0.359037,0.694306 0.215191,3.514672 -0.09442,1.851419 -0.172164,5.30098 -0.172754,7.665694 -7.94e-4,3.274861 -0.07989,4.294028 -0.331803,4.276611 -0.181902,-0.01257 -1.104636,-0.473295 -2.050521,-1.023816 z M 29.117726,37.267467 c -2.338094,-1.222629 -3.016436,-1.652839 -3.016436,-1.913046 0,-0.32203 1.986929,-1.365538 2.600098,-1.365538 0.299019,0 0.618458,-0.121005 0.709861,-0.268899 0.262983,-0.425513 0.658791,-0.02551 0.658791,0.665774 0,0.939411 0.328623,0.987994 1.89011,0.279431 0.779449,-0.353697 1.744604,-0.722997 2.144786,-0.820668 0.691404,-0.168751 0.727604,-0.130427 0.727604,0.770342 0,0.803397 -0.131111,1.014587 -0.859896,1.385094 -0.472942,0.240437 -1.23314,0.838808 -1.68933,1.329711 -0.456189,0.4909 -0.944261,0.892548 -1.084606,0.892548 -0.140343,0 -1.076786,-0.429636 -2.080982,-0.954749 z M 2.9658247,30.144011 c -0.5083995,-0.384535 -0.5083995,-0.392388 0,-0.776923 0.8045106,-0.608499 1.175049,-0.486002 1.175049,0.388461 0,0.874464 -0.3705384,0.996961 -1.175049,0.388462 z M 19.746361,23.500775 c -1.332516,-0.887415 -1.317987,-0.789913 -1.317987,-8.844647 0,-8.5745564 0.01265,-8.6312143 1.67454,-7.5019277 l 0.979016,0.6652578 -0.07001,7.9695309 c -0.04491,5.113118 -0.166602,8.001696 -0.339518,8.059272 -0.14823,0.04936 -0.564949,-0.107011 -0.926041,-0.347486 z m -14.7713196,-8.78872 -0.8341677,-0.77923 0.00405,-7.500617 c 0.00238,-4.3902102 0.1105006,-7.6651963 0.2607495,-7.8974925 0.2231178,-0.3449611 0.3869849,-0.3225827 1.2527174,0.1710743 l 0.996024,0.56794929 V 7.3011235 c 0,8.9361385 -0.00815,8.9720895 -1.6793732,7.4109315 z M 31.570569,10.906278 c -0.337494,-0.248582 -0.457541,-0.61717 -0.396875,-1.2185652 0.07911,-0.7842356 0.130715,-0.8299662 0.570818,-0.5058093 0.337494,0.2485814 0.457541,0.6171698 0.396875,1.2185655 -0.07911,0.784235 -0.130715,0.829966 -0.570818,0.505809 z M 49.917841,7.7289865 c 0.0021,-1.2005469 0.09152,-2.312125 0.198438,-2.4701712 0.199347,-0.2946929 3.546498,-2.2261831 3.857834,-2.2261831 0.09515,0 0.173011,1.0612703 0.173011,2.3583795 v 2.3583768 l -1.875325,1.0812066 c -1.03143,0.5946616 -1.98393,1.0812039 -2.116666,1.0812039 -0.132739,0 -0.23952,-0.9822656 -0.237292,-2.1828125 z m -13.627169,0.961607 c -0.410485,-0.300154 -0.459763,-0.4768242 -0.233304,-0.8364326 0.157903,-0.2507457 0.482695,-0.4944005 0.72176,-0.5414487 0.325948,-0.064151 0.434662,0.113927 0.434662,0.7119885 0,0.9823873 -0.246808,1.1604228 -0.923118,0.6658928 z"
         id="path871" />
      <path
         style="fill:#6e2c11;stroke-width:0.264583"
         d="m 35.361707,57.325167 -4.365625,-2.574115 -0.07624,-2.618695 c -0.04193,-1.440283 0.02606,-2.720988 0.151071,-2.846012 0.126701,-0.126701 0.746006,0.153022 1.399162,0.631963 2.149298,1.576025 2.912491,2.062258 3.234113,2.060458 0.175438,-0.0011 1.141566,-0.532098 2.146951,-1.180261 1.005382,-0.648163 1.937727,-1.110647 2.071873,-1.027739 0.141555,0.08749 0.166423,1.080849 0.05926,2.367295 -0.150349,1.804917 -0.114067,2.243638 0.195355,2.362375 0.208997,0.0802 1.31404,-0.386543 2.455649,-1.037206 l 2.075656,-1.183024 1.279512,0.64838 c 0.703733,0.356608 1.279514,0.707909 1.279514,0.780669 0,0.07276 -0.570386,-0.156744 -1.267524,-0.510011 l -1.267523,-0.642302 -2.138479,1.220494 -2.138479,1.220493 -0.169476,2.032157 c -0.09321,1.117684 -0.09558,2.224712 -0.0053,2.460058 0.304271,0.79292 -0.512884,0.433306 -4.919496,-2.164977 z m 12.7,-2.987008 c -0.569852,-0.466111 -0.581051,-0.501742 -0.08088,-0.257278 0.319317,0.15607 0.653764,0.402188 0.743217,0.546926 0.238807,0.386397 0.07843,0.316259 -0.662337,-0.289648 z m -31.75,-8.143674 c -4.11262,-2.436117 -4.370538,-2.636189 -4.450413,-3.452233 -0.173358,-1.771121 -0.0543,-1.74086 5.107212,1.298054 6.634813,3.906345 6.162762,3.524919 5.205775,4.206356 -0.431689,0.307388 -0.9451,0.553244 -1.140918,0.546349 -0.195818,-0.0069 -2.320562,-1.176234 -4.721656,-2.598526 z m 17.727083,2.077847 c -0.352777,-0.231584 -0.352777,-0.28948 0,-0.521065 0.594868,-0.390504 0.79375,-0.325226 0.79375,0.260533 0,0.585758 -0.198882,0.651036 -0.79375,0.260532 z m 8.202084,-3.423883 -1.719792,-1.000948 -0.229296,-5.052938 c -0.126111,-2.779115 -0.157744,-5.338014 -0.07029,-5.686439 0.185642,-0.739661 3.735197,-2.932313 4.359269,-2.692836 0.324141,0.124386 0.359037,0.694306 0.215191,3.514672 -0.09442,1.851419 -0.172164,5.30098 -0.172754,7.665694 -7.94e-4,3.274861 -0.07989,4.294028 -0.331803,4.276611 -0.181902,-0.01257 -1.104636,-0.473295 -2.050521,-1.023816 z M 29.117726,37.267467 c -2.338094,-1.222629 -3.016436,-1.652839 -3.016436,-1.913046 0,-0.32203 1.986929,-1.365538 2.600098,-1.365538 0.299019,0 0.618458,-0.121005 0.709861,-0.268899 0.262983,-0.425513 0.658791,-0.02551 0.658791,0.665774 0,0.939411 0.328623,0.987994 1.89011,0.279431 0.779449,-0.353697 1.744604,-0.722997 2.144786,-0.820668 0.691404,-0.168751 0.727604,-0.130427 0.727604,0.770342 0,0.803397 -0.131111,1.014587 -0.859896,1.385094 -0.472942,0.240437 -1.23314,0.838808 -1.68933,1.329711 -0.456189,0.4909 -0.944261,0.892548 -1.084606,0.892548 -0.140343,0 -1.076786,-0.429636 -2.080982,-0.954749 z M 2.9658247,30.144011 c -0.5083995,-0.384535 -0.5083995,-0.392388 0,-0.776923 0.8045106,-0.608499 1.175049,-0.486002 1.175049,0.388461 0,0.874464 -0.3705384,0.996961 -1.175049,0.388462 z M 19.746361,23.500775 c -1.332516,-0.887415 -1.317987,-0.789913 -1.317987,-8.844647 0,-8.5745564 0.01265,-8.6312143 1.67454,-7.5019277 l 0.979016,0.6652578 -0.07001,7.9695309 c -0.04491,5.113118 -0.166602,8.001696 -0.339518,8.059272 -0.14823,0.04936 -0.564949,-0.107011 -0.926041,-0.347486 z m -14.7713196,-8.78872 -0.8341677,-0.77923 0.00405,-7.500617 c 0.00238,-4.3902102 0.1105006,-7.6651963 0.2607495,-7.8974925 0.2231178,-0.3449611 0.3869849,-0.3225827 1.2527174,0.1710743 l 0.996024,0.56794929 V 7.3011235 c 0,8.9361385 -0.00815,8.9720895 -1.6793732,7.4109315 z M 31.570569,10.906278 c -0.337494,-0.248582 -0.457541,-0.61717 -0.396875,-1.2185652 0.07911,-0.7842356 0.130715,-0.8299662 0.570818,-0.5058093 0.337494,0.2485814 0.457541,0.6171698 0.396875,1.2185655 -0.07911,0.784235 -0.130715,0.829966 -0.570818,0.505809 z M 49.917841,7.7289865 c 0.0021,-1.2005469 0.09152,-2.312125 0.198438,-2.4701712 0.199347,-0.2946929 3.546498,-2.2261831 3.857834,-2.2261831 0.09515,0 0.173011,1.0612703 0.173011,2.3583795 v 2.3583768 l -1.875325,1.0812066 c -1.03143,0.5946616 -1.98393,1.0812039 -2.116666,1.0812039 -0.132739,0 -0.23952,-0.9822656 -0.237292,-2.1828125 z m -13.627169,0.961607 c -0.410485,-0.300154 -0.459763,-0.4768242 -0.233304,-0.8364326 0.157903,-0.2507457 0.482695,-0.4944005 0.72176,-0.5414487 0.325948,-0.064151 0.434662,0.113927 0.434662,0.7119885 0,0.9823873 -0.246808,1.1604228 -0.923118,0.6658928 z"
         id="path869" />
      <path
         style="fill:#202020;stroke-width:0.264583"
         d="m 37.763962,53.212831 c -0.788813,-0.459473 -1.471633,-0.954469 -1.517382,-1.09999 -0.119616,-0.380497 3.414736,-2.553099 3.695916,-2.271919 0.336087,0.336087 -0.07645,4.261901 -0.444687,4.231805 -0.164804,-0.01347 -0.945036,-0.400424 -1.733847,-0.859896 z M 34.03879,48.272332 c -0.352777,-0.231584 -0.352777,-0.28948 0,-0.521065 0.594868,-0.390504 0.79375,-0.325226 0.79375,0.260533 0,0.585758 -0.198882,0.651036 -0.79375,0.260532 z m 8.202084,-3.423883 -1.719792,-1.000948 -0.229296,-5.052938 c -0.126111,-2.779115 -0.157744,-5.338014 -0.07029,-5.686439 0.185642,-0.739661 3.735197,-2.932313 4.359269,-2.692836 0.324141,0.124386 0.359037,0.694306 0.215191,3.514672 -0.09442,1.851419 -0.172164,5.30098 -0.172754,7.665694 -7.94e-4,3.274861 -0.07989,4.294028 -0.331803,4.276611 -0.181902,-0.01257 -1.104636,-0.473295 -2.050521,-1.023816 z M 29.128423,34.6667 c -0.507656,-0.376118 -0.507511,-0.385019 0.01265,-0.770289 0.652266,-0.483106 0.92896,-0.332703 0.92896,0.504962 0,0.741257 -0.216795,0.802344 -0.941618,0.265327 z m 4.829365,-0.317846 c -0.24692,-0.24692 0.05147,-0.624555 0.493493,-0.624555 0.209693,0 0.381259,0.178594 0.381259,0.396875 0,0.398524 -0.558532,0.543899 -0.874752,0.22768 z M 2.9658247,30.144011 c -0.5083995,-0.384535 -0.5083995,-0.392388 0,-0.776923 0.8045106,-0.608499 1.175049,-0.486002 1.175049,0.388461 0,0.874464 -0.3705384,0.996961 -1.175049,0.388462 z M 19.746361,23.500775 c -1.332516,-0.887415 -1.317987,-0.789913 -1.317987,-8.844647 0,-8.5745564 0.01265,-8.6312143 1.67454,-7.5019277 l 0.979016,0.6652578 -0.07001,7.9695309 c -0.04491,5.113118 -0.166602,8.001696 -0.339518,8.059272 -0.14823,0.04936 -0.564949,-0.107011 -0.926041,-0.347486 z m -14.7713196,-8.78872 -0.8341677,-0.77923 0.00405,-7.500617 c 0.00238,-4.3902102 0.1105006,-7.6651963 0.2607495,-7.8974925 0.2231178,-0.3449611 0.3869849,-0.3225827 1.2527174,0.1710743 l 0.996024,0.56794929 V 7.3011235 c 0,8.9361385 -0.00815,8.9720895 -1.6793732,7.4109315 z M 31.570569,10.906278 c -0.337494,-0.248582 -0.457541,-0.61717 -0.396875,-1.2185652 0.07911,-0.7842356 0.130715,-0.8299662 0.570818,-0.5058093 0.337494,0.2485814 0.457541,0.6171698 0.396875,1.2185655 -0.07911,0.784235 -0.130715,0.829966 -0.570818,0.505809 z M 49.917841,7.7289865 c 0.0021,-1.2005469 0.09152,-2.312125 0.198438,-2.4701712 0.199347,-0.2946929 3.546498,-2.2261831 3.857834,-2.2261831 0.09515,0 0.173011,1.0612703 0.173011,2.3583795 v 2.3583768 l -1.875325,1.0812066 c -1.03143,0.5946616 -1.98393,1.0812039 -2.116666,1.0812039 -0.132739,0 -0.23952,-0.9822656 -0.237292,-2.1828125 z m -13.627169,0.961607 c -0.410485,-0.300154 -0.459763,-0.4768242 -0.233304,-0.8364326 0.157903,-0.2507457 0.482695,-0.4944005 0.72176,-0.5414487 0.325948,-0.064151 0.434662,0.113927 0.434662,0.7119885 0,0.9823873 -0.246808,1.1604228 -0.923118,0.6658928 z"
         id="path867" />
    </g>
  </g>
</svg>
