<?xml version="1.0" encoding="UTF-8" standalone="no"?>
<svg
   xmlns:dc="http://purl.org/dc/elements/1.1/"
   xmlns:cc="http://creativecommons.org/ns#"
   xmlns:rdf="http://www.w3.org/1999/02/22-rdf-syntax-ns#"
   xmlns:svg="http://www.w3.org/2000/svg"
   xmlns="http://www.w3.org/2000/svg"
   xmlns:sodipodi="http://sodipodi.sourceforge.net/DTD/sodipodi-0.dtd"
   xmlns:inkscape="http://www.inkscape.org/namespaces/inkscape"
   width="100"
   height="60"
   viewBox="0 0 26.458333 15.875"
   version="1.1"
   id="svg8"
   sodipodi:docname="Sand2.svg"
   inkscape:version="1.0.2-2 (e86c870879, 2021-01-15)">
  <defs
     id="defs2">
    <inkscape:perspective
       sodipodi:type="inkscape:persp3d"
       inkscape:vp_x="0 : 11.404167 : 1"
       inkscape:vp_y="0 : 1000 : 0"
       inkscape:vp_z="9.9999999 : 11.404167 : 1"
       inkscape:persp3d-origin="5.0000001 : 9.7375002 : 1"
       id="perspective1944" />
    <mask
       maskUnits="userSpaceOnUse"
       id="mask4667">
      <path
         style="fill:#8f8980;fill-opacity:1;stroke:none;stroke-width:0.264583px;stroke-linecap:butt;stroke-linejoin:miter;stroke-opacity:1"
         d="m 0.47624997,0.59531247 c -0.11073061,0.11898408 -0.12732554,0.31444944 0.047625,0.35718748 0.1366134,0.006177 0.2513938,-0.0269326 0.33337498,-0.1190625 0.0306756,-0.10038779 0.0524371,-0.2013117 -0.047625,-0.30956248 -0.047625,-0.047625 -0.12865574,-0.0973955 -0.33337498,0.0714375 z"
         id="path4669"
         sodipodi:nodetypes="ccccc" />
    </mask>
  </defs>
  <sodipodi:namedview
     id="base"
     pagecolor="#ffffff"
     bordercolor="#666666"
     borderopacity="1.0"
     inkscape:pageopacity="0.0"
     inkscape:pageshadow="2"
     inkscape:zoom="6.68"
     inkscape:cx="50"
     inkscape:cy="2.5349484"
     inkscape:document-units="mm"
     inkscape:current-layer="layer1"
     inkscape:document-rotation="0"
     showgrid="true"
     showguides="true"
     inkscape:guide-bbox="true"
     inkscape:window-width="1920"
     inkscape:window-height="1017"
     inkscape:window-x="-8"
     inkscape:window-y="-8"
     inkscape:window-maximized="1"
     units="px">
    <inkscape:grid
       type="xygrid"
       id="grid1942"
       units="px"
       dotted="false"
       spacingx="0.023812499"
       spacingy="0.023812499"
       empspacing="10"
       visible="true" />
  </sodipodi:namedview>
  <metadata
     id="metadata5">
    <rdf:RDF>
      <cc:Work
         rdf:about="">
        <dc:format>image/svg+xml</dc:format>
        <dc:type
           rdf:resource="http://purl.org/dc/dcmitype/StillImage" />
        <dc:title></dc:title>
      </cc:Work>
    </rdf:RDF>
  </metadata>
  <g
     inkscape:label="Layer 1"
     inkscape:groupmode="layer"
     id="layer1">
    <path
       style="fill:#f3c087;fill-opacity:1;fill-rule:evenodd;stroke:none;stroke-width:0.229136;stroke-linecap:butt;stroke-linejoin:bevel;stroke-miterlimit:1;stroke-dasharray:none;stroke-opacity:1;paint-order:stroke markers fill"
       d="M 3.9678839e-8,7.9374997 13.229166,1.9879751e-7 26.458333,7.9374997 13.229166,15.875 Z"
       id="path1960" />
    <g
       id="g935"
       transform="matrix(1.6194361,0.96172038,-1.6194361,0.96172038,9.5340846,6.7662118)">
      <path
         style="fill:#fae0ae;stroke-width:0.264583"
         d="M -0.27644483,3.0898982 C -0.45820336,2.7988565 -0.77747298,2.5607315 -0.98593289,2.5607315 c -0.20845991,0 -0.46510761,-0.1392957 -0.57032811,-0.3095463 -0.1286349,-0.2081355 -0.04707,-0.2541963 0.2489684,-0.1405956 0.577731,0.2216962 1.23402847,-0.042041 1.23402847,-0.4959032 0,-0.2088476 0.1640529,-0.2973107 0.39032998,-0.21048 0.34086322,0.1308015 0.34231657,0.2426313 0.011467,0.8824226 -0.35268861,0.6820247 -0.3385274,0.7521202 0.20498249,1.0146302 C 1.0859003,3.5680558 1.0887117,3.5842155 0.58569253,3.6011578 0.29327584,3.6110067 -0.0946863,3.3809398 -0.27644483,3.0898982 Z M 2.7048607,3.3544815 C 2.7947976,3.2089607 2.6629179,3.0898982 2.411795,3.0898982 c -0.6684634,0 -0.2640573,-0.2935888 0.5234882,-0.3800396 0.5828587,-0.063982 0.6384395,-0.0075 0.4109296,0.4176085 -0.1447025,0.2703788 -0.3849952,0.4915977 -0.5339844,0.4915977 -0.148989,0 -0.1973046,-0.1190625 -0.1073677,-0.2645833 z M 4.5437148,2.5864133 C 4.40547,2.4550173 4.0542356,2.2806997 3.763194,2.1990411 3.4612055,2.1143107 3.5529892,2.0887937 3.9769858,2.1396043 4.487489,2.2007813 4.6803009,2.1253274 4.5932382,1.8984469 4.5235498,1.7168417 4.7603675,1.4343755 5.1194999,1.2707436 5.9196316,0.90617932 6.0121522,0.9027662 6.0121522,1.2378149 c 0,0.1455209 -0.1715669,0.2645834 -0.3812601,0.2645834 -0.6265457,0 -0.7649151,0.5379706 -0.2405472,0.9352308 0.4709067,0.3567583 0.4688964,0.3711763 -0.05288,0.3792712 C 5.039147,2.8215279 4.6819596,2.7178091 4.5437148,2.5864133 Z M -1.2638891,0.73190411 -0.47013911,0.55318469 -1.2360138,0.35168703 C -1.7649498,0.21252679 -1.9169823,0.06528326 -1.72744,-0.12425894 c 0.3569129,-0.3569131 1.38959255,0.17066947 1.38959255,0.70992467 0,0.26728631 -0.2668653,0.37785065 -0.85989575,0.35626171 L -2.057639,0.91062326 Z M 3.366319,0.11298287 C 4.0211627,-0.22335306 4.6093881,-0.46221041 4.6734865,-0.41781148 4.9563661,-0.22186928 3.9450429,0.40581708 3.1017357,0.55770907 2.1821068,0.72334775 2.183939,0.72026826 3.366319,0.11298287 Z M -0.45456298,-1.5318954 c 0.28247478,-0.2136531 0.62564374,-0.3922469 0.76259781,-0.396875 0.13695388,-0.00463 0.0178911,0.1663925 -0.26458343,0.3800459 -0.28247478,0.2136532 -0.62564374,0.3922469 -0.7625977,0.396875 -0.13695396,0.00463 -0.0178914,-0.1663925 0.26458332,-0.3800459 z m 2.02864488,-0.029243 c 0.2511967,-0.2622619 0.5136726,-0.4198884 0.5832797,-0.3502813 0.069607,0.069607 -0.1359175,0.2841849 -0.456721,0.47684 -0.5572943,0.3346762 -0.5629325,0.3290379 -0.1265587,-0.1265587 z m -2.7056793,-1.1697962 c 0.21828123,-0.1410641 0.51593747,-0.2564803 0.66145829,-0.2564803 0.14552083,0 0.0859896,0.1154162 -0.13229166,0.2564803 -0.21828124,0.1410642 -0.51593743,0.2564804 -0.66145833,0.2564804 -0.1455208,0 -0.085989,-0.1154162 0.1322917,-0.2564804 z M 5.5622785,-3.0816165 C 5.4459071,-3.2744915 5.1252933,-3.515419 4.8498038,-3.6170111 4.5743141,-3.7186032 4.4101002,-3.8629104 4.4848836,-3.9376939 c 0.2372376,-0.2372375 1.5272686,0.4827162 1.5272686,0.8523537 0,0.4509398 -0.1791499,0.4524226 -0.4498737,0.00372 z m -6.46612682,-1.2218792 c 0.34354321,-0.2992581 0.76026194,-0.5422825 0.92604162,-0.5400542 0.31574817,0.00424 -0.12396057,0.3544178 -1.02149905,0.8134977 -0.41586385,0.2127092 -0.39542495,0.1541608 0.0954574,-0.2734435 z M 3.366319,-4.5830181 C 3.0242956,-4.8040506 3.0312793,-4.8400583 3.41685,-4.8435499 c 0.2460734,-0.00223 0.5209905,0.115011 0.6109274,0.2605318 0.2069523,0.334856 -0.1433057,0.334856 -0.6614584,0 z"
         id="path943" />
      <path
         style="fill:#f7d5a2;stroke-width:0.264583"
         d="M 0.7642651,3.3871377 C 0.50021386,3.219758 0.56492539,3.1231055 1.0208718,3.0038729 1.7719569,2.8074597 2.8863752,3.060785 2.6874173,3.3827056 2.5030966,3.6809426 1.2323794,3.683871 0.7642651,3.3871374 Z M 4.8059512,3.2137753 C 5.088426,3.0001219 5.4121111,2.8253148 5.5252514,2.8253148 c 0.1131403,0 0.137177,-0.1785937 0.053414,-0.3968749 -0.083762,-0.2182813 -0.020495,-0.396875 0.1405956,-0.396875 0.3910454,0 0.3741631,0.8712276 -0.024609,1.2699999 -0.174625,0.174625 -0.5615781,0.3137133 -0.8598958,0.3090855 -0.53379,-0.00828 -0.5342469,-0.014579 -0.028805,-0.396875 z M -1.5946182,3.163083 C -2.3002925,3.0755096 -2.454514,2.9407457 -2.454514,2.4116764 c 0,-0.4933839 0.1397208,-0.6437439 0.5953125,-0.6406433 0.3274218,0.00222 0.7739062,0.1290902 0.99218741,0.2819151 0.31068252,0.217518 0.26758632,0.2414969 -0.19843751,0.1104107 -0.847472,-0.2383825 -0.7361923,0.023752 0.21058781,0.4960683 C -0.08388723,3.0440408 -0.03681688,3.034804 0.23133318,2.4462789 0.42215226,2.0274763 0.66968715,1.8724278 1.0067602,1.9605745 1.4256271,2.0701107 1.3583959,2.1874322 0.57027182,2.7222678 0.0578813,3.0699854 -0.44535665,3.335427 -0.54803485,3.3121384 -0.65071302,3.2888497 -1.1216755,3.2217747 -1.5946182,3.163083 Z M 3.366319,3.113644 c 0,-0.1230821 0.2678906,-0.4153098 0.5953125,-0.6493949 C 4.5307147,2.0573919 4.4928283,2.0450187 3.1017357,2.1834169 2.1205158,2.2810373 1.775797,2.2453736 2.0434024,2.0739239 2.2616837,1.9340755 2.9165274,1.7780369 3.4986107,1.7271718 4.4642268,1.642792 4.5567521,1.690054 4.5547529,2.2666498 4.5533242,2.6784804 4.3459615,2.9750362 3.9594405,3.1180197 3.6332238,3.2386951 3.366319,3.236726 3.366319,3.113644 Z M 5.0861106,1.7669816 c 0.089937,-0.1455209 0.364854,-0.2627601 0.6109274,-0.2605318 0.3855706,0.00349 0.3925543,0.039499 0.050531,0.2605318 -0.5181526,0.3348558 -0.8684106,0.3348558 -0.6614584,0 z M -0.60243077,1.494389 C -0.82071201,1.3537897 -1.3267276,1.307534 -1.7269099,1.3915987 -2.262509,1.5041096 -2.454514,1.4408096 -2.454514,1.1517227 c 0,-0.30544398 0.2351999,-0.3611737 1.0583333,-0.25076837 0.89240805,0.11969697 1.05833325,0.0679214 1.05833325,-0.33024417 0,-0.41841259 0.0562732,-0.40731252 0.49405521,0.0974542 0.27173041,0.31330792 0.58783974,0.56965054 0.70246543,0.56965054 0.1146257,0 0.00558,-0.224124 -0.2423218,-0.49805324 C 0.15777857,0.23304443 0.25063083,-1.1066134 0.74916877,-1.1765079 1.1018157,-1.2259484 1.3316172,-1.2993973 1.8671492,-1.5338356 2.2337569,-1.6943241 2.269577,-1.7974013 2.0136971,-1.9555438 c -0.1862613,-0.115116 -0.5448067,-0.098974 -0.7967672,0.035871 -0.25196062,0.1348452 -0.66638938,0.165249 -0.92095293,0.067564 -0.4283786,-0.1643842 -0.42488046,-0.1938157 0.0469789,-0.3952536 0.51468811,-0.2197216 -0.12918307,-0.1557159 -2.06986577,0.2057604 -0.6556493,0.1221229 -0.789242,0.086034 -0.5624373,-0.1519378 0.1636022,-0.1716571 0.5803209,-0.3552145 0.9260416,-0.4079054 2.27028616,-0.3460116 5.6387165,-1.5808936 5.3936914,-1.9773522 -0.061393,-0.099335 0.2384886,-0.1806097 0.6664023,-0.1806097 0.7427841,0 0.7540408,0.016799 0.2485181,0.3708811 -0.5870622,0.4111945 -0.4693171,0.866055 0.2225651,0.8597896 0.3462126,-0.00314 0.3675436,-0.054676 0.09431,-0.2278757 -0.2684563,-0.1701721 -0.2208897,-0.2583967 0.1984375,-0.3680532 0.3659142,-0.095689 0.5515332,-0.018997 0.5515332,0.2278756 0,0.4241815 -0.010156,0.427501 -1.5002959,0.4903802 -1.1603489,0.048963 -1.9392872,0.4926979 -1.9392872,1.1047464 0,0.2004629 0.1488281,0.3667403 0.3307291,0.3695052 0.181901,0.00276 -0.2348177,0.3601712 -0.9260416,0.794236 C 0.70534504,-0.33920537 0.48193036,8.164786e-4 1.0132679,0.32920115 1.3233807,0.52086134 3.2668648,-0.00538191 3.8357337,-0.43504697 4.0211513,-0.57509224 4.2468661,-0.61566583 4.3373218,-0.52521008 4.4277773,-0.43475434 3.9784159,-0.12028357 3.3387404,0.17361373 2.1807519,0.70564898 2.179721,0.70734893 3.1017357,0.56451071 3.878705,0.44414276 3.9484534,0.47028915 3.5350136,0.72693232 3.2639935,0.89516816 2.6091498,0.97109669 2.0798054,0.89566187 L 1.1173608,0.75850796 1.9111108,1.1067996 2.7048607,1.4550915 1.9577457,1.6446163 C 1.5456289,1.7491606 0.93063562,1.7065669 0.58618333,1.549624 0.2251922,1.3851455 -0.07355459,1.3674007 -0.12190997,1.5075653 -0.17150259,1.6513161 -0.36712828,1.6459519 -0.60243077,1.494389 Z M 1.6465274,-2.7309349 c -0.72826131,-0.3129446 -0.98716032,-0.3129446 -0.79374992,0 0.0899369,0.1455209 0.42438532,0.256215 0.74321902,0.2459871 0.5588968,-0.017929 0.56071,-0.026756 0.050531,-0.2459871 z M 5.0705346,1.1201193 C 5.3530093,0.89381031 5.7002749,0.70864829 5.8422357,0.70864829 c 0.3361645,0 0.1860645,0.12221104 -0.6238335,0.50792381 C 4.5947085,1.5136052 4.5862661,1.5080984 5.0705346,1.1201193 Z M 4.5935554,-0.21739332 c 0.083762,-0.21828124 0.288385,-0.40570518 0.4547169,-0.41649754 0.1663319,-0.0107924 -0.1738284,-0.2300716 -0.7559117,-0.48728734 l -1.0583332,-0.467665 0.8598957,-0.4455485 c 0.4729427,-0.245052 0.8598958,-0.3591476 0.8598958,-0.253546 0,0.1056015 0.142875,0.049128 0.3175,-0.1254972 0.3672006,-0.3672006 0.7408333,-0.4164373 0.7408333,-0.097626 0,0.1209307 -0.3123147,0.3870197 -0.6940325,0.5913089 l -0.6940322,0.371435 0.6264971,0.147896 C 6.4131624,-1.1259738 6.1227724,0.16449936 4.895977,0.17543009 4.5997459,0.17807593 4.4943406,0.04115617 4.5935554,-0.21739332 Z M -2.454514,-0.6142683 c 0,-0.5040537 0.6372159,-0.6991048 1.79012404,-0.5479552 0.18420367,0.024149 0.30326616,-0.0689 0.26458331,-0.2067767 -0.0386828,-0.1378764 0.0189644,-0.262591 0.12810503,-0.277143 0.71870566,-0.095827 0.7763028,0.051166 0.19843749,0.5064315 -0.44838086,0.35325231 -0.91715122,0.4802068 -1.45520827,0.39410556 -0.4365625,-0.0698598 -0.6449218,-0.0589658 -0.4630208,0.0242086 0.459128,0.20993708 0.4148061,0.6362959 -0.066146,0.6362959 -0.2204861,0 -0.396875,-0.2351852 -0.3968748,-0.52916666 z m 0,-2.6349052 c 0,-0.8487415 1.50587654,-1.5063183 3.5718748,-1.5597439 1.0186458,-0.026342 2.030677,0.071967 2.2489582,0.2184631 0.2823792,0.1895148 -0.1008266,0.2480912 -1.3283019,0.2030425 -1.39059913,-0.051036 -1.85651663,0.039832 -2.4024026,0.4685394 -0.37247423,0.2925197 -0.6382042,0.6497072 -0.59051107,0.7937499 0.0476931,0.1440428 -0.27020993,0.2868686 -0.70645133,0.3173906 -0.6193273,0.043332 -0.7931661,-0.053419 -0.7931661,-0.4414416 z m 2.00073588,-1.2733864 c -0.0886885,-0.088688 -0.36677641,0.053929 -0.61797308,0.3169272 -0.4366212,0.4571348 -0.4295246,0.4642314 0.16125189,0.1612519 0.33988519,-0.17431 0.54540973,-0.3894906 0.45672119,-0.4781791 z"
         id="path941" />
      <path
         style="fill:#f5c897;stroke-width:0.264583"
         d="m -2.454514,3.3544815 c 0,-0.1455208 0.3869531,-0.2627601 0.8598958,-0.2605318 0.65252143,0.00307 0.76418453,0.065905 0.4630208,0.2605318 -0.5200369,0.3360737 -1.3229166,0.3360737 -1.3229166,0 z M 3.763194,3.2126344 C 4.8603295,2.7102645 5.470769,2.7109323 4.8059512,3.2137721 4.5234763,3.4274284 3.9947044,3.5963519 3.6309023,3.5891611 2.9856768,3.5764081 2.9889232,3.5671663 3.763194,3.2126344 Z m 1.8520832,0.1418471 c 0.089937,-0.1455208 0.216026,-0.2645833 0.2801983,-0.2645833 0.064172,0 0.1166767,0.1190625 0.1166767,0.2645833 0,0.1455208 -0.1260893,0.2645833 -0.2801982,0.2645833 -0.154109,0 -0.2066137,-0.1190625 -0.1166768,-0.2645833 z M 0.57261815,2.6846086 C 0.85509285,2.4709552 1.2122803,2.28778 1.3663681,2.277552 1.5204556,2.267324 1.4084025,2.1566297 1.1173608,2.0315649 0.63155699,1.8228079 0.64239776,1.8023183 1.2496525,1.7815262 2.3363689,1.7443182 2.7435256,1.3380883 1.9050312,1.1276395 0.82153496,0.8556992 1.250307,0.70484967 2.3815597,0.95998869 3.0735242,1.1160521 3.3675237,1.092038 3.3703706,0.87922225 3.3727518,0.70216362 3.4723984,0.73112253 3.6102886,0.94893731 3.8102356,1.2647786 3.9942078,1.2512621 4.8183494,0.86018151 5.3530561,0.60644637 5.8395648,0.44786624 5.8994794,0.50778114 6.0964008,0.70470256 3.7195909,1.7668895 3.0727556,1.7710331 2.7248926,1.7732615 2.2616837,1.8905007 2.0434024,2.0315649 1.7566049,2.2169076 2.0134529,2.2938207 2.969444,2.3088678 3.9426056,2.3241845 4.1492023,2.3876885 3.7508771,2.5490639 3.4530613,2.6697195 2.8331976,2.7246361 2.3734024,2.6711009 1.9136071,2.6175656 1.4656387,2.6898942 1.3779169,2.8318313 1.2901951,2.973768 0.95755883,3.0861114 0.63872508,3.0814836 0.07206352,3.0732577 0.07057693,3.0643333 0.57261815,2.6846086 Z M 5.2184022,2.0315649 C 5.4366835,1.8905007 5.7343397,1.7750847 5.8798605,1.7750847 c 0.1455209,0 0.08599,0.115416 -0.1322916,0.2564802 -0.2182813,0.1410642 -0.5159375,0.2564802 -0.6614583,0.2564802 -0.1455208,0 -0.08599,-0.115416 0.1322916,-0.2564802 z M -1.7930557,1.7902374 -2.5868057,1.611518 -1.8537724,1.4182631 c 0.4108172,-0.1083069 0.96325011,-0.070047 1.25677072,0.087041 0.98909569,0.5293479 0.45478991,0.6566344 -1.19605402,0.2849333 z M 0.12971527,0.60924672 C -0.0704764,0.40905505 -0.70405894,-0.0132874 -1.278246,-0.32929222 -2.1685368,-0.81926534 -2.2131271,-0.88129214 -1.5811446,-0.75063481 -1.0837889,-0.64781085 -0.60520696,-0.76188489 -0.12593632,-1.097499 0.2668355,-1.3725408 0.85340534,-1.7362736 1.1775522,-1.9057939 1.6694753,-2.163057 1.7419825,-2.1490529 1.6161303,-1.8210873 1.5332016,-1.6049786 1.2500615,-1.3598318 0.98692996,-1.2763171 0.38680895,-1.0858463 0.06372206,0.10380818 0.47690645,0.60166482 0.87391743,1.0800338 0.60634538,1.0858769 0.12971527,0.60924778 Z M -2.1899307,0.44406497 c 0.3267813,-0.2111822 0.3306754,-0.25719588 0.022048,-0.26053175 -0.2061545,-0.002222 -0.3031508,-0.0757272 -0.2155474,-0.16333046 0.087603,-0.08760327 0.4315955,0.03145922 0.7644269,0.26458332 l 0.6051482,0.42386221 -0.7864756,-0.004052 c -0.6050553,-0.003117 -0.6949264,-0.063215 -0.3896001,-0.26053132 z m 6.279444,-0.0328316 C 4.2689892,0.23041236 4.4824833,0.14911834 4.5639451,0.2305801 4.6454071,0.31204187 4.4985634,0.45998654 4.2376257,0.55934578 3.8605421,0.70293118 3.830151,0.67254008 4.0895133,0.41123337 Z M 0.89687479,0.26767601 C 0.53793233,-0.09126619 0.75011413,-0.36731867 1.9772566,-1.1379218 c 0.6912239,-0.4340648 1.1079426,-0.7914709 0.9260416,-0.794236 -0.4841986,-0.00736 -0.4034586,-0.676945 0.1322917,-1.0971094 0.4196439,-0.3291074 0.4290022,-0.319749 0.099895,0.099895 -0.327139,0.4171341 -0.2898722,0.4630208 0.3760417,0.4630208 0.4065421,0 0.9597151,-0.199593 1.2292734,-0.4435399 0.3516643,-0.3182517 0.5710163,-0.3626295 0.7765415,-0.1571044 0.2055251,0.2055251 -0.076507,0.4510147 -0.998439,0.8690717 l -1.2848748,0.5826363 1.0583332,0.4808873 c 0.9435108,0.4287139 0.9841769,0.48301619 0.3748265,0.50050964 C 4.2912581,-0.6230985 3.902082,-0.53267028 3.802351,-0.4329393 3.5852305,-0.21581879 1.7660053,0.43443705 1.3598956,0.44008141 1.2022479,0.44227745 0.9938885,0.36468998 0.89687479,0.26767601 Z m 1.59076351,-0.6705126 c 0.4832744,-0.17475438 0.8786807,-0.41287936 0.8786807,-0.52916664 0,-0.31033347 -0.4304879,-0.25976367 -1.4637064,0.17194238 -1.53841705,0.64279194 -1.04235614,0.94569301 0.5850257,0.35722426 z M -2.057639,-1.3219099 c 1.18441996,-0.2620811 1.35323525,-0.3950234 0.7937499,-0.6250778 -0.4824635,-0.198384 -0.4707878,-0.2195481 0.1322917,-0.2397969 0.36380206,-0.012215 0.95911452,-0.081435 1.32291659,-0.1538218 0.36380206,-0.072387 0.48286455,-0.052982 0.26458332,0.043123 -0.21828124,0.096104 -0.6808222,0.3950809 -1.02786881,0.6643921 -0.34704661,0.2693111 -0.9423591,0.4758451 -1.3229166,0.4589647 -0.5328774,-0.023637 -0.5702885,-0.057607 -0.1627561,-0.1477833 z m 7.3206444,-0.011073 C 4.6773725,-1.4445212 4.6706764,-1.4690555 5.1307138,-1.817703 c 0.6523108,-0.4943663 0.7620034,-0.4746844 0.8086904,0.1451014 0.021923,0.2910417 0.017494,0.5129525 -0.00984,0.4931352 -0.027336,-0.019817 -0.3272872,-0.0889 -0.6665573,-0.1535168 z M -2.454514,-2.4411652 c 0,-0.2196969 1.0853497,-0.615531 1.2463345,-0.4545462 0.04335,0.04335 -0.219341,0.2146689 -0.583758,0.3807084 -0.3644171,0.1660396 -0.6625765,0.1992666 -0.6625765,0.073838 z m 3.30729148,-0.2897697 c -0.1934104,-0.3129446 0.0654886,-0.3129446 0.79374992,0 0.5101791,0.2192315 0.5083659,0.228058 -0.050531,0.2459871 -0.3188337,0.010228 -0.65328212,-0.1004662 -0.74321892,-0.2459871 z m -1.7769649,-0.4077882 c -0.19532298,-0.1975527 0.89255603,-1.1859981 1.28953073,-1.171666 0.12256796,0.00443 0.0119872,0.1308052 -0.24573477,0.2808447 -0.2577221,0.1500395 -0.40939189,0.3685765 -0.33704399,0.4856379 0.17676666,0.2860145 1.46083895,0.027407 2.17939485,-0.4389225 0.3190084,-0.2070304 0.8547896,-0.3286528 1.190625,-0.2702718 0.5796385,0.1007633 0.5837695,0.1161981 0.081443,0.304304 -0.2910417,0.1089862 -0.7271372,0.303049 -0.9691013,0.4312506 -0.6233191,0.3302576 -2.9624143,0.6081102 -3.18911352,0.3788231 z M -2.454514,-4.3091257 c 0,-0.4319532 0.1701065,-0.5376742 0.8598958,-0.5344242 0.88132898,0.00415 0.83207044,0.1044218 -0.396875,0.8078677 -0.3761169,0.2152885 -0.4630208,0.1639662 -0.4630208,-0.2734435 z m 7.2483235,0.035539 c 0.089818,-0.1453295 0.013737,-0.3140921 -0.1690711,-0.375028 -0.1828078,-0.060936 0.057883,-0.1107926 0.5348676,-0.1107926 0.9735518,0 1.0325462,0.5214897 0.074851,0.66166 -0.352812,0.051638 -0.5360466,-0.021481 -0.4406475,-0.1758394 z M 0.91892331,-4.4936632 c 0.18190099,-0.073399 0.47955729,-0.073399 0.66145829,0 0.181901,0.073399 0.033073,0.1334521 -0.3307291,0.1334521 -0.3638021,0 -0.51263022,-0.060053 -0.33072919,-0.1334521 z"
         id="path939" />
      <path
         style="fill:#d8ad7f;stroke-width:0.264583"
         d="m -1.1812068,3.4383242 c 0.1909961,-0.07643 0.41919922,-0.067031 0.50711806,0.020889 0.0879188,0.087919 -0.0683507,0.1504529 -0.34726556,0.1389644 -0.3082245,-0.012696 -0.3709192,-0.075391 -0.1598525,-0.1598534 z m 4.8121091,-2.422623 c 0,-0.31148335 1.231892,-0.83831637 1.9306785,-0.82567696 0.4536213,0.008205 0.3523835,0.12554003 -0.4565686,0.52916664 C 3.9678923,1.2865565 3.6309023,1.3543403 3.6309023,1.0157012 Z M 0.98506914,-0.23089421 c 0,-0.17173786 1.71141646,-0.91254069 2.10816836,-0.91254069 0.5874303,0 0.2284513,0.43900163 -0.6055992,0.74059831 C 1.542411,-0.06103807 0.98506914,0.00274 0.98506914,-0.23089421 Z M -2.3222223,-1.6726016 c 0.089937,-0.1455208 0.4611777,-0.2645833 0.8249797,-0.2645833 0.3735977,0 0.59029527,0.1151443 0.49793685,0.2645833 -0.0899367,0.1455209 -0.46117775,0.2645833 -0.82497975,0.2645833 -0.3735977,0 -0.5902953,-0.1151442 -0.4979368,-0.2645833 z m 5.3017528,-1.0746536 c 0.2402152,-0.3886763 1.4342733,-0.8153641 1.7447555,-0.6234755 0.1574025,0.09728 0.136475,0.3008286 -0.054599,0.5310594 -0.3620235,0.4362116 -1.9565169,0.523397 -1.6901565,0.092416 z m -3.19881166,-0.7996377 c -0.20533388,-0.3322372 0.80532188,-0.7715419 1.77499436,-0.7715419 0.8122882,0 0.8353869,0.023779 0.3481231,0.3583743 -0.6536272,0.4488343 -1.9456768,0.7002726 -2.12311746,0.4131676 z"
         id="path937" />
    </g>
  </g>
</svg>
