<?xml version="1.0" encoding="UTF-8" standalone="no"?>
<svg
   xmlns:dc="http://purl.org/dc/elements/1.1/"
   xmlns:cc="http://creativecommons.org/ns#"
   xmlns:rdf="http://www.w3.org/1999/02/22-rdf-syntax-ns#"
   xmlns:svg="http://www.w3.org/2000/svg"
   xmlns="http://www.w3.org/2000/svg"
   xmlns:sodipodi="http://sodipodi.sourceforge.net/DTD/sodipodi-0.dtd"
   xmlns:inkscape="http://www.inkscape.org/namespaces/inkscape"
   width="100"
   height="60"
   viewBox="0 0 26.458333 15.875"
   version="1.1"
   id="svg8"
   sodipodi:docname="Sand1.svg"
   inkscape:version="1.0.2-2 (e86c870879, 2021-01-15)">
  <defs
     id="defs2">
    <inkscape:perspective
       sodipodi:type="inkscape:persp3d"
       inkscape:vp_x="0 : 11.404167 : 1"
       inkscape:vp_y="0 : 1000 : 0"
       inkscape:vp_z="9.9999999 : 11.404167 : 1"
       inkscape:persp3d-origin="5.0000001 : 9.7375002 : 1"
       id="perspective1944" />
    <mask
       maskUnits="userSpaceOnUse"
       id="mask4667">
      <path
         style="fill:#8f8980;fill-opacity:1;stroke:none;stroke-width:0.264583px;stroke-linecap:butt;stroke-linejoin:miter;stroke-opacity:1"
         d="m 0.47624997,0.59531247 c -0.11073061,0.11898408 -0.12732554,0.31444944 0.047625,0.35718748 0.1366134,0.006177 0.2513938,-0.0269326 0.33337498,-0.1190625 0.0306756,-0.10038779 0.0524371,-0.2013117 -0.047625,-0.30956248 -0.047625,-0.047625 -0.12865574,-0.0973955 -0.33337498,0.0714375 z"
         id="path4669"
         sodipodi:nodetypes="ccccc" />
    </mask>
  </defs>
  <sodipodi:namedview
     id="base"
     pagecolor="#ffffff"
     bordercolor="#666666"
     borderopacity="1.0"
     inkscape:pageopacity="0.0"
     inkscape:pageshadow="2"
     inkscape:zoom="6.68"
     inkscape:cx="50"
     inkscape:cy="2.5349484"
     inkscape:document-units="mm"
     inkscape:current-layer="layer1"
     inkscape:document-rotation="0"
     showgrid="true"
     showguides="true"
     inkscape:guide-bbox="true"
     inkscape:window-width="1920"
     inkscape:window-height="1017"
     inkscape:window-x="-8"
     inkscape:window-y="-8"
     inkscape:window-maximized="1"
     units="px">
    <inkscape:grid
       type="xygrid"
       id="grid1942"
       units="px"
       dotted="false"
       spacingx="0.26458333"
       spacingy="0.26458333"
       empspacing="10"
       visible="true" />
  </sodipodi:namedview>
  <metadata
     id="metadata5">
    <rdf:RDF>
      <cc:Work
         rdf:about="">
        <dc:format>image/svg+xml</dc:format>
        <dc:type
           rdf:resource="http://purl.org/dc/dcmitype/StillImage" />
        <dc:title />
      </cc:Work>
    </rdf:RDF>
  </metadata>
  <g
     inkscape:label="Layer 1"
     inkscape:groupmode="layer"
     id="layer1">
    <path
       style="fill:#f3c087;fill-opacity:1;fill-rule:evenodd;stroke:none;stroke-width:0.229136;stroke-linecap:butt;stroke-linejoin:bevel;stroke-miterlimit:1;stroke-dasharray:none;stroke-opacity:1;paint-order:stroke markers fill"
       d="M 0,7.9374993 13.229166,2.9533249e-7 26.458333,7.9374993 13.229166,15.874999 Z"
       id="path1960" />
    <g
       id="g911"
       transform="matrix(1.5995593,0.9764151,-1.5995593,0.9764151,10.672115,5.3232812)">
      <path
         style="fill:#fae0ae;stroke-width:0.264583"
         d="M 1.2603796,4.6123844 C 1.3331401,4.5339415 1.858793,4.3424207 2.4284973,4.1867828 3.0164974,4.0261463 3.3560901,4.0120371 3.213979,4.1541483 2.9549914,4.4131359 1.0253696,4.8657478 1.2603796,4.6123844 Z M 4.4353795,3.0914978 C 3.8413071,2.5762615 3.8396717,2.5623312 4.3732561,2.5623312 4.674662,2.5623312 5.139364,2.486782 5.4059274,2.3944443 5.8552852,2.2387865 5.853917,2.2551351 5.3871447,2.6188895 5.1102513,2.8346718 4.9684498,3.1483459 5.0720304,3.3159428 5.3513259,3.7678516 5.1220086,3.6870082 4.4353795,3.0914978 Z M 2.3967666,2.2113902 C 2.5286373,1.8677412 2.4056127,1.7617676 1.8473882,1.7381544 1.2121273,1.7112825 1.2362819,1.6846252 2.0541296,1.5099917 2.5634525,1.4012369 3.315344,1.1768041 3.7249997,1.0112519 4.7870043,0.58206894 5.2656366,0.65753075 4.2589812,1.09544 3.7981602,1.2959036 3.1524118,1.7286323 2.8239848,2.0570593 2.4037003,2.4773438 2.2771707,2.5230522 2.3967666,2.2113902 Z M -1.3854535,0.97483124 -1.9955878,0.4456646 h 0.9758345 c 0.893846,0 0.95204017,0.04446 0.69263303,0.52916664 -0.15576075,0.29104166 -0.32032586,0.52916666 -0.36570021,0.52916666 -0.0453744,0 -0.35705922,-0.238125 -0.69263302,-0.52916666 z M 0.99579633,-0.10893458 C 1.442396,-0.47544148 1.5492898,-0.69572958 1.3248769,-0.78710793 1.1420694,-0.86154501 1.059799,-1.0313416 1.1420543,-1.1644334 1.2243098,-1.2975253 1.0762233,-1.4158183 0.81297375,-1.4273068 0.5497242,-1.4387953 0.47656558,-1.5060482 0.65039894,-1.5767577 c 0.17383362,-0.070709 0.56839746,0.00648 0.87680846,0.1715403 0.4308443,0.2305809 0.6640936,0.2192326 1.0068557,-0.048987 0.4056462,-0.3174273 0.4113112,-0.3048507 0.062457,0.138662 -0.3618632,0.46005198 -0.3242989,0.47958723 0.6614583,0.3439896 C 4.1607846,-1.0957403 4.2130226,-1.0776407 3.641629,-0.83862508 3.2778274,-0.68644509 2.4709706,-0.33522475 1.8486142,-0.05813511 0.40289299,0.58553895 0.1667028,0.57146973 0.99579633,-0.10893458 Z M -0.88853556,-1.3808888 c 0.20054447,-0.1270228 0.28281464,-0.3633246 0.18282257,-0.5251152 -0.19457539,-0.3148296 0.17436271,-0.4102002 0.46449165,-0.1200712 0.22103513,0.2210351 -0.31772879,0.8855647 -0.71360822,0.8801884 -0.17249144,-0.00234 -0.14452764,-0.1014698 0.066294,-0.235002 z M 2.4465162,-2.1929063 c 0.070693,-0.1143845 0.3686783,-0.2707709 0.6621885,-0.3475256 0.2935102,-0.076755 0.475815,-0.045967 0.4051215,0.068418 -0.070693,0.1143845 -0.3686783,0.270771 -0.6621885,0.3475256 -0.2935102,0.076755 -0.475815,0.045967 -0.4051215,-0.068418 z m 2.6503216,-0.3213363 -1.0583333,-0.503314 0.9260416,0.1719853 c 0.5093229,0.094592 1.0371666,0.2765199 1.172986,0.4042843 0.4849045,0.4561463 4.498e-4,0.4221848 -1.0406943,-0.072956 z m -7.2760413,0.049491 c 0,-0.1455208 0.1856205,-0.2645833 0.4124899,-0.2645833 0.2268694,0 0.3389052,0.1190625 0.2489684,0.2645833 -0.089937,0.1455208 -0.2755573,0.2645833 -0.4124899,0.2645833 -0.1369326,0 -0.2489684,-0.1190625 -0.2489684,-0.2645833 z m 1.32291659,-0.5291666 c 0.51815267,-0.334856 0.86841066,-0.334856 0.6614583,0 -0.0899368,0.1455208 -0.36485413,0.2627601 -0.61092738,0.2605318 -0.38557061,-0.00349 -0.39255441,-0.039499 -0.0505309,-0.2605318 z M 0.90608485,-3.4569394 C 0.83956728,-3.56608 1.2790248,-3.672977 1.8826574,-3.6944883 c 0.8915841,-0.031773 0.9734025,5.12e-4 0.4360555,0.1720638 -0.8920342,0.2847883 -1.2683381,0.3022326 -1.41262805,0.065485 z"
         id="path919" />
      <path
         style="fill:#f7d5a2;stroke-width:0.264583"
         d="M -0.19482861,4.4144144 C -0.48587026,4.2893496 -1.0470715,4.1786553 -1.4419426,4.1684273 c -0.6772595,-0.017542 -0.71657,-0.087214 -0.6936442,-1.2293808 0.023399,-1.1657473 0.050104,-1.2049627 0.7179474,-1.0542749 0.66219229,0.1494129 0.67035646,0.13833 0.1800536,-0.2444236 -0.2824747,-0.2205135 -0.6098966,-0.4009334 -0.7276041,-0.4009334 -0.1177075,0 -0.2140136,-0.238125 -0.2140136,-0.52916668 0,-0.33553663 0.1694262,-0.52152336 0.4630208,-0.50827858 0.2941965,0.0132715 0.338465,0.0708692 0.1214117,0.15796709 -0.2433644,0.0976556 -0.1695112,0.28633842 0.2567967,0.65607327 0.57167686,0.4958127 0.6138411,0.4978854 0.9439712,0.046406 C -0.10013239,0.66052345 -0.11875768,0.55895389 -0.51850812,0.38345048 -0.82245961,0.25000603 -0.66132321,0.21185655 -0.06253695,0.27549837 0.456836,0.33069997 1.3282688,0.16843288 1.9218379,-0.094006 2.5039212,-0.35136672 3.2778274,-0.68795215 3.6416295,-0.84197378 4.2580769,-1.1029569 4.2437066,-1.1132757 3.4304529,-0.99361441 2.9505035,-0.92299527 2.3825145,-0.96332068 2.1682552,-1.0832261 1.7932502,-1.2930897 2.78495,-1.4555947 4.3692336,-1.4438898 6.1289638,-1.4308887 6.17257,-1.4019863 6.2242574,-0.21437341 6.2689956,0.81356876 6.2105732,0.92489643 5.5527566,1.0652021 4.8060469,1.2244677 2.9798386,2.2543384 3.148769,2.4209055 3.201561,2.4729586 3.840067,2.3617987 4.5676711,2.1738834 5.2952753,1.9859679 5.9798846,1.8844584 6.0890252,1.9483066 6.5012804,2.1894795 6.2629443,2.7531465 5.6260044,3.0433558 4.8742907,3.3858597 4.7212591,3.0096347 5.4275669,2.5555009 5.8599871,2.277468 5.858557,2.2678563 5.4059266,2.4100621 5.1393632,2.4938102 4.6631132,2.5717307 4.3475934,2.5832192 4.0320733,2.5947074 3.9227485,2.6641608 4.1046495,2.7375597 4.7423744,2.9948873 4.4278227,3.3413406 3.690374,3.1938511 2.8351576,3.0228077 0.8414453,3.4928344 0.57184389,3.9290588 0.39528144,4.2147429 1.7851158,4.0734001 2.7343762,3.7091347 c 0.207948,-0.079797 0.3780867,-0.037978 0.3780867,0.09293 0,0.1309085 -0.5374899,0.3817715 -1.194422,0.5574742 -1.35807389,0.3632295 -1.39317113,0.364141 -2.11286951,0.054875 z M 1.9911426,2.9780958 C 2.0633956,2.9058428 1.8185809,2.7082467 1.4471099,2.538993 0.68518953,2.1918388 -0.92284731,2.4017997 -1.3385733,2.9027189 -1.5494118,3.1567636 -1.2249894,3.2158453 0.12516261,3.1692842 1.0791988,3.1363836 1.9188897,3.0503487 1.9911426,2.9780958 Z M 4.3737538,1.0657447 C 4.8522522,0.94564928 4.9245797,0.84764895 4.6589579,0.67930649 4.4065838,0.51936005 4.4954566,0.45014214 4.9645461,0.44130136 5.6033569,0.42926282 5.6084197,0.41553623 5.1124138,0.04037508 4.4212367,-0.48240505 3.4730092,-0.44007251 2.1202754,0.17395605 0.89011116,0.7323483 0.86718423,0.76930556 1.2764936,1.5341072 1.471918,1.8992607 1.7331458,2.0152853 2.1363893,1.9160306 2.4549487,1.83762 2.5660179,1.8420674 2.3832101,1.9259128 2.2004026,2.0097589 2.1133394,2.1794984 2.1897365,2.3031115 2.2661339,2.4267248 2.6445491,2.2350887 3.0306598,1.8772532 3.4167705,1.5194181 4.0211626,1.1542388 4.3737538,1.0657442 Z M 2.5832962,1.2394146 C 2.8015775,1.0983504 3.0992337,0.98293437 3.2447545,0.98293437 c 0.1455209,0 0.08599,0.11541603 -0.1322916,0.25648023 -0.2182813,0.1410641 -0.5159375,0.2564801 -0.6614583,0.2564801 -0.1455208,0 -0.08599,-0.115416 0.1322916,-0.2564801 z M 3.2447545,0.71024792 2.4510046,0.50827295 3.1629938,0.47696878 C 3.554588,0.45975155 3.9485676,0.56472709 4.0385045,0.71024792 4.1284414,0.85576874 4.1652336,0.96074429 4.1202652,0.94352706 4.0752969,0.92630983 3.681317,0.82133428 3.2447545,0.71024792 Z M 0.73121301,1.6519044 c 0,-0.064172 -0.1190625,-0.1902613 -0.26458332,-0.2801982 C 0.32110886,1.2817693 0.20204637,1.334274 0.20204637,1.488383 c 0,0.1541089 0.11906249,0.2801982 0.26458332,0.2801982 0.14552082,0 0.26458332,-0.052504 0.26458332,-0.1166768 z M 2.5832962,4.491293 C 2.8015775,4.4110325 3.1720915,4.178731 3.4066605,3.975068 3.6412297,3.7714047 4.1770109,3.5590215 4.5972854,3.5031048 5.0175601,3.4471883 5.5697804,3.3189635 5.8244419,3.2181607 6.1676184,3.082321 6.2874627,3.1654782 6.2874627,3.5394403 c 0,0.6608516 -0.500453,1.1416447 -1.1773958,1.1311429 C 4.576277,4.6623017 4.57582,4.6560046 5.0812617,4.2737082 5.7444787,3.7720759 5.2084456,3.7762386 3.9976944,4.2821219 3.4752738,4.5004032 2.85402,4.6695973 2.6171301,4.6581088 2.2571235,4.6406503 2.2515696,4.6132667 2.5832962,4.491293 Z M 0.58014493,-0.05312099 c 0.11948503,-0.1933313 -0.10755762,-0.24281738 -0.69567509,-0.151629 -0.806894,0.12511008 -0.82369896,0.11386132 -0.22177725,-0.14845003 0.35819911,-0.15609966 0.9535116,-0.24773888 1.32291648,-0.2036429 L 1.6572546,-0.47666809 1.030013,-0.12139645 C 0.68366077,0.07477858 0.48220227,0.10535357 0.58014493,-0.05312099 Z M -2.1792035,-0.93657845 c 0,-0.19460475 0.3571875,-0.48865015 0.79375,-0.65343405 1.02330272,-0.3862537 1.02330272,-0.066099 0,0.5383813 -0.6052793,0.35754706 -0.79375,0.38486556 -0.79375,0.11505275 z m 2.15456475,-0.44081875 c -0.55453195,-0.3513688 0.04847476,-0.599194 1.74461545,-0.7170065 0.8126497,-0.056446 1.5477034,-0.1804455 1.6334531,-0.2755544 0.085749,-0.095109 -0.1121469,-0.1069182 -0.4397695,-0.026243 -0.3595251,0.088531 -0.5312487,0.042434 -0.4331602,-0.1162759 0.089384,-0.1446272 0.3795156,-0.2062123 0.6447358,-0.1368556 0.2658623,0.069524 0.5455147,-0.038844 0.6232937,-0.2415334 0.092202,-0.2402751 -0.047239,-0.3676363 -0.4025058,-0.3676363 -0.8888155,0 -4.04207254,0.8951222 -4.419647,1.2546152 -0.3647489,0.3472815 -1.1055803,0.4569177 -1.1055803,0.1636156 0,-0.093098 0.2083594,-0.3274364 0.4630208,-0.520752 0.4344162,-0.3297689 0.4303299,-0.3531515 -0.066146,-0.3784938 l -0.5291667,-0.027011 0.5291667,-0.2273907 c 0.2910416,-0.1250649 0.7077604,-0.2339359 0.92604159,-0.2419356 0.35277775,-0.012929 0.35277775,0.015984 0,0.2602101 -0.32679819,0.2262411 -0.30343929,0.2588705 0.13229166,0.1847944 0.32952366,-0.05602 0.49983541,-0.2610294 0.45142232,-0.5433897 -0.0855311,-0.4988442 0.84852897,-0.6541095 1.1360776,-0.1888459 0.0899369,0.1455208 0.36485403,0.256215 0.61092733,0.245987 0.3767132,-0.015658 0.3678447,-0.049805 -0.056129,-0.2161113 -0.2819739,-0.1106062 0.5038584,-0.1978219 1.7859374,-0.1982126 1.2592097,-3.836e-4 2.2894722,0.033533 2.2894722,0.07537 0,0.041837 -0.3274218,0.257046 -0.7276041,0.4782424 -0.7254745,0.4009981 -0.7243127,0.4016983 0.396875,0.2392175 0.6748621,-0.0978 1.1244791,-0.058315 1.1244791,0.098751 0,0.1439399 -0.3274219,0.209367 -0.7276041,0.1453935 -0.5922677,-0.09468 -0.6537843,-0.059269 -0.3307292,0.1903824 0.3228822,0.2495174 0.2702915,0.2793802 -0.2820794,0.1601751 -0.4082888,-0.088111 -1.041147,0.048365 -1.5874999,0.3423459 -0.6377231,0.3431449 -1.0853136,0.4220882 -1.5015603,0.2648361 -0.3261583,-0.1232178 -0.7937029,-0.1470212 -1.03898858,-0.052896 -0.40068754,0.1537583 -0.39420417,0.1914164 0.0638485,0.3708564 0.49401748,0.1935292 0.49341798,0.2001713 -0.019345,0.2142652 -0.29104165,0.008 -0.69070619,-0.087812 -0.88814317,-0.2129141 z"
         id="path917" />
      <path
         style="fill:#f5c897;stroke-width:0.264583"
         d="m -2.1792035,4.4144144 c 0,-0.1455208 0.3869531,-0.2627601 0.8598958,-0.2605318 0.65252143,0.00307 0.76418453,0.065905 0.46302079,0.2605318 -0.52003689,0.3360737 -1.32291659,0.3360737 -1.32291659,0 z M 4.0385045,4.2725673 C 5.13564,3.7701974 5.7460795,3.7708652 5.0812617,4.273705 4.7987868,4.4873613 4.2700149,4.6562848 3.9062128,4.649094 3.2609873,4.636341 3.2642337,4.6270992 4.0385045,4.2725673 Z m 1.8520832,0.1418471 c 0.089937,-0.1455208 0.216026,-0.2645833 0.2801983,-0.2645833 0.064172,0 0.1166767,0.1190625 0.1166767,0.2645833 0,0.1455208 -0.1260893,0.2645833 -0.2801982,0.2645833 -0.154109,0 -0.2066137,-0.1190625 -0.1166768,-0.2645833 z M 0.82176215,3.7636749 C 1.4531016,3.2853014 3.1871672,2.9955734 3.9568551,3.2398626 4.5423952,3.4257059 4.5441854,3.436443 4.0218424,3.62967 3.7264163,3.7389554 3.1085081,3.784569 2.6487129,3.7310338 2.1889176,3.6774985 1.7409492,3.7498271 1.6532274,3.8917642 1.5655056,4.0337009 1.2328693,4.1460443 0.91403558,4.1414165 0.3613631,4.1333944 0.35706137,4.1157837 0.82176215,3.7636749 Z M -1.3912643,2.9662075 C -0.91661878,2.3942948 0.64810448,2.1735823 1.4790646,2.5613326 2.142466,2.8708951 2.1535388,2.9037778 1.6572546,3.0905035 1.366213,3.2000074 0.93493608,3.1894465 0.69886161,3.0670349 0.4591528,2.9427393 -0.12418656,2.9574157 -0.6223081,3.1002751 -1.7677827,3.4287928 -1.7742413,3.4276668 -1.3912643,2.9662075 Z m 6.884977,0.1252903 C 5.711994,2.9504336 6.0096502,2.8350176 6.155171,2.8350176 c 0.1455209,0 0.08599,0.115416 -0.1322916,0.2564802 C 5.8045981,3.232562 5.5069419,3.347978 5.3614211,3.347978 c -0.1455208,0 -0.08599,-0.115416 0.1322916,-0.2564802 z M 3.2193027,2.33893 C 3.4670913,1.9379994 5.3458006,0.97483124 5.8800473,0.97483124 c 0.252305,0 0.3994628,0.22664606 0.3865273,0.59531246 C 6.2550864,1.8975656 6.185633,2.0166281 6.1122342,1.834727 6.0388356,1.652826 5.7803446,1.5058211 5.5378101,1.5080494 5.1970606,1.5111795 5.1766395,1.5626936 5.4479591,1.7347047 5.6913268,1.8889952 5.5289343,2.0026385 4.9187925,2.1050185 4.4346341,2.1862588 3.8106136,2.3426222 3.5320801,2.4524926 3.1742333,2.5936491 3.0824689,2.5603314 3.2193027,2.33893 Z M 1.7895463,2.0331645 C 1.5510795,1.8790553 1.5184455,1.7750672 1.7077855,1.7726328 c 0.173313,-0.00223 0.3886989,0.1150109 0.4786358,0.2605317 0.2030161,0.3284868 0.1114221,0.3284868 -0.396875,0 z m -3.505729,-0.1823841 c -0.2546614,-0.06655 -0.4630208,-0.2313321 -0.4630208,-0.3661828 0,-0.3552217 0.3536984,-0.3014025 0.9416177,0.1432774 0.5146537,0.3892642 0.38646253,0.448969 -0.4785969,0.2229054 z M 0.20204637,1.488383 c 0,-0.154109 0.11906249,-0.2066137 0.26458332,-0.1166768 0.14552082,0.089937 0.26458332,0.2160259 0.26458332,0.2801982 0,0.064172 -0.1190625,0.1166768 -0.26458332,0.1166768 -0.14552083,0 -0.26458332,-0.1260893 -0.26458332,-0.2801982 z M 1.1721853,1.3276089 C 0.79888178,0.95430566 1.0355399,0.66633555 2.1202754,0.17395605 3.4091372,-0.41107973 4.2332021,-0.47490543 5.0252069,-0.0510374 5.5458031,0.2275773 5.5159912,0.26837684 4.5447921,0.60643733 3.4132931,1.0002958 2.6595973,1.0756049 3.5093379,0.70989973 3.9069134,0.53879396 3.7560211,0.48852075 2.902556,0.50773611 2.277784,0.52180136 1.7116503,0.62223375 1.6444808,0.73091637 1.5773113,0.839599 1.8205975,0.89578247 2.1851169,0.85576821 2.9215255,0.77493113 3.0810119,1.0933384 2.4293651,1.3433987 1.8821676,1.5533781 1.3917955,1.5472191 1.1721853,1.3276084 Z m -2.888368,-1.07484935 c -0.7758797,-0.18512869 -0.5179804,-0.8694663 0.48571,-1.28883485 0.78873716,-0.3295554 1.11222675,-0.3407556 1.91822922,-0.066415 l 0.96949808,0.32999068 -1.03199425,0.17702687 c -0.56759665,0.0973651 -1.28197161,0.12513521 -1.58749978,0.0617114 -0.51467347,-0.10683954 -0.52006287,-0.0927748 -0.0733195,0.19134427 0.2699664,0.17169314 0.79398345,0.22968901 1.19062454,0.13177308 0.4459931,-0.11009894 0.6104221,-0.0828958 0.44385553,0.0734311 C 0.27060416,0.17092136 -1.0950574,0.4009628 -1.7161827,0.25275955 Z M 3.0789486,-1.7550802 c 0.3662434,-0.3662434 0.8647173,-0.5414015 1.4902849,-0.5236691 1.0579737,0.029989 1.9399347,0.5717878 1.4368808,0.882692 -0.3762475,0.2325339 -1.3061515,0.01482 -1.3061515,-0.3058034 0,-0.1285485 -0.1785938,-0.2337246 -0.396875,-0.2337246 -0.2182812,0 -0.396875,0.1051826 -0.396875,0.233739 0,0.1285564 -0.3099551,0.2929906 -0.6887889,0.3654093 l -0.688789,0.1316703 z m -4.8612771,0.084078 c 0.7273621,-0.3125583 1.14510761,-0.3125583 0.6614583,0 -0.2182813,0.1410641 -0.5754687,0.2499351 -0.79375,0.2419355 -0.2616875,-0.00959 -0.216625,-0.092001 0.1322917,-0.2419355 z m 2.77812483,1.994e-4 C 0.77751509,-1.7990983 0.24173387,-1.9830205 -0.19482861,-2.0795186 -0.90779017,-2.2371121 -0.78913667,-2.3073619 0.97094772,-2.769726 2.0486874,-3.052842 3.1797811,-3.2400535 3.4844892,-3.1857515 c 0.5446406,0.09706 0.545061,0.1020839 0.02485,0.2968876 -0.2910416,0.1089862 -0.7218738,0.2997619 -0.9574048,0.423946 -0.235531,0.1241841 -0.7415466,0.1913967 -1.1244791,0.1493613 -0.92988891,-0.1020758 -0.87769614,0.062065 0.1636538,0.5146792 0.5978318,0.2598424 0.6986256,0.3721605 0.3307291,0.368543 -0.2910416,-0.00286 -0.7077603,-0.1101724 -0.92604187,-0.2384684 z m -3.12390053,-1.613723 c 0.1431788,-0.435428 1.80098393,-0.6704528 1.80098393,-0.255323 0,0.1547408 -0.14882812,0.2829727 -0.33072915,0.2849597 -0.18190103,0.00199 -0.61455988,0.079573 -0.96146418,0.1724136 -0.4702567,0.1258527 -0.5997087,0.074445 -0.5087906,-0.2020503 z m 7.240518,-0.097853 c 0.6669989,-0.5044924 1.1750489,-0.5081306 1.1750489,-0.00841 0,0.2698656 -0.2702023,0.396875 -0.8443198,0.396875 -0.7991958,0 -0.8168713,-0.020761 -0.3307291,-0.3884604 z"
         id="path915" />
      <path
         style="fill:#d8ad7f;stroke-width:0.264583"
         d="m -0.90589628,4.4982571 c 0.19099608,-0.07643 0.4191992,-0.067031 0.50711804,0.020889 0.0879188,0.087919 -0.0683507,0.1504529 -0.34726561,0.1389644 C -1.0542683,4.6454139 -1.116963,4.582719 -0.90589628,4.4982571 Z M 5.4441034,1.5878406 C 5.6350995,1.5114102 5.8633026,1.52081 5.9512215,1.6087295 6.0391401,1.6966484 5.8828706,1.7591824 5.6039559,1.7476939 5.2957314,1.7349992 5.2330365,1.6723033 5.4441034,1.5878414 Z M 1.7926967,0.6012642 C 1.9648851,0.42907576 2.1579148,0.44361646 2.3581573,0.64385894 2.5871385,0.87284019 2.5226064,0.93737259 2.0967243,0.90529186 1.7242937,0.8772373 1.6205085,0.77345238 1.7926967,0.6012642 Z m -2.9631763,-1.13009013 c 0.19099609,-0.0764304 0.4191992,-0.0670306 0.50711804,0.0208889 0.0879188,0.0879189 -0.0683507,0.15045292 -0.34726564,0.13896445 -0.3082245,-0.0126966 -0.3709192,-0.0753914 -0.1598524,-0.15985335 z M 4.1211868,-1.8517425 c 0.1909961,-0.07643 0.4191992,-0.067031 0.5071181,0.020888 0.087919,0.087919 -0.068351,0.1504528 -0.3472656,0.1389643 -0.3082245,-0.012696 -0.3709194,-0.07539 -0.1598525,-0.1598523 z"
         id="path913" />
    </g>
  </g>
</svg>
