<?xml version="1.0" encoding="UTF-8" standalone="no"?>
<svg
   xmlns:dc="http://purl.org/dc/elements/1.1/"
   xmlns:cc="http://creativecommons.org/ns#"
   xmlns:rdf="http://www.w3.org/1999/02/22-rdf-syntax-ns#"
   xmlns:svg="http://www.w3.org/2000/svg"
   xmlns="http://www.w3.org/2000/svg"
   xmlns:sodipodi="http://sodipodi.sourceforge.net/DTD/sodipodi-0.dtd"
   xmlns:inkscape="http://www.inkscape.org/namespaces/inkscape"
   width="100"
   height="60"
   viewBox="0 0 26.458333 15.875"
   version="1.1"
   id="svg8"
   sodipodi:docname="Sand3.svg"
   inkscape:version="1.0.2-2 (e86c870879, 2021-01-15)">
  <defs
     id="defs2">
    <inkscape:perspective
       sodipodi:type="inkscape:persp3d"
       inkscape:vp_x="0 : 11.404167 : 1"
       inkscape:vp_y="0 : 1000 : 0"
       inkscape:vp_z="9.9999999 : 11.404167 : 1"
       inkscape:persp3d-origin="5.0000001 : 9.7375002 : 1"
       id="perspective1944" />
    <mask
       maskUnits="userSpaceOnUse"
       id="mask4667">
      <path
         style="fill:#8f8980;fill-opacity:1;stroke:none;stroke-width:0.264583px;stroke-linecap:butt;stroke-linejoin:miter;stroke-opacity:1"
         d="m 0.47624997,0.59531247 c -0.11073061,0.11898408 -0.12732554,0.31444944 0.047625,0.35718748 0.1366134,0.006177 0.2513938,-0.0269326 0.33337498,-0.1190625 0.0306756,-0.10038779 0.0524371,-0.2013117 -0.047625,-0.30956248 -0.047625,-0.047625 -0.12865574,-0.0973955 -0.33337498,0.0714375 z"
         id="path4669"
         sodipodi:nodetypes="ccccc" />
    </mask>
  </defs>
  <sodipodi:namedview
     id="base"
     pagecolor="#ffffff"
     bordercolor="#666666"
     borderopacity="1.0"
     inkscape:pageopacity="0.0"
     inkscape:pageshadow="2"
     inkscape:zoom="20.12842"
     inkscape:cx="4.8481012"
     inkscape:cy="2.5349484"
     inkscape:document-units="mm"
     inkscape:current-layer="layer1"
     inkscape:document-rotation="0"
     showgrid="true"
     showguides="true"
     inkscape:guide-bbox="true"
     inkscape:window-width="1920"
     inkscape:window-height="1017"
     inkscape:window-x="-8"
     inkscape:window-y="-8"
     inkscape:window-maximized="1"
     units="px">
    <inkscape:grid
       type="xygrid"
       id="grid1942"
       units="px"
       dotted="false"
       spacingx="0.023812499"
       spacingy="0.023812499"
       empspacing="10"
       visible="true" />
  </sodipodi:namedview>
  <metadata
     id="metadata5">
    <rdf:RDF>
      <cc:Work
         rdf:about="">
        <dc:format>image/svg+xml</dc:format>
        <dc:type
           rdf:resource="http://purl.org/dc/dcmitype/StillImage" />
        <dc:title></dc:title>
      </cc:Work>
    </rdf:RDF>
  </metadata>
  <g
     inkscape:label="Layer 1"
     inkscape:groupmode="layer"
     id="layer1">
    <path
       style="fill:#f3c087;fill-opacity:1;fill-rule:evenodd;stroke:none;stroke-width:0.229136;stroke-linecap:butt;stroke-linejoin:bevel;stroke-miterlimit:1;stroke-dasharray:none;stroke-opacity:1;paint-order:stroke markers fill"
       d="M 0,7.9374985 13.229164,0 26.458331,7.9374985 13.229164,15.874998 Z"
       id="path1960" />
    <g
       id="g959"
       transform="matrix(1.6047012,0.95934671,-1.6047012,0.95934671,11.233245,12.116916)">
      <path
         style="fill:#fae0ae;stroke-width:0.264583"
         d="M -3.8696858,1.0472596 C -3.7468302,0.7271032 -3.8823146,0.61653992 -4.4266374,0.59275493 -4.950245,0.56987377 -4.800966,0.47920212 -3.877938,0.25947203 c 0.6973998,-0.16601863 1.36544,-0.45951376 1.4845337,-0.65221164 0.1709653,-0.27662742 0.2523529,-0.25701703 0.386738,0.0931844 0.1176287,0.30653539 0.00641,0.4863769 -0.3600548,0.58220951 -0.291642,0.0762661 -0.5302583,0.21520175 -0.5302583,0.30874571 0,0.093544 -0.2553875,0.32957186 -0.5675275,0.52450649 -0.4968917,0.3103142 -0.5473212,0.3017703 -0.4051789,-0.068647 z M 0.07483976,0.88876916 C -0.22310805,0.41167887 -0.18939802,0.35960253 0.41737911,0.35960253 1.0084,0.35960253 1.055888,0.42406746 0.80718707,0.88876916 0.65142634,1.1798108 0.49728354,1.4179358 0.46464771,1.4179358 c -0.0326358,0 -0.20804953,-0.238125 -0.38980795,-0.52916664 z M -1.3094795,0.35960253 c -0.2384668,-0.1541092 -0.2711008,-0.25809733 -0.081761,-0.26053176 0.1733129,-0.0022283 0.3886988,0.11501093 0.4786357,0.26053176 0.2030161,0.3284868 0.11142212,0.3284868 -0.3968747,0 z M 1.7513976,-0.22739541 C 2.3377418,-1.052744 2.6592703,-1.157201 2.6592703,-0.52234178 c 0,0.24253453 -0.079635,0.36133747 -0.176966,0.264006 -0.097332,-0.0973315 -0.4165775,0.0316529 -0.7094352,0.28663184 C 1.2410844,0.49129834 1.2410569,0.49096947 1.7513982,-0.22739541 Z M -2.4847758,-1.1684717 c -0.4849876,-0.4849873 0.3582554,-0.9426154 1.1780779,-0.6393431 0.48628931,0.1798899 0.46466835,0.2226164 -0.24896,0.491981 -0.4298238,0.1622401 -0.8479268,0.2285532 -0.9291179,0.1473621 z m 3.5565462,-0.059426 C 0.83330356,-1.3820069 0.80066959,-1.485995 0.9900096,-1.4884294 c 0.173313,-0.00223 0.3886989,0.1150109 0.4786358,0.2605317 0.2030161,0.32848682 0.1114221,0.32848682 -0.396875,0 z m -5.8220443,-0.7944984 c -0.2091864,-0.1292845 -0.3242557,-0.2775718 -0.2557096,-0.3295275 0.068546,-0.051956 0.4704751,-0.3113711 0.8931756,-0.5764786 0.6702711,-0.4203779 0.7474566,-0.4270544 0.6036164,-0.052213 -0.090711,0.2363904 -0.049604,0.4298008 0.091349,0.4298008 0.1409537,0 0.2562794,0.1260893 0.2562794,0.2801983 0,0.1541089 -0.124278,0.2033902 -0.2761734,0.1095136 -0.1518953,-0.093876 -0.4237791,-0.048182 -0.6041861,0.1015421 -0.198569,0.1647976 -0.4781063,0.1794637 -0.7083513,0.037164 z M 0.27168816,-2.2807387 C 0.60377938,-2.5687599 0.98496589,-2.7367536 1.1187696,-2.6540584 1.4930669,-2.42273 0.81505551,-1.757064 0.2051399,-1.757064 c -0.51753397,0 -0.51509134,-0.019222 0.0665483,-0.5236747 z M 0.11185867,-3.4818179 c -0.27241314,-0.2062958 -0.73342152,-0.3944812 -1.02446317,-0.4181895 -0.2910417,-0.023709 0.17936632,-0.1333452 1.04535096,-0.2436373 1.14955684,-0.146408 1.70299054,-0.3591883 2.05052074,-0.78837 0.3369053,-0.4160603 0.4760031,-0.4721906 0.4760031,-0.1920821 0,0.2176663 -0.2809504,0.5798427 -0.6243343,0.8048365 -0.343384,0.2249937 -0.8051099,0.5898549 -1.0260576,0.8108029 -0.34844459,0.3484443 -0.46741209,0.3519775 -0.89701973,0.02664 z M -3.426146,-4.1100064 c 0,-0.16109 -0.2083594,-0.3036288 -0.4630208,-0.3167531 -0.2546615,-0.013124 -0.046302,-0.1341106 0.4630208,-0.2688585 0.5093229,-0.1347478 1.1046353,-0.3445548 1.3229166,-0.4662376 0.3030024,-0.1689113 0.3968749,-0.074027 0.3968749,0.4011501 0,0.4047406 -0.1543515,0.6223916 -0.4413813,0.6223916 -0.2427594,0 -0.6297125,0.07227 -0.8598958,0.1605992 -0.2301829,0.088329 -0.4185144,0.028798 -0.4185144,-0.1322917 z m -1.9182291,-1.0044415 c -0.2546614,-0.06655 -0.4630208,-0.2950526 -0.4630208,-0.5077836 0,-0.3011022 0.1139583,-0.3257951 0.5144311,-0.1114686 0.5518517,0.2953422 0.9789374,0.8215987 0.6256629,0.7709442 -0.1177288,-0.016881 -0.4224117,-0.085142 -0.6770732,-0.151692 z m 5.12445872,-1.4363457 c 0.31168788,-0.311688 0.63460468,-0.4484328 0.72760413,-0.308117 0.0919641,0.1387537 0.40533265,0.3873116 0.69637425,0.5523508 0.4520716,0.2563536 0.346066,0.3012436 -0.72760408,0.308117 l -1.25677076,0.00805 z M -3.823021,-6.7841471 c 0.089937,-0.1455208 0.216026,-0.2645833 0.2801982,-0.2645833 0.064172,0 0.1166768,0.1190625 0.1166768,0.2645833 0,0.1455208 -0.1260892,0.2645833 -0.2801983,0.2645833 -0.154109,0 -0.2066135,-0.1190625 -0.1166767,-0.2645833 z"
         id="path967" />
      <path
         style="fill:#f7d5a2;stroke-width:0.264583"
         d="m -4.9431357,1.0344794 c -0.774431,-0.22873093 -0.8496747,-0.34149237 -0.7937499,-1.18952715 0.062895,-0.95372895 0.8144826,-2.00495975 1.2437746,-1.73964275 0.1301578,0.080442 0.316452,0.017137 0.4139872,-0.1406787 0.097535,-0.1578152 0.3438872,-0.2230252 0.5474489,-0.1449112 0.2035617,0.078114 0.3701122,0.0267 0.3701122,-0.1142542 0,-0.1409536 -0.1260892,-0.2562794 -0.2801982,-0.2562794 -0.1541091,0 -0.213254,-0.108318 -0.1314333,-0.2407068 0.3453534,-0.5587936 -0.1692997,-1.0070869 -1.1237509,-0.9788532 -0.8975826,0.026552 -0.9803799,-0.032554 -1.0051187,-0.7175168 -0.024202,-0.6701059 0.043451,-0.7312377 0.6614584,-0.597699 l 0.6884178,0.148753 -0.7091884,-0.5646909 -0.7091883,-0.564691 0.9635698,-0.4912558 c 1.109474,-0.5656421 1.2074119,-0.5882035 0.9839735,-0.2266726 -0.089937,0.1455208 -0.037432,0.2645833 0.1166767,0.2645833 0.1541091,0 0.2801983,-0.097961 0.2801983,-0.2176905 0,-0.1197298 0.7738919,-0.2090267 1.7197598,-0.1984375 1.76019423,0.019706 2.07324736,0.1839831 1.2568025,0.6595185 -0.35771241,0.2083485 -0.16214009,0.2674421 0.85989579,0.2598235 1.14400901,-0.00853 1.24240811,-0.048689 0.72760411,-0.2969698 -0.78470516,-0.3784491 -0.75932871,-0.7430577 0.047071,-0.676318 0.3533108,0.029241 0.584409,0.1469697 0.5135518,0.2616195 -0.070858,0.1146499 0.049762,0.2084543 0.268043,0.2084543 0.5376462,0 0.7616126,0.4243577 0.5597083,1.0605017 -0.1334016,0.420311 -0.2668463,0.4732365 -0.6611424,0.2622157 -0.6290463,-0.3366554 -0.86922899,-0.336583 -0.6610861,1.992e-4 0.09566,0.1547809 -0.1788464,0.2645833 -0.66145825,0.2645833 -0.53250541,0 -0.76122394,-0.1031592 -0.64514409,-0.2909803 0.12639383,-0.2045095 0.01309476,-0.2017432 -0.38126006,0.00931 -0.618195,0.3308479 -0.7485792,0.800296 -0.23036661,0.8294341 0.18190103,0.010228 0.0926042,0.1209223 -0.19843749,0.2459871 l -0.5291666,0.2273906 0.5291666,0.027011 c 0.29104165,0.014856 0.75032204,0.1945349 1.02062301,0.3992864 0.43192591,0.3271816 0.56012262,0.3075181 1.05833329,-0.162333 1.1762784,-1.1093213 1.3546062,-1.0707812 1.4337434,0.3098602 0.044108,0.7695146 -0.05084,1.3522147 -0.2393177,1.4687004 -0.2073267,0.1281348 -0.2417871,0.078785 -0.1024337,-0.1466935 0.1377026,-0.2228074 0.089153,-0.2995059 -0.1410206,-0.2227815 -0.5716238,0.1905413 -0.5999196,0.7308545 -0.049445,0.9441592 0.4975283,0.1927881 0.4981234,0.2117857 0.022159,0.707422 -0.2690053,0.28012256 -0.4891003,0.38074915 -0.4891003,0.22361444 0,-0.18234103 -0.3975298,-0.23237956 -1.09883646,-0.13831463 -0.85212629,0.11429417 -1.05177187,0.071233 -0.88921267,-0.19179327 0.13729069,-0.22214125 0.0884999,-0.29880373 -0.14139783,-0.22217114 -0.61315864,0.20438611 -0.58271354,0.73722887 0.0567679,0.99353417 0.33960883,0.13611568 0.51359538,0.25503001 0.3866364,0.26425418 -0.12695872,0.009223 -0.08022669,0.19824196 0.10384922,0.42003977 C 0.52992968,1.3788129 0.19876212,1.468368 -0.89702954,1.0105169 -1.7940686,0.63571003 -1.9486114,0.63537851 -2.5158447,1.0070429 c -0.344905,0.2259915 -0.7728023,0.4108929 -0.9508826,0.4108929 -0.3937002,0 0.5121468,-0.88026394 1.1605998,-1.12782211 1.2198005,-0.46567988 -0.8799626,-1.79763439 -2.1369826,-1.35556409 -0.8864265,0.3117395 -0.9085455,0.94709745 -0.041369,1.18831303 l 0.6614583,0.18399256 -0.6614583,0.0576778 -0.6614583,0.0576778 0.7203062,0.16713331 c 0.4126951,0.095758 0.6386789,0.28044959 0.5291666,0.4324765 -0.1251242,0.1736995 -0.4866208,0.1780715 -1.0466711,0.012659 z M -0.9126045,0.35960253 C -1.0025414,0.2140817 -1.2179273,0.09684245 -1.3912402,0.09907077 c -0.1893401,0.0024344 -0.1567061,0.10642256 0.081761,0.26053176 0.50829712,0.3284868 0.5998911,0.3284868 0.3968747,0 z m 0.13229166,-2.17971413 c 0,-0.1163897 0.29920245,-0.1365223 0.66489417,-0.04474 0.37980671,0.095325 0.83234049,0.02791 1.05542021,-0.15723 C 1.3970065,-2.4013617 1.2194997,-2.8554785 0.693185,-2.6535125 c -0.19890157,0.076325 -0.43427357,0.021249 -0.52304895,-0.1223931 -0.10125841,-0.1638392 -0.44464602,-0.1198703 -0.92143998,0.1179859 -0.96074517,0.4792826 -1.79429847,0.2445488 -1.29253267,-0.3639857 0.2974946,-0.3607974 0.266945,-0.3717083 -0.2578303,-0.092084 -0.6388505,0.3404089 -0.759165,0.6952623 -0.3264133,0.9627174 0.1478944,0.091404 0.2003991,0.2770243 0.1166768,0.4124899 -0.083722,0.1354656 -0.08515,0.3548271 -0.00317,0.4874698 0.1700654,0.27517093 1.73426296,-0.2378511 1.73426296,-0.5687996 z m 2.24895824,0.5922142 c -0.089937,-0.1455208 -0.3053228,-0.2627601 -0.47863576,-0.2605317 -0.18934005,0.00243 -0.15670608,0.1064225 0.0817608,0.2605317 0.5082971,0.32848682 0.5998911,0.32848682 0.396875,0 z m -3.6163812,-2.9116029 c 0.3186475,-8.467e-4 0.4545441,-0.2583587 0.4887182,-0.9260416 0.049218,-0.9615994 -0.1280073,-1.1352265 -0.638094,-0.6251398 -0.3538418,0.3538419 -1.2376329,0.090053 -0.9978977,-0.2978467 0.1899193,-0.3072959 0.079002,-0.3304822 -0.5063721,-0.1058529 -0.6109677,0.2344503 -0.5112962,0.8314025 0.1767979,1.0588771 l 0.5953124,0.1968023 -0.6614583,0.1915286 c -0.4242281,0.1228375 -0.4953971,0.2009876 -0.1984374,0.2179024 0.2546614,0.014505 0.4630208,0.1581745 0.4630208,0.3192645 0,0.16109 0.1883315,0.2206212 0.4185144,0.1322917 0.2301833,-0.08833 0.6171364,-0.1611331 0.8598958,-0.1617856 z M 0.7788375,0.94174112 C 0.92971058,0.65983183 0.99267532,0.36870181 0.91875868,0.29478543 0.8448423,0.22086879 0.97427752,0.08751536 1.206393,-0.00155556 1.4941374,-0.11197358 1.5674836,-0.05923366 1.436907,0.16419557 1.3315743,0.34442973 1.5015019,0.26732803 1.8145238,-0.00714144 2.3540136,-0.48018731 2.3930243,-0.4817592 2.56357,-0.03732458 2.8340601,0.66756137 2.3128477,1.2753714 1.3567758,1.3699737 0.58605495,1.4462356 0.53076523,1.4052681 0.7788375,0.94174112 Z m -3.9404002,-0.95070607 c 0,-0.05719127 0.1847776,-0.1748901 0.4106169,-0.26155278 0.2354593,-0.0903541 0.3416623,-0.0459975 0.2489684,0.10398415 -0.1553787,0.25140813 -0.6595853,0.3718581 -0.6595853,0.15756863 z M -5.8073959,-2.5141237 c 0,-0.3806163 0.1479643,-0.4641913 0.6514298,-0.3679478 0.5562869,0.1063411 0.5976901,0.1782686 0.2834821,0.4924766 -0.5143491,0.5143492 -0.9349119,0.4583308 -0.9349119,-0.1245288 z"
         id="path965" />
      <path
         style="fill:#f5c897;stroke-width:0.264583"
         d="m -5.8073959,1.1533525 c 0,-0.33607375 0.8028797,-0.33607375 1.3229166,0 0.3011637,0.1946269 0.1895006,0.2574573 -0.4630208,0.2605317 -0.4729427,0.00223 -0.8598958,-0.1150109 -0.8598958,-0.2605317 z m 2.9104165,0.1312439 c 0,-0.061944 0.2340459,-0.2378834 0.5201018,-0.39097584 0.3751283,-0.20076265 0.7488163,-0.18491993 1.3406304,0.0568367 l 0.8205287,0.33518684 -1.3406304,0.055789 c -0.7373467,0.030684 -1.3406305,0.00511 -1.3406305,-0.056837 z M 2.2623953,1.1533525 c 0.089937,-0.1455208 0.216026,-0.26458334 0.2801983,-0.26458334 0.064172,0 0.1166767,0.11906254 0.1166767,0.26458334 0,0.1455208 -0.1260893,0.2645833 -0.2801982,0.2645833 -0.154109,0 -0.2066137,-0.1190625 -0.1166768,-0.2645833 z m -7.4545947,-1.39776961 c -0.2190492,-0.3544292 0.6567013,-0.98348029 1.3691784,-0.98348029 0.8065023,0 1.6407653,0.64783968 1.1916806,0.92538917 -0.521735,0.32245007 -2.3715426,0.36441139 -2.560859,0.0580911 z m 4.26828396,0.0565515 c -0.18727316,-0.30301431 0.0804362,-0.77544846 0.43941574,-0.77544846 0.14552083,0 0.19099873,0.11906249 0.10106183,0.26458332 -0.0937376,0.15167054 0.14424316,0.26458332 0.55764904,0.26458332 0.87140623,0 0.75533642,0.18406797 -0.22857618,0.3624855 -0.39453685,0.0715430602 -0.78583442,0.01925108 -0.86955043,-0.11620368 z M 1.1599647,-0.31349453 c 0,-0.21187991 0.099219,-0.38523622 0.2204863,-0.38523622 0.1212673,0 0.220486,0.11203569 0.220486,0.24896841 0,0.13693271 -0.099219,0.31028902 -0.220486,0.38523622 C 1.2591835,0.01042134 1.1599647,-0.10161435 1.1599647,-0.31349453 Z M -5.6382001,-1.4114793 c -0.2979695,-0.2979695 -0.1814752,-0.610168 0.2276792,-0.610168 0.2182812,0 0.396875,0.1120356 0.396875,0.2489684 0,0.3336337 -0.4131705,0.5725834 -0.6245542,0.3611996 z M 1.711839,-1.5270898 c -0.2255105,-0.3648839 0.2924259,-0.8681434 0.6597943,-0.6410973 0.1582002,0.097773 0.287637,0.2770669 0.287637,0.3984305 0,0.3519622 -0.7596343,0.5465283 -0.9474313,0.2426668 z m -4.3119943,-0.5681501 c -0.4355078,-0.4355078 -0.3674835,-0.6651862 0.2984884,-1.0078185 0.4835768,-0.2487927 0.5349652,-0.2423361 0.2737903,0.034401 -0.2537341,0.2688529 -0.2319621,0.406168 0.1032666,0.6512933 0.3742936,0.27369 0.3770317,0.3289392 0.023035,0.4647808 -0.2209652,0.084792 -0.5353259,0.020598 -0.6985791,-0.1426562 z m 1.7657693,-0.1434412 c -0.3876423,-0.1545944 -0.3598098,-0.222764 0.19825942,-0.4855929 0.65551576,-0.308723 1.09218195,-0.064076 0.78185535,0.4380433 -0.18404918,0.2977978 -0.33433965,0.3050889 -0.98011477,0.04755 z m -4.8797758,-0.9799658 c -0.089924,-0.2343383 -0.011159,-0.5668946 0.1750327,-0.739014 0.26541,-0.2453502 0.2926874,-0.2325896 0.1262876,0.059079 -0.1717679,0.3010773 -0.0278,0.3420922 0.7549344,0.2150718 0.728936,-0.1182899 0.9671777,-0.065333 0.9671777,0.2149854 0,0.2128234 -0.160937,0.3101792 -0.3762002,0.227575 -0.2069101,-0.079399 -0.6253953,-0.010996 -0.9299671,0.1520055 -0.4474601,0.2394733 -0.5851537,0.2145741 -0.7172651,-0.1297027 z M 2.415575,-4.0280708 c 0.012695,-0.3082244 0.075391,-0.3709193 0.1598526,-0.1598525 0.07643,0.1909961 0.06703,0.4191992 -0.020889,0.5071181 -0.087919,0.087919 -0.1504529,-0.068351 -0.1389636,-0.3472656 z M -0.71416701,-4.3135424 C -1.2078141,-4.5127333 -1.1148493,-4.876008 -0.4838004,-5.2137351 c 0.39435482,-0.2110523 0.50765389,-0.2138186 0.38126006,-0.00931 -0.11607985,0.1878211 0.11263868,0.2909803 0.64514409,0.2909803 0.48261185,0 0.75711815,-0.1098024 0.66145825,-0.2645833 -0.20513246,-0.3319112 0.1395122,-0.3355529 0.6592467,-0.00697 0.4743251,0.2998783 0.1632217,0.6617086 -0.7915383,0.9206018 -0.50575976,0.137142 -0.56803923,0.113956 -0.26458333,-0.098503 0.31174693,-0.218263 0.20908163,-0.2787327 -0.47863572,-0.2819151 -0.51714053,-0.00239 -0.80857694,0.1042495 -0.71198922,0.2605318 0.1767541,0.2859939 0.16467904,0.2892565 -0.33072914,0.089355 z M -3.528776,-5.2446408 c 0.1265133,-0.2047028 0.043193,-0.2503966 -0.2508415,-0.1375649 -0.2778042,0.1066035 -0.4402785,0.036004 -0.4402785,-0.1913129 0,-0.3750422 0.7661992,-0.797207 1.0080081,-0.5553981 0.076186,0.076186 0.044566,0.1385196 -0.070266,0.1385196 -0.1148321,0 -0.072106,0.1646892 0.094947,0.3659761 0.2347837,0.282897 0.2089873,0.4023335 -0.1136367,0.526136 -0.2741399,0.1051974 -0.3523603,0.054972 -0.2279324,-0.1463558 z m 1.318802,-0.1752537 c -0.091559,-0.1481451 -0.037544,-0.3490354 0.1200317,-0.4464229 0.4067929,-0.2514117 0.669255,0.092961 0.329666,0.4325504 -0.1900184,0.1900185 -0.338012,0.1945839 -0.4496977,0.013872 z m -3.5974219,-1.3642526 c 0,-0.1455208 0.3869531,-0.256215 0.8598958,-0.245987 0.7205998,0.015584 0.7741752,0.055432 0.3307291,0.245987 -0.7309649,0.3141065 -1.1906249,0.3141065 -1.1906249,0 z m 7.3107308,0.056129 c -0.070857,-0.1146498 0.1602409,-0.2323786 0.5135517,-0.2616195 0.3533111,-0.029241 0.6423837,0.064564 0.6423837,0.2084542 0,0.309883 -0.9697106,0.3544832 -1.1559354,0.053165 z"
         id="path963" />
      <path
         style="fill:#d8ad7f;stroke-width:0.264583"
         d="m -1.3590889,1.2371952 c 0.1909961,-0.07643 0.41919924,-0.067031 0.50711816,0.020889 0.0879187,0.087919 -0.0683509,0.1504528 -0.34726556,0.1389643 -0.3082245,-0.012695 -0.3709194,-0.075391 -0.1598526,-0.1598533 z M 0.01343711,0.09501921 c 0,-0.14552083 0.10932477,-0.26458332 0.24294385,-0.26458332 0.1336188,0 0.46104066,-0.069251 0.72760412,-0.15389092 C 1.4274852,-0.46427659 1.4250283,-0.44180685 0.95505475,-0.05887171 0.3669064,0.42035244 0.01343711,0.47812077 0.01343711,0.09501921 Z M -4.0876043,-0.16956411 c 0.7273621,-0.3125581 1.1451076,-0.3125581 0.6614583,0 -0.2182813,0.14106418 -0.5754687,0.24993519 -0.79375,0.24193551 -0.2616875,-0.0095903 -0.216625,-0.09200091 0.1322917,-0.24193551 z M -1.5740628,-1.990803 c 0,-0.1285563 0.2986974,-0.2908385 0.66377208,-0.3606271 0.53725654,-0.102703 0.60672632,-0.058152 0.36447807,0.233739 -0.33434283,0.4028585 -1.02825015,0.488488 -1.02825015,0.1268881 z m -3.4395831,-1.0891776 c 0.5212598,-0.3368641 1.134235,-0.3368641 0.9260416,0 -0.089937,0.1455208 -0.4243854,0.2627601 -0.7432191,0.2605317 -0.4712847,-0.00329 -0.5054755,-0.052017 -0.1828225,-0.2605317 z m 4.63020803,-1.3229166 c -0.0965877,-0.1562823 0.19484869,-0.2629249 0.71198922,-0.2605318 0.66261505,0.00307 0.77900365,0.066419 0.47863572,0.2605318 -0.51433039,0.332386 -0.98519927,0.332386 -1.19062494,0 z M -3.6216342,-5.148345 c -0.1981106,-0.1258231 0.037165,-0.2185228 0.5947322,-0.2343276 0.5073817,-0.014382 0.8562155,0.081121 0.7751858,0.2122296 -0.1805144,0.2920783 -0.9258981,0.304102 -1.369918,0.022098 z m -1.7888867,-1.3712188 c 0.7273621,-0.3125582 1.1451076,-0.3125582 0.6614583,0 -0.2182813,0.1410642 -0.5754687,0.2499352 -0.79375,0.2419356 -0.2616875,-0.00959 -0.216625,-0.092001 0.1322917,-0.2419356 z m 3.7703123,-0.4398117 c 0.181901,-0.073399 0.4795572,-0.073399 0.66145827,0 0.18190103,0.073399 0.0330729,0.1334521 -0.33072917,0.1334521 -0.363802,0 -0.5126302,-0.060053 -0.3307291,-0.1334521 z"
         id="path961" />
    </g>
  </g>
</svg>
