<?xml version="1.0" encoding="UTF-8" standalone="no"?>
<svg
   xmlns:dc="http://purl.org/dc/elements/1.1/"
   xmlns:cc="http://creativecommons.org/ns#"
   xmlns:rdf="http://www.w3.org/1999/02/22-rdf-syntax-ns#"
   xmlns:svg="http://www.w3.org/2000/svg"
   xmlns="http://www.w3.org/2000/svg"
   xmlns:sodipodi="http://sodipodi.sourceforge.net/DTD/sodipodi-0.dtd"
   xmlns:inkscape="http://www.inkscape.org/namespaces/inkscape"
   width="9"
   height="7.1999998"
   viewBox="0 0 2.38125 1.9049999"
   version="1.1"
   id="svg8"
   sodipodi:docname="Shadow_E.svg"
   inkscape:version="1.0.2-2 (e86c870879, 2021-01-15)">
  <defs
     id="defs2">
    <inkscape:perspective
       sodipodi:type="inkscape:persp3d"
       inkscape:vp_x="0 : -2.565833 : 1"
       inkscape:vp_y="0 : 999.99998 : 0"
       inkscape:vp_z="10 : -2.565833 : 1"
       inkscape:persp3d-origin="5.0000002 : -4.2324997 : 1"
       id="perspective1944" />
    <mask
       maskUnits="userSpaceOnUse"
       id="mask4667">
      <path
         style="fill:#8f8980;fill-opacity:1;stroke:none;stroke-width:0.264583px;stroke-linecap:butt;stroke-linejoin:miter;stroke-opacity:1"
         d="m 0.47624997,0.59531247 c -0.11073061,0.11898408 -0.12732554,0.31444944 0.047625,0.35718748 0.1366134,0.006177 0.2513938,-0.0269326 0.33337498,-0.1190625 0.0306756,-0.10038779 0.0524371,-0.2013117 -0.047625,-0.30956248 -0.047625,-0.047625 -0.12865574,-0.0973955 -0.33337498,0.0714375 z"
         id="path4669"
         sodipodi:nodetypes="ccccc" />
    </mask>
    <mask
       maskUnits="userSpaceOnUse"
       id="mask4667-5">
      <path
         style="fill:#8f8980;fill-opacity:1;stroke:none;stroke-width:0.264583px;stroke-linecap:butt;stroke-linejoin:miter;stroke-opacity:1"
         d="m 0.47624997,0.59531247 c -0.11073061,0.11898408 -0.12732554,0.31444944 0.047625,0.35718748 0.1366134,0.006177 0.2513938,-0.0269326 0.33337498,-0.1190625 0.0306756,-0.10038779 0.0524371,-0.2013117 -0.047625,-0.30956248 -0.047625,-0.047625 -0.12865574,-0.0973955 -0.33337498,0.0714375 z"
         id="path4669-3"
         sodipodi:nodetypes="ccccc" />
    </mask>
    <clipPath
       clipPathUnits="userSpaceOnUse"
       id="clipPath2261">
      <path
         style="fill:#7c5c2c;fill-opacity:1;stroke:none;stroke-width:0.0217377;stroke-linecap:butt;stroke-linejoin:bevel;stroke-miterlimit:4;stroke-dasharray:none;stroke-opacity:1"
         d="m 0,0.714375 v 0.47625 L 1.190625,1.905 V 1.4287499 Z"
         id="path2263"
         sodipodi:nodetypes="ccccc" />
    </clipPath>
    <clipPath
       clipPathUnits="userSpaceOnUse"
       id="clipPath2305">
      <path
         style="fill:#c29652;stroke-width:0.0665578"
         d="m 1.2326512,0.15157154 c -0.04977,0.0644244 0.1665026,0.13960197 0.2635591,0.0916145 0.037902,-0.0187398 0.049647,-0.0590102 0.026099,-0.08949 -0.054515,-0.0705654 -0.2357594,-0.0718948 -0.2896596,-0.002124 z m -0.39786189,0.0749663 c 0.038624,0.0926965 0.20510379,0.10892978 0.21093819,0.0205682 0.00216,-0.0327422 -0.051924,-0.068787 -0.12019119,-0.0800995 -0.077593,-0.0128579 -0.1116109,0.009458 -0.090747,0.0595313 z M 0.9859863,0.37582962 c -0.1334357,0.043074 -0.11466578,0.16457237 0.043066,0.27876881 0.1700302,0.1231003 0.4117071,0.1267651 0.5348009,0.00811 C 1.7522021,0.48115159 1.3217335,0.26744803 0.9859863,0.37582962 Z m 0.6622852,0.0171283 c 0.031977,0.0767438 0.1340425,0.0905294 0.1432471,0.0193476 0.00307,-0.0237381 -0.034603,-0.0538758 -0.083716,-0.0669727 -0.049113,-0.0130968 -0.075902,0.008334 -0.059531,0.0476251 z M 0.3400743,0.50825167 C 0.2724316,0.59581017 0.51400374,0.72291882 0.60686535,0.64862983 0.65067795,0.61357973 0.66402575,0.55577913 0.63652685,0.52018404 0.57625205,0.44216294 0.39671358,0.43493645 0.3400743,0.50825167 Z m 1.560662,0.002633 c -0.055032,0.0712346 0.084953,0.14181634 0.1840714,0.0928096 0.083222,-0.041147 0.028587,-0.14822794 -0.075628,-0.14822794 -0.036097,0 -0.084896,0.024938 -0.1084434,0.0554183 z M 0.16278078,0.75684282 c 0.0179058,0.042974 0.076507,0.089855 0.1302246,0.10417971 0.0558105,0.014883 0.0837158,-0.00744 0.0651123,-0.05209 -0.017907,-0.042974 -0.076507,-0.089855 -0.13022461,-0.10417971 -0.0558106,-0.014883 -0.0837158,0.00744 -0.0651123,0.05209 z m 1.72584812,0.023194 c -0.055949,0.1166417 0.026646,0.2112101 0.1844738,0.2112101 0.152866,0 0.3081473,-0.11099601 0.3081473,-0.2202656 0,-0.10826001 -0.44023,-0.10016759 -0.4926211,0.00906 z m -1.31747545,0.012256 c -0.026929,0.021544 -0.0116681,0.075122 0.033916,0.1190625 0.094906,0.091484 0.48066005,0.10797758 0.54604065,0.0233471 0.08746,-0.11321053 -0.45113831,-0.24546433 -0.57995665,-0.1424096 z m 0.72971525,0.081674 c -0.028944,0.037467 -0.018919,0.09509 0.022283,0.12804968 0.1057129,0.08457 0.3511664,0.034863 0.3511664,-0.071116 0,-0.10702718 -0.2994766,-0.15268329 -0.3734494,-0.0569337 z M 0.0930176,0.97140324 C 0.0418579,0.98777422 0,1.0664194 0,1.1461702 0,1.2925006 0.0801846,1.3005355 0.50229492,1.1965022 0.63689852,1.1633282 0.61643903,1.0706261 0.46508792,1.0279174 0.39346436,1.0077066 0.30137698,0.98002553 0.26044924,0.96640393 0.2195215,0.95278244 0.14417727,0.95503222 0.0930176,0.97140324 Z M 0.8371581,1.1110429 C 0.53229745,1.2111166 0.68363515,1.467497 1.047568,1.467497 1.30508,1.467497 1.4717262,1.3163049 1.3647452,1.1797335 1.2723862,1.0618287 1.0681057,1.0352319 0.8371581,1.1110429 Z m 0.8341491,0.024222 c -0.1185356,0.069984 -0.1280317,0.1005143 -0.050753,0.1631754 0.1105087,0.089606 0.3514186,3.969e-4 0.3514186,-0.1301268 0,-0.1156397 -0.1355411,-0.1305381 -0.3006656,-0.033049 z m 0.5611147,0.0013 c 0,0.047181 0.033486,0.1023401 0.074414,0.1225759 0.040928,0.020236 0.074414,-0.018367 0.074414,-0.085784 0,-0.067417 -0.033486,-0.1225759 -0.074414,-0.1225759 -0.040928,0 -0.074414,0.038603 -0.074414,0.085784 z M 1.8138631,1.3580626 c -0.1482001,0.088054 -0.099363,0.1927782 -0.051738,0.2404031 0.047625,0.047625 0.1330544,-0.00725 0.2812835,-0.037014 0.1617175,-0.032471 0.1614221,-0.2213478 0.14656,-0.2911263 -0.015343,-0.072036 -0.1399433,-0.052578 -0.3761055,0.087737 z M 1.3565064,1.5381909 c 0.045993,0.1103842 0.2061888,0.1286922 0.2061888,0.023564 0,-0.051842 -0.05302,-0.094258 -0.1178221,-0.094258 -0.064802,0 -0.1045673,0.031812 -0.088367,0.070693 z m -0.89936318,0.041839 c -0.30476213,-1.06720946 -0.15238106,-0.5336048 0,0 z m 0.31527488,0.092976 c -0.06424,0.1339249 0.03433,0.2112099 0.2693789,0.2112099 0.2692759,0 0.3635495,-0.1118796 0.1831812,-0.2173905 C 1.0449868,1.5615352 0.82444241,1.5645471 0.7724181,1.6730059 Z"
         id="path2307"
         sodipodi:nodetypes="cscccscssssssccscsscscsscsscsscsscccscccscsssssssssscsscsssssscssssssssccssss" />
    </clipPath>
    <clipPath
       clipPathUnits="userSpaceOnUse"
       id="clipPath2373">
      <path
         style="fill:#aa7e3d;fill-opacity:1;fill-rule:evenodd;stroke:none;stroke-width:0.0206222;stroke-linecap:butt;stroke-linejoin:bevel;stroke-miterlimit:1;stroke-dasharray:none;stroke-opacity:1;paint-order:stroke markers fill"
         d="M -9.9999998e-8,0.71437497 1.1906248,5.0000001e-8 2.3812499,0.71437497 1.1906248,1.4287499 Z"
         id="path2375" />
    </clipPath>
  </defs>
  <sodipodi:namedview
     id="base"
     pagecolor="#ffffff"
     bordercolor="#666666"
     borderopacity="1.0"
     inkscape:pageopacity="0.0"
     inkscape:pageshadow="2"
     inkscape:zoom="158.1438"
     inkscape:cx="5.5774958"
     inkscape:cy="3.5131773"
     inkscape:document-units="mm"
     inkscape:current-layer="layer1"
     inkscape:document-rotation="0"
     showgrid="true"
     showguides="true"
     inkscape:guide-bbox="true"
     inkscape:window-width="1920"
     inkscape:window-height="1017"
     inkscape:window-x="-8"
     inkscape:window-y="-8"
     inkscape:window-maximized="1"
     units="px">
    <inkscape:grid
       type="xygrid"
       id="grid1942"
       units="px"
       dotted="false"
       spacingx="0.023812499"
       spacingy="0.023812499"
       empspacing="10"
       visible="true" />
  </sodipodi:namedview>
  <metadata
     id="metadata5">
    <rdf:RDF>
      <cc:Work
         rdf:about="">
        <dc:format>image/svg+xml</dc:format>
        <dc:type
           rdf:resource="http://purl.org/dc/dcmitype/StillImage" />
        <dc:title></dc:title>
      </cc:Work>
    </rdf:RDF>
  </metadata>
  <g
     inkscape:label="Layer 1"
     inkscape:groupmode="layer"
     id="layer1">
    <path
       style="fill:#000000;fill-opacity:0.2;stroke:none;stroke-width:0.264583px;stroke-linecap:butt;stroke-linejoin:miter;stroke-opacity:1"
       d="M 1.1906249,1.4287499 2.3812499,0.71437496 2.0240624,0.50006248 C 1.9049999,0.57149999 1.6240188,0.69061818 1.4287499,0.80962497 1.233481,0.92863177 1.0262336,1.0953127 0.83343746,1.2144374 Z"
       id="path40222"
       sodipodi:nodetypes="ccczcc" />
  </g>
</svg>
