<?xml version="1.0" encoding="UTF-8" standalone="no"?>
<svg
   xmlns:dc="http://purl.org/dc/elements/1.1/"
   xmlns:cc="http://creativecommons.org/ns#"
   xmlns:rdf="http://www.w3.org/1999/02/22-rdf-syntax-ns#"
   xmlns:svg="http://www.w3.org/2000/svg"
   xmlns="http://www.w3.org/2000/svg"
   xmlns:sodipodi="http://sodipodi.sourceforge.net/DTD/sodipodi-0.dtd"
   xmlns:inkscape="http://www.inkscape.org/namespaces/inkscape"
   width="100"
   height="60"
   viewBox="0 0 26.458333 15.875"
   version="1.1"
   id="svg8"
   sodipodi:docname="Stone1.svg"
   inkscape:version="1.0.2-2 (e86c870879, 2021-01-15)">
  <defs
     id="defs2">
    <inkscape:perspective
       sodipodi:type="inkscape:persp3d"
       inkscape:vp_x="0 : 11.404167 : 1"
       inkscape:vp_y="0 : 1000 : 0"
       inkscape:vp_z="9.9999999 : 11.404167 : 1"
       inkscape:persp3d-origin="5.0000001 : 9.7375002 : 1"
       id="perspective1944" />
    <mask
       maskUnits="userSpaceOnUse"
       id="mask4667">
      <path
         style="fill:#8f8980;fill-opacity:1;stroke:none;stroke-width:0.264583px;stroke-linecap:butt;stroke-linejoin:miter;stroke-opacity:1"
         d="m 0.47624997,0.59531247 c -0.11073061,0.11898408 -0.12732554,0.31444944 0.047625,0.35718748 0.1366134,0.006177 0.2513938,-0.0269326 0.33337498,-0.1190625 0.0306756,-0.10038779 0.0524371,-0.2013117 -0.047625,-0.30956248 -0.047625,-0.047625 -0.12865574,-0.0973955 -0.33337498,0.0714375 z"
         id="path4669"
         sodipodi:nodetypes="ccccc" />
    </mask>
    <mask
       maskUnits="userSpaceOnUse"
       id="mask4667-5">
      <path
         style="fill:#8f8980;fill-opacity:1;stroke:none;stroke-width:0.264583px;stroke-linecap:butt;stroke-linejoin:miter;stroke-opacity:1"
         d="m 0.47624997,0.59531247 c -0.11073061,0.11898408 -0.12732554,0.31444944 0.047625,0.35718748 0.1366134,0.006177 0.2513938,-0.0269326 0.33337498,-0.1190625 0.0306756,-0.10038779 0.0524371,-0.2013117 -0.047625,-0.30956248 -0.047625,-0.047625 -0.12865574,-0.0973955 -0.33337498,0.0714375 z"
         id="path4669-3"
         sodipodi:nodetypes="ccccc" />
    </mask>
    <clipPath
       clipPathUnits="userSpaceOnUse"
       id="clipPath2261">
      <path
         style="fill:#7c5c2c;fill-opacity:1;stroke:none;stroke-width:0.0217377;stroke-linecap:butt;stroke-linejoin:bevel;stroke-miterlimit:4;stroke-dasharray:none;stroke-opacity:1"
         d="m 0,0.714375 v 0.47625 L 1.190625,1.905 V 1.4287499 Z"
         id="path2263"
         sodipodi:nodetypes="ccccc" />
    </clipPath>
    <clipPath
       clipPathUnits="userSpaceOnUse"
       id="clipPath2305">
      <path
         style="fill:#c29652;stroke-width:0.0665578"
         d="m 1.2326512,0.15157154 c -0.04977,0.0644244 0.1665026,0.13960197 0.2635591,0.0916145 0.037902,-0.0187398 0.049647,-0.0590102 0.026099,-0.08949 -0.054515,-0.0705654 -0.2357594,-0.0718948 -0.2896596,-0.002124 z m -0.39786189,0.0749663 c 0.038624,0.0926965 0.20510379,0.10892978 0.21093819,0.0205682 0.00216,-0.0327422 -0.051924,-0.068787 -0.12019119,-0.0800995 -0.077593,-0.0128579 -0.1116109,0.009458 -0.090747,0.0595313 z M 0.9859863,0.37582962 c -0.1334357,0.043074 -0.11466578,0.16457237 0.043066,0.27876881 0.1700302,0.1231003 0.4117071,0.1267651 0.5348009,0.00811 C 1.7522021,0.48115159 1.3217335,0.26744803 0.9859863,0.37582962 Z m 0.6622852,0.0171283 c 0.031977,0.0767438 0.1340425,0.0905294 0.1432471,0.0193476 0.00307,-0.0237381 -0.034603,-0.0538758 -0.083716,-0.0669727 -0.049113,-0.0130968 -0.075902,0.008334 -0.059531,0.0476251 z M 0.3400743,0.50825167 C 0.2724316,0.59581017 0.51400374,0.72291882 0.60686535,0.64862983 0.65067795,0.61357973 0.66402575,0.55577913 0.63652685,0.52018404 0.57625205,0.44216294 0.39671358,0.43493645 0.3400743,0.50825167 Z m 1.560662,0.002633 c -0.055032,0.0712346 0.084953,0.14181634 0.1840714,0.0928096 0.083222,-0.041147 0.028587,-0.14822794 -0.075628,-0.14822794 -0.036097,0 -0.084896,0.024938 -0.1084434,0.0554183 z M 0.16278078,0.75684282 c 0.0179058,0.042974 0.076507,0.089855 0.1302246,0.10417971 0.0558105,0.014883 0.0837158,-0.00744 0.0651123,-0.05209 -0.017907,-0.042974 -0.076507,-0.089855 -0.13022461,-0.10417971 -0.0558106,-0.014883 -0.0837158,0.00744 -0.0651123,0.05209 z m 1.72584812,0.023194 c -0.055949,0.1166417 0.026646,0.2112101 0.1844738,0.2112101 0.152866,0 0.3081473,-0.11099601 0.3081473,-0.2202656 0,-0.10826001 -0.44023,-0.10016759 -0.4926211,0.00906 z m -1.31747545,0.012256 c -0.026929,0.021544 -0.0116681,0.075122 0.033916,0.1190625 0.094906,0.091484 0.48066005,0.10797758 0.54604065,0.0233471 0.08746,-0.11321053 -0.45113831,-0.24546433 -0.57995665,-0.1424096 z m 0.72971525,0.081674 c -0.028944,0.037467 -0.018919,0.09509 0.022283,0.12804968 0.1057129,0.08457 0.3511664,0.034863 0.3511664,-0.071116 0,-0.10702718 -0.2994766,-0.15268329 -0.3734494,-0.0569337 z M 0.0930176,0.97140324 C 0.0418579,0.98777422 0,1.0664194 0,1.1461702 0,1.2925006 0.0801846,1.3005355 0.50229492,1.1965022 0.63689852,1.1633282 0.61643903,1.0706261 0.46508792,1.0279174 0.39346436,1.0077066 0.30137698,0.98002553 0.26044924,0.96640393 0.2195215,0.95278244 0.14417727,0.95503222 0.0930176,0.97140324 Z M 0.8371581,1.1110429 C 0.53229745,1.2111166 0.68363515,1.467497 1.047568,1.467497 1.30508,1.467497 1.4717262,1.3163049 1.3647452,1.1797335 1.2723862,1.0618287 1.0681057,1.0352319 0.8371581,1.1110429 Z m 0.8341491,0.024222 c -0.1185356,0.069984 -0.1280317,0.1005143 -0.050753,0.1631754 0.1105087,0.089606 0.3514186,3.969e-4 0.3514186,-0.1301268 0,-0.1156397 -0.1355411,-0.1305381 -0.3006656,-0.033049 z m 0.5611147,0.0013 c 0,0.047181 0.033486,0.1023401 0.074414,0.1225759 0.040928,0.020236 0.074414,-0.018367 0.074414,-0.085784 0,-0.067417 -0.033486,-0.1225759 -0.074414,-0.1225759 -0.040928,0 -0.074414,0.038603 -0.074414,0.085784 z M 1.8138631,1.3580626 c -0.1482001,0.088054 -0.099363,0.1927782 -0.051738,0.2404031 0.047625,0.047625 0.1330544,-0.00725 0.2812835,-0.037014 0.1617175,-0.032471 0.1614221,-0.2213478 0.14656,-0.2911263 -0.015343,-0.072036 -0.1399433,-0.052578 -0.3761055,0.087737 z M 1.3565064,1.5381909 c 0.045993,0.1103842 0.2061888,0.1286922 0.2061888,0.023564 0,-0.051842 -0.05302,-0.094258 -0.1178221,-0.094258 -0.064802,0 -0.1045673,0.031812 -0.088367,0.070693 z m -0.89936318,0.041839 c -0.30476213,-1.06720946 -0.15238106,-0.5336048 0,0 z m 0.31527488,0.092976 c -0.06424,0.1339249 0.03433,0.2112099 0.2693789,0.2112099 0.2692759,0 0.3635495,-0.1118796 0.1831812,-0.2173905 C 1.0449868,1.5615352 0.82444241,1.5645471 0.7724181,1.6730059 Z"
         id="path2307"
         sodipodi:nodetypes="cscccscssssssccscsscscsscsscsscsscccscccscsssssssssscsscsssssscssssssssccssss" />
    </clipPath>
    <clipPath
       clipPathUnits="userSpaceOnUse"
       id="clipPath2373">
      <path
         style="fill:#aa7e3d;fill-opacity:1;fill-rule:evenodd;stroke:none;stroke-width:0.0206222;stroke-linecap:butt;stroke-linejoin:bevel;stroke-miterlimit:1;stroke-dasharray:none;stroke-opacity:1;paint-order:stroke markers fill"
         d="M -9.9999998e-8,0.71437497 1.1906248,5.0000001e-8 2.3812499,0.71437497 1.1906248,1.4287499 Z"
         id="path2375" />
    </clipPath>
    <filter
       style="color-interpolation-filters:sRGB"
       inkscape:label="Greyscale"
       id="filter35905">
      <feColorMatrix
         values="0.21 0.72 0.072 0 0 0.21 0.72 0.072 0 0 0.21 0.72 0.072 0 0 0 0 0 1 0 "
         id="feColorMatrix35903" />
    </filter>
    <filter
       style="color-interpolation-filters:sRGB"
       inkscape:label="Greyscale"
       id="filter35909">
      <feColorMatrix
         values="0.21 0.72 0.072 0 0 0.21 0.72 0.072 0 0 0.21 0.72 0.072 0 0 0 0 0 1 0 "
         id="feColorMatrix35907" />
    </filter>
    <filter
       style="color-interpolation-filters:sRGB"
       inkscape:label="Greyscale"
       id="filter35913">
      <feColorMatrix
         values="0.21 0.72 0.072 0 0 0.21 0.72 0.072 0 0 0.21 0.72 0.072 0 0 0 0 0 1 0 "
         id="feColorMatrix35911" />
    </filter>
  </defs>
  <sodipodi:namedview
     id="base"
     pagecolor="#ffffff"
     bordercolor="#666666"
     borderopacity="1.0"
     inkscape:pageopacity="0.0"
     inkscape:pageshadow="2"
     inkscape:zoom="9.4469466"
     inkscape:cx="50"
     inkscape:cy="38.150563"
     inkscape:document-units="mm"
     inkscape:current-layer="layer1"
     inkscape:document-rotation="0"
     showgrid="true"
     showguides="true"
     inkscape:guide-bbox="true"
     inkscape:window-width="1920"
     inkscape:window-height="1017"
     inkscape:window-x="-8"
     inkscape:window-y="-8"
     inkscape:window-maximized="1"
     units="px">
    <inkscape:grid
       type="xygrid"
       id="grid1942"
       units="px"
       dotted="false"
       spacingx="0.023812499"
       spacingy="0.023812499"
       empspacing="10"
       visible="true" />
  </sodipodi:namedview>
  <metadata
     id="metadata5">
    <rdf:RDF>
      <cc:Work
         rdf:about="">
        <dc:format>image/svg+xml</dc:format>
        <dc:type
           rdf:resource="http://purl.org/dc/dcmitype/StillImage" />
        <dc:title></dc:title>
      </cc:Work>
    </rdf:RDF>
  </metadata>
  <g
     inkscape:label="Layer 1"
     inkscape:groupmode="layer"
     id="layer1">
    <path
       style="fill:#aa7e3d;fill-opacity:1;fill-rule:evenodd;stroke:none;stroke-width:0.0206222;stroke-linecap:butt;stroke-linejoin:bevel;stroke-miterlimit:1;stroke-dasharray:none;stroke-opacity:1;paint-order:stroke markers fill;filter:url(#filter35913)"
       d="M 0,0.71437492 1.1906249,0 2.38125,0.71437492 1.1906249,1.4287499 Z"
       id="path1960"
       transform="scale(11,11.166667)" />
    <ellipse
       style="fill:#a97d3c;fill-opacity:1;fill-rule:evenodd;stroke:none;stroke-width:0.0295511;stroke-linejoin:bevel;stroke-opacity:1;paint-order:stroke markers fill;filter:url(#filter35909)"
       id="path5289-5-6"
       cx="0.049528189"
       cy="-1.395413"
       rx="0.14872219"
       ry="0.25683093"
       transform="matrix(-4.8080079,10.04349,-10.088886,-4.4498348,1.2626442e-8,6.7379639e-8)" />
    <g
       id="g3050"
       transform="matrix(2.27516,0,0,1.3786997,-2.8503767,-1.5008192)"
       style="filter:url(#filter35905)">
      <g
         id="g3008"
         transform="matrix(0.18708867,0.18708867,-0.18708867,0.18708867,7.0490881,0.87573854)">
        <path
           style="fill:#c29652"
           d="M 0.27547828,30.75 C 0.78175223,29.318699 6.9341627,29.534163 8.435782,31.035782 9.0547393,31.654739 7.6872164,32 4.6166667,32 1.220856,32 -0.03841172,31.637407 0.27547828,30.75 Z M 20.8125,31.316886 c 0.721875,-0.288871 1.584375,-0.253344 1.916667,0.07895 0.332291,0.332292 -0.258334,0.568641 -1.3125,0.52522 -1.164943,-0.04798 -1.4019,-0.284941 -0.604167,-0.604167 z m 5.633649,-0.404018 c -0.971779,-1.572373 1.128999,-3.289877 3.099258,-2.533817 1.36401,0.52342 1.447633,0.924409 0.444772,2.132782 -1.463252,1.763111 -2.621236,1.894146 -3.54403,0.401035 z M 9.1083487,27.708349 c -3.093514,-3.093514 1.0396303,-6.550121 8.3060283,-6.946449 4.220531,-0.230199 5.054642,0.0713 6.89097,2.490819 1.568877,2.067129 1.804116,3.037818 0.944511,3.897423 -1.532987,1.532987 -14.711005,1.988711 -16.1415093,0.558207 z M 1.039869,25.548039 C -0.84307572,23.27923 0.18362335,20.5 2.9047085,20.5 c 3.1544137,0 4.9413038,2.775691 3.164858,4.916177 -1.6380514,1.973732 -3.4614092,2.021534 -5.0296975,0.131862 z M 27.507147,25.011564 C 26.658513,23.638445 28.753219,21 30.691996,21 c 2.033335,0 1.255524,4.394324 -0.848759,4.795153 -0.91122,0.173571 -1.962461,-0.179044 -2.33609,-0.783589 z M 6.25,18.509132 C 2.5276839,16.89126 2.2606131,15.979111 4.8287407,13.654988 7.3609432,11.363376 8.8777734,11.57607 11.697009,14.618075 15.988628,19.248809 12.948447,21.420554 6.25,18.509132 Z m 18,0.828587 c -2.084294,-0.84103 -1.403172,-3.310807 1.245938,-4.517822 2.062331,-0.939661 2.844092,-0.822149 4.5,0.676427 3.031863,2.743798 2.532692,4.516517 -1.245938,4.424729 -1.7875,-0.04342 -3.8125,-0.305921 -4.5,-0.583334 z m -7.754365,-1.344782 c -0.784259,-1.268958 2.015196,-2.413294 3.563241,-1.45655 0.84256,0.520731 0.787931,0.945978 -0.202113,1.5733 -1.78772,1.132756 -2.606468,1.104316 -3.361128,-0.11675 z M 14.25,13.8819 C 12.264021,11.845239 12.778209,10.166053 15.878819,8.5626653 17.462169,7.7438831 19.03461,6.3521901 19.373133,5.4700142 20.413245,2.759525 25.289801,4.0040862 26.432228,7.2715883 27.227299,9.5456019 27.03254,10.411904 25.347383,12.097062 22.836536,14.607909 16.026044,15.703268 14.25,13.8819 Z M 0,12 C 0,10.711111 0.50641026,10.002137 1.25,10.25 1.9375,10.479167 2.5,11.266667 2.5,12 2.5,12.733333 1.9375,13.520833 1.25,13.75 0.50641026,13.997863 0,13.288889 0,12 Z m 30,0.559017 c 0,-0.792541 0.45,-1.719098 1,-2.059017 0.55,-0.339919 1,0.308524 1,1.440983 C 32,13.073442 31.55,14 31,14 30.45,14 30,13.351558 30,12.559017 Z M 6,9.9656841 C 4.7016703,9.0969367 4.7609789,8.7628783 6.4411296,7.4809968 10.079108,4.7053789 14.582982,6.387697 11.963645,9.5438049 10.563846,11.230459 8.1458266,11.401514 6,9.9656841 Z m 22.06751,-2.38434 C 26.254382,5.3966593 27.182089,2.5481535 29.829438,2.1713779 31.886591,1.8786 32.103626,2.1974228 31.819222,5.0943662 31.459279,8.760766 29.902697,9.7926102 28.06751,7.5813441 Z M 0,5.5 C 0,4.009288 0.43059869,3.1480906 1,3.5 1.55,3.8399187 2,4.7399187 2,5.5 2,6.2600813 1.55,7.1600813 1,7.5 0.43059869,7.8519094 0,6.990712 0,5.5 Z M 4.221951,4.8341469 C 4.7385002,3.2844995 7.8809543,3.0238172 8.25,4.5 8.3875,5.05 7.437378,5.6503661 6.1386177,5.8341469 c -1.6189175,0.2290846 -2.221555,-0.085335 -1.9166667,-1 z M 10.380002,3.5478871 C 9.5167265,1.2982262 10.841339,0 14,0 17.618615,0 18.885495,1.8793416 16.461646,3.6517039 14.042869,5.4203565 11.079122,5.3697638 10.380002,3.5478871 Z M 20.6875,2.3541667 C 19.383401,1.0500678 20.006008,0 22.083333,0 c 1.163743,0 1.908611,0.52416667 1.6875,1.1875 C 23.283719,2.648843 21.613972,3.280639 20.6875,2.3541667 Z M 0.5,1 C 0.12402033,0.39165211 1.5696016,0.00599728 4.190983,0.01531277 7.341568,0.02650888 8.0967414,0.29123126 7,1 5.0371296,2.2685043 1.2839788,2.2685043 0.5,1 Z"
           id="path3012" />
        <path
           style="fill:#b78650"
           d="M 8.1858024,30.785802 C 7.6860349,30.286035 5.6417968,29.792279 3.6430511,29.688567 0.59416982,29.530365 0.00824601,29.136315 0.00448404,27.241526 5.0867763e-4,25.239257 0.22504962,25.123598 1.9838345,26.221977 c 1.6495906,1.030187 2.2785486,0.944211 3.7330493,-0.510289 2.2657758,-2.265776 0.5963868,-5.223185 -2.9269304,-5.18521 -2.07263257,0.02234 -2.45726225,-0.446582 -2.46072854,-3 C 0.3269652,15.861915 1.0394652,13.9375 1.9125582,13.25 3.3510813,12.117263 3.3296649,11.867886 1.6842645,10.59169 0.13254209,9.3881531 0.0561997,8.8828723 1.1592239,7.1166498 2.1777081,5.4857973 2.1915719,4.7915719 1.2249594,3.8249594 -0.64958563,1.9504144 -0.28266279,1.5094536 3.25,1.3913046 5.0375,1.3315222 7.4820111,0.94951111 8.6822469,0.54239113 10.546125,-0.08983634 10.784881,0.10661144 10.318793,1.888935 9.6161721,4.575762 12.241972,5.6664107 15.661839,4.1082151 17.273682,3.3738101 17.989872,2.415989 17.629454,1.4767555 16.843153,-0.57231073 18.985843,-0.37781937 20.639757,1.75 c 1.29547,1.6666667 1.425016,1.6666667 2.720486,0 C 24.828067,-0.13840722 32,-0.76098837 32,1 c 0,0.55 -0.914123,1 -2.031385,1 -1.117261,0 -2.313878,0.7361652 -2.659147,1.6359228 -0.81116,2.1138482 1.006747,4.9037689 3.078922,4.7251883 1.939024,-0.1671055 1.968694,0.061245 0.36161,2.7831109 -1,1.693668 -1,2.207621 0,2.569765 0.6875,0.248974 1.25,1.159924 1.25,2.024334 0,1.34837 -0.284716,1.313989 -2.004062,-0.241997 -1.655908,-1.498576 -2.437669,-1.616088 -4.5,-0.676427 -4.802172,2.188016 -2.604069,5.16488 3.835849,5.194845 L 32.5,20.029484 30,21.294275 c -3.147472,1.592358 -3.307534,4.234222 -0.25,4.126324 1.898701,-0.067 2.25,0.440428 2.25,3.25 C 32,31.075074 31.549276,32 30.377555,32 c -1.323057,0 -1.394539,-0.27461 -0.387376,-1.488167 0.99821,-1.202769 0.934987,-1.603319 -0.329668,-2.088613 -2.005502,-0.769583 -3.938226,0.410682 -3.318233,2.026359 0.360178,0.938608 -1.714804,1.246983 -8.384591,1.246085 C 13.082918,31.695008 8.6855698,31.28557 8.1858024,30.785802 Z M 25.249858,27.150142 C 26.109463,26.290537 25.874224,25.319848 24.305347,23.252719 22.469019,20.8332 21.634908,20.531701 17.414377,20.7619 10.147979,21.158228 6.0148347,24.614835 9.1083487,27.708349 10.538853,29.138853 23.716871,28.683129 25.249858,27.150142 Z M 13.593064,18.618075 C 14.201624,17.032192 9.9215008,12 7.96407,12 6.4337314,12 3,14.907467 3,16.203261 c 0,1.076923 5.7871655,3.702792 8.281385,3.757597 0.979761,0.02153 2.020017,-0.582724 2.311679,-1.342783 z m 6.263699,-0.508388 c 0.990044,-0.627322 1.044673,-1.052569 0.202113,-1.5733 -1.548045,-0.956744 -4.3475,0.187592 -3.563241,1.45655 0.75466,1.221066 1.573408,1.249506 3.361128,0.11675 z m 5.49062,-6.012625 C 27.03254,10.411904 27.227299,9.5456019 26.432228,7.2715883 25.289801,4.0040862 20.413245,2.759525 19.373133,5.4700142 19.03461,6.3521901 17.462169,7.7438831 15.878819,8.5626653 12.778209,10.166053 12.264021,11.845239 14.25,13.8819 c 1.776044,1.821368 8.586536,0.726009 11.097383,-1.784838 z M 11.963645,9.5438049 C 14.582982,6.387697 10.079108,4.7053789 6.4411296,7.4809968 4.7609789,8.7628783 4.7016703,9.0969367 6,9.9656841 8.1458266,11.401514 10.563846,11.230459 11.963645,9.5438049 Z M 8.25,4.5 C 7.8809543,3.0238172 4.7385002,3.2844995 4.221951,4.8341469 c -0.3048883,0.914665 0.2977492,1.2290846 1.9166667,1 C 7.437378,5.6503661 8.3875,5.05 8.25,4.5 Z"
           id="path3010" />
      </g>
    </g>
  </g>
</svg>
