<?xml version="1.0" encoding="UTF-8" standalone="no"?>
<svg
   xmlns:dc="http://purl.org/dc/elements/1.1/"
   xmlns:cc="http://creativecommons.org/ns#"
   xmlns:rdf="http://www.w3.org/1999/02/22-rdf-syntax-ns#"
   xmlns:svg="http://www.w3.org/2000/svg"
   xmlns="http://www.w3.org/2000/svg"
   xmlns:sodipodi="http://sodipodi.sourceforge.net/DTD/sodipodi-0.dtd"
   xmlns:inkscape="http://www.inkscape.org/namespaces/inkscape"
   width="120"
   height="100"
   viewBox="0 0 31.749998 26.458336"
   version="1.1"
   id="svg1634"
   inkscape:version="1.0.2-2 (e86c870879, 2021-01-15)"
   sodipodi:docname="TallGrass_1.svg">
  <defs
     id="defs1628" />
  <sodipodi:namedview
     id="base"
     pagecolor="#ffffff"
     bordercolor="#666666"
     borderopacity="1.0"
     inkscape:pageopacity="0.0"
     inkscape:pageshadow="2"
     inkscape:zoom="14.619433"
     inkscape:cx="92.650672"
     inkscape:cy="26.471379"
     inkscape:document-units="mm"
     inkscape:current-layer="g2261"
     inkscape:document-rotation="0"
     showgrid="false"
     units="px"
     inkscape:window-width="1920"
     inkscape:window-height="1017"
     inkscape:window-x="-8"
     inkscape:window-y="-8"
     inkscape:window-maximized="1" />
  <metadata
     id="metadata1631">
    <rdf:RDF>
      <cc:Work
         rdf:about="">
        <dc:format>image/svg+xml</dc:format>
        <dc:type
           rdf:resource="http://purl.org/dc/dcmitype/StillImage" />
        <dc:title></dc:title>
      </cc:Work>
    </rdf:RDF>
  </metadata>
  <g
     inkscape:label="Layer 1"
     inkscape:groupmode="layer"
     id="layer1">
    <g
       id="g2261"
       transform="matrix(0.21731043,0,0,0.18710199,2.9710783,0.39293503)">
      <path
         style="fill:#0f2a10;fill-opacity:1;stroke:none;stroke-width:13.1206px;stroke-linecap:butt;stroke-linejoin:miter;stroke-opacity:1"
         d="m 27.777285,50.631506 c -0.899051,-4.033003 -2.415771,-6.504933 -4.044007,-8.695052 l 3.438054,2.775923 C 26.613538,37.212044 24.773864,27.893378 19.249913,19.691289 22.787287,19.323764 26.19953,22.993508 29.652843,25.33796 30.610912,17.253249 30.476251,8.7194315 29.39069,-0.20520019 30.912174,3.969327 32.431648,6.7119189 33.957346,13.879735 35.906899,10.269231 38.517864,7.2166581 42.085805,4.9713779 39.100631,12.897457 38.909607,20.53619 42.970538,19.932861 c 4.4572,-4.611895 8.793662,-5.714906 13.120743,-6.545173 -3.853235,4.814141 -9.747131,8.050343 -10.80566,15.025478 5.770402,-0.108682 8.264592,-4.772775 13.272667,-8.157455 -2.222884,3.225933 -1.744405,7.494662 -4.901306,9.520844 3.392596,0.141061 2.28382,0.285111 5.613567,4.40111 -6.001578,-1.919431 -7.027751,0.253443 -11.681649,2.561251 l -4.656447,3.325017 11.234375,4.53626 c -3.632896,-0.408321 -7.255062,-0.766587 -10.590627,0.212396 l -3.830733,3.130072 c 2.773406,0.7242 5.718938,0.845382 7.968106,3.406215 -5.552799,0.450219 -10.414637,1.081062 -14.855282,2.124892 l -2.798714,-2.139141 z"
         id="path2399-6-4"
         sodipodi:nodetypes="ccccccccccccccccccccccc" />
      <path
         style="fill:#276d28;fill-opacity:1;stroke:none;stroke-width:16.5803px;stroke-linecap:butt;stroke-linejoin:miter;stroke-opacity:1"
         d="m 42.742867,40.929235 c 6.324995,-6.675168 9.343912,-8.866791 16.527686,-6.75157 -4.609833,-3.693281 -3.563698,-3.74977 -8.358893,-3.340415 2.649153,-3.673969 4.651607,-7.010675 7.646632,-10.581539 -13.372516,2.706553 -11.628366,12.963201 -15.815425,20.673524 z"
         id="path2335-2-8-9"
         sodipodi:nodetypes="ccccc" />
      <path
         style="fill:#256926;fill-opacity:1;stroke:none;stroke-width:15.4841px;stroke-linecap:butt;stroke-linejoin:miter;stroke-opacity:1"
         d="m 50.71773,46.382975 c 0,0 -22.165053,-17.024412 -19.271889,-26.569039 C 34.338968,10.269289 42.085805,4.9713779 42.085805,4.9713779 38.247491,13.047228 37.250256,23.546398 50.71773,46.382975 Z"
         id="path2313-2-1-0"
         sodipodi:nodetypes="cscc" />
      <path
         style="fill:#3ca83d;fill-opacity:1;stroke:none;stroke-width:12.3202px;stroke-linecap:butt;stroke-linejoin:miter;stroke-opacity:1"
         d="m 27.777277,50.6315 c 0,0 9.564919,-22.448696 16.229328,-20.827305 6.664436,1.621359 10.88552,8.216242 10.88552,8.216242 -5.75703,-2.661262 -12.902241,-2.41827 -27.114848,12.611063 z"
         id="path2313-2-0-2-9"
         sodipodi:nodetypes="cscc" />
      <path
         style="fill:#318832;fill-opacity:1;stroke:none;stroke-width:20.3487px;stroke-linecap:butt;stroke-linejoin:miter;stroke-opacity:1"
         d="M 33.375339,34.892886 56.091285,13.387688 c -9.50026,3.723248 -17.338872,8.760491 -22.889975,15.606648 -1.084961,-2.741905 -3.083291,-3.983662 -4.97322,-5.403597 0.256614,3.887444 5.606211,8.610319 5.147249,11.302147 z"
         id="path2357-2-4-5-3"
         sodipodi:nodetypes="ccccc" />
      <path
         style="fill:#29712a;fill-opacity:1;stroke:none;stroke-width:26.7417px;stroke-linecap:butt;stroke-linejoin:miter;stroke-opacity:1"
         d="M 30.059578,51.334627 30.731035,0.00559428 C 34.561443,15.144956 36.188976,29.995609 34.783932,44.448816 c 2.907857,-2.073178 5.293042,-1.319629 7.740372,-0.901718 -3.214191,4.378707 -10.690395,4.04052 -12.464726,7.787529 z"
         id="path2357-5-5-6"
         sodipodi:nodetypes="ccccc" />
      <path
         style="fill:#318832;fill-opacity:1;stroke:none;stroke-width:17.3125px;stroke-linecap:butt;stroke-linejoin:miter;stroke-opacity:1"
         d="M 34.465991,50.090596 C 42.662266,41.594905 49.496335,41.282959 54.166826,44.600191 52.28722,39.347902 49.744039,36.930248 45.75522,37.151392 49.608225,32.418806 54.365214,29.05369 58.442477,24.482511 46.57009,27.19188 41.466353,40.06524 34.465991,50.090596 Z"
         id="path2335-3-0-9"
         sodipodi:nodetypes="ccccc" />
      <path
         style="fill:#29712a;fill-opacity:1;stroke:none;stroke-width:11.8111px;stroke-linecap:butt;stroke-linejoin:miter;stroke-opacity:1"
         d="M 32.443543,49.925755 47.08228,34.089429 c -5.414295,3.101721 -10.145551,6.973902 -13.936496,11.906738 -0.192977,-1.761751 -1.059839,-2.462161 -1.846731,-3.288637 -0.389415,2.580613 1.743447,5.390132 1.14449,7.218225 z"
         id="path2357-5-8-2-2"
         sodipodi:nodetypes="ccccc" />
      <path
         style="fill:#1f5820;fill-opacity:1;stroke:none;stroke-width:13.1206px;stroke-linecap:butt;stroke-linejoin:miter;stroke-opacity:1"
         d="m 32.858287,53.473769 c 0,0 8.519422,-20.099535 17.075034,-18.302822 8.555612,1.796713 9.225344,4.953537 9.225344,4.953537 -7.582,-2.706073 -10.860052,0.258972 -26.300374,13.349274 z"
         id="path2313-7-8"
         sodipodi:nodetypes="cscc" />
      <path
         style="fill:#256926;fill-opacity:1;stroke:none;stroke-width:14.3968px;stroke-linecap:butt;stroke-linejoin:miter;stroke-opacity:1"
         d="m 27.777277,50.6315 c 0,0 7.168769,-31.020235 1.222819,-36.743089 C 23.054137,8.1655516 15.759265,9.6662058 15.759265,9.6662058 21.694647,13.449302 26.813767,21.409037 27.777277,50.6315 Z"
         id="path2313-6-1-1"
         sodipodi:nodetypes="cscc" />
      <path
         style="fill:#318832;fill-opacity:1;stroke:none;stroke-width:13.1206px;stroke-linecap:butt;stroke-linejoin:miter;stroke-opacity:1"
         d="m 27.777277,50.6315 c -0.596852,-8.952962 -4.472642,-13.67807 -8.882572,-15.478848 3.728902,-0.860241 6.43518,-0.127031 8.677858,2.646662 0.08799,-4.507649 -1.03944,-9.070337 -1.164256,-13.663593 5.651913,9.085581 2.240663,17.728682 1.36897,26.495779 z"
         id="path2335-4-4"
         sodipodi:nodetypes="ccccc" />
      <path
         style="fill:#318832;fill-opacity:1;stroke:none;stroke-width:17.2966px;stroke-linecap:butt;stroke-linejoin:miter;stroke-opacity:1"
         d="m 27.777277,50.6315 6.18006,-36.75177 c 0.526667,10.865432 -0.198857,21.510132 -2.648213,31.850953 1.929707,-1.466098 3.235808,-0.911337 4.615999,-0.596528 -2.368361,3.115113 -6.690471,2.825436 -8.147846,5.497345 z"
         id="path2357-3-0"
         sodipodi:nodetypes="ccccc" />
      <path
         style="fill:#318832;fill-opacity:1;stroke:none;stroke-width:12.9407px;stroke-linecap:butt;stroke-linejoin:miter;stroke-opacity:1"
         d="M 32.858287,53.473769 47.155143,41.471024 c -6.244547,1.855666 -11.297956,4.566542 -14.7116,8.454731 -0.872567,-1.689377 -2.288003,-2.514662 -3.639023,-3.442586 0.369427,2.34399 4.228999,5.392957 4.053767,6.9906 z"
         id="path2357-2-5-7"
         sodipodi:nodetypes="ccccc" />
      <path
         style="fill:#1f5820;fill-opacity:1;stroke:none;stroke-width:7.05575px;stroke-linecap:butt;stroke-linejoin:miter;stroke-opacity:1"
         d="m 32.858278,53.47379 c 0,0 6.971909,-9.661469 11.115231,-7.635409 4.143328,2.026058 6.537199,6.134023 6.537199,6.134023 -3.526998,-2.38979 -8.051251,-3.55679 -17.652421,1.501365 z"
         id="path2313-4-1-0"
         sodipodi:nodetypes="cscc" />
      <path
         style="fill:#1b4c1d;fill-opacity:1;stroke:none;stroke-width:13.1206px;stroke-linecap:butt;stroke-linejoin:miter;stroke-opacity:1"
         d="M 11.422172,55.057597 C 9.1552767,51.829066 6.8883913,50.318558 4.6214959,49.1182 l 4.121987,0.854901 C 5.5400673,43.428499 0.51813767,35.85338 -7.450044,31.079668 -4.3679706,29.030124 0.05191741,30.709713 4.0326435,31.165162 1.9965034,23.35439 -1.1940031,15.665504 -5.3890455,8.0826844 -2.5056994,11.137936 -0.13900041,12.893044 3.8243468,18.666082 4.2977166,14.439909 5.5726652,10.399918 8.0074099,6.6293436 8.1446011,15.2791 10.717367,22.312628 14.190395,19.794905 c 2.391898,-6.352264 5.935632,-9.457649 9.5689,-12.3106554 -1.770397,6.2431154 -5.96234,12.0421494 -4.416408,18.8934354 5.204161,-2.897345 8.14901,-8.943588 11.482676,-14.44792 -0.859995,4.0093 -1.245891,8.254585 -3.385919,11.626728 3.133374,-1.517205 7.124528,-0.757227 11.629895,1.36785 -6.143381,1.166627 -11.241443,3.547337 -14.640452,7.90141 l -3.035611,5.279584 11.838952,-1.326717 c -3.447809,1.3909 -6.867872,2.822081 -9.546738,5.329343 l -2.35542,4.701986 c 2.780408,-0.687033 5.500411,-2.005482 8.464795,-0.769417 -4.883647,3.102137 -9.074516,6.033294 -12.734193,9.135431 l -3.312118,-0.586369 z"
         id="path2399-6"
         sodipodi:nodetypes="ccccccccccccccccccccccc" />
      <path
         style="fill:#276d28;fill-opacity:1;stroke:none;stroke-width:16.5803px;stroke-linecap:butt;stroke-linejoin:miter;stroke-opacity:1"
         d="M 21.532307,38.983538 C 24.87956,29.850631 32.136634,25.258731 39.424602,23.696655 33.90807,22.576502 29.536418,23.154162 25.326472,25.851742 26.412712,21.228601 29.38798,16.626963 30.825563,11.929765 19.647797,20.874592 22.564771,29.946924 21.532307,38.983538 Z"
         id="path2335-2-8"
         sodipodi:nodetypes="ccccc" />
      <path
         style="fill:#19471a;fill-opacity:1;stroke:none;stroke-width:15.4841px;stroke-linecap:butt;stroke-linejoin:miter;stroke-opacity:1"
         d="m 30.739385,40.071313 c 0,0 -26.26088,-4.719288 -27.0635888,-14.795104 C 2.8730474,15.200392 8.0074099,6.6293436 8.0074099,6.6293436 7.4232472,15.828953 10.291864,25.852601 30.739385,40.071313 Z"
         id="path2313-2-1"
         sodipodi:nodetypes="cscc" />
      <path
         style="fill:#3ca83d;fill-opacity:1;stroke:none;stroke-width:12.3202px;stroke-linecap:butt;stroke-linejoin:miter;stroke-opacity:1"
         d="m 11.422162,55.057595 c 0,0 0.62016,-25.036743 7.258667,-26.795651 6.638519,-1.758947 12.845024,2.186265 12.845024,2.186265 -6.187886,0.373964 -12.59297,4.060113 -20.103691,24.609386 z"
         id="path2313-2-0-2"
         sodipodi:nodetypes="cscc" />
      <path
         style="fill:#318832;fill-opacity:1;stroke:none;stroke-width:20.3487px;stroke-linecap:butt;stroke-linejoin:miter;stroke-opacity:1"
         d="M 10.850329,38.041807 23.759295,7.4842496 C 16.46556,15.474884 11.154089,23.853589 8.5715039,32.766532 6.5998697,30.801314 4.337654,30.64217 2.1098761,30.268552 c 1.630816,3.407844 8.1896979,5.104752 8.7404529,7.773255 z"
         id="path2357-2-4-5"
         sodipodi:nodetypes="ccccc" />
      <path
         style="fill:#29712a;fill-opacity:1;stroke:none;stroke-width:26.7417px;stroke-linecap:butt;stroke-linejoin:miter;stroke-opacity:1"
         d="M 13.748754,54.589594 -4.095368,7.62417 c 8.9235007,11.898568 15.741576,24.603176 19.661226,38.417417 1.896839,-3.294061 4.335043,-3.766145 6.709042,-4.573347 -1.346284,5.537533 -8.261073,8.856126 -8.526146,13.121354 z"
         id="path2357-5-5"
         sodipodi:nodetypes="ccccc" />
      <path
         style="fill:#318832;fill-opacity:1;stroke:none;stroke-width:17.3125px;stroke-linecap:butt;stroke-linejoin:miter;stroke-opacity:1"
         d="M 17.305347,51.322147 C 21.698396,39.627484 27.795974,36.029581 33.232422,36.778621 29.636184,32.917755 26.456126,31.954386 22.911219,34.089865 24.710728,27.920964 27.82328,22.556183 29.88459,16.42518 20.07092,24.645018 20.061781,38.81757 17.305347,51.322147 Z"
         id="path2335-3-0"
         sodipodi:nodetypes="ccccc" />
      <path
         style="fill:#29712a;fill-opacity:1;stroke:none;stroke-width:11.8111px;stroke-linecap:butt;stroke-linejoin:miter;stroke-opacity:1"
         d="m 15.408398,52.153233 7.607784,-21.489211 c -3.804507,5.444237 -6.711371,11.257279 -8.382495,17.578037 -0.808748,-1.50721 -1.848232,-1.723214 -2.860377,-2.092551 0.573963,2.533719 3.522075,4.052153 3.635088,6.003725 z"
         id="path2357-5-8-2"
         sodipodi:nodetypes="ccccc" />
      <path
         style="fill:#153b16;fill-opacity:1;stroke:none;stroke-width:13.1206px;stroke-linecap:butt;stroke-linejoin:miter;stroke-opacity:1"
         d="m 17.060862,55.175964 c 0,0 0.514768,-22.395139 8.934735,-24.911954 8.419968,-2.516816 16.353054,0.110212 16.353054,0.110212 -7.862241,1.218339 -15.964378,5.418924 -25.287789,24.801742 z"
         id="path2313-7"
         sodipodi:nodetypes="cscc" />
      <path
         style="fill:#1a4b1a;fill-opacity:1;stroke:none;stroke-width:14.3968px;stroke-linecap:butt;stroke-linejoin:miter;stroke-opacity:1"
         d="m 11.422162,55.057595 c 0,0 -4.638794,-31.663107 -12.09906809,-33.979413 -7.46028411,-2.316306 -9.50081091,7.714633 -9.50081091,7.714633 8.0045964,-2.347801 10.21809515,0.179278 21.599879,26.26478 z"
         id="path2313-6-1"
         sodipodi:nodetypes="cscc" />
      <path
         style="fill:#318832;fill-opacity:1;stroke:none;stroke-width:13.1206px;stroke-linecap:butt;stroke-linejoin:miter;stroke-opacity:1"
         d="M 11.422162,55.057595 C 7.660992,47.212015 2.440475,44.798296 -2.214008,45.300803 0.86495554,42.71067 3.5876019,42.064376 6.6226182,43.497001 5.0819465,39.358481 2.4170965,35.759419 0.65227911,31.646323 9.0543731,37.160752 9.0622026,46.66867 11.422162,55.057595 Z"
         id="path2335-4"
         sodipodi:nodetypes="ccccc" />
      <path
         style="fill:#1a4b1a;fill-opacity:1;stroke:none;stroke-width:17.2966px;stroke-linecap:butt;stroke-linejoin:miter;stroke-opacity:1"
         d="M 11.422162,55.057595 3.8243368,18.666082 c 4.3849802,9.617373 7.5528082,19.641479 9.0450332,30.225509 1.226312,-2.268048 2.612543,-2.397414 3.979826,-2.780747 -1.032024,3.979158 -5.063427,5.812125 -5.427034,8.946751 z"
         id="path2357-3"
         sodipodi:nodetypes="ccccc" />
      <path
         style="fill:#318832;fill-opacity:1;stroke:none;stroke-width:12.9407px;stroke-linecap:butt;stroke-linejoin:miter;stroke-opacity:1"
         d="m 17.060862,55.175964 8.675417,-17.840043 c -5.006901,4.714681 -8.62401,9.628752 -10.327881,14.817312 -1.400231,-1.111855 -2.98307,-1.175273 -4.54428,-1.363193 1.178404,1.950684 5.781571,2.849251 6.196744,4.385924 z"
         id="path2357-2-5"
         sodipodi:nodetypes="ccccc" />
      <path
         style="fill:#3ca73d;fill-opacity:1;stroke:none;stroke-width:7.05575px;stroke-linecap:butt;stroke-linejoin:miter;stroke-opacity:1"
         d="m 17.060862,55.175988 c 0,0 2.861408,-12.160134 7.354636,-12.328638 4.493232,-0.168508 8.145335,2.403163 8.145335,2.403163 -4.06398,-0.460909 -8.594481,0.672923 -15.499971,9.925451 z"
         id="path2313-4-1"
         sodipodi:nodetypes="cscc" />
      <path
         style="fill:#0f2a10;fill-opacity:1;stroke:none;stroke-width:13.1206px;stroke-linecap:butt;stroke-linejoin:miter;stroke-opacity:1"
         d="m 21.620221,61.453081 c -2.266895,-3.228531 -4.53378,-4.739039 -6.800676,-5.939397 l 4.121987,0.854901 C 15.738117,49.823983 10.716187,42.248864 2.7480054,37.475152 5.8300788,35.425608 10.249967,37.105197 14.230693,37.560646 12.194553,29.749874 9.0040463,22.060988 4.8090039,14.478168 c 2.8833461,3.055252 5.2500451,4.81036 9.2133921,10.583398 0.47337,-4.226173 1.748319,-8.266164 4.183063,-12.036739 0.137192,8.649757 2.709957,15.683285 6.182987,13.165562 2.391899,-6.352264 5.935634,-9.457649 9.5689,-12.310654 -1.770398,6.243114 -5.962346,12.042149 -4.416415,18.893434 5.204166,-2.897345 8.149015,-8.943588 11.482682,-14.44792 -0.859995,4.0093 -1.245892,8.254585 -3.385919,11.626728 3.133374,-1.517205 7.124527,-0.757227 11.629895,1.36785 -6.143381,1.166627 -11.241443,3.547337 -14.640452,7.90141 l -3.035613,5.279584 11.838953,-1.326717 c -3.447809,1.3909 -6.867872,2.822081 -9.546737,5.329343 l -2.355422,4.701986 c 2.780409,-0.687033 5.500413,-2.005482 8.464796,-0.769417 -4.883647,3.102137 -9.074517,6.033294 -12.734196,9.135431 l -3.312115,-0.586369 z"
         id="path2399"
         sodipodi:nodetypes="ccccccccccccccccccccccc" />
      <path
         style="fill:#276d28;fill-opacity:1;stroke:none;stroke-width:16.5803px;stroke-linecap:butt;stroke-linejoin:miter;stroke-opacity:1"
         d="m 31.730356,45.379022 c 3.347253,-9.132907 10.604327,-13.724807 17.892295,-15.286883 -5.516532,-1.120153 -9.888183,-0.542496 -14.09813,2.155087 1.08624,-4.623141 4.061508,-9.224779 5.499092,-13.921977 -11.177766,8.944827 -8.260792,18.017159 -9.293257,27.053773 z"
         id="path2335-2"
         sodipodi:nodetypes="ccccc" />
      <path
         style="fill:#19471a;fill-opacity:1;stroke:none;stroke-width:15.4841px;stroke-linecap:butt;stroke-linejoin:miter;stroke-opacity:1"
         d="m 40.937434,46.466797 c 0,0 -26.26088,-4.719288 -27.063588,-14.795104 -0.802749,-10.075816 4.331613,-18.646866 4.331613,-18.646866 -0.584162,9.19961 2.284455,19.223258 22.731975,33.44197 z"
         id="path2313-2"
         sodipodi:nodetypes="cscc" />
      <path
         style="fill:#246725;fill-opacity:1;stroke:none;stroke-width:12.3202px;stroke-linecap:butt;stroke-linejoin:miter;stroke-opacity:1"
         d="m 21.620211,61.453079 c 0,0 0.620161,-25.036743 7.258664,-26.795651 6.638522,-1.758947 12.845027,2.186265 12.845027,2.186265 -6.187885,0.373964 -12.592973,4.060113 -20.103691,24.609386 z"
         id="path2313-2-0"
         sodipodi:nodetypes="cscc" />
      <path
         style="fill:#318832;fill-opacity:1;stroke:none;stroke-width:15.0919px;stroke-linecap:butt;stroke-linejoin:miter;stroke-opacity:1"
         d="m 21.048378,52.146548 12.908968,-16.80866 c -7.293739,4.395372 -12.605207,9.00421 -15.187793,13.906913 -1.971634,-1.080998 -4.23385,-1.168538 -6.461627,-1.374053 1.630816,1.874538 8.189697,2.807948 8.740452,4.2758 z"
         id="path2357-2-4"
         sodipodi:nodetypes="ccccc" />
      <path
         style="fill:#29712a;fill-opacity:1;stroke:none;stroke-width:14.2294px;stroke-linecap:butt;stroke-linejoin:miter;stroke-opacity:1"
         d="M 26.157421,60.985078 12.939835,43.032702 c 6.609859,4.548189 11.660178,9.404482 14.56356,14.684929 1.405037,-1.259143 3.211073,-1.439597 4.969553,-1.748147 -0.997226,2.116703 -6.11918,3.385225 -6.315527,5.015594 z"
         id="path2357-5"
         sodipodi:nodetypes="ccccc" />
      <path
         style="fill:#318832;fill-opacity:1;stroke:none;stroke-width:17.3125px;stroke-linecap:butt;stroke-linejoin:miter;stroke-opacity:1"
         d="M 27.503395,57.717631 C 31.896446,46.022968 37.994023,42.425065 43.430471,43.174105 39.834234,39.313239 36.654175,38.34987 33.109269,40.485349 c 1.799509,-6.168901 4.91206,-11.533682 6.973371,-17.664685 -9.813667,8.219838 -9.822812,22.39239 -12.579245,34.896967 z"
         id="path2335-3"
         sodipodi:nodetypes="ccccc" />
      <path
         style="fill:#29712a;fill-opacity:1;stroke:none;stroke-width:11.8111px;stroke-linecap:butt;stroke-linejoin:miter;stroke-opacity:1"
         d="m 25.60645,58.548717 7.607781,-21.489211 c -3.804504,5.444237 -6.711368,11.257279 -8.382497,17.578037 -0.808709,-1.50721 -1.848229,-1.723214 -2.860375,-2.092551 0.573963,2.533719 3.522077,4.052153 3.635091,6.003725 z"
         id="path2357-5-8"
         sodipodi:nodetypes="ccccc" />
      <path
         style="fill:#19471a;fill-opacity:1;stroke:none;stroke-width:8.27609px;stroke-linecap:butt;stroke-linejoin:miter;stroke-opacity:1"
         d="m 27.258913,61.571448 c 0,0 0.266043,-17.241042 4.617579,-19.178628 4.351543,-1.937587 8.451458,0.08489 8.451458,0.08489 -4.063302,0.937945 -8.250586,4.171793 -13.069037,19.09378 z"
         id="path2313"
         sodipodi:nodetypes="cscc" />
      <path
         style="fill:#1a4b1a;fill-opacity:1;stroke:none;stroke-width:8.28842px;stroke-linecap:butt;stroke-linejoin:miter;stroke-opacity:1"
         d="m 26.884596,62.171319 c 0,0 -2.522079,-19.302536 -6.578171,-20.714608 -4.056101,-1.412072 -7.36659,1.575991 -7.36659,1.575991 3.671706,0.340707 7.756575,3.236314 13.944761,19.138617 z"
         id="path2313-6"
         sodipodi:nodetypes="cscc" />
      <path
         style="fill:#1f5820;fill-opacity:1;stroke:none;stroke-width:13.1206px;stroke-linecap:butt;stroke-linejoin:miter;stroke-opacity:1"
         d="M 21.620211,61.453079 C 17.859041,53.607499 12.638524,51.19378 7.9840414,51.696287 11.063005,49.106154 13.785651,48.45986 16.820668,49.892485 c -1.540672,-4.13852 -4.205522,-7.737582 -5.970339,-11.850678 8.402094,5.514429 8.409923,15.022347 10.769882,23.411272 z"
         id="path2335"
         sodipodi:nodetypes="ccccc" />
      <path
         style="fill:#1f5820;fill-opacity:1;stroke:none;stroke-width:12.8283px;stroke-linecap:butt;stroke-linejoin:miter;stroke-opacity:1"
         d="m 21.620211,61.506349 -7.597825,-20.01772 c 4.38498,5.290186 7.552808,10.804102 9.045033,16.626013 1.226312,-1.247575 2.612541,-1.318736 3.97983,-1.529594 -1.032031,2.188798 -5.063431,3.197051 -5.427038,4.921301 z"
         id="path2357"
         sodipodi:nodetypes="ccccc" />
      <path
         style="fill:#1f5820;fill-opacity:1;stroke:none;stroke-width:12.9407px;stroke-linecap:butt;stroke-linejoin:miter;stroke-opacity:1"
         d="m 27.258913,61.571448 8.675415,-17.840043 c -5.006897,4.714681 -8.624014,9.628752 -10.327878,14.817312 -1.400237,-1.111855 -2.983073,-1.175273 -4.544283,-1.363193 1.178405,1.950684 5.781569,2.849251 6.196746,4.385924 z"
         id="path2357-2"
         sodipodi:nodetypes="ccccc" />
      <path
         style="fill:#246725;fill-opacity:1;stroke:none;stroke-width:5.23301px;stroke-linecap:butt;stroke-linejoin:miter;stroke-opacity:1"
         d="m 27.258908,61.571472 c 0,0 2.861412,-6.688872 7.35464,-6.781559 4.493231,-0.09269 8.145334,1.321897 8.145334,1.321897 -4.06398,-0.253533 -8.59448,0.370154 -15.499969,5.459649 z"
         id="path2313-4"
         sodipodi:nodetypes="cscc" />
      <path
         style="fill:#0f2a10;fill-opacity:1;stroke:none;stroke-width:13.1206px;stroke-linecap:butt;stroke-linejoin:miter;stroke-opacity:1"
         d="m 100.82946,50.631506 c -0.899049,-4.033003 -2.415769,-6.504933 -4.044005,-8.695052 l 3.438055,2.775923 c -0.557795,-7.500333 -2.397469,-16.818999 -7.92142,-25.021088 3.537374,-0.367525 6.949617,3.302219 10.40293,5.646671 0.95807,-8.084711 1.50064,-16.4817347 0.41508,-25.40636572 1.52148,4.17452702 2.36373,6.78032452 3.88943,13.94814072 1.94955,-3.610504 10.35836,-5.6840591 13.92631,-7.9293391 -2.98518,7.9260791 -8.97405,14.5857941 -4.91312,13.9824651 4.4572,-4.611895 9.26477,-5.133529 13.59185,-5.963796 -3.85323,4.814141 -10.21824,7.468966 -11.27677,14.444101 5.7704,-0.108682 8.52959,-3.575823 13.53767,-6.960503 -2.22289,3.225933 -2.00941,6.29771 -5.16631,8.323892 3.3926,0.141061 2.04826,0.969083 5.37801,5.085082 -6.00158,-1.919431 -6.79219,-0.430529 -11.44609,1.877279 l -4.65645,3.325017 11.23438,4.53626 c -3.6329,-0.408321 -7.25506,-0.766587 -10.59063,0.212396 l -3.83073,3.130072 c 2.7734,0.7242 6.2195,0.674389 8.46866,3.235222 -5.55279,0.450219 -10.91519,1.252055 -15.35584,2.295885 l -2.79871,-2.139141 z"
         id="path2399-6-4-6"
         sodipodi:nodetypes="ccccccccccccccccccccccc" />
      <path
         style="fill:#276d28;fill-opacity:1;stroke:none;stroke-width:16.5803px;stroke-linecap:butt;stroke-linejoin:miter;stroke-opacity:1"
         d="m 112.61227,39.366105 c 7.32501,-5.113107 10.30819,-5.960855 16.99839,-2.257943 -3.90059,-4.667185 -2.51912,-5.102882 -7.29089,-5.788339 3.21555,-3.002832 5.79896,-4.587469 9.33641,-7.410779 -13.57015,-0.376675 -13.64178,8.844093 -19.04391,15.457061 z"
         id="path2335-2-8-9-1"
         sodipodi:nodetypes="ccccc" />
      <path
         style="fill:#256926;fill-opacity:1;stroke:none;stroke-width:15.4841px;stroke-linecap:butt;stroke-linejoin:miter;stroke-opacity:1"
         d="m 119.50828,46.482842 c 0,0 -20.21449,-20.033534 -16.34184,-29.097761 3.87262,-9.06425 17.7694,-11.4346851 17.7694,-11.4346851 -4.65672,7.4726661 -12.39966,15.9605591 -1.42756,40.5324461 z"
         id="path2313-2-1-0-5"
         sodipodi:nodetypes="cscc" />
      <path
         style="fill:#3ca83d;fill-opacity:1;stroke:none;stroke-width:12.3202px;stroke-linecap:butt;stroke-linejoin:miter;stroke-opacity:1"
         d="m 99.111156,46.694004 c 0,0 13.787214,-19.259695 19.946064,-15.887141 6.15888,3.372529 8.94782,10.924711 8.94782,10.924711 -5.06855,-4.139619 -12.06744,-5.828166 -28.893884,4.96243 z"
         id="path2313-2-0-2-9-6"
         sodipodi:nodetypes="cscc" />
      <path
         style="fill:#318832;fill-opacity:1;stroke:none;stroke-width:20.3487px;stroke-linecap:butt;stroke-linejoin:miter;stroke-opacity:1"
         d="m 106.42752,34.892886 23.18705,-20.923821 c -9.50026,3.723248 -17.80998,8.179114 -23.36108,15.025271 -1.08496,-2.741905 -3.08329,-3.983662 -4.97322,-5.403597 0.25661,3.887444 5.60621,8.610319 5.14725,11.302147 z"
         id="path2357-2-4-5-3-4"
         sodipodi:nodetypes="ccccc" />
      <path
         style="fill:#29712a;fill-opacity:1;stroke:none;stroke-width:26.7417px;stroke-linecap:butt;stroke-linejoin:miter;stroke-opacity:1"
         d="m 103.11176,51.334627 1.34869,-51.32903319 c 3.8304,15.13936219 4.78071,29.99001519 3.37566,44.44322219 2.90786,-2.073178 5.29304,-1.319629 7.74037,-0.901718 -3.21419,4.378707 -10.69039,4.04052 -12.46472,7.787529 z"
         id="path2357-5-5-6-5"
         sodipodi:nodetypes="ccccc" />
      <path
         style="fill:#318832;fill-opacity:1;stroke:none;stroke-width:17.3125px;stroke-linecap:butt;stroke-linejoin:miter;stroke-opacity:1"
         d="m 107.51817,50.090596 c 8.19628,-8.495691 15.03035,-8.807637 19.70084,-5.490405 -1.87961,-5.252289 -4.42279,-7.669943 -8.41161,-7.448799 3.85301,-4.732586 9.37555,-7.208538 13.45282,-11.779717 -11.87239,2.709369 -17.74169,14.693565 -24.74205,24.718921 z"
         id="path2335-3-0-9-6"
         sodipodi:nodetypes="ccccc" />
      <path
         style="fill:#29712a;fill-opacity:1;stroke:none;stroke-width:11.8111px;stroke-linecap:butt;stroke-linejoin:miter;stroke-opacity:1"
         d="m 105.49572,49.925755 14.63874,-15.836326 c -5.41429,3.101721 -10.14555,6.973902 -13.9365,11.906738 -0.19297,-1.761751 -1.05983,-2.462161 -1.84673,-3.288637 -0.38941,2.580613 1.74345,5.390132 1.14449,7.218225 z"
         id="path2357-5-8-2-2-6"
         sodipodi:nodetypes="ccccc" />
      <path
         style="fill:#1f5820;fill-opacity:1;stroke:none;stroke-width:13.1206px;stroke-linecap:butt;stroke-linejoin:miter;stroke-opacity:1"
         d="m 104.52626,50.04239 c 0,0 11.99656,-17.543078 20.0293,-13.679323 8.03274,3.863755 7.82938,7.81272 7.82938,7.81272 -6.9152,-4.512541 -10.37891,-3.121601 -27.85868,5.866593 z"
         id="path2313-7-8-1"
         sodipodi:nodetypes="csccc" />
      <path
         style="fill:#256926;fill-opacity:1;stroke:none;stroke-width:14.3968px;stroke-linecap:butt;stroke-linejoin:miter;stroke-opacity:1"
         d="m 100.82945,50.6315 c 0,0 7.16878,-31.020235 1.22283,-36.743089 C 96.106314,8.1655518 89.223667,7.9904735 89.223667,7.9904735 95.159049,11.77357 99.865944,21.409037 100.82945,50.6315 Z"
         id="path2313-6-1-1-2"
         sodipodi:nodetypes="cscc" />
      <path
         style="fill:#318832;fill-opacity:1;stroke:none;stroke-width:13.1206px;stroke-linecap:butt;stroke-linejoin:miter;stroke-opacity:1"
         d="m 100.82945,50.6315 c -0.59685,-8.952962 -4.472638,-13.67807 -8.882568,-15.478848 3.728902,-0.860241 6.43518,-0.127031 8.677858,2.646662 0.088,-4.507649 -1.03944,-9.070337 -1.164256,-13.663593 5.651916,9.085581 2.240666,17.728682 1.368966,26.495779 z"
         id="path2335-4-4-3"
         sodipodi:nodetypes="ccccc" />
      <path
         style="fill:#318832;fill-opacity:1;stroke:none;stroke-width:17.2966px;stroke-linecap:butt;stroke-linejoin:miter;stroke-opacity:1"
         d="m 100.82945,50.6315 7.03397,-36.512379 c 0.52666,10.865432 -1.05276,21.270741 -3.50212,31.611562 1.92971,-1.466098 3.23581,-0.911337 4.616,-0.596528 -2.36836,3.115113 -6.69047,2.825436 -8.14785,5.497345 z"
         id="path2357-3-0-5"
         sodipodi:nodetypes="ccccc" />
      <path
         style="fill:#318832;fill-opacity:1;stroke:none;stroke-width:12.9407px;stroke-linecap:butt;stroke-linejoin:miter;stroke-opacity:1"
         d="m 105.91047,53.473769 14.29685,-12.002745 c -6.24454,1.855666 -11.29795,4.566542 -14.7116,8.454731 -0.87256,-1.689377 -2.288,-2.514662 -3.63902,-3.442586 0.36943,2.34399 4.229,5.392957 4.05377,6.9906 z"
         id="path2357-2-5-7-1"
         sodipodi:nodetypes="ccccc" />
      <path
         style="fill:#1f5820;fill-opacity:1;stroke:none;stroke-width:7.05575px;stroke-linecap:butt;stroke-linejoin:miter;stroke-opacity:1"
         d="m 105.91047,53.473768 c 0,0 8.51902,-7.811167 12.22058,-4.848081 3.70157,2.963087 5.55351,7.116993 5.55351,7.116993 -3.0344,-3.173512 -7.4875,-4.951607 -17.77407,-2.26893 z"
         id="path2313-4-1-0-4"
         sodipodi:nodetypes="csccc" />
      <path
         style="fill:#1b4c1d;fill-opacity:1;stroke:none;stroke-width:13.1206px;stroke-linecap:butt;stroke-linejoin:miter;stroke-opacity:1"
         d="M 84.474349,55.057597 C 82.207454,51.829066 79.940568,50.318558 77.673673,49.1182 l 4.121987,0.854901 C 78.592244,43.428499 74.335876,35.750784 66.367694,30.977072 69.449767,28.927528 73.104094,30.709713 77.08482,31.165158 75.04868,23.354386 71.858174,15.6655 67.663131,8.0826798 70.546477,11.137932 72.913177,12.89304 76.876524,18.666078 77.349894,14.439905 84.870996,10.109733 87.305741,6.3391589 87.442932,14.988915 83.769544,22.312624 87.242572,19.794901 89.63447,13.442637 94.620992,10.884434 98.25426,8.0314277 96.483863,14.274543 90.849132,19.526395 92.395064,26.377681 c 5.204161,-2.897345 8.826236,-8.943584 12.159906,-14.447916 -0.85999,4.0093 -1.92312,8.254581 -4.06315,11.626724 3.13338,-1.517205 7.12453,-0.757227 11.6299,1.36785 -6.14338,1.166627 -11.24145,3.547337 -14.640456,7.90141 l -3.035611,5.279584 11.838957,-1.326717 c -3.44781,1.3909 -6.867877,2.822081 -9.546743,5.329343 l -2.35542,4.701986 c 2.780408,-0.687033 5.500411,-2.005482 8.464803,-0.769417 -4.883655,3.102137 -9.074524,6.033294 -12.734201,9.135431 L 86.800931,54.58959 Z"
         id="path2399-6-3"
         sodipodi:nodetypes="ccccccccccccccccccccccc" />
      <path
         style="fill:#276d28;fill-opacity:1;stroke:none;stroke-width:16.5803px;stroke-linecap:butt;stroke-linejoin:miter;stroke-opacity:1"
         d="m 94.584484,38.983538 c 3.347253,-9.132907 10.604326,-13.724807 17.892296,-15.286883 -5.51653,-1.120153 -9.88818,-0.542493 -14.098131,2.155087 1.08624,-4.623141 4.738741,-9.224779 6.176321,-13.921977 -11.177769,8.944827 -8.938022,18.017159 -9.970486,27.053773 z"
         id="path2335-2-8-2"
         sodipodi:nodetypes="ccccc" />
      <path
         style="fill:#19471a;fill-opacity:1;stroke:none;stroke-width:15.4841px;stroke-linecap:butt;stroke-linejoin:miter;stroke-opacity:1"
         d="m 103.79157,40.071313 c 0,0 -26.260888,-4.719288 -27.063597,-14.795104 C 75.925224,15.200392 87.305741,6.3391589 87.305741,6.3391589 86.721578,15.538768 83.344041,25.852601 103.79157,40.071313 Z"
         id="path2313-2-1-8"
         sodipodi:nodetypes="cscc" />
      <path
         style="fill:#3ca83d;fill-opacity:1;stroke:none;stroke-width:12.3202px;stroke-linecap:butt;stroke-linejoin:miter;stroke-opacity:1"
         d="m 84.474339,55.057595 c 0,0 0.62016,-25.036743 7.258667,-26.795651 6.638519,-1.758947 12.845024,2.186265 12.845024,2.186265 -6.187886,0.373964 -12.59297,4.060113 -20.103691,24.609386 z"
         id="path2313-2-0-2-5"
         sodipodi:nodetypes="cscc" />
      <path
         style="fill:#318832;fill-opacity:1;stroke:none;stroke-width:20.3487px;stroke-linecap:butt;stroke-linejoin:miter;stroke-opacity:1"
         d="M 83.902506,38.041807 98.25426,8.0314277 C 90.960525,16.022062 84.206266,23.853589 81.623681,32.766532 c -1.971634,-1.965218 -4.23385,-2.124362 -6.461628,-2.49798 1.630816,3.407844 8.189698,5.104752 8.740453,7.773255 z"
         id="path2357-2-4-5-1"
         sodipodi:nodetypes="ccccc" />
      <path
         style="fill:#29712a;fill-opacity:1;stroke:none;stroke-width:26.7417px;stroke-linecap:butt;stroke-linejoin:miter;stroke-opacity:1"
         d="M 86.800931,54.589594 68.956809,7.6241698 C 77.88031,19.522738 84.698385,32.227346 88.618035,46.041587 c 1.896839,-3.294061 4.335043,-3.766145 6.709042,-4.573347 -1.346284,5.537533 -8.261073,8.856126 -8.526146,13.121354 z"
         id="path2357-5-5-3"
         sodipodi:nodetypes="ccccc" />
      <path
         style="fill:#318832;fill-opacity:1;stroke:none;stroke-width:17.3125px;stroke-linecap:butt;stroke-linejoin:miter;stroke-opacity:1"
         d="M 90.357524,51.322147 C 94.750573,39.627484 100.84815,36.029581 106.2846,36.778621 102.68836,32.917755 99.508303,31.954386 95.963396,34.089865 97.762905,27.920964 100.87546,22.556183 102.93677,16.42518 93.123097,24.645018 93.113958,38.81757 90.357524,51.322147 Z"
         id="path2335-3-0-94"
         sodipodi:nodetypes="ccccc" />
      <path
         style="fill:#29712a;fill-opacity:1;stroke:none;stroke-width:11.8111px;stroke-linecap:butt;stroke-linejoin:miter;stroke-opacity:1"
         d="m 88.460575,52.153233 7.607784,-21.489211 c -3.804507,5.444237 -6.711371,11.257279 -8.382495,17.578037 -0.808748,-1.50721 -1.848232,-1.723214 -2.860377,-2.092551 0.573963,2.533719 3.522075,4.052153 3.635088,6.003725 z"
         id="path2357-5-8-2-0"
         sodipodi:nodetypes="ccccc" />
      <path
         style="fill:#153b16;fill-opacity:1;stroke:none;stroke-width:13.1206px;stroke-linecap:butt;stroke-linejoin:miter;stroke-opacity:1"
         d="m 90.113039,55.175964 c 0,0 0.514768,-22.395139 8.934735,-24.911954 8.419976,-2.516816 16.353056,0.110212 16.353056,0.110212 -7.86224,1.218339 -15.96438,5.418924 -25.287791,24.801742 z"
         id="path2313-7-5"
         sodipodi:nodetypes="cscc" />
      <path
         style="fill:#1a4b1a;fill-opacity:1;stroke:none;stroke-width:14.3968px;stroke-linecap:butt;stroke-linejoin:miter;stroke-opacity:1"
         d="m 84.474349,55.057597 c 0,0 -0.731605,-32.106979 -7.834291,-35.626939 -7.102696,-3.519961 -9.383776,6.2341 -9.383776,6.2341 8.210182,-1.007621 9.131387,1.698236 17.218067,29.392839 z"
         id="path2313-6-1-5"
         sodipodi:nodetypes="cscc"
         inkscape:transform-center-x="0.86870684"
         inkscape:transform-center-y="0.77821655" />
      <path
         style="fill:#318832;fill-opacity:1;stroke:none;stroke-width:13.1206px;stroke-linecap:butt;stroke-linejoin:miter;stroke-opacity:1"
         d="m 84.474339,55.057595 c -3.76117,-7.84558 -8.127792,-10.601285 -12.723386,-9.449004 3.078963,-2.590133 4.888826,-3.544215 7.923842,-2.11159 -1.540672,-4.13852 -4.205522,-7.737582 -5.970339,-11.850678 8.402094,5.514429 8.409924,15.022347 10.769883,23.411272 z"
         id="path2335-4-5"
         sodipodi:nodetypes="ccccc" />
      <path
         style="fill:#1a4b1a;fill-opacity:1;stroke:none;stroke-width:17.2966px;stroke-linecap:butt;stroke-linejoin:miter;stroke-opacity:1"
         d="M 84.474339,55.057595 76.876514,18.666082 c 4.38498,9.617373 7.552808,19.641479 9.045033,30.225509 1.226312,-2.268048 2.612543,-2.397414 3.979826,-2.780747 -1.032024,3.979158 -5.063427,5.812125 -5.427034,8.946751 z"
         id="path2357-3-7"
         sodipodi:nodetypes="ccccc" />
      <path
         style="fill:#318832;fill-opacity:1;stroke:none;stroke-width:12.9407px;stroke-linecap:butt;stroke-linejoin:miter;stroke-opacity:1"
         d="m 90.113039,55.175964 8.675417,-17.840043 c -5.006901,4.714681 -8.62401,9.628752 -10.327881,14.817312 -1.400231,-1.111855 -2.98307,-1.175273 -4.54428,-1.363193 1.178404,1.950684 5.781571,2.849251 6.196744,4.385924 z"
         id="path2357-2-5-2"
         sodipodi:nodetypes="ccccc" />
      <path
         style="fill:#3ca73d;fill-opacity:1;stroke:none;stroke-width:7.05575px;stroke-linecap:butt;stroke-linejoin:miter;stroke-opacity:1"
         d="m 90.113039,55.175988 c 0,0 2.861408,-12.160134 7.354636,-12.328638 4.493235,-0.168508 8.145335,2.403163 8.145335,2.403163 -4.06398,-0.460909 -8.594481,0.672923 -15.499971,9.925451 z"
         id="path2313-4-1-7"
         sodipodi:nodetypes="cscc" />
      <path
         style="fill:#0f2a10;fill-opacity:1;stroke:none;stroke-width:13.1206px;stroke-linecap:butt;stroke-linejoin:miter;stroke-opacity:1"
         d="m 94.672398,61.453081 c -2.266895,-3.228531 -4.53378,-4.739039 -6.800676,-5.939397 l 4.121987,0.854901 C 88.790294,49.823983 84.50448,41.291303 76.536298,36.517591 c 3.082074,-2.049544 6.765846,0.587606 10.746572,1.043051 -2.03614,-7.810772 -0.895981,-17.917866 -5.091023,-25.500686 2.883346,3.055252 4.583789,4.81036 4.882726,13.001606 0.47337,-4.226173 3.043884,-7.855777 5.478628,-11.626352 0.137192,8.649757 1.414392,15.272898 4.887422,12.755175 2.391899,-6.352264 9.787677,-6.89678 13.420947,-9.749785 -1.7704,6.243114 -9.81439,9.48128 -8.26846,16.332565 5.20417,-2.897345 8.14902,-8.943588 11.48268,-14.44792 -0.85999,4.0093 -1.24589,8.254585 -3.38592,11.626728 3.13338,-1.517205 7.12453,-0.757227 11.6299,1.36785 -6.14338,1.166627 -11.24144,3.547337 -14.64045,7.90141 l -3.03562,5.279584 11.98468,0.311772 c -3.44781,1.3909 -7.01359,1.183592 -9.69246,3.690854 l -2.35542,4.701986 c 2.78041,-0.687033 5.50041,-2.005482 8.46479,-0.769417 -4.88364,3.102137 -9.07451,6.033294 -12.7342,9.135431 l -3.31211,-0.586365 z"
         id="path2399-7"
         sodipodi:nodetypes="ccccccccccccccccccccccc" />
      <path
         style="fill:#276d28;fill-opacity:1;stroke:none;stroke-width:16.5803px;stroke-linecap:butt;stroke-linejoin:miter;stroke-opacity:1"
         d="m 104.78254,45.379022 c 3.34725,-9.132907 10.60432,-13.724807 17.89229,-15.286883 -5.51653,-1.120153 -9.88818,-0.542496 -14.09813,2.155087 1.08624,-4.623141 4.06151,-9.224779 5.49909,-13.921977 -11.17776,8.944827 -8.26079,18.017159 -9.29325,27.053773 z"
         id="path2335-2-6"
         sodipodi:nodetypes="ccccc" />
      <path
         style="fill:#19471a;fill-opacity:1;stroke:none;stroke-width:15.4841px;stroke-linecap:butt;stroke-linejoin:miter;stroke-opacity:1"
         d="m 112.07412,50.819571 c 0,0 -26.260876,-4.719288 -27.063584,-14.795104 -0.802749,-10.075816 5.627178,-18.236483 5.627178,-18.236483 -0.584162,9.19961 0.98889,18.812875 21.436406,33.031587 z"
         id="path2313-2-6"
         sodipodi:nodetypes="cscc" />
      <path
         style="fill:#246725;fill-opacity:1;stroke:none;stroke-width:12.3202px;stroke-linecap:butt;stroke-linejoin:miter;stroke-opacity:1"
         d="m 96.119596,58.114642 c 0,0 5.146864,-24.323296 11.955424,-24.418644 6.80858,-0.09539 13.1102,5.517434 13.1102,5.517434 -6.11687,-1.148276 -13.99664,0.650463 -25.065624,18.90121 z"
         id="path2313-2-0-4"
         sodipodi:nodetypes="cscc" />
      <path
         style="fill:#318832;fill-opacity:1;stroke:none;stroke-width:15.0919px;stroke-linecap:butt;stroke-linejoin:miter;stroke-opacity:1"
         d="M 94.100555,52.146548 108.8351,35.54308 c -7.29375,4.395372 -14.430784,8.799018 -17.01337,13.701721 -1.971634,-1.080998 -4.23385,-1.168538 -6.461627,-1.374053 1.630816,1.874538 8.189697,2.807948 8.740452,4.2758 z"
         id="path2357-2-4-0"
         sodipodi:nodetypes="ccccc" />
      <path
         style="fill:#29712a;fill-opacity:1;stroke:none;stroke-width:14.2294px;stroke-linecap:butt;stroke-linejoin:miter;stroke-opacity:1"
         d="M 99.209598,60.985078 85.992012,43.032702 c 6.609859,4.548189 11.660178,9.404482 14.563558,14.684929 1.40504,-1.259143 3.21108,-1.439597 4.96956,-1.748147 -0.99723,2.116703 -6.119185,3.385225 -6.315532,5.015594 z"
         id="path2357-5-2"
         sodipodi:nodetypes="ccccc" />
      <path
         style="fill:#318832;fill-opacity:1;stroke:none;stroke-width:17.3125px;stroke-linecap:butt;stroke-linejoin:miter;stroke-opacity:1"
         d="m 100.55557,57.717631 c 4.39306,-11.694663 10.63636,-13.654082 16.07281,-12.905042 -3.59624,-3.860866 -6.92202,-6.462719 -10.46693,-4.32724 1.79951,-6.168901 6.50207,-11.0891 8.56338,-17.220103 -9.81367,8.219838 -11.41282,21.947808 -14.16926,34.452385 z"
         id="path2335-3-5"
         sodipodi:nodetypes="ccccc" />
      <path
         style="fill:#29712a;fill-opacity:1;stroke:none;stroke-width:11.8111px;stroke-linecap:butt;stroke-linejoin:miter;stroke-opacity:1"
         d="m 98.658627,58.548717 7.607783,-21.489211 c -3.8045,5.444237 -6.71137,11.257279 -8.382499,17.578037 -0.808709,-1.50721 -1.848229,-1.723214 -2.860375,-2.092551 0.573963,2.533719 3.522077,4.052153 3.635091,6.003725 z"
         id="path2357-5-8-9"
         sodipodi:nodetypes="ccccc" />
      <path
         style="fill:#19471a;fill-opacity:1;stroke:none;stroke-width:8.27609px;stroke-linecap:butt;stroke-linejoin:miter;stroke-opacity:1"
         d="m 98.935734,60.125149 c 0,0 2.801496,-16.934038 7.374276,-17.978471 4.57278,-1.04443 8.31438,1.762832 8.31438,1.762832 -4.14155,0.116797 -8.74342,2.471016 -15.688663,16.215682 z"
         id="path2313-0"
         sodipodi:nodetypes="cscc" />
      <path
         style="fill:#1a4b1a;fill-opacity:1;stroke:none;stroke-width:8.28842px;stroke-linecap:butt;stroke-linejoin:miter;stroke-opacity:1"
         d="m 99.209598,60.985078 c 0,0 2.215432,-19.259049 -1.45471,-21.711911 -3.670149,-2.452864 -7.32985,-0.277351 -7.32985,-0.277351 3.507091,1.307753 5.894498,4.864042 8.78456,21.989262 z"
         id="path2313-6-9"
         sodipodi:nodetypes="cscc"
         inkscape:transform-center-x="0.32576507"
         inkscape:transform-center-y="0.34386313" />
      <path
         style="fill:#1f5820;fill-opacity:1;stroke:none;stroke-width:13.1206px;stroke-linecap:butt;stroke-linejoin:miter;stroke-opacity:1"
         d="m 94.672388,61.453079 c -3.76117,-7.84558 -8.981687,-10.259299 -13.63617,-9.756792 3.078964,-2.590133 5.80161,-3.236427 8.836627,-1.803802 -1.540672,-4.13852 -2.497732,-7.669185 -4.262549,-11.782281 8.402094,5.514429 6.702133,14.95395 9.062092,23.342875 z"
         id="path2335-7"
         sodipodi:nodetypes="ccccc" />
      <path
         style="fill:#1f5820;fill-opacity:1;stroke:none;stroke-width:12.8283px;stroke-linecap:butt;stroke-linejoin:miter;stroke-opacity:1"
         d="m 94.672388,61.506349 -7.597825,-20.01772 c 4.38498,5.290186 7.552808,10.804102 9.045033,16.626013 1.226312,-1.247575 2.612541,-1.318736 3.979834,-1.529594 -1.032035,2.188798 -5.063435,3.197051 -5.427042,4.921301 z"
         id="path2357-8"
         sodipodi:nodetypes="ccccc" />
      <path
         style="fill:#1f5820;fill-opacity:1;stroke:none;stroke-width:12.9407px;stroke-linecap:butt;stroke-linejoin:miter;stroke-opacity:1"
         d="m 100.31109,61.571448 8.67542,-17.840043 c -5.0069,4.714681 -8.62402,9.628752 -10.327883,14.817312 -1.400237,-1.111855 -2.983073,-1.175273 -4.544283,-1.363193 1.178405,1.950684 5.781569,2.849251 6.196746,4.385924 z"
         id="path2357-2-0"
         sodipodi:nodetypes="ccccc" />
      <path
         style="fill:#246725;fill-opacity:1;stroke:none;stroke-width:5.23301px;stroke-linecap:butt;stroke-linejoin:miter;stroke-opacity:1"
         d="m 100.31109,61.571448 c 0,0 3.31488,-6.400232 7.8,-6.073329 4.48511,0.3269 8.02755,2.077713 8.02755,2.077713 -4.0333,-0.631947 -8.5923,-0.433045 -15.82753,3.995604 z"
         id="path2313-4-7"
         sodipodi:nodetypes="cscc" />
    </g>
  </g>
</svg>
