<?xml version="1.0" encoding="UTF-8" standalone="no"?>
<svg
   xmlns:dc="http://purl.org/dc/elements/1.1/"
   xmlns:cc="http://creativecommons.org/ns#"
   xmlns:rdf="http://www.w3.org/1999/02/22-rdf-syntax-ns#"
   xmlns:svg="http://www.w3.org/2000/svg"
   xmlns="http://www.w3.org/2000/svg"
   xmlns:sodipodi="http://sodipodi.sourceforge.net/DTD/sodipodi-0.dtd"
   xmlns:inkscape="http://www.inkscape.org/namespaces/inkscape"
   width="6"
   height="5"
   viewBox="0 0 1.5874999 1.3229168"
   version="1.1"
   id="svg1634"
   inkscape:version="1.0.2-2 (e86c870879, 2021-01-15)"
   sodipodi:docname="TallGrass_1.svg">
  <defs
     id="defs1628" />
  <sodipodi:namedview
     id="base"
     pagecolor="#ffffff"
     bordercolor="#666666"
     borderopacity="1.0"
     inkscape:pageopacity="0.0"
     inkscape:pageshadow="2"
     inkscape:zoom="165.4"
     inkscape:cx="3.0144401"
     inkscape:cy="2.6091814"
     inkscape:document-units="mm"
     inkscape:current-layer="g2261"
     inkscape:document-rotation="0"
     showgrid="false"
     units="px"
     inkscape:window-width="1920"
     inkscape:window-height="1017"
     inkscape:window-x="-8"
     inkscape:window-y="-8"
     inkscape:window-maximized="1" />
  <metadata
     id="metadata1631">
    <rdf:RDF>
      <cc:Work
         rdf:about="">
        <dc:format>image/svg+xml</dc:format>
        <dc:type
           rdf:resource="http://purl.org/dc/dcmitype/StillImage" />
        <dc:title></dc:title>
      </cc:Work>
    </rdf:RDF>
  </metadata>
  <g
     inkscape:label="Layer 1"
     inkscape:groupmode="layer"
     id="layer1">
    <g
       id="g2261"
       transform="matrix(0.21731043,0,0,0.18710199,2.9710783,0.39293503)">
      <path
         style="fill:#0f2a10;fill-opacity:1;stroke:none;stroke-width:1.31215px;stroke-linecap:butt;stroke-linejoin:miter;stroke-opacity:1"
         d="M -9.5274194,3.1741046 C -9.6173302,2.7707764 -9.7690119,2.5235664 -9.9318459,2.3045394 l 0.3438274,0.2776114 c -0.055783,-0.750085 -0.2397621,-1.68201579 -0.7921925,-2.50228132 0.35376,-0.03675547 0.6950061,0.3302447 1.0403594,0.56470611 0.095813,-0.80852694 0.082346,-1.66196749 -0.026217,-2.55449219 0.1521581,0.4174815 0.3041152,0.6917596 0.4566948,1.40859058 0.1949677,-0.36107524 0.4560808,-0.66635358 0.8128977,-0.89089708 -0.2985364,0.79266254 -0.3176401,1.55658851 0.088479,1.49625152 0.4457484,-0.46122133 0.8794223,-0.57153008 1.312158,-0.65456242 -0.3853481,0.48144716 -0.9747753,0.80508976 -1.080635,1.50265138 0.577077,-0.0108695 0.8265119,-0.47731052 1.3273514,-0.81580181 -0.2223026,0.32261562 -0.1744516,0.74951787 -0.4901619,0.95215013 0.3392813,0.014107 0.2283966,0.028513 0.5613925,0.4401413 -0.600196,-0.1919563 -0.7028199,0.025346 -1.1682394,0.2561428 l -0.4656744,0.3325246 1.1235092,0.4536573 c -0.3633128,-0.040835 -0.7255525,-0.076664 -1.0591303,0.021241 l -0.3830977,0.3130288 c 0.2773583,0.072425 0.5719303,0.084544 0.7968614,0.340645 -0.5553153,0.045025 -1.0415301,0.1081137 -1.485623,0.2125038 L -9.2991755,3.2444215 Z"
         id="path2399-6-4"
         sodipodi:nodetypes="ccccccccccccccccccccccc" />
      <path
         style="fill:#276d28;fill-opacity:1;stroke:none;stroke-width:1.65814px;stroke-linecap:butt;stroke-linejoin:miter;stroke-opacity:1"
         d="M -8.0307657,2.2038106 C -7.3982258,1.5362477 -7.0963149,1.3170703 -6.3778917,1.528607 -6.8389044,1.1592534 -6.7342842,1.1536041 -7.2138343,1.1945425 -6.9489021,0.82712017 -6.7486439,0.49342656 -6.4491223,0.13631557 -7.7864592,0.40698955 -7.6120331,1.4327251 -8.0307657,2.2038106 Z"
         id="path2335-2-8-9"
         sodipodi:nodetypes="ccccc" />
      <path
         style="fill:#256926;fill-opacity:1;stroke:none;stroke-width:1.54851px;stroke-linecap:butt;stroke-linejoin:miter;stroke-opacity:1"
         d="m -7.2332285,2.7492222 c 0,0 -2.2166467,-1.7025586 -1.9273119,-2.65708714 0.2893312,-0.95453052 1.0640643,-1.48435816 1.0640643,-1.48435816 -0.3838559,0.80764065 -0.4835857,1.85763004 0.8632476,4.1414453 z"
         id="path2313-2-1-0"
         sodipodi:nodetypes="cscc" />
      <path
         style="fill:#3ca83d;fill-opacity:1;stroke:none;stroke-width:1.2321px;stroke-linecap:butt;stroke-linejoin:miter;stroke-opacity:1"
         d="m -9.5274202,3.174104 c 0,0 0.9565529,-2.24502437 1.6230364,-2.0828742 0.6664861,0.1621471 1.0886214,0.8216809 1.0886214,0.8216809 C -7.3915021,1.6467661 -8.1060688,1.671067 -9.5274202,3.174104 Z"
         id="path2313-2-0-2-9"
         sodipodi:nodetypes="cscc" />
      <path
         style="fill:#318832;fill-opacity:1;stroke:none;stroke-width:2.03501px;stroke-linecap:butt;stroke-linejoin:miter;stroke-opacity:1"
         d="m -8.9675783,1.600134 2.2717396,-2.150668 C -7.6459253,-0.17818361 -8.4298366,0.32557546 -8.9849823,1.0102384 -9.0934853,0.73602899 -9.293331,0.61184473 -9.482336,0.46984138 -9.4566729,0.85861255 -8.9216791,1.3309327 -8.9675783,1.600134 Z"
         id="path2357-2-4-5-3"
         sodipodi:nodetypes="ccccc" />
      <path
         style="fill:#29712a;fill-opacity:1;stroke:none;stroke-width:2.67435px;stroke-linecap:butt;stroke-linejoin:miter;stroke-opacity:1"
         d="m -9.2991755,3.2444215 0.06715,-5.1332572 c 0.3830652,1.51404056 0.5458289,2.9992083 0.4053155,4.4446286 0.2908043,-0.2073321 0.529338,-0.131972 0.7740866,-0.090178 -0.3214396,0.4379009 -1.0691077,0.4040799 -1.2465516,0.778807 z"
         id="path2357-5-5-6"
         sodipodi:nodetypes="ccccc" />
      <path
         style="fill:#318832;fill-opacity:1;stroke:none;stroke-width:1.73136px;stroke-linecap:butt;stroke-linejoin:miter;stroke-opacity:1"
         d="M -8.8585061,3.1200098 C -8.0388263,2.2703821 -7.3553758,2.2391854 -6.8882969,2.5709315 -7.0762695,2.0456664 -7.3306038,1.8038843 -7.7295112,1.8260002 -7.3441861,1.352709 -6.8684569,1.0161742 -6.4607045,0.55902474 -7.648019,0.82998029 -8.1584252,2.1174051 -8.8585061,3.1200098 Z"
         id="path2335-3-0-9"
         sodipodi:nodetypes="ccccc" />
      <path
         style="fill:#29712a;fill-opacity:1;stroke:none;stroke-width:1.18119px;stroke-linecap:butt;stroke-linejoin:miter;stroke-opacity:1"
         d="m -9.0607638,3.1035246 1.4639671,-1.5837418 c -0.5414641,0.3101935 -1.0146198,0.6974383 -1.3937385,1.1907559 -0.019299,-0.1761873 -0.1059907,-0.2462331 -0.1846849,-0.3288864 -0.038944,0.2580791 0.1743558,0.5390504 0.1144563,0.7218723 z"
         id="path2357-5-8-2-2"
         sodipodi:nodetypes="ccccc" />
      <path
         style="fill:#1f5820;fill-opacity:1;stroke:none;stroke-width:1.31215px;stroke-linecap:butt;stroke-linejoin:miter;stroke-opacity:1"
         d="m -9.0192868,3.4583504 c 0,0 0.8519966,-2.010092 1.7076124,-1.8304084 0.8556158,0.1796837 0.9225932,0.4953879 0.9225932,0.4953879 -0.7582483,-0.270626 -1.0860745,0.025899 -2.6302052,1.3350194 z"
         id="path2313-7-8"
         sodipodi:nodetypes="cscc" />
      <path
         style="fill:#256926;fill-opacity:1;stroke:none;stroke-width:1.43977px;stroke-linecap:butt;stroke-linejoin:miter;stroke-opacity:1"
         d="m -9.5274202,3.174104 c 0,0 0.7169227,-3.10223746 0.1222897,-3.67456232 -0.5946338,-0.57232538 -1.3241675,-0.42224962 -1.3241675,-0.42224962 0.593576,0.37833573 1.1055207,1.17436415 1.2018778,4.09681194 z"
         id="path2313-6-1-1"
         sodipodi:nodetypes="cscc" />
      <path
         style="fill:#318832;fill-opacity:1;stroke:none;stroke-width:1.31215px;stroke-linecap:butt;stroke-linejoin:miter;stroke-opacity:1"
         d="m -9.5274202,3.174104 c -0.059689,-0.895358 -0.4472927,-1.3679014 -0.8883138,-1.5479916 0.372914,-0.08603 0.643559,-0.012704 0.8678411,0.2646845 0.0088,-0.450796 -0.1039506,-0.90709628 -0.116433,-1.36645353 0.5652274,0.90862073 0.2240806,1.77299043 0.1369057,2.64976063 z"
         id="path2335-4-4"
         sodipodi:nodetypes="ccccc" />
      <path
         style="fill:#318832;fill-opacity:1;stroke:none;stroke-width:1.72977px;stroke-linecap:butt;stroke-linejoin:miter;stroke-opacity:1"
         d="m -9.5274202,3.174104 0.6180455,-3.67543051 c 0.05267,1.0866182 -0.019887,2.15116161 -0.2648382,3.18531501 0.192983,-0.1466199 0.3236014,-0.09114 0.4616293,-0.059657 -0.2368512,0.3115328 -0.6690898,0.2825631 -0.8148366,0.5497727 z"
         id="path2357-3-0"
         sodipodi:nodetypes="ccccc" />
      <path
         style="fill:#318832;fill-opacity:1;stroke:none;stroke-width:1.29416px;stroke-linecap:butt;stroke-linejoin:miter;stroke-opacity:1"
         d="M -9.0192868,3.4583504 -7.58951,2.2579932 C -8.2140045,2.4435726 -8.7193776,2.7146789 -9.0607638,3.1035246 -9.1480261,2.9345752 -9.2895787,2.852041 -9.4246893,2.7592422 c 0.036945,0.2344152 0.4229269,0.5393329 0.4054025,0.6991082 z"
         id="path2357-2-5-7"
         sodipodi:nodetypes="ccccc" />
      <path
         style="fill:#1f5820;fill-opacity:1;stroke:none;stroke-width:0.705622px;stroke-linecap:butt;stroke-linejoin:miter;stroke-opacity:1"
         d="m -9.0192877,3.4583525 c 0,0 0.6972354,-0.9662135 1.1115941,-0.7635935 0.4143592,0.2026198 0.6537616,0.6134446 0.6537616,0.6134446 -0.3527223,-0.2389955 -0.8051765,-0.3557035 -1.7653548,0.1501468 z"
         id="path2313-4-1-0"
         sodipodi:nodetypes="cscc" />
      <path
         style="fill:#1b4c1d;fill-opacity:1;stroke:none;stroke-width:1.31215px;stroke-linecap:butt;stroke-linejoin:miter;stroke-opacity:1"
         d="m -11.163035,3.6167442 c -0.226704,-0.3228754 -0.453407,-0.4739366 -0.680111,-0.5939807 l 0.412225,0.085496 c -0.320362,-0.6545053 -0.822587,-1.4120694 -1.619456,-1.8894736 0.308227,-0.2049685 0.750244,-0.036998 1.148342,0.00855 -0.203627,-0.781131 -0.522698,-1.5500726 -0.942229,-2.3084069 0.288353,0.3055462 0.525038,0.4810691 0.921398,1.0584127 0.04734,-0.4226464 0.174843,-0.8266734 0.418333,-1.2037568 0.01372,0.8650353 0.271013,1.5684366 0.618338,1.3166469 0.239205,-0.6352702 0.593601,-0.9458301 0.956951,-1.2311504 -0.177051,0.6243546 -0.596272,1.204298 -0.441669,1.8894738 0.5204493,-0.2897545 0.814953,-0.8944204 1.1483409,-1.4448916 -0.086005,0.4009576 -0.1245971,0.8255154 -0.3386135,1.162753 0.3133574,-0.151731 0.7124982,-0.075728 1.1630637,0.1367944 -0.6143773,0.1166707 -1.124216,0.3547582 -1.4641386,0.7901955 L -10.165841,1.9214013 -8.9818703,1.7887204 C -9.3266732,1.92782 -9.6687013,2.070948 -9.936605,2.3216915 l -0.235557,0.470231 c 0.2780585,-0.068708 0.5500762,-0.200562 0.8465335,-0.076947 -0.4883959,0.3102351 -0.9075095,0.603371 -1.2735005,0.9136061 l -0.331233,-0.058641 z"
         id="path2399-6"
         sodipodi:nodetypes="ccccccccccccccccccccccc" />
      <path
         style="fill:#276d28;fill-opacity:1;stroke:none;stroke-width:1.65814px;stroke-linecap:butt;stroke-linejoin:miter;stroke-opacity:1"
         d="m -10.151957,2.0092274 c 0.3347466,-0.9133536 1.0605003,-1.3725753 1.7893436,-1.5287937 -0.5516884,-0.112023 -0.9888814,-0.054253 -1.4099029,0.2155236 0.1086309,-0.462346 0.4061767,-0.9225415 0.5499442,-1.3922937 -1.1178479,0.8945444 -0.8261319,1.8018401 -0.9293849,2.7055638 z"
         id="path2335-2-8"
         sodipodi:nodetypes="ccccc" />
      <path
         style="fill:#19471a;fill-opacity:1;stroke:none;stroke-width:1.54851px;stroke-linecap:butt;stroke-linejoin:miter;stroke-opacity:1"
         d="m -9.2311905,2.1180124 c 0,0 -2.6262555,-0.4719613 -2.7065315,-1.4796124 -0.08028,-1.0076511 0.433189,-1.8648151 0.433189,-1.8648151 -0.05842,0.9200244 0.22846,1.9224583 2.2733425,3.3444275 z"
         id="path2313-2-1"
         sodipodi:nodetypes="cscc" />
      <path
         style="fill:#3ca83d;fill-opacity:1;stroke:none;stroke-width:1.2321px;stroke-linecap:butt;stroke-linejoin:miter;stroke-opacity:1"
         d="m -11.163036,3.616744 c 0,0 0.06202,-2.503847 0.725913,-2.6797499 0.6638942,-0.1759068 1.2845843,0.2186416 1.2845843,0.2186416 -0.618828,0.037399 -1.2593773,0.4060393 -2.0104973,2.4611083 z"
         id="path2313-2-0-2"
         sodipodi:nodetypes="cscc" />
      <path
         style="fill:#318832;fill-opacity:1;stroke:none;stroke-width:2.03501px;stroke-linecap:butt;stroke-linejoin:miter;stroke-opacity:1"
         d="m -11.220223,1.9150478 1.290979,-3.0559664 c -0.72942,0.7991185 -1.260601,1.6370468 -1.518876,2.5284026 -0.197176,-0.1965354 -0.423412,-0.2124509 -0.646204,-0.2498153 0.163092,0.3408079 0.819022,0.5105104 0.874101,0.7773791 z"
         id="path2357-2-4-5"
         sodipodi:nodetypes="ccccc" />
      <path
         style="fill:#29712a;fill-opacity:1;stroke:none;stroke-width:2.67435px;stroke-linecap:butt;stroke-linejoin:miter;stroke-opacity:1"
         d="m -10.930362,3.5699406 -1.784526,-4.6968662 c 0.892407,1.1899389 1.574258,2.4604873 1.966248,3.8420066 0.189696,-0.3294288 0.433532,-0.3766405 0.670947,-0.4573662 -0.134637,0.5537915 -0.82616,0.8856736 -0.852669,1.3122258 z"
         id="path2357-5-5"
         sodipodi:nodetypes="ccccc" />
      <path
         style="fill:#318832;fill-opacity:1;stroke:none;stroke-width:1.73136px;stroke-linecap:butt;stroke-linejoin:miter;stroke-opacity:1"
         d="M -10.57468,3.2431734 C -10.135347,2.0736265 -9.5255504,1.7138114 -8.9818709,1.7887205 -9.3415176,1.4026073 -9.6595437,1.3062638 -10.014057,1.5198264 -9.8340946,0.9028938 -9.5228196,0.3663787 -9.3166754,-0.2467639 -10.298105,0.5752766 -10.299019,1.9926295 -10.57468,3.2431734 Z"
         id="path2335-3-0"
         sodipodi:nodetypes="ccccc" />
      <path
         style="fill:#29712a;fill-opacity:1;stroke:none;stroke-width:1.18119px;stroke-linecap:butt;stroke-linejoin:miter;stroke-opacity:1"
         d="m -10.764387,3.3262877 0.760827,-2.1490692 c -0.380475,0.5444612 -0.67118,1.1258055 -0.838303,1.7579249 -0.08088,-0.1507314 -0.184835,-0.1723333 -0.286056,-0.2092696 0.0574,0.2533894 0.35223,0.4052433 0.363532,0.6004139 z"
         id="path2357-5-8-2"
         sodipodi:nodetypes="ccccc" />
      <path
         style="fill:#153b16;fill-opacity:1;stroke:none;stroke-width:1.31215px;stroke-linecap:butt;stroke-linejoin:miter;stroke-opacity:1"
         d="m -10.59913,3.6285817 c 0,0 0.05148,-2.2396683 0.8935305,-2.4913672 0.8420505,-0.2516989 1.6354097,0.011022 1.6354097,0.011022 -0.7862743,0.1218423 -1.5965397,0.5419297 -2.5289402,2.4803452 z"
         id="path2313-7"
         sodipodi:nodetypes="cscc" />
      <path
         style="fill:#1a4b1a;fill-opacity:1;stroke:none;stroke-width:1.43977px;stroke-linecap:butt;stroke-linejoin:miter;stroke-opacity:1"
         d="m -11.163036,3.616744 c 0,0 -0.463909,-3.166529 -1.209984,-3.3981756 -0.746076,-0.2316466 -0.950142,0.77151648 -0.950142,0.77151648 0.800511,-0.23479626 1.021875,0.0179293 2.160126,2.62665912 z"
         id="path2313-6-1"
         sodipodi:nodetypes="cscc" />
      <path
         style="fill:#318832;fill-opacity:1;stroke:none;stroke-width:1.31215px;stroke-linecap:butt;stroke-linejoin:miter;stroke-opacity:1"
         d="m -11.163036,3.616744 c -0.376141,-0.7846121 -0.898226,-1.0260007 -1.363704,-0.9757465 0.307916,-0.2590312 0.580198,-0.323665 0.883719,-0.1803926 -0.154077,-0.4138806 -0.420579,-0.7738116 -0.597072,-1.1851496 0.840263,0.551481 0.841046,1.5023383 1.077057,2.3412887 z"
         id="path2335-4"
         sodipodi:nodetypes="ccccc" />
      <path
         style="fill:#1a4b1a;fill-opacity:1;stroke:none;stroke-width:1.72977px;stroke-linecap:butt;stroke-linejoin:miter;stroke-opacity:1"
         d="m -11.163036,3.616744 -0.759831,-3.6394023 c 0.438526,0.9618037 0.755329,1.9642834 0.904561,3.0227594 0.122639,-0.2268205 0.261271,-0.239758 0.398008,-0.2780939 -0.103209,0.3979432 -0.506375,0.5812526 -0.542738,0.8947368 z"
         id="path2357-3"
         sodipodi:nodetypes="ccccc" />
      <path
         style="fill:#318832;fill-opacity:1;stroke:none;stroke-width:1.29416px;stroke-linecap:butt;stroke-linejoin:miter;stroke-opacity:1"
         d="m -10.59913,3.6285817 0.867597,-1.7841273 c -0.500722,0.4715006 -0.862456,0.9629416 -1.032854,1.4818333 -0.140032,-0.1111931 -0.298326,-0.1175354 -0.454457,-0.1363287 0.117848,0.1950819 0.578194,0.2849448 0.619714,0.4386227 z"
         id="path2357-2-5"
         sodipodi:nodetypes="ccccc" />
      <path
         style="fill:#3ca73d;fill-opacity:1;stroke:none;stroke-width:0.705622px;stroke-linecap:butt;stroke-linejoin:miter;stroke-opacity:1"
         d="m -10.59913,3.6285841 c 0,0 0.286159,-1.2160973 0.7355105,-1.2329488 0.4493518,-0.016852 0.8145854,0.2403328 0.8145854,0.2403328 -0.4064239,-0.046094 -0.8595029,0.067297 -1.5500959,0.9926136 z"
         id="path2313-4-1"
         sodipodi:nodetypes="cscc" />
      <path
         style="fill:#0f2a10;fill-opacity:1;stroke:none;stroke-width:1.31215px;stroke-linecap:butt;stroke-linejoin:miter;stroke-opacity:1"
         d="M -10.143165,4.2563367 C -10.369869,3.9334613 -10.596572,3.7824001 -10.823276,3.662356 l 0.412225,0.085496 c -0.320362,-0.6545053 -0.822587,-1.4120694 -1.619456,-1.8894736 0.308227,-0.2049685 0.750244,-0.036998 1.148342,0.00855 -0.203627,-0.781131 -0.522698,-1.55007259 -0.942229,-2.30840694 0.288353,0.3055462 0.525038,0.48106911 0.921398,1.05841274 0.04734,-0.42264639 0.174843,-0.82667343 0.418333,-1.20375682 0.01372,0.86503528 0.271013,1.56843663 0.6183381,1.31664689 0.2392052,-0.63527018 0.5936013,-0.94583007 0.9569511,-1.23115033 -0.1770511,0.62435453 -0.5962727,1.204298 -0.4416697,1.88947376 0.5204498,-0.2897545 0.8149535,-0.89442038 1.1483414,-1.44489165 -0.086005,0.4009576 -0.1245971,0.8255154 -0.3386135,1.16275305 0.3133574,-0.15173097 0.7124982,-0.075728 1.1630637,0.1367944 -0.6143773,0.1166707 -1.124216,0.3547582 -1.4641386,0.7901955 l -0.3035806,0.5279948 1.1839708,-0.1326809 c -0.3448029,0.1390996 -0.686831,0.2822276 -0.9547346,0.5329711 L -9.1522921,3.431515 c 0.2780586,-0.068708 0.5500763,-0.200562 0.8465336,-0.076947 -0.4883959,0.3102351 -0.9075096,0.603371 -1.2735009,0.9136061 L -9.910492,4.2095331 Z"
         id="path2399"
         sodipodi:nodetypes="ccccccccccccccccccccccc" />
      <path
         style="fill:#276d28;fill-opacity:1;stroke:none;stroke-width:1.65814px;stroke-linecap:butt;stroke-linejoin:miter;stroke-opacity:1"
         d="M -9.1320871,2.6488199 C -8.7973404,1.7354663 -8.0715867,1.2762446 -7.3427434,1.1200262 -7.8944318,1.0080032 -8.3316248,1.0657729 -8.7526463,1.3355498 -8.6440154,0.87320381 -8.3464696,0.41300829 -8.2027021,-0.05674395 -9.32055,0.83780049 -9.028834,1.7450962 -9.1320871,2.6488199 Z"
         id="path2335-2"
         sodipodi:nodetypes="ccccc" />
      <path
         style="fill:#19471a;fill-opacity:1;stroke:none;stroke-width:1.54851px;stroke-linecap:butt;stroke-linejoin:miter;stroke-opacity:1"
         d="m -8.2113205,2.7576049 c 0,0 -2.6262555,-0.4719613 -2.7065315,-1.4796124 -0.08028,-1.00765113 0.433189,-1.86481512 0.433189,-1.86481512 -0.05842,0.92002439 0.22846,1.92245832 2.2733425,3.34442752 z"
         id="path2313-2"
         sodipodi:nodetypes="cscc" />
      <path
         style="fill:#246725;fill-opacity:1;stroke:none;stroke-width:1.2321px;stroke-linecap:butt;stroke-linejoin:miter;stroke-opacity:1"
         d="m -10.143166,4.2563365 c 0,0 0.06202,-2.503847 0.7259127,-2.6797499 0.6638945,-0.1759068 1.2845846,0.2186416 1.2845846,0.2186416 -0.618828,0.037399 -1.2593776,0.4060393 -2.0104973,2.4611083 z"
         id="path2313-2-0"
         sodipodi:nodetypes="cscc" />
      <path
         style="fill:#318832;fill-opacity:1;stroke:none;stroke-width:1.50929px;stroke-linecap:butt;stroke-linejoin:miter;stroke-opacity:1"
         d="m -10.200353,3.3256192 1.2909792,-1.6809819 c -0.7294205,0.4395675 -1.2606012,0.9004831 -1.5188762,1.3907872 -0.197176,-0.1081073 -0.423412,-0.1168619 -0.646204,-0.1374148 0.163092,0.1874667 0.819022,0.2808142 0.874101,0.4276095 z"
         id="path2357-2-4"
         sodipodi:nodetypes="ccccc" />
      <path
         style="fill:#29712a;fill-opacity:1;stroke:none;stroke-width:1.42304px;stroke-linecap:butt;stroke-linejoin:miter;stroke-opacity:1"
         d="M -9.6894161,4.2095331 -11.011259,2.4141718 c 0.661028,0.4548502 1.1660922,0.940513 1.4564489,1.4685941 0.1405126,-0.125923 0.3211278,-0.1439696 0.496987,-0.1748267 -0.099729,0.2116849 -0.6119571,0.3385458 -0.631593,0.5015939 z"
         id="path2357-5"
         sodipodi:nodetypes="ccccc" />
      <path
         style="fill:#318832;fill-opacity:1;stroke:none;stroke-width:1.73136px;stroke-linecap:butt;stroke-linejoin:miter;stroke-opacity:1"
         d="M -9.5548101,3.8827659 C -9.115477,2.713219 -8.5056804,2.3534039 -7.9620009,2.428313 -8.3216476,2.0421998 -8.6396737,1.9458563 -8.994187,2.1594189 -8.8142246,1.5424863 -8.5029496,1.0059712 -8.2968054,0.39282859 -9.2782347,1.2148691 -9.2791492,2.632222 -9.5548101,3.8827659 Z"
         id="path2335-3"
         sodipodi:nodetypes="ccccc" />
      <path
         style="fill:#29712a;fill-opacity:1;stroke:none;stroke-width:1.18119px;stroke-linecap:butt;stroke-linejoin:miter;stroke-opacity:1"
         d="M -9.7445167,3.9658802 -8.9836901,1.816811 c -0.3804747,0.5444612 -0.6711796,1.1258055 -0.8383032,1.7579249 -0.080876,-0.1507314 -0.1848347,-0.1723333 -0.2860557,-0.2092696 0.0574,0.2533894 0.3522302,0.4052433 0.3635323,0.6004139 z"
         id="path2357-5-8"
         sodipodi:nodetypes="ccccc" />
      <path
         style="fill:#19471a;fill-opacity:1;stroke:none;stroke-width:0.827665px;stroke-linecap:butt;stroke-linejoin:miter;stroke-opacity:1"
         d="m -9.5792599,4.2681742 c 0,0 0.026606,-1.7242231 0.4617874,-1.9179951 0.435182,-0.193772 0.8451997,0.00849 0.8451997,0.00849 -0.4063561,0.093801 -0.8251112,0.4172081 -1.3069871,1.9095097 z"
         id="path2313"
         sodipodi:nodetypes="cscc" />
      <path
         style="fill:#1a4b1a;fill-opacity:1;stroke:none;stroke-width:0.828896px;stroke-linecap:butt;stroke-linejoin:miter;stroke-opacity:1"
         d="m -9.616694,4.3281654 c 0,0 -0.252224,-1.9303867 -0.657859,-2.0716036 -0.405636,-0.1412169 -0.736706,0.15761 -0.736706,0.15761 0.367194,0.034073 0.775707,0.3236537 1.394565,1.9139936 z"
         id="path2313-6"
         sodipodi:nodetypes="cscc" />
      <path
         style="fill:#1f5820;fill-opacity:1;stroke:none;stroke-width:1.31215px;stroke-linecap:butt;stroke-linejoin:miter;stroke-opacity:1"
         d="M -10.143166,4.2563365 C -10.519307,3.4717244 -11.041392,3.2303358 -11.50687,3.28059 c 0.307916,-0.2590312 0.580198,-0.323665 0.883719,-0.1803926 -0.154077,-0.4138806 -0.420579,-0.7738116 -0.597072,-1.1851496 0.840263,0.551481 0.841046,1.5023383 1.077057,2.3412887 z"
         id="path2335"
         sodipodi:nodetypes="ccccc" />
      <path
         style="fill:#1f5820;fill-opacity:1;stroke:none;stroke-width:1.28291px;stroke-linecap:butt;stroke-linejoin:miter;stroke-opacity:1"
         d="m -10.143166,4.2616638 -0.759831,-2.00191 c 0.438526,0.5290551 0.755329,1.0804847 0.904561,1.6627159 0.122639,-0.1247661 0.2612708,-0.1318826 0.3980084,-0.1529699 -0.1032097,0.2188949 -0.5063754,0.3197271 -0.5427384,0.492164 z"
         id="path2357"
         sodipodi:nodetypes="ccccc" />
      <path
         style="fill:#1f5820;fill-opacity:1;stroke:none;stroke-width:1.29416px;stroke-linecap:butt;stroke-linejoin:miter;stroke-opacity:1"
         d="M -9.5792599,4.2681742 -8.711663,2.4840469 C -9.2123847,2.9555475 -9.5741194,3.4469885 -9.7445167,3.9658802 -9.8845494,3.8546871 -10.042843,3.8483448 -10.198974,3.8295515 c 0.117848,0.1950819 0.5781938,0.2849448 0.6197141,0.4386227 z"
         id="path2357-2"
         sodipodi:nodetypes="ccccc" />
      <path
         style="fill:#246725;fill-opacity:1;stroke:none;stroke-width:0.523335px;stroke-linecap:butt;stroke-linejoin:miter;stroke-opacity:1"
         d="m -9.5792604,4.2681766 c 0,0 0.2861595,-0.6689333 0.7355109,-0.6782027 0.4493518,-0.00927 0.8145854,0.1321988 0.8145854,0.1321988 -0.4064239,-0.025355 -0.8595028,0.037018 -1.5500958,0.5460026 z"
         id="path2313-4"
         sodipodi:nodetypes="cscc" />
    </g>
  </g>
</svg>
