<?xml version="1.0" encoding="UTF-8" standalone="no"?>
<svg
   xmlns:dc="http://purl.org/dc/elements/1.1/"
   xmlns:cc="http://creativecommons.org/ns#"
   xmlns:rdf="http://www.w3.org/1999/02/22-rdf-syntax-ns#"
   xmlns:svg="http://www.w3.org/2000/svg"
   xmlns="http://www.w3.org/2000/svg"
   xmlns:sodipodi="http://sodipodi.sourceforge.net/DTD/sodipodi-0.dtd"
   xmlns:inkscape="http://www.inkscape.org/namespaces/inkscape"
   width="300"
   height="400"
   viewBox="0 0 79.374998 105.83334"
   version="1.1"
   id="svg16423"
   inkscape:version="1.0.2-2 (e86c870879, 2021-01-15)"
   sodipodi:docname="tile_right_atlas.svg">
  <defs
     id="defs16417" />
  <sodipodi:namedview
     id="base"
     pagecolor="#ffffff"
     bordercolor="#666666"
     borderopacity="1.0"
     inkscape:pageopacity="0.0"
     inkscape:pageshadow="2"
     inkscape:zoom="1.4619433"
     inkscape:cx="150"
     inkscape:cy="18.607512"
     inkscape:document-units="mm"
     inkscape:current-layer="layer1"
     inkscape:document-rotation="0"
     showgrid="true"
     units="px"
     inkscape:window-width="1920"
     inkscape:window-height="1017"
     inkscape:window-x="-8"
     inkscape:window-y="-8"
     inkscape:window-maximized="1">
    <inkscape:grid
       type="xygrid"
       id="grid16986"
       empspacing="10" />
  </sodipodi:namedview>
  <metadata
     id="metadata16420">
    <rdf:RDF>
      <cc:Work
         rdf:about="">
        <dc:format>image/svg+xml</dc:format>
        <dc:type
           rdf:resource="http://purl.org/dc/dcmitype/StillImage" />
        <dc:title />
      </cc:Work>
    </rdf:RDF>
  </metadata>
  <g
     inkscape:label="Layer 1"
     inkscape:groupmode="layer"
     id="layer1">
    <path
       style="fill:#008eaf;fill-opacity:1;stroke:none;stroke-width:0.228285;stroke-linecap:butt;stroke-linejoin:bevel;stroke-miterlimit:4;stroke-dasharray:none;stroke-opacity:1"
       d="M 1.5000016e-6,60.854168 13.229169,52.916668 v 5.291667 L 1.5000016e-6,66.145835 Z"
       id="path1964"
       sodipodi:nodetypes="ccccc" />
    <path
       style="fill:#00a8d2;fill-opacity:1;stroke:none;stroke-width:0.777825px;stroke-linecap:butt;stroke-linejoin:miter;stroke-opacity:1"
       d="m 5.2916675,57.679168 c 0.529167,0.793778 0.445189,1.569333 0,2.645833 -0.651411,1.221978 -0.529167,1.852078 0,2.645834 l 3.96875,-2.381256 c -0.264588,-0.793778 -0.991433,-1.076666 -0.264588,-2.381244 0.293977,-1.175922 0.793755,-2.116667 0.264589,-2.910423 z"
       id="path4719"
       sodipodi:nodetypes="ccccccc" />
    <path
       style="fill:#00a8d2;fill-opacity:1;stroke:none;stroke-width:0.777825px;stroke-linecap:butt;stroke-linejoin:miter;stroke-opacity:1"
       d="m 1.3229175,60.060412 c 0.793755,0.793778 0.709755,1.833923 0.264589,2.910423 -0.651411,1.221978 -0.793756,1.5875 -0.264589,2.381244 l 2.645833,-1.5875 c -0.529167,-0.793778 1e-6,-1.587489 0.264589,-2.381244 0.293978,-1.175922 0.529178,-2.116667 -0.264589,-2.910423 z"
       id="path4719-8"
       sodipodi:nodetypes="ccccccc" />
    <rect
       style="mix-blend-mode:normal;fill:#725e3d;fill-opacity:1;fill-rule:evenodd;stroke:#050505;stroke-width:0;stroke-linejoin:bevel;stroke-miterlimit:4;stroke-dasharray:none;stroke-opacity:1;paint-order:stroke markers fill"
       id="rect2163-7"
       width="15.357525"
       height="5.4081573"
       x="3.8024612e-06"
       y="7.8002167"
       transform="matrix(0.86141115,-0.50790829,0,1,0,0)" />
    <path
       style="mix-blend-mode:normal;fill:#a37b39;fill-opacity:1;stroke:#050505;stroke-width:0;stroke-linecap:butt;stroke-linejoin:miter;stroke-miterlimit:4;stroke-dasharray:none;stroke-opacity:1"
       d="m 0.2645855,9.5370679 c 0.459354,0.5034231 0.934342,0.9252131 1.587498,0.416012 l 1.852079,-1.092035 c 0.318962,-0.450212 0.656138,-1.012624 1.058328,-1.976055 l -1.587491,-0.956824 -2.910414,1.716047 z"
       id="path1971-2"
       sodipodi:nodetypes="ccccccc" />
    <path
       style="mix-blend-mode:normal;fill:#a37b39;fill-opacity:1;stroke:#050505;stroke-width:0;stroke-linecap:butt;stroke-linejoin:miter;stroke-miterlimit:4;stroke-dasharray:none;stroke-opacity:1"
       d="m 5.0270785,6.9993989 1.587497,0.956829 2.645824,-1.560041 1.3229155,-1.861653 -0.7937435,-0.343214 v -2.163264 l -3.439579,2.028058 v 1.081636 c -0.364538,0.706279 -0.847929,1.279253 -1.322914,1.861649 z"
       id="path1973-2"
       sodipodi:nodetypes="ccccccccc" />
    <path
       style="mix-blend-mode:normal;fill:#a37b39;fill-opacity:1;stroke:#050505;stroke-width:0;stroke-linecap:butt;stroke-linejoin:miter;stroke-miterlimit:4;stroke-dasharray:none;stroke-opacity:1"
       d="m 3.4395815,5.7721609 1.322913,0.842424 c 0.300446,-0.289867 0.601212,-0.580924 1.058326,-1.435241 l 0.264591,-0.967235 -1.587496,0.665623 z"
       id="path1975-5"
       sodipodi:nodetypes="cccccc" />
    <path
       style="mix-blend-mode:normal;fill:#a37b39;fill-opacity:1;stroke:#050505;stroke-width:0;stroke-linecap:butt;stroke-linejoin:miter;stroke-miterlimit:4;stroke-dasharray:none;stroke-opacity:1"
       d="M 10.318731,1.7160519 11.90623,0.50961786 13.229143,4.8585865e-6 V 2.1632679 l -0.529167,0.852824 -1.852077,1.092029 c -0.171361,0.0093 -0.347199,-0.138156 -0.52917,-0.499212 z"
       id="path1977-8"
       sodipodi:nodetypes="cccccccc" />
    <path
       style="mix-blend-mode:normal;fill:#a37b39;fill-opacity:1;stroke:#050505;stroke-width:0;stroke-linecap:butt;stroke-linejoin:miter;stroke-miterlimit:4;stroke-dasharray:none;stroke-opacity:1"
       d="m 1.5874995,10.649901 c 1.348593,-0.7018121 2.114509,-1.2527341 2.381246,-1.6744411 l 0.79376,-0.738435 c 0.536631,-0.713324 1.059301,-0.0012 1.587497,0.1456 l -0.264594,1.23765 -2.381247,1.4040381 -0.264587,-0.384806 v 0.540813 l -3.174995,1.872053 z"
       id="path1981-7"
       sodipodi:nodetypes="cccccccccc" />
    <path
       style="mix-blend-mode:normal;fill:#a37b39;fill-opacity:1;stroke:#050505;stroke-width:0;stroke-linecap:butt;stroke-linejoin:miter;stroke-miterlimit:4;stroke-dasharray:none;stroke-opacity:1"
       d="m 9.2603995,6.6665939 0.7937485,0.07278 8e-6,0.540812 1.587492,-0.66559 1.587498,-1.206427 2.3e-5,-2.762335 -2.3e-5,0.05825 -0.793745,1.549649 c -0.147676,0.405578 -0.645136,0.824857 -1.058325,1.164832 l -0.52918,-0.769624 z"
       id="path1983-91"
       sodipodi:nodetypes="ccccccccccc" />
    <path
       style="mix-blend-mode:normal;fill:#a37b39;fill-opacity:1;stroke:#050505;stroke-width:0;stroke-linecap:butt;stroke-linejoin:miter;stroke-miterlimit:4;stroke-dasharray:none;stroke-opacity:1"
       d="m 6.3499925,9.4642699 1.322915,-0.509607 1.852076,-1.36244 -0.529165,-0.228809 -0.264591,-0.384807 -2.116659,1.518445 z"
       id="path1987-0" />
    <path
       style="mix-blend-mode:normal;fill:#a37b39;fill-opacity:1;stroke:#050505;stroke-width:0;stroke-linecap:butt;stroke-linejoin:miter;stroke-miterlimit:4;stroke-dasharray:none;stroke-opacity:1"
       d="m 11.112481,4.4929329 0.529168,0.228811 c 0.491896,-0.422401 0.764157,-0.933224 1.058338,-1.435241 l -1.058338,0.624013 z"
       id="path1989-4"
       sodipodi:nodetypes="ccccc" />
    <path
       style="mix-blend-mode:normal;fill:#9f7b4f;fill-opacity:1;stroke:#050505;stroke-width:0;stroke-linecap:butt;stroke-linejoin:miter;stroke-miterlimit:4;stroke-dasharray:none;stroke-opacity:1"
       d="m 1.5874985,10.649901 c 1.348593,-0.7018121 2.114508,-1.2527331 2.381247,-1.6744401 l 0.793759,-0.738435 c 0.536631,-0.713324 1.059301,-0.0012 1.587497,0.145611 l -0.793759,1.008835 -1.587497,1.2064341 -0.529169,-0.228812 -1.058326,0.894424 -1.852081,1.362437 z"
       id="path1981-0-5"
       sodipodi:nodetypes="cccccccccc" />
    <path
       style="mix-blend-mode:normal;fill:#9f7b4f;fill-opacity:1;stroke:#050505;stroke-width:0;stroke-linecap:butt;stroke-linejoin:miter;stroke-miterlimit:4;stroke-dasharray:none;stroke-opacity:1"
       d="m 5.5562425,6.9577989 1.058326,0.728024 1.587497,-1.206439 0.79376,-0.1976 0.529168,-1.393639 -0.264589,-0.655224 0.264589,-2.048862 -3.174993,1.872052 0.529169,1.040035 c -0.364527,0.706279 -0.84793,1.279254 -1.322927,1.861653 z"
       id="path1973-0-3"
       sodipodi:nodetypes="cccccccccc" />
    <path
       style="mix-blend-mode:normal;fill:#9f7b4f;fill-opacity:1;stroke:#050505;stroke-width:0;stroke-linecap:butt;stroke-linejoin:miter;stroke-miterlimit:4;stroke-dasharray:none;stroke-opacity:1"
       d="m 3.9687455,5.7305619 0.793759,0.07278 c 0.300445,-0.289867 0.336621,0.1159 0.793758,-0.738424 v -0.270414 l -1.058316,0.08322 z"
       id="path1975-7-5"
       sodipodi:nodetypes="cccccc" />
    <path
       style="mix-blend-mode:normal;fill:#9f7b4f;fill-opacity:1;stroke:#050505;stroke-width:0;stroke-linecap:butt;stroke-linejoin:miter;stroke-miterlimit:4;stroke-dasharray:none;stroke-opacity:1"
       d="m 0.7937515,9.4954669 c 0.459354,0.503423 1.198925,-0.042 1.85208,-0.551212 l 1.058325,-0.624012 c 0.318972,-0.450212 0.656137,-0.471801 1.058327,-1.435241 -1.35749,0.573779 -1.305098,-0.371934 -1.587495,-0.956835 l -2.64582,1.830449 z"
       id="path1971-1-8"
       sodipodi:nodetypes="ccccccc" />
    <path
       style="mix-blend-mode:normal;fill:#9f7b4f;fill-opacity:1;stroke:#050505;stroke-width:0;stroke-linecap:butt;stroke-linejoin:miter;stroke-miterlimit:4;stroke-dasharray:none;stroke-opacity:1"
       d="m 10.583317,1.8304539 1.322915,-1.05042904 1.058331,-0.0832 -1.587497,1.20643404 1.322912,-0.780022 0.26459,0.925624 -0.26459,0.967232 -1.587495,0.395209 c -0.17136,0.0093 -0.347199,0.132256 -0.529169,-0.228811 z"
       id="path1977-4-3"
       sodipodi:nodetypes="cccccccccc" />
    <path
       style="mix-blend-mode:normal;fill:#9f7b4f;fill-opacity:1;stroke:#050505;stroke-width:0;stroke-linecap:butt;stroke-linejoin:miter;stroke-miterlimit:4;stroke-dasharray:none;stroke-opacity:1"
       d="m 9.7895675,6.3545859 0.7937605,-0.197601 v 0.540813 l 1.587497,-0.665613 1.058326,-1.435245 1.8e-5,0.694728 -1.8e-5,-2.046768 -0.793749,1.008825 c -0.147676,0.405575 -0.909725,1.251262 -1.32292,1.591242 l -0.264591,-0.925625 z"
       id="path1983-9-0"
       sodipodi:nodetypes="ccccccccccc" />
    <path
       style="mix-blend-mode:normal;fill:#9f7b4f;fill-opacity:1;stroke:#050505;stroke-width:0;stroke-linecap:butt;stroke-linejoin:miter;stroke-miterlimit:4;stroke-dasharray:none;stroke-opacity:1"
       d="m 6.3499955,9.4642689 1.322914,-0.509612 1.587492,-1.206436 -0.529168,0.04156 -0.793759,0.197611 -1.058326,0.624013 z"
       id="path1987-2-4"
       sodipodi:nodetypes="ccccccc" />
    <path
       style="mix-blend-mode:normal;fill:#9f7b4f;fill-opacity:1;stroke:#050505;stroke-width:0;stroke-linecap:butt;stroke-linejoin:miter;stroke-miterlimit:4;stroke-dasharray:none;stroke-opacity:1"
       d="m 11.112483,4.4929319 0.793758,-0.468013 c 0.491896,-0.4224 0.499567,-0.236411 0.793759,-0.738434 l -1.058337,0.624012 z"
       id="path1989-7-9"
       sodipodi:nodetypes="ccccc" />
    <path
       style="mix-blend-mode:normal;fill:#716563;fill-opacity:1;stroke:#050505;stroke-width:0;stroke-linecap:butt;stroke-linejoin:miter;stroke-miterlimit:4;stroke-dasharray:none;stroke-opacity:1"
       d="m 5.5562435,6.9577979 1.322916,0.301612 1.322912,-1.050436 0.793749,0.07278 0.793758,-1.279241 v -0.270411 l 0.5291695,-0.04156 -1.0583275,1.435241 -1.587496,0.936023 -1.322914,0.509624 z"
       id="path2143-4" />
    <path
       style="mix-blend-mode:normal;fill:#716563;fill-opacity:1;stroke:#050505;stroke-width:0;stroke-linecap:butt;stroke-linejoin:miter;stroke-miterlimit:4;stroke-dasharray:none;stroke-opacity:1"
       d="m 0.7937515,12.469954 2.381248,-1.674448 0.264587,-0.426412 z"
       id="path2145-6" />
    <path
       style="mix-blend-mode:normal;fill:#716563;fill-opacity:1;stroke:#050505;stroke-width:0;stroke-linecap:butt;stroke-linejoin:miter;stroke-miterlimit:4;stroke-dasharray:none;stroke-opacity:1"
       d="m 4.2333295,7.7378199 -0.529167,0.852824 -1.587497,1.206432 -1.322914,0.2392111 -0.264587,-0.6552131 0.264587,-0.696822 1.587498,-1.206434 -0.529166,0.852824 -0.793755,0.468012 -0.264588,0.696823 1.322913,-0.2392 1.322917,-1.050435 z"
       id="path2147-3" />
    <path
       style="mix-blend-mode:normal;fill:#716563;fill-opacity:1;stroke:#050505;stroke-width:0;stroke-linecap:butt;stroke-linejoin:miter;stroke-miterlimit:4;stroke-dasharray:none;stroke-opacity:1"
       d="m 3.9687455,5.7305609 0.79376,0.07278 0.529158,-0.312001 0.264589,-0.426412 -0.264589,0.696824 -0.52917,0.582423 -0.529169,-0.228811 z"
       id="path2149-7" />
    <path
       style="mix-blend-mode:normal;fill:#716563;fill-opacity:1;stroke:#050505;stroke-width:0;stroke-linecap:butt;stroke-linejoin:miter;stroke-miterlimit:4;stroke-dasharray:none;stroke-opacity:1"
       d="m 3.9687455,10.597901 1.587498,-1.2064401 0.529169,-0.582422 -0.264591,0.696822 z"
       id="path2151-6" />
    <path
       style="mix-blend-mode:normal;fill:#716563;fill-opacity:1;stroke:#050505;stroke-width:0;stroke-linecap:butt;stroke-linejoin:miter;stroke-miterlimit:4;stroke-dasharray:none;stroke-opacity:1"
       d="m 10.583315,2.9120869 0.529169,0.499215 1.322913,-0.509614 0.52917,-0.582416 -0.52917,0.852824 -1.587494,0.665617 -0.264592,-0.384812 z"
       id="path2153-2" />
    <path
       style="mix-blend-mode:normal;fill:#716563;fill-opacity:1;stroke:#050505;stroke-width:0;stroke-linecap:butt;stroke-linejoin:miter;stroke-miterlimit:4;stroke-dasharray:none;stroke-opacity:1"
       d="m 9.7895655,6.3545859 0.7937485,-0.1976 v 0.540812 l 2.116662,-1.518447 0.264591,-0.426423 -2.645829,2.371272 -0.26459,-0.655224 z"
       id="path2155-6" />
    <path
       style="mix-blend-mode:normal;fill:#716563;fill-opacity:1;stroke:#050505;stroke-width:0;stroke-linecap:butt;stroke-linejoin:miter;stroke-miterlimit:4;stroke-dasharray:none;stroke-opacity:1"
       d="m 6.6145755,9.0378589 0.26459,-0.696824 1.587495,-0.936024 0.52917,0.228812 -1.058327,0.3536 z"
       id="path2157-4" />
    <path
       style="mix-blend-mode:normal;fill:#716563;fill-opacity:1;stroke:#050505;stroke-width:0;stroke-linecap:butt;stroke-linejoin:miter;stroke-miterlimit:4;stroke-dasharray:none;stroke-opacity:1"
       d="M 3.5000016e-6,12.667558 0.5291725,11.814734 l 0.529169,-0.852824 -0.79376,0.738435 z"
       id="path2159-5" />
    <path
       style="mix-blend-mode:normal;fill:#716563;fill-opacity:1;stroke:#050505;stroke-width:0;stroke-linecap:butt;stroke-linejoin:miter;stroke-miterlimit:4;stroke-dasharray:none;stroke-opacity:1"
       d="m 9.2603995,3.4216999 -0.529169,0.852824 -0.529168,0.04156 -1.058326,0.894425 -0.264592,0.696823 1.058329,-1.164833 1.058325,-0.08322 0.264591,-0.967236 z"
       id="path2161-1" />
    <rect
       style="mix-blend-mode:normal;fill:#675537;fill-opacity:1;fill-rule:evenodd;stroke:#050505;stroke-width:0;stroke-linejoin:bevel;stroke-miterlimit:4;stroke-dasharray:none;stroke-opacity:1;paint-order:stroke markers fill"
       id="rect2328"
       width="1.0444301e-14"
       height="2.7040784"
       x="7.93749"
       y="3.9001112" />
    <path
       style="fill:#c6ad8d;fill-opacity:1;stroke:none;stroke-width:2.93661px;stroke-linecap:butt;stroke-linejoin:miter;stroke-opacity:1"
       d="m 5.5729105,9.5249979 0.528027,-0.529155 -0.264012,-0.529166 -0.792031,-0.26459 0.792031,0.529167 z"
       id="path34450-0"
       sodipodi:nodetypes="cccccc" />
    <path
       style="fill:#c6ad8d;fill-opacity:1;stroke:none;stroke-width:2.93661px;stroke-linecap:butt;stroke-linejoin:miter;stroke-opacity:1"
       d="m 12.437127,2.3812499 0.264014,-0.264578 -0.264014,-0.529167 -5e-6,-0.529166 -0.264001,0.79375 z"
       id="path34450-9"
       sodipodi:nodetypes="cccccc" />
    <path
       style="fill:#c6ad8d;fill-opacity:1;stroke:none;stroke-width:2.93661px;stroke-linecap:butt;stroke-linejoin:miter;stroke-opacity:1"
       d="m 8.7410105,3.9687539 0.528016,-0.793746 v -0.529167 h -0.528016 l 0.264014,0.264584 z"
       id="path34450-97" />
    <path
       style="fill:#b18e62;fill-opacity:1;stroke:none;stroke-width:2.93661px;stroke-linecap:butt;stroke-linejoin:miter;stroke-opacity:1"
       d="m 3.4608445,10.847928 1.584046,-1.0583361 0.264013,-0.793757 h -0.528003 l -1.056034,0.529167 -1.848054,1.3229181 -0.528015,0.793746 1.320039,-0.793746 0.792024,-0.793746 0.264012,0.264589 z"
       id="path34543"
       sodipodi:nodetypes="ccccccccccc" />
    <path
       style="fill:#b18e62;fill-opacity:1;stroke:none;stroke-width:2.93661px;stroke-linecap:butt;stroke-linejoin:miter;stroke-opacity:1"
       d="m 2.6688365,6.8791719 0.79203,0.264589 -0.264014,0.529168 h 1.05603 l -0.792022,0.529157 -1.320039,1.058336 0.264007,-0.793747 0.528016,-0.793746 v -0.264578 z"
       id="path34565" />
    <path
       style="mix-blend-mode:normal;fill:#a37b39;fill-opacity:1;stroke:#050505;stroke-width:0;stroke-linecap:butt;stroke-linejoin:miter;stroke-miterlimit:4;stroke-dasharray:none;stroke-opacity:1"
       d="M 7.5000016e-6,9.7962345 1.3229205,10.638658 0.5291685,11.917899 5.0000157e-7,13.041131 1.5000016e-6,11.112501 Z"
       id="path1979-7"
       sodipodi:nodetypes="cccccc" />
    <path
       style="mix-blend-mode:normal;fill:#9f7b4f;fill-opacity:1;stroke:#050505;stroke-width:0;stroke-linecap:butt;stroke-linejoin:miter;stroke-miterlimit:4;stroke-dasharray:none;stroke-opacity:1"
       d="M 7.5000016e-6,10.337049 1.3229205,10.63866 0.5291685,11.377084 5.0000157e-7,12.229908 1.5000016e-6,11.112501 Z"
       id="path1979-4-9"
       sodipodi:nodetypes="cccccc" />
    <path
       style="mix-blend-mode:normal;fill:#716563;fill-opacity:1;stroke:#050505;stroke-width:0;stroke-linecap:butt;stroke-linejoin:miter;stroke-miterlimit:4;stroke-dasharray:none;stroke-opacity:1"
       d="M 7.5000016e-6,12.500312 0.5291765,11.647488 l 0.529169,-0.852824 -0.79376,0.738435 z"
       id="path2159-5-3" />
    <rect
       style="mix-blend-mode:normal;fill:#585858;fill-opacity:1;fill-rule:evenodd;stroke:#050505;stroke-width:0;stroke-linejoin:bevel;stroke-miterlimit:4;stroke-dasharray:none;stroke-opacity:1;paint-order:stroke markers fill"
       id="rect2163-7-1"
       width="15.357536"
       height="5.2708783"
       x="5e-07"
       y="21.166668"
       transform="matrix(0.86141115,-0.50790829,0,1,0,0)" />
    <path
       style="mix-blend-mode:normal;fill:#6e6e6e;fill-opacity:1;stroke:#050505;stroke-width:0;stroke-linecap:butt;stroke-linejoin:miter;stroke-miterlimit:4;stroke-dasharray:none;stroke-opacity:1"
       d="m 0.26459594,22.76623 c 0.459354,0.503423 0.93434196,0.925213 1.58749796,0.416012 l 1.852079,-1.092035 c 0.318962,-0.450212 0.656138,-1.012624 1.058328,-1.976055 l -1.587491,-0.956824 -2.91041396,1.716047 z"
       id="path1971-2-5"
       sodipodi:nodetypes="ccccccc" />
    <path
       style="mix-blend-mode:normal;fill:#6e6e6e;fill-opacity:1;stroke:#050505;stroke-width:0;stroke-linecap:butt;stroke-linejoin:miter;stroke-miterlimit:4;stroke-dasharray:none;stroke-opacity:1"
       d="m 5.0270889,20.228561 1.587497,0.956829 2.645824,-1.560041 1.3229151,-1.861653 -0.7937431,-0.343214 v -2.163264 l -3.439579,2.028058 v 1.081636 c -0.364538,0.706279 -0.847929,1.279253 -1.322914,1.861649 z"
       id="path1973-2-9"
       sodipodi:nodetypes="ccccccccc" />
    <path
       style="mix-blend-mode:normal;fill:#6e6e6e;fill-opacity:1;stroke:#050505;stroke-width:0;stroke-linecap:butt;stroke-linejoin:miter;stroke-miterlimit:4;stroke-dasharray:none;stroke-opacity:1"
       d="m 3.4395919,19.001323 1.322913,0.842424 c 0.300446,-0.289867 0.601212,-0.580924 1.058326,-1.435241 l 0.264591,-0.967235 -1.587496,0.665623 z"
       id="path1975-5-5"
       sodipodi:nodetypes="cccccc" />
    <path
       style="mix-blend-mode:normal;fill:#6e6e6e;fill-opacity:1;stroke:#050505;stroke-width:0;stroke-linecap:butt;stroke-linejoin:miter;stroke-miterlimit:4;stroke-dasharray:none;stroke-opacity:1"
       d="m 10.318741,14.945214 1.587499,-1.206434 1.322913,-0.509613 v 2.163263 l -0.529167,0.852824 -1.852077,1.092029 c -0.171361,0.0093 -0.347199,-0.138156 -0.52917,-0.499212 z"
       id="path1977-8-7"
       sodipodi:nodetypes="cccccccc" />
    <path
       style="mix-blend-mode:normal;fill:#6e6e6e;fill-opacity:1;stroke:#050505;stroke-width:0;stroke-linecap:butt;stroke-linejoin:miter;stroke-miterlimit:4;stroke-dasharray:none;stroke-opacity:1"
       d="m 1.5875099,23.879063 c 1.348593,-0.701812 2.114509,-1.252734 2.381246,-1.674441 l 0.79376,-0.738435 c 0.536631,-0.713324 1.059301,-0.0012 1.587497,0.1456 l -0.264594,1.23765 -2.381247,1.404038 -0.264587,-0.384806 v 0.540813 l -3.17499496,1.872053 z"
       id="path1981-7-6"
       sodipodi:nodetypes="cccccccccc" />
    <path
       style="mix-blend-mode:normal;fill:#6e6e6e;fill-opacity:1;stroke:#050505;stroke-width:0;stroke-linecap:butt;stroke-linejoin:miter;stroke-miterlimit:4;stroke-dasharray:none;stroke-opacity:1"
       d="m 9.2604099,19.895756 0.7937481,0.07278 8e-6,0.540812 1.587492,-0.66559 1.587498,-1.206427 1.2e-5,-1.968582 -1.2e-5,-0.735505 -0.793745,1.549649 c -0.147676,0.405578 -0.645136,0.824857 -1.058325,1.164832 l -0.52918,-0.769624 z"
       id="path1983-91-4"
       sodipodi:nodetypes="ccccccccccc" />
    <path
       style="mix-blend-mode:normal;fill:#6e6e6e;fill-opacity:1;stroke:#050505;stroke-width:0;stroke-linecap:butt;stroke-linejoin:miter;stroke-miterlimit:4;stroke-dasharray:none;stroke-opacity:1"
       d="m 6.3500029,22.693432 1.322915,-0.509607 1.852076,-1.36244 -0.529165,-0.228809 -0.264591,-0.384807 -2.116659,1.518445 z"
       id="path1987-0-4" />
    <path
       style="mix-blend-mode:normal;fill:#6e6e6e;fill-opacity:1;stroke:#050505;stroke-width:0;stroke-linecap:butt;stroke-linejoin:miter;stroke-miterlimit:4;stroke-dasharray:none;stroke-opacity:1"
       d="m 11.112491,17.722095 0.529168,0.228811 c 0.491896,-0.422401 0.764157,-0.933224 1.058338,-1.435241 l -1.058338,0.624013 z"
       id="path1989-4-8"
       sodipodi:nodetypes="ccccc" />
    <path
       style="mix-blend-mode:normal;fill:#777777;fill-opacity:1;stroke:#050505;stroke-width:0;stroke-linecap:butt;stroke-linejoin:miter;stroke-miterlimit:4;stroke-dasharray:none;stroke-opacity:1"
       d="m 1.5875089,23.879063 c 1.348593,-0.701812 2.114508,-1.252733 2.381247,-1.67444 l 0.793759,-0.738435 c 0.536631,-0.713324 1.059301,-0.0012 1.587497,0.145611 l -0.793759,1.008835 -1.587497,1.206434 -0.529169,-0.228812 -1.058326,0.894424 -1.85208096,1.362437 z"
       id="path1981-0-5-2"
       sodipodi:nodetypes="cccccccccc" />
    <path
       style="mix-blend-mode:normal;fill:#777777;fill-opacity:1;stroke:#050505;stroke-width:0;stroke-linecap:butt;stroke-linejoin:miter;stroke-miterlimit:4;stroke-dasharray:none;stroke-opacity:1"
       d="m 5.5562529,20.186961 1.058326,0.728024 1.587497,-1.206439 0.79376,-0.1976 0.529168,-1.393639 -0.264589,-0.655224 0.264589,-2.048862 -3.174993,1.872052 0.529169,1.040035 c -0.364527,0.706279 -0.84793,1.279254 -1.322927,1.861653 z"
       id="path1973-0-3-2"
       sodipodi:nodetypes="cccccccccc" />
    <path
       style="mix-blend-mode:normal;fill:#777777;fill-opacity:1;stroke:#050505;stroke-width:0;stroke-linecap:butt;stroke-linejoin:miter;stroke-miterlimit:4;stroke-dasharray:none;stroke-opacity:1"
       d="m 3.9687559,18.959724 0.793759,0.07278 c 0.300445,-0.289867 0.336621,0.1159 0.793758,-0.738424 v -0.270414 l -1.058316,0.08322 z"
       id="path1975-7-5-1"
       sodipodi:nodetypes="cccccc" />
    <path
       style="mix-blend-mode:normal;fill:#777777;fill-opacity:1;stroke:#050505;stroke-width:0;stroke-linecap:butt;stroke-linejoin:miter;stroke-miterlimit:4;stroke-dasharray:none;stroke-opacity:1"
       d="m 0.79376194,22.724629 c 0.45935396,0.503423 1.19892496,-0.042 1.85207996,-0.551212 l 1.058325,-0.624012 c 0.318972,-0.450212 0.656137,-0.471801 1.058327,-1.435241 -1.35749,0.573779 -1.305098,-0.371934 -1.587495,-0.956835 l -2.64581996,1.830449 z"
       id="path1971-1-8-7"
       sodipodi:nodetypes="ccccccc" />
    <path
       style="mix-blend-mode:normal;fill:#777777;fill-opacity:1;stroke:#050505;stroke-width:0;stroke-linecap:butt;stroke-linejoin:miter;stroke-miterlimit:4;stroke-dasharray:none;stroke-opacity:1"
       d="m 10.583327,15.059616 1.322915,-1.050429 1.058331,-0.0832 -1.587497,1.206434 1.322912,-0.780022 0.26459,0.925624 -0.26459,0.967232 -1.587495,0.395209 c -0.17136,0.0093 -0.347199,0.132256 -0.529169,-0.228811 z"
       id="path1977-4-3-0"
       sodipodi:nodetypes="cccccccccc" />
    <path
       style="mix-blend-mode:normal;fill:#777777;fill-opacity:1;stroke:#050505;stroke-width:0;stroke-linecap:butt;stroke-linejoin:miter;stroke-miterlimit:4;stroke-dasharray:none;stroke-opacity:1"
       d="m 9.7895779,19.583748 0.7937601,-0.197601 v 0.540813 l 1.587497,-0.665613 1.058326,-1.435245 7e-6,-1.157353 -7e-6,-0.194687 -0.793749,1.008825 c -0.147676,0.405575 -0.909725,1.251262 -1.32292,1.591242 l -0.264591,-0.925625 z"
       id="path1983-9-0-1"
       sodipodi:nodetypes="ccccccccccc" />
    <path
       style="mix-blend-mode:normal;fill:#777777;fill-opacity:1;stroke:#050505;stroke-width:0;stroke-linecap:butt;stroke-linejoin:miter;stroke-miterlimit:4;stroke-dasharray:none;stroke-opacity:1"
       d="m 6.3500059,22.693431 1.322914,-0.509612 1.587492,-1.206436 -0.529168,0.04156 -0.793759,0.197611 -1.058326,0.624013 z"
       id="path1987-2-4-4"
       sodipodi:nodetypes="ccccccc" />
    <path
       style="mix-blend-mode:normal;fill:#777777;fill-opacity:1;stroke:#050505;stroke-width:0;stroke-linecap:butt;stroke-linejoin:miter;stroke-miterlimit:4;stroke-dasharray:none;stroke-opacity:1"
       d="m 11.112493,17.722094 0.793758,-0.468013 c 0.491896,-0.4224 0.499567,-0.236411 0.793759,-0.738434 l -1.058337,0.624012 z"
       id="path1989-7-9-3"
       sodipodi:nodetypes="ccccc" />
    <path
       style="mix-blend-mode:normal;fill:#6a6a6a;fill-opacity:1;stroke:#050505;stroke-width:0;stroke-linecap:butt;stroke-linejoin:miter;stroke-miterlimit:4;stroke-dasharray:none;stroke-opacity:1"
       d="m 5.5562539,20.18696 1.322916,0.301612 1.322912,-1.050436 0.793749,0.07278 0.793758,-1.279241 v -0.270411 l 0.5291691,-0.04156 -1.0583271,1.435241 -1.587496,0.936023 -1.322914,0.509624 z"
       id="path2143-4-5" />
    <path
       style="mix-blend-mode:normal;fill:#6a6a6a;fill-opacity:1;stroke:#050505;stroke-width:0;stroke-linecap:butt;stroke-linejoin:miter;stroke-miterlimit:4;stroke-dasharray:none;stroke-opacity:1"
       d="M 0.79376194,25.699116 3.1750099,24.024668 3.4395969,23.598256 Z"
       id="path2145-6-3" />
    <path
       style="mix-blend-mode:normal;fill:#6a6a6a;fill-opacity:1;stroke:#050505;stroke-width:0;stroke-linecap:butt;stroke-linejoin:miter;stroke-miterlimit:4;stroke-dasharray:none;stroke-opacity:1"
       d="m 4.2333399,20.966982 -0.529167,0.852824 -1.587497,1.206432 -1.32291396,0.239211 -0.264587,-0.655213 0.264587,-0.696822 1.58749796,-1.206434 -0.529166,0.852824 -0.793755,0.468012 -0.26458796,0.696823 1.32291296,-0.2392 1.322917,-1.050435 z"
       id="path2147-3-6" />
    <path
       style="mix-blend-mode:normal;fill:#6a6a6a;fill-opacity:1;stroke:#050505;stroke-width:0;stroke-linecap:butt;stroke-linejoin:miter;stroke-miterlimit:4;stroke-dasharray:none;stroke-opacity:1"
       d="m 3.9687559,18.959723 0.79376,0.07278 0.529158,-0.312001 0.264589,-0.426412 -0.264589,0.696824 -0.52917,0.582423 -0.529169,-0.228811 z"
       id="path2149-7-5" />
    <path
       style="mix-blend-mode:normal;fill:#6a6a6a;fill-opacity:1;stroke:#050505;stroke-width:0;stroke-linecap:butt;stroke-linejoin:miter;stroke-miterlimit:4;stroke-dasharray:none;stroke-opacity:1"
       d="m 3.9687559,23.827063 1.587498,-1.20644 0.529169,-0.582422 -0.264591,0.696822 z"
       id="path2151-6-6" />
    <path
       style="mix-blend-mode:normal;fill:#6a6a6a;fill-opacity:1;stroke:#050505;stroke-width:0;stroke-linecap:butt;stroke-linejoin:miter;stroke-miterlimit:4;stroke-dasharray:none;stroke-opacity:1"
       d="m 10.583325,16.141249 0.529169,0.499215 1.322913,-0.509614 0.52917,-0.582416 -0.52917,0.852824 -1.587494,0.665617 -0.264592,-0.384812 z"
       id="path2153-2-4" />
    <path
       style="mix-blend-mode:normal;fill:#6a6a6a;fill-opacity:1;stroke:#050505;stroke-width:0;stroke-linecap:butt;stroke-linejoin:miter;stroke-miterlimit:4;stroke-dasharray:none;stroke-opacity:1"
       d="m 9.7895759,19.583748 0.7937481,-0.1976 v 0.540812 l 2.116662,-1.518447 0.264591,-0.426423 -2.645829,2.371272 -0.26459,-0.655224 z"
       id="path2155-6-7" />
    <path
       style="mix-blend-mode:normal;fill:#6a6a6a;fill-opacity:1;stroke:#050505;stroke-width:0;stroke-linecap:butt;stroke-linejoin:miter;stroke-miterlimit:4;stroke-dasharray:none;stroke-opacity:1"
       d="m 6.6145859,22.267021 0.26459,-0.696824 1.587495,-0.936024 0.52917,0.228812 -1.058327,0.3536 z"
       id="path2157-4-3" />
    <path
       style="mix-blend-mode:normal;fill:#6a6a6a;fill-opacity:1;stroke:#050505;stroke-width:0;stroke-linecap:butt;stroke-linejoin:miter;stroke-miterlimit:4;stroke-dasharray:none;stroke-opacity:1"
       d="M 1.3941247e-5,25.89672 0.52918294,25.043896 1.0583519,24.191072 0.26459194,24.929507 Z"
       id="path2159-5-2" />
    <path
       style="mix-blend-mode:normal;fill:#6a6a6a;fill-opacity:1;stroke:#050505;stroke-width:0;stroke-linecap:butt;stroke-linejoin:miter;stroke-miterlimit:4;stroke-dasharray:none;stroke-opacity:1"
       d="m 9.2604099,16.650862 -0.529169,0.852824 -0.529168,0.04156 -1.058326,0.894425 -0.264592,0.696823 1.058329,-1.164833 1.058325,-0.08322 0.264591,-0.967236 z"
       id="path2161-1-9" />
    <rect
       style="mix-blend-mode:normal;fill:#675537;fill-opacity:1;fill-rule:evenodd;stroke:#050505;stroke-width:0;stroke-linejoin:bevel;stroke-miterlimit:4;stroke-dasharray:none;stroke-opacity:1;paint-order:stroke markers fill"
       id="rect2328-0"
       width="1.0444301e-14"
       height="2.7040784"
       x="7.9374981"
       y="17.129274" />
    <path
       style="fill:#a9a9a9;fill-opacity:1;stroke:none;stroke-width:2.93661px;stroke-linecap:butt;stroke-linejoin:miter;stroke-opacity:1"
       d="m 5.5729209,22.75416 0.528027,-0.529155 -0.264012,-0.529166 -0.792031,-0.26459 0.792031,0.529167 z"
       id="path34450-0-5"
       sodipodi:nodetypes="cccccc" />
    <path
       style="fill:#a9a9a9;fill-opacity:1;stroke:none;stroke-width:2.93661px;stroke-linecap:butt;stroke-linejoin:miter;stroke-opacity:1"
       d="m 12.437137,15.610412 0.264014,-0.264578 -0.264014,-0.529167 -5e-6,-0.529166 -0.264001,0.79375 z"
       id="path34450-9-2"
       sodipodi:nodetypes="cccccc" />
    <path
       style="fill:#a9a9a9;fill-opacity:1;stroke:none;stroke-width:2.93661px;stroke-linecap:butt;stroke-linejoin:miter;stroke-opacity:1"
       d="m 8.7410209,17.197916 0.528016,-0.793746 v -0.529167 h -0.528016 l 0.264014,0.264584 z"
       id="path34450-97-8" />
    <path
       style="fill:#898989;fill-opacity:1;stroke:none;stroke-width:2.93661px;stroke-linecap:butt;stroke-linejoin:miter;stroke-opacity:1"
       d="m 3.4608549,24.07709 1.584046,-1.058336 0.264013,-0.793757 h -0.528003 l -1.056034,0.529167 -1.848054,1.322918 -0.528015,0.793746 1.320039,-0.793746 0.792024,-0.793746 0.264012,0.264589 z"
       id="path34543-7"
       sodipodi:nodetypes="ccccccccccc" />
    <path
       style="fill:#898989;fill-opacity:1;stroke:none;stroke-width:2.93661px;stroke-linecap:butt;stroke-linejoin:miter;stroke-opacity:1"
       d="m 2.6688469,20.108334 0.79203,0.264589 -0.264014,0.529168 h 1.05603 l -0.792022,0.529157 -1.320039,1.058336 0.264007,-0.793747 0.528016,-0.793746 v -0.264578 z"
       id="path34565-1" />
  </g>
</svg>
