<?xml version="1.0" encoding="UTF-8" standalone="no"?>
<svg
   xmlns:dc="http://purl.org/dc/elements/1.1/"
   xmlns:cc="http://creativecommons.org/ns#"
   xmlns:rdf="http://www.w3.org/1999/02/22-rdf-syntax-ns#"
   xmlns:svg="http://www.w3.org/2000/svg"
   xmlns="http://www.w3.org/2000/svg"
   xmlns:sodipodi="http://sodipodi.sourceforge.net/DTD/sodipodi-0.dtd"
   xmlns:inkscape="http://www.inkscape.org/namespaces/inkscape"
   width="9"
   height="7.1999998"
   viewBox="0 0 2.38125 1.9049999"
   version="1.1"
   id="svg8"
   sodipodi:docname="Water3.svg"
   inkscape:version="1.0.2-2 (e86c870879, 2021-01-15)">
  <defs
     id="defs2">
    <inkscape:perspective
       sodipodi:type="inkscape:persp3d"
       inkscape:vp_x="0 : -2.565833 : 1"
       inkscape:vp_y="0 : 999.99998 : 0"
       inkscape:vp_z="10 : -2.565833 : 1"
       inkscape:persp3d-origin="5.0000002 : -4.2324997 : 1"
       id="perspective1944" />
  </defs>
  <sodipodi:namedview
     id="base"
     pagecolor="#ffffff"
     bordercolor="#666666"
     borderopacity="1.0"
     inkscape:pageopacity="0.0"
     inkscape:pageshadow="2"
     inkscape:zoom="181.01934"
     inkscape:cx="2.9982606"
     inkscape:cy="5.3018816"
     inkscape:document-units="mm"
     inkscape:current-layer="layer1"
     inkscape:document-rotation="0"
     showgrid="true"
     showguides="true"
     inkscape:guide-bbox="true"
     inkscape:window-width="1920"
     inkscape:window-height="1017"
     inkscape:window-x="-8"
     inkscape:window-y="-8"
     inkscape:window-maximized="1"
     units="px"
     gridtolerance="10000"
     guidetolerance="10000"
     objecttolerance="10000">
    <inkscape:grid
       type="xygrid"
       id="grid1942"
       units="px"
       dotted="false"
       spacingx="0.023812499"
       spacingy="0.023812499"
       empspacing="10"
       visible="true" />
  </sodipodi:namedview>
  <metadata
     id="metadata5">
    <rdf:RDF>
      <cc:Work
         rdf:about="">
        <dc:format>image/svg+xml</dc:format>
        <dc:type
           rdf:resource="http://purl.org/dc/dcmitype/StillImage" />
        <dc:title></dc:title>
      </cc:Work>
    </rdf:RDF>
  </metadata>
  <g
     inkscape:label="Layer 1"
     inkscape:groupmode="layer"
     id="layer1">
    <path
       style="fill:#0099bd;fill-opacity:1;fill-rule:evenodd;stroke:none;stroke-width:0.0206222;stroke-linecap:butt;stroke-linejoin:bevel;stroke-miterlimit:1;stroke-dasharray:none;stroke-opacity:1;paint-order:stroke markers fill"
       d="M 0,0.71437492 1.1906249,0 2.38125,0.71437492 1.1906249,1.4287499 Z"
       id="path1960" />
    <path
       style="fill:#0085a5;fill-opacity:1;stroke:none;stroke-width:0.0217377;stroke-linecap:butt;stroke-linejoin:bevel;stroke-miterlimit:4;stroke-dasharray:none;stroke-opacity:1"
       d="M 0,0.71437497 V 1.1906249 l 1.190625,0.714375 v -0.47625 z"
       id="path1962"
       sodipodi:nodetypes="ccccc" />
    <path
       style="fill:#008eaf;fill-opacity:1;stroke:none;stroke-width:0.0205457;stroke-linecap:butt;stroke-linejoin:bevel;stroke-miterlimit:4;stroke-dasharray:none;stroke-opacity:1"
       d="M 1.190625,1.4287499 2.3812499,0.71437497 V 1.190625 L 1.190625,1.9049999 Z"
       id="path1964"
       sodipodi:nodetypes="ccccc" />
    <path
       style="fill:#00b2de;fill-opacity:1;stroke:none;stroke-width:0.0564393px;stroke-linecap:butt;stroke-linejoin:miter;stroke-opacity:1"
       d="m 0.83343746,0.21431249 c 0.0714375,0.047625 0.15744488,0.0604265 0.36055704,0.16517268 0.1844683,0.0951314 0.3215803,0.25264111 0.4641269,0.36256124 0.1501845,0.11580979 0.2945035,0.13901605 0.365941,0.18664105 L 1.6668749,1.143 C 1.4763749,0.95249996 1.5001874,1.1668125 1.5478124,1.2144374 1.4287499,1.2858749 1.4287499,1.2858749 1.3096874,1.3573124 1.2382499,1.2858749 1.1854931,1.0749721 1.143,0.97631246 1.1005068,0.87765277 1.1107276,0.73268246 0.96096335,0.6555447 0.7170471,0.52991286 0.54768748,0.47624998 0.47624998,0.42862498 Z"
       id="path4713"
       sodipodi:nodetypes="csscccczscc" />
    <path
       style="fill:#00a5ce;fill-opacity:1;stroke:none;stroke-width:0.0700043px;stroke-linecap:butt;stroke-linejoin:miter;stroke-opacity:1"
       d="m 0.11906249,0.78581247 c 0,0.26193753 0.0714375,0.40481253 0,0.47624993 l 0.47624999,0.28575 c 0,-0.065829 0.0219244,-0.1651028 0.0219244,-0.2659627 -6e-8,-0.081561 -0.0219246,-0.1677006 -0.0219248,-0.2102873 z"
       id="path4715"
       sodipodi:nodetypes="cccscc" />
    <path
       style="fill:#00a8d2;fill-opacity:1;stroke:none;stroke-width:0.0700043px;stroke-linecap:butt;stroke-linejoin:miter;stroke-opacity:1"
       d="m 1.6668749,1.143 c 0.047625,0.071437 0.040067,0.1412404 0,0.2381249 -0.058627,0.1099778 -0.047625,0.1666875 0,0.238125 L 2.0240624,1.4049374 c -0.023813,-0.071437 -0.089229,-0.096902 -0.023813,-0.2143124 0.026458,-0.1058335 0.071438,-0.1905 0.023813,-0.26193754 z"
       id="path4719"
       sodipodi:nodetypes="ccccccc" />
    <path
       style="fill:#00a8d2;fill-opacity:1;stroke:none;stroke-width:0.0700043px;stroke-linecap:butt;stroke-linejoin:miter;stroke-opacity:1"
       d="m 1.3096874,1.3573124 c 0.071438,0.071437 0.07037,0.117411 0.00627,0.1917792 -0.10152,0.1177833 -0.053898,0.2130333 -0.00627,0.2844708 l 0.238125,-0.142875 c -0.047625,-0.071438 -0.047625,-0.1666875 0.023813,-0.2143125 0.071438,-0.047625 0.047626,-0.1905 -0.023813,-0.2619375 z"
       id="path4719-8"
       sodipodi:nodetypes="csccscc" />
    <path
       style="fill:#00b2de;fill-opacity:1;stroke:none;stroke-width:0.0700043px;stroke-linecap:butt;stroke-linejoin:miter;stroke-opacity:1"
       d="m 1.3096874,0.0714375 c 0,0.21431249 -0.1190624,0.23812499 -0.2619374,0.23812499 0.5000624,0.38099998 0.5005987,0.11527893 0.6684556,0.15249763 0.039163,-0.0151196 0.069732,-0.009623 0.069732,-0.1048726 z"
       id="path5887-4"
       sodipodi:nodetypes="ccccc" />
    <path
       style="fill:#00b2de;fill-opacity:1;stroke:none;stroke-width:0.0700043px;stroke-linecap:butt;stroke-linejoin:miter;stroke-opacity:1"
       d="m 0.11906249,0.78581242 c 10e-9,-0.0714375 0.0714375,-0.0714375 0,-0.142875 L 0.35718748,0.50006243 C 0.42862498,0.54768748 0.79893251,0.82379542 0.85724996,0.85724996 0.91556742,0.89070451 1.04775,1.04775 1.0693096,1.0778354 c 0.054266,0.075725 0.1560484,0.2666173 0.00225,0.279477 0,0 -0.12311247,-0.07588 -0.23812504,-0.142875 0.0197626,-0.028255 0.0180202,-0.057322 -0.057975,-0.1818232 C 0.70967596,0.92483756 0.59531248,0.9763125 0.59531248,1.0715692 Z"
       id="path5887-7"
       sodipodi:nodetypes="ccczsccscc" />
    <path
       style="fill:#00c3f3;fill-opacity:1;stroke:none;stroke-width:0.0582979px;stroke-linecap:butt;stroke-linejoin:miter;stroke-opacity:1"
       d="M 0.71437497,0.85724996 C 0.76019024,0.8114347 0.54296708,0.72664859 0.46848748,0.69135077 c -0.074486,-0.0352982 -0.162671,-0.0653729 -0.18273749,-7.883e-4 -0.0200665,0.0645846 0.0977047,0.0834535 0.15578563,0.1086487 0.0853012,0.0370032 0.22702408,0.10385406 0.27283935,0.0580388 z"
       id="path4669"
       sodipodi:nodetypes="zzzaz" />
    <path
       style="fill:#00b2de;fill-opacity:1;stroke:none;stroke-width:0.264583px;stroke-linecap:butt;stroke-linejoin:miter;stroke-opacity:1"
       d="m 2.0240624,0.50006247 c -0.071438,0.0714375 -0.2505583,0.11577531 -0.2202792,0.18946477 0.029779,0.0724727 0.2881938,0.13527257 0.396393,0.11685207 0.075835,-0.0129106 0.014386,-0.11581684 0.062012,-0.16344182 z"
       id="path6086"
       sodipodi:nodetypes="csscc" />
    <path
       style="fill:#00c3f3;fill-opacity:1;stroke:none;stroke-width:0.0604866px;stroke-linecap:butt;stroke-linejoin:miter;stroke-opacity:1"
       d="m 1.04775,0.47624998 c 0.023813,-0.0238125 0.2744959,0.0831007 0.3571874,0.19049999 0.082692,0.10739929 0.28575,0.21431249 0.2555352,0.27774439 C 1.6463653,0.97411045 1.510168,0.92626955 1.4430715,0.96280419 1.3724096,1.0012802 1.4287499,1.095375 1.3492222,1.0983361 1.2678177,1.1013671 1.2699236,0.99756042 1.2057214,0.82301188 1.1415194,0.64846324 1.0239375,0.50006248 1.04775,0.47624998 Z"
       id="path4669-6"
       sodipodi:nodetypes="zzssszz" />
    <path
       style="fill:#00a5ce;fill-opacity:1;stroke:none;stroke-width:0.264583px;stroke-linecap:butt;stroke-linejoin:miter;stroke-opacity:1"
       d="m 0.83343746,1.2144374 c 0,0 0.0258829,0.1696108 0.00207,0.2410483 -0.0255977,0.076793 -0.00207,0.2352017 -0.00207,0.2352017 l 0.23812494,0.142875 c 0,0 -0.010869,-0.1567449 0.00627,-0.2322784 0.01754,-0.077284 -0.00627,-0.2439716 -0.00627,-0.2439716 L 0.83343746,1.2144374"
       id="path6108"
       sodipodi:nodetypes="csccscc" />
  </g>
</svg>
