<?xml version="1.0" encoding="UTF-8" standalone="no"?>
<svg
   xmlns:dc="http://purl.org/dc/elements/1.1/"
   xmlns:cc="http://creativecommons.org/ns#"
   xmlns:rdf="http://www.w3.org/1999/02/22-rdf-syntax-ns#"
   xmlns:svg="http://www.w3.org/2000/svg"
   xmlns="http://www.w3.org/2000/svg"
   xmlns:sodipodi="http://sodipodi.sourceforge.net/DTD/sodipodi-0.dtd"
   xmlns:inkscape="http://www.inkscape.org/namespaces/inkscape"
   width="9"
   height="7.1999998"
   viewBox="0 0 2.38125 1.9049999"
   version="1.1"
   id="svg8"
   sodipodi:docname="Water1.svg"
   inkscape:version="1.0.2-2 (e86c870879, 2021-01-15)">
  <defs
     id="defs2">
    <inkscape:perspective
       sodipodi:type="inkscape:persp3d"
       inkscape:vp_x="0 : -2.565833 : 1"
       inkscape:vp_y="0 : 999.99998 : 0"
       inkscape:vp_z="10 : -2.565833 : 1"
       inkscape:persp3d-origin="5.0000002 : -4.2324997 : 1"
       id="perspective1944" />
  </defs>
  <sodipodi:namedview
     id="base"
     pagecolor="#ffffff"
     bordercolor="#666666"
     borderopacity="1.0"
     inkscape:pageopacity="0.0"
     inkscape:pageshadow="2"
     inkscape:zoom="165.4"
     inkscape:cx="3.4147433"
     inkscape:cy="2.6783333"
     inkscape:document-units="mm"
     inkscape:current-layer="layer1"
     inkscape:document-rotation="0"
     showgrid="true"
     showguides="true"
     inkscape:guide-bbox="true"
     inkscape:window-width="1920"
     inkscape:window-height="1017"
     inkscape:window-x="-8"
     inkscape:window-y="-8"
     inkscape:window-maximized="1"
     units="px">
    <inkscape:grid
       type="xygrid"
       id="grid1942"
       units="px"
       dotted="false"
       spacingx="0.023812499"
       spacingy="0.023812499"
       empspacing="10"
       visible="true" />
  </sodipodi:namedview>
  <metadata
     id="metadata5">
    <rdf:RDF>
      <cc:Work
         rdf:about="">
        <dc:format>image/svg+xml</dc:format>
        <dc:type
           rdf:resource="http://purl.org/dc/dcmitype/StillImage" />
        <dc:title />
      </cc:Work>
    </rdf:RDF>
  </metadata>
  <g
     inkscape:label="Layer 1"
     inkscape:groupmode="layer"
     id="layer1">
    <path
       style="fill:#0099bd;fill-opacity:1;fill-rule:evenodd;stroke:none;stroke-width:0.0206222;stroke-linecap:butt;stroke-linejoin:bevel;stroke-miterlimit:1;stroke-dasharray:none;stroke-opacity:1;paint-order:stroke markers fill"
       d="M 0,0.71437492 1.1906249,0 2.38125,0.71437492 1.1906249,1.4287499 Z"
       id="path1960" />
    <path
       style="fill:#0085a5;fill-opacity:1;stroke:none;stroke-width:0.0217377;stroke-linecap:butt;stroke-linejoin:bevel;stroke-miterlimit:4;stroke-dasharray:none;stroke-opacity:1"
       d="M 0,0.71437497 V 1.1906249 l 1.190625,0.714375 v -0.47625 z"
       id="path1962"
       sodipodi:nodetypes="ccccc" />
    <path
       style="fill:#008eaf;fill-opacity:1;stroke:none;stroke-width:0.0205457;stroke-linecap:butt;stroke-linejoin:bevel;stroke-miterlimit:4;stroke-dasharray:none;stroke-opacity:1"
       d="M 1.190625,1.4287499 2.3812499,0.71437497 V 1.190625 L 1.190625,1.9049999 Z"
       id="path1964"
       sodipodi:nodetypes="ccccc" />
    <path
       style="fill:#00b2de;fill-opacity:1;stroke:none;stroke-width:0.0564393px;stroke-linecap:butt;stroke-linejoin:miter;stroke-opacity:1"
       d="m 0.83343746,0.21431249 c 0.0714375,0.047625 0.15744488,0.0604265 0.36055704,0.16517268 0.1844683,0.0951314 0.3215803,0.25264111 0.4641269,0.36256124 0.1501845,0.11580979 0.2945035,0.13901605 0.365941,0.18664105 L 1.6668749,1.143 C 1.5954374,1.095375 1.4959887,1.0827934 1.3224641,0.94693431 1.2030265,0.85342197 1.1107276,0.73268246 0.96096335,0.6555447 0.7170471,0.52991286 0.54768748,0.47624998 0.47624998,0.42862498 Z"
       id="path4713"
       sodipodi:nodetypes="cssccsscc" />
    <path
       style="fill:#00a5ce;fill-opacity:1;stroke:none;stroke-width:0.0700043px;stroke-linecap:butt;stroke-linejoin:miter;stroke-opacity:1"
       d="m 0.11906249,0.78581247 c 0,0.26193753 0.0714375,0.40481253 0,0.47624993 l 0.47624999,0.28575 c 0.00279,-0.1036011 -0.0752639,-0.4426731 0.13160455,-0.046632 0.0327112,0.062624 0.17795793,0.1180692 0.10652044,0.1895067 L 1.0715625,1.8335624 c 0.071438,-0.071438 -0.071438,-0.4048125 0,-0.47625 L 0.83343746,1.2144374 C 0.76199996,1.2858754 0.65611131,1.0615595 0.60461304,1.1533774 0.55175834,1.2476134 0.52387498,1.143 0.59531204,1.0715624 Z"
       id="path4715"
       sodipodi:nodetypes="cccsccccscc" />
    <path
       style="fill:#00a8d2;fill-opacity:1;stroke:none;stroke-width:0.0700043px;stroke-linecap:butt;stroke-linejoin:miter;stroke-opacity:1"
       d="m 1.6668749,1.143 c 0.047625,0.071437 0.040067,0.1412404 0,0.2381249 -0.058627,0.1099778 -0.047625,0.1666875 0,0.238125 L 2.0240624,1.4049374 c -0.023813,-0.071437 -0.089229,-0.096902 -0.023813,-0.2143124 0.026458,-0.1058335 0.071438,-0.1905 0.023813,-0.26193754 z"
       id="path4719"
       sodipodi:nodetypes="ccccccc" />
    <path
       style="fill:#0085a5;fill-opacity:1;stroke:none;stroke-width:0.0700043px;stroke-linecap:butt;stroke-linejoin:miter;stroke-opacity:1"
       d="m 0.33602079,0.98160415 c -0.0235678,0.0422089 -0.0366794,0.0982621 -0.0264583,0.18520835 0.0468809,0.1121559 0.0221057,0.1127856 0.0264583,0.15875 0.0216436,-0.047291 0.0373715,-0.097177 0.0264584,-0.15875 -0.03051,-0.049026 -0.0329124,-0.1145222 -0.0264584,-0.18520835 z"
       id="path4721"
       sodipodi:nodetypes="ccccc" />
    <path
       style="fill:#00a8d2;fill-opacity:1;stroke:none;stroke-width:0.0700043px;stroke-linecap:butt;stroke-linejoin:miter;stroke-opacity:1"
       d="m 1.3096874,1.3573124 c 0.071438,0.071437 0.063878,0.165053 0.023813,0.2619375 -0.058627,0.1099778 -0.071438,0.142875 -0.023813,0.2143125 l 0.238125,-0.142875 c -0.047625,-0.071438 1e-7,-0.1428749 0.023813,-0.2143125 0.026458,-0.1058333 0.047626,-0.1905 -0.023813,-0.2619375 z"
       id="path4719-8"
       sodipodi:nodetypes="ccccccc" />
    <path
       style="fill:#00b2de;fill-opacity:1;stroke:none;stroke-width:0.0700043px;stroke-linecap:butt;stroke-linejoin:miter;stroke-opacity:1"
       d="m 0.11906249,0.78581247 c 10e-9,-0.0714375 0.0714375,-0.0714375 0,-0.142875 L 0.35718748,0.50006248 c 0.0365887,0.0365887 0.23093556,0.19277557 0.2823041,0.31499158 0.0489258,0.11640421 -0.0441791,0.19842714 -0.0441791,0.25650844 z"
       id="path5887"
       sodipodi:nodetypes="cccscc" />
    <path
       style="fill:#00b2de;fill-opacity:1;stroke:none;stroke-width:0.0700043px;stroke-linecap:butt;stroke-linejoin:miter;stroke-opacity:1"
       d="m 1.3096874,1.3573124 c -0.052917,-0.052917 -0.1657981,-0.072178 -0.2381249,0 L 0.83343746,1.2144407 C 0.96572914,1.0821448 1.3890624,1.0556865 1.5478124,1.2144374 Z"
       id="path5889"
       sodipodi:nodetypes="ccccc" />
    <path
       style="fill:#00b2de;fill-opacity:1;stroke:none;stroke-width:0.0700043px;stroke-linecap:butt;stroke-linejoin:miter;stroke-opacity:1"
       d="m 1.3096874,0.0714375 c 0,0.21431249 0.2877848,0.62659848 0.5844081,0.72487542 0.1497393,0.0496114 0.2966544,-0.0819379 0.3680919,-0.15337545 L 2.0240624,0.50006248 c -0.071438,0.0714375 -0.238125,-0.047625 -0.238125,-0.14287499 z"
       id="path5887-4"
       sodipodi:nodetypes="cscccc" />
    <path
       style="fill:#00c3f3;fill-opacity:1;stroke:none;stroke-width:0.0700043px;stroke-linecap:butt;stroke-linejoin:miter;stroke-opacity:1"
       d="M 1.2064999,0.05027084 C 1.3917083,0.28839583 1.5489491,0.37528108 1.7092083,0.55297917 1.8150416,0.68527084 1.8150416,0.71172917 1.8150415,0.7911042 1.7092083,0.68527084 1.4687938,0.43671741 1.2858749,0.26193749 1.1744236,0.12476931 1.2220076,0.13686307 1.2064999,0.05027084 Z"
       id="path4669"
       sodipodi:nodetypes="ccccc" />
    <path
       style="fill:#00c3f3;fill-opacity:1;stroke:none;stroke-width:0.0700043px;stroke-linecap:butt;stroke-linejoin:miter;stroke-opacity:1"
       d="M 0.64293747,0.61912497 C 0.82811488,0.70160933 1.0398125,1.0159999 1.1191874,1.17475 0.96043748,1.0953749 0.80168747,0.96308333 0.74877081,0.85725003 0.72231247,0.80433333 0.66786892,0.69500973 0.64293747,0.61912497 Z"
       id="path4671"
       sodipodi:nodetypes="cccc" />
  </g>
</svg>
