<?xml version="1.0" encoding="UTF-8" standalone="no"?>
<svg
   xmlns:dc="http://purl.org/dc/elements/1.1/"
   xmlns:cc="http://creativecommons.org/ns#"
   xmlns:rdf="http://www.w3.org/1999/02/22-rdf-syntax-ns#"
   xmlns:svg="http://www.w3.org/2000/svg"
   xmlns="http://www.w3.org/2000/svg"
   xmlns:sodipodi="http://sodipodi.sourceforge.net/DTD/sodipodi-0.dtd"
   xmlns:inkscape="http://www.inkscape.org/namespaces/inkscape"
   width="100"
   height="60"
   viewBox="0 0 26.458333 15.875"
   version="1.1"
   id="svg8"
   sodipodi:docname="Water6.svg"
   inkscape:version="1.0.2-2 (e86c870879, 2021-01-15)">
  <defs
     id="defs2">
    <inkscape:perspective
       sodipodi:type="inkscape:persp3d"
       inkscape:vp_x="0 : 11.404167 : 1"
       inkscape:vp_y="0 : 1000 : 0"
       inkscape:vp_z="9.9999999 : 11.404167 : 1"
       inkscape:persp3d-origin="5.0000001 : 9.7375002 : 1"
       id="perspective1944" />
  </defs>
  <sodipodi:namedview
     id="base"
     pagecolor="#ffffff"
     bordercolor="#666666"
     borderopacity="1.0"
     inkscape:pageopacity="0.0"
     inkscape:pageshadow="2"
     inkscape:zoom="13.36"
     inkscape:cx="50"
     inkscape:cy="2.6783333"
     inkscape:document-units="mm"
     inkscape:current-layer="layer1"
     inkscape:document-rotation="0"
     showgrid="true"
     showguides="true"
     inkscape:guide-bbox="true"
     inkscape:window-width="1920"
     inkscape:window-height="1017"
     inkscape:window-x="-8"
     inkscape:window-y="-8"
     inkscape:window-maximized="1"
     units="px">
    <inkscape:grid
       type="xygrid"
       id="grid1942"
       units="px"
       dotted="false"
       spacingx="0.023812499"
       spacingy="0.023812499"
       empspacing="10"
       visible="true"
       originx="1.0290883e-07"
       originy="-1.2686763e-08" />
  </sodipodi:namedview>
  <metadata
     id="metadata5">
    <rdf:RDF>
      <cc:Work
         rdf:about="">
        <dc:format>image/svg+xml</dc:format>
        <dc:type
           rdf:resource="http://purl.org/dc/dcmitype/StillImage" />
        <dc:title></dc:title>
      </cc:Work>
    </rdf:RDF>
  </metadata>
  <g
     inkscape:label="Layer 1"
     inkscape:groupmode="layer"
     id="layer1">
    <g
       id="g13567"
       transform="matrix(1.5625001,0.93750005,-1.5625001,0.93750005,6.2727256,3.8654368)">
      <path
         style="fill:#01aac1;stroke-width:0.264583"
         d="M 0.16449484,-0.0542941 V -4.2876272 H 4.3978279 8.631161 V -0.0542941 4.179039 H 4.3978279 0.16449484 Z"
         id="path13575" />
      <path
         style="fill:#088bac;stroke-width:0.264583"
         d="M 0.16449484,-0.0542941 V -4.2876272 H 4.3978279 8.631161 V -0.0542941 4.179039 H 4.3978279 0.16449484 Z M 4.588905,1.0926373 C 4.720758,0.69660209 3.7618765,0.38912982 3.0749113,0.6071642 2.3701543,0.83084532 2.403401,1.2037713 3.1410572,1.3491175 4.015496,1.5214152 4.4731416,1.440345 4.588905,1.0926373 Z m 0.5950106,-2.98868 c 0.2140667,-0.13538 0.3279298,-0.3074282 0.2530287,-0.3823292 -0.2050016,-0.2050018 -1.3036997,0.1345044 -1.3036997,0.4028533 0,0.3034777 0.5555086,0.2926264 1.050671,-0.020524 z"
         id="path13573" />
      <path
         style="fill:#0c7ba1;stroke-width:0.264583"
         d="M 0.16449484,-0.0542941 V -4.2876272 H 4.3978279 8.631161 v 0.7717014 c 0,0.4244357 -0.1488281,0.8317547 -0.3307291,0.9051534 -0.2645833,0.1067617 -0.2645833,0.1376297 0,0.1543403 0.195975,0.012377 0.3307291,0.389216 0.3307291,0.9248812 0,0.497196 -0.1488281,0.96404639 -0.3307291,1.03744498 -0.2645833,0.10676175 -0.2645833,0.13762989 0,0.15434044 0.2370055,0.0149688 0.3307291,0.65820895 0.3307291,2.26984628 V 4.179039 H 4.3978279 0.16449484 Z M 5.4561612,2.850124 C 5.7934983,2.6270213 5.7583299,2.5142329 5.2217319,2.0982846 4.8036776,1.7742264 4.6919597,1.5461738 4.8910028,1.4231582 5.387309,1.1164241 5.2354172,0.77571515 4.4126981,0.35027046 3.5681166,-0.0864796 2.6614671,0.09470388 2.0590025,0.82062922 1.7911677,1.1433502 1.7932878,1.2645228 2.0698762,1.4421098 c 0.787069,0.5053475 1.6161125,0.884846 1.933013,0.884846 0.186078,0 0.4068566,0.1785937 0.4906189,0.3968749 0.176843,0.4608455 0.4104593,0.4914943 0.9626531,0.1262933 z m 1.1906249,-3.69816806 c 0,-0.28010114 -0.2335476,-0.37632854 -0.7937499,-0.32704454 -0.7551224,0.066432 -0.7687564,0.050337 -0.2801593,-0.3307292 0.2824747,-0.2203077 0.6244751,-0.4005595 0.7600007,-0.4005595 0.1355259,0 0.093189,-0.1846201 -0.09408,-0.4102668 C 5.950932,-2.6635002 5.9884909,-2.7504948 6.4818028,-2.8794988 6.802726,-2.9634221 7.021914,-3.162244 6.9688867,-3.3213253 6.8580229,-3.6539173 5.0074607,-4.0929348 4.4051881,-3.9295235 c -0.2223293,0.060323 -0.068083,0.1234903 0.3427693,0.1403709 1.1343819,0.046608 0.8047071,0.8571502 -0.5525555,1.3585187 -0.8772853,0.3240664 -1.0537838,0.4851299 -0.80464,0.7342737 0.1755323,0.1755324 0.4739307,0.3191495 0.6631077,0.3191495 0.1891771,0 0.3439583,0.1190625 0.3439583,0.2645833 0,0.14552085 -0.1190625,0.26458334 -0.2645833,0.26458334 -0.1455208,0 -0.2645833,0.1252847 -0.2645833,0.27841045 0,0.16962648 0.5427511,0.24716236 1.3890624,0.19843749 1.0227897,-0.0588854 1.3890624,-0.18462228 1.3890624,-0.47684794 z"
         id="path13571" />
      <path
         style="fill:#126d99;stroke-width:0.264583"
         d="M 0.16449484,-0.0542941 V -4.2876272 H 4.3978279 8.631161 v 0.79375 c 0,0.9247214 -0.1616559,0.9772501 -0.9089889,0.2953684 -0.7667609,-0.699608 -3.3788584,-0.9995812 -3.8422385,-0.4412424 -0.2941248,0.3543987 -0.2386584,0.4104573 0.4061224,0.4104573 0.5684663,0 0.6731556,0.073616 0.4384546,0.3083172 C 4.5549362,-2.7514022 3.913728,-2.632348 3.299604,-2.6564118 2.4804073,-2.6885111 2.0220834,-2.5489774 1.5787841,-2.1325193 0.88233206,-1.4782365 1.0389008,-0.86416115 1.7403253,-1.4989418 2.2547331,-1.9644743 2.5970361,-1.7309771 2.9122148,-0.69955355 3.0457381,-0.26259737 2.8943912,-0.06621834 2.1508469,0.28835347 1.0133475,0.83078896 0.96603767,1.3626411 2.0165781,1.7977891 c 0.4365624,0.18083 0.7937499,0.4195133 0.7937499,0.5304073 0,0.110894 0.2470327,0.2662259 0.548962,0.345182 C 3.8221351,2.7944152 3.8626275,2.902185 3.6174127,3.360373 3.3451837,3.8690376 3.3820095,3.8929678 4.1929299,3.7343557 5.9747387,3.3858428 6.8633013,2.2927142 5.6721051,1.9146431 5.1060209,1.7349749 5.1088639,1.7236233 5.812247,1.3550836 6.6327561,0.92517562 6.5182664,0.47487254 5.5884529,0.47487254 c -0.3466256,0 -0.7038131,-0.1190625 -0.79375,-0.26458332 -0.099714,-0.16134053 0.2987199,-0.26458332 1.0210789,-0.26458332 1.680538,0 2.0745274,-0.18706014 1.6901924,-0.80247856 C 7.2588658,-1.252456 7.2948753,-1.4530628 7.6917252,-1.8915767 7.9624809,-2.1907587 8.284618,-2.435544 8.407585,-2.435544 c 0.3571054,0 0.2580867,1.79406067 -0.1071531,1.94143808 -0.2645833,0.10676175 -0.2645833,0.13762989 0,0.15434044 0.2370055,0.0149688 0.3307291,0.65820895 0.3307291,2.26984628 V 4.179039 H 4.3978279 0.16449484 Z"
         id="path13569" />
    </g>
  </g>
</svg>
