<?xml version="1.0" encoding="UTF-8" standalone="no"?>
<svg
   xmlns:dc="http://purl.org/dc/elements/1.1/"
   xmlns:cc="http://creativecommons.org/ns#"
   xmlns:rdf="http://www.w3.org/1999/02/22-rdf-syntax-ns#"
   xmlns:svg="http://www.w3.org/2000/svg"
   xmlns="http://www.w3.org/2000/svg"
   xmlns:sodipodi="http://sodipodi.sourceforge.net/DTD/sodipodi-0.dtd"
   xmlns:inkscape="http://www.inkscape.org/namespaces/inkscape"
   width="100"
   height="80"
   viewBox="0 0 26.458333 21.166666"
   version="1.1"
   id="svg8"
   sodipodi:docname="WaterSides.svg"
   inkscape:version="1.0.2-2 (e86c870879, 2021-01-15)">
  <defs
     id="defs2">
    <inkscape:perspective
       sodipodi:type="inkscape:persp3d"
       inkscape:vp_x="0 : 16.695833 : 1"
       inkscape:vp_y="0 : 999.99997 : 0"
       inkscape:vp_z="9.9999999 : 16.695833 : 1"
       inkscape:persp3d-origin="5.0000001 : 15.029166 : 1"
       id="perspective1944" />
  </defs>
  <sodipodi:namedview
     id="base"
     pagecolor="#ffffff"
     bordercolor="#666666"
     borderopacity="1.0"
     inkscape:pageopacity="0.0"
     inkscape:pageshadow="2"
     inkscape:zoom="10.3375"
     inkscape:cx="50"
     inkscape:cy="40"
     inkscape:document-units="mm"
     inkscape:current-layer="layer1"
     inkscape:document-rotation="0"
     showgrid="true"
     showguides="true"
     inkscape:guide-bbox="true"
     inkscape:window-width="1920"
     inkscape:window-height="1017"
     inkscape:window-x="-8"
     inkscape:window-y="-8"
     inkscape:window-maximized="1"
     units="px">
    <inkscape:grid
       type="xygrid"
       id="grid1942"
       units="px"
       dotted="false"
       spacingx="0.26458333"
       spacingy="0.26458333"
       empspacing="10"
       visible="true" />
  </sodipodi:namedview>
  <metadata
     id="metadata5">
    <rdf:RDF>
      <cc:Work
         rdf:about="">
        <dc:format>image/svg+xml</dc:format>
        <dc:type
           rdf:resource="http://purl.org/dc/dcmitype/StillImage" />
        <dc:title></dc:title>
      </cc:Work>
    </rdf:RDF>
  </metadata>
  <g
     inkscape:label="Layer 1"
     inkscape:groupmode="layer"
     id="layer1">
    <path
       style="fill:#0085a5;fill-opacity:1;stroke:none;stroke-width:0.241531;stroke-linecap:butt;stroke-linejoin:bevel;stroke-miterlimit:4;stroke-dasharray:none;stroke-opacity:1"
       d="m 0,7.9375 v 5.291667 l 13.229167,7.9375 V 15.875 Z"
       id="path1962"
       sodipodi:nodetypes="ccccc" />
    <path
       style="fill:#008eaf;fill-opacity:1;stroke:none;stroke-width:0.228285;stroke-linecap:butt;stroke-linejoin:bevel;stroke-miterlimit:4;stroke-dasharray:none;stroke-opacity:1"
       d="M 13.229167,15.875 26.458333,7.9375 v 5.291667 l -13.229166,7.9375 z"
       id="path1964"
       sodipodi:nodetypes="ccccc" />
    <path
       style="fill:#00a5ce;fill-opacity:1;stroke:none;stroke-width:0.777825px;stroke-linecap:butt;stroke-linejoin:miter;stroke-opacity:1"
       d="m 1.3229166,8.7312444 c 0,2.9104226 0.79375,4.4979226 0,5.2916666 l 5.2916667,3.175 c 0.031,-1.151122 -0.8362656,-4.918589 1.462273,-0.518111 0.3634576,0.695778 1.9773107,1.311889 1.1835604,2.105633 l 2.6458343,1.5875 c 0.793755,-0.793777 -0.793756,-4.497911 0,-5.291666 L 9.2604167,13.493744 C 8.4666667,14.287522 7.290126,11.795111 6.717923,12.8153 6.1306485,13.862411 5.8208328,12.699967 6.6145786,11.9063 Z"
       id="path4715"
       sodipodi:nodetypes="cccsccccscc" />
    <path
       style="fill:#00a8d2;fill-opacity:1;stroke:none;stroke-width:0.777825px;stroke-linecap:butt;stroke-linejoin:miter;stroke-opacity:1"
       d="m 18.520833,12.7 c 0.529167,0.793778 0.445189,1.569333 0,2.645833 -0.651411,1.221978 -0.529167,1.852078 0,2.645834 l 3.96875,-2.381256 C 22.224994,14.816633 21.49815,14.533745 22.224994,13.229167 22.518972,12.053245 23.01875,11.1125 22.489583,10.318744 Z"
       id="path4719"
       sodipodi:nodetypes="ccccccc" />
    <path
       style="fill:#0085a5;fill-opacity:1;stroke:none;stroke-width:0.777825px;stroke-linecap:butt;stroke-linejoin:miter;stroke-opacity:1"
       d="m 3.7335645,10.906711 c -0.2618645,0.469 -0.4075488,1.091778 -0.2939812,2.057878 0.520899,1.246166 0.2456191,1.253167 0.2939812,1.763889 C 3.9740491,14.203033 4.1488035,13.6487 4.0275468,12.964589 3.6885467,12.419811 3.6618534,11.692111 3.7335645,10.906711 Z"
       id="path4721"
       sodipodi:nodetypes="ccccc" />
    <path
       style="fill:#00a8d2;fill-opacity:1;stroke:none;stroke-width:0.777825px;stroke-linecap:butt;stroke-linejoin:miter;stroke-opacity:1"
       d="m 14.552083,15.081244 c 0.793755,0.793778 0.709755,1.833923 0.264589,2.910423 -0.651411,1.221978 -0.793756,1.5875 -0.264589,2.381244 l 2.645833,-1.5875 c -0.529167,-0.793778 1e-6,-1.587489 0.264589,-2.381244 0.293978,-1.175922 0.529178,-2.116667 -0.264589,-2.910423 z"
       id="path4719-8"
       sodipodi:nodetypes="ccccccc" />
  </g>
</svg>
