<?xml version="1.0" encoding="UTF-8" standalone="no"?>
<svg
   xmlns:dc="http://purl.org/dc/elements/1.1/"
   xmlns:cc="http://creativecommons.org/ns#"
   xmlns:rdf="http://www.w3.org/1999/02/22-rdf-syntax-ns#"
   xmlns:svg="http://www.w3.org/2000/svg"
   xmlns="http://www.w3.org/2000/svg"
   xmlns:sodipodi="http://sodipodi.sourceforge.net/DTD/sodipodi-0.dtd"
   xmlns:inkscape="http://www.inkscape.org/namespaces/inkscape"
   width="9"
   height="7.1999998"
   viewBox="0 0 2.38125 1.9049999"
   version="1.1"
   id="svg8"
   sodipodi:docname="Water2.svg"
   inkscape:version="1.0.2-2 (e86c870879, 2021-01-15)">
  <defs
     id="defs2">
    <inkscape:perspective
       sodipodi:type="inkscape:persp3d"
       inkscape:vp_x="0 : -2.565833 : 1"
       inkscape:vp_y="0 : 999.99998 : 0"
       inkscape:vp_z="10 : -2.565833 : 1"
       inkscape:persp3d-origin="5.0000002 : -4.2324997 : 1"
       id="perspective1944" />
  </defs>
  <sodipodi:namedview
     id="base"
     pagecolor="#ffffff"
     bordercolor="#666666"
     borderopacity="1.0"
     inkscape:pageopacity="0.0"
     inkscape:pageshadow="2"
     inkscape:zoom="181.01934"
     inkscape:cx="6.1744727"
     inkscape:cy="1.2590967"
     inkscape:document-units="mm"
     inkscape:current-layer="layer1"
     inkscape:document-rotation="0"
     showgrid="true"
     showguides="true"
     inkscape:guide-bbox="true"
     inkscape:window-width="1920"
     inkscape:window-height="1017"
     inkscape:window-x="-8"
     inkscape:window-y="-8"
     inkscape:window-maximized="1"
     units="px"
     gridtolerance="10000"
     guidetolerance="10000"
     objecttolerance="10000">
    <inkscape:grid
       type="xygrid"
       id="grid1942"
       units="px"
       dotted="false"
       spacingx="0.023812499"
       spacingy="0.023812499"
       empspacing="10"
       visible="true" />
  </sodipodi:namedview>
  <metadata
     id="metadata5">
    <rdf:RDF>
      <cc:Work
         rdf:about="">
        <dc:format>image/svg+xml</dc:format>
        <dc:type
           rdf:resource="http://purl.org/dc/dcmitype/StillImage" />
        <dc:title></dc:title>
      </cc:Work>
    </rdf:RDF>
  </metadata>
  <g
     inkscape:label="Layer 1"
     inkscape:groupmode="layer"
     id="layer1">
    <path
       style="fill:#0099bd;fill-opacity:1;fill-rule:evenodd;stroke:none;stroke-width:0.0206222;stroke-linecap:butt;stroke-linejoin:bevel;stroke-miterlimit:1;stroke-dasharray:none;stroke-opacity:1;paint-order:stroke markers fill"
       d="M 0,0.71437492 1.1906249,0 2.38125,0.71437492 1.1906249,1.4287499 Z"
       id="path1960" />
    <path
       style="fill:#0085a5;fill-opacity:1;stroke:none;stroke-width:0.0217377;stroke-linecap:butt;stroke-linejoin:bevel;stroke-miterlimit:4;stroke-dasharray:none;stroke-opacity:1"
       d="M 0,0.71437497 V 1.1906249 l 1.190625,0.714375 v -0.47625 z"
       id="path1962"
       sodipodi:nodetypes="ccccc" />
    <path
       style="fill:#008eaf;fill-opacity:1;stroke:none;stroke-width:0.0205457;stroke-linecap:butt;stroke-linejoin:bevel;stroke-miterlimit:4;stroke-dasharray:none;stroke-opacity:1"
       d="M 1.190625,1.4287499 2.3812499,0.71437497 V 1.190625 L 1.190625,1.9049999 Z"
       id="path1964"
       sodipodi:nodetypes="ccccc" />
    <path
       style="fill:#00b2de;fill-opacity:1;stroke:none;stroke-width:0.0564393px;stroke-linecap:butt;stroke-linejoin:miter;stroke-opacity:1"
       d="m 0.83343746,0.21431249 c 0.0714375,0.047625 0.15744488,0.0604265 0.36055704,0.16517268 0.1844683,0.0951314 0.3215803,0.25264111 0.4641269,0.36256124 0.1501845,0.11580979 0.2945035,0.13901605 0.365941,0.18664105 L 1.6668749,1.143 C 1.5954374,1.095375 1.4959887,1.0827934 1.3224641,0.94693431 1.2030265,0.85342197 1.1107276,0.73268246 0.96096335,0.6555447 0.7170471,0.52991286 0.54768748,0.47624998 0.47624998,0.42862498 Z"
       id="path4713"
       sodipodi:nodetypes="cssccsscc" />
    <path
       style="fill:#00a5ce;fill-opacity:1;stroke:none;stroke-width:0.0700043px;stroke-linecap:butt;stroke-linejoin:miter;stroke-opacity:1"
       d="m 0.11906249,0.78581247 c 0,0.26193753 0.0714375,0.40481253 0,0.47624993 l 0.47624999,0.28575 c 0.00279,-0.1036011 -0.142875,-0.1905 0.17837672,-0.1226368 0.069127,0.014603 0.13118576,0.194074 0.0597483,0.2655115 l 0.238125,0.1428753 c 0.071438,-0.071438 -0.071438,-0.4048125 0,-0.47625 L 0.83343746,1.2144374 C 0.76199996,1.2858754 0.64293747,1.3573124 0.63238401,1.2644613 0.62018202,1.157106 0.52387498,1.143 0.59531204,1.0715624 Z"
       id="path4715"
       sodipodi:nodetypes="cccsccccscc" />
    <path
       style="fill:#00a8d2;fill-opacity:1;stroke:none;stroke-width:0.0700043px;stroke-linecap:butt;stroke-linejoin:miter;stroke-opacity:1"
       d="m 1.6668749,1.143 c 0.047625,0.071437 0.040067,0.1412404 0,0.2381249 -0.058627,0.1099778 -0.047625,0.1666875 0,0.238125 L 2.0240624,1.4049374 c -0.023813,-0.071437 -0.089229,-0.096902 -0.023813,-0.2143124 0.026458,-0.1058335 0.071438,-0.1905 0.023813,-0.26193754 z"
       id="path4719"
       sodipodi:nodetypes="ccccccc" />
    <path
       style="fill:#00a8d2;fill-opacity:1;stroke:none;stroke-width:0.0700043px;stroke-linecap:butt;stroke-linejoin:miter;stroke-opacity:1"
       d="m 1.3096874,1.3573124 c 0.071438,0.071437 -0.02625,0.099141 0.00627,0.1917792 0.041352,0.1177833 -0.053898,0.2130333 -0.00627,0.2844708 l 0.238125,-0.142875 c -0.047625,-0.071438 0.063684,-0.1545073 0.023813,-0.2143125 -0.047626,-0.071438 0.047626,-0.1905 -0.023813,-0.2619375 z"
       id="path4719-8"
       sodipodi:nodetypes="csccscc" />
    <path
       style="fill:#00b2de;fill-opacity:1;stroke:none;stroke-width:0.0700043px;stroke-linecap:butt;stroke-linejoin:miter;stroke-opacity:1"
       d="m 1.3096874,0.0714375 c 0,0.21431249 -0.46203147,0.09748834 -0.1654082,0.19576528 0.1497393,0.0496114 0.1297423,0.13764908 0.2151062,0.17068004 0.1111798,0.0430202 0.2499029,0.0769065 0.3568202,0.0241773 0.03765,-0.0185682 0.069732,-0.009623 0.069732,-0.1048726 z"
       id="path5887-4"
       sodipodi:nodetypes="csaacc" />
    <path
       style="fill:#00c3f3;fill-opacity:1;stroke:none;stroke-width:0.0582979px;stroke-linecap:butt;stroke-linejoin:miter;stroke-opacity:1"
       d="m 1.6668786,0.35718936 c 0.031777,-0.073092 -0.028537,-0.0829783 -0.1030166,-0.11827612 -0.074486,-0.0352982 -0.1290234,-0.009536 -0.1388585,0.0298771 -0.00982,0.0394128 -0.1906523,-0.0564369 -0.048171,0.0398778 0.1424756,0.0963124 0.2582798,0.12160832 0.2900424,0.0485193 z"
       id="path4669"
       sodipodi:nodetypes="zzzzz" />
    <path
       style="fill:#00c3f3;fill-opacity:1;stroke:none;stroke-width:0.0700043px;stroke-linecap:butt;stroke-linejoin:miter;stroke-opacity:1"
       d="M 0.64293747,0.61912497 C 0.82811488,0.70160933 1.0398125,1.0159999 1.1191874,1.17475 0.96043748,1.0953749 0.80168747,0.96308333 0.74877081,0.85725003 0.72231247,0.80433333 0.66786892,0.69500973 0.64293747,0.61912497 Z"
       id="path4671"
       sodipodi:nodetypes="cccc" />
    <path
       style="fill:#00b2de;fill-opacity:1;stroke:none;stroke-width:0.0700043px;stroke-linecap:butt;stroke-linejoin:miter;stroke-opacity:1"
       d="m 0.11906249,0.78581242 c 10e-9,-0.0714375 0.0714375,-0.0714375 0,-0.142875 L 0.35718748,0.50006243 C 0.42862498,0.54768748 0.84455639,0.65313896 1.013245,0.82379542 1.1819335,0.99445188 1.4763749,1.1668125 1.5478124,1.2144374 l -0.238125,0.142875 c -0.070233,-0.039677 -0.1904999,-0.047625 -0.2381249,0 0,0 -0.12311247,-0.07588 -0.23812504,-0.142875 0.0197626,-0.028255 0.0180202,-0.057322 -0.057975,-0.1818232 C 0.70967596,0.92483756 0.59531248,0.9763125 0.59531248,1.0715692 Z"
       id="path5887-7"
       sodipodi:nodetypes="ccczccccscc" />
    <path
       style="fill:#00b2de;fill-opacity:1;stroke:none;stroke-width:0.264583px;stroke-linecap:butt;stroke-linejoin:miter;stroke-opacity:1"
       d="m 2.0240624,0.50006247 c -0.071438,0.0714375 0.00127,0.0606554 0.067662,0.10469022 0.089468,0.0593442 0.099026,0.10962228 0.1704636,0.0381848 z"
       id="path6086"
       sodipodi:nodetypes="cscc" />
    <path
       style="fill:#00c3f3;fill-opacity:1;stroke:none;stroke-width:0.0604866px;stroke-linecap:butt;stroke-linejoin:miter;stroke-opacity:1"
       d="M 0.97631246,0.92868746 C 1.0715625,1.0239375 1.3096874,1.095375 1.2620624,1.143 1.2144374,1.190625 1.2944324,1.2774464 1.2144374,1.2620624 1.1344424,1.2466784 1.095375,1.2144374 0.95249996,1.095375 0.80962497,0.97631246 0.88106246,0.83343746 0.97631246,0.92868746 Z"
       id="path4669-6"
       sodipodi:nodetypes="zzzzz" />
  </g>
</svg>
